<svg width="104" height="60" viewBox="0 0 104 60" fill="none" xmlns="http://www.w3.org/2000/svg">
<path d="M14.0934 16.2156C14.9819 16.1475 15.812 15.9507 16.5803 15.625C17.35 15.2992 17.9827 14.8267 18.4781 14.21C18.973 13.5912 19.2212 12.7675 19.2212 11.7384C19.2212 10.1943 18.7101 9.01129 17.6858 8.18629C16.6628 7.36267 15.4855 6.95097 14.156 6.95097C12.3129 6.95097 10.9214 7.5588 9.98443 8.77309C9.04469 9.98738 8.59344 11.5199 8.62773 13.3658H1.68443C1.75346 11.5199 2.08721 9.83422 2.68429 8.31339C3.28275 6.79393 4.12146 5.48957 5.20043 4.40078C6.27733 3.31222 7.5698 2.47214 9.07463 1.87551C10.5795 1.27979 12.2569 0.981934 14.1044 0.981934C15.5409 0.981934 16.978 1.19658 18.4147 1.62405C19.8526 2.05221 21.143 2.69433 22.2903 3.54996C23.4369 4.40558 24.3689 5.44843 25.0869 6.68192C25.8049 7.91404 26.1659 9.33383 26.1659 10.9413C26.1659 12.6875 25.7476 14.2278 24.9134 15.5628C24.0791 16.898 22.8287 17.8041 21.1615 18.2828V18.3861C23.1379 18.8312 24.6876 19.7897 25.8136 21.2619C26.9383 22.7345 27.5 24.4971 27.5 26.5499C27.5 28.4333 27.1322 30.1107 26.3959 31.5833C25.6589 33.0564 24.6755 34.2871 23.4429 35.2813C22.2112 36.2729 20.7896 37.0268 19.1796 37.5391C17.5703 38.0507 15.8924 38.3085 14.148 38.3085C12.1273 38.3085 10.2882 38.0171 8.62613 37.436C6.96585 36.8513 5.55269 36.0034 4.38892 34.8874C3.22423 33.7728 2.32655 32.4117 1.69334 30.802C1.05876 29.1929 0.759764 27.3461 0.794739 25.2597H7.73782C7.77119 26.218 7.92549 27.1326 8.20118 28.0045C8.47549 28.8768 8.87073 29.63 9.38529 30.2623C9.89985 30.8948 10.542 31.4009 11.3146 31.7772C12.0864 32.1521 13.0042 32.3397 14.0669 32.3397C15.7135 32.3397 17.1038 31.8373 18.2353 30.8308C19.368 29.8238 19.9337 28.4504 19.9337 26.7097C19.9337 25.3432 19.6608 24.3017 19.1163 23.5853C18.5702 22.8677 17.8885 22.3486 17.0674 22.0226C16.2465 21.6989 15.3484 21.5112 14.3746 21.4605C13.4001 21.4088 12.4686 21.3823 11.5814 21.3823V16.2156C12.3668 16.284 13.2042 16.284 14.0934 16.2156Z" fill="#1E76C0"/>
<path d="M48.6334 5.64027C52.6939 5.64027 56.7156 7.28409 59.6665 10.1511L60.454 10.9153V4.7483L60.2567 4.60977C56.882 2.24131 53.1607 1.09057 48.8799 1.09057C37.9238 1.09057 29.0105 9.48316 29.0105 19.7989C29.0105 29.9617 37.9238 38.2295 48.8799 38.2295C52.8782 38.2295 56.9156 36.9809 60.2515 34.7151L60.454 34.5763V28.4285L59.672 29.1635C56.6194 32.0337 52.6311 33.6798 48.7324 33.6798C40.7936 33.6798 34.0864 27.2595 34.0864 19.6597C34.0864 12.0606 40.7476 5.64027 48.6334 5.64027Z" fill="#706D6E"/>
<path d="M60.5174 12.6229V26.9565L66.7836 19.4913L60.5174 12.6229Z" fill="#1E76C0"/>
<path d="M98.4607 37.9844L83.7173 19.9646L98.458 1.99231H90.6385L79.8265 15.2071L69.0151 1.99231H61.1965L75.9374 19.9646L61.1931 37.9844H68.9356L79.8265 24.7081L90.7192 37.9844H98.4607Z" fill="#706D6E"/>
<path d="M101.397 35.7147C101.671 35.7147 102.151 35.7664 102.151 35.4148C102.151 35.1876 101.852 35.1465 101.614 35.1465H101.026V35.7147H101.397ZM102.43 37.0433H102.059L101.397 36.0247H101.026V37.0433H100.716V34.8363H101.676C102.074 34.8363 102.461 34.9446 102.461 35.4201C102.461 35.854 102.156 36.0149 101.764 36.0247L102.43 37.0433ZM103.184 35.9525C103.184 35.0015 102.394 34.2467 101.469 34.2467C100.545 34.2467 99.7549 35.0015 99.7549 35.9525C99.7549 36.9034 100.545 37.6583 101.469 37.6583C102.394 37.6583 103.184 36.9034 103.184 35.9525ZM99.4451 35.9525C99.4451 34.8312 100.339 33.9367 101.469 33.9367C102.601 33.9367 103.494 34.8312 103.494 35.9525C103.494 37.0737 102.601 37.9682 101.469 37.9682C100.339 37.9682 99.4451 37.0737 99.4451 35.9525Z" fill="#5B6065"/>
<path d="M22.4397 57.4826C22.0117 57.4826 21.6177 57.4066 21.2577 57.2546C20.8977 57.1026 20.5877 56.8866 20.3277 56.6066C20.0677 56.3226 19.8777 55.9846 19.7577 55.5926L20.5977 55.3406C20.7417 55.7686 20.9777 56.0926 21.3057 56.3126C21.6377 56.5326 22.0117 56.6386 22.4277 56.6306C22.8117 56.6226 23.1417 56.5366 23.4177 56.3726C23.6977 56.2086 23.9117 55.9806 24.0597 55.6886C24.2077 55.3966 24.2817 55.0586 24.2817 54.6746C24.2817 54.0866 24.1097 53.6146 23.7657 53.2586C23.4257 52.8986 22.9757 52.7186 22.4157 52.7186C22.2597 52.7186 22.0957 52.7406 21.9237 52.7846C21.7517 52.8246 21.5917 52.8826 21.4437 52.9586L20.9997 52.2566L24.3597 49.1546L24.5037 49.5146H20.0997V48.6686H25.0917V49.5266L22.1637 52.3226L22.1517 51.9746C22.7517 51.8986 23.2797 51.9666 23.7357 52.1786C24.1917 52.3906 24.5477 52.7146 24.8037 53.1506C25.0637 53.5826 25.1937 54.0906 25.1937 54.6746C25.1937 55.2266 25.0737 55.7146 24.8337 56.1386C24.5977 56.5586 24.2717 56.8886 23.8557 57.1286C23.4397 57.3646 22.9677 57.4826 22.4397 57.4826ZM30.2486 57.4886C29.3886 57.4886 28.6626 57.2986 28.0706 56.9186C27.4786 56.5346 27.0306 56.0046 26.7266 55.3286C26.4226 54.6526 26.2706 53.8726 26.2706 52.9886C26.2706 52.1046 26.4226 51.3246 26.7266 50.6486C27.0306 49.9726 27.4786 49.4446 28.0706 49.0646C28.6626 48.6806 29.3886 48.4886 30.2486 48.4886C31.2526 48.4886 32.0726 48.7466 32.7086 49.2626C33.3446 49.7746 33.7806 50.4626 34.0166 51.3266L33.1166 51.5606C32.9326 50.8766 32.6026 50.3346 32.1266 49.9346C31.6506 49.5346 31.0246 49.3346 30.2486 49.3346C29.5726 49.3346 29.0106 49.4886 28.5626 49.7966C28.1146 50.1046 27.7766 50.5346 27.5486 51.0866C27.3246 51.6346 27.2086 52.2686 27.2006 52.9886C27.1966 53.7086 27.3066 54.3426 27.5306 54.8906C27.7586 55.4386 28.0986 55.8686 28.5506 56.1806C29.0066 56.4886 29.5726 56.6426 30.2486 56.6426C31.0246 56.6426 31.6506 56.4426 32.1266 56.0426C32.6026 55.6386 32.9326 55.0966 33.1166 54.4166L34.0166 54.6506C33.7806 55.5146 33.3446 56.2046 32.7086 56.7206C32.0726 57.2326 31.2526 57.4886 30.2486 57.4886ZM34.2571 57.3086L37.2511 52.9346L34.3351 48.6686H35.4031L37.7731 52.1966L40.1431 48.6686H41.2171L38.3011 52.9346L41.2891 57.3086H40.2211L37.7731 53.6786L35.3311 57.3086H34.2571ZM44.6568 57.3086V48.6686H47.9928C48.0768 48.6686 48.1708 48.6726 48.2748 48.6806C48.3828 48.6846 48.4908 48.6966 48.5988 48.7166C49.0508 48.7846 49.4328 48.9426 49.7448 49.1906C50.0608 49.4346 50.2988 49.7426 50.4588 50.1146C50.6228 50.4866 50.7048 50.8986 50.7048 51.3506C50.7048 51.7986 50.6228 52.2086 50.4588 52.5806C50.2948 52.9526 50.0548 53.2626 49.7388 53.5106C49.4268 53.7546 49.0468 53.9106 48.5988 53.9786C48.4908 53.9946 48.3828 54.0066 48.2748 54.0146C48.1708 54.0226 48.0768 54.0266 47.9928 54.0266H45.5388V57.3086H44.6568ZM45.5388 53.1866H47.9688C48.0408 53.1866 48.1248 53.1826 48.2208 53.1746C48.3168 53.1666 48.4108 53.1526 48.5028 53.1326C48.7988 53.0686 49.0408 52.9466 49.2288 52.7666C49.4208 52.5866 49.5628 52.3726 49.6548 52.1246C49.7508 51.8766 49.7988 51.6186 49.7988 51.3506C49.7988 51.0826 49.7508 50.8246 49.6548 50.5766C49.5628 50.3246 49.4208 50.1086 49.2288 49.9286C49.0408 49.7486 48.7988 49.6266 48.5028 49.5626C48.4108 49.5426 48.3168 49.5306 48.2208 49.5266C48.1248 49.5186 48.0408 49.5146 47.9688 49.5146H45.5388V53.1866ZM53.4717 57.4886C52.9837 57.4886 52.5737 57.4006 52.2417 57.2246C51.9137 57.0486 51.6677 56.8146 51.5037 56.5226C51.3397 56.2306 51.2577 55.9126 51.2577 55.5686C51.2577 55.2166 51.3277 54.9166 51.4677 54.6686C51.6117 54.4166 51.8057 54.2106 52.0497 54.0506C52.2977 53.8906 52.5837 53.7686 52.9077 53.6846C53.2357 53.6046 53.5977 53.5346 53.9937 53.4746C54.3937 53.4106 54.7837 53.3566 55.1637 53.3126C55.5477 53.2646 55.8837 53.2186 56.1717 53.1746L55.8597 53.3666C55.8717 52.7266 55.7477 52.2526 55.4877 51.9446C55.2277 51.6366 54.7757 51.4826 54.1317 51.4826C53.6877 51.4826 53.3117 51.5826 53.0037 51.7826C52.6997 51.9826 52.4857 52.2986 52.3617 52.7306L51.5037 52.4786C51.6517 51.8986 51.9497 51.4486 52.3977 51.1286C52.8457 50.8086 53.4277 50.6486 54.1437 50.6486C54.7357 50.6486 55.2377 50.7606 55.6497 50.9846C56.0657 51.2046 56.3597 51.5246 56.5317 51.9446C56.6117 52.1326 56.6637 52.3426 56.6877 52.5746C56.7117 52.8066 56.7237 53.0426 56.7237 53.2826V57.3086H55.9377V55.6826L56.1657 55.7786C55.9457 56.3346 55.6037 56.7586 55.1397 57.0506C54.6757 57.3426 54.1197 57.4886 53.4717 57.4886ZM53.5737 56.7266C53.9857 56.7266 54.3457 56.6526 54.6537 56.5046C54.9617 56.3566 55.2097 56.1546 55.3977 55.8986C55.5857 55.6386 55.7077 55.3466 55.7637 55.0226C55.8117 54.8146 55.8377 54.5866 55.8417 54.3386C55.8457 54.0866 55.8477 53.8986 55.8477 53.7746L56.1837 53.9486C55.8837 53.9886 55.5577 54.0286 55.2057 54.0686C54.8577 54.1086 54.5137 54.1546 54.1737 54.2066C53.8377 54.2586 53.5337 54.3206 53.2617 54.3926C53.0777 54.4446 52.8997 54.5186 52.7277 54.6146C52.5557 54.7066 52.4137 54.8306 52.3017 54.9866C52.1937 55.1426 52.1397 55.3366 52.1397 55.5686C52.1397 55.7566 52.1857 55.9386 52.2777 56.1146C52.3737 56.2906 52.5257 56.4366 52.7337 56.5526C52.9457 56.6686 53.2257 56.7266 53.5737 56.7266ZM58.2857 57.3086V50.8286H59.0777V52.3886L58.9217 52.1846C58.9937 51.9926 59.0877 51.8166 59.2037 51.6566C59.3197 51.4926 59.4457 51.3586 59.5817 51.2546C59.7497 51.1066 59.9457 50.9946 60.1697 50.9186C60.3937 50.8386 60.6197 50.7926 60.8477 50.7806C61.0757 50.7646 61.2837 50.7806 61.4717 50.8286V51.6566C61.2357 51.5966 60.9777 51.5826 60.6977 51.6146C60.4177 51.6466 60.1597 51.7586 59.9237 51.9506C59.7077 52.1186 59.5457 52.3206 59.4377 52.5566C59.3297 52.7886 59.2577 53.0366 59.2217 53.3006C59.1857 53.5606 59.1677 53.8186 59.1677 54.0746V57.3086H58.2857ZM66.1379 57.3086C65.7739 57.3846 65.4139 57.4146 65.0579 57.3986C64.7059 57.3826 64.3899 57.3066 64.1099 57.1706C63.8339 57.0346 63.6239 56.8226 63.4799 56.5346C63.3639 56.2946 63.2999 56.0526 63.2879 55.8086C63.2799 55.5606 63.2759 55.2786 63.2759 54.9626V49.0286H64.1519V54.9266C64.1519 55.1986 64.1539 55.4266 64.1579 55.6106C64.1659 55.7906 64.2079 55.9506 64.2839 56.0906C64.4279 56.3586 64.6559 56.5186 64.9679 56.5706C65.2839 56.6226 65.6739 56.6106 66.1379 56.5346V57.3086ZM61.8899 51.5846V50.8286H66.1379V51.5846H61.8899ZM72.0946 57.3086V54.0026C72.0946 53.6426 72.0606 53.3126 71.9926 53.0126C71.9246 52.7086 71.8146 52.4446 71.6626 52.2206C71.5146 51.9926 71.3206 51.8166 71.0806 51.6926C70.8446 51.5686 70.5566 51.5066 70.2166 51.5066C69.9046 51.5066 69.6286 51.5606 69.3886 51.6686C69.1526 51.7766 68.9526 51.9326 68.7886 52.1366C68.6286 52.3366 68.5066 52.5806 68.4226 52.8686C68.3386 53.1566 68.2966 53.4846 68.2966 53.8526L67.6726 53.7146C67.6726 53.0506 67.7886 52.4926 68.0206 52.0406C68.2526 51.5886 68.5726 51.2466 68.9806 51.0146C69.3886 50.7826 69.8566 50.6666 70.3846 50.6666C70.7726 50.6666 71.1106 50.7266 71.3986 50.8466C71.6906 50.9666 71.9366 51.1286 72.1366 51.3326C72.3406 51.5366 72.5046 51.7706 72.6286 52.0346C72.7526 52.2946 72.8426 52.5726 72.8986 52.8686C72.9546 53.1606 72.9826 53.4526 72.9826 53.7446V57.3086H72.0946ZM67.4086 57.3086V50.8286H68.2066V52.4246H68.2966V57.3086H67.4086ZM77.2465 57.4886C76.6145 57.4886 76.0665 57.3486 75.6025 57.0686C75.1425 56.7886 74.7845 56.3946 74.5285 55.8866C74.2725 55.3786 74.1445 54.7826 74.1445 54.0986C74.1445 53.3906 74.2705 52.7786 74.5225 52.2626C74.7745 51.7466 75.1285 51.3486 75.5845 51.0686C76.0445 50.7886 76.5865 50.6486 77.2105 50.6486C77.8505 50.6486 78.3965 50.7966 78.8485 51.0926C79.3005 51.3846 79.6425 51.8046 79.8745 52.3526C80.1065 52.9006 80.2125 53.5546 80.1925 54.3146H79.2925V54.0026C79.2765 53.1626 79.0945 52.5286 78.7465 52.1006C78.4025 51.6726 77.8985 51.4586 77.2345 51.4586C76.5385 51.4586 76.0045 51.6846 75.6325 52.1366C75.2645 52.5886 75.0805 53.2326 75.0805 54.0686C75.0805 54.8846 75.2645 55.5186 75.6325 55.9706C76.0045 56.4186 76.5305 56.6426 77.2105 56.6426C77.6745 56.6426 78.0785 56.5366 78.4225 56.3246C78.7705 56.1086 79.0445 55.7986 79.2445 55.3946L80.0665 55.7126C79.8105 56.2766 79.4325 56.7146 78.9325 57.0266C78.4365 57.3346 77.8745 57.4886 77.2465 57.4886ZM74.7685 54.3146V53.5766H79.7185V54.3146H74.7685ZM81.524 57.3086V50.8286H82.316V52.3886L82.16 52.1846C82.232 51.9926 82.326 51.8166 82.442 51.6566C82.558 51.4926 82.684 51.3586 82.82 51.2546C82.988 51.1066 83.184 50.9946 83.408 50.9186C83.632 50.8386 83.858 50.7926 84.086 50.7806C84.314 50.7646 84.522 50.7806 84.71 50.8286V51.6566C84.474 51.5966 84.216 51.5826 83.936 51.6146C83.656 51.6466 83.398 51.7586 83.162 51.9506C82.946 52.1186 82.784 52.3206 82.676 52.5566C82.568 52.7886 82.496 53.0366 82.46 53.3006C82.424 53.5606 82.406 53.8186 82.406 54.0746V57.3086H81.524Z" fill="#38424E"/>
</svg>
