<svg width="44" height="44" viewBox="0 0 44 44" fill="none" xmlns="http://www.w3.org/2000/svg">
<path d="M1 8C1 4.13401 4.13401 1 8 1H36C39.866 1 43 4.13401 43 8V36C43 39.866 39.866 43 36 43H8C4.13401 43 1 39.866 1 36V8Z" fill="#706D6E"/>
<path d="M24.6231 19.4196L28.0418 24.5804M28.0418 19.4196L24.6231 24.5804M23.9002 23.0446C23.8571 23.4657 23.6594 23.8559 23.3452 24.1397C23.031 24.4234 22.6227 24.5804 22.1993 24.5804C21.746 24.5803 21.3113 24.4001 20.9907 24.0795C20.6702 23.7589 20.4902 23.3242 20.4902 22.8708V21.1292C20.4903 20.6759 20.6704 20.2412 20.9909 19.9207C21.3114 19.6002 21.7461 19.4201 22.1993 19.42C22.6225 19.4199 23.0306 19.5768 23.3448 19.8603C23.659 20.1437 23.8568 20.5337 23.9002 20.9546M15.9589 24.145C16.3152 24.4433 16.7002 24.5804 17.5639 24.5804H18.0877C18.4297 24.5803 18.7577 24.4443 18.9996 24.2024C19.2414 23.9605 19.3772 23.6325 19.3772 23.2904C19.3772 22.9484 19.2414 22.6203 18.9996 22.3784C18.7577 22.1365 18.4297 22.0005 18.0877 22.0004M18.0877 22.0004C18.4296 22.0003 18.7575 21.864 18.9993 21.6223C19.2411 21.3806 19.377 21.0527 19.3772 20.7108C19.3772 20.3688 19.2414 20.0407 18.9996 19.7988C18.7577 19.5569 18.4297 19.4209 18.0877 19.4208L17.5643 19.4196C16.7002 19.4175 16.3156 19.5533 15.9585 19.8508M18.0877 22.0004H16.7735" stroke="white" stroke-linecap="round" stroke-linejoin="round"/>
<path d="M23.9089 22.0004L23.1064 21.2162V22.785L23.9089 22.0004Z" fill="white"/>
<path d="M28.8748 14.2917H15.1248C14.9038 14.2917 14.6919 14.3795 14.5356 14.5358C14.3793 14.692 14.2915 14.904 14.2915 15.125V28.875C14.2915 29.096 14.3793 29.308 14.5356 29.4643C14.6919 29.6206 14.9038 29.7084 15.1248 29.7084H28.8748C29.0959 29.7084 29.3078 29.6206 29.4641 29.4643C29.6204 29.308 29.7082 29.096 29.7082 28.875V15.125C29.7082 14.904 29.6204 14.692 29.4641 14.5358C29.3078 14.3795 29.0959 14.2917 28.8748 14.2917Z" stroke="white" stroke-linecap="round" stroke-linejoin="round"/>
<path d="M1 8C1 4.13401 4.13401 1 8 1H36C39.866 1 43 4.13401 43 8V36C43 39.866 39.866 43 36 43H8C4.13401 43 1 39.866 1 36V8Z" stroke="#706D6E" stroke-width="2"/>
</svg>
