<svg width="41" height="40" viewBox="0 0 41 40" fill="none" xmlns="http://www.w3.org/2000/svg">
<g clip-path="url(#clip0_2124_6154)">
<path d="M35.5 0H5.5C2.73858 0 0.5 2.23858 0.5 5V35C0.5 37.7614 2.73858 40 5.5 40H35.5C38.2614 40 40.5 37.7614 40.5 35V5C40.5 2.23858 38.2614 0 35.5 0Z" fill="#1B307A"/>
<path d="M9.25 27.885V11.85C9.25 11.74 9.295 11.68 9.405 11.68C9.67 11.68 9.92 11.68 10.28 11.665C10.655 11.65 11.045 11.65 11.465 11.635C11.885 11.62 12.34 11.62 12.82 11.605C13.305 11.59 13.77 11.59 14.24 11.59C15.52 11.59 16.575 11.745 17.45 12.075C18.23 12.34 18.945 12.775 19.54 13.355C20.04 13.855 20.43 14.46 20.675 15.13C20.91 15.785 21.035 16.455 21.035 17.155C21.035 18.495 20.725 19.6 20.1 20.475C19.475 21.35 18.605 22 17.59 22.375C16.53 22.765 15.36 22.905 14.085 22.905C13.71 22.905 13.46 22.905 13.305 22.89C13.15 22.875 12.93 22.875 12.635 22.875V27.875C12.65 27.985 12.575 28.08 12.465 28.095H9.44C9.315 28.095 9.255 28.035 9.255 27.89L9.25 27.885ZM12.645 14.69V19.925C12.865 19.94 13.065 19.955 13.255 19.955H14.08C14.69 19.955 15.295 19.86 15.87 19.675C16.37 19.535 16.805 19.24 17.15 18.85C17.475 18.46 17.635 17.93 17.635 17.245C17.65 16.76 17.525 16.28 17.275 15.86C17.01 15.455 16.635 15.145 16.185 14.97C15.61 14.735 14.985 14.645 14.345 14.66C13.94 14.66 13.58 14.66 13.285 14.675C12.975 14.66 12.755 14.675 12.645 14.69Z" fill="#56FDFD"/>
<path d="M30.7494 18.9699C30.2844 18.7199 29.7844 18.5499 29.2544 18.4399C28.6794 18.3149 28.0994 18.2349 27.5094 18.2349C27.1994 18.2199 26.8694 18.2649 26.5744 18.3449C26.3694 18.3899 26.1994 18.4999 26.0894 18.6549C26.0094 18.7799 25.9644 18.9349 25.9644 19.0749C25.9644 19.2149 26.0244 19.3549 26.1194 19.4799C26.2594 19.6499 26.4444 19.7899 26.6494 19.8999C27.0094 20.0849 27.3794 20.2599 27.7544 20.4149C28.5944 20.6949 29.4044 21.0849 30.1544 21.5499C30.6694 21.8749 31.0894 22.3149 31.3844 22.8449C31.6344 23.3449 31.7594 23.8899 31.7444 24.4499C31.7594 25.1799 31.5394 25.9149 31.1344 26.5199C30.6994 27.1449 30.0894 27.6249 29.3894 27.9049C28.6244 28.2299 27.6894 28.4049 26.5694 28.4049C25.8544 28.4049 25.1494 28.3449 24.4494 28.1999C23.9044 28.1049 23.3594 27.9349 22.8594 27.6999C22.7494 27.6399 22.6744 27.5299 22.6894 27.4049V24.6949C22.6894 24.6499 22.7044 24.5849 22.7494 24.5549C22.7944 24.5249 22.8444 24.5399 22.8894 24.5699C23.4994 24.9299 24.1344 25.1799 24.8194 25.3349C25.4094 25.4899 26.0344 25.5699 26.6594 25.5699C27.2844 25.5699 27.6744 25.4899 27.9544 25.3499C28.2044 25.2399 28.3744 24.9749 28.3744 24.6949C28.3744 24.4749 28.2494 24.2749 27.9994 24.0699C27.7494 23.8649 27.2344 23.6349 26.4744 23.3399C25.6794 23.0599 24.9494 22.6849 24.2644 22.2199C23.7794 21.8749 23.3744 21.4249 23.0794 20.8949C22.8294 20.3949 22.7044 19.8499 22.7194 19.3049C22.7194 18.6349 22.9044 17.9949 23.2494 17.4199C23.6394 16.7949 24.2144 16.2999 24.8844 15.9849C25.6144 15.6099 26.5344 15.4399 27.6444 15.4399C28.2844 15.4399 28.9394 15.4849 29.5744 15.5799C30.0394 15.6399 30.4944 15.7649 30.9144 15.9399C30.9744 15.9549 31.0394 16.0199 31.0694 16.0799C31.0844 16.1399 31.0994 16.2049 31.0994 16.2649V18.8049C31.0994 18.8649 31.0694 18.9299 31.0194 18.9599C30.8794 18.9899 30.7994 18.9899 30.7394 18.9599L30.7494 18.9699Z" fill="#56FDFD"/>
</g>
<defs>
<clipPath id="clip0_2124_6154">
<rect width="40" height="40" fill="white" transform="translate(0.5)"/>
</clipPath>
</defs>
</svg>
