<svg width="41" height="40" viewBox="0 0 41 40" fill="none" xmlns="http://www.w3.org/2000/svg">
<g clip-path="url(#clip0_2124_6165)">
<path d="M35.5 0H5.5C2.73858 0 0.5 2.23858 0.5 5V35C0.5 37.7614 2.73858 40 5.5 40H35.5C38.2614 40 40.5 37.7614 40.5 35V5C40.5 2.23858 38.2614 0 35.5 0Z" fill="#3F1810"/>
<path d="M20.5502 25.38H14.2502L12.9602 29.36C12.9252 29.51 12.7902 29.615 12.6402 29.595H9.45519C9.27019 29.595 9.22019 29.495 9.27019 29.29L14.7252 13.585C14.7752 13.415 14.8252 13.23 14.8952 13.025C14.9652 12.67 14.9952 12.295 14.9952 11.925C14.9802 11.84 15.0452 11.755 15.1302 11.74H19.5202C19.6552 11.74 19.7252 11.79 19.7402 11.875L25.9252 29.325C25.9752 29.51 25.9252 29.595 25.7552 29.595H22.2152C22.0952 29.61 21.9802 29.525 21.9452 29.41L20.5552 25.38H20.5502ZM15.2302 21.94H19.5352C19.4352 21.585 19.3002 21.16 19.1452 20.72C18.9952 20.265 18.8402 19.77 18.6902 19.265C18.5202 18.74 18.3702 18.23 18.2002 17.705C18.0302 17.18 17.8802 16.69 17.7452 16.195C17.6102 15.72 17.4902 15.28 17.3702 14.875H17.3352C17.1852 15.605 16.9952 16.33 16.7602 17.06C16.5052 17.875 16.2502 18.72 15.9802 19.565C15.7452 20.43 15.4902 21.225 15.2352 21.935L15.2302 21.94Z" fill="#FF993A"/>
<path d="M29.6156 14.64C29.0556 14.655 28.5156 14.435 28.1056 14.045C27.7156 13.62 27.5106 13.06 27.5306 12.485C27.5156 11.91 27.7356 11.365 28.1406 10.975C28.5456 10.585 29.0906 10.38 29.6506 10.38C30.3106 10.38 30.8206 10.585 31.1906 10.975C31.5656 11.38 31.7656 11.925 31.7506 12.485C31.7656 13.06 31.5656 13.62 31.1556 14.045C30.7656 14.45 30.1906 14.67 29.6156 14.64ZM27.7206 29.345V16.3C27.7206 16.13 27.7906 16.065 27.9406 16.065H31.2956C31.4456 16.065 31.5156 16.15 31.5156 16.3V29.345C31.5156 29.53 31.4456 29.615 31.2956 29.615H27.9756C27.8056 29.615 27.7206 29.515 27.7206 29.345Z" fill="#FF993A"/>
</g>
<defs>
<clipPath id="clip0_2124_6165">
<rect width="40" height="40" fill="white" transform="translate(0.5)"/>
</clipPath>
</defs>
</svg>
