<svg width="92" height="76" viewBox="0 0 92 76" fill="none" xmlns="http://www.w3.org/2000/svg">
<path d="M26.1019 20.2139C26.1019 21.3316 26.2227 22.2378 26.4342 22.9024C26.6758 23.567 26.9779 24.292 27.4008 25.0774C27.5519 25.3191 27.6123 25.5607 27.6123 25.7722C27.6123 26.0743 27.431 26.3763 27.0383 26.6784L25.1352 27.9472C24.8633 28.1284 24.5915 28.219 24.3498 28.219C24.0477 28.219 23.7456 28.068 23.4436 27.7961C23.0206 27.343 22.6582 26.8597 22.3561 26.3763C22.054 25.8628 21.7519 25.2888 21.4196 24.5941C19.0634 27.3732 16.103 28.7628 12.5385 28.7628C10.001 28.7628 7.97704 28.0378 6.49685 26.5878C5.01665 25.1378 4.26145 23.2045 4.26145 20.7878C4.26145 18.2202 5.16769 16.1358 7.01038 14.565C8.85307 12.9942 11.2999 12.2088 14.4114 12.2088C15.4384 12.2088 16.4957 12.2994 17.6134 12.4504C18.7311 12.6015 19.879 12.8431 21.0873 13.115V10.9098C21.0873 8.614 20.604 7.01298 19.6676 6.07653C18.7009 5.14008 17.0697 4.68696 14.7436 4.68696C13.6864 4.68696 12.5989 4.80779 11.4812 5.07966C10.3635 5.35153 9.27599 5.68382 8.2187 6.10673C7.73538 6.31819 7.37288 6.43902 7.16142 6.49944C6.94997 6.55985 6.79893 6.59006 6.67809 6.59006C6.25518 6.59006 6.04373 6.28798 6.04373 5.65361V4.17342C6.04373 3.69009 6.10414 3.32759 6.25518 3.11614C6.40622 2.90468 6.67809 2.69322 7.10101 2.48177C8.15829 1.93802 9.42703 1.4849 10.9072 1.12241C12.3874 0.729701 13.9582 0.548453 15.6197 0.548453C19.2144 0.548453 21.8425 1.36407 23.5342 2.9953C25.1956 4.62654 26.0415 7.1036 26.0415 10.4265V20.2139H26.1019ZM13.8374 24.8055C14.8343 24.8055 15.8613 24.6243 16.9488 24.2618C18.0363 23.8993 19.003 23.2347 19.8186 22.3285C20.3019 21.7545 20.6644 21.1201 20.8457 20.3951C21.0269 19.6701 21.1477 18.7941 21.1477 17.767V16.4983C20.2717 16.2868 19.3353 16.1056 18.3686 15.9848C17.4019 15.8639 16.4655 15.8035 15.5291 15.8035C13.5051 15.8035 12.0249 16.1962 11.0281 17.0118C10.0312 17.8275 9.54786 18.9754 9.54786 20.4858C9.54786 21.9055 9.91035 22.9628 10.6656 23.6878C11.3905 24.443 12.4478 24.8055 13.8374 24.8055ZM38.0945 28.068C37.5507 28.068 37.1882 27.9774 36.9466 27.7659C36.7049 27.5847 36.4934 27.1617 36.3122 26.5878L29.2133 3.23697C29.032 2.63281 28.9414 2.2401 28.9414 2.02865C28.9414 1.54532 29.1831 1.27345 29.6664 1.27345H32.6268C33.2008 1.27345 33.5935 1.36407 33.8049 1.57553C34.0466 1.75678 34.2278 2.17969 34.4091 2.75364L39.484 22.7514L44.1965 2.75364C44.3475 2.14948 44.5288 1.75678 44.7704 1.57553C45.0121 1.39428 45.435 1.27345 45.9788 1.27345H48.3954C48.9694 1.27345 49.3621 1.36407 49.6037 1.57553C49.8454 1.75678 50.0568 2.17969 50.1777 2.75364L54.9506 22.993L60.1765 2.75364C60.3578 2.14948 60.5692 1.75678 60.7807 1.57553C61.0224 1.39428 61.4151 1.27345 61.9588 1.27345H64.7682C65.2515 1.27345 65.5234 1.51511 65.5234 2.02865C65.5234 2.17969 65.4932 2.33073 65.463 2.51198C65.4327 2.69322 65.3723 2.93489 65.2515 3.26718L57.9714 26.618C57.7901 27.2222 57.5787 27.6149 57.337 27.7961C57.0953 27.9774 56.7026 28.0982 56.1891 28.0982H53.5912C53.0172 28.0982 52.6245 28.0076 52.3829 27.7961C52.1412 27.5847 51.9297 27.192 51.8089 26.5878L47.1267 7.1036L42.4746 26.5576C42.3236 27.1617 42.1423 27.5544 41.9007 27.7659C41.659 27.9774 41.2361 28.068 40.6924 28.068H38.0945ZM76.9118 28.8836C75.341 28.8836 73.7702 28.7024 72.2598 28.3399C70.7494 27.9774 69.5712 27.5847 68.7858 27.1315C68.3025 26.8597 67.9702 26.5576 67.8494 26.2857C67.7286 26.0138 67.6681 25.7118 67.6681 25.4399V23.8993C67.6681 23.2649 67.9098 22.9628 68.3629 22.9628C68.5442 22.9628 68.7254 22.993 68.9067 23.0534C69.0879 23.1139 69.3598 23.2347 69.6619 23.3555C70.6889 23.8087 71.8066 24.1711 72.9848 24.4128C74.1931 24.6545 75.3712 24.7753 76.5795 24.7753C78.4826 24.7753 79.9628 24.443 80.9899 23.7784C82.017 23.1139 82.5607 22.1472 82.5607 20.9087C82.5607 20.0629 82.2888 19.3681 81.7451 18.7941C81.2013 18.2202 80.1743 17.7066 78.6941 17.2233L74.3139 15.8639C72.1087 15.1691 70.4775 14.1421 69.4806 12.7827C68.4838 11.4536 67.9702 9.97336 67.9702 8.40254C67.9702 7.13381 68.2421 6.01611 68.7858 5.04945C69.3296 4.08279 70.0546 3.23697 70.9608 2.57239C71.8671 1.87761 72.8941 1.36407 74.1025 1.00157C75.3108 0.639077 76.5795 0.488037 77.9087 0.488037C78.5732 0.488037 79.268 0.518245 79.9326 0.608869C80.6274 0.699493 81.2618 0.820326 81.8961 0.941158C82.5003 1.0922 83.0742 1.24324 83.618 1.42449C84.1617 1.60573 84.5846 1.78698 84.8867 1.96823C85.3096 2.2099 85.6117 2.45156 85.793 2.72343C85.9742 2.9651 86.0648 3.29739 86.0648 3.7203V5.14008C86.0648 5.77445 85.8232 6.10673 85.3701 6.10673C85.1284 6.10673 84.7357 5.9859 84.2221 5.74424C82.5003 4.95883 80.567 4.56612 78.4222 4.56612C76.7003 4.56612 75.341 4.838 74.4045 5.41195C73.4681 5.9859 72.9848 6.86193 72.9848 8.10046C72.9848 8.94629 73.2868 9.67128 73.891 10.2452C74.4952 10.8192 75.6129 11.3931 77.2139 11.9067L81.5034 13.266C83.6784 13.9608 85.2492 14.9275 86.1857 16.166C87.1221 17.4045 87.5752 18.8243 87.5752 20.3951C87.5752 21.6941 87.3034 22.8722 86.7898 23.8993C86.2461 24.9263 85.5211 25.8326 84.5846 26.5576C83.6482 27.3128 82.5305 27.8565 81.2316 28.2492C79.8722 28.6721 78.4524 28.8836 76.9118 28.8836Z" fill="#252F3E"/>
<path fill-rule="evenodd" clip-rule="evenodd" d="M82.621 43.565C72.6826 50.9055 58.2431 54.8024 45.8276 54.8024C28.4278 54.8024 12.7498 48.3681 0.908236 37.6744C-0.0282137 36.8286 0.817612 35.6807 1.93531 36.3453C14.7435 43.7765 30.5423 48.2774 46.8849 48.2774C57.9108 48.2774 70.0243 45.9816 81.171 41.2692C82.8325 40.514 84.2522 42.3567 82.621 43.565Z" fill="#FF9900"/>
<path fill-rule="evenodd" clip-rule="evenodd" d="M86.7595 38.8525C85.4908 37.2213 78.3616 38.0671 75.1294 38.4598C74.1627 38.5807 74.0117 37.7348 74.8877 37.1005C80.5668 33.113 89.9011 34.2609 90.9886 35.5901C92.0761 36.9494 90.6865 46.2837 85.3699 50.7545C84.5543 51.4493 83.7689 51.0868 84.1314 50.1806C85.3397 47.19 88.0282 40.4536 86.7595 38.8525Z" fill="#FF9900"/>
<path d="M10.1124 73.8024L13.0884 65.1624H14.2584L17.2344 73.8024H16.3164L13.4904 65.6544H13.8384L11.0304 73.8024H10.1124ZM11.4384 71.7084V70.8804H15.9024V71.7084H11.4384ZM26.0459 73.8024L26.0519 69.5484C26.0519 69.0484 25.9119 68.6564 25.6319 68.3724C25.3559 68.0844 25.0039 67.9404 24.5759 67.9404C24.3319 67.9404 24.0939 67.9964 23.8619 68.1084C23.6299 68.2204 23.4379 68.4004 23.2859 68.6484C23.1379 68.8964 23.0639 69.2204 23.0639 69.6204L22.5419 69.4704C22.5299 69.0064 22.6199 68.6004 22.8119 68.2524C23.0079 67.9044 23.2759 67.6344 23.6159 67.4424C23.9599 67.2464 24.3479 67.1484 24.7799 67.1484C25.4319 67.1484 25.9539 67.3504 26.3459 67.7544C26.7379 68.1544 26.9339 68.6964 26.9339 69.3804L26.9279 73.8024H26.0459ZM18.3119 73.8024V67.3224H19.1039V68.9184H19.1999V73.8024H18.3119ZM22.1879 73.8024L22.1939 69.6084C22.1939 69.0924 22.0559 68.6864 21.7799 68.3904C21.5079 68.0904 21.1479 67.9404 20.6999 67.9404C20.2519 67.9404 19.8899 68.0944 19.6139 68.4024C19.3379 68.7064 19.1999 69.1124 19.1999 69.6204L18.6719 69.3324C18.6719 68.9164 18.7699 68.5444 18.9659 68.2164C19.1619 67.8844 19.4299 67.6244 19.7699 67.4364C20.1099 67.2444 20.4959 67.1484 20.9279 67.1484C21.3399 67.1484 21.7059 67.2364 22.0259 67.4124C22.3499 67.5884 22.6039 67.8444 22.7879 68.1804C22.9719 68.5164 23.0639 68.9244 23.0639 69.4044L23.0579 73.8024H22.1879ZM30.3437 73.9824C29.8557 73.9824 29.4457 73.8944 29.1137 73.7184C28.7857 73.5424 28.5397 73.3084 28.3757 73.0164C28.2117 72.7244 28.1297 72.4064 28.1297 72.0624C28.1297 71.7104 28.1997 71.4104 28.3397 71.1624C28.4837 70.9104 28.6777 70.7044 28.9217 70.5444C29.1697 70.3844 29.4557 70.2624 29.7797 70.1784C30.1077 70.0984 30.4697 70.0284 30.8657 69.9684C31.2657 69.9044 31.6557 69.8504 32.0357 69.8064C32.4197 69.7584 32.7557 69.7124 33.0437 69.6684L32.7317 69.8604C32.7437 69.2204 32.6197 68.7464 32.3597 68.4384C32.0997 68.1304 31.6477 67.9764 31.0037 67.9764C30.5597 67.9764 30.1837 68.0764 29.8757 68.2764C29.5717 68.4764 29.3577 68.7924 29.2337 69.2244L28.3757 68.9724C28.5237 68.3924 28.8217 67.9424 29.2697 67.6224C29.7177 67.3024 30.2997 67.1424 31.0157 67.1424C31.6077 67.1424 32.1097 67.2544 32.5217 67.4784C32.9377 67.6984 33.2317 68.0184 33.4037 68.4384C33.4837 68.6264 33.5357 68.8364 33.5597 69.0684C33.5837 69.3004 33.5957 69.5364 33.5957 69.7764V73.8024H32.8097V72.1764L33.0377 72.2724C32.8177 72.8284 32.4757 73.2524 32.0117 73.5444C31.5477 73.8364 30.9917 73.9824 30.3437 73.9824ZM30.4457 73.2204C30.8577 73.2204 31.2177 73.1464 31.5257 72.9984C31.8337 72.8504 32.0817 72.6484 32.2697 72.3924C32.4577 72.1324 32.5797 71.8404 32.6357 71.5164C32.6837 71.3084 32.7097 71.0804 32.7137 70.8324C32.7177 70.5804 32.7197 70.3924 32.7197 70.2684L33.0557 70.4424C32.7557 70.4824 32.4297 70.5224 32.0777 70.5624C31.7297 70.6024 31.3857 70.6484 31.0457 70.7004C30.7097 70.7524 30.4057 70.8144 30.1337 70.8864C29.9497 70.9384 29.7717 71.0124 29.5997 71.1084C29.4277 71.2004 29.2857 71.3244 29.1737 71.4804C29.0657 71.6364 29.0117 71.8304 29.0117 72.0624C29.0117 72.2504 29.0577 72.4324 29.1497 72.6084C29.2457 72.7844 29.3977 72.9304 29.6057 73.0464C29.8177 73.1624 30.0977 73.2204 30.4457 73.2204ZM34.5577 73.8024V73.6164L38.7397 68.1444H34.8697V67.3224H40.1917V67.5264L36.0157 72.9804H39.9637V73.8024H34.5577ZM43.7348 73.9824C43.0908 73.9824 42.5408 73.8364 42.0848 73.5444C41.6288 73.2524 41.2788 72.8484 41.0348 72.3324C40.7908 71.8164 40.6688 71.2244 40.6688 70.5564C40.6688 69.8764 40.7928 69.2804 41.0408 68.7684C41.2888 68.2564 41.6408 67.8584 42.0968 67.5744C42.5568 67.2864 43.1028 67.1424 43.7348 67.1424C44.3828 67.1424 44.9348 67.2884 45.3908 67.5804C45.8508 67.8684 46.2008 68.2704 46.4408 68.7864C46.6848 69.2984 46.8068 69.8884 46.8068 70.5564C46.8068 71.2364 46.6848 71.8344 46.4408 72.3504C46.1968 72.8624 45.8448 73.2624 45.3848 73.5504C44.9248 73.8384 44.3748 73.9824 43.7348 73.9824ZM43.7348 73.1364C44.4548 73.1364 44.9908 72.8984 45.3428 72.4224C45.6948 71.9424 45.8708 71.3204 45.8708 70.5564C45.8708 69.7724 45.6928 69.1484 45.3368 68.6844C44.9848 68.2204 44.4508 67.9884 43.7348 67.9884C43.2508 67.9884 42.8508 68.0984 42.5348 68.3184C42.2228 68.5344 41.9888 68.8364 41.8328 69.2244C41.6808 69.6084 41.6048 70.0524 41.6048 70.5564C41.6048 71.3364 41.7848 71.9624 42.1448 72.4344C42.5048 72.9024 43.0348 73.1364 43.7348 73.1364ZM52.8104 73.8024V70.4964C52.8104 70.1364 52.7764 69.8064 52.7084 69.5064C52.6404 69.2024 52.5304 68.9384 52.3784 68.7144C52.2304 68.4864 52.0364 68.3104 51.7964 68.1864C51.5604 68.0624 51.2724 68.0004 50.9324 68.0004C50.6204 68.0004 50.3444 68.0544 50.1044 68.1624C49.8684 68.2704 49.6684 68.4264 49.5044 68.6304C49.3444 68.8304 49.2224 69.0744 49.1384 69.3624C49.0544 69.6504 49.0124 69.9784 49.0124 70.3464L48.3884 70.2084C48.3884 69.5444 48.5044 68.9864 48.7364 68.5344C48.9684 68.0824 49.2884 67.7404 49.6964 67.5084C50.1044 67.2764 50.5724 67.1604 51.1004 67.1604C51.4884 67.1604 51.8264 67.2204 52.1144 67.3404C52.4064 67.4604 52.6524 67.6224 52.8524 67.8264C53.0564 68.0304 53.2204 68.2644 53.3444 68.5284C53.4684 68.7884 53.5584 69.0664 53.6144 69.3624C53.6704 69.6544 53.6984 69.9464 53.6984 70.2384V73.8024H52.8104ZM48.1244 73.8024V67.3224H48.9224V68.9184H49.0124V73.8024H48.1244ZM57.0577 73.8024L60.0337 65.1624H61.2037L64.1797 73.8024H63.2617L60.4357 65.6544H60.7837L57.9757 73.8024H57.0577ZM58.3837 71.7084V70.8804H62.8477V71.7084H58.3837ZM66.2734 73.8024L63.7774 65.1624H64.6954L66.7174 72.2964L68.7274 65.1684L69.6514 65.1624L71.6734 72.2964L73.6834 65.1624H74.6074L72.1174 73.8024H71.2294L69.1894 66.7164L67.1614 73.8024H66.2734ZM78.4116 73.9824C77.8076 73.9824 77.2636 73.8824 76.7796 73.6824C76.2996 73.4784 75.9016 73.1904 75.5856 72.8184C75.2736 72.4464 75.0696 72.0044 74.9736 71.4924L75.8736 71.3424C76.0176 71.9024 76.3216 72.3424 76.7856 72.6624C77.2496 72.9784 77.8036 73.1364 78.4476 73.1364C78.8716 73.1364 79.2516 73.0704 79.5876 72.9384C79.9236 72.8024 80.1876 72.6104 80.3796 72.3624C80.5716 72.1144 80.6676 71.8204 80.6676 71.4804C80.6676 71.2564 80.6276 71.0664 80.5476 70.9104C80.4676 70.7504 80.3616 70.6184 80.2296 70.5144C80.0976 70.4104 79.9536 70.3244 79.7976 70.2564C79.6416 70.1844 79.4896 70.1264 79.3416 70.0824L77.1516 69.4284C76.8876 69.3524 76.6436 69.2564 76.4196 69.1404C76.1956 69.0204 75.9996 68.8784 75.8316 68.7144C75.6676 68.5464 75.5396 68.3504 75.4476 68.1264C75.3556 67.9024 75.3096 67.6464 75.3096 67.3584C75.3096 66.8704 75.4376 66.4484 75.6936 66.0924C75.9496 65.7364 76.2996 65.4624 76.7436 65.2704C77.1876 65.0784 77.6936 64.9844 78.2616 64.9884C78.8376 64.9884 79.3516 65.0904 79.8036 65.2944C80.2596 65.4984 80.6356 65.7904 80.9316 66.1704C81.2276 66.5464 81.4236 66.9924 81.5196 67.5084L80.5956 67.6764C80.5356 67.3004 80.3976 66.9744 80.1816 66.6984C79.9656 66.4224 79.6896 66.2104 79.3536 66.0624C79.0216 65.9104 78.6556 65.8324 78.2556 65.8284C77.8676 65.8284 77.5216 65.8944 77.2176 66.0264C76.9176 66.1544 76.6796 66.3304 76.5036 66.5544C76.3276 66.7784 76.2396 67.0344 76.2396 67.3224C76.2396 67.6144 76.3196 67.8484 76.4796 68.0244C76.6436 68.2004 76.8436 68.3384 77.0796 68.4384C77.3196 68.5384 77.5516 68.6204 77.7756 68.6844L79.4676 69.1824C79.6436 69.2304 79.8496 69.3004 80.0856 69.3924C80.3256 69.4804 80.5576 69.6084 80.7816 69.7764C81.0096 69.9404 81.1976 70.1564 81.3456 70.4244C81.4936 70.6924 81.5676 71.0324 81.5676 71.4444C81.5676 71.8444 81.4876 72.2024 81.3276 72.5184C81.1716 72.8344 80.9496 73.1004 80.6616 73.3164C80.3776 73.5324 80.0436 73.6964 79.6596 73.8084C79.2796 73.9244 78.8636 73.9824 78.4116 73.9824Z" fill="#38424E"/>
</svg>
