<svg width="44" height="44" viewBox="0 0 44 44" fill="none" xmlns="http://www.w3.org/2000/svg">
<path d="M1 8C1 4.13401 4.13401 1 8 1H36C39.866 1 43 4.13401 43 8V36C43 39.866 39.866 43 36 43H8C4.13401 43 1 39.866 1 36V8Z" fill="#FF9900"/>
<path d="M27.6252 21.4583C27.4042 21.4564 27.1838 21.434 26.9669 21.3917C26.7583 21.3479 26.5546 21.2837 26.3586 21.2L26.2169 21.1667H26.1169C26.0336 21.1667 25.9919 21.225 25.9919 21.3417V21.6167C25.9801 21.6688 25.9801 21.7229 25.9919 21.775C26.0337 21.8435 26.0945 21.8985 26.1669 21.9333C26.3673 22.0336 26.5803 22.1065 26.8002 22.15C27.0732 22.2153 27.3529 22.2488 27.6336 22.25C27.9159 22.2585 28.1977 22.219 28.4669 22.1333C28.6893 22.075 28.8967 21.9699 29.0752 21.825C29.244 21.6946 29.3831 21.5298 29.4836 21.3417C29.5791 21.1384 29.6275 20.9162 29.6252 20.6917C29.6282 20.413 29.5405 20.141 29.3752 19.9167C29.153 19.6642 28.8642 19.4794 28.5419 19.3833L27.7502 19.1333C27.529 19.0761 27.322 18.974 27.1419 18.8333C27.0891 18.7827 27.0471 18.7219 27.0185 18.6545C26.9898 18.5872 26.9751 18.5148 26.9752 18.4417C26.9693 18.3428 26.9901 18.2441 27.0356 18.1561C27.0811 18.0681 27.1495 17.994 27.2336 17.9417C27.4641 17.8298 27.7193 17.7782 27.9752 17.7917C28.3399 17.7828 28.7017 17.8569 29.0336 18.0083C29.1014 18.0429 29.1747 18.0655 29.2502 18.075C29.3336 18.075 29.3752 18.0083 29.3752 17.8917V17.5917C29.3777 17.5269 29.3603 17.4629 29.3252 17.4083C29.2807 17.3516 29.2237 17.306 29.1586 17.275C29.0842 17.2341 29.0061 17.2006 28.9252 17.175C28.8215 17.1384 28.7158 17.1078 28.6086 17.0833L28.2419 17C28.106 16.9902 27.9695 16.9902 27.8336 17C27.5997 16.996 27.3666 17.0269 27.1419 17.0917C26.9315 17.1531 26.7339 17.2519 26.5586 17.3833C26.3959 17.502 26.262 17.6558 26.1669 17.8333C26.0647 18.0226 26.013 18.235 26.0169 18.45C26.0119 18.7508 26.1088 19.0445 26.2919 19.2833C26.5207 19.559 26.8293 19.7569 27.1752 19.85L28.0086 20.1C28.2147 20.1482 28.4063 20.2454 28.5669 20.3833C28.6667 20.4889 28.7206 20.6297 28.7169 20.775C28.7187 20.8804 28.6927 20.9844 28.6415 21.0766C28.5903 21.1688 28.5157 21.2458 28.4252 21.3C28.1779 21.4244 27.9013 21.4792 27.6252 21.4583ZM22.7836 17.4167C22.7707 17.335 22.7329 17.2593 22.6752 17.2C22.6129 17.154 22.5355 17.1332 22.4586 17.1417H22.0002C21.9236 17.1374 21.8477 17.1579 21.7836 17.2C21.7228 17.257 21.6844 17.3338 21.6752 17.4167L20.8419 21.0833L19.8919 17.4167C19.8767 17.334 19.8359 17.2582 19.7752 17.2C19.7752 17.2 19.6669 17.1417 19.5586 17.1417H19.0169C18.9252 17.1417 18.8836 17.1917 18.8836 17.2833C18.8916 17.36 18.9084 17.4355 18.9336 17.5083L20.2336 21.7917C20.2504 21.8679 20.2847 21.9391 20.3336 22C20.3991 22.0382 20.4746 22.0556 20.5502 22.05H21.0252C21.1035 22.0553 21.1816 22.0379 21.2502 22C21.3027 21.9351 21.3372 21.8575 21.3502 21.775L22.1836 18.2083L23.0169 21.7833C23.0238 21.865 23.0592 21.9417 23.1169 22C23.1825 22.0458 23.2623 22.0665 23.3419 22.0583H23.8169C23.8908 22.062 23.9639 22.0415 24.0252 22C24.0879 21.9434 24.1291 21.8668 24.1419 21.7833L25.4836 17.5C25.4884 17.4557 25.4884 17.411 25.4836 17.3667C25.4868 17.3362 25.4868 17.3055 25.4836 17.275C25.4863 17.2557 25.4846 17.2361 25.4785 17.2176C25.4723 17.1992 25.462 17.1824 25.4482 17.1686C25.4345 17.1549 25.4177 17.1445 25.3992 17.1384C25.3808 17.1323 25.3611 17.1305 25.3419 17.1333H24.8252C24.7487 17.1302 24.6731 17.1506 24.6086 17.1917C24.5572 17.2552 24.5203 17.3291 24.5002 17.4083L23.6669 21.1667L22.7836 17.4167ZM16.8086 19.1917C16.6123 19.1659 16.4148 19.152 16.2169 19.15C15.7264 19.1242 15.2435 19.2783 14.8586 19.5833C14.6946 19.7237 14.5645 19.8993 14.478 20.097C14.3914 20.2946 14.3506 20.5093 14.3586 20.725C14.3489 20.9214 14.3802 21.1177 14.4505 21.3013C14.5208 21.4849 14.6285 21.6519 14.7669 21.7917C14.9156 21.9289 15.0903 22.035 15.2806 22.1037C15.471 22.1724 15.6731 22.2023 15.8752 22.1917C16.1933 22.2008 16.5092 22.1364 16.7983 22.0034C17.0874 21.8704 17.3419 21.6725 17.5419 21.425C17.5906 21.5367 17.6463 21.6452 17.7086 21.75C17.7679 21.8415 17.8348 21.928 17.9086 22.0083C17.9287 22.0287 17.9527 22.0449 17.9792 22.056C18.0056 22.0671 18.034 22.0728 18.0627 22.0728C18.0914 22.0728 18.1198 22.0671 18.1463 22.056C18.1727 22.0449 18.1967 22.0287 18.2169 22.0083L18.5669 21.775C18.5961 21.7569 18.621 21.7326 18.6397 21.7038C18.6584 21.675 18.6705 21.6424 18.6752 21.6083C18.6887 21.5649 18.6887 21.5184 18.6752 21.475C18.6077 21.3487 18.5492 21.2179 18.5002 21.0833C18.4556 20.9206 18.4359 20.752 18.4419 20.5833V18.825C18.4618 18.578 18.4314 18.3296 18.3527 18.0947C18.2739 17.8598 18.1483 17.6433 17.9836 17.4583C17.7718 17.2803 17.5256 17.1477 17.2604 17.0688C16.9952 16.99 16.7166 16.9665 16.4419 17C16.1606 16.9999 15.8805 17.0363 15.6086 17.1083C15.3664 17.1646 15.1316 17.2485 14.9086 17.3583C14.8497 17.3843 14.7982 17.4244 14.7586 17.475C14.7382 17.5373 14.7382 17.6044 14.7586 17.6667V17.9417C14.7586 18.0583 14.7586 18.1083 14.8752 18.1083C14.9054 18.1149 14.9367 18.1149 14.9669 18.1083L15.1586 18.0417C15.3278 17.9586 15.5034 17.8889 15.6836 17.8333C15.8798 17.7841 16.0813 17.759 16.2836 17.7583C16.6057 17.7246 16.9284 17.8172 17.1836 18.0167C17.382 18.2659 17.4748 18.5831 17.4419 18.9V19.3083L16.8086 19.1917ZM17.4586 19.9417V20.1667C17.4592 20.3296 17.4396 20.4919 17.4002 20.65C17.365 20.7827 17.2994 20.9054 17.2086 21.0083C17.0696 21.1717 16.8878 21.2929 16.6836 21.3583C16.5014 21.4224 16.31 21.4562 16.1169 21.4583C16.0112 21.4662 15.905 21.4525 15.8047 21.4181C15.7044 21.3838 15.6122 21.3294 15.5336 21.2583C15.4606 21.1793 15.405 21.0857 15.3706 20.9838C15.3361 20.8818 15.3235 20.7738 15.3336 20.6667C15.3267 20.5469 15.348 20.4273 15.3957 20.3173C15.4435 20.2073 15.5164 20.11 15.6086 20.0333C15.8514 19.8631 16.1463 19.7834 16.4419 19.8083H16.9586C17.1275 19.8436 17.2944 19.8881 17.4586 19.9417ZM28.4669 24.5C26.4747 25.3382 24.3365 25.7743 22.1752 25.7833C19.2823 25.7839 16.4391 25.0314 13.9252 23.6C13.7252 23.475 13.5669 23.6833 13.7419 23.8417C16.0046 25.8872 18.95 27.0136 22.0002 27C24.4057 27.0059 26.7574 26.2888 28.7502 24.9417C29.0336 24.6833 28.7752 24.3417 28.4669 24.5Z" fill="white"/>
<path d="M27.3168 23.7167C27.1585 23.8333 27.1835 23.9917 27.3585 23.9667C27.9502 23.8917 29.2585 23.7417 29.4918 24.0417C29.7252 24.3417 29.2335 25.5667 29.0085 26.1167C28.9418 26.2833 29.0918 26.35 29.2418 26.225C29.6213 25.8757 29.9121 25.4411 30.0904 24.9571C30.2686 24.4731 30.3291 23.9536 30.2668 23.4417C29.788 23.2531 29.2715 23.1797 28.7591 23.2275C28.2466 23.2753 27.7526 23.4428 27.3168 23.7167Z" fill="white"/>
<path d="M1 8C1 4.13401 4.13401 1 8 1H36C39.866 1 43 4.13401 43 8V36C43 39.866 39.866 43 36 43H8C4.13401 43 1 39.866 1 36V8Z" stroke="#FF9900" stroke-width="2"/>
</svg>
