<svg width="41" height="40" viewBox="0 0 41 40" fill="none" xmlns="http://www.w3.org/2000/svg">
<path d="M35.5 0H5.5C2.73858 0 0.5 2.23858 0.5 5V35C0.5 37.7614 2.73858 40 5.5 40H35.5C38.2614 40 40.5 37.7614 40.5 35V5C40.5 2.23858 38.2614 0 35.5 0Z" fill="#D8EDFF"/>
<path d="M20.3514 7.00021C19.3206 7.005 18.3361 7.09292 17.4699 7.2462C14.9181 7.69702 14.4548 8.64062 14.4548 10.3808V12.679H20.485V13.4451H12.1917C10.4391 13.4451 8.90451 14.4985 8.42451 16.5024C7.87084 18.7993 7.84628 20.2327 8.42451 22.631C8.85316 24.4163 9.87684 25.6883 11.6294 25.6883H13.7027V22.9332C13.7027 20.9429 15.4248 19.1872 17.4699 19.1872H23.4931C25.1697 19.1872 26.5082 17.8067 26.5082 16.1229V10.3808C26.5082 8.74657 25.1295 7.51894 23.4931 7.2462C22.4572 7.07376 21.3823 6.99542 20.3514 7.00021ZM17.0903 8.84864C17.7132 8.84864 18.2219 9.36561 18.2219 10.0013C18.2219 10.6347 17.7132 11.1469 17.0903 11.1469C16.4652 11.1469 15.9588 10.6347 15.9588 10.0013C15.9588 9.36561 16.4652 8.84864 17.0903 8.84864Z" fill="url(#paint0_linear_2126_6420)"/>
<path d="M27.2596 13.4451V16.1228C27.2596 18.1989 25.4995 19.9462 23.4925 19.9462H17.4692C15.8194 19.9462 14.4541 21.3583 14.4541 23.0105V28.7526C14.4541 30.3868 15.8752 31.3481 17.4692 31.8169C19.3781 32.3782 21.2086 32.4796 23.4925 31.8169C25.0106 31.3774 26.5076 30.4928 26.5076 28.7526V26.4544H20.4844V25.6883H29.5227C31.2752 25.6883 31.9283 24.4658 32.5378 22.631C33.1674 20.7421 33.1406 18.9255 32.5378 16.5024C32.1047 14.7577 31.2775 13.4451 29.5227 13.4451H27.2596ZM23.872 27.9865C24.4971 27.9865 25.0035 28.4987 25.0035 29.1321C25.0035 29.7678 24.4971 30.2848 23.872 30.2848C23.2491 30.2848 22.7404 29.7678 22.7404 29.1321C22.7404 28.4987 23.2491 27.9865 23.872 27.9865Z" fill="url(#paint1_linear_2126_6420)"/>
<defs>
<linearGradient id="paint0_linear_2126_6420" x1="8" y1="7" x2="26.8032" y2="23.0018" gradientUnits="userSpaceOnUse">
<stop stop-color="#5A9FD4"/>
<stop offset="1" stop-color="#306998"/>
</linearGradient>
<linearGradient id="paint1_linear_2126_6420" x1="23.7271" y1="28.9389" x2="18.7385" y2="21.9484" gradientUnits="userSpaceOnUse">
<stop stop-color="#FFD43B"/>
<stop offset="1" stop-color="#FFE873"/>
</linearGradient>
</defs>
</svg>
