<svg width="42" height="43" viewBox="0 0 42 43" fill="none" xmlns="http://www.w3.org/2000/svg">
<g clip-path="url(#clip0_1876_655)">
<rect y="0.27002" width="42" height="42" rx="3.75" fill="#292929"/>
<path d="M6.99976 21.1159C6.99976 17.0119 10.3393 13.6724 14.4433 13.6724C16.5959 13.6724 18.5272 14.5777 19.8952 16.0463L18.2254 17.7361C17.2799 16.69 15.932 16.0463 14.4433 16.0463C11.6469 16.0463 9.37364 18.3195 9.37364 21.1159C9.37364 23.9123 11.6469 26.1855 14.4433 26.1855C15.932 26.1855 17.2799 25.5418 18.2254 24.4957L19.8952 26.1855C18.5272 27.634 16.5959 28.5594 14.4433 28.5594C10.3393 28.5594 6.99976 25.2199 6.99976 21.1159Z" fill="white"/>
<path d="M19.9651 23.3288C19.9651 20.452 22.0775 18.0983 24.9543 18.0983C26.2217 18.0983 27.3885 18.7621 28.0524 19.5467V18.2994H30.4263V28.3583H28.0524V27.0707C27.3885 27.8955 26.2217 28.5594 24.9543 28.5594C22.0775 28.5594 19.9651 26.2057 19.9651 23.3288ZM25.1957 20.4721C23.6265 20.4721 22.339 21.7597 22.339 23.3288C22.339 24.898 23.6265 26.1855 25.1957 26.1855C26.7649 26.1855 28.0524 24.898 28.0524 23.3288C28.0524 21.7597 26.7649 20.4721 25.1957 20.4721Z" fill="white"/>
<path d="M34.3362 13.27V28.3583H31.9623V13.27H34.3362Z" fill="white"/>
</g>
<defs>
<clipPath id="clip0_1876_655">
<rect width="42" height="42" fill="white" transform="translate(0 0.27002)"/>
</clipPath>
</defs>
</svg>
