<svg width="17" height="17" viewBox="0 0 17 17" fill="none" xmlns="http://www.w3.org/2000/svg">
<g clip-path="url(#clip0_1876_2969)">
<path fill-rule="evenodd" clip-rule="evenodd" d="M16.5 4.42001H0.5V3.67001C0.5 2.98001 0.948 2.42001 1.5 2.42001H15.5C16.052 2.42001 16.5 2.98001 16.5 3.67001V4.42001ZM16.5 6.92001V13.42C16.5 13.6852 16.3946 13.9396 16.2071 14.1271C16.0196 14.3147 15.7652 14.42 15.5 14.42H1.5C1.23478 14.42 0.98043 14.3147 0.792893 14.1271C0.605357 13.9396 0.5 13.6852 0.5 13.42V6.92001H16.5ZM4.5 10.42C4.23478 10.42 3.98043 10.5254 3.79289 10.7129C3.60536 10.9004 3.5 11.1548 3.5 11.42C3.5 11.6852 3.60536 11.9396 3.79289 12.1271C3.98043 12.3147 4.23478 12.42 4.5 12.42H5.5C5.76522 12.42 6.01957 12.3147 6.20711 12.1271C6.39464 11.9396 6.5 11.6852 6.5 11.42C6.5 11.1548 6.39464 10.9004 6.20711 10.7129C6.01957 10.5254 5.76522 10.42 5.5 10.42H4.5Z" fill="#1A1A1A"/>
</g>
<defs>
<clipPath id="clip0_1876_2969">
<rect width="16" height="16" fill="white" transform="translate(0.5 0.420013)"/>
</clipPath>
</defs>
</svg>
