<svg width="26" height="21" viewBox="0 0 26 21" fill="none" xmlns="http://www.w3.org/2000/svg">
<g clip-path="url(#clip0_1614_10208)">
<path d="M10.2371 21C10.1512 20.9997 10.0656 20.9891 9.98217 20.9685C9.84829 20.9354 9.72228 20.8761 9.61136 20.7941C9.50044 20.7122 9.40681 20.6091 9.33584 20.4908C9.26486 20.3726 9.21795 20.2415 9.19778 20.105C9.17761 19.9686 9.18459 19.8295 9.21832 19.6958L13.9432 0.796351C14.0147 0.53084 14.1876 0.304024 14.4247 0.164703C14.6618 0.0253817 14.9441 -0.01531 15.2108 0.0513827C15.4776 0.118075 15.7075 0.286823 15.8512 0.521317C15.9948 0.755812 16.0406 1.03731 15.9788 1.30526L11.2539 20.2047C11.1973 20.4316 11.0665 20.6331 10.8823 20.7772C10.6981 20.9213 10.471 20.9997 10.2371 21Z" fill="#B2C9F3"/>
<path d="M7.34915 17.8501C7.21126 17.8506 7.07463 17.8238 6.94722 17.771C6.8198 17.7183 6.70414 17.6408 6.60695 17.543L0.307149 11.2432C0.110471 11.0462 0 10.7793 0 10.501C0 10.2226 0.110471 9.95571 0.307149 9.75878L6.60695 3.45897C6.80542 3.27001 7.06988 3.16609 7.34389 3.16941C7.61791 3.17272 7.87978 3.283 8.07362 3.47671C8.26746 3.67042 8.37791 3.93222 8.3814 4.20623C8.3849 4.48024 8.28116 4.74477 8.09233 4.94336L2.53472 10.502L8.09233 16.0596C8.23937 16.2062 8.33953 16.3933 8.3801 16.597C8.42067 16.8007 8.39983 17.0118 8.32021 17.2036C8.24059 17.3955 8.10578 17.5593 7.9329 17.6744C7.76001 17.7895 7.55684 17.8506 7.34915 17.8501ZM17.8472 17.8501C17.7094 17.8506 17.573 17.8237 17.4457 17.771C17.3185 17.7183 17.203 17.6408 17.106 17.543C16.9093 17.346 16.7988 17.0791 16.7988 16.8008C16.7988 16.5225 16.9093 16.2555 17.106 16.0586L22.6636 10.5L17.106 4.94238C17.0044 4.84582 16.9232 4.72992 16.8672 4.60151C16.8111 4.47309 16.7813 4.33475 16.7795 4.19464C16.7777 4.05453 16.804 3.91548 16.8568 3.78567C16.9095 3.65587 16.9877 3.53794 17.0868 3.43882C17.1858 3.33971 17.3037 3.26141 17.4335 3.20855C17.5633 3.15569 17.7023 3.12933 17.8424 3.13103C17.9825 3.13272 18.1209 3.16244 18.2493 3.21842C18.3778 3.2744 18.4937 3.35552 18.5904 3.457L24.8902 9.75681C25.0869 9.95391 25.1974 10.221 25.1974 10.4995C25.1974 10.778 25.0869 11.0451 24.8902 11.2422L18.5904 17.542C18.4931 17.6401 18.3773 17.7178 18.2497 17.7707C18.1221 17.8236 17.9853 17.8506 17.8472 17.8501Z" fill="#3F78E0"/>
</g>
<defs>
<clipPath id="clip0_1614_10208">
<rect width="25.1972" height="21" fill="white"/>
</clipPath>
</defs>
</svg>
