<svg width="24" height="25" viewBox="0 0 24 25" fill="none" xmlns="http://www.w3.org/2000/svg">
<path d="M0 6.5C0 5.70435 0.316071 4.94129 0.87868 4.37868C1.44129 3.81607 2.20435 3.5 3 3.5H21C21.7956 3.5 22.5587 3.81607 23.1213 4.37868C23.6839 4.94129 24 5.70435 24 6.5V18.5C24 19.2956 23.6839 20.0587 23.1213 20.6213C22.5587 21.1839 21.7956 21.5 21 21.5H3C2.20435 21.5 1.44129 21.1839 0.87868 20.6213C0.316071 20.0587 0 19.2956 0 18.5V6.5ZM3.75 8C3.55109 8 3.36032 8.07902 3.21967 8.21967C3.07902 8.36032 3 8.55109 3 8.75V10.25C3 10.4489 3.07902 10.6397 3.21967 10.7803C3.36032 10.921 3.55109 11 3.75 11H6.75C6.94891 11 7.13968 10.921 7.28033 10.7803C7.42098 10.6397 7.5 10.4489 7.5 10.25V8.75C7.5 8.55109 7.42098 8.36032 7.28033 8.21967C7.13968 8.07902 6.94891 8 6.75 8H3.75ZM3.75 12.5C3.55109 12.5 3.36032 12.579 3.21967 12.7197C3.07902 12.8603 3 13.0511 3 13.25C3 13.4489 3.07902 13.6397 3.21967 13.7803C3.36032 13.921 3.55109 14 3.75 14H11.25C11.4489 14 11.6397 13.921 11.7803 13.7803C11.921 13.6397 12 13.4489 12 13.25C12 13.0511 11.921 12.8603 11.7803 12.7197C11.6397 12.579 11.4489 12.5 11.25 12.5H3.75ZM3.75 15.5C3.55109 15.5 3.36032 15.579 3.21967 15.7197C3.07902 15.8603 3 16.0511 3 16.25C3 16.4489 3.07902 16.6397 3.21967 16.7803C3.36032 16.921 3.55109 17 3.75 17H5.25C5.44891 17 5.63968 16.921 5.78033 16.7803C5.92098 16.6397 6 16.4489 6 16.25C6 16.0511 5.92098 15.8603 5.78033 15.7197C5.63968 15.579 5.44891 15.5 5.25 15.5H3.75ZM8.25 15.5C8.05109 15.5 7.86032 15.579 7.71967 15.7197C7.57902 15.8603 7.5 16.0511 7.5 16.25C7.5 16.4489 7.57902 16.6397 7.71967 16.7803C7.86032 16.921 8.05109 17 8.25 17H9.75C9.94891 17 10.1397 16.921 10.2803 16.7803C10.421 16.6397 10.5 16.4489 10.5 16.25C10.5 16.0511 10.421 15.8603 10.2803 15.7197C10.1397 15.579 9.94891 15.5 9.75 15.5H8.25ZM12.75 15.5C12.5511 15.5 12.3603 15.579 12.2197 15.7197C12.079 15.8603 12 16.0511 12 16.25C12 16.4489 12.079 16.6397 12.2197 16.7803C12.3603 16.921 12.5511 17 12.75 17H14.25C14.4489 17 14.6397 16.921 14.7803 16.7803C14.921 16.6397 15 16.4489 15 16.25C15 16.0511 14.921 15.8603 14.7803 15.7197C14.6397 15.579 14.4489 15.5 14.25 15.5H12.75ZM17.25 15.5C17.0511 15.5 16.8603 15.579 16.7197 15.7197C16.579 15.8603 16.5 16.0511 16.5 16.25C16.5 16.4489 16.579 16.6397 16.7197 16.7803C16.8603 16.921 17.0511 17 17.25 17H18.75C18.9489 17 19.1397 16.921 19.2803 16.7803C19.421 16.6397 19.5 16.4489 19.5 16.25C19.5 16.0511 19.421 15.8603 19.2803 15.7197C19.1397 15.579 18.9489 15.5 18.75 15.5H17.25Z" fill="#4F379F"/>
</svg>
