<svg width="41" height="40" viewBox="0 0 41 40" fill="none" xmlns="http://www.w3.org/2000/svg">
<g clip-path="url(#clip0_2124_6353)">
<path d="M5.5 0H35.5C38.25 0 40.5 2.25 40.5 5V35C40.5 37.75 38.25 40 35.5 40H5.5C2.75 40 0.5 37.75 0.5 35V5C0.5 2.25 2.75 0 5.5 0Z" fill="#3EAEFF" fill-opacity="0.1"/>
<path d="M13.0662 28.8008L11.3008 9H30.6993L28.932 28.7977L20.9882 31L13.0662 28.8008Z" fill="#264DE4"/>
<path d="M27.419 27.537L28.9293 10.6189H21V29.3166L27.419 27.537Z" fill="#2965F1"/>
<path d="M15.3475 17.9629L15.5652 20.3914H20.9996V17.9629H15.3475ZM15.1309 15.4761H20.9996V13.0476H14.9102L15.1309 15.4761ZM20.9996 24.27L20.989 24.2728L18.2844 23.5425L18.1115 21.6057H15.6736L16.0139 25.4187L20.9885 26.7998L20.9996 26.7966V24.27Z" fill="#EBEBEB"/>
<path d="M20.9902 17.9629V20.3914H23.9806L23.6988 23.541L20.9902 24.272V26.7986L25.9688 25.4187L26.0053 25.0084L26.5759 18.615L26.6352 17.9629L27.0736 13.0476H20.9902V15.4761H24.4122L24.1912 17.9629H20.9902Z" fill="white"/>
</g>
<defs>
<clipPath id="clip0_2124_6353">
<rect width="40" height="40" fill="white" transform="translate(0.5)"/>
</clipPath>
</defs>
</svg>
