<svg width="1130" height="660" viewBox="0 0 1130 660" fill="none" xmlns="http://www.w3.org/2000/svg">
<mask id="mask0_172_4679" style="mask-type:alpha" maskUnits="userSpaceOnUse" x="968" y="498" width="162" height="162">
<circle cx="80" cy="80" r="80" transform="matrix(-0.0591529 -0.998249 -0.998249 0.0591529 1133.59 654.128)" fill="#D9D9D9"/>
</mask>
<g mask="url(#mask0_172_4679)">
<rect width="2.10472" height="170.483" transform="matrix(-0.622962 -0.782252 -0.782252 0.622962 1168.49 583.811)" fill="#4FB5CF"/>
<rect width="2.10472" height="170.483" transform="matrix(-0.622962 -0.782252 -0.782252 0.622962 1167.75 571.204)" fill="#4FB5CF"/>
<rect width="2.10472" height="170.483" transform="matrix(-0.622962 -0.782252 -0.782252 0.622962 1151.99 572.138)" fill="#4FB5CF"/>
<rect width="2.10472" height="170.483" transform="matrix(-0.622962 -0.782252 -0.782252 0.622962 1151.3 560.583)" fill="#4FB5CF"/>
<rect width="2.10472" height="170.483" transform="matrix(-0.622962 -0.782252 -0.782252 0.622962 1143.52 553.665)" fill="#4FB5CF"/>
<rect width="2.10472" height="170.483" transform="matrix(-0.622962 -0.782252 -0.782252 0.622962 1135.73 546.747)" fill="#4FB5CF"/>
<rect width="2.10472" height="170.483" transform="matrix(-0.622962 -0.782252 -0.782252 0.622962 1131.03 538.592)" fill="#4FB5CF"/>
<rect width="2.10472" height="170.483" transform="matrix(-0.622962 -0.782252 -0.782252 0.622962 1124.29 531.611)" fill="#4FB5CF"/>
<rect width="2.10472" height="170.483" transform="matrix(-0.622962 -0.782252 -0.782252 0.622962 1116.5 524.694)" fill="#4FB5CF"/>
<rect width="2.10472" height="170.483" transform="matrix(-0.622962 -0.782252 -0.782252 0.622962 1108.77 518.826)" fill="#4FB5CF"/>
<rect width="2.10472" height="170.483" transform="matrix(-0.622962 -0.782252 -0.782252 0.622962 1101.04 512.959)" fill="#4FB5CF"/>
<rect width="2.10472" height="170.483" transform="matrix(-0.622962 -0.782252 -0.782252 0.622962 1093.32 507.092)" fill="#4FB5CF"/>
<rect width="2.10472" height="170.483" transform="matrix(-0.622962 -0.782252 -0.782252 0.622962 1092.79 498.139)" fill="#4FB5CF"/>
<rect width="2.10472" height="170.483" transform="matrix(-0.622962 -0.782252 -0.782252 0.622962 1091.31 490.212)" fill="#4FB5CF"/>
<rect width="2.10472" height="170.483" transform="matrix(-0.622962 -0.782252 -0.782252 0.622962 1088.84 482.344)" fill="#4FB5CF"/>
<rect width="2.10472" height="170.483" transform="matrix(-0.622962 -0.782252 -0.782252 0.622962 1086.37 474.477)" fill="#4FB5CF"/>
<rect width="2.10472" height="170.483" transform="matrix(-0.622962 -0.782252 -0.782252 0.622962 1083.9 466.609)" fill="#4FB5CF"/>
<rect width="2.10472" height="170.483" transform="matrix(-0.622962 -0.782252 -0.782252 0.622962 1081.44 458.741)" fill="#4FB5CF"/>
<rect width="2.10472" height="170.483" transform="matrix(-0.622962 -0.782252 -0.782252 0.622962 1078.97 450.874)" fill="#4FB5CF"/>
</g>
</svg>
