<svg width="60" height="60" viewBox="0 0 60 60" fill="none" xmlns="http://www.w3.org/2000/svg">
<rect x="1" y="1" width="58" height="58" rx="29" fill="#FAE6E7"/>
<path d="M30.4189 30.2383C30.997 29.7379 31.4606 29.1191 31.7784 28.4237C32.0961 27.7284 32.2606 26.9728 32.2606 26.2083C32.2606 24.7717 31.6899 23.394 30.6741 22.3781C29.6583 21.3623 28.2805 20.7916 26.8439 20.7916C25.4073 20.7916 24.0296 21.3623 23.0138 22.3781C21.9979 23.394 21.4272 24.7717 21.4272 26.2083C21.4272 26.9728 21.5917 27.7284 21.9095 28.4237C22.2272 29.1191 22.6909 29.7379 23.2689 30.2383C21.7524 30.925 20.4658 32.0339 19.5628 33.4325C18.6599 34.8311 18.1788 36.4602 18.1772 38.125C18.1772 38.4123 18.2914 38.6878 18.4945 38.891C18.6977 39.0942 18.9733 39.2083 19.2606 39.2083C19.5479 39.2083 19.8234 39.0942 20.0266 38.891C20.2298 38.6878 20.3439 38.4123 20.3439 38.125C20.3439 36.4011 21.0287 34.7478 22.2477 33.5288C23.4667 32.3098 25.12 31.625 26.8439 31.625C28.5678 31.625 30.2211 32.3098 31.4401 33.5288C32.6591 34.7478 33.3439 36.4011 33.3439 38.125C33.3439 38.4123 33.458 38.6878 33.6612 38.891C33.8644 39.0942 34.1399 39.2083 34.4272 39.2083C34.7146 39.2083 34.9901 39.0942 35.1933 38.891C35.3964 38.6878 35.5106 38.4123 35.5106 38.125C35.509 36.4602 35.028 34.8311 34.125 33.4325C33.2221 32.0339 31.9354 30.925 30.4189 30.2383ZM26.8439 29.4583C26.2011 29.4583 25.5728 29.2677 25.0383 28.9106C24.5038 28.5535 24.0873 28.0459 23.8413 27.452C23.5953 26.8582 23.531 26.2047 23.6564 25.5742C23.7818 24.9438 24.0913 24.3647 24.5458 23.9102C25.0003 23.4557 25.5794 23.1461 26.2099 23.0207C26.8403 22.8953 27.4938 22.9597 28.0876 23.2057C28.6815 23.4517 29.1891 23.8682 29.5462 24.4027C29.9033 24.9371 30.0939 25.5655 30.0939 26.2083C30.0939 27.0702 29.7515 27.8969 29.142 28.5064C28.5325 29.1159 27.7059 29.4583 26.8439 29.4583ZM37.3956 29.805C38.0889 29.0242 38.5418 28.0598 38.6997 27.0277C38.8576 25.9956 38.7139 24.9398 38.2858 23.9875C37.8577 23.0351 37.1635 22.2268 36.2868 21.6598C35.41 21.0928 34.388 20.7913 33.3439 20.7916C33.0566 20.7916 32.781 20.9058 32.5779 21.1089C32.3747 21.3121 32.2606 21.5876 32.2606 21.875C32.2606 22.1623 32.3747 22.4378 32.5779 22.641C32.781 22.8442 33.0566 22.9583 33.3439 22.9583C34.2059 22.9583 35.0325 23.3007 35.642 23.9102C36.2515 24.5197 36.5939 25.3463 36.5939 26.2083C36.5924 26.7773 36.4415 27.3359 36.1563 27.8283C35.8711 28.3207 35.4617 28.7296 34.9689 29.0141C34.8083 29.1068 34.6741 29.2391 34.5793 29.3984C34.4845 29.5578 34.4321 29.7388 34.4272 29.9241C34.4227 30.108 34.4651 30.2901 34.5504 30.4531C34.6357 30.6161 34.7611 30.7547 34.9147 30.8558L35.3372 31.1375L35.4781 31.2133C36.7839 31.8327 37.8856 32.8123 38.6533 34.0368C39.421 35.2613 39.8228 36.6797 39.8114 38.125C39.8114 38.4123 39.9256 38.6878 40.1287 38.891C40.3319 39.0942 40.6074 39.2083 40.8947 39.2083C41.1821 39.2083 41.4576 39.0942 41.6608 38.891C41.8639 38.6878 41.9781 38.4123 41.9781 38.125C41.9869 36.4625 41.5706 34.8254 40.7685 33.3692C39.9665 31.913 38.8054 30.686 37.3956 29.805Z" fill="#E1626B"/>
<rect x="1" y="1" width="58" height="58" rx="29" stroke="#FAE6E7" stroke-width="2"/>
</svg>
