<svg width="60" height="61" viewBox="0 0 60 61" fill="none" xmlns="http://www.w3.org/2000/svg">
<rect x="1" y="1.1875" width="58" height="58" rx="29" fill="#FEF3E4"/>
<path d="M31.5019 30.4259C32.08 29.9256 32.5436 29.3067 32.8614 28.6114C33.1791 27.916 33.3436 27.1604 33.3436 26.3959C33.3436 24.9593 32.7729 23.5816 31.7571 22.5658C30.7413 21.5499 29.3635 20.9792 27.9269 20.9792C26.4903 20.9792 25.1126 21.5499 24.0968 22.5658C23.0809 23.5816 22.5103 24.9593 22.5103 26.3959C22.5102 27.1604 22.6747 27.916 22.9925 28.6114C23.3102 29.3067 23.7739 29.9256 24.3519 30.4259C22.8354 31.1126 21.5488 32.2216 20.6458 33.6202C19.7429 35.0188 19.2618 36.6478 19.2603 38.3126C19.2603 38.5999 19.3744 38.8754 19.5776 39.0786C19.7807 39.2818 20.0563 39.3959 20.3436 39.3959C20.6309 39.3959 20.9065 39.2818 21.1096 39.0786C21.3128 38.8754 21.4269 38.5999 21.4269 38.3126C21.4269 36.5887 22.1117 34.9354 23.3307 33.7164C24.5497 32.4974 26.203 31.8126 27.9269 31.8126C29.6508 31.8126 31.3041 32.4974 32.5231 33.7164C33.7421 34.9354 34.4269 36.5887 34.4269 38.3126C34.4269 38.5999 34.5411 38.8754 34.7442 39.0786C34.9474 39.2818 35.2229 39.3959 35.5103 39.3959C35.7976 39.3959 36.0731 39.2818 36.2763 39.0786C36.4795 38.8754 36.5936 38.5999 36.5936 38.3126C36.592 36.6478 36.111 35.0188 35.208 33.6202C34.3051 32.2216 33.0184 31.1126 31.5019 30.4259ZM27.9269 29.6459C27.2841 29.6459 26.6558 29.4553 26.1213 29.0982C25.5869 28.7411 25.1703 28.2335 24.9243 27.6396C24.6783 27.0458 24.614 26.3923 24.7394 25.7619C24.8648 25.1314 25.1743 24.5523 25.6288 24.0978C26.0833 23.6433 26.6624 23.3338 27.2929 23.2084C27.9233 23.083 28.5768 23.1473 29.1706 23.3933C29.7645 23.6393 30.2721 24.0559 30.6292 24.5903C30.9863 25.1248 31.1769 25.7531 31.1769 26.3959C31.1769 27.2579 30.8345 28.0845 30.225 28.694C29.6155 29.3035 28.7889 29.6459 27.9269 29.6459ZM40.6128 27.0784C40.512 26.9769 40.3922 26.8963 40.2602 26.8413C40.1282 26.7863 39.9866 26.758 39.8436 26.758C39.7006 26.758 39.559 26.7863 39.427 26.8413C39.2949 26.8963 39.1751 26.9769 39.0744 27.0784L36.9078 29.2451L36.2361 28.5626C36.1354 28.461 36.0156 28.3804 35.8835 28.3254C35.7515 28.2704 35.6099 28.2421 35.4669 28.2421C35.3239 28.2421 35.1823 28.2704 35.0503 28.3254C34.9183 28.3804 34.7985 28.461 34.6978 28.5626C34.496 28.7656 34.3827 29.0401 34.3827 29.3263C34.3827 29.6125 34.496 29.8871 34.6978 30.0901L36.1494 31.5417C36.3524 31.7435 36.627 31.8568 36.9132 31.8568C37.1994 31.8568 37.4739 31.7435 37.6769 31.5417L40.5694 28.6492C40.6788 28.551 40.767 28.4315 40.8288 28.2981C40.8905 28.1647 40.9244 28.0201 40.9285 27.8731C40.9325 27.7262 40.9066 27.5799 40.8523 27.4433C40.7981 27.3067 40.7165 27.1825 40.6128 27.0784Z" fill="#FAB757"/>
<rect x="1" y="1.1875" width="58" height="58" rx="29" stroke="#FEF3E4" stroke-width="2"/>
</svg>
