<svg width="60" height="61" viewBox="0 0 60 61" fill="none" xmlns="http://www.w3.org/2000/svg">
<rect x="1" y="1.1875" width="58" height="58" rx="29" fill="#E4F1F6"/>
<path d="M39.8436 21.5209H36.5936V20.4376C36.5936 20.1503 36.4795 19.8747 36.2763 19.6715C36.0731 19.4684 35.7976 19.3542 35.5103 19.3542H24.6769C24.3896 19.3542 24.1141 19.4684 23.9109 19.6715C23.7077 19.8747 23.5936 20.1503 23.5936 20.4376V21.5209H20.3436C20.0563 21.5209 19.7807 21.6351 19.5776 21.8382C19.3744 22.0414 19.2603 22.3169 19.2603 22.6042V25.8542C19.2603 27.0035 19.7168 28.1057 20.5295 28.9184C21.3421 29.731 22.4443 30.1876 23.5936 30.1876H25.2619C26.2418 31.2808 27.563 32.0101 29.0103 32.2567V34.5209H27.9269C27.065 34.5209 26.2383 34.8633 25.6288 35.4728C25.0193 36.0823 24.6769 36.909 24.6769 37.7709V39.9376C24.6769 40.2249 24.7911 40.5004 24.9942 40.7036C25.1974 40.9068 25.4729 41.0209 25.7603 41.0209H34.4269C34.7142 41.0209 34.9898 40.9068 35.193 40.7036C35.3961 40.5004 35.5103 40.2249 35.5103 39.9376V37.7709C35.5103 36.909 35.1678 36.0823 34.5584 35.4728C33.9489 34.8633 33.1222 34.5209 32.2603 34.5209H31.1769V32.2567C32.6242 32.0101 33.9453 31.2808 34.9253 30.1876H36.5936C37.7429 30.1876 38.8451 29.731 39.6577 28.9184C40.4704 28.1057 40.9269 27.0035 40.9269 25.8542V22.6042C40.9269 22.3169 40.8128 22.0414 40.6096 21.8382C40.4065 21.6351 40.1309 21.5209 39.8436 21.5209ZM23.5936 28.0209C23.019 28.0209 22.4679 27.7926 22.0615 27.3863C21.6552 26.98 21.4269 26.4289 21.4269 25.8542V23.6876H23.5936V25.8542C23.596 26.5928 23.7242 27.3255 23.9728 28.0209H23.5936ZM32.2603 36.6876C32.5476 36.6876 32.8231 36.8017 33.0263 37.0049C33.2294 37.208 33.3436 37.4836 33.3436 37.7709V38.8542H26.8436V37.7709C26.8436 37.4836 26.9577 37.208 27.1609 37.0049C27.3641 36.8017 27.6396 36.6876 27.9269 36.6876H32.2603ZM34.4269 25.8542C34.4269 27.0035 33.9704 28.1057 33.1577 28.9184C32.3451 29.731 31.2429 30.1876 30.0936 30.1876C28.9443 30.1876 27.8421 29.731 27.0295 28.9184C26.2168 28.1057 25.7603 27.0035 25.7603 25.8542V21.5209H34.4269V25.8542ZM38.7603 25.8542C38.7603 26.4289 38.532 26.98 38.1257 27.3863C37.7193 27.7926 37.1682 28.0209 36.5936 28.0209H36.2144C36.463 27.3255 36.5912 26.5928 36.5936 25.8542V23.6876H38.7603V25.8542Z" fill="#53A8C7"/>
<rect x="1" y="1.1875" width="58" height="58" rx="29" stroke="#E4F1F6" stroke-width="2"/>
</svg>
