<svg width="60" height="60" viewBox="0 0 60 60" fill="none" xmlns="http://www.w3.org/2000/svg">
<rect x="1" y="1" width="58" height="58" rx="29" fill="#E9EAF8"/>
<path d="M28.2411 29.6858C28.3418 29.7873 28.4616 29.8679 28.5936 29.9229C28.7256 29.9779 28.8672 30.0062 29.0103 30.0062C29.1533 30.0062 29.2949 29.9779 29.4269 29.9229C29.5589 29.8679 29.6787 29.7873 29.7794 29.6858L34.1128 25.3525C34.2138 25.2515 34.2939 25.1315 34.3486 24.9996C34.4032 24.8676 34.4314 24.7261 34.4314 24.5833C34.4314 24.4404 34.4032 24.299 34.3486 24.167C34.2939 24.035 34.2138 23.9151 34.1128 23.8141C34.0117 23.7131 33.8918 23.633 33.7599 23.5783C33.6279 23.5237 33.4864 23.4955 33.3436 23.4955C33.2007 23.4955 33.0593 23.5237 32.9273 23.5783C32.7953 23.633 32.6754 23.7131 32.5744 23.8141L29.0103 27.3891L27.6128 25.9808C27.4088 25.7768 27.1321 25.6622 26.8436 25.6622C26.5551 25.6622 26.2784 25.7768 26.0744 25.9808C25.8704 26.1848 25.7558 26.4615 25.7558 26.75C25.7558 27.0385 25.8704 27.3151 26.0744 27.5191L28.2411 29.6858ZM39.8436 32.1666H38.7603V21.3333H39.8436C40.1309 21.3333 40.4065 21.2192 40.6096 21.016C40.8128 20.8128 40.9269 20.5373 40.9269 20.25C40.9269 19.9626 40.8128 19.6871 40.6096 19.4839C40.4065 19.2808 40.1309 19.1666 39.8436 19.1666H20.3436C20.0563 19.1666 19.7807 19.2808 19.5776 19.4839C19.3744 19.6871 19.2603 19.9626 19.2603 20.25C19.2603 20.5373 19.3744 20.8128 19.5776 21.016C19.7807 21.2192 20.0563 21.3333 20.3436 21.3333H21.4269V32.1666H20.3436C20.0563 32.1666 19.7807 32.2808 19.5776 32.4839C19.3744 32.6871 19.2603 32.9626 19.2603 33.25C19.2603 33.5373 19.3744 33.8128 19.5776 34.016C19.7807 34.2192 20.0563 34.3333 20.3436 34.3333H29.0103V35.5791L24.0811 38.8291C23.8789 38.9543 23.7235 39.1425 23.6388 39.3648C23.5542 39.5871 23.5451 39.831 23.6129 40.059C23.6806 40.2869 23.8215 40.4863 24.0138 40.6262C24.2062 40.7662 24.4392 40.8389 24.6769 40.8333C24.8899 40.8357 25.0983 40.7713 25.2728 40.6491L29.0103 38.1791V39.75C29.0103 40.0373 29.1244 40.3128 29.3276 40.516C29.5307 40.7192 29.8063 40.8333 30.0936 40.8333C30.3809 40.8333 30.6565 40.7192 30.8596 40.516C31.0628 40.3128 31.1769 40.0373 31.1769 39.75V38.1791L34.9144 40.6491C35.0889 40.7713 35.2973 40.8357 35.5103 40.8333C35.7417 40.8315 35.9665 40.7556 36.1517 40.6168C36.3369 40.478 36.4728 40.2835 36.5394 40.0618C36.606 39.8401 36.5999 39.603 36.5219 39.385C36.4439 39.1671 36.2982 38.9799 36.1061 38.8508L31.1769 35.6008V34.3333H39.8436C40.1309 34.3333 40.4065 34.2192 40.6096 34.016C40.8128 33.8128 40.9269 33.5373 40.9269 33.25C40.9269 32.9626 40.8128 32.6871 40.6096 32.4839C40.4065 32.2808 40.1309 32.1666 39.8436 32.1666ZM36.5936 32.1666H23.5936V21.3333H36.5936V32.1666Z" fill="#747ED1"/>
<rect x="1" y="1" width="58" height="58" rx="29" stroke="#E9EAF8" stroke-width="2"/>
</svg>
