<svg width="65" height="86" viewBox="0 0 65 86" fill="none" xmlns="http://www.w3.org/2000/svg">
<path d="M0.929688 13.8974C0.929688 6.35682 7.04249 0.244019 14.583 0.244019H51.2764C58.8169 0.244019 64.9297 6.35682 64.9297 13.8974V50.5907C64.9297 58.1312 58.8169 64.244 51.2764 64.244H14.583C7.04249 64.244 0.929688 58.1312 0.929688 50.5907V13.8974Z" fill="#0089FF"/>
<path d="M45.303 15.604H21.4097V21.5774H45.303V15.604Z" fill="white"/>
<path d="M43.5964 29.2574H21.4097V49.7374H45.303V43.764H29.0897V35.2307H43.5964V29.2574Z" fill="white"/>
<path d="M9.87516 83.244V74.604H15.2752V75.45H10.7572V78.438H14.5552V79.284H10.7572V82.398H15.2752V83.244H9.87516ZM16.7189 83.244V74.604H20.0549C20.1389 74.604 20.2329 74.608 20.3369 74.616C20.4449 74.62 20.5529 74.632 20.6609 74.652C21.1129 74.72 21.4949 74.878 21.8069 75.126C22.1229 75.37 22.3609 75.678 22.5209 76.05C22.6849 76.422 22.7669 76.834 22.7669 77.286C22.7669 77.938 22.5949 78.504 22.2509 78.984C21.9069 79.464 21.4149 79.766 20.7749 79.89L20.4689 79.962H17.6009V83.244H16.7189ZM21.9509 83.244L20.2469 79.728L21.0929 79.404L22.9649 83.244H21.9509ZM17.6009 79.122H20.0309C20.1029 79.122 20.1869 79.118 20.2829 79.11C20.3789 79.102 20.4729 79.088 20.5649 79.068C20.8609 79.004 21.1029 78.882 21.2909 78.702C21.4829 78.522 21.6249 78.308 21.7169 78.06C21.8129 77.812 21.8609 77.554 21.8609 77.286C21.8609 77.018 21.8129 76.76 21.7169 76.512C21.6249 76.26 21.4829 76.044 21.2909 75.864C21.1029 75.684 20.8609 75.562 20.5649 75.498C20.4729 75.478 20.3789 75.466 20.2829 75.462C20.1869 75.454 20.1029 75.45 20.0309 75.45H17.6009V79.122ZM24.2892 83.244V74.604H27.6252C27.7092 74.604 27.8032 74.608 27.9072 74.616C28.0152 74.62 28.1232 74.632 28.2312 74.652C28.6832 74.72 29.0652 74.878 29.3772 75.126C29.6932 75.37 29.9312 75.678 30.0912 76.05C30.2552 76.422 30.3372 76.834 30.3372 77.286C30.3372 77.734 30.2552 78.144 30.0912 78.516C29.9272 78.888 29.6872 79.198 29.3712 79.446C29.0592 79.69 28.6792 79.846 28.2312 79.914C28.1232 79.93 28.0152 79.942 27.9072 79.95C27.8032 79.958 27.7092 79.962 27.6252 79.962H25.1712V83.244H24.2892ZM25.1712 79.122H27.6012C27.6732 79.122 27.7572 79.118 27.8532 79.11C27.9492 79.102 28.0432 79.088 28.1352 79.068C28.4312 79.004 28.6732 78.882 28.8612 78.702C29.0532 78.522 29.1952 78.308 29.2872 78.06C29.3832 77.812 29.4312 77.554 29.4312 77.286C29.4312 77.018 29.3832 76.76 29.2872 76.512C29.1952 76.26 29.0532 76.044 28.8612 75.864C28.6732 75.684 28.4312 75.562 28.1352 75.498C28.0432 75.478 27.9492 75.466 27.8532 75.462C27.7572 75.454 27.6732 75.45 27.6012 75.45H25.1712V79.122ZM31.5314 83.244V74.604H32.4194L37.1774 81.684V74.604H38.0654V83.244H37.1774L32.4194 76.158V83.244H31.5314ZM42.4883 83.424C41.8563 83.424 41.3083 83.284 40.8443 83.004C40.3843 82.724 40.0263 82.33 39.7703 81.822C39.5143 81.314 39.3863 80.718 39.3863 80.034C39.3863 79.326 39.5123 78.714 39.7643 78.198C40.0163 77.682 40.3703 77.284 40.8263 77.004C41.2863 76.724 41.8283 76.584 42.4523 76.584C43.0923 76.584 43.6383 76.732 44.0903 77.028C44.5423 77.32 44.8843 77.74 45.1163 78.288C45.3483 78.836 45.4543 79.49 45.4343 80.25H44.5343V79.938C44.5183 79.098 44.3363 78.464 43.9883 78.036C43.6443 77.608 43.1403 77.394 42.4763 77.394C41.7803 77.394 41.2463 77.62 40.8743 78.072C40.5063 78.524 40.3223 79.168 40.3223 80.004C40.3223 80.82 40.5063 81.454 40.8743 81.906C41.2463 82.354 41.7723 82.578 42.4523 82.578C42.9163 82.578 43.3203 82.472 43.6643 82.26C44.0123 82.044 44.2863 81.734 44.4863 81.33L45.3083 81.648C45.0523 82.212 44.6743 82.65 44.1743 82.962C43.6783 83.27 43.1163 83.424 42.4883 83.424ZM40.0103 80.25V79.512H44.9603V80.25H40.0103ZM45.8114 83.244L48.3434 79.968L45.8654 76.764H46.9214L48.8594 79.29L50.7794 76.764H51.8354L49.3574 79.968L51.8954 83.244H50.8334L48.8594 80.646L46.8734 83.244H45.8114ZM56.3875 83.244C56.0235 83.32 55.6635 83.35 55.3075 83.334C54.9555 83.318 54.6395 83.242 54.3595 83.106C54.0835 82.97 53.8735 82.758 53.7295 82.47C53.6135 82.23 53.5495 81.988 53.5375 81.744C53.5295 81.496 53.5255 81.214 53.5255 80.898V74.964H54.4015V80.862C54.4015 81.134 54.4035 81.362 54.4075 81.546C54.4155 81.726 54.4575 81.886 54.5335 82.026C54.6775 82.294 54.9055 82.454 55.2175 82.506C55.5335 82.558 55.9235 82.546 56.3875 82.47V83.244ZM52.1395 77.52V76.764H56.3875V77.52H52.1395Z" fill="#38424E"/>
</svg>
