<svg width="24" height="25" viewBox="0 0 24 25" fill="none" xmlns="http://www.w3.org/2000/svg">
<path fill-rule="evenodd" clip-rule="evenodd" d="M7.33049 2.50049H16.6695C20.0705 2.50049 21.9905 4.42949 22.0005 7.83049V17.1705C22.0005 20.5705 20.0705 22.5005 16.6695 22.5005H7.33049C3.92949 22.5005 2.00049 20.5705 2.00049 17.1705V7.83049C2.00049 4.42949 3.92949 2.50049 7.33049 2.50049ZM12.0496 18.3605C12.4806 18.3605 12.8396 18.0405 12.8796 17.6105V7.42049C12.9196 7.11049 12.7706 6.79949 12.5006 6.63049C12.2196 6.46049 11.8796 6.46049 11.6106 6.63049C11.3396 6.79949 11.1906 7.11049 11.2196 7.42049V17.6105C11.2706 18.0405 11.6296 18.3605 12.0496 18.3605ZM16.6506 18.3605C17.0706 18.3605 17.4296 18.0405 17.4806 17.6105V14.3305C17.5096 14.0095 17.3606 13.7105 17.0896 13.5405C16.8206 13.3705 16.4806 13.3705 16.2006 13.5405C15.9296 13.7105 15.7806 14.0095 15.8206 14.3305V17.6105C15.8606 18.0405 16.2196 18.3605 16.6506 18.3605ZM8.21952 17.6105C8.17952 18.0405 7.82052 18.3605 7.38952 18.3605C6.95952 18.3605 6.59952 18.0405 6.56052 17.6105V10.7005C6.53052 10.3895 6.67952 10.0805 6.95052 9.91049C7.21952 9.74049 7.56052 9.74049 7.83052 9.91049C8.09952 10.0805 8.25052 10.3895 8.21952 10.7005V17.6105Z" fill="#216778"/>
</svg>
