<svg width="24" height="25" viewBox="0 0 24 25" fill="none" xmlns="http://www.w3.org/2000/svg">
<path d="M1.5 17C1.5 16.6022 1.65804 16.2206 1.93934 15.9393C2.22064 15.658 2.60218 15.5 3 15.5H6C6.39782 15.5 6.77936 15.658 7.06066 15.9393C7.34196 16.2206 7.5 16.6022 7.5 17V21.5C7.5 21.8978 7.34196 22.2794 7.06066 22.5607C6.77936 22.842 6.39782 23 6 23H3C2.60218 23 2.22064 22.842 1.93934 22.5607C1.65804 22.2794 1.5 21.8978 1.5 21.5V17ZM9 11C9 10.6022 9.15804 10.2206 9.43934 9.93934C9.72064 9.65804 10.1022 9.5 10.5 9.5H13.5C13.8978 9.5 14.2794 9.65804 14.5607 9.93934C14.842 10.2206 15 10.6022 15 11V21.5C15 21.8978 14.842 22.2794 14.5607 22.5607C14.2794 22.842 13.8978 23 13.5 23H10.5C10.1022 23 9.72064 22.842 9.43934 22.5607C9.15804 22.2794 9 21.8978 9 21.5V11ZM16.5 3.5C16.5 3.10218 16.658 2.72064 16.9393 2.43934C17.2206 2.15804 17.6022 2 18 2H21C21.3978 2 21.7794 2.15804 22.0607 2.43934C22.342 2.72064 22.5 3.10218 22.5 3.5V21.5C22.5 21.8978 22.342 22.2794 22.0607 22.5607C21.7794 22.842 21.3978 23 21 23H18C17.6022 23 17.2206 22.842 16.9393 22.5607C16.658 22.2794 16.5 21.8978 16.5 21.5V3.5Z" fill="#4F379F"/>
</svg>
