<svg width="24" height="25" viewBox="0 0 24 25" fill="none" xmlns="http://www.w3.org/2000/svg">
<g clip-path="url(#clip0_127_2402)">
<path d="M0 8.00006C0.000366235 9.73587 0.602572 11.4179 1.70401 12.7594C2.80545 14.101 4.33799 15.0192 6.0405 15.3576C6.13747 14.2829 6.41326 13.2319 6.8565 12.2481C5.5425 11.8041 4.698 10.7961 4.5 9.36506H3.75V8.72606H4.449V8.07506C4.449 8.00606 4.449 7.93556 4.455 7.87256H3.75V7.23206H4.5165C4.854 5.36006 6.3195 4.25006 8.5215 4.25006C8.9955 4.25006 9.4065 4.29656 9.75 4.37756V5.47706C9.34881 5.3878 8.93843 5.34651 8.5275 5.35406C7.149 5.35406 6.2205 6.05306 5.9265 7.23206H8.802V7.87256H5.832C5.8275 7.94156 5.8275 8.01806 5.8275 8.09306V8.72606H8.802V9.36656H5.895C6.072 10.2696 6.597 10.9116 7.4025 11.2101C8.19231 9.902 9.2785 8.79789 10.5735 7.98678C11.8684 7.17567 13.3359 6.68028 14.8575 6.54056C14.4896 4.71883 13.4587 3.09846 11.9645 1.99333C10.4703 0.888203 8.61905 0.37697 6.76944 0.558663C4.91984 0.740355 3.20349 1.60204 1.95287 2.97681C0.702244 4.35157 0.00635546 6.14157 0 8.00006H0ZM24 16.2501C24 18.4381 23.1308 20.5365 21.5836 22.0837C20.0365 23.6309 17.938 24.5001 15.75 24.5001C13.562 24.5001 11.4635 23.6309 9.91637 22.0837C8.36919 20.5365 7.5 18.4381 7.5 16.2501C7.5 14.062 8.36919 11.9636 9.91637 10.4164C11.4635 8.86926 13.562 8.00006 15.75 8.00006C17.938 8.00006 20.0365 8.86926 21.5836 10.4164C23.1308 11.9636 24 14.062 24 16.2501ZM12.375 18.2331C12.4785 19.4856 13.494 20.4606 15.321 20.5761V21.5001H16.131V20.5701C18.0195 20.4411 19.125 19.4601 19.125 18.0351C19.125 16.7376 18.2805 16.0701 16.77 15.7251L16.131 15.5751V13.0611C16.941 13.1511 17.457 13.5816 17.58 14.1786H19.002C18.897 12.9726 17.8335 12.0291 16.131 11.9256V11.0001H15.321V11.9436C13.707 12.0981 12.609 13.0416 12.609 14.3766C12.609 15.5571 13.425 16.3086 14.784 16.6161L15.321 16.7436V19.4136C14.49 19.2936 13.941 18.8496 13.8165 18.2331H12.375ZM15.315 15.3906C14.517 15.2106 14.085 14.8446 14.085 14.2926C14.085 13.6776 14.5515 13.2141 15.321 13.0791V15.3891H15.3135L15.315 15.3906ZM16.248 16.9566C17.2155 17.1741 17.6625 17.5266 17.6625 18.1506C17.6625 18.8616 17.1075 19.3506 16.1325 19.4406V16.9296L16.248 16.9566Z" fill="#216778"/>
</g>
<defs>
<clipPath id="clip0_127_2402">
<rect width="24" height="24" fill="white" transform="translate(0 0.5)"/>
</clipPath>
</defs>
</svg>
