<svg width="24" height="25" viewBox="0 0 24 25" fill="none" xmlns="http://www.w3.org/2000/svg">
<g clip-path="url(#clip0_1852_2461)">
<path d="M2.25 23C2.05109 23 1.86032 23.079 1.71967 23.2197C1.57902 23.3603 1.5 23.5511 1.5 23.75C1.5 23.9489 1.57902 24.1397 1.71967 24.2803C1.86032 24.421 2.05109 24.5 2.25 24.5H21.75C21.9489 24.5 22.1397 24.421 22.2803 24.2803C22.421 24.1397 22.5 23.9489 22.5 23.75C22.5 23.5511 22.421 23.3603 22.2803 23.2197C22.1397 23.079 21.9489 23 21.75 23H19.5V4.25001C19.5 3.65327 19.2629 3.08098 18.841 2.65902C18.419 2.23706 17.8467 2.00001 17.25 2.00001H16.5V1.25001C16.5 1.14265 16.4769 1.03656 16.4324 0.938882C16.3878 0.841209 16.3228 0.754238 16.2418 0.683847C16.1607 0.613457 16.0655 0.561288 15.9625 0.530866C15.8596 0.500444 15.7513 0.492479 15.645 0.507508L5.145 2.00751C4.96608 2.03281 4.8023 2.12185 4.6838 2.25827C4.56529 2.39469 4.50003 2.56931 4.5 2.75001V23H2.25ZM16.5 3.50001H17.25C17.4489 3.50001 17.6397 3.57903 17.7803 3.71968C17.921 3.86033 18 4.0511 18 4.25001V23H16.5V3.50001ZM12.75 15.5C12.336 15.5 12 14.828 12 14C12 13.172 12.336 12.5 12.75 12.5C13.164 12.5 13.5 13.172 13.5 14C13.5 14.828 13.164 15.5 12.75 15.5Z" fill="#4F379F"/>
</g>
<defs>
<clipPath id="clip0_1852_2461">
<rect width="24" height="24" fill="white" transform="translate(0 0.5)"/>
</clipPath>
</defs>
</svg>
