<svg width="24" height="25" viewBox="0 0 24 25" fill="none" xmlns="http://www.w3.org/2000/svg">
<g clip-path="url(#clip0_857_2682)">
<path d="M13.9395 0.5H6C5.20435 0.5 4.44129 0.816071 3.87868 1.37868C3.31607 1.94129 3 2.70435 3 3.5V21.5C3 22.2956 3.31607 23.0587 3.87868 23.6213C4.44129 24.1839 5.20435 24.5 6 24.5H18C18.7956 24.5 19.5587 24.1839 20.1213 23.6213C20.6839 23.0587 21 22.2956 21 21.5V7.5605C20.9999 7.16271 20.8418 6.78124 20.5605 6.5L15 0.9395C14.7188 0.658176 14.3373 0.500085 13.9395 0.5V0.5ZM14.25 5.75V2.75L18.75 7.25H15.75C15.3522 7.25 14.9706 7.09196 14.6893 6.81066C14.408 6.52936 14.25 6.14782 14.25 5.75ZM9.75 8.75V9.701L10.5735 9.2255C10.6588 9.17548 10.7532 9.14283 10.8512 9.12943C10.9492 9.11603 11.0489 9.12214 11.1445 9.14743C11.2401 9.17271 11.3298 9.21665 11.4084 9.27674C11.487 9.33682 11.5529 9.41185 11.6023 9.4975C11.6518 9.58316 11.6838 9.67776 11.6966 9.77584C11.7093 9.87393 11.7025 9.97357 11.6766 10.069C11.6507 10.1645 11.6062 10.2539 11.5456 10.332C11.4849 10.4102 11.4095 10.4756 11.3235 10.5245L10.5 11L11.3235 11.4755C11.4095 11.5244 11.4849 11.5898 11.5456 11.668C11.6062 11.7461 11.6507 11.8355 11.6766 11.931C11.7025 12.0264 11.7093 12.1261 11.6966 12.2242C11.6838 12.3222 11.6518 12.4168 11.6023 12.5025C11.5529 12.5882 11.487 12.6632 11.4084 12.7233C11.3298 12.7833 11.2401 12.8273 11.1445 12.8526C11.0489 12.8779 10.9492 12.884 10.8512 12.8706C10.7532 12.8572 10.6588 12.8245 10.5735 12.7745L9.75 12.299V13.25C9.75 13.4489 9.67098 13.6397 9.53033 13.7803C9.38968 13.921 9.19891 14 9 14C8.80109 14 8.61032 13.921 8.46967 13.7803C8.32902 13.6397 8.25 13.4489 8.25 13.25V12.299L7.4265 12.7745C7.34117 12.8245 7.24679 12.8572 7.14879 12.8706C7.0508 12.884 6.95111 12.8779 6.85549 12.8526C6.75987 12.8273 6.67019 12.7833 6.59162 12.7233C6.51304 12.6632 6.44713 12.5882 6.39768 12.5025C6.34822 12.4168 6.3162 12.3222 6.30345 12.2242C6.2907 12.1261 6.29748 12.0264 6.32339 11.931C6.34931 11.8355 6.39385 11.7461 6.45445 11.668C6.51505 11.5898 6.59052 11.5244 6.6765 11.4755L7.5 11L6.6765 10.5245C6.50565 10.4243 6.38134 10.2607 6.33072 10.0692C6.2801 9.87772 6.30727 9.674 6.40629 9.50248C6.50532 9.33096 6.66817 9.20558 6.8593 9.15369C7.05043 9.1018 7.25433 9.12761 7.4265 9.2255L8.25 9.701V8.75C8.25 8.55109 8.32902 8.36032 8.46967 8.21967C8.61032 8.07902 8.80109 8 9 8C9.19891 8 9.38968 8.07902 9.53033 8.21967C9.67098 8.36032 9.75 8.55109 9.75 8.75ZM6.75 15.5H14.25C14.4489 15.5 14.6397 15.579 14.7803 15.7197C14.921 15.8603 15 16.0511 15 16.25C15 16.4489 14.921 16.6397 14.7803 16.7803C14.6397 16.921 14.4489 17 14.25 17H6.75C6.55109 17 6.36032 16.921 6.21967 16.7803C6.07902 16.6397 6 16.4489 6 16.25C6 16.0511 6.07902 15.8603 6.21967 15.7197C6.36032 15.579 6.55109 15.5 6.75 15.5ZM6.75 18.5H14.25C14.4489 18.5 14.6397 18.579 14.7803 18.7197C14.921 18.8603 15 19.0511 15 19.25C15 19.4489 14.921 19.6397 14.7803 19.7803C14.6397 19.921 14.4489 20 14.25 20H6.75C6.55109 20 6.36032 19.921 6.21967 19.7803C6.07902 19.6397 6 19.4489 6 19.25C6 19.0511 6.07902 18.8603 6.21967 18.7197C6.36032 18.579 6.55109 18.5 6.75 18.5Z" fill="#4F379F"/>
</g>
<defs>
<clipPath id="clip0_857_2682">
<rect width="24" height="24" fill="white" transform="translate(0 0.5)"/>
</clipPath>
</defs>
</svg>
