<svg width="24" height="25" viewBox="0 0 24 25" fill="none" xmlns="http://www.w3.org/2000/svg">
<g clip-path="url(#clip0_127_2644)">
<path d="M9.75 2C9.15326 2 8.58097 2.23705 8.15901 2.65901C7.73705 3.08097 7.5 3.65326 7.5 4.25V5H2.25C1.65326 5 1.08097 5.23705 0.65901 5.65901C0.237053 6.08097 0 6.65326 0 7.25L0 9.326L11.421 12.371C11.8004 12.472 12.1996 12.472 12.579 12.371L24 9.326V7.25C24 6.65326 23.7629 6.08097 23.341 5.65901C22.919 5.23705 22.3467 5 21.75 5H16.5V4.25C16.5 3.65326 16.2629 3.08097 15.841 2.65901C15.419 2.23705 14.8467 2 14.25 2H9.75ZM9.75 3.5H14.25C14.4489 3.5 14.6397 3.57902 14.7803 3.71967C14.921 3.86032 15 4.05109 15 4.25V5H9V4.25C9 4.05109 9.07902 3.86032 9.21967 3.71967C9.36032 3.57902 9.55109 3.5 9.75 3.5Z" fill="#216778"/>
<path d="M0 19.2499C0 19.8466 0.237053 20.4189 0.65901 20.8409C1.08097 21.2628 1.65326 21.4999 2.25 21.4999H21.75C22.3467 21.4999 22.919 21.2628 23.341 20.8409C23.7629 20.4189 24 19.8466 24 19.2499V10.7749L12.1935 13.9204C12.0667 13.9543 11.9333 13.9543 11.8065 13.9204L0 10.7749V19.2499Z" fill="#216778"/>
</g>
<defs>
<clipPath id="clip0_127_2644">
<rect width="24" height="24" fill="white" transform="translate(0 0.5)"/>
</clipPath>
</defs>
</svg>
