<svg width="24" height="25" viewBox="0 0 24 25" fill="none" xmlns="http://www.w3.org/2000/svg">
<g clip-path="url(#clip0_127_1490)">
<path d="M8.89927 1.80505C9.30302 1.39186 9.7853 1.06354 10.3177 0.839383C10.8502 0.615227 11.4221 0.499756 11.9998 0.499756C12.5775 0.499756 13.1494 0.615227 13.6818 0.839383C14.2142 1.06354 14.6965 1.39186 15.1003 1.80505L16.0333 2.76205L17.3683 2.74555C17.9461 2.73871 18.5196 2.84749 19.0548 3.06548C19.59 3.28348 20.0762 3.60629 20.4849 4.01494C20.8935 4.42359 21.2163 4.90982 21.4343 5.44504C21.6523 5.98026 21.7611 6.55367 21.7543 7.13155L21.7393 8.46655L22.6933 9.39955C23.1065 9.8033 23.4348 10.2856 23.6589 10.818C23.8831 11.3505 23.9986 11.9223 23.9986 12.5C23.9986 13.0778 23.8831 13.6496 23.6589 14.1821C23.4348 14.7145 23.1065 15.1968 22.6933 15.6005L21.7378 16.5336L21.7543 17.8685C21.7611 18.4464 21.6523 19.0198 21.4343 19.5551C21.2163 20.0903 20.8935 20.5765 20.4849 20.9852C20.0762 21.3938 19.59 21.7166 19.0548 21.9346C18.5196 22.1526 17.9461 22.2614 17.3683 22.2545L16.0333 22.2395L15.1003 23.1935C14.6965 23.6067 14.2142 23.9351 13.6818 24.1592C13.1494 24.3834 12.5775 24.4988 11.9998 24.4988C11.4221 24.4988 10.8502 24.3834 10.3177 24.1592C9.7853 23.9351 9.30302 23.6067 8.89927 23.1935L7.96627 22.238L6.63127 22.2545C6.05339 22.2614 5.47999 22.1526 4.94476 21.9346C4.40954 21.7166 3.92331 21.3938 3.51466 20.9852C3.10601 20.5765 2.7832 20.0903 2.5652 19.5551C2.34721 19.0198 2.23843 18.4464 2.24527 17.8685L2.26027 16.5336L1.30627 15.6005C0.89308 15.1968 0.56476 14.7145 0.340604 14.1821C0.116448 13.6496 0.000976562 13.0778 0.000976562 12.5C0.000976562 11.9223 0.116448 11.3505 0.340604 10.818C0.56476 10.2856 0.89308 9.8033 1.30627 9.39955L2.26177 8.46655L2.24527 7.13155C2.23843 6.55367 2.34721 5.98026 2.5652 5.44504C2.7832 4.90982 3.10601 4.42359 3.51466 4.01494C3.92331 3.60629 4.40954 3.28348 4.94476 3.06548C5.47999 2.84749 6.05339 2.73871 6.63127 2.74555L7.96627 2.76055L8.89927 1.80655V1.80505ZM10.5028 17C10.5028 17.197 10.5416 17.3921 10.6169 17.5741C10.6923 17.7561 10.8028 17.9214 10.9421 18.0607C11.0814 18.2 11.2468 18.3105 11.4287 18.3859C11.6107 18.4613 11.8058 18.5 12.0028 18.5C12.1998 18.5 12.3948 18.4613 12.5768 18.3859C12.7588 18.3105 12.9241 18.2 13.0634 18.0607C13.2027 17.9214 13.3132 17.7561 13.3886 17.5741C13.464 17.3921 13.5028 17.197 13.5028 17C13.5028 16.6022 13.3447 16.2207 13.0634 15.9394C12.7821 15.6581 12.4006 15.5 12.0028 15.5C11.6049 15.5 11.2234 15.6581 10.9421 15.9394C10.6608 16.2207 10.5028 16.6022 10.5028 17ZM12.9058 13.9595C12.9658 13.1585 13.2028 12.737 14.1748 12.0695C15.1858 11.357 15.7498 10.4345 15.7498 9.09055C15.7498 7.10305 14.3698 5.75005 12.3568 5.75005C10.8268 5.75005 9.66877 6.48805 9.20677 7.68505C9.06676 8.01197 8.99627 8.36443 8.99977 8.72005C8.99977 9.30955 9.30427 9.68005 9.81727 9.68005C10.2253 9.68005 10.4998 9.45955 10.6633 8.91505C10.9003 8.02705 11.4508 7.54255 12.2743 7.54255C13.1893 7.54255 13.8193 8.21155 13.8193 9.16855C13.8193 10.013 13.5073 10.496 12.5863 11.156C11.6578 11.8055 11.1973 12.5271 11.1973 13.616V13.7825C11.1973 14.4245 11.5093 14.9 12.0748 14.9C12.5788 14.9 12.8308 14.54 12.9058 13.9595Z" fill="#216778"/>
</g>
<defs>
<clipPath id="clip0_127_1490">
<rect width="24" height="24" fill="white" transform="translate(0 0.5)"/>
</clipPath>
</defs>
</svg>
