<svg width="24" height="25" viewBox="0 0 24 25" fill="none" xmlns="http://www.w3.org/2000/svg">
<g clip-path="url(#clip0_857_3878)">
<path d="M15.1001 1.80505C14.6964 1.39186 14.2141 1.06354 13.6817 0.839383C13.1492 0.615227 12.5774 0.499756 11.9996 0.499756C11.4219 0.499756 10.8501 0.615227 10.3176 0.839383C9.78517 1.06354 9.3029 1.39186 8.89915 1.80505L7.96615 2.76205L6.63115 2.74555C6.05327 2.73871 5.47986 2.84749 4.94464 3.06548C4.40942 3.28348 3.92318 3.60629 3.51454 4.01494C3.10589 4.42359 2.78307 4.90982 2.56508 5.44504C2.34708 5.98026 2.23831 6.55367 2.24515 7.13155L2.26015 8.46655L1.30615 9.39955C0.892958 9.8033 0.564638 10.2856 0.340482 10.818C0.116325 11.3505 0.000854492 11.9223 0.000854492 12.5C0.000854492 13.0778 0.116325 13.6496 0.340482 14.1821C0.564638 14.7145 0.892958 15.1968 1.30615 15.6005L2.26165 16.5336L2.24515 17.8685C2.23831 18.4464 2.34708 19.0198 2.56508 19.5551C2.78307 20.0903 3.10589 20.5765 3.51454 20.9852C3.92318 21.3938 4.40942 21.7166 4.94464 21.9346C5.47986 22.1526 6.05327 22.2614 6.63115 22.2545L7.96615 22.2395L8.89915 23.1935C9.3029 23.6067 9.78517 23.9351 10.3176 24.1592C10.8501 24.3834 11.4219 24.4988 11.9996 24.4988C12.5774 24.4988 13.1492 24.3834 13.6817 24.1592C14.2141 23.9351 14.6964 23.6067 15.1001 23.1935L16.0331 22.238L17.3681 22.2545C17.946 22.2614 18.5194 22.1526 19.0547 21.9346C19.5899 21.7166 20.0761 21.3938 20.4848 20.9852C20.8934 20.5765 21.2162 20.0903 21.4342 19.5551C21.6522 19.0198 21.761 18.4464 21.7541 17.8685L21.7391 16.5336L22.6931 15.6005C23.1063 15.1968 23.4347 14.7145 23.6588 14.1821C23.883 13.6496 23.9984 13.0778 23.9984 12.5C23.9984 11.9223 23.883 11.3505 23.6588 10.818C23.4347 10.2856 23.1063 9.8033 22.6931 9.39955L21.7376 8.46655L21.7541 7.13155C21.761 6.55367 21.6522 5.98026 21.4342 5.44504C21.2162 4.90982 20.8934 4.42359 20.4848 4.01494C20.0761 3.60629 19.5899 3.28348 19.0547 3.06548C18.5194 2.84749 17.946 2.73871 17.3681 2.74555L16.0331 2.76055L15.1001 1.80655V1.80505ZM15.5306 10.781L11.0306 15.281C10.961 15.3509 10.8782 15.4063 10.7871 15.4441C10.696 15.4819 10.5983 15.5014 10.4996 15.5014C10.401 15.5014 10.3033 15.4819 10.2122 15.4441C10.1211 15.4063 10.0383 15.3509 9.96865 15.281L7.71865 13.031C7.64892 12.9613 7.5936 12.8785 7.55586 12.7874C7.51812 12.6963 7.4987 12.5987 7.4987 12.5C7.4987 12.4014 7.51812 12.3038 7.55586 12.2127C7.5936 12.1216 7.64892 12.0388 7.71865 11.969C7.78838 11.8993 7.87116 11.844 7.96227 11.8063C8.05338 11.7685 8.15103 11.7491 8.24965 11.7491C8.34826 11.7491 8.44591 11.7685 8.53702 11.8063C8.62813 11.844 8.71092 11.8993 8.78065 11.969L10.4996 13.6895L14.4686 9.71905C14.6095 9.57822 14.8005 9.4991 14.9996 9.4991C15.1988 9.4991 15.3898 9.57822 15.5306 9.71905C15.6715 9.85988 15.7506 10.0509 15.7506 10.25C15.7506 10.4492 15.6715 10.6402 15.5306 10.781Z" fill="#4F379F"/>
</g>
<defs>
<clipPath id="clip0_857_3878">
<rect width="24" height="24" fill="white" transform="translate(0 0.5)"/>
</clipPath>
</defs>
</svg>
