<svg width="24" height="25" viewBox="0 0 24 25" fill="none" xmlns="http://www.w3.org/2000/svg">
<g clip-path="url(#clip0_127_2393)">
<path d="M15.1003 1.80505C14.6965 1.39186 14.2142 1.06354 13.6818 0.839383C13.1494 0.615227 12.5775 0.499756 11.9998 0.499756C11.4221 0.499756 10.8502 0.615227 10.3177 0.839383C9.7853 1.06354 9.30302 1.39186 8.89927 1.80505L7.96627 2.76205L6.63127 2.74555C6.05339 2.73871 5.47999 2.84749 4.94476 3.06548C4.40954 3.28348 3.92331 3.60629 3.51466 4.01494C3.10601 4.42359 2.7832 4.90982 2.5652 5.44504C2.34721 5.98026 2.23843 6.55367 2.24527 7.13155L2.26027 8.46655L1.30627 9.39955C0.89308 9.8033 0.56476 10.2856 0.340604 10.818C0.116448 11.3505 0.000976563 11.9223 0.000976562 12.5C0.000976563 13.0778 0.116448 13.6496 0.340604 14.1821C0.56476 14.7145 0.89308 15.1968 1.30627 15.6005L2.26177 16.5336L2.24527 17.8685C2.23843 18.4464 2.34721 19.0198 2.5652 19.5551C2.7832 20.0903 3.10601 20.5765 3.51466 20.9852C3.92331 21.3938 4.40954 21.7166 4.94476 21.9346C5.47999 22.1526 6.05339 22.2614 6.63127 22.2545L7.96627 22.2395L8.89927 23.1935C9.30302 23.6067 9.7853 23.9351 10.3177 24.1592C10.8502 24.3834 11.4221 24.4988 11.9998 24.4988C12.5775 24.4988 13.1494 24.3834 13.6818 24.1592C14.2142 23.9351 14.6965 23.6067 15.1003 23.1935L16.0333 22.238L17.3683 22.2545C17.9461 22.2614 18.5196 22.1526 19.0548 21.9346C19.59 21.7166 20.0762 21.3938 20.4849 20.9852C20.8935 20.5765 21.2163 20.0903 21.4343 19.5551C21.6523 19.0198 21.7611 18.4464 21.7543 17.8685L21.7393 16.5336L22.6933 15.6005C23.1065 15.1968 23.4348 14.7145 23.6589 14.1821C23.8831 13.6496 23.9986 13.0778 23.9986 12.5C23.9986 11.9223 23.8831 11.3505 23.6589 10.818C23.4348 10.2856 23.1065 9.8033 22.6933 9.39955L21.7378 8.46655L21.7543 7.13155C21.7611 6.55367 21.6523 5.98026 21.4343 5.44504C21.2163 4.90982 20.8935 4.42359 20.4849 4.01494C20.0762 3.60629 19.59 3.28348 19.0548 3.06548C18.5196 2.84749 17.9461 2.73871 17.3683 2.74555L16.0333 2.76055L15.1003 1.80655V1.80505ZM15.5308 10.781L11.0308 15.281C10.9611 15.3509 10.8783 15.4063 10.7872 15.4441C10.6961 15.4819 10.5984 15.5014 10.4998 15.5014C10.4011 15.5014 10.3034 15.4819 10.2123 15.4441C10.1212 15.4063 10.0384 15.3509 9.96877 15.281L7.71877 13.031C7.64904 12.9613 7.59372 12.8785 7.55598 12.7874C7.51825 12.6963 7.49882 12.5987 7.49882 12.5C7.49882 12.4014 7.51825 12.3038 7.55598 12.2127C7.59372 12.1216 7.64904 12.0388 7.71877 11.969C7.7885 11.8993 7.87128 11.844 7.96239 11.8063C8.0535 11.7685 8.15115 11.7491 8.24977 11.7491C8.34838 11.7491 8.44604 11.7685 8.53714 11.8063C8.62825 11.844 8.71104 11.8993 8.78077 11.969L10.4998 13.6895L14.4688 9.71905C14.6096 9.57822 14.8006 9.4991 14.9998 9.4991C15.1989 9.4991 15.3899 9.57822 15.5308 9.71905C15.6716 9.85988 15.7507 10.0509 15.7507 10.25C15.7507 10.4492 15.6716 10.6402 15.5308 10.781Z" fill="#216778"/>
</g>
<defs>
<clipPath id="clip0_127_2393">
<rect width="24" height="24" fill="white" transform="translate(0 0.5)"/>
</clipPath>
</defs>
</svg>
