<svg width="60" height="60" viewBox="0 0 60 60" fill="none" xmlns="http://www.w3.org/2000/svg">
<rect x="1" y="1" width="58" height="58" rx="19" fill="#EAF3EF"/>
<path d="M21.3444 27.6667H27.7611C28.5778 27.6647 29.3681 27.3773 29.9952 26.8541C30.6223 26.3308 31.0466 25.6048 31.1948 24.8016C31.343 23.9985 31.2056 23.1688 30.8065 22.4563C30.4074 21.7437 29.7717 21.1932 29.0094 20.9C28.5708 20.039 27.8757 19.3355 27.0201 18.8864C26.1645 18.4373 25.1907 18.2649 24.2329 18.393C23.2752 18.521 22.3808 18.9432 21.6732 19.6012C20.9657 20.2593 20.4798 21.1207 20.2827 22.0667C19.67 22.327 19.1648 22.7891 18.851 23.3763C18.5372 23.9634 18.4337 24.6402 18.5577 25.2943C18.6817 25.9484 19.0257 26.5404 19.5327 26.972C20.0396 27.4035 20.6789 27.6486 21.3444 27.6667ZM21.3444 24.1667C21.6538 24.1667 21.9506 24.0437 22.1694 23.8249C22.3882 23.6062 22.5111 23.3094 22.5111 23C22.5149 22.4496 22.7132 21.9184 23.0708 21.5C23.4285 21.0817 23.9225 20.8033 24.4655 20.7139C25.0086 20.6246 25.5658 20.7301 26.0386 21.0118C26.5114 21.2935 26.8694 21.7332 27.0494 22.2533C27.1178 22.4516 27.2385 22.6278 27.3986 22.7633C27.5588 22.8988 27.7525 22.9886 27.9594 23.0233C28.2294 23.0699 28.4743 23.21 28.6514 23.419C28.8284 23.628 28.9262 23.8927 28.9277 24.1667C28.9277 24.4761 28.8048 24.7728 28.586 24.9916C28.3672 25.2104 28.0705 25.3333 27.7611 25.3333H21.3444C21.1897 25.3333 21.0413 25.2719 20.9319 25.1625C20.8225 25.0531 20.7611 24.9047 20.7611 24.75C20.7611 24.5953 20.8225 24.4469 20.9319 24.3375C21.0413 24.2281 21.1897 24.1667 21.3444 24.1667ZM40.5944 34.6667H39.4277V26.5C39.4277 25.5717 39.059 24.6815 38.4026 24.0251C37.7462 23.3687 36.856 23 35.9277 23H34.7611C34.4516 23 34.1549 23.1229 33.9361 23.3417C33.7173 23.5605 33.5944 23.8572 33.5944 24.1667C33.5944 24.4761 33.7173 24.7728 33.9361 24.9916C34.1549 25.2104 34.4516 25.3333 34.7611 25.3333H35.9277C36.2372 25.3333 36.5339 25.4562 36.7527 25.675C36.9715 25.8938 37.0944 26.1906 37.0944 26.5V34.6667H23.0944V31.1667C23.0944 30.8572 22.9715 30.5605 22.7527 30.3417C22.5339 30.1229 22.2372 30 21.9277 30C21.6183 30 21.3216 30.1229 21.1028 30.3417C20.884 30.5605 20.7611 30.8572 20.7611 31.1667V34.6667H19.5944C19.285 34.6667 18.9882 34.7896 18.7694 35.0084C18.5507 35.2272 18.4277 35.5239 18.4277 35.8333V38.1667C18.4277 39.0949 18.7965 39.9852 19.4529 40.6415C20.1092 41.2979 20.9995 41.6667 21.9277 41.6667H38.2611C39.1893 41.6667 40.0796 41.2979 40.7359 40.6415C41.3923 39.9852 41.7611 39.0949 41.7611 38.1667V35.8333C41.7611 35.5239 41.6382 35.2272 41.4194 35.0084C41.2006 34.7896 40.9038 34.6667 40.5944 34.6667ZM39.4277 38.1667C39.4277 38.4761 39.3048 38.7728 39.086 38.9916C38.8672 39.2104 38.5705 39.3333 38.2611 39.3333H21.9277C21.6183 39.3333 21.3216 39.2104 21.1028 38.9916C20.884 38.7728 20.7611 38.4761 20.7611 38.1667V37H39.4277V38.1667Z" fill="#7CB798"/>
<rect x="1" y="1" width="58" height="58" rx="19" stroke="#EAF3EF" stroke-width="2"/>
</svg>
