<svg width="60" height="60" viewBox="0 0 60 60" fill="none" xmlns="http://www.w3.org/2000/svg">
<rect x="1" y="1" width="58" height="58" rx="19" fill="#E0E9FA"/>
<path d="M24.2604 34.6667C24.7245 34.6667 25.1697 34.4823 25.4979 34.1541C25.826 33.826 26.0104 33.3808 26.0104 32.9167C26.0161 32.8585 26.0161 32.7999 26.0104 32.7417L29.2654 29.4867H29.8021L31.6804 31.365V31.4584C31.6804 31.9225 31.8648 32.3676 32.193 32.6958C32.5212 33.024 32.9663 33.2084 33.4304 33.2084C33.8945 33.2084 34.3397 33.024 34.6679 32.6958C34.996 32.3676 35.1804 31.9225 35.1804 31.4584V31.365L39.4271 27.0834C39.7732 27.0834 40.1115 26.9807 40.3993 26.7884C40.6871 26.5962 40.9114 26.3228 41.0439 26.0031C41.1763 25.6833 41.211 25.3314 41.1435 24.992C41.0759 24.6525 40.9093 24.3407 40.6645 24.0959C40.4198 23.8512 40.108 23.6845 39.7685 23.617C39.429 23.5495 39.0772 23.5841 38.7574 23.7166C38.4376 23.849 38.1643 24.0733 37.972 24.3611C37.7797 24.6489 37.6771 24.9873 37.6771 25.3334C37.6714 25.3916 37.6714 25.4502 37.6771 25.5084L33.4654 29.72H33.2788L31.2604 27.6667C31.2604 27.2026 31.076 26.7575 30.7479 26.4293C30.4197 26.1011 29.9745 25.9167 29.5104 25.9167C29.0463 25.9167 28.6012 26.1011 28.273 26.4293C27.9448 26.7575 27.7604 27.2026 27.7604 27.6667L24.2604 31.1667C23.7963 31.1667 23.3512 31.3511 23.023 31.6793C22.6948 32.0075 22.5104 32.4526 22.5104 32.9167C22.5104 33.3808 22.6948 33.826 23.023 34.1541C23.3512 34.4823 23.7963 34.6667 24.2604 34.6667ZM40.0104 39.3334H20.1771V19.5C20.1771 19.1906 20.0542 18.8939 19.8354 18.6751C19.6166 18.4563 19.3198 18.3334 19.0104 18.3334C18.701 18.3334 18.4043 18.4563 18.1855 18.6751C17.9667 18.8939 17.8438 19.1906 17.8438 19.5V40.5C17.8438 40.8095 17.9667 41.1062 18.1855 41.325C18.4043 41.5438 18.701 41.6667 19.0104 41.6667H40.0104C40.3198 41.6667 40.6166 41.5438 40.8354 41.325C41.0542 41.1062 41.1771 40.8095 41.1771 40.5C41.1771 40.1906 41.0542 39.8939 40.8354 39.6751C40.6166 39.4563 40.3198 39.3334 40.0104 39.3334Z" fill="#3F78E0"/>
<rect x="1" y="1" width="58" height="58" rx="19" stroke="#E0E9FA" stroke-width="2"/>
</svg>
