<svg width="60" height="60" viewBox="0 0 60 60" fill="none" xmlns="http://www.w3.org/2000/svg">
<rect x="1" y="1" width="58" height="58" rx="19" fill="#FEF3E4"/>
<path d="M38.7387 31.1667C38.482 31.1667 38.2137 31.085 37.957 31.0267C37.4377 30.9106 36.927 30.7585 36.4287 30.5717C35.8875 30.3748 35.2925 30.385 34.7584 30.6004C34.2243 30.8158 33.7886 31.2211 33.5354 31.7384L33.2787 32.275C32.1457 31.6324 31.0989 30.8484 30.1637 29.9417C29.257 29.0065 28.473 27.9597 27.8304 26.8267L28.367 26.5817C28.8843 26.3284 29.2896 25.8928 29.505 25.3587C29.7204 24.8245 29.7306 24.2296 29.5337 23.6884C29.3484 23.1856 29.1964 22.6711 29.0787 22.1484C29.0204 21.8917 28.9737 21.6234 28.9387 21.3667C28.797 20.5449 28.3666 19.8007 27.7249 19.2682C27.0833 18.7356 26.2725 18.4496 25.4387 18.4617H21.927C21.4338 18.4611 20.946 18.5647 20.4957 18.7657C20.0453 18.9668 19.6425 19.2608 19.3137 19.6284C18.9781 20.006 18.7282 20.4517 18.5812 20.9351C18.4341 21.4184 18.3935 21.9278 18.462 22.4284C19.0962 27.2842 21.3148 31.7951 24.7737 35.2617C28.2403 38.7206 32.7512 40.9392 37.607 41.5734C37.7585 41.5849 37.9106 41.5849 38.062 41.5734C38.9224 41.5746 39.753 41.259 40.3954 40.6867C40.763 40.3579 41.057 39.9551 41.258 39.5047C41.4591 39.0544 41.5627 38.5666 41.562 38.0734V34.5734C41.5557 33.7673 41.2714 32.988 40.757 32.3673C40.2426 31.7466 39.5297 31.3225 38.7387 31.1667ZM39.3104 38.1667C39.31 38.3295 39.2755 38.4904 39.2092 38.6391C39.1429 38.7878 39.0462 38.921 38.9254 39.03C38.7975 39.1465 38.6453 39.2331 38.4799 39.2836C38.3144 39.334 38.1398 39.3471 37.9687 39.3217C33.615 38.7531 29.569 36.769 26.4537 33.675C23.3358 30.5571 21.3344 26.497 20.7604 22.125C20.735 21.9539 20.748 21.7793 20.7985 21.6139C20.8489 21.4484 20.9355 21.2962 21.052 21.1684C21.1624 21.0461 21.2975 20.9485 21.4483 20.8821C21.5991 20.8158 21.7623 20.7821 21.927 20.7834H25.427C25.6967 20.7768 25.9604 20.8639 26.1731 21.0298C26.3858 21.1957 26.5344 21.4302 26.5937 21.6934C26.5937 22.0084 26.6987 22.335 26.7687 22.65C26.9035 23.2612 27.0829 23.8617 27.3054 24.4467L25.672 25.2167C25.3913 25.3456 25.1731 25.5805 25.0654 25.87C24.9487 26.1541 24.9487 26.4727 25.0654 26.7567C26.7444 30.3533 29.6355 33.2443 33.232 34.9234C33.5161 35.0401 33.8347 35.0401 34.1187 34.9234C34.4082 34.8156 34.6432 34.5974 34.772 34.3167L35.507 32.6834C36.1089 32.9028 36.7247 33.0821 37.3504 33.22C37.6537 33.29 37.9804 33.3484 38.2954 33.395C38.5586 33.4543 38.7931 33.603 38.959 33.8157C39.1249 34.0284 39.212 34.292 39.2054 34.5617L39.3104 38.1667ZM32.427 18.3334H31.6104C31.301 18.3597 31.0147 18.5078 30.8145 18.7452C30.6143 18.9826 30.5166 19.2898 30.5429 19.5992C30.5692 19.9086 30.7173 20.1949 30.9547 20.3951C31.1921 20.5953 31.4993 20.693 31.8087 20.6667H32.427C34.2836 20.6667 36.064 21.4042 37.3768 22.717C38.6895 24.0297 39.427 25.8102 39.427 27.6667V28.285C39.4012 28.5928 39.4984 28.8983 39.6974 29.1345C39.8964 29.3707 40.181 29.5183 40.4887 29.545H40.582C40.8741 29.5462 41.156 29.4378 41.372 29.2413C41.588 29.0447 41.7224 28.7742 41.7487 28.4834V27.6667C41.7487 25.1934 40.767 22.8212 39.0192 21.0712C37.2713 19.3212 34.9004 18.3365 32.427 18.3334ZM34.7604 27.6667C34.7604 27.9761 34.8833 28.2729 35.1021 28.4917C35.3209 28.7105 35.6176 28.8334 35.927 28.8334C36.2365 28.8334 36.5332 28.7105 36.752 28.4917C36.9708 28.2729 37.0937 27.9761 37.0937 27.6667C37.0937 26.429 36.602 25.242 35.7269 24.3669C34.8517 23.4917 33.6647 23 32.427 23C32.1176 23 31.8209 23.123 31.6021 23.3417C31.3833 23.5605 31.2604 23.8573 31.2604 24.1667C31.2604 24.4761 31.3833 24.7729 31.6021 24.9917C31.8209 25.2105 32.1176 25.3334 32.427 25.3334C33.0459 25.3334 33.6394 25.5792 34.077 26.0168C34.5145 26.4544 34.7604 27.0479 34.7604 27.6667Z" fill="#FAB758"/>
<rect x="1" y="1" width="58" height="58" rx="19" stroke="#FEF3E4" stroke-width="2"/>
</svg>
