<svg width="41" height="40" viewBox="0 0 41 40" fill="none" xmlns="http://www.w3.org/2000/svg">
<g clip-path="url(#clip0_2126_6449)">
<path d="M35.5 0H5.5C2.73858 0 0.5 2.23858 0.5 5V35C0.5 37.7614 2.73858 40 5.5 40H35.5C38.2614 40 40.5 37.7614 40.5 35V5C40.5 2.23858 38.2614 0 35.5 0Z" fill="#22282F"/>
<mask id="mask0_2126_6449" style="mask-type:luminance" maskUnits="userSpaceOnUse" x="11" y="9" width="19" height="23">
<path d="M29.7297 19.6131L23.5386 25.8065L29.7297 31.9998H22.6551L16.4617 25.8065L22.6551 19.6131H29.7297ZM22.6551 9L11.1562 20.4988L14.6947 24.0372L29.7297 9H22.6551Z" fill="white"/>
</mask>
<g mask="url(#mask0_2126_6449)">
<path d="M16.4648 25.8065L20.0011 29.345L29.7307 19.6132H22.656L16.4648 25.8065Z" fill="#39CEFD"/>
</g>
<mask id="mask1_2126_6449" style="mask-type:luminance" maskUnits="userSpaceOnUse" x="11" y="9" width="19" height="23">
<path d="M29.7297 19.6131L23.5386 25.8065L29.7297 31.9998H22.6551L16.4617 25.8065L22.6551 19.6131H29.7297ZM22.6551 9L11.1562 20.4988L14.6947 24.0372L29.7297 9H22.6551Z" fill="white"/>
</mask>
<g mask="url(#mask1_2126_6449)">
<path d="M22.6551 9H29.7297L14.6947 24.0372L11.1562 20.4988L22.6551 9Z" fill="#39CEFD"/>
</g>
<mask id="mask2_2126_6449" style="mask-type:luminance" maskUnits="userSpaceOnUse" x="11" y="9" width="19" height="23">
<path d="M29.7297 19.6131L23.5386 25.8065L29.7297 31.9998H22.6551L16.4617 25.8065L22.6551 19.6131H29.7297ZM22.6551 9L11.1562 20.4988L14.6947 24.0372L29.7297 9H22.6551Z" fill="white"/>
</mask>
<g mask="url(#mask2_2126_6449)">
<path d="M20 29.3448L22.6549 31.9975H29.7296L23.5384 25.8064L20 29.3448Z" fill="#03569B"/>
</g>
<mask id="mask3_2126_6449" style="mask-type:luminance" maskUnits="userSpaceOnUse" x="11" y="9" width="19" height="23">
<path d="M29.7297 19.6131L23.5386 25.8065L29.7297 31.9998H22.6551L16.4617 25.8065L22.6551 19.6131H29.7297ZM22.6551 9L11.1562 20.4988L14.6947 24.0372L29.7297 9H22.6551Z" fill="white"/>
</mask>
<g mask="url(#mask3_2126_6449)">
<path d="M25.2479 27.5269L23.5384 25.8064L20 29.3448L25.2479 27.5269Z" fill="url(#paint0_linear_2126_6449)"/>
</g>
<mask id="mask4_2126_6449" style="mask-type:luminance" maskUnits="userSpaceOnUse" x="11" y="9" width="19" height="23">
<path d="M29.7297 19.6131L23.5386 25.8065L29.7297 31.9998H22.6551L16.4617 25.8065L22.6551 19.6131H29.7297ZM22.6551 9L11.1562 20.4988L14.6947 24.0372L29.7297 9H22.6551Z" fill="white"/>
</mask>
<g mask="url(#mask4_2126_6449)">
<path d="M16.4629 25.8054L20.0014 22.2668L23.5402 25.8054L20.0014 29.3439L16.4629 25.8054Z" fill="#16B9FD"/>
</g>
<path d="M29.7297 19.6131L23.5386 25.8065L29.7297 31.9998H22.6551L16.4617 25.8065L22.6551 19.6131H29.7297ZM22.6551 9L11.1562 20.4988L14.6947 24.0372L29.7297 9H22.6551Z" fill="url(#paint1_radial_2126_6449)"/>
</g>
<defs>
<linearGradient id="paint0_linear_2126_6449" x1="21.0326" y1="30.0277" x2="23.668" y2="27.3924" gradientUnits="userSpaceOnUse">
<stop stop-color="#1A237E" stop-opacity="0.4"/>
<stop offset="1" stop-color="#1A237E" stop-opacity="0"/>
</linearGradient>
<radialGradient id="paint1_radial_2126_6449" cx="0" cy="0" r="1" gradientUnits="userSpaceOnUse" gradientTransform="translate(11.678 10.5676) scale(28.1375 28.1375)">
<stop stop-color="white" stop-opacity="0.1"/>
<stop offset="1" stop-color="white" stop-opacity="0"/>
</radialGradient>
<clipPath id="clip0_2126_6449">
<rect width="40" height="40" fill="white" transform="translate(0.5)"/>
</clipPath>
</defs>
</svg>
