<svg width="47" height="46" viewBox="0 0 47 46" fill="none" xmlns="http://www.w3.org/2000/svg">
<path d="M42.4574 42.8914H5.0375C2.67461 42.8914 0.751953 40.9687 0.751953 38.6058V7.39413C0.751953 5.03124 2.67461 3.10858 5.0375 3.10858H42.4574C44.8293 3.10858 46.752 5.03124 46.752 7.39413C46.752 8.07694 46.1949 8.63397 45.5121 8.64296C44.8293 8.64296 44.2723 8.08593 44.2633 7.40311C44.2633 6.40585 43.4547 5.60624 42.4574 5.59725H5.0375C4.04023 5.59725 3.24063 6.40585 3.23164 7.40311V38.6058C3.23164 39.6031 4.04023 40.4117 5.0375 40.4117H42.4574C43.4547 40.4117 44.2633 39.6031 44.2633 38.6058V21.9219C44.2633 21.239 44.8203 20.682 45.5031 20.673C46.1859 20.673 46.743 21.2301 46.752 21.9129V38.5969C46.752 40.9687 44.8293 42.8914 42.4574 42.8914Z" fill="#FF4D57"/>
<path d="M1.99219 7.39415V13.6742H45.5035V7.39415C45.5035 5.71407 44.1379 4.34845 42.4578 4.34845H5.03789C3.35781 4.34845 1.99219 5.71407 1.99219 7.39415Z" fill="#FFADB3"/>
<path d="M45.5121 14.923H1.9918C1.30898 14.923 0.751953 14.366 0.751953 13.6832V7.39413C0.751953 5.03124 2.67461 3.10858 5.0375 3.10858H42.4574C44.8293 3.10858 46.752 5.03124 46.752 7.39413V13.6742C46.752 14.366 46.1949 14.923 45.5121 14.923ZM3.24063 12.4344H44.2633V7.40311C44.2633 6.40585 43.4547 5.59725 42.4574 5.59725H5.04648C4.04922 5.59725 3.24961 6.40585 3.24063 7.39413V12.4344Z" fill="#FF4D57"/>
<path d="M27.2277 10.2601H24.8648C24.182 10.2601 23.625 9.70311 23.625 9.0203C23.625 8.33749 24.182 7.78046 24.8648 7.78046H27.2277C27.9105 7.78046 28.4676 8.33749 28.4676 9.0203C28.4766 9.70311 27.9195 10.2601 27.2277 10.2601ZM33.8223 10.2601H31.4594C30.7766 10.2601 30.2195 9.70311 30.2195 9.0203C30.2195 8.33749 30.7766 7.78046 31.4594 7.78046H33.8223C34.5051 7.78046 35.0621 8.33749 35.0621 9.0203C35.0621 9.70311 34.5051 10.2601 33.8223 10.2601ZM40.4078 10.2601H38.0449C37.3621 10.2601 36.8051 9.70311 36.8051 9.0203C36.8051 8.33749 37.3621 7.78046 38.0449 7.78046H40.4078C41.0906 7.78046 41.6477 8.33749 41.6477 9.0203C41.6566 9.70311 41.0996 10.2601 40.4078 10.2601Z" fill="#FF4D57"/>
<path d="M10.8867 27.2316H36.618V32.9457H10.8867V27.2316Z" fill="#FFADB3"/>
<path d="M36.6176 34.1856H10.8863C10.2035 34.1856 9.64648 33.6285 9.64648 32.9457V27.2227C9.64648 26.5399 10.2035 25.9828 10.8863 25.9828H36.6176C37.3004 25.9828 37.8574 26.5399 37.8574 27.2227V32.9457C37.8664 33.6285 37.3094 34.1856 36.6176 34.1856ZM12.1262 31.7059H35.3777V28.4715H12.1262V31.7059ZM32.8711 23.1258H14.6328C13.95 23.1438 13.375 22.6047 13.357 21.9129C13.3391 21.2211 13.8781 20.6551 14.5699 20.6371H32.8801C33.5629 20.6192 34.1379 21.1582 34.1559 21.85C34.1738 22.5418 33.6348 23.1078 32.943 23.1258H32.8711Z" fill="#FF4D57"/>
</svg>
