<svg width="52" height="52" viewBox="0 0 52 52" fill="none" xmlns="http://www.w3.org/2000/svg">
<path d="M11.2861 43.5322C10.9814 43.748 10.5498 43.6719 10.334 43.3672C10.2578 43.2529 10.207 43.1133 10.207 42.9736V33.1855L18.9541 23.3848V19.043L7.95996 31.3701C7.55371 31.8271 7.3252 32.4111 7.3252 33.0205V42.9736C7.3252 44.9414 8.9248 46.541 10.8926 46.541C11.6289 46.541 12.3525 46.3125 12.9492 45.8936L14.168 45.0303L12.5049 42.6689L11.2861 43.5322ZM44.0527 31.3701L32.8047 18.7891V23.1309L41.793 33.1982V42.9863C41.793 43.3672 41.4883 43.6719 41.1074 43.6719C40.9678 43.6719 40.8281 43.6338 40.7139 43.5449L39.4951 42.6943L37.832 45.0557L39.0508 45.9062C40.6631 47.0361 42.8975 46.6553 44.0273 45.0303C44.4463 44.4336 44.6748 43.71 44.6748 42.9863V33.0332C44.6748 32.4238 44.4463 31.8271 44.0527 31.3701ZM26 52L25.2256 51.5049C24.9717 51.3398 18.9668 47.4424 18.9668 42.3008C18.9668 37.2227 21.9248 33.084 25.708 32.8809C25.8096 32.8809 25.9111 32.8682 26 32.8682C26.5205 32.8682 27.0283 32.9443 27.5361 33.084C28.6914 33.4268 29.7705 34.1504 30.6592 35.1914C32.1699 36.9688 33.0332 39.5586 33.0332 42.2881C33.0332 47.4297 27.041 51.3271 26.7744 51.4922L26 52ZM26 35.7627H25.873C23.6514 35.877 21.8486 38.8096 21.8486 42.3008C21.8486 44.7891 24.375 47.2646 25.9873 48.5088C27.5996 47.2646 30.126 44.7891 30.126 42.3008C30.126 40.2441 29.5039 38.3398 28.4375 37.083C27.917 36.4736 27.3203 36.0547 26.7109 35.877C26.4824 35.8008 26.2412 35.7627 26 35.7627Z" fill="#4D8593"/>
<path d="M26 1.44727C24.3369 1.44727 13.7617 10.5117 13.7617 19.6523C13.7617 22.7627 17.4814 42.3008 17.4814 42.3008H34.5059C34.5059 42.3008 38.2256 22.7627 38.2256 19.6523C38.2383 10.4609 27.5742 1.44727 26 1.44727ZM32.3223 21.6582C32.1953 22.2803 31.9795 22.877 31.6748 23.4355C31.5732 23.6133 31.4717 23.791 31.3574 23.9688C30.8877 24.6543 30.3037 25.251 29.6182 25.708C29.4531 25.8223 29.2754 25.9365 29.085 26.0254C25.9492 27.7266 22.0264 26.5586 20.3379 23.4229C18.6494 20.2871 19.8047 16.3643 22.9404 14.6758C23.8799 14.168 24.9463 13.8887 26.0254 13.9014C26.457 13.9014 26.9014 13.9395 27.3203 14.0283C27.9424 14.1553 28.5391 14.3711 29.0977 14.6758C30.0117 15.1709 30.7988 15.8818 31.3701 16.7451C32.0938 17.8115 32.4746 19.0684 32.4746 20.3506C32.4619 20.7949 32.4238 21.2266 32.3223 21.6582Z" fill="#BAD0D5"/>
<path d="M26 28.2598C21.6328 28.2598 18.1035 24.7051 18.1035 20.3506C18.1035 15.9834 21.6582 12.4541 26.0127 12.4541C27.3203 12.4541 28.6025 12.7842 29.7578 13.4062C30.0879 13.584 30.418 13.7998 30.7227 14.0283C33.8711 16.377 34.8105 20.6807 32.9443 24.1338C32.8174 24.3623 32.6904 24.5781 32.5508 24.7812C31.9795 25.6191 31.2559 26.3428 30.418 26.9141C30.2148 27.0537 29.9863 27.1934 29.7705 27.3076C28.6152 27.9297 27.3203 28.2598 26 28.2598ZM26 15.3486C23.2324 15.3105 20.96 17.5068 20.9092 20.2744C20.8584 23.042 23.0674 25.3145 25.835 25.3652H26C26.3428 25.3652 26.6855 25.3271 27.0156 25.2637C27.498 25.1621 27.9551 24.9971 28.3867 24.7559C28.5264 24.6797 28.666 24.5908 28.793 24.502C29.3262 24.1465 29.7832 23.6768 30.1514 23.1436C30.2402 23.0039 30.3291 22.877 30.4053 22.7246C30.6465 22.293 30.8115 21.8359 30.9131 21.3535C30.9766 21.0234 31.0146 20.6807 31.0146 20.3379C31.0146 18.751 30.2656 17.2656 28.9961 16.3262C28.8057 16.1865 28.6025 16.0469 28.3867 15.9326C27.9551 15.6914 27.498 15.5264 27.0156 15.4248C26.6855 15.3613 26.3428 15.3232 26 15.3232V15.3486Z" fill="#4D8593"/>
<path d="M18.6875 40.8535H33.3125C34.4551 34.7725 36.791 21.9248 36.791 19.6523C36.791 11.6543 27.9678 3.92285 26 2.95801C25.1494 3.37695 22.5977 5.29395 20.0586 8.44238C16.9355 12.3018 15.209 16.2881 15.209 19.665C15.209 21.9375 17.5449 34.7852 18.6875 40.8535ZM35.7119 43.748H16.3008L16.0723 42.5674C15.6914 40.5488 12.3271 22.8008 12.3271 19.6396C12.3271 14.2822 15.501 9.36914 18.1543 6.18262C20.1602 3.7959 24.0576 0 26 0C27.9043 0 31.8018 3.7832 33.8076 6.16992C36.4863 9.35645 39.6729 14.2695 39.6729 19.6523C39.6729 22.8135 36.3086 40.5615 35.9277 42.5801L35.7119 43.748Z" fill="#4D8593"/>
</svg>
