<svg width="46" height="46" viewBox="0 0 46 46" fill="none" xmlns="http://www.w3.org/2000/svg">
<path d="M38.2412 36.6619L6.52639 36.617C3.68508 36.5945 1.19192 34.7303 0.372093 32.0237L-0.0658948 30.575C-0.863258 27.8572 0.214867 24.9261 2.57327 23.365L29.1109 5.99149C29.751 5.57596 30.6045 5.75565 31.02 6.39578C31.0987 6.50809 31.1548 6.63162 31.1885 6.75516L39.5327 34.8089C39.8023 35.5276 39.4317 36.325 38.7129 36.5833C38.5669 36.6394 38.3985 36.6619 38.2412 36.6619ZM29.0772 9.31571L4.08938 25.6673C2.74172 26.5545 2.13528 28.2278 2.5845 29.7776L3.01125 31.2264C3.48293 32.7762 4.89797 33.8431 6.51516 33.8543L36.3657 33.8992L29.0772 9.31571Z" fill="#045DFF"/>
<path d="M15.1738 43.3552C10.6367 43.3552 6.99805 39.8626 6.9082 35.4041C6.9082 34.6404 7.52588 34.0227 8.28955 34.0227C9.03076 34.0227 9.64844 34.6067 9.6709 35.3479C9.73828 38.2903 12.1528 40.5925 15.1738 40.5925C16.7686 40.5925 18.2847 39.8962 19.3291 38.6946C19.8345 38.1218 20.6992 38.0544 21.2832 38.5598C21.856 39.0652 21.9233 39.9299 21.418 40.5139C19.8457 42.322 17.5659 43.3552 15.1738 43.3552Z" fill="#045DFF"/>
<path d="M20.2734 13.426L26.7646 35.2693L38.231 35.2805L29.8643 7.14819L20.2734 13.426Z" fill="#92B8FF"/>
<path d="M38.2404 36.6619L26.7741 36.6507C26.1676 36.6507 25.6286 36.2464 25.4489 35.6624L18.9464 13.8191C18.7667 13.2351 19.0026 12.6062 19.5192 12.2693L29.11 5.99149C29.7501 5.57596 30.6037 5.75565 31.0192 6.39578C31.0978 6.50809 31.154 6.63162 31.1876 6.75516L39.5543 34.8987C39.7677 35.6287 39.3522 36.4036 38.6222 36.617C38.4987 36.6394 38.3639 36.6619 38.2404 36.6619ZM27.8073 33.888L36.3874 33.8992L29.0763 9.31571L21.9 14.01L27.8073 33.888Z" fill="#045DFF"/>
<path d="M39.1848 39.7727C38.5783 39.7727 38.0393 39.3684 37.8596 38.7844L27.6399 4.41918C27.404 3.6892 27.7858 2.9143 28.5158 2.66723C29.2458 2.43139 30.0207 2.81322 30.2678 3.5432C30.279 3.57689 30.2902 3.59936 30.2902 3.63305L40.51 37.987C40.7233 38.717 40.3078 39.4919 39.5778 39.7053C39.4543 39.7502 39.3195 39.7727 39.1848 39.7727ZM37.635 12.9431C36.8713 12.9431 36.2536 12.3254 36.2536 11.5618C36.2536 11.3596 36.2985 11.1575 36.3884 10.9665L37.8933 7.76586C38.219 7.06957 39.0388 6.77758 39.7351 7.10326C40.4314 7.42894 40.7233 8.24877 40.3977 8.94506L38.8928 12.1457C38.6569 12.6287 38.174 12.9431 37.635 12.9431ZM40.802 20.2317C40.0383 20.2317 39.4206 19.614 39.4206 18.8503C39.4206 18.2102 39.8586 17.6599 40.4763 17.5027L43.969 16.6604C44.7102 16.4919 45.4514 16.9524 45.6198 17.7048C45.7883 18.4348 45.3391 19.1648 44.6091 19.3557L41.1052 20.1868C41.0153 20.2204 40.903 20.2317 40.802 20.2317ZM44.07 30.3391C43.7668 30.3391 43.4636 30.238 43.2277 30.0471L40.4314 27.8684C39.8249 27.3967 39.7238 26.532 40.1843 25.9255C40.6447 25.3191 41.5207 25.218 42.1272 25.6785L44.9235 27.8572C45.53 28.3288 45.6311 29.1936 45.1594 29.8C44.9011 30.137 44.4968 30.3279 44.07 30.3391Z" fill="#045DFF"/>
</svg>
