<svg width="46" height="46" viewBox="0 0 46 46" fill="none" xmlns="http://www.w3.org/2000/svg">
<g clip-path="url(#clip0_2172_6644)">
<path d="M40.7305 0H14.3757C12.9782 0.000951949 11.6383 0.556513 10.6501 1.54467C9.66198 2.53282 9.10642 3.87277 9.10547 5.27023V7.66547H12.9382V6.22797C12.9387 5.59286 13.1912 4.9839 13.6403 4.53481C14.0894 4.08572 14.6983 3.83321 15.3334 3.83273H39.7709C40.406 3.83321 41.015 4.08572 41.4641 4.53481C41.9132 4.9839 42.1657 5.59286 42.1662 6.22797V39.7702C42.1652 40.4052 41.9126 41.0139 41.4636 41.4629C41.0146 41.9119 40.4059 42.1645 39.7709 42.1655H24.9036C24.8828 43.5129 24.5185 44.8327 23.8452 46H40.7359C42.1327 45.9986 43.4718 45.4427 44.459 44.4545C45.4462 43.4663 46.0007 42.1266 46.0007 40.7298V5.27023C45.9997 3.87277 45.4442 2.53282 44.456 1.54467C43.4679 0.556513 42.1279 0.000951949 40.7305 0Z" fill="#993FE0"/>
<path d="M17.4602 11.5H3.6243C1.61719 11.5 0 13.2735 0 15.4531V42.0469C0 44.2265 1.61719 46 3.6225 46H17.4584C19.4566 46 21.0809 44.2265 21.0809 42.0469V15.4531C21.0827 13.2735 19.4584 11.5 17.4602 11.5ZM18.4485 41.6875C18.4485 42.4817 17.8591 43.125 17.1314 43.125H3.95312C3.22539 43.125 2.63602 42.4817 2.63602 41.6875V15.3327C2.63602 14.5385 3.22539 13.8952 3.95312 13.8952H4.61078C5.33852 13.8952 5.92789 14.5385 5.92789 15.3327C5.92789 16.127 6.51727 16.7702 7.245 16.7702H13.8359C14.5637 16.7702 15.153 16.1252 15.153 15.3327C15.153 14.5403 15.7424 13.8952 16.4702 13.8952H17.1278C17.8466 13.8952 18.4449 14.5385 18.4449 15.3327V41.6875H18.4485Z" fill="#D1ADFF"/>
<path d="M27.7917 33.5423C27.318 33.5423 26.8549 33.6827 26.461 33.9459C26.0671 34.2091 25.7601 34.5832 25.5788 35.0209C25.3975 35.4586 25.3501 35.9402 25.4425 36.4048C25.5349 36.8694 25.7631 37.2962 26.098 37.6312C26.433 37.9662 26.8598 38.1943 27.3244 38.2867C27.7891 38.3791 28.2707 38.3317 28.7083 38.1504C29.146 37.9691 29.5201 37.6621 29.7833 37.2682C30.0465 36.8743 30.187 36.4112 30.187 35.9375C30.186 35.3025 29.9333 34.6939 29.4844 34.2449C29.0354 33.7959 28.4267 33.5432 27.7917 33.5423Z" fill="#993FE0"/>
</g>
<defs>
<clipPath id="clip0_2172_6644">
<rect width="46" height="46" fill="white"/>
</clipPath>
</defs>
</svg>
