<svg width="36" height="36" viewBox="0 0 36 36" fill="none" xmlns="http://www.w3.org/2000/svg">
<path d="M18 5.18344C17.7016 5.18344 17.4155 5.06491 17.2045 4.85393C16.9935 4.64295 16.875 4.35681 16.875 4.05844V1.125C16.875 0.826631 16.9935 0.540483 17.2045 0.329505C17.4155 0.118526 17.7016 0 18 0C18.2984 0 18.5845 0.118526 18.7955 0.329505C19.0065 0.540483 19.125 0.826631 19.125 1.125V4.05844C19.125 4.35681 19.0065 4.64295 18.7955 4.85393C18.5845 5.06491 18.2984 5.18344 18 5.18344ZM27.8578 9.26719C27.6356 9.26709 27.4185 9.2012 27.2337 9.07784C27.0489 8.95448 26.9048 8.77917 26.8195 8.57401C26.7342 8.36886 26.7116 8.14304 26.7545 7.92505C26.7974 7.70705 26.9038 7.50663 27.0605 7.34906L29.1375 5.27203C29.2409 5.16317 29.3651 5.07611 29.5027 5.01599C29.6403 4.95588 29.7885 4.92391 29.9387 4.92199C30.0888 4.92007 30.2379 4.94823 30.377 5.0048C30.5161 5.06138 30.6424 5.14522 30.7486 5.2514C30.8548 5.35758 30.9386 5.48395 30.9952 5.62304C31.0518 5.76214 31.0799 5.91115 31.078 6.0613C31.0761 6.21145 31.0441 6.3597 30.984 6.4973C30.9239 6.6349 30.8368 6.75907 30.728 6.8625L28.6509 8.93953C28.4402 9.14925 28.1551 9.26705 27.8578 9.26719ZM34.875 19.125H31.9416C31.6432 19.125 31.357 19.0065 31.1461 18.7955C30.9351 18.5845 30.8166 18.2984 30.8166 18C30.8166 17.7016 30.9351 17.4155 31.1461 17.2045C31.357 16.9935 31.6432 16.875 31.9416 16.875H34.875C35.1734 16.875 35.4595 16.9935 35.6705 17.2045C35.8815 17.4155 36 17.7016 36 18C36 18.2984 35.8815 18.5845 35.6705 18.7955C35.4595 19.0065 35.1734 19.125 34.875 19.125ZM29.932 31.057C29.6333 31.0567 29.3467 30.9385 29.1347 30.728L27.0591 28.6509C26.857 28.4382 26.746 28.155 26.7498 27.8617C26.7535 27.5683 26.8717 27.288 27.0792 27.0806C27.2866 26.8731 27.5669 26.7549 27.8603 26.7512C28.1536 26.7474 28.4368 26.8584 28.6495 27.0605L30.7266 29.1375C30.9374 29.3485 31.0558 29.6345 31.0558 29.9327C31.0558 30.231 30.9374 30.517 30.7266 30.728C30.6225 30.8327 30.4987 30.9158 30.3623 30.9723C30.2259 31.0288 30.0797 31.0576 29.932 31.057ZM6.06797 31.057C5.84563 31.0569 5.6283 30.9909 5.44343 30.8674C5.25856 30.7439 5.11445 30.5683 5.02929 30.3629C4.94412 30.1576 4.92173 29.9315 4.96493 29.7134C5.00814 29.4953 5.115 29.2949 5.27203 29.1375L7.34906 27.0605C7.56176 26.8584 7.84498 26.7474 8.13833 26.7512C8.43169 26.7549 8.71197 26.8731 8.91943 27.0806C9.12688 27.288 9.24508 27.5683 9.24884 27.8617C9.25259 28.155 9.1416 28.4382 8.93953 28.6509L6.8625 30.728C6.75844 30.8327 6.63462 30.9157 6.49823 30.9722C6.36184 31.0287 6.21559 31.0575 6.06797 31.057ZM4.05844 19.125H1.125C0.826631 19.125 0.540483 19.0065 0.329505 18.7955C0.118526 18.5845 0 18.2984 0 18C0 17.7016 0.118526 17.4155 0.329505 17.2045C0.540483 16.9935 0.826631 16.875 1.125 16.875H4.05844C4.35681 16.875 4.64295 16.9935 4.85393 17.2045C5.06491 17.4155 5.18344 17.7016 5.18344 18C5.18344 18.2984 5.06491 18.5845 4.85393 18.7955C4.64295 19.0065 4.35681 19.125 4.05844 19.125ZM8.14219 9.26719C7.84393 9.2678 7.55764 9.14994 7.34625 8.93953L5.26922 6.8625C5.16036 6.75907 5.0733 6.6349 5.01318 6.4973C4.95306 6.3597 4.9211 6.21145 4.91918 6.0613C4.91726 5.91115 4.94541 5.76214 5.00199 5.62304C5.05856 5.48395 5.14241 5.35758 5.24859 5.2514C5.35477 5.14522 5.48113 5.06138 5.62023 5.0048C5.75933 4.94823 5.90834 4.92007 6.05849 4.92199C6.20864 4.92391 6.35688 4.95588 6.49448 5.01599C6.63209 5.07611 6.75626 5.16317 6.85969 5.27203L8.93672 7.34906C9.09318 7.50646 9.1996 7.70662 9.24257 7.92436C9.28555 8.14209 9.26316 8.36768 9.17823 8.57272C9.09329 8.77776 8.94961 8.9531 8.76526 9.07667C8.58091 9.20025 8.36412 9.26653 8.14219 9.26719Z" fill="#F8D2E8"/>
<path d="M22.5 31.5V33.3745C22.4967 34.0698 22.219 34.7357 21.7274 35.2273C21.2357 35.719 20.5698 35.9967 19.8746 36H16.1241C14.8585 36 13.5 35.0395 13.5 32.94V31.5H22.5ZM24.6094 9.84375C23.3845 8.85195 21.9526 8.14758 20.4194 7.78251C18.8861 7.41745 17.2905 7.401 15.75 7.73438C11.7746 8.56547 8.55002 11.8125 7.72456 15.7795C7.30392 17.7408 7.45326 19.7814 8.15496 21.6605C8.85665 23.5395 10.0814 25.1786 11.6846 26.3841C12.5988 27.0867 13.2104 28.1118 13.3946 29.25V29.2669C13.4283 29.2546 13.4641 29.2488 13.5 29.25H22.5C22.5259 29.2477 22.5518 29.253 22.5746 29.2655V29.25C22.7841 28.1095 23.4591 27.0605 24.4941 26.2505C25.731 25.2747 26.7326 24.0333 27.4249 22.6181C28.1171 21.2029 28.4823 19.6502 28.4934 18.0748C28.5045 16.4994 28.1611 14.9417 27.4888 13.5169C26.8165 12.0922 25.8324 10.8368 24.6094 9.84375ZM23.625 18.7538C23.3273 18.7515 23.0425 18.6323 22.832 18.4218C22.6215 18.2113 22.5022 17.9264 22.5 17.6288C22.5008 17.0867 22.3946 16.5498 22.1877 16.0488C21.9807 15.5479 21.677 15.0926 21.2939 14.7091C20.9108 14.3256 20.4558 14.0215 19.9551 13.814C19.4543 13.6065 18.9175 13.4998 18.3755 13.5C18.0771 13.5 17.791 13.3815 17.58 13.1705C17.369 12.9595 17.2505 12.6734 17.2505 12.375C17.2505 12.0766 17.369 11.7905 17.58 11.5795C17.791 11.3685 18.0771 11.25 18.3755 11.25C20.065 11.2537 21.6842 11.9265 22.8789 13.1212C24.0735 14.3158 24.7463 15.935 24.75 17.6245C24.7478 17.9222 24.6286 18.2071 24.4181 18.4176C24.2076 18.6281 23.9227 18.7473 23.625 18.7495V18.7538Z" fill="#E668B3"/>
<path d="M13.3945 29.25H13.5C13.4641 29.2476 13.4282 29.2529 13.3945 29.2655V29.25Z" fill="#F8D2E8"/>
<path d="M22.5745 29.25V29.2655C22.5518 29.253 22.5258 29.2476 22.5 29.25H22.5745Z" fill="#E668B3"/>
</svg>
