<svg width="26" height="33" viewBox="0 0 26 33" fill="none" xmlns="http://www.w3.org/2000/svg">
<g clip-path="url(#clip0_2642_11947)">
<path d="M7.78556 1.06494V6.27913C7.78556 7.03642 7.17027 7.64382 6.42088 7.64382H1.08047C1.00158 7.64382 0.938477 7.58071 0.938477 7.50183V7.48605C1.02525 6.76821 1.35656 6.10559 1.86141 5.60074L5.5926 1.86955C6.1369 1.32525 6.85474 0.99394 7.6278 0.930834C7.70668 0.922945 7.77767 0.978164 7.78556 1.05705V1.06494Z" fill="#CBD7E8"/>
<path d="M6.413 8.55096H1.08048C0.496738 8.55096 0.0234375 8.07766 0.0234375 7.49392C0.0234375 7.44659 0.0234375 7.40715 0.0313258 7.35982C0.149651 6.44477 0.559845 5.59283 1.21458 4.9381L4.94577 1.20691C5.63994 0.512736 6.56288 0.0788765 7.54892 -7.03847e-06C8.13266 -0.0473371 8.63751 0.386522 8.68484 0.962372V6.26334C8.69273 7.53337 7.67514 8.55096 6.413 8.55096ZM2.12963 6.72875H6.413C6.66543 6.72875 6.87052 6.52366 6.87052 6.27123V2.05885C6.63387 2.16929 6.42089 2.32706 6.23946 2.50849L2.50827 6.23968C2.35839 6.38167 2.23218 6.54732 2.12963 6.72875ZM20.5174 7.46237H13.9385C13.4336 7.44659 13.0392 7.02851 13.055 6.52366C13.0708 6.04247 13.4573 5.65594 13.9385 5.64016H20.5174C21.0222 5.62439 21.4403 6.0188 21.4561 6.52366C21.4719 7.02851 21.0774 7.44659 20.5726 7.46237H20.5174ZM20.5174 12.6292H5.48217C4.97732 12.645 4.55924 12.2506 4.54346 11.7457C4.52768 11.2409 4.9221 10.8228 5.42696 10.807H20.5174C21.0222 10.7913 21.4403 11.1857 21.4561 11.6905C21.4719 12.1954 21.0774 12.6135 20.5726 12.6292H20.5174ZM12.0611 17.7961H5.48217C4.97732 17.8119 4.55924 17.4175 4.54346 16.9126C4.52768 16.4078 4.9221 15.9897 5.42696 15.9739H12.0611C12.5659 15.9897 12.9603 16.4078 12.9446 16.9126C12.9288 17.3938 12.5422 17.7803 12.0611 17.7961ZM21.1327 32.3107C20.9118 32.3107 20.6909 32.2555 20.5016 32.1371L18.6399 31.0406L16.7783 32.1371C16.1867 32.4842 15.4294 32.2791 15.0902 31.6954C14.9797 31.5061 14.9245 31.2931 14.9245 31.0722V28.1535C14.9088 27.6487 15.3032 27.2306 15.808 27.2148C16.3129 27.199 16.731 27.5934 16.7467 28.0983V30.0467L18.0247 29.2973C18.4112 29.0686 18.8924 29.0686 19.2789 29.2973L20.5568 30.0467V22.5212C20.5726 22.0164 20.9907 21.622 21.4955 21.6377C21.9767 21.6535 22.3632 22.04 22.379 22.5212V31.0722C22.3711 31.7585 21.8111 32.3107 21.1327 32.3107Z" fill="#7C95C5"/>
<path d="M22.3792 26.3076H21.4563C20.9515 26.2919 20.557 25.8738 20.5728 25.3689C20.5886 24.8877 20.9751 24.5012 21.4563 24.4854H22.3792C23.3732 24.4854 24.1699 23.6808 24.1778 22.6948V3.62075C24.1778 2.62682 23.3732 1.82221 22.3792 1.82221H7.80947C7.21784 1.83799 6.65777 2.08252 6.24757 2.50061L2.50849 6.23968C2.11408 6.6341 1.87743 7.15473 1.8301 7.71481C1.8301 7.77791 1.82221 7.83313 1.82221 7.88835V22.6948C1.82221 23.6887 2.62682 24.4933 3.62075 24.4933H12.0613C12.5661 24.4933 12.9763 24.9035 12.9763 25.4084C12.9763 25.9132 12.5661 26.3155 12.0613 26.3155H3.62075C1.625 26.3076 0 24.6905 0 22.6948V7.88835C0 7.7858 0.00788835 7.68325 0.0157767 7.5807C0.0867718 6.58677 0.520631 5.65595 1.22269 4.95388L4.95388 1.22269C5.69539 0.465413 6.69721 0.0315534 7.75425 0H22.3792C24.375 0 26 1.61711 26 3.62075V22.6948C26 24.6905 24.375 26.3076 22.3792 26.3076Z" fill="#7C95C5"/>
<path d="M22.395 21.5825C22.395 23.6572 20.7147 25.3374 18.6401 25.3374C16.5655 25.3374 14.8853 23.6572 14.8853 21.5825C14.8853 19.5079 16.5655 17.8277 18.6401 17.8277C20.7147 17.8198 22.395 19.5079 22.395 21.5825Z" fill="#CBD7E8"/>
<path d="M18.6401 26.2524C16.0606 26.2524 13.9702 24.162 13.9702 21.5825C13.9702 19.003 16.0606 16.9126 18.6401 16.9126C21.2196 16.9126 23.31 19.003 23.31 21.5825C23.3021 24.162 21.2117 26.2445 18.6401 26.2524ZM18.6401 18.7348C17.0703 18.7348 15.7924 20.0128 15.7924 21.5825C15.7924 23.1523 17.0703 24.4302 18.6401 24.4302C20.2099 24.4302 21.4878 23.1523 21.4878 21.5825C21.4799 20.0049 20.2099 18.7348 18.6401 18.7348Z" fill="#7C95C5"/>
</g>
<defs>
<clipPath id="clip0_2642_11947">
<rect width="26" height="32.3107" fill="white"/>
</clipPath>
</defs>
</svg>
