<svg width="52" height="52" viewBox="0 0 52 52" fill="none" xmlns="http://www.w3.org/2000/svg">
<path d="M26 52C25.3018 52 24.6162 51.8477 23.9941 51.5557C18.1162 48.8516 4.43066 41.5771 4.43066 32.4365V9.15332C4.43066 7.79492 5.53516 6.69043 6.89355 6.67773C7.16016 6.67773 7.42676 6.71582 7.66797 6.80469C8.83594 7.19824 10.0674 7.40137 11.2988 7.38867C15.2979 7.40137 19.0049 5.31934 21.0615 1.8916C21.7725 0.723633 23.042 0 24.4131 0H27.5869C28.958 0.0126953 30.2275 0.723633 30.9385 1.8916C32.9951 5.31934 36.7021 7.40137 40.7012 7.38867C41.9326 7.38867 43.1641 7.18555 44.332 6.80469C45.627 6.37305 47.0234 7.07129 47.4551 8.36621C47.5439 8.62012 47.582 8.88672 47.582 9.14062V15.2344C47.582 16.0596 46.9092 16.7324 46.0967 16.7324C45.2715 16.7324 44.5986 16.0596 44.5986 15.2471V9.85156C43.3291 10.207 42.0215 10.3848 40.7139 10.3848C35.6738 10.4102 31.002 7.76953 28.3994 3.45312C28.2344 3.17383 27.9297 2.99609 27.5996 2.99609H24.4258C24.0957 2.99609 23.791 3.17383 23.626 3.45312C21.0234 7.76953 16.3516 10.4102 11.3115 10.3848C10.0039 10.3848 8.69629 10.207 7.42676 9.85156V32.4492C7.42676 38.5049 16.6309 44.8906 25.251 48.8643C25.7334 49.0801 26.292 49.0801 26.7744 48.8643C35.3945 44.8906 44.5986 38.5049 44.5986 32.4492V22.9404C44.5986 22.1152 45.2715 21.4424 46.0967 21.4551C46.9219 21.4551 47.582 22.1279 47.582 22.9404V32.4492C47.582 41.5898 33.8965 48.8643 28.0186 51.5684C27.3838 51.8477 26.6982 52 26 52Z" fill="#4D8593"/>
<path d="M24.2354 34.1504L16.3389 30.2021C14.8409 29.4531 14.2315 27.6377 14.9805 26.1396C15.7296 24.6416 17.545 24.0322 19.043 24.7812L24.7432 27.6377L31.9288 18.6621C32.9698 17.3545 34.8741 17.1386 36.1817 18.1924C37.4893 19.2334 37.7051 21.1377 36.6514 22.4453L27.9425 33.3379C27.0665 34.4551 25.5176 34.7978 24.2354 34.1504Z" fill="#BAD0D5"/>
<path d="M25.5937 35.9658C24.8954 35.9658 24.1972 35.8008 23.5751 35.4834L15.6786 31.5352C13.4442 30.418 12.5429 27.7012 13.6601 25.4668C14.7773 23.2324 17.494 22.3311 19.7284 23.4483L24.3495 25.7588L30.7733 17.7227C32.3349 15.7676 35.1786 15.4502 37.1337 17.0117C39.0888 18.5733 39.4062 21.417 37.8446 23.3721L29.1356 34.2647C28.2724 35.3438 26.9648 35.9658 25.5937 35.9658ZM17.6972 25.9619C16.8466 25.9619 16.161 26.6475 16.161 27.4981C16.161 28.0821 16.4911 28.6153 17.0116 28.8692L24.9081 32.8174C25.5556 33.1475 26.3427 32.9697 26.7997 32.3985L35.5087 21.5059C36.0546 20.8584 35.9784 19.8809 35.331 19.335C34.6835 18.7891 33.706 18.8653 33.1601 19.5127C33.1474 19.5381 33.122 19.5508 33.1093 19.5762L25.9237 28.5518C25.4794 29.0977 24.7177 29.2627 24.0956 28.958L18.3954 26.1016C18.1796 26.0127 17.9384 25.9619 17.6972 25.9619Z" fill="#4D8593"/>
</svg>
