<svg width="47" height="46" viewBox="0 0 47 46" fill="none" xmlns="http://www.w3.org/2000/svg">
<path d="M27.5371 38.6283C16.8727 38.6283 8.2207 29.9854 8.2207 19.3119C8.2207 12.1155 12.2188 5.52092 18.5977 2.18772C28.0402 -2.72673 39.7199 0.947877 44.6434 10.3905C45.0027 11.1092 44.7152 11.9807 44.0055 12.3401C43.3047 12.6905 42.4512 12.4209 42.0738 11.7291C37.8871 3.70608 27.9594 0.579518 19.9363 4.75725C11.9043 8.95296 8.7957 18.8537 12.9824 26.8858C17.1691 34.9178 27.0789 38.0264 35.1109 33.8397C40.6543 30.9467 44.0773 25.1428 43.9156 18.8897C43.8977 18.0901 44.5355 17.4252 45.3352 17.4162C46.1348 17.3983 46.7906 18.0272 46.8086 18.8268C47.0691 29.5002 38.6238 38.3678 27.9504 38.6283C27.8246 38.6194 27.6809 38.6283 27.5371 38.6283Z" fill="#FF9F17"/>
<path d="M27.5188 29.2935C33.0315 29.2935 37.5004 24.8246 37.5004 19.3119C37.5004 13.7992 33.0315 9.33026 27.5188 9.33026C22.006 9.33026 17.5371 13.7992 17.5371 19.3119C17.5371 24.8246 22.006 29.2935 27.5188 29.2935Z" fill="#FFD396"/>
<path d="M27.5188 30.74C21.2027 30.74 16.0906 25.6189 16.0906 19.3119C16.0906 13.0049 21.2117 7.88379 27.5188 7.88379C33.8258 7.88379 38.9469 13.0049 38.9469 19.3119C38.9379 25.6189 33.8258 30.7311 27.5188 30.74ZM27.5188 10.7768C22.802 10.7768 18.9836 14.5951 18.9836 19.3119C18.9836 24.0287 22.802 27.8471 27.5188 27.8471C32.2355 27.8471 36.0539 24.0287 36.0539 19.3119C36.0449 14.5951 32.2266 10.7768 27.5188 10.7768ZM5.90234 45.9955C3.09922 45.9955 0.826172 43.7225 0.826172 40.9193C0.826172 39.3381 1.56289 37.8467 2.8207 36.8854L8.75938 32.3482C9.33438 31.908 10.152 31.9619 10.6641 32.474L14.3566 36.1666C14.8688 36.6787 14.9227 37.4963 14.4824 38.0713L9.94531 44.01C9.05586 45.1689 7.7082 45.8967 6.24375 45.9955H5.90234ZM9.50508 35.4209L4.57266 39.1854C3.61133 39.9131 3.41367 41.2787 4.14141 42.24C4.86914 43.2014 6.23477 43.399 7.19609 42.6713C7.35781 42.5455 7.50156 42.4018 7.62734 42.24L11.4008 37.3076L9.50508 35.4209Z" fill="#FF9F17"/>
</svg>
