<svg width="46" height="42" viewBox="0 0 46 42" fill="none" xmlns="http://www.w3.org/2000/svg">
<g clip-path="url(#clip0_2172_6648)">
<path d="M1.60461 23.5391C1.17966 23.5391 0.772068 23.7076 0.471248 24.0078C0.170429 24.3079 0.000952003 24.7151 2.74441e-07 25.1401V27.2784C-0.000235741 28.0511 0.151758 28.8163 0.447299 29.5302C0.74284 30.2442 1.17614 30.8929 1.72245 31.4394C2.26875 31.9859 2.91737 32.4194 3.63124 32.7151C4.34511 33.0109 5.11026 33.1631 5.88297 33.1631H40.117C40.8897 33.1631 41.6549 33.0109 42.3688 32.7151C43.0826 32.4194 43.7312 31.9859 44.2776 31.4394C44.8239 30.8929 45.2572 30.2442 45.5527 29.5302C45.8482 28.8163 46.0002 28.0511 46 27.2784V25.1401C46 24.7145 45.8309 24.3064 45.53 24.0054C45.2291 23.7045 44.821 23.5355 44.3954 23.5355L1.60461 23.5391Z" fill="#FFADFC"/>
<path d="M2.74441e-07 5.88297C2.74441e-07 4.32271 0.619811 2.82635 1.72308 1.72308C2.82635 0.619811 4.32271 0 5.88297 0L40.117 0C41.6773 0 43.1736 0.619811 44.2769 1.72308C45.3802 2.82635 46 4.32271 46 5.88297V27.2784C46.0002 28.0511 45.8482 28.8163 45.5527 29.5302C45.2572 30.2442 44.8239 30.8929 44.2776 31.4394C43.7312 31.9859 43.0826 32.4194 42.3688 32.7151C41.6549 33.0109 40.8897 33.1631 40.117 33.1631H5.88297C5.11026 33.1631 4.34511 33.0109 3.63124 32.7151C2.91737 32.4194 2.26875 31.9859 1.72245 31.4394C1.17614 30.8929 0.74284 30.2442 0.447299 29.5302C0.151758 28.8163 -0.000235741 28.0511 2.74441e-07 27.2784V5.88297ZM5.88297 3.20922C5.17385 3.20922 4.49377 3.49092 3.99234 3.99234C3.49092 4.49377 3.20922 5.17385 3.20922 5.88297V27.2784C3.20922 27.9876 3.49086 28.6679 3.99223 29.1696C4.49361 29.6713 5.17368 29.9534 5.88297 29.9539H40.117C40.8263 29.9534 41.5064 29.6713 42.0078 29.1696C42.5091 28.6679 42.7908 27.9876 42.7908 27.2784V5.88297C42.7908 5.17385 42.5091 4.49377 42.0077 3.99234C41.5062 3.49092 40.8262 3.20922 40.117 3.20922H5.88297Z" fill="#FF3AD4"/>
<path d="M19.4381 30.1228C19.6271 30.2169 19.7957 30.3474 19.9342 30.5069C20.0726 30.6663 20.1783 30.8514 20.2451 31.0517C20.3118 31.2521 20.3384 31.4636 20.3233 31.6742C20.3081 31.8848 20.2516 32.0904 20.1569 32.2791L15.8767 40.834C15.7823 41.0228 15.6517 41.1911 15.4922 41.3294C15.3328 41.4677 15.1477 41.5732 14.9474 41.6399C14.7472 41.7067 14.5358 41.7333 14.3253 41.7184C14.1147 41.7034 13.9092 41.6471 13.7205 41.5527C13.5317 41.4583 13.3633 41.3277 13.2251 41.1683C13.0868 41.0088 12.9812 40.8237 12.9145 40.6235C12.8478 40.4232 12.8211 40.2118 12.8361 40.0013C12.851 39.7908 12.9073 39.5853 13.0017 39.3965L17.2855 30.8398C17.3794 30.6506 17.5098 30.4818 17.6692 30.3432C17.8286 30.2046 18.0138 30.0989 18.2141 30.0321C18.4145 29.9653 18.6261 29.9388 18.8368 29.954C19.0475 29.9693 19.253 30.026 19.4417 30.121L19.4381 30.1228ZM32.275 41.5509C32.4638 41.4566 32.6322 41.326 32.7706 41.1666C32.9089 41.0072 33.0145 40.822 33.0812 40.6218C33.148 40.4215 33.1746 40.2101 33.1596 39.9995C33.1446 39.789 33.0882 39.5834 32.9937 39.3947L28.7136 30.8398C28.6192 30.651 28.4885 30.4827 28.3291 30.3444C28.1697 30.2061 27.9845 30.1006 27.7843 30.0338C27.5841 29.9671 27.3727 29.9404 27.1621 29.9554C26.9516 29.9703 26.7461 30.0266 26.5573 30.121C26.3686 30.2154 26.2002 30.3461 26.0619 30.5055C25.9236 30.6649 25.8181 30.8501 25.7514 31.0503C25.6846 31.2505 25.658 31.4619 25.6729 31.6724C25.6879 31.883 25.7442 32.0885 25.8386 32.2773L30.1169 40.8358C30.2114 41.0247 30.3422 41.1931 30.5019 41.3314C30.6616 41.4697 30.847 41.575 31.0475 41.6415C31.248 41.7079 31.4596 41.7341 31.6702 41.7186C31.8809 41.7031 32.0864 41.6461 32.275 41.5509Z" fill="#FF3AD4"/>
<path d="M10.6973 40.117C10.6973 39.9062 10.7388 39.6974 10.8196 39.5026C10.9003 39.3078 11.0187 39.1308 11.1679 38.9818C11.3171 38.8327 11.4942 38.7146 11.6891 38.634C11.884 38.5535 12.0928 38.5122 12.3037 38.5124H33.6973C34.1228 38.5124 34.531 38.6815 34.8319 38.9824C35.1328 39.2833 35.3019 39.6915 35.3019 40.117C35.3019 40.5426 35.1328 40.9507 34.8319 41.2517C34.531 41.5526 34.1228 41.7216 33.6973 41.7216H12.3037C12.0928 41.7219 11.884 41.6805 11.6891 41.6C11.4942 41.5195 11.3171 41.4013 11.1679 41.2523C11.0187 41.1033 10.9003 40.9263 10.8196 40.7315C10.7388 40.5367 10.6973 40.3279 10.6973 40.117Z" fill="#FF3AD4"/>
</g>
<defs>
<clipPath id="clip0_2172_6648">
<rect width="46" height="41.7216" fill="white"/>
</clipPath>
</defs>
</svg>
