<svg width="26" height="26" viewBox="0 0 26 26" fill="none" xmlns="http://www.w3.org/2000/svg">
<g clip-path="url(#clip0_2642_12099)">
<path d="M25.205 16.4582H18.0885C17.8776 16.4582 17.6753 16.3744 17.5262 16.2253C17.377 16.0762 17.2932 15.8739 17.2932 15.663C17.2932 15.4521 17.377 15.2498 17.5262 15.1007C17.6753 14.9515 17.8776 14.8677 18.0885 14.8677H24.4102V1.58996H11.1325V7.03676C11.1325 7.24767 11.0487 7.44994 10.8995 7.59907C10.7504 7.74821 10.5481 7.83199 10.3372 7.83199C10.1263 7.83199 9.92405 7.74821 9.77491 7.59907C9.62578 7.44994 9.54199 7.24767 9.54199 7.03676V0.795234C9.54199 0.584325 9.62578 0.382054 9.77491 0.232919C9.92405 0.0837834 10.1263 0 10.3372 0L25.205 0C25.4159 0 25.6181 0.0837834 25.7673 0.232919C25.9164 0.382054 26.0002 0.584325 26.0002 0.795234V15.663C26.0002 15.8739 25.9164 16.0762 25.7673 16.2253C25.6181 16.3744 25.4159 16.4582 25.205 16.4582Z" fill="#FFC05E"/>
<path d="M11.701 26H0.795234C0.584325 26 0.382054 25.9162 0.232919 25.7671C0.0837834 25.618 0 25.4157 0 25.2048L0 10.337C0 10.1261 0.0837834 9.92386 0.232919 9.77473C0.382054 9.62559 0.584325 9.54181 0.795234 9.54181H15.663C15.8739 9.54181 16.0762 9.62559 16.2253 9.77473C16.3744 9.92386 16.4582 10.1261 16.4582 10.337V20.4339C16.4582 20.6448 16.3744 20.8471 16.2253 20.9962C16.0762 21.1453 15.8739 21.2291 15.663 21.2291C15.4521 21.2291 15.2498 21.1453 15.1007 20.9962C14.9515 20.8471 14.8677 20.6448 14.8677 20.4339V11.1323H1.58996V24.4101H11.701C11.8071 24.4074 11.9127 24.426 12.0115 24.4647C12.1103 24.5034 12.2003 24.5616 12.2763 24.6357C12.3523 24.7097 12.4126 24.7983 12.4539 24.8961C12.4951 24.9939 12.5163 25.0989 12.5163 25.205C12.5163 25.3112 12.4951 25.4162 12.4539 25.514C12.4126 25.6118 12.3523 25.7003 12.2763 25.7744C12.2003 25.8485 12.1103 25.9066 12.0115 25.9454C11.9127 25.9841 11.8071 26.0027 11.701 26Z" fill="#FFC05E"/>
<path d="M5.56592 5.56613V10.337H15.6628V20.4339H20.4337V5.56613H5.56592Z" fill="#F3EDB2"/>
<path d="M20.4339 21.2291H15.663C15.5585 21.2291 15.4551 21.2085 15.3586 21.1686C15.2622 21.1286 15.1745 21.07 15.1007 20.9962C15.0268 20.9223 14.9682 20.8347 14.9283 20.7382C14.8883 20.6417 14.8677 20.5383 14.8677 20.4339V11.1323H5.56613C5.35566 11.1316 5.15404 11.0475 5.00546 10.8985C4.85687 10.7494 4.77344 10.5475 4.77344 10.337V5.56613C4.77411 5.3561 4.85784 5.15487 5.00635 5.00635C5.15487 4.85784 5.3561 4.77411 5.56613 4.77344H20.4339C20.6448 4.77344 20.847 4.85722 20.9962 5.00636C21.1453 5.15549 21.2291 5.35776 21.2291 5.56867V20.4339C21.2291 20.6448 21.1453 20.847 20.9962 20.9962C20.847 21.1453 20.6448 21.2291 20.4339 21.2291ZM16.4582 19.6391H19.6391V6.36086H6.36086V9.5418H15.663C15.8739 9.5418 16.0761 9.62558 16.2253 9.77472C16.3744 9.92385 16.4582 10.1261 16.4582 10.337V19.6391Z" fill="#FFC05E"/>
</g>
<defs>
<clipPath id="clip0_2642_12099">
<rect width="26" height="26" fill="white"/>
</clipPath>
</defs>
</svg>
