<svg width="52" height="52" viewBox="0 0 52 52" fill="none" xmlns="http://www.w3.org/2000/svg">
<path d="M15.9252 49.6387C14.9197 49.6387 13.4674 49.1512 10.2174 45.5153C8.57207 43.6668 7.22129 41.859 7.16035 41.7778C7.11973 41.727 7.08926 41.6762 7.05879 41.6153C6.43926 40.4981 6.11426 39.2489 6.11426 37.9793V28.7473C6.11426 27.9449 6.76426 27.2848 7.5666 27.2848H19.3479C21.0236 27.2848 22.6385 27.9449 23.8369 29.1231L29.8697 35.0645C31.6166 36.8114 31.6268 39.6449 29.8799 41.3918C28.133 43.1387 25.2994 43.1489 23.5525 41.402L17.54 35.3692C16.9408 35.3692 15.9658 35.359 15.1939 35.359L14.0971 35.3489C13.2947 35.3489 12.6447 34.6887 12.6447 33.8864C12.6447 33.084 13.3049 32.434 14.1072 32.434H14.1174L15.2143 32.4442C15.9049 32.4442 16.6463 32.4543 17.2049 32.4543H17.9057C18.3322 32.4543 18.7689 32.4645 19.1955 32.891L25.6447 39.3403C26.2541 39.9496 27.2393 39.9496 27.8486 39.3403C28.458 38.7309 28.458 37.7457 27.8486 37.1364L21.7955 31.2051C21.1455 30.5653 20.2721 30.1996 19.358 30.2098H9.0291V37.9793C9.0291 38.7309 9.21191 39.4621 9.55723 40.1223C9.82129 40.4778 10.9385 41.9403 12.2486 43.4129C14.8385 46.3379 15.8236 46.6832 15.9557 46.7239H31.708C32.7846 46.7239 34.0338 46.1653 35.2221 45.5864C36.2275 45.0989 43.6822 40.041 48.151 36.9637L48.2221 36.9129C49.0549 36.3949 49.3088 35.3082 48.7908 34.4856C48.2932 33.6832 47.2471 33.4192 46.4244 33.8762L35.5471 41.0973C34.8768 41.5442 33.9729 41.3614 33.526 40.691C33.0791 40.0207 33.2619 39.1168 33.9322 38.6699L44.8502 31.4285C44.8705 31.4184 44.8807 31.4082 44.901 31.3981C47.115 30.0676 49.9893 30.7887 51.3197 33.0028C52.6299 35.1965 51.9494 38.0403 49.776 39.3809C48.4252 40.3153 38.015 47.4653 36.4916 48.2067C34.9986 48.9278 33.3939 49.6387 31.708 49.6387H15.9252Z" fill="#4D8593"/>
<path d="M1.46289 26.9598H10.0145V46.216H1.46289V26.9598Z" fill="#BAD0D5"/>
<path d="M10.0039 47.6684H1.4625C0.660156 47.6684 0 47.0184 0 46.2059V26.9598C0 26.1574 0.65 25.4973 1.45234 25.4973H9.99375C10.7961 25.4973 11.4461 26.1473 11.4461 26.9598V46.216C11.4562 47.0184 10.8062 47.6684 10.0039 47.6684ZM2.91484 44.7535H8.54141V28.4121H2.91484V44.7535ZM27.7266 24.116C21.7141 24.116 16.8492 19.241 16.8492 13.2387C16.8492 7.22617 21.7242 2.36133 27.7367 2.36133C33.7391 2.36133 38.6141 7.23633 38.6141 13.2387C38.6039 19.241 33.7289 24.116 27.7266 24.116ZM27.7266 5.27617C23.3289 5.27617 19.7641 8.84102 19.7641 13.2387C19.7641 17.6363 23.3289 21.2012 27.7266 21.2012C32.1242 21.2012 35.6891 17.6363 35.6891 13.2387C35.6789 8.84102 32.1242 5.28633 27.7266 5.27617Z" fill="#4D8593"/>
<path d="M35.4348 29.9254C40.64 29.9254 44.8598 25.7057 44.8598 20.5004C44.8598 15.2951 40.64 11.0754 35.4348 11.0754C30.2295 11.0754 26.0098 15.2951 26.0098 20.5004C26.0098 25.7057 30.2295 29.9254 35.4348 29.9254Z" fill="#BAD0D5"/>
<path d="M35.435 31.3777C29.4326 31.3777 24.5576 26.5129 24.5576 20.5004C24.5576 14.498 29.4225 9.62305 35.435 9.62305C41.4475 9.62305 46.3123 14.4879 46.3123 20.5004C46.3021 26.5027 41.4373 31.3676 35.435 31.3777ZM35.435 12.5379C31.0373 12.5379 27.4725 16.1027 27.4725 20.5004C27.4725 24.898 31.0475 28.4629 35.4451 28.4629C39.8428 28.4629 43.4076 24.898 43.4076 20.5004C43.3975 16.1027 39.8326 12.5379 35.435 12.5379Z" fill="#4D8593"/>
<path d="M35.0799 25.2027C33.5057 25.152 32.2158 24.3395 32.2158 23.4965C32.2158 23.0496 32.6119 22.3895 33.1096 22.3895C33.658 22.3895 34.1049 23.1613 35.0799 23.334V21.2113C33.8713 20.7543 32.4494 20.1856 32.4494 18.5098C32.4494 16.834 33.6783 16.0418 35.0799 15.8488V15.4832C35.0799 15.3004 35.2932 15.1277 35.5775 15.1277C35.8314 15.1277 36.0752 15.3004 36.0752 15.4832V15.8082C36.8877 15.8387 38.4213 16.0418 38.4213 16.9457C38.4213 17.3012 38.1877 18.0223 37.6088 18.0223C37.1721 18.0223 36.9283 17.6059 36.0752 17.5348V19.4543C37.2736 19.9012 38.665 20.5207 38.665 22.2879C38.665 23.9129 37.6088 24.8981 36.0752 25.152V25.5379C36.0752 25.7207 35.8213 25.8934 35.5775 25.8934C35.283 25.8934 35.0799 25.7207 35.0799 25.5379V25.2027ZM35.2119 19.1395V17.5754C34.6229 17.6973 34.3689 17.9918 34.3689 18.3067C34.3689 18.6926 34.7143 18.9262 35.2119 19.1395ZM35.9432 21.5668V23.3238C36.39 23.2223 36.7455 22.9684 36.7455 22.5012C36.7455 22.0645 36.4205 21.7902 35.9432 21.5668Z" fill="#4D8593"/>
</svg>
