<svg width="45" height="41" viewBox="0 0 45 41" fill="none" xmlns="http://www.w3.org/2000/svg">
<g clip-path="url(#clip0_2022_4647)">
<path d="M28.1574 27.5567C27.8947 27.5564 27.6376 27.4809 27.4165 27.339C27.1954 27.1971 27.0195 26.9949 26.9098 26.7562C26.8 26.5175 26.7609 26.2524 26.7971 25.9922C26.8334 25.732 26.9433 25.4876 27.1141 25.288L29.0975 22.9745L27.1141 20.6628C26.8766 20.3859 26.7589 20.026 26.7867 19.6622C26.8146 19.2985 26.9859 18.9607 27.2628 18.7232C27.5397 18.4857 27.8996 18.368 28.2634 18.3958C28.6271 18.4237 28.9649 18.595 29.2024 18.8719L31.9524 22.0808C32.1663 22.3301 32.284 22.6477 32.284 22.9763C32.284 23.3048 32.1663 23.6224 31.9524 23.8717L29.2024 27.0806C29.0723 27.23 28.9117 27.3498 28.7315 27.4319C28.5512 27.514 28.3555 27.5566 28.1574 27.5567ZM16.243 27.5567C16.0445 27.557 15.8484 27.5142 15.668 27.4314C15.4876 27.3487 15.3273 27.2278 15.198 27.0772L12.448 23.8683C12.2345 23.6191 12.1172 23.3018 12.1172 22.9737C12.1172 22.6456 12.2345 22.3283 12.448 22.0791L15.198 18.8685C15.4355 18.5915 15.7733 18.4203 16.137 18.3924C16.5008 18.3645 16.8607 18.4823 17.1376 18.7198C17.4145 18.9573 17.5858 19.295 17.6137 19.6588C17.6415 20.0225 17.5238 20.3825 17.2863 20.6594L15.3029 22.9728L17.2863 25.2845C17.4581 25.4841 17.569 25.7288 17.6058 25.9896C17.6426 26.2503 17.6038 26.5162 17.4939 26.7555C17.384 26.9948 17.2077 27.1975 16.986 27.3396C16.7642 27.4816 16.5064 27.557 16.243 27.5567ZM20.5175 30.2706C20.3414 30.2301 20.175 30.1553 20.0279 30.0504C19.8807 29.9455 19.7557 29.8127 19.6599 29.6594C19.5641 29.5062 19.4995 29.3355 19.4697 29.1573C19.4399 28.9791 19.4456 28.7967 19.4863 28.6206L22.2363 16.7045C22.2769 16.5285 22.3518 16.3622 22.4567 16.2151C22.5616 16.068 22.6945 15.943 22.8477 15.8472C23.0009 15.7514 23.1715 15.6868 23.3497 15.657C23.5279 15.6271 23.7102 15.6327 23.8863 15.6733C24.0623 15.7139 24.2287 15.7888 24.3758 15.8937C24.5229 15.9986 24.6479 16.1315 24.7436 16.2847C24.8394 16.4379 24.9041 16.6085 24.9339 16.7867C24.9637 16.9649 24.9582 17.1472 24.9175 17.3233L22.1675 29.2394C22.127 29.4155 22.0522 29.5819 21.9473 29.7291C21.8424 29.8762 21.7096 30.0013 21.5563 30.097C21.4031 30.1928 21.2324 30.2575 21.0542 30.2872C20.876 30.317 20.6936 30.3114 20.5175 30.2706Z" fill="#C7CBED"/>
<path d="M38.7002 0H5.7002C4.24276 0.00408184 2.84618 0.584855 1.81562 1.61542C0.78505 2.64599 0.204277 4.04256 0.200195 5.5V34.8339C0.204277 36.2913 0.78505 37.6879 1.81562 38.7185C2.84618 39.7491 4.24276 40.3298 5.7002 40.3339H38.7002C40.1576 40.3298 41.5542 39.7491 42.5848 38.7185C43.6153 37.6879 44.1961 36.2913 44.2002 34.8339V5.5C44.1961 4.04256 43.6153 2.64599 42.5848 1.61542C41.5542 0.584855 40.1576 0.00408184 38.7002 0ZM40.5341 34.8322C40.5327 35.3182 40.3391 35.7838 39.9955 36.1275C39.6518 36.4711 39.1862 36.6647 38.7002 36.6661H5.7002C5.21423 36.6647 4.74856 36.4711 4.40493 36.1275C4.0613 35.7838 3.86765 35.3182 3.86629 34.8322V9.16609H40.5324V34.8322H40.5341Z" fill="#605DBA"/>
</g>
<defs>
<clipPath id="clip0_2022_4647">
<rect width="44" height="40.3339" fill="white" transform="translate(0.200195)"/>
</clipPath>
</defs>
</svg>
