<svg width="26" height="26" viewBox="0 0 26 26" fill="none" xmlns="http://www.w3.org/2000/svg">
<g clip-path="url(#clip0_2199_3658)">
<path d="M8.9173 25.091H6.11418C5.74855 25.091 5.43879 24.8269 5.38293 24.4664L5.20519 23.3492C4.58058 23.1055 3.9966 22.7703 3.47355 22.3488L2.41222 22.7551C2.07199 22.8871 1.68605 22.75 1.50324 22.4301L0.101678 20.0027C-0.0811348 19.6879 -0.0100411 19.2867 0.274334 19.0531L1.15285 18.3371C1.05129 17.6769 1.05129 17.0016 1.15285 16.3363L0.274334 15.6254C-0.0100411 15.3969 -0.0811348 14.9906 0.101678 14.6758L1.50324 12.2484C1.68605 11.9336 2.07199 11.7965 2.41222 11.9234L3.47355 12.3297C3.9966 11.9082 4.58058 11.573 5.20519 11.3293L5.38293 10.2121C5.43879 9.85156 5.75363 9.58749 6.11418 9.58749H8.9173C9.27785 9.58749 9.58762 9.85156 9.64855 10.2121L9.90246 11.7711C9.9634 12.1773 9.67902 12.5531 9.27277 12.6141C8.87668 12.6699 8.5009 12.4008 8.43488 12.0047L8.28254 11.0703H6.74387L6.5966 12.0047C6.5509 12.284 6.35285 12.5176 6.07863 12.5988C5.35246 12.8223 4.68215 13.2082 4.12863 13.7262C3.92043 13.9191 3.62082 13.9801 3.35676 13.8785L2.47316 13.5434L1.70636 14.8738L2.43762 15.4629C2.65597 15.6406 2.75754 15.9301 2.69152 16.2094C2.51886 16.951 2.51886 17.7224 2.69152 18.4641C2.75754 18.7383 2.65597 19.0277 2.43762 19.2105L1.70129 19.8047L2.46808 21.1352L3.35168 20.8C3.61574 20.6984 3.91535 20.7594 4.12355 20.9523C4.67707 21.4754 5.34738 21.8613 6.07355 22.0797C6.34777 22.1609 6.54582 22.3945 6.59152 22.6738L6.73879 23.6082H8.27746L8.42472 22.6738C8.47043 22.3945 8.66847 22.1609 8.94269 22.0797C9.66887 21.8562 10.3392 21.4703 10.8927 20.9523C11.1009 20.7594 11.4005 20.6984 11.6646 20.8L12.5482 21.1352L13.315 19.8047L12.5939 19.2105C12.3755 19.0328 12.2739 18.7434 12.34 18.4641C12.5126 17.7227 12.5126 16.9508 12.34 16.2094C12.2486 15.8082 12.4974 15.4121 12.8935 15.3156C13.2946 15.2242 13.6907 15.473 13.7872 15.8691C13.9751 16.6766 14.0056 17.5144 13.8786 18.332L14.7571 19.048C15.0415 19.2766 15.1126 19.6777 14.9298 19.9976L13.5282 22.425C13.3454 22.7398 12.9595 22.8769 12.6193 22.7449L11.5579 22.3387C11.0349 22.7601 10.4509 23.0953 9.82629 23.3391L9.64855 24.4562C9.59269 24.8219 9.28293 25.091 8.9173 25.091Z" fill="#C93FE0"/>
<path d="M7.51553 19.5305C8.7271 19.5305 9.70928 18.5483 9.70928 17.3367C9.70928 16.1251 8.7271 15.143 7.51553 15.143C6.30395 15.143 5.32178 16.1251 5.32178 17.3367C5.32178 18.5483 6.30395 19.5305 7.51553 19.5305Z" fill="#E2B2F3"/>
<path d="M7.51572 20.2719C5.8958 20.2719 4.58057 18.9566 4.58057 17.3367C4.58057 15.7168 5.8958 14.4016 7.51572 14.4016C9.13564 14.4016 10.4509 15.7168 10.4509 17.3367C10.4509 18.9566 9.13564 20.2719 7.51572 20.2719ZM7.51572 15.8894C6.71338 15.8894 6.06846 16.5394 6.06846 17.3367C6.06846 18.1391 6.71846 18.784 7.51572 18.784C8.31807 18.784 8.96299 18.134 8.96299 17.3367C8.96299 16.5394 8.31807 15.8894 7.51572 15.8894Z" fill="#C93FE0"/>
<path d="M24.1821 7.7543C24.1821 7.31758 24.1313 6.88087 24.0349 6.45938L25.2587 5.46407L23.8571 3.03672L22.3845 3.6004C21.7446 3.00118 20.9778 2.55938 20.1399 2.30547L19.8911 0.74649H17.0829L16.8341 2.30547C15.9962 2.55938 15.2294 3.00118 14.5896 3.6004L13.1169 3.03672L11.7153 5.46407L12.9392 6.45938C12.7411 7.31251 12.7411 8.1961 12.9392 9.04922L11.7153 10.0445L13.1169 12.4719L14.5896 11.9082C15.2294 12.5074 15.9962 12.9492 16.8341 13.2031L17.0829 14.7621H19.886L20.1349 13.2031C20.9728 12.9492 21.7396 12.5074 22.3794 11.9082L23.8521 12.4719L25.2536 10.0445L24.0298 9.0543C24.1313 8.62266 24.1821 8.19102 24.1821 7.7543ZM18.4845 9.94298C17.2759 9.94298 16.2907 8.9629 16.2907 7.7543C16.2907 6.54571 17.2708 5.56055 18.4794 5.56055C19.688 5.56055 20.6731 6.54063 20.6731 7.74923C20.6731 8.9629 19.6931 9.94298 18.4845 9.94298Z" fill="#E2B2F3"/>
<path d="M19.8861 15.5086H17.0829C16.7173 15.5086 16.4075 15.2395 16.3517 14.8789L16.1739 13.7617C15.5493 13.518 14.9653 13.1828 14.4423 12.7613L13.381 13.1676C13.0407 13.2996 12.6548 13.1625 12.472 12.8426L11.0704 10.4152C10.8876 10.1004 10.9638 9.69922 11.2431 9.46562L12.1216 8.74961C12.02 8.08438 12.02 7.41406 12.1216 6.74883L11.2431 6.03281C10.9587 5.8043 10.8876 5.40312 11.0704 5.0832L12.472 2.65586C12.6548 2.34102 13.0407 2.20391 13.381 2.33594L14.4423 2.74219C14.9653 2.3207 15.5493 1.98555 16.1739 1.7418L16.3517 0.624609C16.4075 0.269141 16.7173 0 17.0829 0H19.8861C20.2517 0 20.5614 0.264063 20.6173 0.624609L20.795 1.7418C21.4196 1.98555 22.0036 2.3207 22.5267 2.74219L23.588 2.33594C23.9282 2.20391 24.3142 2.34102 24.497 2.65586L25.8986 5.08828C26.0814 5.40312 26.0052 5.8043 25.7259 6.03789L24.8474 6.75391C24.9489 7.41914 24.9489 8.08945 24.8474 8.75469L25.7259 9.4707C26.0103 9.69922 26.0814 10.1004 25.8986 10.4203L24.497 12.8477C24.3142 13.1625 23.9282 13.2996 23.588 13.1727L22.5267 12.7664C22.0036 13.1879 21.4196 13.523 20.795 13.7668L20.6173 14.884C20.5614 15.2395 20.2517 15.5035 19.8861 15.5086ZM17.7177 14.0207H19.2564L19.4036 13.0863C19.4493 12.807 19.6474 12.5734 19.9216 12.4922C20.6478 12.2688 21.3181 11.8828 21.8716 11.3648C22.0798 11.1719 22.3794 11.1109 22.6435 11.2125L23.5271 11.5477L24.2939 10.2172L23.5626 9.62813C23.3443 9.45039 23.2427 9.16094 23.3087 8.88164C23.4814 8.14023 23.4814 7.36836 23.3087 6.62695C23.2427 6.35273 23.3443 6.06328 23.5626 5.88047L24.2939 5.28633L23.5271 3.95586L22.6435 4.29609C22.3794 4.39766 22.0798 4.33672 21.8716 4.14375C21.3181 3.62578 20.6478 3.23984 19.9216 3.01641C19.6474 2.93516 19.4493 2.70156 19.4036 2.42227L19.2564 1.48789H17.7177L17.5704 2.42227C17.5247 2.70156 17.3267 2.93516 17.0525 3.01641C16.3263 3.23984 15.656 3.62578 15.1025 4.14375C14.8943 4.33672 14.5946 4.39766 14.3306 4.29609L13.447 3.95586L12.6802 5.28633L13.4114 5.88047C13.6298 6.0582 13.7314 6.34766 13.6653 6.62695C13.4927 7.3686 13.4927 8.13999 13.6653 8.88164C13.7314 9.15586 13.6298 9.44531 13.4114 9.62813L12.6802 10.2223L13.447 11.5527L14.3306 11.2176C14.5946 11.116 14.8943 11.177 15.1025 11.3699C15.656 11.8879 16.3263 12.2738 17.0525 12.4973C17.3267 12.5785 17.5247 12.8121 17.5704 13.0914L17.7177 14.0207ZM18.4845 10.6895C16.8646 10.6895 15.5493 9.37422 15.5493 7.7543C15.5493 6.13438 16.8646 4.81914 18.4845 4.81914C20.1044 4.81914 21.4196 6.13438 21.4196 7.7543C21.4146 9.37422 20.1044 10.6844 18.4845 10.6895ZM18.4845 6.30195C17.6821 6.30195 17.0372 6.95195 17.0372 7.74922C17.0372 8.54648 17.6872 9.19648 18.4845 9.20156C19.2818 9.20664 19.9318 8.55156 19.9318 7.7543C19.9318 6.95195 19.2818 6.30703 18.4845 6.30195Z" fill="#C93FE0"/>
</g>
<defs>
<clipPath id="clip0_2199_3658">
<rect width="26" height="25.091" fill="white"/>
</clipPath>
</defs>
</svg>
