<svg width="46" height="46" viewBox="0 0 46 46" fill="none" xmlns="http://www.w3.org/2000/svg">
<g clip-path="url(#clip0_2172_6653)">
<path d="M40.7266 3.83244C41.1078 3.83244 41.4734 3.98387 41.743 4.25344C42.0125 4.523 42.164 4.8886 42.164 5.26982V31.1428C42.164 31.524 42.0125 31.8896 41.743 32.1592C41.4734 32.4288 41.1078 32.5802 40.7266 32.5802H19.2808C18.7772 32.5798 18.2785 32.6788 17.8132 32.8715C17.348 33.0642 16.9253 33.3468 16.5695 33.7032L11.4991 38.7753V36.4144C11.4986 35.3981 11.0947 34.4236 10.3761 33.705C9.65746 32.9864 8.68295 32.5825 7.66667 32.582H5.26982C4.8886 32.582 4.523 32.4305 4.25344 32.161C3.98387 31.8914 3.83244 31.5258 3.83244 31.1446V5.27162C3.83244 4.8904 3.98387 4.5248 4.25344 4.25523C4.523 3.98567 4.8886 3.83423 5.26982 3.83423H40.7266V3.83244ZM40.7266 0H5.26982C3.87247 0.000951875 2.53262 0.556469 1.54455 1.54455C0.556469 2.53262 0.000951875 3.87247 0 5.26982L0 31.1428C0.00142693 32.54 0.557097 33.8796 1.54507 34.8676C2.53305 35.8555 3.87262 36.4112 5.26982 36.4126H7.66487V44.559C7.66493 44.8433 7.74929 45.1212 7.90728 45.3575C8.06526 45.5939 8.28979 45.7781 8.55246 45.8868C8.72706 45.9601 8.91468 45.9974 9.10405 45.9964C9.48566 45.9954 9.85158 45.8444 10.1228 45.576L19.2861 36.4126H40.7302C42.1265 36.4103 43.4648 35.8544 44.452 34.8669C45.4391 33.8794 45.9945 32.5409 45.9964 31.1446V5.27162C45.994 3.87454 45.4381 2.53533 44.4504 1.54728C43.4627 0.559224 42.1237 0.00285014 40.7266 0Z" fill="#FF3A3A"/>
<path d="M17.2496 26.3527C17.2496 26.6045 17.2 26.8538 17.1036 27.0864C17.0073 27.3189 16.8661 27.5303 16.688 27.7083C16.51 27.8863 16.2987 28.0275 16.0661 28.1239C15.8335 28.2202 15.5842 28.2698 15.3324 28.2698H13.4153C12.9073 28.2689 12.4204 28.0665 12.0614 27.7071C11.7024 27.3478 11.5005 26.8607 11.5 26.3527V14.8536C11.5 14.3455 11.7017 13.8581 12.0609 13.4986C12.42 13.1392 12.9072 12.937 13.4153 12.9365H15.3324C15.5842 12.9365 15.8335 12.9861 16.0661 13.0824C16.2987 13.1788 16.51 13.32 16.688 13.498C16.8661 13.676 17.0073 13.8874 17.1036 14.12C17.2 14.3525 17.2496 14.6018 17.2496 14.8536V26.3527ZM33.4058 24.3979C33.0608 26.6024 31.0485 28.2698 28.7487 28.2698H27.2915C23.4591 28.2698 20.7945 27.5511 19.1271 26.8702C19.1495 26.6985 19.1621 26.5258 19.1649 26.3527V14.8536C19.1666 14.2031 19.0021 13.563 18.6869 12.994C19.7021 12.189 20.967 10.8864 20.967 9.42926C20.967 8.24162 20.967 5.78728 23.2668 5.78728C24.7994 5.78728 26.4668 7.2049 26.4668 10.3097C26.4632 11.2012 26.3239 12.0869 26.0536 12.9365H29.868C31.0943 12.936 32.2707 13.4222 33.1388 14.2883C34.0069 15.1544 34.4958 16.3296 34.4982 17.5559C34.4982 17.6134 34.2682 22.4232 33.3285 24.3835L33.4058 24.3979Z" fill="#FFADAD"/>
</g>
<defs>
<clipPath id="clip0_2172_6653">
<rect width="46" height="45.9964" fill="white"/>
</clipPath>
</defs>
</svg>
