<svg width="27" height="27" viewBox="0 0 27 27" fill="none" xmlns="http://www.w3.org/2000/svg">
<g clip-path="url(#clip0_99_7435)">
<path d="M13.0073 10.8398C9.55879 10.8439 6.25268 12.2156 3.81421 14.6541C1.37574 17.0925 0.00403414 20.3986 0 23.8471C0.000807048 24.4219 0.229571 24.973 0.63611 25.3793C1.04265 25.7856 1.59376 26.0142 2.16856 26.0147H23.846C24.4208 26.0142 24.972 25.7856 25.3785 25.3793C25.785 24.973 26.0138 24.4219 26.0146 23.8471C26.0146 16.6759 20.1796 10.8398 13.0073 10.8398ZM13.0073 22.7629C12.1497 22.7629 11.3114 22.5086 10.5983 22.0321C9.88522 21.5556 9.32945 20.8784 9.00126 20.0861C8.67307 19.2938 8.5872 18.4219 8.75451 17.5808C8.92182 16.7397 9.3348 15.9671 9.94121 15.3607C10.5476 14.7543 11.3202 14.3413 12.1614 14.174C13.0025 14.0067 13.8743 14.0925 14.6667 14.4207C15.459 14.7489 16.1362 15.3047 16.6126 16.0177C17.0891 16.7308 17.3434 17.5692 17.3434 18.4268C17.3423 19.5764 16.8851 20.6787 16.0722 21.4917C15.2593 22.3046 14.157 22.7618 13.0073 22.7629Z" fill="#B5E7D9"/>
<path d="M3.39651 11.9241C2.94363 11.926 2.50004 11.7957 2.12017 11.5491C1.88232 11.3944 1.65766 11.2204 1.44846 11.0288C0.891712 10.5196 0.473391 9.8774 0.232728 9.16234C-0.00793535 8.44729 -0.0630557 7.68282 0.0725351 6.94064C0.551163 4.40116 3.37822 2.74984 5.46447 1.72755C7.81416 0.586866 10.3927 -0.00390635 13.0046 1.94381e-05C16.538 1.94381e-05 20.1038 1.07922 22.7865 2.96121C24.0009 3.81482 25.451 5.00478 25.8758 6.66118C26.0693 7.4404 26.0493 8.25735 25.8181 9.02622C25.587 9.7951 25.153 10.4875 24.5618 11.0308C24.3563 11.218 24.1357 11.3879 23.9023 11.5389C23.4922 11.8022 23.0123 11.9356 22.5251 11.9218C22.038 11.9081 21.5664 11.7477 21.1718 11.4617L17.3844 8.75759C16.539 8.15397 16.2016 7.089 16.5634 6.16426C16.5827 6.1104 16.605 6.06264 16.6284 6.00573C14.2756 5.22314 11.7327 5.22314 9.37987 6.00573L9.44796 6.16223C9.81074 7.08697 9.47031 8.15397 8.62687 8.75556L4.83646 11.4597C4.41821 11.7616 3.91543 11.9241 3.39956 11.9241H3.39651Z" fill="#45C4A0"/>
</g>
<defs>
<clipPath id="clip0_99_7435">
<rect width="26.0156" height="26.0146" fill="white"/>
</clipPath>
</defs>
</svg>
