<svg width="46" height="46" viewBox="0 0 46 46" fill="none" xmlns="http://www.w3.org/2000/svg">
<g clip-path="url(#clip0_2172_6635)">
<path d="M34.7071 6.49314C32.3786 2.52431 27.8708 0 22.9982 0C16.8033 0 11.4187 4.06765 9.99397 9.6391C5.4538 10.1332 1.91797 13.7876 1.91797 18.2056C1.91797 22.9596 6.01257 26.8296 11.0432 26.8296H33.25C39.2221 26.8296 44.0803 22.2445 44.0803 16.6066C44.0803 11.4555 40.0252 7.15252 34.7071 6.49314Z" fill="#3F7FE0"/>
<path d="M44.0792 37.3706H30.6635V35.9333C30.6626 35.0439 30.3089 34.1913 29.68 33.5624C29.0511 32.9336 28.1985 32.5799 27.3091 32.5789H24.9142V25.872C24.9142 25.3635 24.7122 24.8759 24.3527 24.5164C23.9932 24.1569 23.5056 23.9549 22.9971 23.9549C22.4887 23.9549 22.0011 24.1569 21.6416 24.5164C21.2821 24.8759 21.0801 25.3635 21.0801 25.872V32.5789H18.6852C17.7958 32.5799 16.9432 32.9336 16.3143 33.5624C15.6854 34.1913 15.3317 35.0439 15.3308 35.9333V37.3706H1.91509C1.40666 37.3706 0.91905 37.5726 0.559535 37.9321C0.20002 38.2916 -0.00195312 38.7792 -0.00195312 39.2877C-0.00195312 39.7961 0.20002 40.2837 0.559535 40.6432C0.91905 41.0027 1.40666 41.2047 1.91509 41.2047H15.3326V42.642C15.3345 43.5306 15.6883 44.3822 16.3166 45.0106C16.9449 45.6389 17.7966 45.9927 18.6852 45.9946H27.3091C28.1987 45.9932 29.0513 45.6391 29.6801 45.0099C30.3089 44.3808 30.6626 43.5279 30.6635 42.6384V41.2011H44.0792C44.5876 41.2011 45.0752 40.9991 45.4348 40.6396C45.7943 40.2801 45.9963 39.7925 45.9963 39.2841C45.9963 38.7756 45.7943 38.288 45.4348 37.9285C45.0752 37.569 44.5876 37.367 44.0792 37.367V37.3706Z" fill="#ADD8FF"/>
</g>
<defs>
<clipPath id="clip0_2172_6635">
<rect width="46" height="45.9982" fill="white"/>
</clipPath>
</defs>
</svg>
