<svg width="30" height="25" viewBox="0 0 30 25" fill="none" xmlns="http://www.w3.org/2000/svg">
<path d="M24.72 7.83806V13.8826C24.7185 15.1648 24.2085 16.3941 23.3018 17.3007C22.3951 18.2074 21.1659 18.7174 19.8837 18.7189H2.95825V21.1365C2.95915 21.7774 3.21415 22.3918 3.66734 22.845C4.12053 23.2982 4.73493 23.5532 5.37584 23.5541H24.72C25.3609 23.5532 25.9753 23.2982 26.4285 22.845C26.8817 22.3918 27.1367 21.7774 27.1376 21.1365V10.2556C27.1367 9.61474 26.8817 9.00034 26.4285 8.54715C25.9753 8.09396 25.3609 7.83896 24.72 7.83806Z" fill="#E3D8EE"/>
<path d="M22.8604 0.584152H3.51622C2.87531 0.585052 2.26091 0.84005 1.80772 1.29324C1.35453 1.74643 1.09953 2.36083 1.09863 3.00174V13.8826C1.09953 14.5235 1.35453 15.1379 1.80772 15.5911C2.26091 16.0443 2.87531 16.2993 3.51622 16.3002H22.8604C23.5013 16.2993 24.1157 16.0443 24.5689 15.5911C25.022 15.1379 25.277 14.5235 25.2779 13.8826V3.00174C25.277 2.36083 25.022 1.74643 24.5689 1.29324C24.1157 0.84005 23.5013 0.585052 22.8604 0.584152ZM22.8604 6.02458L14.5184 10.2318C14.1083 10.4472 13.652 10.5592 13.1889 10.5583C12.7199 10.5606 12.2581 10.4436 11.8469 10.2182L3.51736 6.02458V3.99349L12.6811 8.61219C12.8351 8.69423 13.0066 8.73817 13.1811 8.74034C13.3556 8.74251 13.5281 8.70284 13.6842 8.62465L22.8649 3.99349L22.8604 6.02458Z" fill="#A07CC5"/>
</svg>
