<svg width="65" height="87" viewBox="0 0 65 87" fill="none" xmlns="http://www.w3.org/2000/svg">
<path d="M61.0897 32.9107C61.0897 30.8307 60.903 28.8307 60.5564 26.9107H32.9297V38.2707H48.7164C48.023 41.924 45.943 45.0174 42.823 47.0974V54.484H52.343C57.8897 49.364 61.0897 41.844 61.0897 32.9107Z" fill="#4285F4"/>
<path d="M32.9298 61.5777C40.8498 61.5777 47.4898 58.9644 52.3432 54.4844L42.8232 47.0977C40.2098 48.8577 36.8765 49.9244 32.9298 49.9244C25.3032 49.9244 18.8232 44.7777 16.5032 37.8444H6.74316V45.4177C11.5698 54.991 21.4632 61.5777 32.9298 61.5777Z" fill="#34A853"/>
<path d="M16.5033 37.8175C15.9167 36.0575 15.57 34.1909 15.57 32.2442C15.57 30.2975 15.9167 28.4309 16.5033 26.6709V19.0975H6.74335C4.74335 23.0442 3.59668 27.4975 3.59668 32.2442C3.59668 36.9909 4.74335 41.4442 6.74335 45.3909L14.3433 39.4709L16.5033 37.8175Z" fill="#FBBC05"/>
<path d="M32.9298 14.5908C37.2498 14.5908 41.0898 16.0841 44.1565 18.9641L52.5565 10.5641C47.4632 5.81743 40.8498 2.91077 32.9298 2.91077C21.4632 2.91077 11.5698 9.49743 6.74316 19.0974L16.5032 26.6708C18.8232 19.7374 25.3032 14.5908 32.9298 14.5908Z" fill="#EA4335"/>
<path d="M17.4387 83.424C16.8307 83.424 16.2827 83.318 15.7947 83.106C15.3067 82.894 14.8907 82.592 14.5467 82.2C14.2067 81.808 13.9467 81.336 13.7667 80.784C13.5867 80.228 13.4967 79.608 13.4967 78.924C13.4967 78.02 13.6527 77.232 13.9647 76.56C14.2807 75.884 14.7327 75.36 15.3207 74.988C15.9087 74.616 16.6147 74.43 17.4387 74.43C18.3587 74.43 19.1067 74.646 19.6827 75.078C20.2627 75.506 20.6667 76.082 20.8947 76.806L20.0067 77.022C19.8187 76.494 19.5087 76.072 19.0767 75.756C18.6487 75.44 18.1147 75.282 17.4747 75.282C16.7987 75.278 16.2367 75.43 15.7887 75.738C15.3407 76.042 15.0027 76.47 14.7747 77.022C14.5507 77.57 14.4367 78.204 14.4327 78.924C14.4287 79.644 14.5387 80.278 14.7627 80.826C14.9907 81.37 15.3307 81.798 15.7827 82.11C16.2347 82.418 16.7987 82.574 17.4747 82.578C18.0947 82.578 18.6067 82.458 19.0107 82.218C19.4147 81.978 19.7207 81.634 19.9287 81.186C20.1407 80.738 20.2607 80.208 20.2887 79.596H18.2967V78.84H21.2127C21.2247 78.932 21.2307 79.03 21.2307 79.134C21.2347 79.234 21.2367 79.306 21.2367 79.35C21.2367 80.13 21.0967 80.828 20.8167 81.444C20.5367 82.056 20.1147 82.54 19.5507 82.896C18.9907 83.248 18.2867 83.424 17.4387 83.424ZM25.1437 83.424C24.4997 83.424 23.9497 83.278 23.4937 82.986C23.0377 82.694 22.6877 82.29 22.4437 81.774C22.1997 81.258 22.0777 80.666 22.0777 79.998C22.0777 79.318 22.2017 78.722 22.4497 78.21C22.6977 77.698 23.0497 77.3 23.5057 77.016C23.9657 76.728 24.5117 76.584 25.1437 76.584C25.7917 76.584 26.3437 76.73 26.7997 77.022C27.2597 77.31 27.6097 77.712 27.8497 78.228C28.0937 78.74 28.2157 79.33 28.2157 79.998C28.2157 80.678 28.0937 81.276 27.8497 81.792C27.6057 82.304 27.2537 82.704 26.7937 82.992C26.3337 83.28 25.7837 83.424 25.1437 83.424ZM25.1437 82.578C25.8637 82.578 26.3997 82.34 26.7517 81.864C27.1037 81.384 27.2797 80.762 27.2797 79.998C27.2797 79.214 27.1017 78.59 26.7457 78.126C26.3937 77.662 25.8597 77.43 25.1437 77.43C24.6597 77.43 24.2597 77.54 23.9437 77.76C23.6317 77.976 23.3977 78.278 23.2417 78.666C23.0897 79.05 23.0137 79.494 23.0137 79.998C23.0137 80.778 23.1937 81.404 23.5537 81.876C23.9137 82.344 24.4437 82.578 25.1437 82.578ZM32.2452 83.424C31.6012 83.424 31.0512 83.278 30.5952 82.986C30.1392 82.694 29.7892 82.29 29.5452 81.774C29.3012 81.258 29.1792 80.666 29.1792 79.998C29.1792 79.318 29.3032 78.722 29.5512 78.21C29.7992 77.698 30.1512 77.3 30.6072 77.016C31.0672 76.728 31.6132 76.584 32.2452 76.584C32.8932 76.584 33.4452 76.73 33.9012 77.022C34.3612 77.31 34.7112 77.712 34.9512 78.228C35.1952 78.74 35.3172 79.33 35.3172 79.998C35.3172 80.678 35.1952 81.276 34.9512 81.792C34.7072 82.304 34.3552 82.704 33.8952 82.992C33.4352 83.28 32.8852 83.424 32.2452 83.424ZM32.2452 82.578C32.9652 82.578 33.5012 82.34 33.8532 81.864C34.2052 81.384 34.3812 80.762 34.3812 79.998C34.3812 79.214 34.2032 78.59 33.8472 78.126C33.4952 77.662 32.9612 77.43 32.2452 77.43C31.7612 77.43 31.3612 77.54 31.0452 77.76C30.7332 77.976 30.4992 78.278 30.3432 78.666C30.1912 79.05 30.1152 79.494 30.1152 79.998C30.1152 80.778 30.2952 81.404 30.6552 81.876C31.0152 82.344 31.5452 82.578 32.2452 82.578ZM39.2148 86.304C38.8828 86.304 38.5548 86.254 38.2308 86.154C37.9108 86.058 37.6148 85.904 37.3428 85.692C37.0708 85.484 36.8428 85.212 36.6588 84.876L37.4568 84.432C37.6368 84.792 37.8888 85.05 38.2128 85.206C38.5408 85.366 38.8748 85.446 39.2148 85.446C39.6828 85.446 40.0608 85.358 40.3488 85.182C40.6408 85.01 40.8528 84.754 40.9848 84.414C41.1168 84.074 41.1808 83.65 41.1768 83.142V81.414H41.2788V76.764H42.0648V83.154C42.0648 83.338 42.0588 83.514 42.0468 83.682C42.0388 83.854 42.0208 84.022 41.9928 84.186C41.9168 84.67 41.7588 85.068 41.5188 85.38C41.2828 85.692 40.9708 85.924 40.5828 86.076C40.1988 86.228 39.7428 86.304 39.2148 86.304ZM39.1548 83.424C38.5508 83.424 38.0348 83.274 37.6068 82.974C37.1788 82.67 36.8508 82.26 36.6228 81.744C36.3948 81.228 36.2808 80.646 36.2808 79.998C36.2808 79.354 36.3928 78.774 36.6168 78.258C36.8448 77.742 37.1708 77.334 37.5948 77.034C38.0188 76.734 38.5268 76.584 39.1188 76.584C39.7268 76.584 40.2388 76.732 40.6548 77.028C41.0708 77.324 41.3848 77.73 41.5968 78.246C41.8128 78.758 41.9208 79.342 41.9208 79.998C41.9208 80.642 41.8148 81.224 41.6028 81.744C41.3908 82.26 41.0788 82.67 40.6668 82.974C40.2548 83.274 39.7508 83.424 39.1548 83.424ZM39.2448 82.602C39.7048 82.602 40.0848 82.49 40.3848 82.266C40.6848 82.042 40.9088 81.734 41.0568 81.342C41.2048 80.946 41.2788 80.498 41.2788 79.998C41.2788 79.49 41.2048 79.042 41.0568 78.654C40.9088 78.262 40.6848 77.956 40.3848 77.736C40.0888 77.516 39.7148 77.406 39.2628 77.406C38.7988 77.406 38.4148 77.52 38.1108 77.748C37.8068 77.976 37.5808 78.286 37.4328 78.678C37.2888 79.07 37.2168 79.51 37.2168 79.998C37.2168 80.49 37.2908 80.934 37.4388 81.33C37.5908 81.722 37.8168 82.032 38.1168 82.26C38.4168 82.488 38.7928 82.602 39.2448 82.602ZM43.8623 83.244V74.424H44.7443V83.244H43.8623ZM49.2851 83.424C48.6531 83.424 48.1051 83.284 47.6411 83.004C47.1811 82.724 46.8231 82.33 46.5671 81.822C46.3111 81.314 46.1831 80.718 46.1831 80.034C46.1831 79.326 46.3091 78.714 46.5611 78.198C46.8131 77.682 47.1671 77.284 47.6231 77.004C48.0831 76.724 48.6251 76.584 49.2491 76.584C49.8891 76.584 50.4351 76.732 50.8871 77.028C51.3391 77.32 51.6811 77.74 51.9131 78.288C52.1451 78.836 52.2511 79.49 52.2311 80.25H51.3311V79.938C51.3151 79.098 51.1331 78.464 50.7851 78.036C50.4411 77.608 49.9371 77.394 49.2731 77.394C48.5771 77.394 48.0431 77.62 47.6711 78.072C47.3031 78.524 47.1191 79.168 47.1191 80.004C47.1191 80.82 47.3031 81.454 47.6711 81.906C48.0431 82.354 48.5691 82.578 49.2491 82.578C49.7131 82.578 50.1171 82.472 50.4611 82.26C50.8091 82.044 51.0831 81.734 51.2831 81.33L52.1051 81.648C51.8491 82.212 51.4711 82.65 50.9711 82.962C50.4751 83.27 49.9131 83.424 49.2851 83.424ZM46.8071 80.25V79.512H51.7571V80.25H46.8071Z" fill="#38424E"/>
</svg>
