<svg width="44" height="44" viewBox="0 0 44 44" fill="none" xmlns="http://www.w3.org/2000/svg">
<path d="M1 8C1 4.13401 4.13401 1 8 1H36C39.866 1 43 4.13401 43 8V36C43 39.866 39.866 43 36 43H8C4.13401 43 1 39.866 1 36V8Z" fill="#EA4335"/>
<path d="M14.5532 18.2583C15.2465 16.8777 16.3101 15.7171 17.6252 14.9062C18.9402 14.0953 20.4549 13.6662 21.9998 13.6667C24.2457 13.6667 26.1323 14.4925 27.5748 15.8375L25.1857 18.2275C24.3215 17.4017 23.2232 16.9808 21.9998 16.9808C19.829 16.9808 17.9915 18.4475 17.3373 20.4167C17.1707 20.9167 17.0757 21.45 17.0757 22C17.0757 22.55 17.1707 23.0833 17.3373 23.5833C17.9923 25.5533 19.829 27.0192 21.9998 27.0192C23.1207 27.0192 24.0748 26.7233 24.8215 26.2233C25.2544 25.9383 25.6249 25.5685 25.9108 25.1362C26.1967 24.704 26.392 24.2182 26.4848 23.7083H21.9998V20.485H29.8482C29.9465 21.03 29.9998 21.5983 29.9998 22.1892C29.9998 24.7275 29.0915 26.8642 27.5148 28.3142C26.1365 29.5875 24.2498 30.3333 21.9998 30.3333C20.9054 30.3338 19.8215 30.1185 18.8103 29.6999C17.799 29.2812 16.8802 28.6674 16.1063 27.8935C15.3324 27.1196 14.7186 26.2008 14.2999 25.1895C13.8813 24.1783 13.6661 23.0945 13.6665 22C13.6665 20.655 13.9882 19.3833 14.5532 18.2583Z" fill="white"/>
<path d="M1 8C1 4.13401 4.13401 1 8 1H36C39.866 1 43 4.13401 43 8V36C43 39.866 39.866 43 36 43H8C4.13401 43 1 39.866 1 36V8Z" stroke="#EA4335" stroke-width="2"/>
</svg>
