<svg width="37" height="17" viewBox="0 0 37 17" fill="none" xmlns="http://www.w3.org/2000/svg">
<path d="M0.49 2.632L9.148 6.646V8.608L0.49 12.622V10.714L7.618 7.654L0.49 4.558V2.632ZM20.0829 14.584V16.258H10.3809V14.584H20.0829ZM25.736 13.18C24.308 13.18 23.186 12.664 22.37 11.632C21.566 10.588 21.164 9.064 21.164 7.06C21.164 5.056 21.566 3.538 22.37 2.506C23.186 1.462 24.308 0.94 25.736 0.94C27.176 0.94 28.298 1.462 29.102 2.506C29.918 3.538 30.326 5.056 30.326 7.06C30.326 9.064 29.918 10.588 29.102 11.632C28.298 12.664 27.176 13.18 25.736 13.18ZM25.736 11.542C26.312 11.542 26.792 11.38 27.176 11.056C27.572 10.72 27.866 10.222 28.058 9.562C28.262 8.89 28.364 8.056 28.364 7.06C28.364 6.064 28.262 5.236 28.058 4.576C27.866 3.904 27.572 3.406 27.176 3.082C26.792 2.746 26.312 2.578 25.736 2.578C25.16 2.578 24.674 2.746 24.278 3.082C23.894 3.406 23.606 3.904 23.414 4.576C23.222 5.236 23.126 6.064 23.126 7.06C23.126 8.056 23.222 8.89 23.414 9.562C23.606 10.222 23.894 10.72 24.278 11.056C24.674 11.38 25.16 11.542 25.736 11.542ZM35.0407 13V4.846C35.0407 4.606 35.0407 4.36 35.0407 4.108C35.0527 3.844 35.0647 3.568 35.0767 3.28C34.6687 3.676 34.2007 4.018 33.6727 4.306C33.1567 4.582 32.6227 4.78 32.0707 4.9L31.7107 3.226C31.9627 3.19 32.2567 3.106 32.5927 2.974C32.9287 2.842 33.2767 2.674 33.6367 2.47C33.9967 2.266 34.3267 2.05 34.6267 1.822C34.9267 1.582 35.1607 1.348 35.3287 1.12H36.9487V13H35.0407Z" fill="#FE626B"/>
</svg>
