<svg width="41" height="17" viewBox="0 0 41 17" fill="none" xmlns="http://www.w3.org/2000/svg">
<path d="M0.49 2.632L9.148 6.646V8.608L0.49 12.622V10.714L7.618 7.654L0.49 4.558V2.632ZM20.0653 14.584V16.258H10.3633V14.584H20.0653ZM25.7184 13.18C22.8564 13.18 21.1464 11.056 21.1464 7.06C21.1464 3.064 22.8564 0.94 25.7184 0.94C28.5804 0.94 30.3084 3.064 30.3084 7.06C30.3084 11.056 28.5804 13.18 25.7184 13.18ZM25.7184 11.542C27.4464 11.542 28.3464 10.048 28.3464 7.06C28.3464 4.072 27.4464 2.578 25.7184 2.578C23.9904 2.578 23.1084 4.072 23.1084 7.06C23.1084 10.048 23.9904 11.542 25.7184 11.542ZM32.6291 13V11.578C37.1831 8.374 38.6951 6.736 38.6951 4.756C38.6951 3.496 37.8491 2.614 36.4451 2.614C34.9511 2.614 34.0511 3.676 33.9251 5.404L32.2511 4.63C32.4851 2.38 34.0511 0.94 36.5531 0.94C39.1811 0.94 40.6751 2.596 40.6751 4.684C40.6751 6.952 39.1271 8.86 35.1851 11.38V11.416C35.6351 11.38 36.6611 11.344 37.1471 11.344H40.8911V13H32.6291Z" fill="#AE36B9"/>
</svg>
