<svg width="41" height="17" viewBox="0 0 41 17" fill="none" xmlns="http://www.w3.org/2000/svg">
<path d="M0.49 2.632L9.148 6.646V8.608L0.49 12.622V10.714L7.618 7.654L0.49 4.558V2.632ZM20.0653 14.584V16.258H10.3633V14.584H20.0653ZM25.7184 13.18C22.8564 13.18 21.1464 11.056 21.1464 7.06C21.1464 3.064 22.8564 0.94 25.7184 0.94C28.5804 0.94 30.3084 3.064 30.3084 7.06C30.3084 11.056 28.5804 13.18 25.7184 13.18ZM25.7184 11.542C27.4464 11.542 28.3464 10.048 28.3464 7.06C28.3464 4.072 27.4464 2.578 25.7184 2.578C23.9904 2.578 23.1084 4.072 23.1084 7.06C23.1084 10.048 23.9904 11.542 25.7184 11.542ZM36.3619 13.18C34.1119 13.18 32.3839 12.136 31.7719 10.336L33.6439 9.454C33.9859 10.768 34.7959 11.524 36.4339 11.524C37.8199 11.524 38.6299 10.714 38.6299 9.526C38.6299 8.356 37.9639 7.798 36.4879 7.798C36.1999 7.798 35.9119 7.816 35.5699 7.852V6.232C35.7859 6.25 35.9839 6.268 36.1819 6.268C37.7299 6.268 38.3599 5.656 38.3599 4.342C38.3599 3.208 37.6399 2.596 36.3799 2.596C35.0479 2.596 34.3819 3.244 34.0039 4.378L32.2399 3.64C32.7439 2.002 34.3639 0.922 36.4699 0.922C39.0079 0.922 40.3039 2.308 40.3039 4.072C40.3039 5.89 39.1159 6.826 38.0719 6.988V7.024C39.4219 7.06 40.5739 8.086 40.5739 9.58C40.5739 11.74 38.8459 13.18 36.3619 13.18Z" fill="#D3AA15"/>
</svg>
