<svg width="42" height="17" viewBox="0 0 42 17" fill="none" xmlns="http://www.w3.org/2000/svg">
<path d="M0.49 2.632L9.148 6.646V8.608L0.49 12.622V10.714L7.618 7.654L0.49 4.558V2.632ZM20.0653 14.584V16.258H10.3633V14.584H20.0653ZM25.7184 13.18C22.8564 13.18 21.1464 11.056 21.1464 7.06C21.1464 3.064 22.8564 0.94 25.7184 0.94C28.5804 0.94 30.3084 3.064 30.3084 7.06C30.3084 11.056 28.5804 13.18 25.7184 13.18ZM25.7184 11.542C27.4464 11.542 28.3464 10.048 28.3464 7.06C28.3464 4.072 27.4464 2.578 25.7184 2.578C23.9904 2.578 23.1084 4.072 23.1084 7.06C23.1084 10.048 23.9904 11.542 25.7184 11.542ZM37.9571 13V10.03H32.1611V8.716C32.2151 8.608 32.3231 8.428 32.4671 8.212L37.4171 1.12H39.7751V8.536H41.7911V10.03H39.7751V13H37.9571ZM33.9611 8.536H37.9571V4.342C37.9571 3.748 38.0111 3.154 38.0291 2.542H37.9931C37.7231 3.1 37.2551 3.874 36.8951 4.378L34.0871 8.374C34.0511 8.428 34.0151 8.482 33.9611 8.536Z" fill="#58C532"/>
</svg>
