<svg width="41" height="40" viewBox="0 0 41 40" fill="none" xmlns="http://www.w3.org/2000/svg">
<g clip-path="url(#clip0_2124_6340)">
<path d="M35.5 0H5.5C2.73858 0 0.5 2.23858 0.5 5V35C0.5 37.7614 2.73858 40 5.5 40H35.5C38.2614 40 40.5 37.7614 40.5 35V5C40.5 2.23858 38.2614 0 35.5 0Z" fill="#FF620A" fill-opacity="0.1"/>
<g clip-path="url(#clip1_2124_6340)">
<path d="M12.1895 29.6641L10.3477 9H30.6074L28.7656 29.6641L20.4551 32" fill="#E34F26"/>
<path d="M20.5 30.2031L27.1934 28.3613L28.7656 10.6621H20.5" fill="#EF652A"/>
<path d="M20.5 18.3438H17.1309L16.9062 15.7383H20.5V13.2227H20.4551H14.1211L14.166 13.8965L14.7949 20.9043H20.5V18.3438ZM20.5 24.9473H20.4551L17.625 24.1836L17.4453 22.1621H16.0977H14.9297L15.2441 26.1602L20.4551 27.5977H20.5V24.9473Z" fill="#EBEBEB"/>
<path d="M20.4531 18.3438V20.9043H23.5977L23.2832 24.1836L20.4531 24.9473V27.5977L25.6641 26.1602L25.709 25.7109L26.293 19.0176L26.3828 18.3438H25.6641H20.4531ZM20.4531 13.2227V14.7949V15.7383H26.6074L26.6523 15.1992L26.7871 13.8965L26.832 13.2227H20.4531Z" fill="white"/>
</g>
</g>
<defs>
<clipPath id="clip0_2124_6340">
<rect width="40" height="40" fill="white" transform="translate(0.5)"/>
</clipPath>
<clipPath id="clip1_2124_6340">
<rect width="23" height="23" fill="white" transform="translate(9 9)"/>
</clipPath>
</defs>
</svg>
