<svg width="30" height="30" viewBox="0 0 30 30" fill="none" xmlns="http://www.w3.org/2000/svg">
<g clip-path="url(#clip0_99_7421)">
<path d="M14.5196 20.569C17.8606 20.569 20.5691 17.8606 20.5691 14.5196C20.5691 11.1785 17.8606 8.47012 14.5196 8.47012C11.1786 8.47012 8.47021 11.1785 8.47021 14.5196C8.47021 17.8606 11.1786 20.569 14.5196 20.569Z" fill="#E668B3"/>
<path d="M14.5194 26.6195C12.1263 26.6195 9.78687 25.9099 7.79703 24.5803C5.8072 23.2507 4.25632 21.361 3.3405 19.15C2.42468 16.939 2.18506 14.5061 2.65194 12.1589C3.11882 9.81176 4.27123 7.65575 5.96344 5.96353C7.65566 4.27132 9.81167 3.11891 12.1588 2.65203C14.506 2.18515 16.9389 2.42477 19.1499 3.34059C21.3609 4.25641 23.2506 5.80729 24.5802 7.79712C25.9098 9.78696 26.6194 12.1264 26.6194 14.5195C26.6158 17.7275 25.3398 20.8031 23.0714 23.0715C20.803 25.3399 17.7274 26.6159 14.5194 26.6195ZM14.5194 4.84021C12.605 4.84021 10.7336 5.40789 9.14189 6.47147C7.55014 7.53504 6.30951 9.04674 5.57691 10.8154C4.84431 12.5841 4.65262 14.5303 5.0261 16.4079C5.39958 18.2855 6.32144 20.0101 7.67512 21.3638C9.0288 22.7175 10.7535 23.6394 12.6311 24.0128C14.5087 24.3863 16.4549 24.1946 18.2235 23.462C19.9922 22.7294 21.5039 21.4888 22.5675 19.8971C23.6311 18.3053 24.1987 16.4339 24.1987 14.5195C24.1957 11.9533 23.175 9.4931 21.3604 7.67853C19.5458 5.86396 17.0856 4.84321 14.5194 4.84021Z" fill="#F8D2E8"/>
<path d="M14.5195 6.05056C14.1985 6.05056 13.8907 5.92304 13.6637 5.69606C13.4367 5.46908 13.3092 5.16122 13.3092 4.84022V1.21034C13.3092 1.0514 13.3405 0.894008 13.4013 0.747162C13.4621 0.600317 13.5513 0.466891 13.6637 0.3545C13.7761 0.24211 13.9095 0.152957 14.0564 0.0921316C14.2032 0.0313063 14.3606 0 14.5195 0C14.6785 0 14.8359 0.0313063 14.9827 0.0921316C15.1296 0.152957 15.263 0.24211 15.3754 0.3545C15.4878 0.466891 15.5769 0.600317 15.6377 0.747162C15.6986 0.894008 15.7299 1.0514 15.7299 1.21034V4.84022C15.7299 5.16122 15.6024 5.46908 15.3754 5.69606C15.1484 5.92304 14.8405 6.05056 14.5195 6.05056ZM14.5195 29.0391C14.1985 29.0391 13.8907 28.9115 13.6637 28.6846C13.4367 28.4576 13.3092 28.1497 13.3092 27.8287V24.1988C13.3092 24.0399 13.3405 23.8825 13.4013 23.7357C13.4621 23.5888 13.5513 23.4554 13.6637 23.343C13.7761 23.2306 13.9095 23.1415 14.0564 23.0806C14.2032 23.0198 14.3606 22.9885 14.5195 22.9885C14.6785 22.9885 14.8359 23.0198 14.9827 23.0806C15.1296 23.1415 15.263 23.2306 15.3754 23.343C15.4878 23.4554 15.5769 23.5888 15.6377 23.7357C15.6986 23.8825 15.7299 24.0399 15.7299 24.1988V27.8287C15.73 27.9877 15.6988 28.1452 15.638 28.2921C15.5773 28.439 15.4881 28.5725 15.3757 28.6849C15.2633 28.7973 15.1298 28.8865 14.9829 28.9472C14.836 29.008 14.6785 29.0392 14.5195 29.0391ZM4.84022 15.7299H1.21034C0.889337 15.7299 0.581483 15.6024 0.3545 15.3754C0.127518 15.1484 0 14.8405 0 14.5195C0 14.1985 0.127518 13.8907 0.3545 13.6637C0.581483 13.4367 0.889337 13.3092 1.21034 13.3092H4.84022C5.16122 13.3092 5.46908 13.4367 5.69606 13.6637C5.92304 13.8907 6.05056 14.1985 6.05056 14.5195C6.05056 14.8405 5.92304 15.1484 5.69606 15.3754C5.46908 15.6024 5.16122 15.7299 4.84022 15.7299ZM27.8287 15.7299H24.1988C23.8778 15.7299 23.57 15.6024 23.343 15.3754C23.116 15.1484 22.9885 14.8405 22.9885 14.5195C22.9885 14.1985 23.116 13.8907 23.343 13.6637C23.57 13.4367 23.8778 13.3092 24.1988 13.3092H27.8287C28.1497 13.3092 28.4576 13.4367 28.6846 13.6637C28.9115 13.8907 29.0391 14.1985 29.0391 14.5195C29.0391 14.8405 28.9115 15.1484 28.6846 15.3754C28.4576 15.6024 28.1497 15.7299 27.8287 15.7299Z" fill="#E668B3"/>
</g>
<defs>
<clipPath id="clip0_99_7421">
<rect width="29.0391" height="29.0391" fill="white"/>
</clipPath>
</defs>
</svg>
