<svg width="26" height="24" viewBox="0 0 26 24" fill="none" xmlns="http://www.w3.org/2000/svg">
<g clip-path="url(#clip0_230_13979)">
<path d="M17.6043 14.9782H11.1043V13.8956C11.1046 13.7346 11.0571 13.5771 10.9678 13.4432C10.8785 13.3092 10.7514 13.2048 10.6026 13.1432C10.4539 13.0816 10.2902 13.0656 10.1323 13.0972C9.97445 13.1288 9.82953 13.2066 9.71595 13.3207L7.8208 15.2159C7.66854 15.3683 7.58301 15.5748 7.58301 15.7902C7.58301 16.0056 7.66854 16.2122 7.8208 16.3646L9.71595 18.2628C9.82959 18.3769 9.9746 18.4548 10.1326 18.4863C10.2905 18.5179 10.4543 18.5018 10.6031 18.4401C10.7519 18.3784 10.879 18.2738 10.9682 18.1397C11.0575 18.0056 11.1048 17.848 11.1043 17.6869V16.6012H17.6043C17.8198 16.6012 18.0265 16.5156 18.1788 16.3632C18.3312 16.2109 18.4168 16.0042 18.4168 15.7887C18.4168 15.5732 18.3312 15.3666 18.1788 15.2142C18.0265 15.0618 17.8198 14.9762 17.6043 14.9762V14.9782ZM18.1802 20.6332L16.284 18.736C16.1703 18.6222 16.0254 18.5447 15.8676 18.5134C15.7098 18.482 15.5463 18.4982 15.3977 18.5598C15.2491 18.6215 15.1221 18.7259 15.033 18.8598C14.9438 18.9937 14.8963 19.151 14.8967 19.3119V20.3956H8.39665C8.18117 20.3956 7.9745 20.4812 7.82213 20.6336C7.66976 20.7859 7.58415 20.9926 7.58415 21.2081C7.58415 21.4236 7.66976 21.6302 7.82213 21.7826C7.9745 21.935 8.18117 22.0206 8.39665 22.0206H14.8967V23.1043C14.8963 23.2651 14.9438 23.4225 15.033 23.5564C15.1221 23.6903 15.2491 23.7947 15.3977 23.8563C15.5463 23.918 15.7098 23.9342 15.8676 23.9028C16.0254 23.8714 16.1703 23.7939 16.284 23.6801L18.1802 21.7829C18.2557 21.7075 18.3156 21.6179 18.3565 21.5192C18.3974 21.4206 18.4185 21.3149 18.4185 21.2081C18.4185 21.1013 18.3974 20.9956 18.3565 20.8969C18.3156 20.7983 18.2557 20.7087 18.1802 20.6332Z" fill="#F3C0C4"/>
<path d="M20.2262 4.34064C19.5131 3.04912 18.4663 1.97273 17.1952 1.22383C15.9241 0.474926 14.4753 0.0809871 13 0.0831386C9.15992 0.0831386 5.82867 2.75423 4.9857 6.39829C2.18766 6.69079 0 9.04298 0 11.8908C0 14.6807 2.13281 17.4158 5.9018 17.4158C5.58505 16.9331 5.41664 16.3682 5.41734 15.7908C5.41734 14.2674 6.25016 13.725 8.18695 11.7882C8.53617 11.4378 8.96734 11.1801 9.44137 11.0385C9.91539 10.8969 10.4173 10.8759 10.9015 10.9774C11.3856 11.0789 11.8368 11.2996 12.2141 11.6196C12.5914 11.9397 12.8828 12.3488 13.062 12.8099H17.6048C18.3947 12.8105 19.1521 13.1245 19.7106 13.683C20.2691 14.2415 20.5831 14.9989 20.5837 15.7888C20.5823 16.3482 20.4217 16.8956 20.1205 17.367C23.4244 16.9933 26 14.2105 26 10.8406C25.9949 9.23971 25.4054 7.69573 24.3422 6.49881C23.279 5.3019 21.8153 4.53444 20.2262 4.34064Z" fill="#E2626B"/>
</g>
<defs>
<clipPath id="clip0_230_13979">
<rect width="26" height="23.8337" fill="white" transform="translate(0 0.0831299)"/>
</clipPath>
</defs>
</svg>
