<svg width="24" height="25" viewBox="0 0 24 25" fill="none" xmlns="http://www.w3.org/2000/svg">
<g clip-path="url(#clip0_127_2457)">
<path d="M14.1075 2.075C13.488 -0.025 10.512 -0.025 9.8925 2.075L9.7425 2.585C9.64994 2.89939 9.48818 3.18908 9.26909 3.43282C9.05 3.67656 8.77913 3.86817 8.47634 3.9936C8.17356 4.11902 7.84654 4.17509 7.51927 4.15768C7.192 4.14028 6.87277 4.04984 6.585 3.893L6.12 3.638C4.1955 2.591 2.091 4.6955 3.1395 6.6185L3.393 7.085C4.062 8.315 3.4275 9.8465 2.085 10.2425L1.575 10.3925C-0.525 11.012 -0.525 13.988 1.575 14.6075L2.085 14.7575C2.39939 14.8501 2.68908 15.0118 2.93282 15.2309C3.17656 15.45 3.36817 15.7209 3.4936 16.0237C3.61902 16.3264 3.67509 16.6535 3.65768 16.9807C3.64028 17.308 3.54984 17.6272 3.393 17.915L3.138 18.38C2.091 20.3045 4.1955 22.409 6.1185 21.3605L6.585 21.107C6.87277 20.9502 7.192 20.8597 7.51927 20.8423C7.84654 20.8249 8.17356 20.881 8.47634 21.0064C8.77913 21.1318 9.05 21.3234 9.26909 21.5672C9.48818 21.8109 9.64994 22.1006 9.7425 22.415L9.8925 22.925C10.512 25.025 13.488 25.025 14.1075 22.925L14.2575 22.415C14.3501 22.1006 14.5118 21.8109 14.7309 21.5672C14.95 21.3234 15.2209 21.1318 15.5237 21.0064C15.8264 20.881 16.1535 20.8249 16.4807 20.8423C16.808 20.8597 17.1272 20.9502 17.415 21.107L17.88 21.362C19.8045 22.409 21.909 20.3045 20.8605 18.3815L20.607 17.915C20.4502 17.6272 20.3597 17.308 20.3423 16.9807C20.3249 16.6535 20.381 16.3264 20.5064 16.0237C20.6318 15.7209 20.8234 15.45 21.0672 15.2309C21.3109 15.0118 21.6006 14.8501 21.915 14.7575L22.425 14.6075C24.525 13.988 24.525 11.012 22.425 10.3925L21.915 10.2425C21.6006 10.1499 21.3109 9.98818 21.0672 9.76909C20.8234 9.55 20.6318 9.27913 20.5064 8.97634C20.381 8.67356 20.3249 8.34654 20.3423 8.01927C20.3597 7.692 20.4502 7.37277 20.607 7.085L20.862 6.62C21.909 4.6955 19.8045 2.591 17.8815 3.6395L17.415 3.893C17.1272 4.04984 16.808 4.14028 16.4807 4.15768C16.1535 4.17509 15.8264 4.11902 15.5237 3.9936C15.2209 3.86817 14.95 3.67656 14.7309 3.43282C14.5118 3.18908 14.3501 2.89939 14.2575 2.585L14.1075 2.075ZM12 16.895C10.8344 16.895 9.71649 16.432 8.89227 15.6077C8.06804 14.7835 7.605 13.6656 7.605 12.5C7.605 11.3344 8.06804 10.2165 8.89227 9.39227C9.71649 8.56804 10.8344 8.105 12 8.105C13.1652 8.105 14.2827 8.56789 15.1067 9.39183C15.9306 10.2158 16.3935 11.3333 16.3935 12.4985C16.3935 13.6637 15.9306 14.7812 15.1067 15.6052C14.2827 16.4291 13.1652 16.892 12 16.892V16.895Z" fill="#216778"/>
</g>
<defs>
<clipPath id="clip0_127_2457">
<rect width="24" height="24" fill="white" transform="translate(0 0.5)"/>
</clipPath>
</defs>
</svg>
