<svg width="42" height="42" viewBox="0 0 42 42" fill="none" xmlns="http://www.w3.org/2000/svg">
<rect width="42" height="42" rx="8" fill="#B2C9F3" fill-opacity="0.2"/>
<path fill-rule="evenodd" clip-rule="evenodd" d="M9 13.9394C9 12.8683 9.8683 12 10.9394 12H26.3553C27.4264 12 28.2947 12.8683 28.2947 13.9394V23.9697C28.2947 25.0408 27.4264 25.9091 26.3553 25.9091H10.9394C9.8683 25.9091 9 25.0408 9 23.9697V13.9394ZM24.061 23.3075C23.7621 23.6414 23.3455 23.8485 22.8847 23.8485C21.975 23.8485 21.2376 23.0412 21.2376 22.0455C21.2376 21.0497 21.975 20.2424 22.8847 20.2424C23.3455 20.2424 23.7621 20.4495 24.061 20.7834C24.36 20.4495 24.7765 20.2424 25.2373 20.2424C26.147 20.2424 26.8844 21.0497 26.8844 22.0455C26.8844 23.0412 26.147 23.8485 25.2373 23.8485C24.7765 23.8485 24.36 23.6414 24.061 23.3075ZM17.4713 14.5757H10.4123V16.1211H17.4713V14.5757Z" fill="#4F379F"/>
<path fill-rule="evenodd" clip-rule="evenodd" d="M16.5298 26.9394V27.0605C16.5298 28.1316 17.3981 28.9999 18.4692 28.9999H31.0615C32.1325 28.9999 33.0008 28.1316 33.0008 27.0605V17.0302C33.0008 15.9591 32.1326 15.0908 31.0615 15.0908H29.2353V25C29.2353 26.0711 28.367 26.9394 27.2959 26.9394H16.5298Z" fill="#B2C9F3"/>
</svg>
