<svg width="45" height="44" viewBox="0 0 45 44" fill="none" xmlns="http://www.w3.org/2000/svg">
<g clip-path="url(#clip0_99_7712)">
<path d="M31.3661 2.68579e-07H13.0322C11.5735 2.68579e-07 10.1746 0.579463 9.14314 1.61091C8.11169 2.64236 7.53223 4.04131 7.53223 5.5V12.8339C7.53223 13.3203 7.72544 13.7867 8.06937 14.1307C8.41329 14.4746 8.87975 14.6678 9.36613 14.6678C9.85252 14.6678 10.319 14.4746 10.6629 14.1307C11.0068 13.7867 11.2 13.3203 11.2 12.8339V5.5C11.2 5.01362 11.3933 4.54716 11.7372 4.20323C12.0811 3.85931 12.5476 3.66609 13.0339 3.66609H31.55C31.7667 3.66609 31.9813 3.70877 32.1815 3.79169C32.3817 3.87461 32.5635 3.99615 32.7168 4.14937C32.87 4.30258 32.9915 4.48448 33.0744 4.68467C33.1574 4.88485 33.2 5.09941 33.2 5.31609V12.8322C33.2 13.3186 33.3933 13.785 33.7372 14.129C34.0811 14.4729 34.5476 14.6661 35.0339 14.6661C35.5203 14.6661 35.9868 14.4729 36.3307 14.129C36.6746 13.785 36.8679 13.3186 36.8679 12.8322V5.5C36.8679 4.77759 36.7255 4.06225 36.449 3.39484C36.1725 2.72744 35.7672 2.12105 35.2563 1.61031C34.7454 1.09956 34.1389 0.694469 33.4714 0.418169C32.8039 0.14187 32.0885 -0.000225486 31.3661 2.68579e-07Z" fill="#C7CBED"/>
<path d="M39.1591 11H5.24129C4.57922 10.9998 3.9236 11.13 3.31188 11.3833C2.70016 11.6365 2.14435 12.0078 1.67619 12.476C1.20804 12.9442 0.836726 13.5 0.583467 14.1117C0.330208 14.7234 0.199971 15.379 0.200196 16.0411V27.9572C0.199745 28.6194 0.329816 29.2752 0.582973 29.8871C0.836131 30.499 1.20741 31.0551 1.67559 31.5234C2.14376 31.9917 2.69966 32.3632 3.31148 32.6166C3.92331 32.8699 4.57908 33.0002 5.24129 33H11.2002V27.5H33.2002V33H39.1591C39.8212 33.0002 40.4768 32.87 41.0885 32.6167C41.7002 32.3635 42.256 31.9922 42.7242 31.524C43.1923 31.0558 43.5637 30.5 43.8169 29.8883C44.0702 29.2766 44.2004 28.621 44.2002 27.9589V16.0428C44.2006 15.3806 44.0706 14.7248 43.8174 14.1129C43.5643 13.501 43.193 12.9449 42.7248 12.4766C42.2566 12.0083 41.7007 11.6368 41.0889 11.3834C40.4771 11.1301 39.8213 10.9998 39.1591 11Z" fill="#605DBA"/>
<path d="M35.0322 23.8322H9.36613C9.12524 23.832 8.88666 23.8793 8.66406 23.9714C8.44146 24.0634 8.2392 24.1985 8.06886 24.3688C7.89852 24.5392 7.76345 24.7414 7.67136 24.964C7.57928 25.1866 7.532 25.4252 7.53223 25.6661V38.5C7.53223 39.9587 8.11169 41.3577 9.14314 42.3891C10.1746 43.4206 11.5735 44 13.0322 44H31.3661C32.8248 44 34.2238 43.4206 35.2552 42.3891C36.2867 41.3577 36.8661 39.9587 36.8661 38.5V25.6661C36.8657 25.1799 36.6723 24.7137 36.3285 24.3699C35.9847 24.026 35.5185 23.8327 35.0322 23.8322ZM28.1572 38.5H16.2429C15.8782 38.5 15.5284 38.3552 15.2706 38.0973C15.0127 37.8394 14.8679 37.4897 14.8679 37.125C14.8679 36.7604 15.0127 36.4106 15.2706 36.1528C15.5284 35.8949 15.8782 35.75 16.2429 35.75H28.1589C28.5236 35.75 28.8734 35.8949 29.1312 36.1528C29.3891 36.4106 29.5339 36.7604 29.5339 37.125C29.5339 37.4897 29.3891 37.8394 29.1312 38.0973C28.8734 38.3552 28.5236 38.5 28.1589 38.5H28.1572ZM28.1572 33H16.2429C15.8782 33 15.5284 32.8552 15.2706 32.5973C15.0127 32.3394 14.8679 31.9897 14.8679 31.625C14.8679 31.2604 15.0127 30.9106 15.2706 30.6528C15.5284 30.3949 15.8782 30.25 16.2429 30.25H28.1589C28.5236 30.25 28.8734 30.3949 29.1312 30.6528C29.3891 30.9106 29.5339 31.2604 29.5339 31.625C29.5339 31.9897 29.3891 32.3394 29.1312 32.5973C28.8734 32.8552 28.5236 33 28.1589 33H28.1572Z" fill="#C7CBED"/>
</g>
<defs>
<clipPath id="clip0_99_7712">
<rect width="44" height="44" fill="white" transform="translate(0.200195)"/>
</clipPath>
</defs>
</svg>
