<svg width="61" height="60" viewBox="0 0 61 60" fill="none" xmlns="http://www.w3.org/2000/svg">
<rect x="0.25" width="60" height="60" rx="8" fill="#216778" fill-opacity="0.08"/>
<path d="M37.9269 19.1667H22.7603C21.8983 19.1667 21.0717 19.5091 20.4622 20.1186C19.8527 20.7281 19.5103 21.5547 19.5103 22.4167V33.25C19.5103 34.112 19.8527 34.9386 20.4622 35.5481C21.0717 36.1576 21.8983 36.5 22.7603 36.5H25.6203L24.9919 37.5834C24.8018 37.9127 24.7016 38.2864 24.7016 38.6667C24.7016 39.047 24.8018 39.4206 24.9919 39.75C25.1837 40.0823 25.4603 40.3576 25.7934 40.548C26.1265 40.7383 26.5041 40.8368 26.8878 40.8334H33.8861C34.266 40.833 34.6392 40.7327 34.9682 40.5425C35.2971 40.3524 35.5703 40.0791 35.7603 39.75C35.9504 39.4206 36.0505 39.047 36.0505 38.6667C36.0505 38.2864 35.9504 37.9127 35.7603 37.5834L35.1211 36.5H37.9269C38.7889 36.5 39.6155 36.1576 40.225 35.5481C40.8345 34.9386 41.1769 34.112 41.1769 33.25V22.4167C41.1769 21.5547 40.8345 20.7281 40.225 20.1186C39.6155 19.5091 38.7889 19.1667 37.9269 19.1667ZM26.8444 38.6667L28.1769 36.5H32.5103L33.8103 38.6667H26.8444ZM39.0103 33.25C39.0103 33.5373 38.8961 33.8129 38.693 34.0161C38.4898 34.2192 38.2142 34.3334 37.9269 34.3334H22.7603C22.4729 34.3334 22.1974 34.2192 21.9942 34.0161C21.7911 33.8129 21.6769 33.5373 21.6769 33.25V32.1667H39.0103V33.25ZM39.0103 30H21.6769V22.4167C21.6769 22.1294 21.7911 21.8538 21.9942 21.6507C22.1974 21.4475 22.4729 21.3334 22.7603 21.3334H37.9269C38.2142 21.3334 38.4898 21.4475 38.693 21.6507C38.8961 21.8538 39.0103 22.1294 39.0103 22.4167V30Z" fill="#216778"/>
</svg>
