<svg width="36" height="36" viewBox="0 0 36 36" fill="none" xmlns="http://www.w3.org/2000/svg">
<rect width="36" height="35.9972" rx="4" fill="#216778"/>
<g clip-path="url(#clip0_1012_2819)">
<path d="M9.76855 26.3813L11.2914 22.8742C8.88088 19.4524 9.39296 14.7716 12.4863 11.9519C15.5796 9.13227 20.2877 9.05469 23.4722 11.7709C26.6567 14.4871 27.3228 19.1485 25.0263 22.6479C22.7299 26.1472 18.1885 27.3912 14.4293 25.5506L9.76855 26.3813" stroke="#E9F0F2" stroke-width="1.25" stroke-linecap="round" stroke-linejoin="round"/>
<path d="M15.3062 16.2292C15.3062 16.484 15.5128 16.6906 15.7676 16.6906C16.0225 16.6906 16.2291 16.484 16.2291 16.2292V15.3062C16.2291 15.0514 16.0225 14.8448 15.7676 14.8448C15.5128 14.8448 15.3062 15.0514 15.3062 15.3062V16.2292C15.3062 18.7777 17.3722 20.8437 19.9207 20.8437H20.8437C21.0985 20.8437 21.3051 20.6371 21.3051 20.3823C21.3051 20.1274 21.0985 19.9208 20.8437 19.9208H19.9207C19.6659 19.9208 19.4593 20.1274 19.4593 20.3823C19.4593 20.6371 19.6659 20.8437 19.9207 20.8437" stroke="#E9F0F2" stroke-width="1.25" stroke-linecap="round" stroke-linejoin="round"/>
</g>
<defs>
<clipPath id="clip0_1012_2819">
<rect width="22.15" height="22.15" fill="white" transform="translate(7 7)"/>
</clipPath>
</defs>
</svg>
