<svg width="42" height="43" viewBox="0 0 42 43" fill="none" xmlns="http://www.w3.org/2000/svg">
<rect width="42" height="42.0028" rx="8" fill="#B2C9F3" fill-opacity="0.2"/>
<g clip-path="url(#clip0_209_10243)">
<path d="M29.8018 17.5323C29.0142 17.5343 28.2544 17.2416 27.6716 16.7118V20.482H25.1213C25.3536 19.9593 25.4728 19.3934 25.471 18.8215C25.4694 18.1989 25.3294 17.5844 25.0612 17.0226C24.793 16.4608 24.4033 15.9656 23.9202 15.5728C23.4371 15.1801 22.8727 14.8997 22.2679 14.7519C21.6632 14.604 21.0331 14.5925 20.4233 14.7181C19.8135 14.8436 19.2393 15.1032 18.7421 15.478C18.2449 15.8527 17.8373 16.3333 17.5487 16.8849C17.2601 17.4366 17.0977 18.0455 17.0733 18.6676C17.0489 19.2897 17.163 19.9094 17.4076 20.482H14.3303V10.0745C14.3298 9.93365 14.3571 9.79409 14.4107 9.66381C14.4642 9.53353 14.5429 9.41509 14.6423 9.31527C14.7417 9.21546 14.8598 9.13623 14.9898 9.08213C15.1198 9.02803 15.2593 9.00012 15.4001 9H26.6018C26.8854 9.00025 27.1574 9.11304 27.358 9.31362C27.5585 9.51419 27.6713 9.78616 27.6716 10.0698V11.9497C28.0581 11.6047 28.5226 11.3588 29.0252 11.2332C29.5278 11.1076 30.0535 11.1059 30.5568 11.2285C31.0602 11.351 31.5263 11.594 31.9149 11.9366C32.3035 12.2792 32.6031 12.7111 32.7878 13.1951C32.9725 13.6792 33.0368 14.2008 32.9752 14.7152C32.9136 15.2296 32.7279 15.7213 32.4341 16.1481C32.1403 16.5748 31.7472 16.9237 31.2887 17.1648C30.8302 17.406 30.3199 17.5321 29.8018 17.5323Z" fill="#B2C9F3"/>
<path d="M22.3882 25.9942C22.2984 26.4577 22.3123 26.9354 22.4289 27.3929C22.5455 27.8505 22.7619 28.2765 23.0626 28.6406C23.3633 29.0046 23.7408 29.2976 24.168 29.4985C24.5953 29.6995 25.0617 29.8034 25.5339 29.8028C26.3227 29.8049 27.0837 29.5115 27.6669 28.9805V31.9358C27.6662 32.2184 27.5537 32.4892 27.3539 32.6892C27.1542 32.8891 26.8835 33.0018 26.6009 33.0028H15.4021C15.1193 33.0021 14.8483 32.8894 14.6484 32.6895C14.4485 32.4895 14.3358 32.2186 14.3351 31.9358V28.9805C13.9489 29.3274 13.4842 29.5752 12.9809 29.7024C12.4777 29.8296 11.951 29.8324 11.4464 29.7107C10.9418 29.5889 10.4744 29.3462 10.0846 29.0034C9.69475 28.6607 9.39417 28.2282 9.20878 27.7434C9.02339 27.2585 8.95878 26.7358 9.0205 26.2204C9.08223 25.705 9.26844 25.2124 9.56308 24.785C9.85771 24.3576 10.2519 24.0084 10.7117 23.7674C11.1714 23.5264 11.6829 23.4009 12.202 23.4017C12.9907 23.4001 13.7515 23.6934 14.3351 24.224V21.4862H19.5013C18.929 21.106 18.4943 20.5517 18.2616 19.9052C18.0288 19.2588 18.0103 18.5546 18.2089 17.8969C18.4075 17.2391 18.8125 16.6628 19.3641 16.2532C19.9156 15.8435 20.5844 15.6223 21.2715 15.6223C21.9586 15.6223 22.6274 15.8435 23.1789 16.2532C23.7305 16.6628 24.1356 17.2391 24.3341 17.8969C24.5327 18.5546 24.5142 19.2588 24.2814 19.9052C24.0487 20.5517 23.614 21.106 23.0417 21.4862H27.6707V24.224C27.2499 23.8447 26.7359 23.5841 26.1814 23.4688C25.6268 23.3535 25.0515 23.3876 24.5144 23.5677C23.9774 23.7478 23.4978 24.0674 23.1249 24.4938C22.7519 24.9201 22.499 25.4379 22.3919 25.9942H22.3882Z" fill="#4F379F"/>
</g>
<defs>
<clipPath id="clip0_209_10243">
<rect width="24" height="24.0028" fill="white" transform="translate(9 9)"/>
</clipPath>
</defs>
</svg>
