<svg width="45" height="44" viewBox="0 0 45 44" fill="none" xmlns="http://www.w3.org/2000/svg">
<g clip-path="url(#clip0_99_7695)">
<path d="M10.4839 31.1627C13.5215 31.1627 15.9839 28.7002 15.9839 25.6627C15.9839 22.6251 13.5215 20.1627 10.4839 20.1627C7.44632 20.1627 4.98389 22.6251 4.98389 25.6627C4.98389 28.7002 7.44632 31.1627 10.4839 31.1627Z" fill="#F78B77"/>
<path d="M15.5249 34.8304H5.441C4.10384 34.8318 2.82189 35.3638 1.8767 36.3097C0.931507 37.2555 0.400357 38.5378 0.399902 39.875L0.399902 42.625C0.399902 42.9896 0.544768 43.3394 0.802631 43.5972C1.06049 43.8551 1.41023 44 1.7749 44H19.191C19.5557 44 19.9054 43.8551 20.1633 43.5972C20.4211 43.3394 20.566 42.9896 20.566 42.625V39.875C20.5655 38.5378 20.0344 37.2555 19.0892 36.3097C18.144 35.3638 16.8621 34.8318 15.5249 34.8304Z" fill="#F78B77"/>
<path d="M34.3159 31.1627C37.3535 31.1627 39.8159 28.7002 39.8159 25.6627C39.8159 22.6251 37.3535 20.1627 34.3159 20.1627C31.2784 20.1627 28.8159 22.6251 28.8159 25.6627C28.8159 28.7002 31.2784 31.1627 34.3159 31.1627Z" fill="#F78B77"/>
<path d="M39.3589 34.8304H29.275C27.9378 34.8318 26.6559 35.3638 25.7107 36.3097C24.7655 37.2555 24.2343 38.5378 24.2339 39.875V42.625C24.2339 42.9896 24.3788 43.3394 24.6366 43.5972C24.8945 43.8551 25.2442 44 25.6089 44H43.025C43.3897 44 43.7394 43.8551 43.9973 43.5972C44.2551 43.3394 44.4 42.9896 44.4 42.625V39.875C44.3995 38.5378 43.8684 37.2555 42.9232 36.3097C41.978 35.3638 40.696 34.8318 39.3589 34.8304Z" fill="#F78B77"/>
<path d="M26.14 18.645V19.965C26.1372 20.5071 25.9194 21.026 25.5342 21.4076C25.1491 21.7892 24.6282 22.0023 24.0861 22H20.7122C19.7222 22 18.6497 21.2661 18.6497 19.635V18.645H26.14ZM30.65 8.19499C30.653 9.41144 30.3827 10.613 29.8591 11.7111C29.3355 12.8091 28.572 13.7755 27.625 14.5389C26.8963 15.1056 26.3901 15.9105 26.195 16.8128H18.6187C18.4698 15.9405 17.9902 15.1593 17.2798 14.6317C16.2777 13.8536 15.4724 12.8509 14.9287 11.7045C14.3851 10.5581 14.1184 9.30007 14.15 8.03171C14.2411 3.6678 17.89 0.0567115 22.2711 -7.27642e-06C23.371 -0.0246265 24.4646 0.174093 25.4855 0.584135C26.5065 0.994178 27.4337 1.60702 28.2111 2.38562C28.9875 3.1401 29.6036 4.04348 30.0227 5.04169C30.4418 6.0399 30.6551 7.1124 30.65 8.19499Z" fill="#FCD1C9"/>
</g>
<defs>
<clipPath id="clip0_99_7695">
<rect width="44" height="43.9966" fill="white" transform="translate(0.399902)"/>
</clipPath>
</defs>
</svg>
