<svg width="24" height="25" viewBox="0 0 24 25" fill="none" xmlns="http://www.w3.org/2000/svg">
<g clip-path="url(#clip0_894_4016)">
<path d="M16.281 12.9689C16.3508 13.0385 16.4062 13.1213 16.444 13.2124C16.4818 13.3035 16.5013 13.4012 16.5013 13.4999C16.5013 13.5985 16.4818 13.6962 16.444 13.7873C16.4062 13.8784 16.3508 13.9612 16.281 14.0309L11.781 18.5309C11.7113 18.6007 11.6285 18.6561 11.5374 18.6939C11.4463 18.7318 11.3486 18.7512 11.25 18.7512C11.1513 18.7512 11.0536 18.7318 10.9625 18.6939C10.8714 18.6561 10.7886 18.6007 10.719 18.5309L8.46896 16.2809C8.39922 16.2111 8.34391 16.1284 8.30617 16.0373C8.26843 15.9461 8.24901 15.8485 8.24901 15.7499C8.24901 15.6513 8.26843 15.5536 8.30617 15.4625C8.34391 15.3714 8.39922 15.2886 8.46896 15.2189C8.60979 15.078 8.80079 14.9989 8.99996 14.9989C9.09857 14.9989 9.19622 15.0184 9.28733 15.0561C9.37844 15.0938 9.46122 15.1491 9.53096 15.2189L11.25 16.9394L15.219 12.9689C15.2886 12.899 15.3714 12.8436 15.4625 12.8058C15.5536 12.768 15.6513 12.7485 15.75 12.7485C15.8486 12.7485 15.9463 12.768 16.0374 12.8058C16.1285 12.8436 16.2113 12.899 16.281 12.9689Z" fill="#7688A8"/>
<path d="M5.25 0.75C5.44891 0.75 5.63968 0.829018 5.78033 0.96967C5.92098 1.11032 6 1.30109 6 1.5V2.25H18V1.5C18 1.30109 18.079 1.11032 18.2197 0.96967C18.3603 0.829018 18.5511 0.75 18.75 0.75C18.9489 0.75 19.1397 0.829018 19.2803 0.96967C19.421 1.11032 19.5 1.30109 19.5 1.5V2.25H21C21.7956 2.25 22.5587 2.56607 23.1213 3.12868C23.6839 3.69129 24 4.45435 24 5.25V21.75C24 22.5456 23.6839 23.3087 23.1213 23.8713C22.5587 24.4339 21.7956 24.75 21 24.75H3C2.20435 24.75 1.44129 24.4339 0.87868 23.8713C0.316071 23.3087 0 22.5456 0 21.75V5.25C0 4.45435 0.316071 3.69129 0.87868 3.12868C1.44129 2.56607 2.20435 2.25 3 2.25H4.5V1.5C4.5 1.30109 4.57902 1.11032 4.71967 0.96967C4.86032 0.829018 5.05109 0.75 5.25 0.75V0.75ZM3 3.75C2.60218 3.75 2.22064 3.90804 1.93934 4.18934C1.65804 4.47064 1.5 4.85218 1.5 5.25V21.75C1.5 22.1478 1.65804 22.5294 1.93934 22.8107C2.22064 23.092 2.60218 23.25 3 23.25H21C21.3978 23.25 21.7794 23.092 22.0607 22.8107C22.342 22.5294 22.5 22.1478 22.5 21.75V5.25C22.5 4.85218 22.342 4.47064 22.0607 4.18934C21.7794 3.90804 21.3978 3.75 21 3.75H3Z" fill="#7688A8"/>
<path d="M3.75 6.75C3.75 6.55109 3.82902 6.36032 3.96967 6.21967C4.11032 6.07902 4.30109 6 4.5 6H19.5C19.6989 6 19.8897 6.07902 20.0303 6.21967C20.171 6.36032 20.25 6.55109 20.25 6.75V8.25C20.25 8.44891 20.171 8.63968 20.0303 8.78033C19.8897 8.92098 19.6989 9 19.5 9H4.5C4.30109 9 4.11032 8.92098 3.96967 8.78033C3.82902 8.63968 3.75 8.44891 3.75 8.25V6.75Z" fill="#7688A8"/>
</g>
<defs>
<clipPath id="clip0_894_4016">
<rect width="24" height="24" fill="white" transform="translate(0 0.75)"/>
</clipPath>
</defs>
</svg>
