<svg width="24" height="25" viewBox="0 0 24 25" fill="none" xmlns="http://www.w3.org/2000/svg">
<g clip-path="url(#clip0_1152_4016)">
<path d="M8.89915 1.80505C9.3029 1.39186 9.78517 1.06354 10.3176 0.839383C10.8501 0.615227 11.4219 0.499756 11.9996 0.499756C12.5774 0.499756 13.1492 0.615227 13.6817 0.839383C14.2141 1.06354 14.6964 1.39186 15.1001 1.80505L16.0331 2.76205L17.3681 2.74555C17.946 2.73871 18.5194 2.84749 19.0547 3.06548C19.5899 3.28348 20.0761 3.60629 20.4848 4.01494C20.8934 4.42359 21.2162 4.90982 21.4342 5.44504C21.6522 5.98026 21.761 6.55367 21.7541 7.13155L21.7391 8.46655L22.6931 9.39955C23.1063 9.8033 23.4347 10.2856 23.6588 10.818C23.883 11.3505 23.9984 11.9223 23.9984 12.5C23.9984 13.0778 23.883 13.6496 23.6588 14.1821C23.4347 14.7145 23.1063 15.1968 22.6931 15.6005L21.7376 16.5336L21.7541 17.8685C21.761 18.4464 21.6522 19.0198 21.4342 19.5551C21.2162 20.0903 20.8934 20.5765 20.4848 20.9852C20.0761 21.3938 19.5899 21.7166 19.0547 21.9346C18.5194 22.1526 17.946 22.2614 17.3681 22.2545L16.0331 22.2395L15.1001 23.1935C14.6964 23.6067 14.2141 23.9351 13.6817 24.1592C13.1492 24.3834 12.5774 24.4988 11.9996 24.4988C11.4219 24.4988 10.8501 24.3834 10.3176 24.1592C9.78517 23.9351 9.3029 23.6067 8.89915 23.1935L7.96615 22.238L6.63115 22.2545C6.05327 22.2614 5.47986 22.1526 4.94464 21.9346C4.40942 21.7166 3.92318 21.3938 3.51454 20.9852C3.10589 20.5765 2.78307 20.0903 2.56508 19.5551C2.34708 19.0198 2.23831 18.4464 2.24515 17.8685L2.26015 16.5336L1.30615 15.6005C0.892958 15.1968 0.564638 14.7145 0.340482 14.1821C0.116325 13.6496 0.000854492 13.0778 0.000854492 12.5C0.000854492 11.9223 0.116325 11.3505 0.340482 10.818C0.564638 10.2856 0.892958 9.8033 1.30615 9.39955L2.26165 8.46655L2.24515 7.13155C2.23831 6.55367 2.34708 5.98026 2.56508 5.44504C2.78307 4.90982 3.10589 4.42359 3.51454 4.01494C3.92318 3.60629 4.40942 3.28348 4.94464 3.06548C5.47986 2.84749 6.05327 2.73871 6.63115 2.74555L7.96615 2.76055L8.89915 1.80655V1.80505ZM10.5026 17C10.5026 17.197 10.5414 17.3921 10.6168 17.5741C10.6922 17.7561 10.8027 17.9214 10.942 18.0607C11.0813 18.2 11.2466 18.3105 11.4286 18.3859C11.6106 18.4613 11.8057 18.5 12.0026 18.5C12.1996 18.5 12.3947 18.4613 12.5767 18.3859C12.7587 18.3105 12.924 18.2 13.0633 18.0607C13.2026 17.9214 13.3131 17.7561 13.3885 17.5741C13.4638 17.3921 13.5026 17.197 13.5026 17C13.5026 16.6022 13.3446 16.2207 13.0633 15.9394C12.782 15.6581 12.4005 15.5 12.0026 15.5C11.6048 15.5 11.2233 15.6581 10.942 15.9394C10.6607 16.2207 10.5026 16.6022 10.5026 17ZM12.9056 13.9595C12.9656 13.1585 13.2026 12.737 14.1746 12.0695C15.1856 11.357 15.7496 10.4345 15.7496 9.09055C15.7496 7.10305 14.3696 5.75005 12.3566 5.75005C10.8266 5.75005 9.66865 6.48805 9.20665 7.68505C9.06664 8.01197 8.99615 8.36443 8.99965 8.72005C8.99965 9.30955 9.30415 9.68005 9.81715 9.68005C10.2251 9.68005 10.4996 9.45955 10.6631 8.91505C10.9001 8.02705 11.4506 7.54255 12.2741 7.54255C13.1891 7.54255 13.8191 8.21155 13.8191 9.16855C13.8191 10.013 13.5071 10.496 12.5861 11.156C11.6576 11.8055 11.1971 12.5271 11.1971 13.616V13.7825C11.1971 14.4245 11.5091 14.9 12.0746 14.9C12.5786 14.9 12.8306 14.54 12.9056 13.9595Z" fill="#4F379F"/>
</g>
<defs>
<clipPath id="clip0_1152_4016">
<rect width="24" height="24" fill="white" transform="translate(0 0.5)"/>
</clipPath>
</defs>
</svg>
