<svg width="22" height="23" viewBox="0 0 22 23" fill="none" xmlns="http://www.w3.org/2000/svg">
<path fill-rule="evenodd" clip-rule="evenodd" d="M4 0.5C1.79086 0.5 0 2.29086 0 4.5V18.5C0 20.7091 1.79086 22.5 4 22.5H18C20.2091 22.5 22 20.7091 22 18.5V4.5C22 2.29086 20.2091 0.5 18 0.5H4ZM11.0169 4.51041H13.3144L12.4442 5.38204C12.2189 5.60784 12.2192 5.97356 12.445 6.19906C12.6703 6.42396 13.0362 6.42441 13.2619 6.19831L15.1149 4.34207C15.3434 4.11326 15.3404 3.73731 15.1017 3.51256L13.2619 1.66956C13.0365 1.44376 12.6708 1.44345 12.445 1.66881C12.2192 1.89431 12.2189 2.26003 12.4442 2.48583L13.3119 3.35505C10.9419 3.35505 10.9852 3.35493 10.9934 3.35491L10.9921 3.3549C4.88509 3.3549 1.00863 10.0013 4.07092 15.3437C4.22948 15.6203 4.58226 15.7163 4.85936 15.5576C5.13616 15.3989 5.23184 15.0459 5.07328 14.7691C2.43778 10.1715 5.81132 4.48423 11.0169 4.51041ZM17.929 7.37427C17.7704 7.09762 17.4174 7.00179 17.1406 7.16035C16.8638 7.31906 16.7681 7.67214 16.9268 7.94894C19.5423 12.5117 16.2413 18.2077 11 18.2077H8.68557L9.55569 17.336C9.7812 17.1102 9.7809 16.7445 9.55509 16.519C9.32929 16.2937 8.96342 16.294 8.73807 16.5198L6.88499 18.376C6.65843 18.6029 6.65723 18.9794 6.89898 19.2063L8.73807 21.0485C8.96342 21.2742 9.32914 21.2748 9.55509 21.0493C9.7809 20.8238 9.7812 20.4581 9.55584 20.2322L8.68812 19.363H11.0073C17.1174 19.3629 20.9907 12.7155 17.929 7.37427ZM13.3107 9.04833C13.3107 9.36726 13.052 9.62601 12.7331 9.62601H10.4224C10.1037 9.62601 9.84468 9.88506 9.84468 10.2037C9.84468 10.5222 10.1037 10.7814 10.4224 10.7814H11.5776C12.5331 10.7814 13.3107 11.5588 13.3107 12.5144C13.3107 13.4727 12.5354 14.2476 11.5777 14.2476V14.8251C11.5777 15.144 11.319 15.4028 11 15.4028C10.681 15.4028 10.4224 15.144 10.4224 14.8251V14.2474H9.26685C8.94778 14.2473 8.68918 13.9887 8.68933 13.6696C8.68933 13.3507 8.94793 13.0921 9.267 13.0921L10.9973 13.0922L11 13.0921C11 13.0921 11.0281 13.0922 11.5776 13.0922C11.8977 13.0922 12.1554 12.833 12.1554 12.5144C12.1554 12.1958 11.8962 11.9367 11.5776 11.9367H10.4224C9.46663 11.9367 8.68933 11.1593 8.68933 10.2037C8.68933 9.24811 9.46663 8.47065 10.4224 8.47065V7.89298C10.4224 7.5739 10.681 7.3153 11 7.3153C11.319 7.3153 11.5777 7.5739 11.5777 7.89298V8.47065H12.7331C13.052 8.47065 13.3107 8.72926 13.3107 9.04833Z" fill="#4F379F"/>
</svg>
