<svg width="26" height="26" viewBox="0 0 26 26" fill="none" xmlns="http://www.w3.org/2000/svg">
<g clip-path="url(#clip0_230_14001)">
<path d="M12.5141 15.082C12.4472 14.9446 12.343 14.8288 12.2132 14.748C12.0835 14.6671 11.9337 14.6245 11.7808 14.625H1.96582C1.75033 14.625 1.54367 14.7106 1.3913 14.863C1.23892 15.0154 1.15332 15.222 1.15332 15.4375C1.15332 21.2611 5.92066 26 11.7829 26C13.3805 26.0029 14.9583 25.6457 16.3989 24.9549C16.4956 24.9089 16.5823 24.8441 16.6539 24.7644C16.7255 24.6847 16.7806 24.5916 16.8161 24.4905C16.8516 24.3894 16.8668 24.2823 16.8607 24.1753C16.8546 24.0683 16.8274 23.9636 16.7807 23.8672L12.5141 15.082Z" fill="#72B6C5"/>
<path d="M15.4375 1.92969C15.222 1.92969 15.0154 2.01529 14.863 2.16766C14.7106 2.32004 14.625 2.5267 14.625 2.74219V12.4302C14.6247 12.553 14.6525 12.6743 14.7063 12.7847L18.9445 21.514C19.0381 21.7073 19.2044 21.8556 19.4071 21.9266C19.6098 21.9976 19.8323 21.9854 20.0261 21.8928C23.7118 20.1175 26 16.4907 26 12.4282C26 6.63813 21.2611 1.92969 15.4375 1.92969Z" fill="#D4E9ED"/>
<path d="M11.375 10.5625V0.8125C11.375 0.597012 11.2894 0.390349 11.137 0.237976C10.9847 0.0856024 10.778 0 10.5625 0C7.76222 0.0034938 5.07764 1.11745 3.09754 3.09754C1.11745 5.07764 0.0034938 7.76222 0 10.5625C0 10.778 0.0856024 10.9847 0.237976 11.137C0.390349 11.2894 0.597012 11.375 0.8125 11.375H10.5625C10.778 11.375 10.9847 11.2894 11.137 11.137C11.2894 10.9847 11.375 10.778 11.375 10.5625Z" fill="#72B6C5"/>
</g>
<defs>
<clipPath id="clip0_230_14001">
<rect width="26" height="26" fill="white"/>
</clipPath>
</defs>
</svg>
