<svg width="24" height="25" viewBox="0 0 24 25" fill="none" xmlns="http://www.w3.org/2000/svg">
<g clip-path="url(#clip0_1852_3156)">
<path d="M8.89902 1.80505C9.30278 1.39186 9.78505 1.06354 10.3175 0.839383C10.8499 0.615227 11.4218 0.499756 11.9995 0.499756C12.5772 0.499756 13.1491 0.615227 13.6816 0.839383C14.214 1.06354 14.6963 1.39186 15.1 1.80505L16.033 2.76205L17.368 2.74555C17.9459 2.73871 18.5193 2.84749 19.0545 3.06548C19.5898 3.28348 20.076 3.60629 20.4846 4.01494C20.8933 4.42359 21.2161 4.90982 21.4341 5.44504C21.6521 5.98026 21.7609 6.55367 21.754 7.13155L21.739 8.46655L22.693 9.39955C23.1062 9.8033 23.4345 10.2856 23.6587 10.818C23.8828 11.3505 23.9983 11.9223 23.9983 12.5C23.9983 13.0778 23.8828 13.6496 23.6587 14.1821C23.4345 14.7145 23.1062 15.1968 22.693 15.6005L21.7375 16.5336L21.754 17.8685C21.7609 18.4464 21.6521 19.0198 21.4341 19.5551C21.2161 20.0903 20.8933 20.5765 20.4846 20.9852C20.076 21.3938 19.5898 21.7166 19.0545 21.9346C18.5193 22.1526 17.9459 22.2614 17.368 22.2545L16.033 22.2395L15.1 23.1935C14.6963 23.6067 14.214 23.9351 13.6816 24.1592C13.1491 24.3834 12.5772 24.4988 11.9995 24.4988C11.4218 24.4988 10.8499 24.3834 10.3175 24.1592C9.78505 23.9351 9.30278 23.6067 8.89902 23.1935L7.96602 22.238L6.63103 22.2545C6.05315 22.2614 5.47974 22.1526 4.94452 21.9346C4.40929 21.7166 3.92306 21.3938 3.51441 20.9852C3.10577 20.5765 2.78295 20.0903 2.56496 19.5551C2.34696 19.0198 2.23819 18.4464 2.24503 17.8685L2.26003 16.5336L1.30603 15.6005C0.892836 15.1968 0.564516 14.7145 0.34036 14.1821C0.116203 13.6496 0.000732422 13.0778 0.000732422 12.5C0.000732422 11.9223 0.116203 11.3505 0.34036 10.818C0.564516 10.2856 0.892836 9.8033 1.30603 9.39955L2.26153 8.46655L2.24503 7.13155C2.23819 6.55367 2.34696 5.98026 2.56496 5.44504C2.78295 4.90982 3.10577 4.42359 3.51441 4.01494C3.92306 3.60629 4.40929 3.28348 4.94452 3.06548C5.47974 2.84749 6.05315 2.73871 6.63103 2.74555L7.96602 2.76055L8.89902 1.80655V1.80505ZM10.5025 17C10.5025 17.197 10.5413 17.3921 10.6167 17.5741C10.6921 17.7561 10.8026 17.9214 10.9419 18.0607C11.0812 18.2 11.2465 18.3105 11.4285 18.3859C11.6105 18.4613 11.8055 18.5 12.0025 18.5C12.1995 18.5 12.3946 18.4613 12.5766 18.3859C12.7585 18.3105 12.9239 18.2 13.0632 18.0607C13.2025 17.9214 13.313 17.7561 13.3883 17.5741C13.4637 17.3921 13.5025 17.197 13.5025 17C13.5025 16.6022 13.3445 16.2207 13.0632 15.9394C12.7819 15.6581 12.4003 15.5 12.0025 15.5C11.6047 15.5 11.2232 15.6581 10.9419 15.9394C10.6606 16.2207 10.5025 16.6022 10.5025 17ZM12.9055 13.9595C12.9655 13.1585 13.2025 12.737 14.1745 12.0695C15.1855 11.357 15.7495 10.4345 15.7495 9.09055C15.7495 7.10305 14.3695 5.75005 12.3565 5.75005C10.8265 5.75005 9.66852 6.48805 9.20652 7.68505C9.06652 8.01197 8.99603 8.36443 8.99953 8.72005C8.99953 9.30955 9.30403 9.68005 9.81703 9.68005C10.225 9.68005 10.4995 9.45955 10.663 8.91505C10.9 8.02705 11.4505 7.54255 12.274 7.54255C13.189 7.54255 13.819 8.21155 13.819 9.16855C13.819 10.013 13.507 10.496 12.586 11.156C11.6575 11.8055 11.197 12.5271 11.197 13.616V13.7825C11.197 14.4245 11.509 14.9 12.0745 14.9C12.5785 14.9 12.8305 14.54 12.9055 13.9595Z" fill="#4F379F"/>
</g>
<defs>
<clipPath id="clip0_1852_3156">
<rect width="24" height="24" fill="white" transform="translate(0 0.5)"/>
</clipPath>
</defs>
</svg>
