<svg width="24" height="25" viewBox="0 0 24 25" fill="none" xmlns="http://www.w3.org/2000/svg">
<path fill-rule="evenodd" clip-rule="evenodd" d="M0 6.5C0 3.18629 2.68629 0.5 6 0.5H18C21.3137 0.5 24 3.18629 24 6.5V18.5C24 21.8137 21.3137 24.5 18 24.5H6C2.68629 24.5 0 21.8137 0 18.5V6.5ZM17.8403 4.57032C17.9082 4.61231 17.9643 4.67096 18.0031 4.74069C18.042 4.81041 18.0625 4.88892 18.0625 4.96876V19.0313C18.0625 19.1556 18.0131 19.2748 17.9252 19.3627C17.8373 19.4506 17.7181 19.5 17.5938 19.5H14.7812C14.6569 19.5 14.5377 19.4506 14.4498 19.3627C14.3619 19.2748 14.3125 19.1556 14.3125 19.0313V17.625H13.375V19.0313C13.375 19.1556 13.3256 19.2748 13.2377 19.3627C13.1498 19.4506 13.0306 19.5 12.9062 19.5H4.46875C4.34443 19.5 4.2252 19.4506 4.13729 19.3627C4.04939 19.2748 4 19.1556 4 19.0313V13.875C4.00007 13.7767 4.03108 13.6808 4.08862 13.6011C4.14616 13.5213 4.22732 13.4617 4.32062 13.4306L9.625 11.6625V8.71876C9.625 8.63178 9.64921 8.54651 9.6949 8.47251C9.7406 8.3985 9.80599 8.33866 9.88375 8.29969L17.3838 4.5497C17.4553 4.51389 17.5348 4.49698 17.6147 4.5006C17.6946 4.50421 17.7723 4.52821 17.8403 4.57032ZM9.625 12.6506L4.9375 14.2125V18.5625H9.625V12.6506ZM10.5625 9.00844V18.5625H12.4375V17.1563C12.4375 17.0319 12.4869 16.9127 12.5748 16.8248C12.6627 16.7369 12.7819 16.6875 12.9062 16.6875H14.7812C14.9056 16.6875 15.0248 16.7369 15.1127 16.8248C15.2006 16.9127 15.25 17.0319 15.25 17.1563V18.5625H17.125V5.72719L10.5625 9.00844ZM6.8125 14.8125H5.875V15.75H6.8125V14.8125ZM8.6875 14.8125H7.75V15.75H8.6875V14.8125ZM6.8125 16.6875H5.875V17.625H6.8125V16.6875ZM8.6875 16.6875H7.75V17.625H8.6875V16.6875ZM12.4375 12.9375H11.5V13.875H12.4375V12.9375ZM14.3125 12.9375H13.375V13.875H14.3125V12.9375ZM12.4375 14.8125H11.5V15.75H12.4375V14.8125ZM14.3125 14.8125H13.375V15.75H14.3125V14.8125ZM16.1875 12.9375H15.25V13.875H16.1875V12.9375ZM16.1875 14.8125H15.25V15.75H16.1875V14.8125ZM12.4375 11.0625H11.5V12H12.4375V11.0625ZM14.3125 11.0625H13.375V12H14.3125V11.0625ZM16.1875 11.0625H15.25V12H16.1875V11.0625ZM12.4375 9.1875H11.5V10.125H12.4375V9.1875ZM14.3125 9.1875H13.375V10.125H14.3125V9.1875ZM16.1875 9.1875H15.25V10.125H16.1875V9.1875ZM16.1875 7.3125H15.25V8.25H16.1875V7.3125Z" fill="#216778"/>
</svg>
