<svg width="676" height="434" viewBox="0 0 676 434" fill="none" xmlns="http://www.w3.org/2000/svg">
<path d="M541.718 270.812C533.255 303.157 523.363 335.115 512.078 366.543C512.022 366.712 511.962 366.886 511.898 367.055H118.63C118.715 366.88 118.801 366.712 118.88 366.543C120.529 363.057 121.536 359.608 120.037 353.66C114.876 333.169 99.4627 316.988 88.3436 299.754C63.5187 261.29 56.2139 208.843 78.5524 168.82C97.0722 135.64 131.663 116.126 161.904 93.6646C193.949 69.8622 222.787 41.0688 257.994 22.5085C294.438 3.28686 336.821 -3.96088 377.405 2.06971C405.26 6.21106 434.099 18.015 449.041 42.3808C463.919 66.6395 462.24 98.5286 476.646 123.08C493.613 151.98 529.987 165.853 543.433 196.623C553.504 219.679 548.098 246.42 541.718 270.812Z" fill="#E9F0F2"/>
<path d="M151.352 72.892C157.223 67.7402 161.926 52.2036 156.807 47.7102C155.688 46.7273 154.048 46.7625 152.915 47.7301C145.708 53.8923 149.675 69.0844 150.699 72.5429C149.898 77.4344 149.345 82.3734 149.041 87.3308C148.028 79.2869 141.748 68.2347 135.851 68.6098C134.377 68.7032 133.226 69.8973 133.077 71.3977C132.066 81.4962 146.902 89.9258 148.863 90.9929C148.663 96.4218 148.758 101.863 149.149 107.286C146.746 99.6201 139.473 90.3897 133.919 91.5135C132.471 91.8074 131.486 93.1471 131.533 94.6536C131.84 104.536 146.838 110.802 149.543 111.853C150.234 118.581 151.385 125.26 152.984 131.822C148.995 124.8 138.559 117.006 133.231 119.861C131.924 120.563 131.351 122.132 131.815 123.563C134.817 132.843 150.603 134.579 153.751 134.835C155.046 139.697 156.592 144.487 158.389 149.177C154.477 143.404 146.234 137.615 141.885 139.945C140.741 140.557 140.242 141.929 140.647 143.182C143.308 151.412 157.474 152.853 159.935 153.043C161.674 157.207 163.609 161.287 165.75 165.255L166.934 164.504C164.874 160.987 163.099 157.213 161.459 153.422C160.65 151.516 159.883 149.593 159.153 147.654C166.641 145.91 177.881 133.761 175.155 127.342C174.567 125.958 173.076 125.26 171.645 125.626C162.246 128.029 159.435 144.363 159.008 147.26C153.257 131.825 150.077 115.395 149.645 98.8852C157.308 98.2606 170.134 87.9799 168.373 81.2298C167.992 79.7723 166.62 78.8552 165.151 79.0007C155.874 79.9177 150.754 94.5081 149.627 98.109C149.59 96.3086 149.582 94.5066 149.61 92.7061C149.753 86.0708 150.336 79.4477 151.352 72.892Z" fill="#A6D8CD"/>
<path d="M168.18 103.911C157.591 104.959 152.417 123.819 152.417 123.819C160.048 123.406 173.184 112.964 171.403 106.14C171.023 104.681 169.65 103.766 168.18 103.911Z" fill="#A6D8CD"/>
<path d="M213.807 30.8692C222.641 26.7018 233.992 10.1716 229.653 3.41536C228.704 1.93641 226.762 1.47711 225.068 2.2518C214.282 7.17701 213.262 25.9562 213.17 30.2675C210.397 35.6811 207.898 41.2218 205.682 46.8604C207.502 37.2504 204.253 22.5528 197.176 21.1872C195.407 20.8457 193.607 21.8761 192.868 23.5648C187.899 34.934 202.195 49.209 204.101 51.0401C201.834 57.2559 199.908 63.5789 198.337 69.9662C198.381 60.3684 193.282 47.4744 186.326 47.0809C184.513 46.9783 182.854 48.2276 182.344 49.9852C179.005 61.5059 194.303 73.3298 197.09 75.3691C195.383 83.3609 194.238 91.4354 193.661 99.5099C191.596 90.1739 182.239 77.9764 174.903 79.6513C173.103 80.0632 171.841 81.7028 171.85 83.5002C171.906 95.1465 189.827 101.972 193.436 103.227C193.14 109.245 193.164 115.256 193.52 121.227C191.08 113.358 183.551 104.149 177.562 105.516C175.988 105.876 174.887 107.31 174.894 108.881C174.944 119.211 191.068 125.2 193.892 126.169C194.379 131.515 195.125 136.823 196.16 142.065L197.834 141.557C196.726 136.862 196.052 131.955 195.542 127.072C195.304 124.621 195.121 122.162 194.989 119.698C204.45 119.965 222.221 109.348 221.418 101.091C221.244 99.3124 219.752 98.0493 217.93 98.0355C205.973 97.9467 196.551 115.977 194.964 119.197C193.979 99.5941 196.387 79.6253 202.062 60.4006C211.31 62.0158 230.248 54.0408 230.702 45.6999C230.801 43.898 229.529 42.419 227.747 42.1388C216.49 40.369 205.005 55.6774 202.331 59.4973C202.961 57.4029 203.628 55.3177 204.335 53.2432C206.989 45.6219 210.156 38.1399 213.807 30.8692Z" fill="#A6D8CD"/>
<path d="M221.989 71.8738C209.14 69.8529 195.992 90.085 195.992 90.085C205.122 91.9345 224.484 83.8692 224.944 75.4349C225.043 73.633 223.771 72.154 221.989 71.8738Z" fill="#A6D8CD"/>
<path d="M560.909 218.926C571.981 220.067 592.483 209.677 591.995 199.779C591.888 197.613 590.226 195.904 588.117 195.658C574.692 194.093 563.132 213.37 560.619 217.885C554.837 221.881 549.254 226.184 543.897 230.773C551.096 221.725 556.143 204.091 549.918 198.187C548.362 196.711 546.005 196.671 544.326 197.997C533.026 206.929 539.133 231.068 539.986 234.21C534.251 239.377 528.798 244.87 523.655 250.657C529.091 240.504 531.298 223.619 524.648 218.823C522.914 217.573 520.571 217.853 519.081 219.396C509.308 229.514 517.78 251.685 519.389 255.603C513.212 263.006 507.543 270.848 502.437 279.05C505.642 267.847 503.25 249.019 495.06 246.179C493.05 245.483 490.881 246.429 489.88 248.341C483.391 260.73 497.264 279.249 500.124 282.853C496.449 289.049 493.095 295.441 490.093 301.999C492.104 292.117 489.838 277.609 483.154 275.291C481.397 274.682 479.501 275.51 478.626 277.18C472.871 288.167 485.438 304.669 487.683 307.476C485.159 313.453 482.916 319.554 480.991 325.765L482.931 326.279C484.474 320.603 486.565 314.973 488.806 309.474C489.946 306.724 491.148 304 492.404 301.304C501.602 307.543 525.127 307.467 528.972 298.204C529.8 296.208 529.036 293.93 527.243 292.769C515.478 285.149 496.038 298.343 492.66 300.759C502.702 279.345 516.303 259.681 532.711 242.862C540.942 250.396 564.135 253.857 569.272 245.296C570.381 243.446 569.956 241.078 568.352 239.659C558.224 230.696 538.274 239.703 533.484 242.073C535.283 240.248 537.113 238.455 538.977 236.701C545.885 230.283 553.216 224.341 560.909 218.926Z" fill="#A6D8CD"/>
<path d="M545.954 267.569C534.394 257.339 510.034 270.522 510.034 270.522C518.016 278.231 541.679 281.864 546.874 273.206C547.983 271.358 547.557 268.99 545.954 267.569Z" fill="#A6D8CD"/>
<path d="M560.964 286.157C558.272 278.287 562.013 261.572 569.007 260.234C570.538 259.941 572.015 260.859 572.547 262.353C575.939 271.865 564.462 283.588 561.74 286.19C559.94 291.087 557.893 295.891 555.606 300.579C560.69 293.786 572.135 287.089 577.322 290.613C578.619 291.494 579.05 293.204 578.412 294.654C574.112 304.415 556.214 304.1 553.875 304.016C551.249 309.077 548.349 313.992 545.19 318.729C551.346 313.03 562.756 308.531 567.243 312.556C568.414 313.604 568.619 315.359 567.796 316.709C562.406 325.561 545.479 323.185 542.468 322.685C538.357 328.452 533.853 333.925 529.002 339.05C536.272 334.796 549.827 333.314 553.212 338.794C554.043 340.138 553.753 341.88 552.59 342.937C545.053 349.785 529.75 342.851 526.743 341.384C523.047 345.123 519.16 348.66 515.095 351.97C521.651 348.811 532.166 347.978 534.929 352.452C535.655 353.628 535.403 355.15 534.385 356.073C527.701 362.146 514.028 355.817 511.686 354.663C507.945 357.524 504.071 360.205 500.063 362.67L499.372 361.344C503.071 359.246 506.642 356.76 510.098 354.187C511.822 352.885 513.519 351.542 515.185 350.166C509.255 344.534 505.28 327.383 511.088 322.997C512.339 322.051 514.061 322.218 515.178 323.325C522.511 330.591 516.63 347.012 515.522 349.886C528.752 338.904 540.149 325.629 549.082 310.795C542.413 306.089 536.025 289.787 541.122 284.578C542.222 283.453 543.949 283.358 545.215 284.283C553.206 290.127 550.335 306.202 549.5 310.097C550.465 308.474 551.403 306.834 552.31 305.175C555.609 299.046 558.501 292.688 560.964 286.157Z" fill="#A6D8CD"/>
<path d="M529.567 305.381C538.688 312.05 533.657 332.053 533.657 332.053C526.908 327.558 520.321 310.942 525.474 305.675C526.576 304.552 528.302 304.455 529.567 305.381Z" fill="#A6D8CD"/>
<path d="M58.5616 298.098C59.8625 289.869 53.3146 274.082 46.2001 274.014C44.6429 273.999 43.3465 275.167 43.0767 276.733C41.3682 286.705 54.6769 296.194 57.8033 298.27C60.414 302.768 63.2541 307.133 66.3085 311.338C60.1398 305.56 47.7213 301.013 43.2191 305.41C42.0936 306.51 41.9617 308.27 42.8384 309.584C48.7449 318.425 66.3115 314.915 68.6016 314.413C72.0532 318.926 75.752 323.247 79.6742 327.345C72.6362 322.836 60.6314 320.448 56.904 325.211C55.9313 326.452 56.0303 328.216 57.0719 329.398C63.8956 337.15 80.1538 331.783 83.0329 330.751C88.0686 335.695 93.44 340.277 99.0962 344.454C91.2084 341.566 77.6105 342.531 75.217 348.532C74.6295 350.005 75.2125 351.668 76.5389 352.501C85.1341 357.896 99.0123 348.33 101.72 346.349C106.001 349.368 110.434 352.156 115.002 354.689C108.008 352.752 97.5121 353.811 95.5577 358.711C95.0437 359.998 95.5547 361.451 96.7132 362.178C104.336 366.963 116.712 358.286 118.821 356.729C122.995 358.877 127.268 360.823 131.635 362.533L132.089 361.105C128.088 359.701 124.144 357.893 120.302 355.976C118.38 355.002 116.481 353.984 114.604 352.928C119.477 346.322 120.452 328.724 113.982 325.445C112.588 324.738 110.921 325.211 110.01 326.5C104.035 334.965 112.64 350.08 114.223 352.712C99.3165 344.266 85.819 333.235 74.4826 320.227C80.2422 314.402 83.7373 297.207 77.8263 292.991C76.5494 292.08 74.8333 292.294 73.7452 293.433C66.8796 300.615 72.4623 315.93 73.9506 319.615C72.7216 318.19 71.5166 316.743 70.3401 315.272C66.0433 309.83 62.1046 304.088 58.5616 298.098Z" fill="#A6D8CD"/>
<path d="M92.7669 311.41C84.9301 319.609 93.3125 338.402 93.3125 338.402C99.186 332.769 102.825 315.232 96.848 310.968C95.5711 310.058 93.855 310.273 92.7669 311.41Z" fill="#A6D8CD"/>
<path d="M493.961 213.265C501.654 213.381 515.177 204.983 514.266 198.193C514.067 196.708 512.823 195.631 511.357 195.589C502.017 195.323 495.171 209.302 493.701 212.565C489.949 215.667 486.352 218.971 482.928 222.455C487.363 215.786 489.817 203.331 485.186 199.642C484.029 198.72 482.403 198.833 481.323 199.85C474.055 206.687 479.662 222.948 480.432 225.061C476.782 228.966 473.342 233.082 470.135 237.379C473.291 230.055 473.832 218.289 468.973 215.388C467.705 214.632 466.109 214.965 465.171 216.12C459.025 223.681 466.147 238.443 467.482 241.044C463.656 246.518 460.204 252.264 457.162 258.224C458.72 250.313 455.982 237.486 450.175 236.024C448.749 235.666 447.31 236.448 446.732 237.826C442.979 246.754 453.611 258.672 455.79 260.983C453.617 265.475 451.678 270.08 449.989 274.78C450.803 267.849 448.4 257.993 443.66 256.798C442.414 256.485 441.157 257.169 440.65 258.374C437.323 266.291 446.937 276.9 448.646 278.698C447.254 282.969 446.061 287.307 445.095 291.704L446.462 291.941C447.197 287.936 448.31 283.932 449.536 280.008C450.163 278.046 450.833 276.097 451.541 274.161C458.239 277.903 474.443 276.427 476.555 269.813C477.011 268.388 476.351 266.865 475.049 266.173C466.502 261.635 453.873 271.9 451.687 273.77C457.364 258.409 465.593 244.039 475.924 231.46C482.032 236.153 498.21 237.136 501.254 230.926C501.911 229.585 501.481 227.979 500.294 227.099C492.797 221.537 479.574 228.95 476.413 230.871C477.546 229.505 478.703 228.16 479.885 226.837C484.269 221.997 488.975 217.459 493.961 213.265Z" fill="#A6D8CD"/>
<path d="M486.477 247.68C477.919 241.331 461.902 251.887 461.902 251.887C467.847 256.716 484.36 257.786 487.437 251.507C488.094 250.168 487.663 248.562 486.477 247.68Z" fill="#A6D8CD"/>
<path d="M106.627 115.36C106.627 115.36 103.975 76.8988 84.7662 82.0062C82.4416 82.6247 80.276 83.8143 78.6289 85.5994C66.2149 99.0492 104.251 116.575 104.251 116.575L106.627 115.36Z" fill="#123942"/>
<path d="M136.543 115.738C130.419 105.387 108.927 106.638 98.348 118.127C98.1636 118.326 97.9853 118.534 97.8054 118.739C97.0201 119.061 96.1973 119.297 95.379 119.451C92.476 119.998 89.486 119.829 86.6189 120.613C81.9204 121.899 78.0207 125.094 74.8719 128.781C68.0107 136.816 64.751 147.664 56.6818 154.682C49.8131 160.658 40.7728 162.882 32.9599 167.185C29.2131 169.248 25.7046 171.856 23.1777 175.403C22.5872 176.231 22.0627 177.098 21.5951 177.992C14.0804 183.929 7.56847 191.302 3.86811 200.32C1.62901 205.778 0.41803 211.74 0.650333 217.668C0.882636 223.616 2.64365 229.325 5.81646 234.319C6.04726 234.682 6.29155 235.034 6.53284 235.387C6.51935 235.593 6.49987 235.798 6.48788 236.004C6.18664 241.565 6.59129 247.243 7.89968 252.659C9.09567 257.613 11.1804 262.42 14.623 266.18C16.2416 267.949 18.0551 269.429 20.0064 270.654C20.1293 272.245 20.3092 273.829 20.5654 275.403C21.2024 279.319 22.3085 283.184 24.053 286.74C25.5427 289.778 27.5016 292.573 29.8036 295.024C32.1206 297.491 34.7824 299.62 37.6809 301.327C40.563 303.025 43.6773 304.316 46.9131 305.109C50.1833 305.91 53.554 306.191 56.9066 305.93C60.2832 305.666 63.6134 304.861 66.7653 303.599C69.9366 302.33 72.928 300.588 75.6167 298.452C78.0537 296.515 80.2403 294.242 82.0763 291.705C90.4587 284.73 92.6663 274.016 92.6663 274.016L119.669 177.849V147.398L134.647 134.055C134.65 134.054 142.668 126.091 136.543 115.738ZM21.9832 178.333C22.914 177.598 23.8566 176.88 24.8158 176.19C35.3279 168.627 47.3073 163.653 58.9898 158.34C65.2126 155.509 71.6406 152.567 77.4917 148.808C74.0026 152.951 69.9261 156.648 64.8319 159.392C59.423 162.305 52.7401 166.347 46.0408 171.678C41.693 173.212 37.567 175.282 33.9626 178.323C30.1258 181.558 27.0879 185.656 24.4472 189.932C22.1661 193.623 20.0859 197.457 18.0491 201.301C18.0461 201.173 18.0401 201.046 18.0386 200.917C17.9951 198.111 18.1855 195.289 18.4372 192.495C18.8734 187.645 19.7322 182.672 21.9832 178.333ZM20.2972 265.997C20.2717 264.222 20.3077 262.449 20.3721 260.678C22.2125 265.216 24.4471 269.446 26.992 273.299C24.7229 272.592 22.5378 271.618 20.483 270.352C20.3781 268.902 20.3182 267.449 20.2972 265.997ZM18.9618 207.753C18.4387 205.977 18.184 204.124 18.085 202.27C19.7052 199.21 21.3748 196.174 23.0953 193.179C25.5727 188.868 28.2959 184.641 31.7535 181.075C35.2515 177.468 39.4629 174.818 44.0715 172.953C44.3128 172.855 44.5586 172.768 44.8014 172.675C34.5366 181.092 24.4127 192.576 18.9618 207.753ZM15.8744 244.684C13.1273 242.418 10.5809 239.904 8.38228 237.087C7.91468 236.488 7.46655 235.874 7.03791 235.25C7.32567 230.952 8.06455 226.687 9.25454 222.553C10.7967 217.196 13.0568 212.087 15.5612 207.134C16.2416 205.787 16.937 204.446 17.6399 203.108C17.7448 204.464 17.9382 205.812 18.2694 207.13C18.3878 207.604 18.5317 208.07 18.6875 208.531C16.6493 214.426 15.3139 220.869 14.9452 227.898C14.6395 233.708 14.9872 239.325 15.8744 244.684ZM1.43267 220.973C0.636849 215.073 1.3982 209.014 3.26412 203.391C6.53134 193.539 13.2022 185.468 21.0765 179.057C19.4474 182.579 18.6216 186.48 18.1615 190.339C17.8303 193.115 17.6369 195.921 17.559 198.717C17.5275 199.868 17.5275 201.026 17.5845 202.18C17.2802 202.756 16.9745 203.331 16.6717 203.907C14.064 208.858 11.6105 213.918 9.78359 219.232C8.08103 224.188 7.00195 229.351 6.5943 234.584C3.91757 230.49 2.09661 225.895 1.43267 220.973ZM17.1648 267.939C9.08518 261.039 6.87755 249.497 6.89703 239.239C6.89853 238.178 6.9375 237.117 6.99445 236.058C9.5288 239.605 12.6297 242.709 16.0003 245.435C16.8696 250.382 18.2079 255.097 19.9195 259.531C19.864 260.776 19.8191 262.022 19.8011 263.268C19.7696 265.519 19.8131 267.774 19.9645 270.02C19.0008 269.392 18.0626 268.706 17.1648 267.939ZM77.1874 296.451C74.6965 298.737 71.8849 300.646 68.8635 302.116C65.83 303.593 62.5913 304.625 59.2671 305.143C55.9789 305.654 52.6247 305.642 49.341 305.092C46.0873 304.547 42.916 303.481 39.959 301.995C36.9915 300.502 34.2219 298.572 31.7819 296.287C29.363 294.023 27.2498 291.41 25.5772 288.525C23.6813 285.257 22.3834 281.657 21.5636 277.958C21.0555 275.66 20.7318 273.327 20.5355 270.98C22.6951 272.268 25.0167 273.247 27.4281 273.95C36.8611 287.891 50.3197 296.783 63.2717 297.514C70.6814 297.932 76.3032 295.902 80.5431 292.885C79.512 294.153 78.3909 295.347 77.1874 296.451ZM78.6127 147.438C73.2757 151.042 67.3857 153.905 61.6396 156.567C49.8251 162.042 37.6315 166.9 26.7537 174.229C25.3449 175.178 23.9586 176.178 22.5992 177.217C22.6352 177.156 22.6682 177.093 22.7056 177.032C25.0137 173.22 28.4518 170.374 32.2301 168.177C39.7806 163.786 48.4883 161.63 55.5173 156.278C63.8008 149.97 67.2898 139.72 73.3297 131.531C76.2747 127.538 79.9196 123.83 84.5027 121.881C87.0565 120.795 89.7108 120.544 92.4415 120.318C94.0166 120.188 95.6173 119.999 97.125 119.525C90.637 127.256 85.9025 138.266 78.6127 147.438Z" fill="#123942"/>
<path d="M141.072 274.461L108.407 366.8H270.54L246.487 274.461H141.072Z" fill="#123942"/>
<path d="M184.452 342.285L181.809 365.564L182.506 365.647L185.149 342.367L184.452 342.285Z" fill="#E9F0F2"/>
<path d="M462.368 208.895V318.099C462.368 325.01 456.886 330.609 450.122 330.609H385.36L340.147 365.724C335.746 369.144 329.413 365.934 329.413 360.283V330.609H305.806C299.041 330.609 293.554 325.009 293.554 318.099V208.895C293.554 201.984 299.041 196.385 305.806 196.385H450.122C456.731 196.385 462.113 201.73 462.359 208.414C462.363 208.572 462.368 208.736 462.368 208.895Z" fill="#F8C5A3"/>
<path d="M462.358 208.414H454.309L432.717 216.425L435.593 196.384H450.121C456.73 196.385 462.112 201.729 462.358 208.414Z" fill="#123942"/>
<path d="M440.652 231.332H350.454V232.048H440.652V231.332Z" fill="#C79E9E"/>
<path d="M440.652 259.145H350.454V259.862H440.652V259.145Z" fill="#C79E9E"/>
<path d="M440.652 286.959H350.454V287.675H440.652V286.959Z" fill="#C79E9E"/>
<path d="M233.646 198.78L252.131 281.757H180.193L181.827 283.103L189.103 289.096L161.488 334.141L148.425 325.367L77.4345 277.701C75.089 276.124 73.5303 273.586 73.1706 270.74L65.8194 212.984C65.3488 209.293 66.9524 205.649 69.9633 203.561L109.891 175.879C109.891 175.879 112.491 186.72 123.852 183.537C135.206 180.353 138.103 165.335 132.756 158.741L223.615 94.9049C226.035 93.2055 229.242 93.256 231.601 95.0427C237.81 99.7321 251.53 110.507 263.962 121.604L233.109 157.656L228.518 153.96L207.807 172.162L222.6 187.4L233.646 198.78Z" fill="#216778"/>
<path opacity="0.25" d="M407.356 196.384V278.633C407.356 291.175 397.368 301.381 385.088 301.381H293.553V208.894C293.553 201.983 299.04 196.384 305.805 196.384H407.356Z" fill="#123942"/>
<path d="M385.086 156.918H361.48V127.243C361.48 121.592 355.146 118.383 350.743 121.803L305.531 156.918H240.771C234.005 156.918 228.521 162.52 228.521 169.431V278.632C228.521 285.543 234.005 291.145 240.771 291.145H385.086C391.851 291.145 397.335 285.543 397.335 278.632V169.431C397.335 162.52 391.851 156.918 385.086 156.918Z" fill="#FFB976"/>
<path d="M363.93 200.239H273.732V200.955H363.93V200.239Z" fill="#FF9F43"/>
<path d="M363.93 200.239H273.732V200.955H363.93V200.239Z" fill="white" fill-opacity="0.6"/>
<path d="M363.93 228.905H273.732V229.622H363.93V228.905Z" fill="#FF9F43"/>
<path d="M363.93 228.905H273.732V229.622H363.93V228.905Z" fill="white" fill-opacity="0.6"/>
<path d="M363.93 257.57H273.732V258.287H363.93V257.57Z" fill="#FF9F43"/>
<path d="M363.93 257.57H273.732V258.287H363.93V257.57Z" fill="white" fill-opacity="0.6"/>
<path d="M304.336 179.021C304.336 179.021 304.451 180.004 304.717 182.338C305.309 190.053 299.26 188.834 299.26 188.834C299.114 196.333 296.053 195.709 296.053 195.709C293.497 195.252 292.469 192.172 292.469 192.172C293.356 198.898 289.272 202.707 289.272 202.707C289.272 202.707 288.139 203.264 286.281 201.084C283.956 197.772 285.475 194.726 284.557 189.009C283.636 183.297 279.045 180.077 279.045 180.077C283.741 189.096 280.809 190.863 279.832 190.826C278.855 190.791 275.968 186.787 272.776 183.424C269.583 180.066 269.915 178.044 268.572 174.844C268.181 173.903 266.472 172.321 264.257 170.554C258.956 166.341 250.773 161.1 250.773 161.1L272.615 145.646C273.693 147.525 275 149.159 276.419 150.566C282.868 156.979 291.622 158.827 291.622 158.827C291.622 158.827 304.084 164.508 306.25 170.661C308.419 176.815 304.336 179.021 304.336 179.021Z" fill="#EEAB91"/>
<path d="M292.136 191.808C291.416 186.397 289.481 181.164 286.509 176.625C285.672 175.346 284.754 174.125 283.765 172.966C283.555 172.719 283.932 172.388 284.142 172.636C287.702 176.807 290.304 181.801 291.718 187.141C292.117 188.643 292.417 190.171 292.622 191.714C292.667 192.034 292.18 192.132 292.136 191.808Z" fill="#123942"/>
<path d="M299.151 188.499C298.809 182.787 296.348 177.275 292.457 173.174C291.351 172.007 290.127 170.965 288.809 170.058C288.544 169.876 288.823 169.455 289.088 169.637C293.859 172.92 297.349 177.998 298.864 183.657C299.291 185.25 299.549 186.882 299.647 188.531C299.666 188.859 299.17 188.822 299.151 188.499Z" fill="#123942"/>
<path d="M303.765 178.796C301.839 174.768 298.897 171.274 295.296 168.715C294.284 167.997 293.222 167.351 292.119 166.789C291.835 166.646 291.993 166.163 292.277 166.309C296.3 168.354 299.785 171.447 302.316 175.242C303.026 176.306 303.66 177.421 304.213 178.578C304.354 178.869 303.906 179.09 303.765 178.796Z" fill="#123942"/>
<path d="M278.688 179.811C278.282 178.969 277.876 178.127 277.47 177.285C277.329 176.991 277.777 176.772 277.918 177.066C278.324 177.908 278.73 178.75 279.137 179.592C279.279 179.884 278.831 180.105 278.688 179.811Z" fill="#123942"/>
<path d="M276.419 150.564L264.257 170.553C258.956 166.34 250.773 161.099 250.773 161.099L272.615 145.645C273.693 147.524 275.001 149.157 276.419 150.564Z" fill="#123942"/>
<path d="M282.638 140.081L253.69 174.209L231.762 156.569L262.824 120.583C269.876 126.88 276.875 133.601 282.638 140.081Z" fill="#216778"/>
<path d="M178.931 281.493C178.858 281.493 178.783 281.469 178.72 281.42C174.2 277.906 134.529 247.031 133.483 244.895C132.433 242.751 128.995 224.422 128.848 223.645C128.813 223.45 128.937 223.262 129.127 223.225C129.315 223.19 129.5 223.315 129.538 223.51C130.767 230.076 133.304 242.929 134.109 244.575C134.873 246.101 161.459 267.105 179.143 280.852C179.297 280.971 179.327 281.196 179.21 281.354C179.143 281.444 179.038 281.493 178.931 281.493Z" fill="#123942"/>
<path d="M220.385 317.735L214.493 352.976C213.826 356.967 211.818 360.386 209.012 362.823C208.356 363.399 207.644 363.927 206.899 364.383C205.561 365.221 204.104 365.854 202.565 366.26C201.94 366.43 201.294 366.559 200.646 366.652C199.338 366.834 197.985 366.856 196.619 366.69C196.323 366.661 196.015 366.614 195.714 366.562C195.414 366.51 195.109 366.448 194.819 366.376C193.478 366.069 192.209 365.591 191.034 364.976C190.454 364.669 189.886 364.328 189.352 363.956C188.032 363.051 186.864 361.959 185.874 360.716C185.32 360.033 184.818 359.292 184.387 358.529C182.533 355.278 181.749 351.373 182.416 347.381L188.307 312.141L220.385 317.735Z" fill="#6A99A5"/>
<path d="M220.385 317.735L218.352 329.885L187.518 316.864L188.307 312.138L220.385 317.735Z" fill="#123942"/>
<path d="M197.752 282.65L193.464 308.305L216.723 312.361L221.011 286.707L197.752 282.65Z" fill="#E9F0F2"/>
<path d="M221.185 305.648L191.479 300.466C190.225 300.247 189.033 301.109 188.819 302.39L187.16 312.317C186.945 313.598 187.789 314.816 189.044 315.035L218.75 320.217C220.004 320.436 221.196 319.574 221.41 318.293L223.069 308.366C223.284 307.084 222.44 305.867 221.185 305.648Z" fill="#6A99A5"/>
<path d="M219.315 318.642L189.022 313.357L190.914 302.04L221.206 307.325L219.315 318.642ZM189.832 312.772L218.741 317.815L220.397 307.912L191.488 302.869L189.832 312.772Z" fill="#6A99A5"/>
<path d="M221.032 286.714L218.853 299.748L196.588 289.755L197.773 282.657L221.032 286.714Z" fill="#123942"/>
<path d="M228.607 169.821C195.959 164.126 164.971 186.544 159.394 219.897C153.817 253.25 175.765 284.903 208.415 290.6C241.063 296.295 272.051 273.877 277.627 240.524C283.204 207.171 261.255 175.516 228.607 169.821ZM210.532 277.931C184.733 273.43 167.39 248.416 171.796 222.062C176.202 195.707 200.689 177.99 226.488 182.492C252.287 186.993 269.63 212.006 265.224 238.361C260.818 264.715 236.333 282.43 210.532 277.931Z" fill="#E9F0F2"/>
<path d="M218.983 334.597C218.983 334.597 215.751 339.184 209.107 339.071C209.107 339.071 212.229 339.757 212.97 342.295C212.97 342.295 213.933 345.325 206.656 346.349C206.656 346.349 208.551 352.343 200.979 352.645C198.679 352.645 197.712 352.645 197.712 352.645C197.712 352.645 196.044 357.042 189.809 355.563C183.57 354.088 176.59 342.105 176.59 342.105C176.59 342.105 173.935 333.945 167.396 328.167C165.713 326.682 163.773 325.352 161.558 324.358L174.031 300.396C174.031 300.396 178.545 306.135 182.815 310.839C185.556 313.865 188.197 316.464 189.473 316.849C192.741 317.836 194.665 317.268 198.308 320.11C201.946 322.956 206.175 325.422 206.327 326.405C206.472 327.393 205.099 330.577 195.783 326.861C195.783 326.861 199.446 331.147 205.114 331.411C210.781 331.678 213.562 329.778 217.055 331.754C219.39 333.383 218.983 334.597 218.983 334.597Z" fill="#EEAB91"/>
<path d="M208.718 338.775C203.374 338.676 198.061 337.324 193.3 334.839C191.958 334.139 190.665 333.351 189.422 332.483C189.159 332.299 188.881 332.72 189.147 332.905C193.617 336.03 198.776 338.085 204.132 338.898C205.64 339.126 207.16 339.253 208.684 339.282C209.002 339.288 209.039 338.781 208.718 338.775Z" fill="#123942"/>
<path d="M206.322 346.277C200.729 346.599 195.083 344.745 190.641 341.276C189.377 340.29 188.22 339.17 187.185 337.938C186.976 337.69 186.6 338.022 186.808 338.27C190.557 342.727 195.901 345.674 201.58 346.551C203.179 346.798 204.796 346.868 206.412 346.776C206.733 346.76 206.638 346.26 206.322 346.277Z" fill="#123942"/>
<path d="M197.427 352.092C193.286 350.609 189.545 348.032 186.638 344.676C185.821 343.733 185.068 342.73 184.394 341.677C184.222 341.407 183.771 341.622 183.944 341.894C186.402 345.737 189.816 348.911 193.802 351.036C194.92 351.631 196.077 352.146 197.267 352.571C197.568 352.682 197.73 352.201 197.427 352.092Z" fill="#123942"/>
<path d="M195.485 326.534C194.619 326.22 193.752 325.906 192.886 325.594C192.585 325.485 192.423 325.964 192.726 326.074C193.592 326.388 194.458 326.702 195.325 327.014C195.626 327.123 195.788 326.644 195.485 326.534Z" fill="#123942"/>
<path d="M182.815 310.841L167.396 328.169C165.713 326.684 163.773 325.353 161.558 324.36L174.031 300.398C174.031 300.398 178.546 306.136 182.815 310.841Z" fill="#123942"/>
<path d="M189.103 289.096L161.488 334.141L148.425 325.367L181.828 283.101L189.103 289.096Z" fill="#216778"/>
<path opacity="0.29" d="M218.865 273.977C242.548 273.977 261.746 254.365 261.746 230.173C261.746 205.981 242.548 186.37 218.865 186.37C195.183 186.37 175.985 205.981 175.985 230.173C175.985 254.365 195.183 273.977 218.865 273.977Z" fill="#E9F0F2"/>
<path d="M252.155 229.791C245.549 241.788 232.972 249.89 218.536 249.89C204.103 249.89 191.524 241.788 184.919 229.791C191.526 217.794 204.103 209.692 218.536 209.692C232.972 209.694 245.549 217.794 252.155 229.791Z" fill="#E9F0F2"/>
<path d="M218.537 245.311C226.928 245.311 233.73 238.362 233.73 229.791C233.73 221.22 226.928 214.271 218.537 214.271C210.147 214.271 203.345 221.22 203.345 229.791C203.345 238.362 210.147 245.311 218.537 245.311Z" fill="#123942"/>
<path d="M228.389 223.781C228.726 221.662 227.317 219.666 225.242 219.322C223.168 218.978 221.213 220.417 220.877 222.536C220.54 224.655 221.949 226.652 224.023 226.996C226.098 227.34 228.052 225.901 228.389 223.781Z" fill="#E9F0F2"/>
<path d="M123.785 183.158C113.246 186.143 107.955 178.828 109.623 172.72C111.29 166.611 110.893 149.795 110.893 149.795C103.491 146.09 102.981 138.935 107.303 137.041C111.62 135.153 114.922 140.836 114.922 140.836C120.148 137.731 122.247 130.822 122.247 130.822C131.474 135.248 137.431 130.162 137.431 130.162C144.737 144.989 132.751 151.903 132.19 152.221L132.17 152.23L133.708 157.353L135.923 159.071C142.911 166.793 134.32 180.172 123.785 183.158Z" fill="#EEAB91"/>
<path d="M133.706 157.352C123.453 159.441 120.827 152.294 120.827 152.294C127.83 154.38 132.169 152.228 132.169 152.228L133.706 157.352Z" fill="#123942"/>
<path d="M102.585 171.058C101.687 176.093 100.07 180.997 97.8267 185.573C95.5951 190.122 92.755 194.369 89.3949 198.126C87.7133 200.007 85.9028 201.768 83.9785 203.386C83.295 203.961 82.5921 204.509 81.8832 205.048C82.4767 202.436 83.3625 199.91 84.6963 197.573C87.9096 191.944 94.1129 188.312 96.0387 181.879C96.2545 181.159 96.3984 180.421 96.4749 179.673C96.5078 179.347 96.0118 179.31 95.9788 179.636C95.2909 186.428 88.9782 190.423 85.3798 195.56C83.292 198.538 82.0406 201.946 81.2927 205.488C79.9229 206.502 78.5216 207.471 77.1083 208.422C74.8317 209.953 72.5222 211.479 70.3385 213.162C70.5783 212.185 70.7821 211.199 70.9545 210.209C71.7144 205.839 71.9272 201.37 72.9808 197.054C73.877 193.375 75.3787 189.686 78.0795 187C78.4137 186.668 78.7659 186.353 79.1301 186.056C79.3804 185.852 79.0551 185.468 78.8048 185.671C75.9003 188.038 74.1063 191.478 73.0138 195.05C71.7638 199.133 71.4296 203.414 70.8496 207.629C70.5678 209.679 70.2051 211.71 69.6701 213.688C67.6753 215.276 65.8034 217.009 64.1832 219.021C62.0011 221.729 60.3465 225.039 59.795 228.513C57.3281 230.427 54.5464 231.929 51.5894 232.872C51.1803 233.002 50.7666 233.121 50.3515 233.232C50.0427 233.314 50.1327 233.813 50.4429 233.731C53.7791 232.846 56.9174 231.29 59.6975 229.214C59.5192 230.779 59.5657 232.37 59.9014 233.951C60.0378 234.588 60.2221 235.214 60.4484 235.824C60.5623 236.13 61.0104 235.909 60.898 235.606C60.0767 233.383 59.9269 231.055 60.2626 228.778C62.9213 226.687 65.2279 224.115 67.0083 221.21C67.9376 219.696 68.7274 218.089 69.3509 216.418C69.6521 215.613 69.9009 214.791 70.1272 213.961C72.158 212.357 74.3131 210.902 76.4443 209.472C78.024 208.413 79.6022 207.347 81.1429 206.228C80.7172 208.46 80.4804 210.737 80.3545 212.986C79.9933 219.5 80.5569 226.042 79.8749 232.541C79.5272 235.845 78.8498 239.129 77.5699 242.194C76.4773 244.814 74.9216 247.22 73.0018 249.284C69.237 253.332 64.1593 256.109 58.7399 256.915C58.0714 257.014 57.4 257.081 56.7256 257.121C56.4063 257.14 56.5008 257.639 56.817 257.62C62.2993 257.296 67.5943 254.956 71.7084 251.261C73.7631 249.414 75.5331 247.226 76.8745 244.788C78.4047 242.007 79.3549 238.939 79.9184 235.811C81.1039 229.233 80.6018 222.524 80.7457 215.878C80.8176 212.537 81.0499 209.112 81.7259 205.807C82.3358 205.354 82.9398 204.89 83.5333 204.411C85.4757 202.84 87.3071 201.127 89.0127 199.293C92.4193 195.63 95.3328 191.494 97.6514 187.032C99.9699 182.573 101.704 177.796 102.744 172.858C102.867 172.272 102.981 171.684 103.086 171.095C103.138 170.773 102.642 170.738 102.585 171.058ZM67.4475 219.427C65.7704 222.585 63.4908 225.399 60.7901 227.699C60.6597 227.81 60.5234 227.914 60.39 228.023C60.9385 225.212 62.2079 222.513 63.8745 220.235C65.4617 218.066 67.3665 216.208 69.4198 214.524C68.9147 216.21 68.2838 217.853 67.4475 219.427Z" fill="#123942"/>
<path d="M228.735 146.209L228.179 153.943L228.878 153.995L229.435 146.262L228.735 146.209Z" fill="#123942"/>
<path d="M222.481 103.587C217.645 103.587 213.825 102.104 213.754 102.074L214.009 101.407C214.14 101.459 227.017 106.452 235.167 97.7188L235.675 98.2133C231.718 102.451 226.711 103.587 222.481 103.587Z" fill="#123942"/>
<path d="M212.591 115.358L148.009 161.171L148.409 161.76L212.991 115.947L212.591 115.358Z" fill="#123942"/>
<path d="M273.468 133.01L243.718 164.423L244.222 164.921L273.972 133.508L273.468 133.01Z" fill="#123942"/>
<path d="M268.437 138.803C258.122 126.979 236.975 109.141 236.762 108.962L237.208 108.41C237.421 108.589 258.61 126.462 268.96 138.327L268.437 138.803Z" fill="#123942"/>
<path d="M176.401 279.184L148.152 325.176L148.746 325.557L176.995 279.564L176.401 279.184Z" fill="#123942"/>
<path d="M87.3583 267.631L86.9746 268.231L155.434 313.929L155.817 313.329L87.3583 267.631Z" fill="#123942"/>
<path d="M82.8992 281.141L82.1978 281.129C82.4616 266.364 71.8476 261.055 71.7412 261.003L72.041 260.355C72.1519 260.409 83.1705 265.919 82.8992 281.141Z" fill="#123942"/>
<path d="M248.028 312.824C244.715 312.824 241.959 311.878 239.813 310.002C235.677 306.384 235.312 300.66 235.299 300.418L235.999 300.377C236.002 300.433 236.364 306.046 240.275 309.46C242.668 311.551 245.899 312.41 249.868 312.009L249.937 312.723C249.28 312.792 248.645 312.824 248.028 312.824Z" fill="#E9F0F2"/>
<path d="M243.135 324.129L242.452 324.293L250.916 361.149L251.599 360.985L243.135 324.129Z" fill="#E9F0F2"/>
<path d="M135.983 324.105L123.196 360.041L123.855 360.286L136.642 324.349L135.983 324.105Z" fill="#E9F0F2"/>
<path d="M459.594 81.1213H457.218C424.336 81.1213 397.681 108.352 397.681 141.94C397.681 164.432 409.634 184.07 427.404 194.593C428.443 195.208 429.083 196.34 429.083 197.566V213.023C429.083 215.904 432.339 217.512 434.548 215.72L450.944 202.424C453.007 202.644 455.099 202.759 457.217 202.759H459.592C492.474 202.759 519.129 175.529 519.129 141.94C519.132 108.352 492.476 81.1213 459.594 81.1213Z" fill="#216778"/>
<path d="M455.633 148.34C456.366 146.307 457.251 144.59 458.29 143.194C459.328 141.796 460.688 140.192 462.368 138.379C463.589 137.032 464.552 135.922 465.254 135.052C465.956 134.182 466.537 133.214 466.995 132.148C467.454 131.082 467.682 129.937 467.682 128.711V128.675C467.682 126.542 467.002 124.888 465.643 123.712C464.283 122.536 462.383 121.948 459.938 121.948C457.464 121.948 455.547 122.677 454.188 124.135C452.828 125.592 452.133 127.657 452.103 130.329V130.365H442.619V130.329C442.741 127.094 443.505 124.331 444.91 122.04C446.314 119.749 448.284 118.002 450.821 116.802C453.355 115.601 456.365 115 459.847 115C463.482 115 466.598 115.54 469.194 116.617C471.79 117.696 473.767 119.258 475.127 121.304C476.486 123.35 477.166 125.819 477.166 128.71V128.747C477.166 130.487 476.883 132.055 476.318 133.452C475.752 134.849 475.065 136.062 474.256 137.091C473.446 138.12 472.338 139.37 470.934 140.841C469.406 142.409 468.169 143.8 467.223 145.012C466.276 146.226 465.482 147.683 464.84 149.387C464.198 151.09 463.877 153.056 463.877 155.287H454.531C454.534 152.691 454.9 150.374 455.633 148.34ZM454.305 161.133H464.11V169H454.305V161.133Z" fill="#E9F0F2"/>
<path d="M483.968 292.321V334.986C483.968 336.727 482.591 338.134 480.887 338.134H436.349C434.645 338.134 433.268 336.727 433.268 334.986V292.321C433.268 290.58 434.645 289.173 436.349 289.173H480.887C482.591 289.173 483.968 290.58 483.968 292.321Z" fill="#B3CDD1"/>
<path d="M446.857 289.173C442.327 290.719 437.797 292.264 433.268 293.816V293.284C437.277 291.912 441.286 290.545 445.293 289.173H446.857Z" fill="#E9F0F2"/>
<path d="M449.247 291.353C443.921 294.603 438.594 297.849 433.268 301.095V300.507C435.637 299.063 438.008 297.615 440.378 296.171C444.205 293.836 448.029 291.508 451.853 289.173H452.826C451.633 289.9 450.44 290.626 449.247 291.353Z" fill="#E9F0F2"/>
<path d="M474.177 289.173C471.947 290.176 469.717 291.165 467.478 292.148C457.952 296.324 448.37 300.363 438.73 304.259C436.911 304.996 435.093 305.723 433.269 306.446V305.908C440.434 303.057 447.565 300.124 454.666 297.119C460.784 294.528 466.878 291.883 472.946 289.174H474.177V289.173Z" fill="#E9F0F2"/>
<path d="M436.144 309.909C435.186 310.415 434.224 310.917 433.268 311.424V310.856C439.813 307.407 446.36 303.956 452.905 300.507L474.408 289.174H475.496C472.479 290.767 469.468 292.353 466.451 293.94C456.348 299.262 446.245 304.585 436.144 309.909Z" fill="#E9F0F2"/>
<path d="M483.968 298.463V299C481.212 300.034 478.451 301.058 475.691 302.076C469.888 304.216 464.075 306.314 458.247 308.378C452.45 310.435 446.642 312.452 440.818 314.439C438.303 315.293 435.787 316.143 433.266 316.988V316.461C436.493 315.382 439.715 314.29 442.933 313.185C448.751 311.189 454.559 309.161 460.356 307.099C466.148 305.031 471.93 302.932 477.703 300.798C479.794 300.025 481.883 299.247 483.968 298.463Z" fill="#E9F0F2"/>
<path d="M483.968 302.338V302.952C482.294 304.103 480.611 305.235 478.911 306.346C473.916 309.622 468.819 312.735 463.653 315.723C458.502 318.703 453.28 321.56 448.018 324.334C443.132 326.909 438.206 329.412 433.266 331.874V331.31C433.422 331.234 433.582 331.151 433.737 331.075C439.063 328.412 444.366 325.705 449.626 322.91C454.873 320.114 460.078 317.238 465.216 314.228C470.337 311.222 475.394 308.096 480.344 304.798C481.558 303.991 482.771 303.172 483.968 302.338Z" fill="#E9F0F2"/>
<path d="M462.906 321.54C469.897 319.021 476.923 316.584 483.968 314.225V314.757C481.402 315.612 478.847 316.477 476.292 317.357C466.114 320.858 455.993 324.528 445.93 328.368C441.701 329.986 437.478 331.629 433.268 333.302V332.76C443.084 328.859 452.97 325.118 462.906 321.54Z" fill="#E9F0F2"/>
<path d="M483.968 318.351V318.98C482.614 319.973 481.252 320.956 479.884 321.929C471.731 327.723 463.318 333.139 454.674 338.134H453.667C458.657 335.268 463.573 332.263 468.408 329.124C473.696 325.69 478.887 322.097 483.968 318.351Z" fill="#E9F0F2"/>
<path d="M468.158 335.913C473.429 333.87 478.701 331.828 483.968 329.786V330.328C482.666 330.83 481.368 331.337 480.07 331.837C474.658 333.936 469.241 336.035 463.829 338.133H462.431C464.341 337.392 466.25 336.655 468.158 335.913Z" fill="#E9F0F2"/>
<path d="M505.124 320.985V363.651C505.124 365.392 503.747 366.799 502.047 366.799H461.884C461.172 366.799 460.522 366.554 460 366.139C459.855 366.032 459.72 365.903 459.605 365.766C459.189 365.3 458.908 364.706 458.828 364.051C458.813 363.922 458.803 363.784 458.803 363.651V320.944C458.807 320.754 458.822 320.575 458.863 320.396C459.128 318.937 460.376 317.836 461.884 317.836H502.047C503.747 317.838 505.124 319.246 505.124 320.985Z" fill="#123942"/>
<path d="M468.074 317.838C464.982 318.877 461.895 319.911 458.804 320.944C458.809 320.754 458.824 320.575 458.864 320.396C461.405 319.542 463.951 318.692 466.491 317.836H468.074V317.838Z" fill="#E9F0F2"/>
<path d="M471.341 319.849C467.163 322.988 462.983 326.13 458.804 329.268V328.639C463.594 325.041 468.386 321.437 473.18 317.838H474.016C473.125 318.508 472.233 319.179 471.341 319.849Z" fill="#E9F0F2"/>
<path d="M499.372 317.838C496.526 318.984 493.68 320.136 490.838 321.282C483.121 324.399 475.409 327.512 467.698 330.625C464.732 331.822 461.77 333.014 458.803 334.213V333.665C466.034 330.747 473.27 327.83 480.5 324.912C486.337 322.558 492.181 320.198 498.018 317.838H499.372Z" fill="#E9F0F2"/>
<path d="M466.78 341.978C464.144 343.499 461.488 344.968 458.803 346.391V345.823C466.164 341.906 473.349 337.627 480.314 333.005C487.404 328.3 494.264 323.233 500.869 317.838H501.681C498.204 320.688 494.655 323.443 491.043 326.11C483.252 331.854 475.143 337.151 466.78 341.978Z" fill="#E9F0F2"/>
<path d="M505.124 327.169V327.722C504.247 328.095 503.364 328.469 502.483 328.842C492.215 333.209 481.943 337.575 471.675 341.942C467.386 343.763 463.092 345.591 458.803 347.413V346.861C468.769 342.627 478.736 338.39 488.702 334.15C494.176 331.823 499.652 329.499 505.124 327.169Z" fill="#E9F0F2"/>
<path d="M505.124 332.524V333.149C504.557 333.595 503.991 334.025 503.42 334.455C498.5 338.166 493.509 341.775 488.442 345.276C483.38 348.777 478.249 352.166 473.048 355.446C468.363 358.406 463.623 361.272 458.827 364.051C458.812 363.922 458.801 363.784 458.801 363.651V363.483C458.857 363.452 458.906 363.421 458.962 363.391C464.254 360.32 469.484 357.131 474.65 353.839C479.861 350.512 485.008 347.077 490.08 343.529C495.126 340.002 500.097 336.363 504.998 332.621C505.039 332.59 505.084 332.555 505.124 332.524Z" fill="#E9F0F2"/>
<path d="M502.519 343.739C503.391 343.252 504.258 342.761 505.125 342.269V342.848C503.733 343.636 502.339 344.419 500.947 345.198C496.091 347.911 491.216 350.589 486.304 353.199C481.399 355.805 476.458 358.343 471.471 360.781C467.678 362.633 463.855 364.424 460.002 366.141C459.856 366.033 459.721 365.905 459.606 365.767C464.171 363.735 468.681 361.6 473.16 359.389C478.141 356.927 483.072 354.367 487.968 351.742C492.842 349.124 497.687 346.447 502.519 343.739Z" fill="#E9F0F2"/>
<path d="M505.124 349.477V350.194C501.506 353.87 497.678 357.319 493.665 360.534C490.908 362.74 488.062 364.833 485.141 366.799H484.25C484.756 366.461 485.261 366.118 485.763 365.775C491.712 361.685 497.323 357.099 502.529 352.066C503.411 351.218 504.277 350.353 505.124 349.477Z" fill="#E9F0F2"/>
<path d="M486.94 366.799C492.998 363.964 499.066 361.127 505.124 358.291V358.849C502.013 360.303 498.906 361.76 495.793 363.215C493.238 364.408 490.687 365.605 488.131 366.797H486.94V366.799Z" fill="#E9F0F2"/>
<path d="M460.808 331.147V363.671C460.798 365.401 459.425 366.799 457.727 366.799H419.569C418.07 366.799 416.823 365.703 416.552 364.255C416.518 364.091 416.497 363.916 416.497 363.743C416.492 363.713 416.492 363.682 416.492 363.651V331.147C416.492 329.406 417.869 327.999 419.569 327.999H457.727C458.488 327.999 459.189 328.281 459.726 328.751C459.861 328.864 459.982 328.991 460.096 329.129C460.537 329.679 460.808 330.38 460.808 331.147Z" fill="#216778"/>
<path d="M432.801 327.999L423.346 331.428L416.491 333.916V333.384L431.324 327.999H432.801Z" fill="#E9F0F2"/>
<path d="M437.221 327.999C430.31 331.239 423.395 334.464 416.491 337.725V337.168C419.837 335.591 423.186 334.025 426.538 332.454C429.7 330.969 432.867 329.486 436.03 328.001H437.221V327.999Z" fill="#E9F0F2"/>
<path d="M457.03 327.999C455.721 328.48 454.409 328.962 453.096 329.443C442.757 333.241 432.416 337.04 422.078 340.838C420.214 341.524 418.355 342.205 416.491 342.891V342.354L439.25 333.994C444.688 331.998 450.13 329.997 455.572 328.001H457.03V327.999Z" fill="#E9F0F2"/>
<path d="M421.892 346.954C420.094 347.762 418.289 348.572 416.491 349.381V348.833C424.323 345.32 432.16 341.804 439.982 338.272C446.636 335.266 453.276 332.191 459.725 328.75C459.859 328.864 459.981 328.991 460.095 329.129C458.035 330.229 455.961 331.293 453.866 332.328C443.36 337.525 432.575 342.157 421.892 346.954Z" fill="#E9F0F2"/>
<path d="M460.808 336.527V337.059C459.6 337.479 458.388 337.894 457.18 338.309C445.78 342.23 434.38 346.146 422.98 350.067C420.816 350.809 418.65 351.556 416.491 352.299V351.766C424.999 348.839 433.507 345.915 442.017 342.987C448.28 340.836 454.543 338.682 460.808 336.527Z" fill="#E9F0F2"/>
<path d="M460.808 339.004V339.567C460.492 339.726 460.182 339.884 459.865 340.043C450.064 344.988 440.268 349.927 430.466 354.872C425.811 357.223 421.15 359.571 416.491 361.921V361.358C416.747 361.225 417.002 361.096 417.258 360.969C427.06 356.024 436.861 351.085 446.657 346.14C451.372 343.759 456.092 341.384 460.808 339.004Z" fill="#E9F0F2"/>
<path d="M448.616 352.4C452.68 350.961 456.743 349.528 460.808 348.09V348.627C451.051 352.072 441.301 355.517 431.544 358.962C426.549 360.727 421.547 362.494 416.551 364.254C416.516 364.091 416.495 363.916 416.495 363.743C416.991 363.568 417.483 363.395 417.979 363.221C428.191 359.612 438.404 356.004 448.616 352.4Z" fill="#E9F0F2"/>
<path d="M460.808 353.916V354.479C453.517 357.924 446.131 361.185 438.7 364.302C436.682 365.147 434.661 365.981 432.632 366.8H431.285C439.207 363.611 447.054 360.239 454.827 356.681C456.818 355.763 458.818 354.846 460.808 353.916Z" fill="#E9F0F2"/>
<path d="M449.112 365.899C453.01 364.983 456.908 364.066 460.808 363.151V363.673C460.768 363.677 460.729 363.688 460.688 363.699L447.484 366.801H445.28C446.557 366.497 447.834 366.2 449.112 365.899Z" fill="#E9F0F2"/>
<path d="M565.104 366.865H47.9346V367.879H565.104V366.865Z" fill="#123942"/>
<path d="M349.347 63H282.529C280.58 63 279 64.5801 279 66.5291V86.3709V89.3221V101.518C279 103.85 281.72 105.127 283.514 103.635L296.476 92.8529H349.349C351.298 92.8529 352.878 91.2727 352.878 89.3237V66.5291C352.876 64.5801 351.296 63 349.347 63Z" fill="#216778"/>
<g clip-path="url(#clip0_161_8944)">
<path d="M304.623 426.839L328.18 370.619L270.489 390.161L289.938 396.792L269.749 412.571L282.24 425.986L299.397 406.961L304.623 426.839Z" fill="#B4EFD6"/>
<path d="M304.374 419.971L327.945 363.751L270.254 383.293L289.689 389.924L269.5 405.703L281.991 419.132L299.148 400.093L304.374 419.971Z" fill="white" stroke="#004F32" stroke-width="0.749118" stroke-linecap="round" stroke-linejoin="round"/>
</g>
<defs>
<clipPath id="clip0_161_8944">
<rect width="60" height="65" fill="white" transform="translate(268.5 362.793)"/>
</clipPath>
</defs>
</svg>
