<svg width="24" height="25" viewBox="0 0 24 25" fill="none" xmlns="http://www.w3.org/2000/svg">
<path fill-rule="evenodd" clip-rule="evenodd" d="M5 1.5C2.79086 1.5 1 3.29086 1 5.5V19.5C1 21.7091 2.79086 23.5 5 23.5H19C21.2091 23.5 23 21.7091 23 19.5V5.5C23 3.29086 21.2091 1.5 19 1.5H5ZM12.0169 5.51041H14.3144L13.4442 6.38204C13.2189 6.60784 13.2192 6.97356 13.445 7.19906C13.6703 7.42396 14.0362 7.42441 14.2619 7.19831L16.1149 5.34207C16.3434 5.11326 16.3404 4.73731 16.1017 4.51256L14.2619 2.66956C14.0365 2.44376 13.6708 2.44345 13.445 2.66881C13.2192 2.89431 13.2189 3.26003 13.4442 3.48583L14.3119 4.35505C11.9419 4.35505 11.9852 4.35493 11.9934 4.35491L11.9921 4.3549C5.88509 4.3549 2.00863 11.0013 5.07092 16.3437C5.22948 16.6203 5.58226 16.7163 5.85936 16.5576C6.13616 16.3989 6.23184 16.0459 6.07328 15.7691C3.43778 11.1715 6.81132 5.48423 12.0169 5.51041ZM18.929 8.37427C18.7704 8.09762 18.4174 8.00179 18.1406 8.16035C17.8638 8.31906 17.7681 8.67214 17.9268 8.94894C20.5423 13.5117 17.2413 19.2077 12 19.2077H9.68557L10.5557 18.336C10.7812 18.1102 10.7809 17.7445 10.5551 17.519C10.3293 17.2937 9.96342 17.294 9.73807 17.5198L7.88499 19.376C7.65843 19.6029 7.65723 19.9794 7.89898 20.2063L9.73807 22.0485C9.96342 22.2742 10.3291 22.2748 10.5551 22.0493C10.7809 21.8238 10.7812 21.4581 10.5558 21.2322L9.68812 20.363H12.0073C18.1174 20.3629 21.9907 13.7155 18.929 8.37427ZM14.3107 10.0483C14.3107 10.3673 14.052 10.626 13.7331 10.626H11.4224C11.1037 10.626 10.8447 10.8851 10.8447 11.2037C10.8447 11.5222 11.1037 11.7814 11.4224 11.7814H12.5776C13.5331 11.7814 14.3107 12.5588 14.3107 13.5144C14.3107 14.4727 13.5354 15.2476 12.5777 15.2476V15.8251C12.5777 16.144 12.319 16.4028 12 16.4028C11.681 16.4028 11.4224 16.144 11.4224 15.8251V15.2474H10.2669C9.94778 15.2473 9.68918 14.9887 9.68933 14.6696C9.68933 14.3507 9.94793 14.0921 10.267 14.0921L11.9973 14.0922L12 14.0921C12 14.0921 12.0281 14.0922 12.5776 14.0922C12.8977 14.0922 13.1554 13.833 13.1554 13.5144C13.1554 13.1958 12.8962 12.9367 12.5776 12.9367H11.4224C10.4666 12.9367 9.68933 12.1593 9.68933 11.2037C9.68933 10.2481 10.4666 9.47065 11.4224 9.47065V8.89298C11.4224 8.5739 11.681 8.3153 12 8.3153C12.319 8.3153 12.5777 8.5739 12.5777 8.89298V9.47065H13.7331C14.052 9.47065 14.3107 9.72926 14.3107 10.0483Z" fill="#216778"/>
</svg>
