<svg width="26" height="26" viewBox="0 0 26 26" fill="none" xmlns="http://www.w3.org/2000/svg">
<g clip-path="url(#clip0_230_13987)">
<path d="M18.6574 7.3125V5.78906C18.551 5.75732 18.4446 5.72559 18.3249 5.69385C17.2607 5.40185 14.9726 5.00195 12.9972 5.00195C11.0217 5.00195 8.72701 5.40185 7.6628 5.69385C7.54973 5.72559 7.48322 5.75098 7.38345 5.78271L7.43001 7.1665V7.3125C7.43001 8.44238 6.46557 9.36279 5.28163 9.36279H2.94037C1.75643 9.36279 0.791992 8.44238 0.791992 7.3125V7.29346L0.798644 6.69678C0.858505 6.23975 0.98488 5.79541 1.18442 5.37646C1.35735 4.9956 1.5835 4.63379 1.8562 4.31006C3.92476 1.78369 7.15065 0.755371 12.9972 0.755371C21.0785 0.755371 24.025 4.15137 24.1514 4.30371C24.4241 4.63379 24.6503 4.9956 24.8232 5.37646C25.0161 5.79541 25.1425 6.24609 25.2023 6.69678L25.209 7.29346C25.2223 8.42334 24.2645 9.3501 23.0806 9.36279H20.8058C19.6219 9.36914 18.6641 8.44873 18.6574 7.3125C18.6574 7.31885 18.6574 7.31885 18.6574 7.3125Z" fill="#45C4A0"/>
<path d="M23.0601 10.1182H20.8053C19.1824 10.1182 17.8654 8.86133 17.8654 7.3125V6.354C16.8278 6.1001 14.7992 5.75098 12.9967 5.75098C11.2208 5.75098 9.24533 6.08105 8.18777 6.33496L8.21438 7.14111V7.3125C8.21438 8.86133 6.89742 10.1182 5.27449 10.1182H2.93988C1.31696 10.1182 0 8.86133 0 7.3125V7.28711L0.00665132 6.68408C0.00665132 6.65234 0.00665132 6.62695 0.0133026 6.60156C0.0864671 6.07471 0.232796 5.5542 0.458941 5.06543L0.465592 5.05908C0.665132 4.62109 0.924533 4.2085 1.23715 3.83398C3.47199 1.11084 6.87746 0 12.9967 0C16.4886 0 19.4884 0.609375 21.9161 1.80273C23.8184 2.74219 24.6697 3.72607 24.7695 3.83398C25.0821 4.21484 25.3415 4.62744 25.5477 5.07178C25.7739 5.56055 25.9202 6.08105 25.9867 6.60791C25.9933 6.6333 25.9933 6.66504 25.9933 6.69043L26 7.28711C26.0133 8.83594 24.7096 10.1055 23.0867 10.1182H23.0601ZM13.0033 4.24658C15.1384 4.24658 17.4863 4.67822 18.5505 4.97021C18.6237 4.98926 18.6969 5.01465 18.77 5.03369L18.8897 5.07178C19.229 5.16699 19.4551 5.45898 19.4551 5.79541V7.31885C19.4551 8.03613 20.0604 8.61377 20.812 8.61377H23.0668C23.8184 8.61377 24.4236 8.02979 24.4236 7.31885V7.30615L24.417 6.74756C24.3638 6.37939 24.2574 6.01758 24.1044 5.6748C23.958 5.35107 23.7652 5.04639 23.539 4.76709C23.5324 4.76074 22.834 3.94189 21.1977 3.13574C19.6746 2.39941 17.0274 1.51074 12.9967 1.51074C7.42287 1.51074 4.37657 2.45654 2.47429 4.77344C2.47429 4.77344 2.47429 4.77979 2.46764 4.77979C2.24149 5.05908 2.04861 5.35742 1.90228 5.68115C1.7493 6.02393 1.64288 6.37939 1.58966 6.74756L1.58301 7.2998C1.57636 8.01709 2.18163 8.60107 2.92658 8.60742H5.28115C6.03274 8.60742 6.63801 8.02979 6.63801 7.3125V7.1792L6.59146 5.80176C6.57815 5.45898 6.8176 5.14795 7.16347 5.05273C7.19673 5.04639 7.22333 5.03369 7.24994 5.02734C7.30315 5.0083 7.36966 4.98926 7.44948 4.96387C8.50704 4.67822 10.8549 4.24658 13.0033 4.24658Z" fill="#45C4A0"/>
<path d="M22.2089 26H3.7914C2.65403 26 1.72949 25.1177 1.72949 24.0322C1.72949 23.9878 1.72949 23.937 1.73614 23.8926L2.521 13.7935C2.58751 12.8794 3.31251 12.1304 4.26364 11.9971L8.54044 11.2988L9.05924 9.85791C9.34525 9.06445 10.1301 8.53125 11.0081 8.53125H14.9922C15.8702 8.53125 16.655 9.06445 16.9411 9.85791L17.4599 11.2988L21.7367 11.9971C22.6878 12.1304 23.4128 12.8794 23.4793 13.7935L24.2642 23.8926C24.344 24.978 23.4926 25.9175 22.3552 26H22.2089ZM11.0081 10.0356C10.8019 10.0356 10.6223 10.1626 10.5558 10.3467L9.88401 12.2065C9.79089 12.4668 9.55144 12.6572 9.27209 12.708L4.52305 13.4824L4.50309 13.4888C4.2836 13.5205 4.11066 13.6919 4.09736 13.9077L3.31251 24.0005C3.29255 24.248 3.49209 24.4702 3.75149 24.4893H22.2022C22.4683 24.4893 22.6811 24.2861 22.6811 24.0322V24.0005L21.9029 13.9014C21.8896 13.6855 21.7167 13.5142 21.4972 13.4824L21.4773 13.4761L16.7282 12.7017C16.4422 12.6572 16.2094 12.4604 16.1163 12.2002L15.4512 10.3403C15.3846 10.1563 15.2051 10.0356 14.9989 10.0293H11.0081V10.0356Z" fill="#B5E7D9"/>
<path d="M13.0032 22.6675C10.3626 22.6675 8.22754 20.6235 8.22754 18.1099C8.22754 15.5962 10.3693 13.5522 13.0032 13.5522C13.4422 13.5522 13.7947 13.8887 13.7947 14.3076C13.7947 14.7266 13.4422 15.063 13.0032 15.063C11.2406 15.063 9.81055 16.4277 9.81055 18.1099C9.81055 19.792 11.2406 21.1567 13.0032 21.1567C14.7658 21.1567 16.1958 19.792 16.1958 18.1099C16.1958 17.418 15.9497 16.7451 15.4974 16.2056C15.2247 15.8818 15.2779 15.4058 15.6172 15.1455C15.9564 14.8853 16.4552 14.936 16.7279 15.2598C18.3774 17.2275 18.0449 20.0967 15.983 21.6709C15.1383 22.3184 14.0807 22.6675 13.0032 22.6675Z" fill="#B5E7D9"/>
</g>
<defs>
<clipPath id="clip0_230_13987">
<rect width="26" height="26" fill="white"/>
</clipPath>
</defs>
</svg>
