<svg width="42" height="42" viewBox="0 0 42 42" fill="none" xmlns="http://www.w3.org/2000/svg">
<rect width="42" height="42" rx="8" fill="#B2C9F3" fill-opacity="0.2"/>
<path d="M26 13L24.0198 9.37456C23.9736 9.28837 23.9119 9.21288 23.8382 9.15248C23.7644 9.09209 23.6802 9.04799 23.5904 9.02278C23.4086 8.97399 23.2161 9.00427 23.0551 9.10698L17 12.9916L26 13Z" fill="#B2C9F3"/>
<path d="M12 13.9994C11.7401 13.9914 11.4935 13.8826 11.3125 13.6959C11.1315 13.5093 11.0303 13.2595 11.0303 12.9995C11.0303 12.7395 11.1315 12.4898 11.3125 12.3031C11.4935 12.1165 11.7401 12.0076 12 11.9997H15.3749L18.7152 10H12C11.2924 10.0018 10.6083 10.2536 10.0684 10.711C9.52859 11.1683 9.16775 11.8018 9.04969 12.4994C9.02273 12.5804 9.00604 12.6645 9 12.7497V28C9.00223 28.795 9.31901 29.5567 9.88113 30.1189C10.4432 30.681 11.205 30.9978 12 31H28.9994C29.5291 30.9985 30.0367 30.7875 30.4114 30.413C30.7861 30.0385 30.9973 29.531 30.9991 29.0013V26.9997H28.4997C27.3063 26.9997 26.1617 26.5256 25.3178 25.6817C24.4739 24.8378 23.9998 23.6932 23.9998 22.4997C23.9998 21.3062 24.4739 20.1616 25.3178 19.3177C26.1617 18.4738 27.3063 17.9997 28.4997 17.9997H31V16.0019C30.9985 15.472 30.7874 14.9642 30.4127 14.5895C30.038 14.2148 29.5302 14.0037 29.0003 14.0022H12V13.9994ZM28 11.9997C28.0003 11.5162 27.8251 11.049 27.507 10.6849C27.1889 10.3207 26.7495 10.0844 26.2704 10.0197L28 13V11.9997Z" fill="#4F379F"/>
<path d="M32.3 20H28.8C28.0574 20 27.3452 20.2634 26.8201 20.7322C26.295 21.2011 26 21.837 26 22.5C26 23.163 26.295 23.7989 26.8201 24.2678C27.3452 24.7366 28.0574 25 28.8 25H32.3C32.4857 25 32.6637 24.9342 32.795 24.8169C32.9263 24.6997 33 24.5408 33 24.375V20.625C33 20.4592 32.9263 20.3003 32.795 20.1831C32.6637 20.0658 32.4857 20 32.3 20ZM28.8 23.3328C28.6153 23.3328 28.4348 23.2839 28.2812 23.1923C28.1277 23.1006 28.008 22.9704 27.9374 22.818C27.8667 22.6657 27.8483 22.498 27.8844 22.3363C27.9205 22.1746 28.0095 22.0261 28.1401 21.9095C28.2708 21.793 28.4372 21.7136 28.6184 21.6815C28.7996 21.6495 28.9873 21.6661 29.1579 21.7293C29.3285 21.7925 29.4742 21.8995 29.5767 22.0367C29.6792 22.1739 29.7338 22.3351 29.7336 22.5C29.7332 22.7209 29.6346 22.9326 29.4596 23.0887C29.2846 23.2448 29.0474 23.3326 28.8 23.3328Z" fill="#B2C9F3"/>
</svg>
