<svg width="42" height="42" viewBox="0 0 42 42" fill="none" xmlns="http://www.w3.org/2000/svg">
<rect width="42" height="42" rx="8" fill="#B2C9F3" fill-opacity="0.2"/>
<g clip-path="url(#clip0_209_10234)">
<path d="M15.2503 19.9998H12.75C12.5511 19.9998 12.3603 20.0788 12.2197 20.2194C12.079 20.3601 12 20.5508 12 20.7498V23.2501C12 23.449 12.079 23.6397 12.2197 23.7804C12.3603 23.9211 12.5511 24.0001 12.75 24.0001H15.2503C15.4492 24.0001 15.64 23.9211 15.7806 23.7804C15.9213 23.6397 16.0003 23.449 16.0003 23.2501V20.7498C16.0003 20.5508 15.9213 20.3601 15.7806 20.2194C15.64 20.0788 15.4492 19.9998 15.2503 19.9998ZM15.2503 25.9998H12.75C12.5511 25.9998 12.3603 26.0788 12.2197 26.2194C12.079 26.3601 12 26.5508 12 26.7498V29.2501C12 29.449 12.079 29.6397 12.2197 29.7804C12.3603 29.9211 12.5511 30.0001 12.75 30.0001H15.2503C15.4492 30.0001 15.64 29.9211 15.7806 29.7804C15.9213 29.6397 16.0003 29.449 16.0003 29.2501V26.7498C16.0003 26.5508 15.9213 26.3601 15.7806 26.2194C15.64 26.0788 15.4492 25.9998 15.2503 25.9998ZM22.2497 19.9998H19.7494C19.5505 19.9998 19.3597 20.0788 19.219 20.2194C19.0784 20.3601 18.9994 20.5508 18.9994 20.7498V23.2501C18.9994 23.449 19.0784 23.6397 19.219 23.7804C19.3597 23.9211 19.5505 24.0001 19.7494 24.0001H22.2497C22.4486 24.0001 22.6394 23.9211 22.78 23.7804C22.9207 23.6397 22.9997 23.449 22.9997 23.2501V20.7498C22.9997 20.5508 22.9207 20.3601 22.78 20.2194C22.6394 20.0788 22.4486 19.9998 22.2497 19.9998ZM22.2497 25.9998H19.7494C19.5505 25.9998 19.3597 26.0788 19.219 26.2194C19.0784 26.3601 18.9994 26.5508 18.9994 26.7498V29.2501C18.9994 29.449 19.0784 29.6397 19.219 29.7804C19.3597 29.9211 19.5505 30.0001 19.7494 30.0001H22.2497C22.4486 30.0001 22.6394 29.9211 22.78 29.7804C22.9207 29.6397 22.9997 29.449 22.9997 29.2501V26.7498C22.9997 26.5508 22.9207 26.3601 22.78 26.2194C22.6394 26.0788 22.4486 25.9998 22.2497 25.9998ZM29.25 19.9998H26.7497C26.5508 19.9998 26.36 20.0788 26.2194 20.2194C26.0787 20.3601 25.9997 20.5508 25.9997 20.7498V23.2501C25.9997 23.449 26.0787 23.6397 26.2194 23.7804C26.36 23.9211 26.5508 24.0001 26.7497 24.0001H29.25C29.4489 24.0001 29.6397 23.9211 29.7803 23.7804C29.921 23.6397 30 23.449 30 23.2501V20.7498C30 20.5508 29.921 20.3601 29.7803 20.2194C29.6397 20.0788 29.4489 19.9998 29.25 19.9998Z" fill="#B2C9F3"/>
<path d="M30 12H12C11.2044 12 10.4413 12.3161 9.87868 12.8787C9.31607 13.4413 9 14.2044 9 15V30C9 30.7956 9.31607 31.5587 9.87868 32.1213C10.4413 32.6839 11.2044 33 12 33H30C30.7956 33 31.5587 32.6839 32.1213 32.1213C32.6839 31.5587 33 30.7956 33 30V15C33 14.2044 32.6839 13.4413 32.1213 12.8787C31.5587 12.3161 30.7956 12 30 12ZM31.0003 30C31.0003 30.2653 30.8949 30.5197 30.7073 30.7073C30.5197 30.8949 30.2653 31.0003 30 31.0003H12C11.7347 31.0003 11.4803 30.8949 11.2927 30.7073C11.1051 30.5197 10.9997 30.2653 10.9997 30V19.0397H30.9994V30H31.0003Z" fill="#4F379F"/>
<path d="M14.9999 9H13.9996C13.7343 9 13.4798 9.10539 13.2923 9.29298C13.1047 9.48058 12.9993 9.73501 12.9993 10.0003V14.0006C12.9998 14.2657 13.1053 14.5197 13.2929 14.7071C13.4804 14.8944 13.7345 14.9998 13.9996 15H14.9999C15.265 15 15.5193 14.8947 15.7069 14.7073C15.8945 14.52 16 14.2658 16.0002 14.0006V10.0003C16.0002 9.73501 15.8948 9.48058 15.7072 9.29298C15.5196 9.10539 15.2652 9 14.9999 9ZM28.0002 9H26.9999C26.7346 9 26.4802 9.10539 26.2926 9.29298C26.105 9.48058 25.9996 9.73501 25.9996 10.0003V14.0006C25.9998 14.2658 26.1053 14.52 26.2929 14.7073C26.4805 14.8947 26.7348 15 26.9999 15H28.0002C28.2655 15 28.5199 14.8946 28.7075 14.707C28.8951 14.5194 29.0005 14.265 29.0005 13.9997V10.0003C29.0005 9.73501 28.8951 9.48058 28.7075 9.29298C28.5199 9.10539 28.2655 9 28.0002 9Z" fill="#B2C9F3"/>
</g>
<defs>
<clipPath id="clip0_209_10234">
<rect width="24" height="24" fill="white" transform="translate(9 9)"/>
</clipPath>
</defs>
</svg>
