<svg width="42" height="42" viewBox="0 0 42 42" fill="none" xmlns="http://www.w3.org/2000/svg">
<rect width="42" height="42" rx="8" fill="#B2C9F3" fill-opacity="0.2"/>
<g clip-path="url(#clip0_209_10226)">
<path d="M28.3529 16.7514H25.4851C24.3132 16.7514 23.3598 15.797 23.3598 14.626C23.3598 14.011 23.6269 13.4617 24.0451 13.0735C23.1001 12.7089 22.0754 12.5007 21.0001 12.5007C16.3051 12.5007 12.4998 16.306 12.4998 21.001C12.4998 25.696 16.3051 29.5014 21.0001 29.5014C25.6951 29.5014 29.5004 25.696 29.5004 21.001C29.5004 19.4514 29.0785 18.0029 28.3529 16.7514ZM20.6204 20.251H21.3807C22.5488 20.251 23.5004 21.2017 23.5004 22.3707C23.5004 23.4226 22.7429 24.286 21.7501 24.4632V25.2507C21.7501 25.6651 21.4144 26.0007 21.0001 26.0007C20.5857 26.0007 20.2501 25.6651 20.2501 25.2507V24.5007H19.2498C18.8354 24.5007 18.4998 24.1651 18.4998 23.7507C18.4998 23.3364 18.8354 23.0007 19.2498 23.0007H21.3798C21.7219 23.0007 21.9994 22.7214 21.9994 22.381C21.9994 22.0407 21.7201 21.751 21.3798 21.751H20.6194C19.4513 21.751 18.4998 20.8004 18.4998 19.6314C18.4998 18.5795 19.2573 17.716 20.2501 17.5389V16.7514C20.2501 16.337 20.5857 16.0014 21.0001 16.0014C21.4144 16.0014 21.7501 16.337 21.7501 16.7514V17.5014H22.7504C23.1648 17.5014 23.5004 17.837 23.5004 18.2514C23.5004 18.6657 23.1648 19.0014 22.7504 19.0014H20.6204C20.2782 19.0014 20.0007 19.2807 20.0007 19.621C19.9988 19.9717 20.2782 20.251 20.6204 20.251Z" fill="#4F379F"/>
<path d="M31.9997 19.9997C31.4475 19.9997 30.9994 20.4478 30.9994 21C30.9994 26.5144 26.5125 31.0003 20.9991 31.0003C15.4856 31.0003 10.9997 26.5144 10.9997 21C10.9997 15.4856 15.4856 10.9997 21 10.9997C22.8281 10.9997 24.6544 11.5116 26.2294 12.4003L24.9375 13.6922C24.7974 13.8319 24.7019 14.0101 24.6631 14.2042C24.6244 14.3982 24.6441 14.5994 24.7198 14.7823C24.7955 14.9651 24.9238 15.1214 25.0884 15.2312C25.253 15.3411 25.4465 15.3996 25.6444 15.3994H30.0441C30.5963 15.3994 31.0444 14.9513 31.0444 14.3991V10.0013C31.0444 9.59625 30.8016 9.23156 30.4275 9.07688C30.0525 8.92125 29.6231 9.00656 29.3372 9.29438L27.6928 10.9388C25.725 9.70125 23.3925 9 21 9C14.3831 9 9 14.3841 9 21C9 27.6159 14.3831 33 21 33C27.6169 33 33 27.6169 33 21C33 20.4478 32.5528 19.9997 31.9997 19.9997Z" fill="#B2C9F3"/>
</g>
<defs>
<clipPath id="clip0_209_10226">
<rect width="24" height="24" fill="white" transform="translate(9 9)"/>
</clipPath>
</defs>
</svg>
