<svg width="26" height="27" viewBox="0 0 26 27" fill="none" xmlns="http://www.w3.org/2000/svg">
<g clip-path="url(#clip0_1012_2776)">
<path d="M25.4678 -2.54437e-06C20.3895 -0.0903967 14.6002 2.5615 10.9438 6.67799C7.40359 6.75196 4.02841 8.18905 1.5215 10.6899C1.44932 10.7606 1.39843 10.8502 1.37461 10.9484C1.35078 11.0466 1.35497 11.1495 1.38671 11.2454C1.41844 11.3414 1.47645 11.4265 1.55414 11.4911C1.63182 11.5558 1.72608 11.5973 1.8262 11.6111L5.99245 12.2113L5.48462 12.7882C5.39233 12.8915 5.34302 13.0261 5.34679 13.1645C5.35057 13.3029 5.40715 13.4347 5.50494 13.5327L12.4683 20.4961C12.566 20.5945 12.6977 20.6516 12.8363 20.6555C12.9749 20.6595 13.1097 20.6101 13.2128 20.5174L13.7897 20.0015L14.3849 24.1728C14.4038 24.2712 14.4497 24.3623 14.5175 24.4361C14.5854 24.5098 14.6724 24.5632 14.7688 24.5903C14.8187 24.6065 14.8708 24.6147 14.9232 24.6146C15.0797 24.612 15.2293 24.5499 15.3416 24.441C17.8246 21.9395 19.2489 18.578 19.319 15.0542C23.4395 11.3836 26.1128 5.59631 25.996 0.530174C25.9926 0.391156 25.9359 0.258758 25.8376 0.160429C25.7392 0.0620997 25.6068 0.00538007 25.4678 0.00202879V-2.54437e-06ZM20.4758 9.35427C20.0971 9.73285 19.6146 9.99064 19.0894 10.095C18.5642 10.1994 18.0198 10.1458 17.5251 9.94078C17.0303 9.73581 16.6075 9.38875 16.31 8.94348C16.0125 8.49821 15.8538 7.97473 15.8538 7.43923C15.8538 6.90373 16.0125 6.38025 16.31 5.93499C16.6075 5.48972 17.0303 5.14266 17.5251 4.93768C18.0198 4.73271 18.5642 4.67903 19.0894 4.78343C19.6146 4.88782 20.0971 5.14561 20.4758 5.5242C20.7285 5.77503 20.929 6.07338 21.0658 6.40205C21.2026 6.73072 21.2731 7.08322 21.2731 7.43923C21.2731 7.79525 21.2026 8.14774 21.0658 8.47641C20.929 8.80508 20.7285 9.10343 20.4758 9.35427Z" fill="#4D8593"/>
<path d="M2.95041 18.3134C1.79052 19.4723 0.203032 24.7111 0.022244 25.3043C-0.00132177 25.3851 -0.00581514 25.4703 0.00911719 25.5532C0.0240495 25.636 0.0580005 25.7143 0.108301 25.7818C0.158601 25.8494 0.223879 25.9043 0.299003 25.9423C0.374127 25.9804 0.457049 26.0005 0.541249 26.001C0.593899 26.0007 0.646233 25.9928 0.696645 25.9777C1.28979 25.8009 6.52758 24.2084 7.68747 23.0475C8.27358 22.411 8.59089 21.5726 8.573 20.7076C8.55512 19.8426 8.20344 19.018 7.59152 18.4064C6.97961 17.7947 6.15488 17.4434 5.28986 17.4259C4.42485 17.4084 3.58657 17.726 2.95041 18.3124V18.3134Z" fill="#D4E9ED"/>
</g>
<defs>
<clipPath id="clip0_1012_2776">
<rect width="26" height="26.002" fill="white"/>
</clipPath>
</defs>
</svg>
