<svg width="600" height="490" viewBox="0 0 600 490" fill="none" xmlns="http://www.w3.org/2000/svg">
<path d="M251.836 124.768H244.263V153.547H251.836V124.768Z" fill="#FFC861"/>
<path d="M255.833 124.768H240.264V140.337H255.833V124.768Z" fill="#72B6C5"/>
<path d="M303.789 124.768H296.216V153.547H303.789V124.768Z" fill="#FFC861"/>
<path d="M307.786 124.768H292.217V140.337H307.786V124.768Z" fill="#72B6C5"/>
<path d="M355.74 124.768H348.167V153.547H355.74V124.768Z" fill="#FFC861"/>
<path d="M359.737 124.768H344.167V140.337H359.737V124.768Z" fill="#72B6C5"/>
<path d="M396.692 80.5977C394.657 80.5977 392.693 80.903 390.842 81.4657C393.287 60.5363 373.544 42.5795 352.954 46.9193C351.066 38.545 347.441 30.8288 342.478 24.1649C314.59 -14.3842 252.927 -4.89397 237.284 39.0155C224.545 34.9937 209.64 37.7088 199.177 46.1403C168.236 69.4447 186.021 121.554 225.019 120.765H396.689C404.106 120.765 410.579 116.743 414.057 110.76C421.929 97.9091 411.829 80.2162 396.692 80.5977Z" fill="#72B6C5"/>
<path d="M560.853 481.42H365.764V357.474C365.764 355.894 367.045 354.613 368.626 354.613H557.992C559.572 354.613 560.853 355.894 560.853 357.474V481.42Z" fill="#0E2B32"/>
<path d="M554.374 361.023H372.244V474.044H554.374V361.023Z" fill="#E9F0F2"/>
<path d="M548.016 379.936V464.503C548.016 466.258 546.592 467.682 544.837 467.682H381.782C380.027 467.682 378.603 466.258 378.603 464.503V370.557C378.603 368.802 380.027 367.378 381.782 367.378H405.576C407.331 367.378 408.756 368.802 408.756 370.557V373.578C408.756 375.333 410.18 376.757 411.935 376.757H544.837C546.592 376.757 548.016 378.181 548.016 379.936Z" fill="white"/>
<path d="M560.853 489.136H365.764L348.1 484.37V481.42H578.518V484.37L560.853 489.136Z" fill="#72B6C5"/>
<path d="M386.405 374.093C387.523 374.093 388.43 373.186 388.43 372.068C388.43 370.949 387.523 370.042 386.405 370.042C385.286 370.042 384.379 370.949 384.379 372.068C384.379 373.186 385.286 374.093 386.405 374.093Z" fill="#FF4731"/>
<path d="M393.679 374.093C394.797 374.093 395.704 373.186 395.704 372.068C395.704 370.949 394.797 370.042 393.679 370.042C392.56 370.042 391.653 370.949 391.653 372.068C391.653 373.186 392.56 374.093 393.679 374.093Z" fill="#FFC861"/>
<path d="M400.953 374.093C402.072 374.093 402.979 373.186 402.979 372.068C402.979 370.949 402.072 370.042 400.953 370.042C399.835 370.042 398.928 370.949 398.928 372.068C398.928 373.186 399.835 374.093 400.953 374.093Z" fill="#00B25E"/>
<path d="M600 488.818H0V489.454H600V488.818Z" fill="#E9F0F2"/>
<path d="M278.247 451.636H42.0176C40.4375 451.636 39.1562 450.355 39.1562 448.775V290.664C39.1562 289.084 40.4375 287.803 42.0176 287.803H278.247C279.827 287.803 281.108 289.084 281.108 290.664V448.775C281.108 450.355 279.827 451.636 278.247 451.636Z" fill="#72B6C5"/>
<path d="M281.109 429.763H39.1533V283.301C39.1533 281.721 40.4346 280.44 42.0147 280.44H278.244C279.824 280.44 281.105 281.721 281.105 283.301V429.763H281.109Z" fill="#0E2B32"/>
<path d="M273.074 288.385H47.1904V420.613H273.074V288.385Z" fill="white"/>
<path d="M187.363 451.636H132.902V481.099H187.363V451.636Z" fill="#72B6C5"/>
<path d="M208.347 481.099H111.921V489.133H208.347V481.099Z" fill="#216778"/>
<path d="M160.133 445.389C162.968 445.389 165.267 443.09 165.267 440.254C165.267 437.418 162.968 435.12 160.133 435.12C157.297 435.12 154.998 437.418 154.998 440.254C154.998 443.09 157.297 445.389 160.133 445.389Z" fill="white"/>
<path d="M187.363 464.137L132.902 472.171V451.636H187.363V464.137Z" fill="#216778"/>
<path d="M59.2753 298.251C59.6623 296.612 58.6474 294.97 57.0087 294.583C55.3699 294.196 53.7278 295.211 53.3408 296.849C52.9538 298.488 53.9686 300.13 55.6074 300.517C57.2461 300.904 58.8884 299.89 59.2753 298.251Z" fill="#FF4731"/>
<path d="M70.2231 298.253C70.61 296.614 69.5952 294.972 67.9564 294.585C66.3177 294.198 64.6755 295.213 64.2885 296.851C63.9016 298.49 64.9164 300.132 66.5551 300.519C68.1939 300.906 69.8361 299.891 70.2231 298.253Z" fill="#FFC861"/>
<path d="M81.1713 298.252C81.5583 296.613 80.5434 294.971 78.9047 294.584C77.2659 294.197 75.6237 295.212 75.2368 296.85C74.8498 298.489 75.8646 300.131 77.5034 300.518C79.1421 300.905 80.7843 299.891 81.1713 298.252Z" fill="#00B25E"/>
<path d="M467.22 433.626C480.459 431.478 489.449 419.004 487.301 405.766C485.152 392.527 472.678 383.537 459.44 385.686C446.202 387.834 437.211 400.308 439.36 413.546C441.508 426.785 453.982 435.775 467.22 433.626Z" fill="#72B6C5"/>
<path d="M501.479 463.676C493.295 463.676 486.638 457.019 486.638 448.835C486.638 440.652 493.295 433.994 501.479 433.994C509.662 433.994 516.32 440.652 516.32 448.835C516.32 457.019 509.662 463.676 501.479 463.676ZM501.479 435.905C494.348 435.905 488.545 441.707 488.545 448.838C488.545 455.97 494.348 461.772 501.479 461.772C508.61 461.772 514.412 455.97 514.412 448.838C514.409 441.704 508.61 435.905 501.479 435.905Z" fill="#72B6C5"/>
<path d="M506.06 457.582C505.533 457.582 505.107 457.156 505.107 456.628V455.699C505.107 453.7 503.479 452.072 501.479 452.072C499.479 452.072 497.851 453.7 497.851 455.699V456.628C497.851 457.156 497.425 457.582 496.898 457.582C496.37 457.582 495.944 457.156 495.944 456.628V455.699C495.944 452.647 498.427 450.164 501.479 450.164C504.531 450.164 507.014 452.647 507.014 455.699V456.628C507.014 457.152 506.588 457.582 506.06 457.582Z" fill="#72B6C5"/>
<path d="M501.479 448.448C499.174 448.448 497.301 446.575 497.301 444.27C497.301 441.965 499.174 440.092 501.479 440.092C503.781 440.092 505.657 441.965 505.657 444.27C505.657 446.575 503.781 448.448 501.479 448.448ZM501.479 442C500.226 442 499.209 443.017 499.209 444.27C499.209 445.523 500.226 446.54 501.479 446.54C502.732 446.54 503.749 445.523 503.749 444.27C503.749 443.017 502.728 442 501.479 442Z" fill="#72B6C5"/>
<path d="M425.139 463.676C416.955 463.676 410.298 457.019 410.298 448.835C410.298 440.652 416.955 433.994 425.139 433.994C433.322 433.994 439.98 440.652 439.98 448.835C439.98 457.019 433.322 463.676 425.139 463.676ZM425.139 435.905C418.008 435.905 412.205 441.707 412.205 448.838C412.205 455.97 418.008 461.772 425.139 461.772C432.27 461.772 438.072 455.97 438.072 448.838C438.069 441.704 432.27 435.905 425.139 435.905Z" fill="#72B6C5"/>
<path d="M429.719 457.582C429.191 457.582 428.765 457.156 428.765 456.628V455.699C428.765 453.7 427.137 452.072 425.137 452.072C423.137 452.072 421.51 453.7 421.51 455.699V456.628C421.51 457.156 421.084 457.582 420.556 457.582C420.028 457.582 419.602 457.156 419.602 456.628V455.699C419.602 452.647 422.085 450.164 425.137 450.164C428.189 450.164 430.672 452.647 430.672 455.699V456.628C430.672 457.152 430.246 457.582 429.719 457.582Z" fill="#72B6C5"/>
<path d="M425.138 448.447C422.833 448.447 420.96 446.575 420.96 444.27C420.96 441.965 422.833 440.092 425.138 440.092C427.443 440.092 429.315 441.965 429.315 444.27C429.315 446.575 427.439 448.447 425.138 448.447ZM425.138 442C423.885 442 422.868 443.017 422.868 444.27C422.868 445.522 423.885 446.54 425.138 446.54C426.39 446.54 427.408 445.522 427.408 444.27C427.408 443.017 426.387 442 425.138 442Z" fill="#72B6C5"/>
<path d="M161.086 268.416H159.179V265.872H161.086V268.416ZM161.086 260.785H159.179V258.242H161.086V260.785ZM161.093 253.171L159.185 253.136C159.201 252.271 159.242 251.397 159.312 250.538L161.213 250.688C161.15 251.511 161.109 252.344 161.093 253.171ZM161.91 245.776L160.04 245.391C160.215 244.545 160.415 243.693 160.641 242.86L162.482 243.359C162.266 244.154 162.075 244.968 161.91 245.776ZM164.072 238.654L162.307 237.932C162.631 237.134 162.988 236.336 163.363 235.561L165.08 236.39C164.723 237.131 164.383 237.894 164.072 238.654ZM167.512 232.063L165.909 231.03C166.377 230.305 166.873 229.587 167.385 228.89L168.92 230.022C168.431 230.684 167.957 231.37 167.512 232.063ZM172.103 226.207L170.716 224.897C171.308 224.271 171.928 223.651 172.56 223.063L173.864 224.455C173.26 225.018 172.669 225.609 172.103 226.207ZM177.686 221.289L176.56 219.747C177.259 219.238 177.981 218.742 178.709 218.278L179.736 219.883C179.043 220.328 178.353 220.802 177.686 221.289ZM184.079 217.47L183.256 215.75C184.038 215.378 184.839 215.025 185.64 214.701L186.356 216.469C185.589 216.777 184.823 217.114 184.079 217.47ZM191.067 214.898L190.578 213.054C191.411 212.832 192.263 212.635 193.112 212.463L193.487 214.332C192.676 214.498 191.862 214.685 191.067 214.898ZM198.405 213.661L198.262 211.76C199.12 211.697 199.995 211.658 200.86 211.646L200.885 213.553C200.058 213.563 199.225 213.601 198.405 213.661ZM206.729 213.547C206.719 213.547 205.959 213.547 205.959 213.547V211.639H206.719C207.301 211.636 207.883 211.627 208.461 211.601L208.541 213.506C207.94 213.534 207.329 213.547 206.729 213.547ZM213.713 212.972L213.399 211.089C214.213 210.953 215.033 210.791 215.834 210.606L216.263 212.466C215.424 212.66 214.566 212.828 213.713 212.972ZM221.248 210.984L220.594 209.195C221.366 208.912 222.139 208.603 222.895 208.273L223.662 210.021C222.867 210.365 222.056 210.689 221.248 210.984ZM228.284 207.643L227.311 206.002C228.02 205.583 228.723 205.135 229.407 204.67L230.481 206.247C229.763 206.734 229.025 207.201 228.284 207.643ZM234.586 203.065L233.327 201.631C233.947 201.087 234.557 200.518 235.142 199.936L236.484 201.291C235.873 201.901 235.234 202.499 234.586 203.065ZM239.949 197.412L238.452 196.232C238.96 195.587 239.46 194.913 239.93 194.236L241.497 195.323C241.005 196.032 240.483 196.735 239.949 197.412ZM244.19 190.872L242.502 189.985C242.887 189.254 243.249 188.5 243.589 187.747L245.332 188.526C244.976 189.317 244.594 190.106 244.19 190.872ZM247.157 183.658L245.332 183.099C245.573 182.31 245.793 181.506 245.984 180.702L247.837 181.147C247.64 181.986 247.411 182.832 247.157 183.658ZM248.737 176.025L246.842 175.812C246.934 174.991 247.001 174.159 247.042 173.335L248.947 173.43C248.905 174.295 248.835 175.17 248.737 176.025ZM249.004 168.302H247.096V165.759H249.004V168.302ZM249.004 160.672H247.096V158.128H249.004V160.672Z" fill="#72B6C5"/>
<path d="M464.262 344.176H462.354V341.632H464.262V344.176ZM464.262 336.545H462.354V334.002H464.262V336.545ZM464.262 328.915H462.354V326.371H464.262V328.915ZM464.262 321.285H462.354V318.741H464.262V321.285ZM464.262 313.654H462.354V311.111H464.262V313.654ZM464.262 306.024H462.354V303.48H464.262V306.024ZM464.262 298.393H462.354V295.85H464.262V298.393ZM464.262 290.763H462.354V288.22H464.262V290.763ZM464.262 283.133H462.354V280.589H464.262V283.133ZM464.262 275.502H462.354V272.959H464.262V275.502ZM464.262 267.872H462.354V265.329H464.262V267.872ZM464.262 260.242H462.354V258.325C462.354 258.121 462.354 257.918 462.351 257.714L464.259 257.686C464.262 257.899 464.262 258.112 464.262 258.325V260.242ZM461.973 252.761C461.862 251.944 461.722 251.12 461.56 250.313L463.429 249.938C463.601 250.783 463.747 251.648 463.865 252.503L461.973 252.761ZM460.282 245.515C460.021 244.736 459.732 243.951 459.423 243.185L461.191 242.469C461.515 243.271 461.817 244.091 462.091 244.911L460.282 245.515ZM457.28 238.711C456.88 237.99 456.451 237.274 456.009 236.581L457.614 235.551C458.078 236.276 458.527 237.026 458.946 237.783L457.28 238.711ZM453.077 232.572C452.549 231.936 451.999 231.31 451.434 230.709L452.826 229.406C453.417 230.035 453.996 230.69 454.546 231.354L453.077 232.572ZM447.825 227.301C447.192 226.773 446.534 226.258 445.87 225.768L446.998 224.233C447.695 224.745 448.385 225.285 449.046 225.838L447.825 227.301ZM441.692 223.079C440.97 222.675 440.23 222.287 439.486 221.931L440.312 220.211C441.091 220.586 441.867 220.99 442.621 221.413L441.692 223.079ZM434.888 220.055C434.109 219.791 433.308 219.55 432.513 219.333L433.009 217.493C433.846 217.718 434.682 217.973 435.499 218.246L434.888 220.055ZM427.649 218.342C426.835 218.227 426.005 218.135 425.182 218.071L425.331 216.17C426.193 216.237 427.064 216.332 427.916 216.453L427.649 218.342ZM420.171 217.947H417.628V216.04H420.171V217.947ZM412.541 217.947H409.998V216.04H412.541V217.947ZM404.911 217.947H402.367V216.04H404.911V217.947ZM397.28 217.947H394.737V216.04H397.28V217.947ZM389.574 217.785C388.712 217.709 387.844 217.607 386.992 217.48L387.272 215.595C388.086 215.715 388.916 215.814 389.739 215.884L389.574 217.785ZM381.905 216.399C381.072 216.167 380.239 215.906 379.422 215.623L380.048 213.821C380.827 214.091 381.625 214.339 382.42 214.561L381.905 216.399ZM374.625 213.617C373.852 213.236 373.079 212.825 372.329 212.396L373.276 210.74C373.992 211.15 374.729 211.541 375.467 211.903L374.625 213.617ZM367.983 209.544C367.293 209.026 366.606 208.483 365.948 207.923L367.182 206.467C367.811 207.001 368.463 207.519 369.124 208.015L367.983 209.544ZM362.2 204.327C361.615 203.694 361.043 203.033 360.496 202.362L361.974 201.157C362.495 201.796 363.042 202.429 363.602 203.033L362.2 204.327ZM357.463 198.137C357.002 197.406 356.56 196.649 356.146 195.892L357.822 194.977C358.216 195.702 358.642 196.423 359.081 197.12L357.463 198.137ZM353.937 191.181C353.619 190.373 353.323 189.55 353.056 188.729L354.871 188.141C355.126 188.927 355.409 189.712 355.714 190.481L353.937 191.181ZM351.762 183.69C351.6 182.844 351.46 181.98 351.349 181.121L353.24 180.877C353.345 181.697 353.479 182.52 353.635 183.328L351.762 183.69ZM350.999 175.939V173.389H352.907V175.926L350.999 175.939ZM352.907 168.302H350.999V165.759H352.907V168.302ZM352.907 160.672H350.999V158.129H352.907V160.672Z" fill="#72B6C5"/>
<path d="M340.165 333.957H337.622V332.05H340.165V333.957ZM332.535 333.957H329.991V332.05H332.535V333.957ZM345.271 333.948L345.233 332.04C346.059 332.024 346.892 331.98 347.709 331.913L347.868 333.814C347.01 333.884 346.136 333.932 345.271 333.948ZM353.016 333.045L352.615 331.179C353.419 331.004 354.227 330.803 355.022 330.578L355.543 332.412C354.71 332.651 353.861 332.864 353.016 333.045ZM360.446 330.667L359.689 328.915C360.446 328.587 361.199 328.234 361.931 327.859L362.798 329.557C362.032 329.951 361.241 330.326 360.446 330.667ZM367.272 326.902L366.194 325.329C366.874 324.864 367.545 324.368 368.194 323.863L369.37 325.364C368.693 325.898 367.987 326.416 367.272 326.902ZM373.255 321.901L371.898 320.563C372.476 319.978 373.042 319.364 373.583 318.741L375.023 319.991C374.454 320.642 373.859 321.285 373.255 321.901ZM378.17 315.845L376.581 314.789C377.035 314.102 377.474 313.393 377.887 312.678L379.541 313.629C379.111 314.379 378.65 315.123 378.17 315.845ZM381.839 308.955L380.078 308.227C380.393 307.464 380.688 306.682 380.952 305.903L382.758 306.517C382.478 307.331 382.17 308.154 381.839 308.955ZM384.106 301.481L382.237 301.105C382.399 300.298 382.536 299.474 382.644 298.657L384.535 298.908C384.418 299.77 384.275 300.635 384.106 301.481ZM384.892 293.72L382.984 293.71V293.51C382.984 292.75 382.962 291.981 382.917 291.227L384.822 291.116C384.869 291.904 384.892 292.712 384.892 293.51V293.72ZM382.313 286.309C382.16 285.498 381.979 284.684 381.773 283.889L383.62 283.416C383.836 284.252 384.027 285.107 384.186 285.956L382.313 286.309ZM380.227 279.175C379.922 278.411 379.585 277.648 379.232 276.908L380.952 276.084C381.324 276.863 381.677 277.664 381.998 278.466L380.227 279.175ZM376.81 272.584C376.361 271.894 375.888 271.207 375.395 270.546L376.927 269.408C377.442 270.101 377.941 270.819 378.412 271.544L376.81 272.584ZM372.187 266.762C371.615 266.168 371.017 265.586 370.41 265.033L371.694 263.624C372.333 264.206 372.96 264.817 373.56 265.44L372.187 266.762ZM366.537 261.933C365.86 261.459 365.164 261.002 364.458 260.576L365.45 258.948C366.188 259.396 366.922 259.876 367.631 260.375L366.537 261.933ZM360.067 258.271C359.314 257.937 358.538 257.622 357.766 257.336L358.424 255.546C359.234 255.845 360.048 256.175 360.84 256.525L360.067 258.271ZM353.006 255.931C352.202 255.749 351.385 255.59 350.571 255.46L350.873 253.578C351.725 253.715 352.587 253.88 353.429 254.071L353.006 255.931ZM345.633 254.993C345.239 254.98 344.845 254.974 344.447 254.974H343.118V253.066H344.447C344.864 253.066 345.277 253.072 345.691 253.085L345.633 254.993ZM337.997 254.948C337.132 254.916 336.258 254.856 335.399 254.77L335.59 252.872C336.407 252.955 337.24 253.012 338.067 253.041L337.997 254.948ZM330.268 253.918C329.425 253.721 328.58 253.495 327.753 253.244L328.306 251.419C329.095 251.658 329.899 251.874 330.703 252.061L330.268 253.918ZM322.879 251.416C322.094 251.06 321.308 250.675 320.545 250.271L321.439 248.586C322.167 248.974 322.914 249.34 323.664 249.677L322.879 251.416ZM316.113 247.54C315.411 247.041 314.711 246.51 314.04 245.967L315.242 244.485C315.881 245.003 316.546 245.509 317.22 245.986L316.113 247.54ZM310.216 242.438C309.618 241.811 309.033 241.159 308.48 240.495L309.942 239.271C310.47 239.9 311.027 240.524 311.596 241.121L310.216 242.438ZM305.399 236.301C304.932 235.573 304.484 234.82 304.067 234.063L305.736 233.141C306.134 233.863 306.563 234.581 307.005 235.275L305.399 236.301ZM301.848 229.348C301.53 228.544 301.234 227.717 300.97 226.891L302.786 226.309C303.037 227.094 303.317 227.883 303.622 228.649L301.848 229.348ZM299.708 221.842C299.552 220.993 299.422 220.125 299.323 219.267L301.218 219.044C301.314 219.861 301.438 220.688 301.584 221.499L299.708 221.842ZM300.954 214.084H299.047V211.541H300.954V214.084ZM300.954 206.454H299.047V203.911H300.954V206.454ZM300.954 198.824H299.047V196.28H300.954V198.824ZM300.954 191.193H299.047V188.65H300.954V191.193ZM300.954 183.563H299.047V181.02H300.954V183.563ZM300.954 175.933H299.047V173.389H300.954V175.933ZM300.954 168.302H299.047V165.759H300.954V168.302ZM300.954 160.672H299.047V158.129H300.954V160.672Z" fill="#72B6C5"/>
<path d="M183.656 379.587H122.251C121.927 379.587 121.625 379.421 121.45 379.148C121.275 378.875 121.25 378.531 121.386 378.236L136.354 345.546C136.51 345.206 136.847 344.99 137.222 344.99H198.017C198.338 344.99 198.64 345.152 198.815 345.422C198.99 345.692 199.019 346.032 198.888 346.328L184.531 379.018C184.378 379.364 184.035 379.587 183.656 379.587ZM123.736 377.679H183.033L196.555 346.897H137.833L123.736 377.679Z" fill="#72B6C5"/>
<path d="M122.251 379.587C121.723 379.587 121.297 379.161 121.297 378.633V330.365C121.297 329.837 121.723 329.411 122.251 329.411H143.025C143.394 329.411 143.731 329.624 143.886 329.958L146.074 334.603H184.267C184.795 334.603 185.221 335.029 185.221 335.556V340.481C185.221 341.009 184.795 341.435 184.267 341.435C183.739 341.435 183.313 341.009 183.313 340.481V336.51H145.466C145.098 336.51 144.761 336.297 144.605 335.963L142.418 331.318H123.202V378.633C123.205 379.161 122.776 379.587 122.251 379.587Z" fill="#72B6C5"/>
<path d="M538.76 304.771V370.043H482.032V290.34H524.329L538.76 304.771Z" fill="#FFC861"/>
<path d="M524.33 290.34L538.76 304.771H524.33V290.34Z" fill="#FD924B"/>
<path d="M525.203 351.266H495.588C495.06 351.266 494.634 350.84 494.634 350.312V342.071C494.634 341.543 495.06 341.117 495.588 341.117C496.116 341.117 496.542 341.543 496.542 342.071V349.358H524.25V342.071C524.25 341.543 524.676 341.117 525.203 341.117C525.731 341.117 526.157 341.543 526.157 342.071V350.312C526.157 350.84 525.731 351.266 525.203 351.266Z" fill="white"/>
<path d="M510.397 340.577C510.088 340.577 509.799 340.427 509.621 340.176L500.786 327.777C500.579 327.487 500.551 327.103 500.716 326.785C500.878 326.467 501.205 326.267 501.565 326.267H504.337V310.068C504.337 309.728 504.518 309.416 504.811 309.245C505.103 309.073 505.466 309.073 505.761 309.238L510.403 311.867L515.045 309.238C515.341 309.07 515.703 309.073 515.996 309.245C516.288 309.416 516.469 309.728 516.469 310.068V326.267H519.242C519.598 326.267 519.925 326.467 520.091 326.785C520.253 327.103 520.227 327.484 520.021 327.777L511.182 340.176C510.995 340.427 510.705 340.577 510.397 340.577ZM503.409 328.181L510.394 337.982L517.379 328.181H515.503C514.975 328.181 514.549 327.755 514.549 327.227V311.709L510.861 313.797C510.569 313.963 510.212 313.963 509.92 313.797L506.232 311.709V327.227C506.232 327.755 505.806 328.181 505.278 328.181H503.409Z" fill="white"/>
<path d="M491.789 439.847C491.541 439.847 491.293 439.752 491.105 439.558L479.571 427.721C479.202 427.343 479.212 426.739 479.587 426.373C479.965 426.005 480.569 426.014 480.935 426.389L492.469 438.226C492.838 438.604 492.829 439.208 492.453 439.574C492.269 439.758 492.031 439.847 491.789 439.847Z" fill="#72B6C5"/>
<path d="M434.825 439.848C434.586 439.848 434.345 439.759 434.16 439.577C433.782 439.209 433.776 438.604 434.144 438.229L445.679 426.389C446.045 426.011 446.649 426.005 447.027 426.374C447.405 426.742 447.412 427.346 447.043 427.722L435.508 439.561C435.321 439.752 435.073 439.848 434.825 439.848Z" fill="#72B6C5"/>
<path d="M487.592 449.789H439.021C438.493 449.789 438.067 449.363 438.067 448.835C438.067 448.307 438.493 447.881 439.021 447.881H487.592C488.119 447.881 488.545 448.307 488.545 448.835C488.545 449.363 488.119 449.789 487.592 449.789Z" fill="#72B6C5"/>
<path d="M301.5 406.312H252.116C248.603 406.312 245.757 403.466 245.757 399.953V305.21C245.757 301.697 248.603 298.851 252.116 298.851H301.5C305.013 298.851 307.859 301.697 307.859 305.21V399.953C307.859 403.466 305.013 406.312 301.5 406.312Z" fill="#0E2B32"/>
<path d="M252.116 402.497C250.714 402.497 249.573 401.355 249.573 399.953V305.21C249.573 303.808 250.714 302.666 252.116 302.666H256.742C257.502 302.666 258.119 303.283 258.119 304.043C258.119 307.022 260.545 309.448 263.524 309.448H290.096C293.075 309.448 295.501 307.022 295.501 304.043C295.501 303.283 296.118 302.666 296.878 302.666H301.504C302.906 302.666 304.047 303.808 304.047 305.21V399.953C304.047 401.355 302.906 402.497 301.504 402.497H252.116Z" fill="white"/>
<path d="M285.282 303.169H272.676C272.107 303.169 271.643 303.633 271.643 304.202C271.643 304.771 272.107 305.235 272.676 305.235H285.282C285.851 305.235 286.316 304.771 286.316 304.202C286.316 303.633 285.855 303.169 285.282 303.169Z" fill="#353535"/>
<path d="M268.333 305.235C268.904 305.235 269.366 304.773 269.366 304.202C269.366 303.631 268.904 303.169 268.333 303.169C267.762 303.169 267.3 303.631 267.3 304.202C267.3 304.773 267.762 305.235 268.333 305.235Z" fill="#353535"/>
<path d="M269.46 328.063H257.518C256.99 328.063 256.564 327.637 256.564 327.109C256.564 326.581 256.99 326.155 257.518 326.155H269.46C269.987 326.155 270.414 326.581 270.414 327.109C270.414 327.634 269.987 328.063 269.46 328.063Z" fill="#72B6C5"/>
<path d="M277.084 333.957H257.518C256.99 333.957 256.564 333.531 256.564 333.003C256.564 332.476 256.99 332.05 257.518 332.05H277.084C277.612 332.05 278.038 332.476 278.038 333.003C278.038 333.531 277.608 333.957 277.084 333.957Z" fill="#72B6C5"/>
<path d="M277.084 339.848H257.518C256.99 339.848 256.564 339.422 256.564 338.895C256.564 338.367 256.99 337.941 257.518 337.941H277.084C277.612 337.941 278.038 338.367 278.038 338.895C278.038 339.422 277.608 339.848 277.084 339.848Z" fill="#72B6C5"/>
<path d="M317.424 342.577C322.711 337.29 322.711 328.719 317.424 323.432C312.138 318.145 303.566 318.145 298.279 323.432C292.993 328.719 292.993 337.29 298.279 342.577C303.566 347.863 312.138 347.863 317.424 342.577Z" fill="#28C76F"/>
<path d="M317.424 342.577C322.711 337.29 322.711 328.719 317.424 323.432C312.138 318.145 303.566 318.145 298.279 323.432C292.993 328.719 292.993 337.29 298.279 342.577C303.566 347.863 312.138 347.863 317.424 342.577Z" fill="white" fill-opacity="0.2"/>
<path d="M306.393 337.512C306.384 337.512 306.371 337.512 306.362 337.512C305.735 337.489 305.15 337.229 304.721 336.771L301.001 332.981C300.632 332.606 300.639 332.002 301.014 331.633C301.389 331.264 301.993 331.271 302.362 331.646L306.094 335.448C306.18 335.541 306.285 335.591 306.396 335.601C306.508 335.591 306.61 335.54 306.689 335.461L313.366 328.769C313.738 328.397 314.342 328.393 314.714 328.769C315.086 329.141 315.089 329.745 314.717 330.117L308.053 336.793C307.633 337.232 307.051 337.489 306.425 337.509C306.412 337.512 306.403 337.512 306.393 337.512Z" fill="white"/>
<path d="M278.982 352.146H220.148V388.219H259.651L266.179 394.746V388.219H278.982V352.146Z" fill="#72B6C5"/>
<path d="M259.95 365.238H239.173C238.645 365.238 238.219 364.812 238.219 364.285C238.219 363.757 238.645 363.331 239.173 363.331H259.95C260.478 363.331 260.904 363.757 260.904 364.285C260.904 364.809 260.478 365.238 259.95 365.238Z" fill="white"/>
<path d="M267.705 371.177H231.419C230.891 371.177 230.465 370.751 230.465 370.224C230.465 369.696 230.891 369.27 231.419 369.27H267.705C268.232 369.27 268.658 369.696 268.658 370.224C268.658 370.751 268.232 371.177 267.705 371.177Z" fill="white"/>
<path d="M267.705 377.116H231.419C230.891 377.116 230.465 376.69 230.465 376.163C230.465 375.635 230.891 375.209 231.419 375.209H267.705C268.232 375.209 268.658 375.635 268.658 376.163C268.658 376.687 268.232 377.116 267.705 377.116Z" fill="white"/>
<path d="M471.32 423.468C470.792 423.468 470.366 423.042 470.366 422.514V420.889C470.366 416.998 467.199 413.831 463.308 413.831C459.416 413.831 456.25 416.998 456.25 420.889V422.514C456.25 423.042 455.824 423.468 455.296 423.468C454.768 423.468 454.342 423.042 454.342 422.514V420.889C454.342 415.945 458.364 411.923 463.308 411.923C468.252 411.923 472.274 415.945 472.274 420.889V422.514C472.274 423.038 471.848 423.468 471.32 423.468Z" fill="white"/>
<path d="M463.308 409.043C459.674 409.043 456.717 406.086 456.717 402.452C456.717 398.818 459.674 395.862 463.308 395.862C466.942 395.862 469.899 398.818 469.899 402.452C469.899 406.086 466.942 409.043 463.308 409.043ZM463.308 397.766C460.726 397.766 458.625 399.867 458.625 402.449C458.625 405.031 460.726 407.132 463.308 407.132C465.89 407.132 467.991 405.031 467.991 402.449C467.991 399.867 465.89 397.766 463.308 397.766Z" fill="white"/>
</svg>
