<svg width="41" height="40" viewBox="0 0 41 40" fill="none" xmlns="http://www.w3.org/2000/svg">
<g clip-path="url(#clip0_2126_6442)">
<path d="M35.5 0H5.5C2.73858 0 0.5 2.23858 0.5 5V35C0.5 37.7614 2.73858 40 5.5 40H35.5C38.2614 40 40.5 37.7614 40.5 35V5C40.5 2.23858 38.2614 0 35.5 0Z" fill="black"/>
<g clip-path="url(#clip1_2126_6442)">
<path d="M15.023 26.7348C14.1271 26.0298 13.1724 25.3557 12.5203 24.4054C11.147 22.7288 10.0895 20.7886 9.36687 18.7485C8.92991 17.4222 8.77937 15.9997 8.21684 14.7241C7.62787 13.7988 8.31818 12.7854 9.33309 12.4916C9.78473 12.405 10.5786 11.9776 9.61949 12.2831C8.76027 12.9131 8.67729 11.7102 9.55854 11.6339C10.1607 11.5531 10.381 11.0611 10.1754 10.619C9.52916 10.1974 11.7411 9.73551 10.6278 9.10615C9.46895 7.85771 12.2493 7.61684 11.5634 9.03712C11.4004 10.1284 13.5065 8.8359 13.0174 10.0976C13.5146 10.7034 14.8784 10.2356 14.8438 11.0853C15.5679 11.1352 15.8161 11.744 16.4962 11.7903C17.2012 12.1083 18.4768 12.3587 18.7162 13.1526C18.0185 13.7055 16.4007 12.0106 16.3221 13.5418C16.5336 15.8036 16.4793 18.1331 17.3062 20.287C17.6976 21.5905 18.6464 22.6172 19.502 23.6328C20.3223 24.6272 21.4334 25.3278 22.5643 25.9167C23.5572 26.3853 24.6279 26.6952 25.7096 26.8905C26.1481 26.5549 26.9236 25.3072 27.6073 25.833C27.6403 26.4249 26.2487 27.0697 27.5412 27.0043C28.3013 26.7752 28.8278 27.5918 29.4528 26.8545C30.0292 27.5375 31.8468 26.419 31.4378 27.8136C30.8833 28.1713 30.0748 27.9554 29.5196 28.4474C28.6038 27.9899 27.8746 28.8564 26.8611 28.747C25.7354 28.949 24.5905 29.0297 23.4492 29.0312C21.5766 28.8843 19.665 28.8212 17.8841 28.1691C16.8803 27.8775 15.9013 27.3062 15.0201 26.7341L15.023 26.7348ZM16.6041 27.42C17.5838 27.843 18.5429 28.2895 19.6151 28.4246C21.3188 28.6611 23.0776 29.0268 24.7873 28.6934C24.0132 28.3438 23.2135 28.8293 22.4424 28.4437C21.5171 28.642 20.533 28.3923 19.5784 28.2697C18.5098 27.7938 17.3561 27.4663 16.3559 26.8479C15.1053 26.3911 17.0022 27.4339 17.34 27.5184C18.1214 27.962 16.4808 27.2981 16.2487 27.1071C15.5936 26.74 15.5106 26.8163 16.1841 27.1894L16.5953 27.42H16.6041ZM14.7388 26.1025C15.6884 26.455 14.7344 25.4342 14.3004 25.493C14.108 25.1588 13.5638 24.9473 13.9479 24.7682C13.2576 25.0076 13.2253 23.8575 12.9014 24.022C12.1714 23.7914 12.6172 22.9748 11.7484 22.4725C11.6691 21.9438 10.8848 21.4862 10.6351 20.6894C10.525 20.2811 9.74874 19.1105 10.2254 20.2004C10.6307 21.2505 11.3445 22.1486 11.9394 23.0461C12.4006 23.9009 12.9455 24.7939 13.7856 25.3278C14.0691 25.5995 14.3423 26.0159 14.7418 26.1011L14.7388 26.1025ZM12.004 23.0989C12.0371 22.9557 12.1773 23.4088 12.004 23.0989V23.0989ZM15.8764 26.5233C15.5738 26.4044 16.0864 26.4293 15.8764 26.5233V26.5233ZM16.3904 26.7113C16.1554 26.8567 16.3368 26.4521 16.3904 26.7113V26.7113ZM17.0367 26.9801C16.563 26.7965 17.3436 26.6878 17.0367 26.9801V26.9801ZM18.1426 27.597C17.5456 27.4942 18.3292 27.3216 18.1426 27.597V27.597ZM16.0203 26.1172C15.4034 26.1128 16.4976 25.8088 16.0203 26.1172V26.1172ZM16.505 26.3596C16.3324 26.433 16.4903 26.1965 16.505 26.3596V26.3596ZM18.9233 27.8694C19.3125 28.1147 21.194 28.407 20.016 27.97C19.8178 28.0112 17.8313 27.4075 18.9233 27.8694ZM15.084 24.8791C14.4803 24.6984 15.0473 24.716 15.084 24.8791V24.8791ZM16.2098 25.5356C15.6017 25.3777 16.5035 25.33 16.2098 25.5356V25.5356ZM17.1645 26.1231C16.483 25.9637 17.5853 25.9645 17.1645 26.1231V26.1231ZM14.6243 24.3789C15.0796 24.7285 16.4646 24.423 15.3219 24.1704C14.8027 23.8935 13.6329 23.7041 14.4304 24.3371L14.6235 24.3789H14.6243ZM17.7968 26.3155C16.9992 26.1304 17.9877 25.9924 17.7968 26.3155V26.3155ZM16.8325 25.5495C17.9488 25.8653 15.8947 24.8445 16.5571 25.432L16.704 25.4981L16.8325 25.5481V25.5495ZM18.7654 26.6658C17.8107 26.5189 19.8229 26.6761 18.7654 26.6658V26.6658ZM14.2174 23.7672C13.9567 23.7834 14.1763 23.5704 14.2174 23.7672V23.7672ZM20.5529 27.6682C20.2077 27.9326 20.5808 27.3128 20.5529 27.6682V27.6682ZM16.0218 24.8702C15.6913 24.8629 15.9579 24.683 16.0218 24.8702V24.8702ZM14.318 23.6438C13.4882 23.3765 14.9246 23.6071 14.318 23.6438V23.6438ZM12.3007 22.3411C11.6412 21.8182 12.2251 22.0502 12.3007 22.3411V22.3411ZM17.597 25.7023C17.4869 25.5752 17.5456 25.7295 17.597 25.7023V25.7023ZM20.8929 27.7255C20.7137 27.7989 20.8826 27.5316 20.8929 27.7255V27.7255ZM17.3055 25.4012C16.7877 25.3256 17.3642 25.1515 17.3055 25.4012V25.4012ZM14.8497 23.8443C14.1264 23.5396 15.3014 23.7966 14.8497 23.8443V23.8443ZM19.0033 26.4256C18.3182 26.2898 19.7069 26.1466 19.0033 26.4256V26.4256ZM16.8428 24.9591C17.6528 25.0634 15.8786 24.4083 16.6644 24.9004L16.8428 24.9591ZM19.6591 26.6908C20.4155 26.2391 20.1659 27.7505 20.9428 26.8185C21.7088 26.2589 20.2819 27.5103 21.2248 26.9184C21.9078 26.4616 22.9161 27.1351 23.5528 27.3539C24.011 27.3319 24.4561 27.7505 24.9261 27.4956C25.8294 27.2518 23.1577 27.1343 23.8583 26.7025C23.0314 26.9434 22.4204 26.4161 22.0128 25.8859C21.0846 25.6714 20.0124 25.197 19.549 24.376C19.3602 24.0676 19.8207 24.4201 19.3859 23.9156C18.8278 23.4184 18.5488 22.8536 18.1728 22.2485C17.7248 22.0099 17.6712 21.3056 17.6264 22.225C17.6301 21.6449 17.0851 21.2534 16.9508 21.4157C16.9486 20.8576 17.5346 21.1367 17.1241 20.724C17.0359 20.1438 16.7451 19.5416 16.6585 18.8866C16.5226 18.5708 16.6394 17.8951 16.1958 18.6097C16.0343 19.3639 16.1422 17.6829 16.3941 18.2366C16.7246 17.6712 16.2751 17.7373 16.2575 17.8158C16.4727 17.3385 16.3941 16.6614 16.201 16.9199C16.3155 16.4132 16.3824 15.0583 16.0299 15.2984C16.2428 14.7696 16.4352 12.8772 15.507 13.5983C15.131 13.6035 14.4803 13.7349 14.1726 13.8877C15.1369 14.4194 14.0757 14.0801 13.6821 13.9949C13.6306 14.4869 13.2414 14.2739 12.7567 14.2791C13.5337 14.3746 12.3785 15.0722 11.9342 14.802C11.3556 15.0781 12.4336 15.7684 11.9453 15.9821C12.0055 16.303 11.0589 15.8661 11.133 16.6093C10.572 16.3728 11.0559 17.4905 11.3372 17.1123C12.2919 17.3708 12.0091 17.9598 12.0334 18.5201C11.8777 18.8462 11.2652 17.7534 11.8968 17.8041C11.3974 16.9941 11.346 17.5103 10.9311 17.8878C10.8356 17.915 11.9886 18.4239 11.2645 18.6736C11.9012 18.772 11.9196 19.3294 12.0488 19.6811C12.4307 20.0799 12.3521 19.2405 12.8104 19.7201C12.5203 19.2941 11.2755 18.5179 12.2779 18.7654C12.2728 18.3365 12.0965 17.9899 12.4042 17.998C12.709 17.4472 12.0855 19.3566 12.7714 18.656C12.9609 18.573 13.0086 18.1052 13.3494 18.7C13.8444 19.1876 13.5286 19.5401 12.8294 19.0936C12.9543 19.5181 13.7643 19.6694 13.6116 20.3325C13.7731 20.9164 13.9986 20.7012 14.1954 20.6674C14.3423 21.2344 14.4377 20.8172 14.4451 20.5477C15.1515 20.699 14.9856 21.1169 15.2074 21.4084C15.6942 21.6287 14.5097 19.9191 15.3469 20.8943C16.2259 21.6875 15.6774 22.0201 14.8879 21.8931C15.3873 21.8527 15.5488 22.5687 16.1731 22.543C16.7429 22.8147 17.1277 23.8553 16.1466 23.4213C15.8066 23.1144 14.6 22.7354 15.5856 23.3185C16.4947 23.74 17.2173 23.9912 18.0942 24.5207C18.7213 24.9613 18.9923 25.4812 19.2303 25.5833C18.703 25.8352 17.6411 25.3821 18.4224 25.2433C17.9304 25.1537 17.3767 24.9055 17.8482 25.518C18.2491 25.8528 19.2677 25.8176 19.4506 25.8558C19.2964 26.1965 19.0298 26.223 19.4564 26.2501C18.9806 26.5042 19.6092 26.5439 19.6533 26.6886L19.6591 26.6908ZM18.6854 23.9413C18.3953 23.638 18.3204 23.071 18.6339 23.5645C18.7955 23.6291 19.148 24.492 18.6854 23.9413ZM21.8579 25.9468C21.863 26.0842 22.0385 25.9351 21.8579 25.9468V25.9468ZM18.23 23.1893C18.2183 22.731 18.3343 23.5418 18.23 23.1893V23.1893ZM17.9143 22.7655C17.5493 22.0605 18.3732 22.9638 17.9143 22.7655V22.7655ZM14.094 20.1218C14.1998 20.4875 14.3085 20.0645 14.094 20.1218V20.1218ZM17.1344 21.7697C17.2665 21.2755 17.2812 22.1839 17.1344 21.7697V21.7697ZM14.9863 20.276C14.835 20.0043 15.3021 20.5316 14.9863 20.276V20.276ZM16.8296 20.8664C16.4844 20.0931 17.0749 20.4442 16.9067 20.9927L16.8296 20.8664ZM13.6512 18.747C13.5043 18.4929 13.2422 17.7483 13.3244 17.5206C13.3979 17.8907 14.1117 19.1142 13.674 18.0347C13.1908 17.1241 14.2519 18.3299 14.3614 18.5576C14.4128 18.783 14.0632 18.4959 14.2997 19.0261C13.8679 18.4224 14.0448 19.3595 13.6519 18.7544L13.6512 18.747ZM12.6694 18.0699C12.7097 17.4795 12.8941 18.4738 12.6694 18.0699V18.0699ZM13.1114 18.2227C13.3222 17.7776 13.4684 18.8432 13.1114 18.2227V18.2227ZM12.0393 17.4149C11.6735 17.0514 11.4092 16.7172 12.0569 17.1894C12.3066 17.199 11.5024 16.4279 12.1171 16.9441C12.7634 17.0616 12.4358 18.0038 12.04 17.4141L12.0393 17.4149ZM12.5974 17.4002C12.7105 17.6073 12.8104 17.1894 12.5974 17.4002V17.4002ZM12.9411 17.5103C12.6179 16.9067 13.3318 17.7637 12.9411 17.5103V17.5103ZM12.2581 16.8582C11.1947 15.9109 13.5947 17.3524 12.4314 17.0345L12.2581 16.8582ZM15.3043 18.6281C14.8438 18.3527 15.1816 16.6864 15.3388 17.8254C15.7868 17.6807 15.3138 18.4144 15.6472 18.407C15.5958 18.8697 15.4453 19.0371 15.3043 18.6281ZM16.4308 19.2941C16.4749 18.7918 16.5263 19.6378 16.4308 19.2941V19.2941ZM16.2355 19.1003C16.2399 19.3529 16.2869 18.8858 16.2355 19.1003V19.1003ZM12.474 16.5468C11.791 15.6046 14.459 17.5001 12.9117 16.7855C12.7501 16.7429 12.5555 16.7282 12.474 16.5468ZM14.6441 17.6969C14.5795 16.9037 14.788 17.8291 14.6441 17.6969V17.6969ZM16.2913 18.7544C16.3008 19.0533 16.4183 18.3027 16.2913 18.7544V18.7544ZM12.579 16.187C12.9851 16.1003 14.2681 16.8993 13.0894 16.4146C12.9594 16.2707 12.6811 16.3361 12.579 16.187ZM16.0644 17.9245C16.1084 17.113 16.3067 17.4398 16.0658 18.042L16.0644 17.9245ZM12.8809 15.905C13.0468 15.6626 12.4417 14.8086 12.9675 15.5988C13.1878 15.7794 13.6262 15.9013 13.2466 15.9777C13.8451 16.5064 13.0997 16.1209 12.8816 15.9043L12.8809 15.905ZM15.8918 17.6719C15.9924 18.2131 16.0056 16.7466 15.8918 17.6719V17.6719ZM12.5357 15.0516C12.6018 15.2206 12.662 14.9973 12.5357 15.0516V15.0516ZM13.3215 15.5194C13.5234 15.095 13.6945 15.9924 13.3215 15.5194V15.5194ZM15.5371 16.7517C15.5356 16.5902 15.5789 16.9889 15.5371 16.7517V16.7517ZM15.4086 16.4683C15.1016 15.7096 15.7023 16.87 15.4086 16.4683V16.4683ZM15.2198 15.9704C15.1684 15.6568 15.3961 16.364 15.2198 15.9704V15.9704ZM15.5268 15.471C15.3153 15.0994 15.7934 13.8333 15.847 14.6191C15.6245 15.2316 15.7831 15.5738 15.9373 14.7513C16.2237 14.105 15.8764 16.0269 15.5268 15.471ZM15.8426 13.5866C15.8631 13.7224 15.9344 13.4735 15.8426 13.5866V13.5866ZM15.3146 23.9787C15.1897 23.8686 15.3307 24.0477 15.3146 23.9787V23.9787ZM16.4014 24.528C17.0058 24.6837 17.0036 24.434 16.4565 24.3591C16.1628 24.0859 15.236 23.7958 16.0658 24.3253C16.1202 24.4722 16.2935 24.4619 16.4014 24.528ZM14.2571 23.1033C14.5897 23.353 15.5106 23.8069 14.7315 23.1988C14.9944 22.8933 14.2284 22.7303 14.4818 22.5261C13.8355 22.1296 13.9714 22.1589 14.4245 22.1788C13.6475 21.8314 14.5369 21.8578 14.495 21.6794C14.1954 21.6206 13.0072 21.1506 13.7063 21.7176C12.9954 21.3555 13.5374 21.8527 13.3222 21.8006C12.5878 21.6023 13.9685 22.3543 13.2069 22.1677C13.6233 22.4982 14.329 23.0145 13.3832 22.5173C13.2583 22.6965 14.0603 22.9689 14.2644 23.1048L14.2571 23.1033ZM15.3931 23.7569C14.7153 23.2135 16.7738 24.202 15.3931 23.7569V23.7569ZM21.2094 27.2805C21.0207 27.5155 21.227 27.0058 21.2094 27.2805V27.2805ZM21.8072 27.5324C22.1259 27.2239 21.8204 28.0244 22.3359 27.4567C22.3411 27.0506 22.3212 26.8105 21.744 27.304C21.5847 27.3921 21.5142 27.7666 21.8079 27.5316L21.8072 27.5324ZM12.3169 21.57C11.6309 21.1866 12.2192 21.1851 12.3169 21.57V21.57ZM12.9558 21.9886C12.1098 21.6324 12.7186 21.5957 12.9558 21.9886V21.9886ZM16.588 24.1792C16.9427 24.495 18.2168 24.4105 17.0183 24.2181C16.8421 23.9559 15.8925 24.0198 16.588 24.1792ZM21.5803 27.2636C21.0515 27.4677 22.1259 26.8053 21.5803 27.2636V27.2636ZM22.7156 28.0435C22.4806 28.1074 22.7193 27.8966 22.7156 28.0435V28.0435ZM22.7178 27.8379C22.1325 27.8746 23.3222 27.1989 22.7178 27.8379V27.8379ZM10.7468 20.2554C10.2327 19.5211 10.4266 19.1906 9.93013 18.5906C9.83613 18.1316 9.07826 17.0903 9.53798 18.194C9.95951 18.8403 10.0844 19.839 10.7468 20.2576V20.2554ZM22.5261 27.633C22.0708 27.3201 23.6387 26.9147 22.5261 27.633V27.633ZM23.3751 27.9656C23.0226 27.8658 23.9332 27.4883 23.3751 27.9656V27.9656ZM12.1274 20.7585C11.7161 20.7276 12.2867 20.5213 12.1274 20.7585V20.7585ZM23.1981 27.7387C23.7371 27.3913 23.0732 27.445 23.1004 27.7703L23.1981 27.7387ZM15.8822 23.1268C15.5973 23.1467 15.8639 22.8918 15.8822 23.1268V23.1268ZM16.3339 23.3868C16.1136 23.4323 16.1899 23.096 16.3339 23.3868V23.3868ZM24.0632 27.973C24.7535 27.4736 23.6446 27.8775 23.9185 28.0684L24.0632 27.973ZM23.7988 27.8452C23.204 28.0538 24.3621 27.3737 23.7988 27.8452V27.8452ZM25.1501 28.7448C24.6911 28.664 25.5275 28.4922 25.1501 28.7448V28.7448ZM12.4747 20.5859C12.9815 20.699 14.4979 21.8329 13.6035 20.6645C13.1452 20.5286 13.4199 19.4087 12.9521 19.607C13.2657 20.1313 13.2091 20.3546 12.5511 20.0241C11.7235 19.6202 12.0863 20.2239 12.2478 20.3913C12.0275 20.4427 12.5394 20.5822 12.4755 20.5866L12.4747 20.5859ZM10.1688 18.7646C10.2591 18.3901 9.33382 16.7011 9.73185 17.9186C9.87506 18.1735 9.86037 18.6567 10.1688 18.7646ZM14.4032 21.3754C14.1418 21.1572 14.3907 21.3445 14.4032 21.3754V21.3754ZM15.0451 21.5252C14.3356 21.3636 15.0451 21.1286 15.0451 21.5252V21.5252ZM20.6094 25.0325C20.1908 25.0267 20.5029 24.7608 20.6094 25.0325V25.0325ZM20.8767 25.2279C20.7299 25.2573 20.8371 25.0759 20.8767 25.2279V25.2279ZM23.0821 26.6173C22.8177 26.5968 23.295 26.4609 23.0821 26.6173V26.6173ZM11.3196 19.0599C10.6696 18.8924 11.9262 18.8249 11.3196 19.0599V19.0599ZM20.1174 24.6029C19.7304 24.7006 20.11 24.21 20.1174 24.6029V24.6029ZM11.0794 18.5003C10.7196 18.4136 11.4686 18.3681 11.0794 18.5003V18.5003ZM12.2104 19.0481C12.0907 19.0973 12.203 18.9189 12.2104 19.0481V19.0481ZM26.0078 27.5081C26.5086 27.4068 27.6513 27.7629 27.8364 27.3759C27.2269 27.3612 25.7309 26.9463 25.6604 27.4743L25.7926 27.4964L26.0078 27.5096V27.5081ZM12.5702 19.1392C12.2603 19.1245 12.579 18.7411 12.5702 19.1392V19.1392ZM9.59599 17.0756C9.08193 16.961 9.46087 16.3177 9.59599 17.0756V17.0756ZM10.3047 17.254C9.65548 17.0352 10.3135 17.0102 10.3047 17.254V17.254ZM10.71 17.4523C10.5925 17.3569 10.619 17.572 10.71 17.4523V17.4523ZM13.2605 19.0878C12.9763 19.007 13.381 18.9776 13.2605 19.0878V19.0878ZM10.4405 17.0021C9.61802 16.9162 10.3715 16.4293 10.4405 17.0021V17.0021ZM8.98646 16.0585C8.84473 16.1584 8.9659 15.7941 8.98646 16.0585V16.0585ZM9.2031 15.8954C9.01731 15.9351 9.16785 15.5819 9.2031 15.8954V15.8954ZM10.3979 16.6078C10.9032 16.4095 9.47776 16.1965 10.2951 16.5711L10.3979 16.6078ZM26.3911 26.4903C25.9799 26.3985 26.7143 26.1936 26.3911 26.4903V26.4903ZM28.3226 27.4912C27.9958 27.5426 28.4525 27.1094 28.3226 27.4912V27.4912ZM10.5191 15.985C10.1181 16.0585 10.5727 15.6142 10.5191 15.985V15.985ZM8.81829 14.8468C8.7287 14.3217 8.74191 13.4037 9.61435 13.7136C8.4489 13.9457 10.4222 15.1633 10.1725 14.2012C10.663 14.2255 11.1316 13.9112 10.8738 14.387C11.841 14.282 12.5093 13.4434 13.4434 13.5616C14.1778 13.4647 14.965 13.3927 15.7493 13.0989C16.3934 13.0527 17.0124 12.3594 16.6599 11.9482C15.7816 11.8747 14.8622 11.9834 13.8914 12.1773C12.8155 12.4006 11.8388 12.8258 10.7534 13.0071C9.69587 13.1496 10.9663 13.3986 10.663 13.4551C10.1123 13.6461 11.3218 13.7753 10.5918 13.978C10.1409 13.8921 9.67163 13.7371 9.86477 13.262C8.85134 13.3942 7.96054 13.8142 8.76174 14.8453L8.82049 14.846L8.81829 14.8468ZM11.2623 13.6093C11.4995 12.734 12.535 14.329 11.6515 13.7268C11.5465 13.6475 11.3724 13.5836 11.2623 13.6093ZM11.3086 13.1849C11.4907 13.3281 11.6515 12.93 11.3086 13.1849V13.1849ZM11.744 13.1922C11.7756 12.7898 12.7413 13.4125 11.9034 13.3369L11.744 13.1922ZM12.3389 12.9528C12.402 13.1783 12.557 12.698 12.3389 12.9528V12.9528ZM12.4916 12.85C12.8544 12.4145 14.5427 12.5709 13.2994 12.8074C12.969 12.5577 12.7141 12.9543 12.4916 12.85ZM14.6948 12.51C14.6404 11.3203 15.7904 12.9322 14.6948 12.51V12.51ZM15.3204 12.5063C15.5481 11.9071 16.209 12.2654 15.4269 12.3859C15.4438 12.4498 15.4034 12.6958 15.3204 12.5063ZM10.2731 15.6839C9.54826 15.3212 10.9561 15.2654 10.2731 15.6839V15.6839ZM10.7783 15.8308C10.2643 15.728 11.0177 15.576 10.7783 15.8308V15.8308ZM9.29049 14.7623C8.82784 14.6485 9.67971 14.4612 9.29049 14.7623V14.7623ZM29.4638 27.3825C29.1656 27.539 29.4748 27.0344 29.4638 27.3825V27.3825ZM27.4149 25.9836C27.1505 26.0181 27.4736 25.5833 27.4149 25.9836V25.9836ZM30.0292 27.5184C30.5749 27.5206 31.6831 27.3495 30.4956 27.3495C30.309 27.3789 29.4087 27.3715 30.0292 27.5184ZM11.2241 15.5723C11.6662 15.5429 11.9144 15.0854 11.1382 15.1111C9.93381 14.9863 12.2001 15.5239 10.9913 15.3696C10.8283 15.4776 11.2219 15.6017 11.2314 15.5716L11.2241 15.5723ZM11.6133 15.7691C11.4767 15.9197 11.5671 15.4857 11.6133 15.7691V15.7691ZM12.076 14.5383C11.8116 14.4744 12.2669 14.3004 12.076 14.5383V14.5383ZM10.6072 12.0826C11.3959 11.8145 12.474 11.5134 12.8471 12.2148C12.4681 11.7594 12.6943 11.31 13.0527 11.9768C13.5594 12.651 13.812 11.6699 13.483 11.4437C13.8576 11.9093 14.2835 12.1296 13.7342 11.473C14.3327 10.7534 12.5372 11.567 12.1289 11.559C11.9328 11.6471 10.102 12.026 10.6087 12.0826H10.6072ZM11.0699 11.1976C11.5193 10.8584 12.6253 11.3996 11.9159 10.8598C11.8461 10.7989 10.3627 11.2689 11.0699 11.1976ZM12.709 11.2652C13.2348 11.2784 12.4814 10.558 13.1085 10.8848C13.0057 10.5485 12.3785 10.486 12.0716 10.3509C11.8983 10.6579 12.4241 11.2689 12.7083 11.2652H12.709ZM11.3578 9.77737C11.0383 9.90221 11.5399 9.53062 11.3578 9.77737V9.77737ZM12.0246 9.93746C12.8728 9.8251 11.8087 9.57248 11.8535 9.92865L12.0246 9.93746ZM10.7732 8.96074C10.1761 8.18084 11.8968 9.09146 11.2895 8.27557C10.7783 7.86946 10.2885 8.73382 10.7732 8.96074ZM18.4357 13.0879C18.7096 12.6032 17.3047 12.4343 18.2521 12.9161C18.3387 12.9455 18.3196 13.1217 18.4357 13.0879Z" fill="white"/>
</g>
</g>
<defs>
<clipPath id="clip0_2126_6442">
<rect width="40" height="40" fill="white" transform="translate(0.5)"/>
</clipPath>
<clipPath id="clip1_2126_6442">
<rect width="23.5" height="23.5" fill="white" transform="translate(8 7)"/>
</clipPath>
</defs>
</svg>
