<svg width="10" height="12" viewBox="0 0 10 12" fill="none" xmlns="http://www.w3.org/2000/svg">
<path d="M0.0630783 6.31737C0.102746 6.41968 0.162228 6.51315 0.238107 6.59241L4.40546 10.7598C4.48317 10.8375 4.57543 10.8991 4.67696 10.9412C4.7785 10.9832 4.88732 11.0049 4.99722 11.0049C5.21918 11.0049 5.43204 10.9167 5.58899 10.7598C5.6667 10.6821 5.72834 10.5898 5.7704 10.4883C5.81246 10.3867 5.8341 10.2779 5.8341 10.168C5.8341 9.94605 5.74593 9.73318 5.58899 9.57624L2.83853 6.83412L9.16458 6.83412C9.38563 6.83412 9.59762 6.74631 9.75393 6.59C9.91024 6.4337 9.99805 6.2217 9.99805 6.00065C9.99805 5.7796 9.91024 5.5676 9.75393 5.4113C9.59762 5.25499 9.38563 5.16718 9.16458 5.16718L2.83853 5.16718L5.58899 2.42506C5.66711 2.34758 5.72911 2.2554 5.77143 2.15383C5.81374 2.05226 5.83553 1.94332 5.83553 1.8333C5.83553 1.72327 5.81374 1.61433 5.77143 1.51276C5.72911 1.4112 5.66711 1.31901 5.58899 1.24153C5.51151 1.16341 5.41932 1.10141 5.31776 1.05909C5.21619 1.01678 5.10725 0.994993 4.99722 0.994993C4.8872 0.994993 4.77826 1.01678 4.67669 1.05909C4.57512 1.10141 4.48294 1.16341 4.40546 1.24153L0.238107 5.40888C0.162228 5.48815 0.102746 5.58162 0.0630784 5.68393C-0.0202842 5.88685 -0.0202842 6.11445 0.0630783 6.31737Z" fill="#4F379F"/>
</svg>
