<svg width="12" height="12" viewBox="0 0 12 12" fill="none" xmlns="http://www.w3.org/2000/svg">
<g opacity="0.4" clip-path="url(#clip0_1876_546)">
<path fill-rule="evenodd" clip-rule="evenodd" d="M2.56271 5.25H11.25C11.4489 5.25 11.6396 5.32902 11.7803 5.46967C11.9209 5.61032 12 5.80109 12 6C12 6.19891 11.9209 6.38968 11.7803 6.53033C11.6396 6.67098 11.4489 6.75 11.25 6.75H2.56271L6.00596 10.1932C6.14679 10.334 6.22595 10.5249 6.22602 10.724C6.22609 10.9231 6.14707 11.114 6.00634 11.2549C5.86561 11.3957 5.6747 11.4749 5.4756 11.4749C5.27651 11.475 5.08554 11.396 4.94471 11.2552L0.219712 6.53025C0.0791086 6.3896 0.00012207 6.19887 0.00012207 6C0.00012207 5.80113 0.0791086 5.6104 0.219712 5.46975L4.94471 0.74475C5.08564 0.604019 5.2767 0.525037 5.47587 0.525177C5.67503 0.525318 5.86598 0.60457 6.00671 0.7455C6.14744 0.886429 6.22643 1.07749 6.22628 1.27665C6.22614 1.47582 6.14689 1.66677 6.00596 1.8075L2.56271 5.25Z" fill="white"/>
</g>
<defs>
<clipPath id="clip0_1876_546">
<rect width="12" height="12" fill="white"/>
</clipPath>
</defs>
</svg>
