<svg width="188" height="60" viewBox="0 0 188 60" fill="none" xmlns="http://www.w3.org/2000/svg">
<path d="M78.9019 8.59631C75.5169 8.59631 71.6672 10.1655 69.3151 13.307L69.3167 13.3006V9.08965H61.2433V38.4898H69.3151V21.7607C69.3151 18.7497 71.6497 15.5493 75.9721 15.5493C79.3125 15.5493 82.7691 17.8728 82.7691 21.7607V38.4898H90.8425V20.2647C90.8425 13.5027 86.0045 8.59631 78.9019 8.59631Z" fill="#E60012"/>
<path d="M148.221 9.09312L140.922 29.1197L133.624 9.09312H124.402L136.498 38.4838H145.345L157.441 9.09312H148.221Z" fill="#E60012"/>
<path d="M37.141 17.9492C38.516 16.1031 40.7058 15.0193 43.3507 15.0193C46.2599 15.0193 48.4672 16.6808 49.6083 19.1332L35.5034 24.9849C35.1182 21.9819 35.8869 19.6329 37.141 17.9492ZM52.6511 29.4521C49.2534 31.9665 47.3118 32.5665 44.2133 32.5665C41.4251 32.5665 39.2417 31.7008 37.7027 30.1825L58.3421 21.6206C57.8917 18.4298 56.6806 15.5795 54.817 13.412C52.1052 10.2625 48.0916 8.59631 43.2043 8.59631C34.3273 8.59631 27.6337 15.1451 27.6337 23.7945C27.6337 32.6684 34.3432 38.9911 44.0939 38.9911C49.5573 38.9911 55.1433 36.4019 57.7564 33.3766L52.6511 29.4521Z" fill="#E60012"/>
<path d="M26.8649 31.0794H8.51568V0.299438H0.33252V38.4923H26.8649V31.0794Z" fill="#E60012"/>
<path d="M171.938 15.5143C167.43 15.5143 164.156 18.9311 164.156 23.7913C164.156 28.432 167.624 32.0684 172.046 32.0684C176.556 32.0684 179.828 28.5577 179.828 23.7913C179.828 19.1507 176.362 15.5143 171.938 15.5143ZM171.938 38.9864C163.109 38.9864 156.191 32.409 156.191 23.7913C156.191 15.2708 163.157 8.59631 172.046 8.59631C180.876 8.59631 187.792 15.1737 187.792 23.7913C187.792 32.3103 180.828 38.9864 171.938 38.9864Z" fill="#E60012"/>
<path d="M109.781 15.5143C105.273 15.5143 102.001 18.9311 102.001 23.7913C102.001 28.432 105.467 32.0684 109.891 32.0684C114.399 32.0684 117.671 28.5577 117.671 23.7913C117.671 19.1507 114.205 15.5143 109.781 15.5143ZM109.781 38.9864C100.952 38.9864 94.0354 32.409 94.0354 23.7913C94.0354 15.2708 101 8.59631 109.891 8.59631C118.719 8.59631 125.637 15.1737 125.637 23.7913C125.637 32.3103 118.671 38.9864 109.781 38.9864Z" fill="#E60012"/>
<path d="M53.28 57.9911V49.3511H54.162V57.1451H58.266V57.9911H53.28ZM62.031 58.1711C61.399 58.1711 60.851 58.0311 60.387 57.7511C59.927 57.4711 59.569 57.0771 59.313 56.5691C59.057 56.0611 58.929 55.4651 58.929 54.7811C58.929 54.0731 59.055 53.4611 59.307 52.9451C59.559 52.4291 59.913 52.0311 60.369 51.7511C60.829 51.4711 61.371 51.3311 61.995 51.3311C62.635 51.3311 63.181 51.4791 63.633 51.7751C64.085 52.0671 64.427 52.4871 64.659 53.0351C64.891 53.5831 64.997 54.2371 64.977 54.9971H64.077V54.6851C64.061 53.8451 63.879 53.2111 63.531 52.7831C63.187 52.3551 62.683 52.1411 62.019 52.1411C61.323 52.1411 60.789 52.3671 60.417 52.8191C60.049 53.2711 59.865 53.9151 59.865 54.7511C59.865 55.5671 60.049 56.2011 60.417 56.6531C60.789 57.1011 61.315 57.3251 61.995 57.3251C62.459 57.3251 62.863 57.2191 63.207 57.0071C63.555 56.7911 63.829 56.4811 64.029 56.0771L64.851 56.3951C64.595 56.9591 64.217 57.3971 63.717 57.7091C63.221 58.0171 62.659 58.1711 62.031 58.1711ZM59.553 54.9971V54.2591H64.503V54.9971H59.553ZM70.8127 57.9911V54.6851C70.8127 54.3251 70.7787 53.9951 70.7107 53.6951C70.6427 53.3911 70.5327 53.1271 70.3807 52.9031C70.2327 52.6751 70.0387 52.4991 69.7987 52.3751C69.5627 52.2511 69.2747 52.1891 68.9347 52.1891C68.6227 52.1891 68.3467 52.2431 68.1067 52.3511C67.8707 52.4591 67.6707 52.6151 67.5067 52.8191C67.3467 53.0191 67.2247 53.2631 67.1407 53.5511C67.0567 53.8391 67.0147 54.1671 67.0147 54.5351L66.3907 54.3971C66.3907 53.7331 66.5067 53.1751 66.7387 52.7231C66.9707 52.2711 67.2907 51.9291 67.6987 51.6971C68.1067 51.4651 68.5747 51.3491 69.1027 51.3491C69.4907 51.3491 69.8287 51.4091 70.1167 51.5291C70.4087 51.6491 70.6547 51.8111 70.8547 52.0151C71.0587 52.2191 71.2227 52.4531 71.3467 52.7171C71.4707 52.9771 71.5607 53.2551 71.6167 53.5511C71.6727 53.8431 71.7007 54.1351 71.7007 54.4271V57.9911H70.8127ZM66.1267 57.9911V51.5111H66.9247V53.1071H67.0147V57.9911H66.1267ZM75.9285 58.1711C75.2845 58.1711 74.7345 58.0251 74.2785 57.7331C73.8225 57.4411 73.4725 57.0371 73.2285 56.5211C72.9845 56.0051 72.8625 55.4131 72.8625 54.7451C72.8625 54.0651 72.9865 53.4691 73.2345 52.9571C73.4825 52.4451 73.8345 52.0471 74.2905 51.7631C74.7505 51.4751 75.2965 51.3311 75.9285 51.3311C76.5765 51.3311 77.1285 51.4771 77.5845 51.7691C78.0445 52.0571 78.3945 52.4591 78.6345 52.9751C78.8785 53.4871 79.0005 54.0771 79.0005 54.7451C79.0005 55.4251 78.8785 56.0231 78.6345 56.5391C78.3905 57.0511 78.0385 57.4511 77.5785 57.7391C77.1185 58.0271 76.5685 58.1711 75.9285 58.1711ZM75.9285 57.3251C76.6485 57.3251 77.1845 57.0871 77.5365 56.6111C77.8885 56.1311 78.0645 55.5091 78.0645 54.7451C78.0645 53.9611 77.8865 53.3371 77.5305 52.8731C77.1785 52.4091 76.6445 52.1771 75.9285 52.1771C75.4445 52.1771 75.0445 52.2871 74.7285 52.5071C74.4165 52.7231 74.1825 53.0251 74.0265 53.4131C73.8745 53.7971 73.7985 54.2411 73.7985 54.7451C73.7985 55.5251 73.9785 56.1511 74.3385 56.6231C74.6985 57.0911 75.2285 57.3251 75.9285 57.3251ZM81.8417 57.9911L79.4897 51.5111H80.3837L82.2977 56.8391L84.1997 51.5111H85.1057L82.7537 57.9911H81.8417ZM88.6551 58.1711C88.0111 58.1711 87.4611 58.0251 87.0051 57.7331C86.5491 57.4411 86.1991 57.0371 85.9551 56.5211C85.7111 56.0051 85.5891 55.4131 85.5891 54.7451C85.5891 54.0651 85.7131 53.4691 85.9611 52.9571C86.2091 52.4451 86.5611 52.0471 87.0171 51.7631C87.4771 51.4751 88.0231 51.3311 88.6551 51.3311C89.3031 51.3311 89.8551 51.4771 90.3111 51.7691C90.7711 52.0571 91.1211 52.4591 91.3611 52.9751C91.6051 53.4871 91.7271 54.0771 91.7271 54.7451C91.7271 55.4251 91.6051 56.0231 91.3611 56.5391C91.1171 57.0511 90.7651 57.4511 90.3051 57.7391C89.8451 58.0271 89.2951 58.1711 88.6551 58.1711ZM88.6551 57.3251C89.3751 57.3251 89.9111 57.0871 90.2631 56.6111C90.6151 56.1311 90.7911 55.5091 90.7911 54.7451C90.7911 53.9611 90.6131 53.3371 90.2571 52.8731C89.9051 52.4091 89.3711 52.1771 88.6551 52.1771C88.1711 52.1771 87.7711 52.2871 87.4551 52.5071C87.1431 52.7231 86.9091 53.0251 86.7531 53.4131C86.6011 53.7971 86.5251 54.2411 86.5251 54.7451C86.5251 55.5251 86.7051 56.1511 87.0651 56.6231C87.4251 57.0911 87.9551 57.3251 88.6551 57.3251ZM95.453 57.9911V49.3511H98.789C98.873 49.3511 98.967 49.3551 99.071 49.3631C99.179 49.3671 99.287 49.3791 99.395 49.3991C99.847 49.4671 100.229 49.6251 100.541 49.8731C100.857 50.1171 101.095 50.4251 101.255 50.7971C101.419 51.1691 101.501 51.5811 101.501 52.0331C101.501 52.4811 101.419 52.8911 101.255 53.2631C101.091 53.6351 100.851 53.9451 100.535 54.1931C100.223 54.4371 99.843 54.5931 99.395 54.6611C99.287 54.6771 99.179 54.6891 99.071 54.6971C98.967 54.7051 98.873 54.7091 98.789 54.7091H96.335V57.9911H95.453ZM96.335 53.8691H98.765C98.837 53.8691 98.921 53.8651 99.017 53.8571C99.113 53.8491 99.207 53.8351 99.299 53.8151C99.595 53.7511 99.837 53.6291 100.025 53.4491C100.217 53.2691 100.359 53.0551 100.451 52.8071C100.547 52.5591 100.595 52.3011 100.595 52.0331C100.595 51.7651 100.547 51.5071 100.451 51.2591C100.359 51.0071 100.217 50.7911 100.025 50.6111C99.837 50.4311 99.595 50.3091 99.299 50.2451C99.207 50.2251 99.113 50.2131 99.017 50.2091C98.921 50.2011 98.837 50.1971 98.765 50.1971H96.335V53.8691ZM104.268 58.1711C103.78 58.1711 103.37 58.0831 103.038 57.9071C102.71 57.7311 102.464 57.4971 102.3 57.2051C102.136 56.9131 102.054 56.5951 102.054 56.2511C102.054 55.8991 102.124 55.5991 102.264 55.3511C102.408 55.0991 102.602 54.8931 102.846 54.7331C103.094 54.5731 103.38 54.4511 103.704 54.3671C104.032 54.2871 104.394 54.2171 104.79 54.1571C105.19 54.0931 105.58 54.0391 105.96 53.9951C106.344 53.9471 106.68 53.9011 106.968 53.8571L106.656 54.0491C106.668 53.4091 106.544 52.9351 106.284 52.6271C106.024 52.3191 105.572 52.1651 104.928 52.1651C104.484 52.1651 104.108 52.2651 103.8 52.4651C103.496 52.6651 103.282 52.9811 103.158 53.4131L102.3 53.1611C102.448 52.5811 102.746 52.1311 103.194 51.8111C103.642 51.4911 104.224 51.3311 104.94 51.3311C105.532 51.3311 106.034 51.4431 106.446 51.6671C106.862 51.8871 107.156 52.2071 107.328 52.6271C107.408 52.8151 107.46 53.0251 107.484 53.2571C107.508 53.4891 107.52 53.7251 107.52 53.9651V57.9911H106.734V56.3651L106.962 56.4611C106.742 57.0171 106.4 57.4411 105.936 57.7331C105.472 58.0251 104.916 58.1711 104.268 58.1711ZM104.37 57.4091C104.782 57.4091 105.142 57.3351 105.45 57.1871C105.758 57.0391 106.006 56.8371 106.194 56.5811C106.382 56.3211 106.504 56.0291 106.56 55.7051C106.608 55.4971 106.634 55.2691 106.638 55.0211C106.642 54.7691 106.644 54.5811 106.644 54.4571L106.98 54.6311C106.68 54.6711 106.354 54.7111 106.002 54.7511C105.654 54.7911 105.31 54.8371 104.97 54.8891C104.634 54.9411 104.33 55.0031 104.058 55.0751C103.874 55.1271 103.696 55.2011 103.524 55.2971C103.352 55.3891 103.21 55.5131 103.098 55.6691C102.99 55.8251 102.936 56.0191 102.936 56.2511C102.936 56.4391 102.982 56.6211 103.074 56.7971C103.17 56.9731 103.322 57.1191 103.53 57.2351C103.742 57.3511 104.022 57.4091 104.37 57.4091ZM109.082 57.9911V51.5111H109.874V53.0711L109.718 52.8671C109.79 52.6751 109.884 52.4991 110 52.3391C110.116 52.1751 110.242 52.0411 110.378 51.9371C110.546 51.7891 110.742 51.6771 110.966 51.6011C111.19 51.5211 111.416 51.4751 111.644 51.4631C111.872 51.4471 112.08 51.4631 112.268 51.5111V52.3391C112.032 52.2791 111.774 52.2651 111.494 52.2971C111.214 52.3291 110.956 52.4411 110.72 52.6331C110.504 52.8011 110.342 53.0031 110.234 53.2391C110.126 53.4711 110.054 53.7191 110.018 53.9831C109.982 54.2431 109.964 54.5011 109.964 54.7571V57.9911H109.082ZM116.934 57.9911C116.57 58.0671 116.21 58.0971 115.854 58.0811C115.502 58.0651 115.186 57.9891 114.906 57.8531C114.63 57.7171 114.42 57.5051 114.276 57.2171C114.16 56.9771 114.096 56.7351 114.084 56.4911C114.076 56.2431 114.072 55.9611 114.072 55.6451V49.7111H114.948V55.6091C114.948 55.8811 114.95 56.1091 114.954 56.2931C114.962 56.4731 115.004 56.6331 115.08 56.7731C115.224 57.0411 115.452 57.2011 115.764 57.2531C116.08 57.3051 116.47 57.2931 116.934 57.2171V57.9911ZM112.686 52.2671V51.5111H116.934V52.2671H112.686ZM122.891 57.9911V54.6851C122.891 54.3251 122.857 53.9951 122.789 53.6951C122.721 53.3911 122.611 53.1271 122.459 52.9031C122.311 52.6751 122.117 52.4991 121.877 52.3751C121.641 52.2511 121.353 52.1891 121.013 52.1891C120.701 52.1891 120.425 52.2431 120.185 52.3511C119.949 52.4591 119.749 52.6151 119.585 52.8191C119.425 53.0191 119.303 53.2631 119.219 53.5511C119.135 53.8391 119.093 54.1671 119.093 54.5351L118.469 54.3971C118.469 53.7331 118.585 53.1751 118.817 52.7231C119.049 52.2711 119.369 51.9291 119.777 51.6971C120.185 51.4651 120.653 51.3491 121.181 51.3491C121.569 51.3491 121.907 51.4091 122.195 51.5291C122.487 51.6491 122.733 51.8111 122.933 52.0151C123.137 52.2191 123.301 52.4531 123.425 52.7171C123.549 52.9771 123.639 53.2551 123.695 53.5511C123.751 53.8431 123.779 54.1351 123.779 54.4271V57.9911H122.891ZM118.205 57.9911V51.5111H119.003V53.1071H119.093V57.9911H118.205ZM128.043 58.1711C127.411 58.1711 126.863 58.0311 126.399 57.7511C125.939 57.4711 125.581 57.0771 125.325 56.5691C125.069 56.0611 124.941 55.4651 124.941 54.7811C124.941 54.0731 125.067 53.4611 125.319 52.9451C125.571 52.4291 125.925 52.0311 126.381 51.7511C126.841 51.4711 127.383 51.3311 128.007 51.3311C128.647 51.3311 129.193 51.4791 129.645 51.7751C130.097 52.0671 130.439 52.4871 130.671 53.0351C130.903 53.5831 131.009 54.2371 130.989 54.9971H130.089V54.6851C130.073 53.8451 129.891 53.2111 129.543 52.7831C129.199 52.3551 128.695 52.1411 128.031 52.1411C127.335 52.1411 126.801 52.3671 126.429 52.8191C126.061 53.2711 125.877 53.9151 125.877 54.7511C125.877 55.5671 126.061 56.2011 126.429 56.6531C126.801 57.1011 127.327 57.3251 128.007 57.3251C128.471 57.3251 128.875 57.2191 129.219 57.0071C129.567 56.7911 129.841 56.4811 130.041 56.0771L130.863 56.3951C130.607 56.9591 130.229 57.3971 129.729 57.7091C129.233 58.0171 128.671 58.1711 128.043 58.1711ZM125.565 54.9971V54.2591H130.515V54.9971H125.565ZM132.32 57.9911V51.5111H133.112V53.0711L132.956 52.8671C133.028 52.6751 133.122 52.4991 133.238 52.3391C133.354 52.1751 133.48 52.0411 133.616 51.9371C133.784 51.7891 133.98 51.6771 134.204 51.6011C134.428 51.5211 134.654 51.4751 134.882 51.4631C135.11 51.4471 135.318 51.4631 135.506 51.5111V52.3391C135.27 52.2791 135.012 52.2651 134.732 52.2971C134.452 52.3291 134.194 52.4411 133.958 52.6331C133.742 52.8011 133.58 53.0031 133.472 53.2391C133.364 53.4711 133.292 53.7191 133.256 53.9831C133.22 54.2431 133.202 54.5011 133.202 54.7571V57.9911H132.32Z" fill="#38424E"/>
</svg>
