<svg width="44" height="44" viewBox="0 0 44 44" fill="none" xmlns="http://www.w3.org/2000/svg">
<path d="M1 8C1 4.13401 4.13401 1 8 1H36C39.866 1 43 4.13401 43 8V36C43 39.866 39.866 43 36 43H8C4.13401 43 1 39.866 1 36V8Z" fill="#E60012"/>
<path d="M29.5367 22.24C29.5367 22.6567 29.2508 22.9625 28.8575 22.9625C28.4708 22.9625 28.1683 22.6459 28.1683 22.24C28.1683 21.815 28.4542 21.5167 28.8475 21.5167C29.2342 21.5167 29.5367 21.8342 29.5367 22.24ZM17.6158 21.4734C17.5116 21.4698 17.408 21.4911 17.3136 21.5356C17.2193 21.5801 17.1369 21.6465 17.0733 21.7292C16.946 21.9071 16.8944 22.1283 16.93 22.3442L18.1625 21.8325C18.1168 21.7256 18.0406 21.6345 17.9433 21.5707C17.8461 21.507 17.7321 21.4734 17.6158 21.4742V21.4734ZM23.4183 21.5167C23.025 21.5167 22.7383 21.815 22.7383 22.24C22.7383 22.645 23.0417 22.9625 23.4283 22.9625C23.8217 22.9625 24.1075 22.6559 24.1075 22.24C24.1075 21.8342 23.805 21.5167 23.4183 21.5167ZM32 18.6642V25.3359H12V18.6642H32ZM16.175 22.875H14.5733V20.1875H13.8583V23.5234H16.175V22.875ZM17.1225 22.7967L18.925 22.0492C18.8928 21.7857 18.7858 21.537 18.6167 21.3325C18.38 21.0575 18.03 20.9117 17.6033 20.9117C16.8275 20.9117 16.2425 21.4834 16.2425 22.2392C16.2425 23.0142 16.8292 23.5667 17.6808 23.5667C18.1575 23.5667 18.6458 23.34 18.8742 23.0759L18.4283 22.7334C18.1308 22.9534 17.9617 23.005 17.6908 23.005C17.4475 23.005 17.2575 22.93 17.1225 22.7967ZM21.7642 21.9309C21.7642 21.34 21.3417 20.9117 20.7208 20.9117C20.5592 20.9123 20.3998 20.9498 20.2547 21.0211C20.1096 21.0924 19.9826 21.1958 19.8833 21.3234V20.955H19.1783V23.5225H19.8833V22.0617C19.8833 21.7984 20.0875 21.5192 20.465 21.5192C20.7567 21.5192 21.0583 21.7217 21.0583 22.0617V23.5225H21.7642V21.9309ZM24.8033 22.2392C24.8033 21.4859 24.1992 20.9117 23.4283 20.9117C22.6508 20.9117 22.0425 21.495 22.0425 22.2392C22.0425 22.9917 22.6475 23.5659 23.4183 23.5659C24.195 23.5659 24.8033 22.9825 24.8033 22.2392ZM26.525 23.5225L27.5817 20.955H26.7758L26.1383 22.7042L25.5008 20.9542H24.6958L25.7525 23.5217L26.525 23.5225ZM30.2325 22.2392C30.2325 21.4859 29.6283 20.9117 28.8575 20.9117C28.0808 20.9117 27.4725 21.495 27.4725 22.2392C27.4725 22.9917 28.0767 23.5659 28.8475 23.5659C29.6242 23.5659 30.2325 22.9825 30.2325 22.2392Z" fill="white"/>
<path d="M1 8C1 4.13401 4.13401 1 8 1H36C39.866 1 43 4.13401 43 8V36C43 39.866 39.866 43 36 43H8C4.13401 43 1 39.866 1 36V8Z" stroke="#E60012" stroke-width="2"/>
</svg>
