<svg width="76" height="73" viewBox="0 0 76 73" fill="none" xmlns="http://www.w3.org/2000/svg">
<g clip-path="url(#clip0_237_6289)">
<g clip-path="url(#clip1_237_6289)">
<path d="M60.9616 27.1943C60.9616 33.0354 58.8226 38.3007 55.3673 42.4141C54.5446 43.4014 53.6396 44.2241 52.7346 45.0468C52.1588 45.5404 51.5829 45.9517 51.007 46.4453C49.8552 47.268 48.5389 48.0084 47.2226 48.5843C46.0708 49.1602 44.8368 49.5716 43.5205 49.9006C42.2865 50.2297 41.0524 50.4765 39.7361 50.5588C38.9957 50.6411 38.2553 50.6411 37.5148 50.6411C36.7744 50.6411 36.034 50.6411 35.2936 50.5588C33.9773 50.4765 32.7432 50.2297 31.5092 49.9006C30.1929 49.5716 28.9588 49.1602 27.8071 48.5843C26.4908 48.0084 25.2567 47.268 24.0227 46.4453C23.4468 46.034 22.7887 45.5404 22.295 45.0468C21.3078 44.2241 20.4851 43.3191 19.6624 42.4141C16.2071 38.3007 14.0681 33.0354 14.0681 27.1943C14.0681 26.2071 14.1504 25.2199 14.2327 24.3149H18.017C17.8525 25.2199 17.7702 26.2071 17.7702 27.1943C17.7702 31.966 19.4979 36.3262 22.295 39.7815C22.8709 40.4397 23.4468 41.0978 24.0227 41.6737C24.3518 41.9205 24.5986 42.2496 24.9276 42.4964C25.8326 43.2368 26.7376 43.895 27.8071 44.4709C28.9588 45.129 30.1929 45.7049 31.5092 46.1163C32.7432 46.5276 33.9773 46.7744 35.2936 46.9389C36.034 47.0212 36.7744 47.1035 37.5148 47.1035C38.2553 47.1035 38.9957 47.0212 39.7361 46.9389C41.0524 46.7744 42.2865 46.5276 43.5205 46.1163C44.8368 45.7049 46.0708 45.129 47.2226 44.4709C48.2098 43.895 49.1971 43.2368 50.102 42.4964C50.4311 42.2496 50.6779 42.0028 51.007 41.6737C51.6651 41.0978 52.241 40.4397 52.7346 39.7815C55.5318 36.4085 57.2594 31.966 57.2594 27.1943C57.2594 26.2071 57.1772 25.2199 57.0126 24.3149C56.9304 23.8213 56.8481 23.2454 56.6836 22.7518C56.3545 21.4355 55.9431 20.2015 55.3673 18.9674C55.1204 18.4738 54.8736 17.8979 54.5446 17.4043C53.9687 16.4171 53.3105 15.5121 52.6524 14.6071C52.0765 13.949 51.5006 13.2908 50.9247 12.715C50.5956 12.4681 50.3488 12.1391 50.0198 11.8923C49.1148 11.1518 48.2098 10.4937 47.1403 9.9178C45.9886 9.25965 44.7545 8.68377 43.4382 8.27242C42.2042 7.86107 40.9701 7.61427 39.6538 7.44973C38.9134 7.36746 38.173 7.28519 37.4326 7.28519C36.6921 7.28519 35.9517 7.36746 35.2113 7.44973C33.895 7.61427 32.661 7.86107 31.4269 8.27242C30.1106 8.68377 28.8766 9.25965 27.7248 9.9178C26.7376 10.4937 25.7503 11.1518 24.8454 11.8923C24.5163 12.1391 24.2695 12.3859 23.9404 12.715C23.2823 13.2908 22.7064 13.949 22.2128 14.6071C21.4723 15.5121 20.8142 16.4171 20.3206 17.4043H16.1248C17.0298 15.4298 18.1816 13.6199 19.5802 11.9745C20.4028 10.9873 21.3078 10.1646 22.2128 9.34192C22.7886 8.8483 23.3645 8.43696 23.9404 7.94334C25.0922 7.12065 26.4085 6.38023 27.7248 5.80434C28.8766 5.22846 30.1106 4.81711 31.4269 4.48804C32.661 4.15896 33.895 3.91215 35.2113 3.82988C36.034 3.66534 36.7744 3.66534 37.5148 3.66534C38.2553 3.66534 38.9957 3.66534 39.7361 3.74761C41.0524 3.82988 42.2865 4.07669 43.5205 4.40577C44.8368 4.73484 46.0708 5.14619 47.2226 5.72207C48.5389 6.38023 49.7729 7.03838 51.007 7.94334C51.5829 8.35469 52.241 8.8483 52.7346 9.34192C53.7219 10.1646 54.5446 11.0696 55.3673 11.9745C56.7658 13.6199 57.9176 15.4298 58.8226 17.4043C59.0694 17.8979 59.2339 18.3915 59.4807 18.9674C59.8921 20.2015 60.3034 21.4355 60.5502 22.7518C60.6325 23.2454 60.7148 23.739 60.797 24.3149C60.9616 25.2199 60.9616 26.2071 60.9616 27.1943Z" fill="#216778"/>
<path d="M50.5954 18.9675H43.0267L37.5146 24.4795L35.7047 22.6696L31.9203 18.8852H27.8069H24.0225H15.4665C15.0551 20.1192 14.6438 21.3533 14.397 22.6696H24.0225V34.7631C24.4338 35.4213 24.8452 36.0795 25.2565 36.6553C25.9969 37.5603 26.8196 38.4653 27.7246 39.2057V22.7518H30.4395L34.882 27.1944L31.5912 30.4851V41.427C32.743 41.9206 34.0593 42.2496 35.3756 42.4965V32.0483L37.5969 29.827L39.8182 32.0483V42.4965C41.1345 42.3319 42.3685 41.9206 43.6025 41.427V30.4851L40.3118 27.1944L44.7543 22.7518H47.3046V39.288C48.2096 38.5475 49.1146 37.7248 49.7727 36.7376C50.2663 36.1617 50.6777 35.5036 51.0068 34.8454V19.5433C50.8422 19.2965 50.76 19.132 50.5954 18.9675Z" fill="#216778"/>
<path d="M9.6255 58.1275V60.1842H5.84111V70.2211H3.78438V60.2665H0V58.2098H9.6255V58.1275Z" fill="#216778"/>
<path d="M14.5613 67.753C14.8904 68.0821 15.3018 68.2467 15.7131 68.3289C16.1244 68.4112 16.5358 68.4112 16.9471 68.2467C17.3585 68.0821 17.6876 67.9176 18.0166 67.5885L18.0989 67.5062H20.2379L20.1556 67.753C19.7443 68.4935 19.2507 69.1516 18.5925 69.563C17.9344 69.9743 17.1117 70.2211 16.289 70.2211C15.7131 70.2211 15.1372 70.1389 14.6436 69.892C14.15 69.6452 13.6564 69.3984 13.245 68.9871C12.8337 68.5757 12.5046 68.1644 12.3401 67.6708C12.0933 67.1772 12.011 66.6013 12.011 66.0254V65.9431C12.011 64.5445 12.5046 63.475 13.4096 62.6524C13.8209 62.3233 14.2323 61.9942 14.8081 61.8297C15.3018 61.6651 15.7954 61.5829 16.3713 61.5829H16.4535C16.6181 61.5829 16.7826 61.5829 16.9471 61.6651C18.0166 61.8297 18.8393 62.241 19.5798 62.9814C20.4024 63.8041 20.7315 64.7914 20.7315 66.0254C20.7315 66.2722 20.7315 66.4367 20.6493 66.6835V66.8481H20.4847H14.0677C14.0677 67.1772 14.3145 67.5062 14.5613 67.753ZM18.5925 65.2027C18.5103 65.0382 18.428 64.7914 18.3457 64.6268C18.1812 64.38 18.0166 64.1332 17.7698 63.9687C17.3585 63.6396 16.8649 63.475 16.2067 63.475C15.6308 63.475 15.1372 63.6396 14.7259 63.9687C14.3145 64.2977 13.9854 64.7091 13.9032 65.2027H18.5925Z" fill="#216778"/>
<path d="M29.2876 62.57C30.1103 63.2282 30.6039 64.0508 30.7684 65.1203V65.2849H28.7117V65.2026C28.5471 64.709 28.3003 64.3799 27.889 64.1331C27.4776 63.8863 27.0663 63.7218 26.5727 63.7218C25.9145 63.7218 25.4209 63.9686 25.0096 64.3799C24.5982 64.7913 24.3514 65.3672 24.3514 65.943C24.3514 66.5189 24.5982 67.0948 25.0096 67.5062C25.4209 67.9175 25.9968 68.1643 26.5727 68.1643C27.0663 68.1643 27.4776 67.9998 27.889 67.753C28.3003 67.5062 28.5471 67.0948 28.7117 66.6835V66.6012H30.7684V66.7657C30.6039 67.753 30.1103 68.5757 29.2876 69.3161C28.4649 69.9742 27.5599 70.3033 26.5727 70.3033C25.9968 70.3033 25.4209 70.221 24.9273 69.9742C24.4337 69.7274 23.9401 69.4806 23.5287 69.0693C23.1174 68.6579 22.7883 68.2466 22.6238 67.6707C22.3769 67.1771 22.2947 66.6012 22.2947 66.0253C22.2947 65.4494 22.3769 64.8735 22.6238 64.3799C22.8706 63.8863 23.1174 63.3927 23.5287 62.9814C23.9401 62.57 24.3514 62.2409 24.9273 62.0764C25.4209 61.8296 25.9968 61.7473 26.5727 61.7473C27.5599 61.5828 28.4649 61.9119 29.2876 62.57Z" fill="#216778"/>
<path d="M36.4453 62.4055C37.5148 62.4055 38.4197 62.8169 39.2424 63.5573C39.9828 64.2977 40.3942 65.1204 40.3942 66.1899V70.2211H38.502V66.3544C38.502 65.7785 38.2552 65.2849 37.9261 64.8736C37.5148 64.4622 37.0211 64.2977 36.4453 64.2977C35.8694 64.2977 35.3758 64.4622 34.9644 64.8736C34.5531 65.2849 34.3885 65.7785 34.3885 66.3544V70.2211H32.4963V58.1275H34.3885V62.9814C34.6353 62.8168 34.9644 62.6523 35.2112 62.57C35.6226 62.4878 36.0339 62.4055 36.4453 62.4055Z" fill="#216778"/>
<path d="M46.1535 58.3743L49.2798 65.614L52.406 58.3743L52.4883 58.1275L55.9436 70.0565H54.0514L52.2415 63.6395C51.8301 64.4622 51.4188 65.614 50.7606 66.9303L50.4315 67.753C50.267 68.0821 50.1847 68.3289 50.1025 68.5757C49.8557 69.2339 49.6088 69.7275 49.362 70.3033H49.1975C48.9507 69.8097 48.7039 69.2339 48.4571 68.5757C48.3748 68.3289 48.2103 68.0821 48.128 67.753L47.7989 66.9303C47.223 65.614 46.7294 64.4622 46.3181 63.6395L44.5082 70.0565H42.616L46.0713 58.1275L46.1535 58.3743Z" fill="#216778"/>
<path d="M63.8406 61.7474C64.1697 61.8297 64.4988 61.9942 64.8279 62.1587V61.5006H66.8846V70.0566H64.8279V69.4807C64.4988 69.6452 64.1697 69.8098 63.8406 69.892C63.4293 70.0566 62.9357 70.0566 62.5243 70.0566C61.9485 70.0566 61.3726 69.9743 60.879 69.7275C60.3853 69.4807 59.8917 69.2339 59.4804 68.8225C59.069 68.4112 58.7399 67.9998 58.5754 67.424C58.3286 66.9303 58.2463 66.3545 58.2463 65.7786C58.2463 65.2027 58.3286 64.6268 58.5754 64.1332C58.8222 63.6396 59.069 63.146 59.4804 62.7346C59.8917 62.3233 60.3031 61.9942 60.879 61.8297C61.3726 61.5828 61.9485 61.5006 62.5243 61.5006C63.018 61.5828 63.4293 61.6651 63.8406 61.7474ZM62.5243 63.6396C61.8662 63.6396 61.3726 63.8864 60.9612 64.2977C60.5499 64.7091 60.3031 65.285 60.3031 65.8608C60.3031 66.4367 60.5499 67.0126 60.9612 67.424C61.3726 67.8353 61.9485 68.0821 62.5243 68.0821C63.1002 68.0821 63.6761 67.8353 64.0875 67.424C64.4988 67.0126 64.7456 66.4367 64.7456 65.8608C64.7456 65.285 64.4988 64.7091 64.0875 64.2977C63.6761 63.8864 63.1825 63.6396 62.5243 63.6396Z" fill="#216778"/>
<path d="M72.9728 70.2211L71.5742 67.753L70.2579 70.1388L70.1756 70.2211H68.1189L68.2834 69.9743L70.587 65.8608L68.2834 61.7474L68.1189 61.5006H70.1756L70.2579 61.5828L71.5742 63.9687L72.8905 61.5828L72.9728 61.5006H75.0295L74.865 61.8297L72.5614 65.9431L74.865 70.0566L75.0295 70.3034H72.9728V70.2211Z" fill="#216778"/>
</g>
</g>
<defs>
<clipPath id="clip0_237_6289">
<rect width="75.0295" height="72.1135" fill="white" transform="translate(0 0.886475)"/>
</clipPath>
<clipPath id="clip1_237_6289">
<rect width="75.0295" height="66.5558" fill="white" transform="translate(0 3.66534)"/>
</clipPath>
</defs>
</svg>
