<svg width="57" height="21" viewBox="0 0 57 21" fill="none" xmlns="http://www.w3.org/2000/svg">
<path d="M8.13346 8.45428C8.61474 8.41738 9.06433 8.31077 9.48048 8.13433C9.89738 7.95789 10.2401 7.70196 10.5084 7.3679C10.7765 7.03272 10.911 6.5866 10.911 6.02917C10.911 5.19278 10.6341 4.55202 10.0793 4.10516C9.52518 3.65904 8.88751 3.43604 8.16739 3.43604C7.16904 3.43604 6.41536 3.76528 5.90782 4.423C5.39881 5.08072 5.15439 5.9108 5.17296 6.91064H1.4121C1.44949 5.9108 1.63027 4.99776 1.95368 4.174C2.27784 3.35098 2.73213 2.64447 3.31655 2.05472C3.89986 1.4651 4.59993 1.01007 5.41503 0.686902C6.23012 0.364232 7.1387 0.202896 8.1394 0.202896C8.91748 0.202896 9.69592 0.319162 10.4741 0.550702C11.2529 0.782614 11.9519 1.13042 12.5733 1.59387C13.1944 2.05732 13.6992 2.62218 14.0881 3.29031C14.4771 3.95769 14.6726 4.72673 14.6726 5.59742C14.6726 6.54327 14.446 7.37755 13.9942 8.10065C13.5422 8.82388 12.8649 9.3147 11.9619 9.57397V9.62994C13.0325 9.87101 13.8718 10.3902 14.4818 11.1876C15.0909 11.9852 15.3952 12.94 15.3952 14.0519C15.3952 15.072 15.1959 15.9806 14.7971 16.7782C14.3979 17.5761 13.8653 18.2427 13.1976 18.7812C12.5305 19.3184 11.7605 19.7267 10.8884 20.0042C10.0167 20.2813 9.10791 20.421 8.16305 20.421C7.0685 20.421 6.07238 20.2631 5.17209 19.9483C4.2728 19.6316 3.50736 19.1724 2.877 18.5679C2.24614 17.9642 1.75991 17.2269 1.41693 16.355C1.07321 15.4835 0.911255 14.4831 0.930199 13.353H4.69094C4.70901 13.8721 4.79259 14.3675 4.94192 14.8397C5.0905 15.3122 5.30458 15.7202 5.5833 16.0627C5.86201 16.4053 6.20982 16.6794 6.62832 16.8832C7.04633 17.0863 7.54347 17.1879 8.1191 17.1879C9.01096 17.1879 9.76403 16.9158 10.3769 16.3706C10.9904 15.8252 11.2969 15.0813 11.2969 14.1384C11.2969 13.3982 11.1491 12.8341 10.8541 12.4461C10.5583 12.0574 10.1891 11.7762 9.74434 11.5996C9.29971 11.4243 8.81322 11.3227 8.28576 11.2952C7.75792 11.2672 7.25336 11.2528 6.77282 11.2528V8.45428C7.19826 8.4913 7.65181 8.4913 8.13346 8.45428Z" fill="#1E76C0"/>
<path d="M26.8421 2.72547C29.0415 2.72547 31.2198 3.61585 32.8182 5.16878L33.2448 5.5827V2.24233L33.1379 2.16729C31.31 0.884411 29.2943 0.261109 26.9756 0.261109C21.0412 0.261109 16.2133 4.80698 16.2133 10.3945C16.2133 15.8993 21.0412 20.3775 26.9756 20.3775C29.1413 20.3775 31.3282 19.7012 33.1351 18.4739L33.2448 18.3988V15.0688L32.8212 15.4669C31.1677 17.0215 29.0075 17.9132 26.8957 17.9132C22.5956 17.9132 18.9627 14.4356 18.9627 10.3191C18.9627 6.20303 22.5708 2.72547 26.8421 2.72547Z" fill="#706D6E"/>
<path d="M33.2794 6.50711V14.2709L36.6735 10.2274L33.2794 6.50711Z" fill="#1E76C0"/>
<path d="M53.8315 20.2443L45.8457 10.4838L53.83 0.74906H49.5945L43.7382 7.90688L37.8822 0.74906H33.6472L41.6317 10.4838L33.6454 20.2443H37.8391L43.7382 13.0531L49.6383 20.2443H53.8315Z" fill="#706D6E"/>
<path d="M55.4219 19.0149C55.5701 19.0149 55.8304 19.0429 55.8304 18.8524C55.8304 18.7294 55.6681 18.7071 55.5394 18.7071H55.2206V19.0149H55.4219ZM55.9815 19.7345H55.7801L55.4219 19.1828H55.2206V19.7345H55.0527V18.5391H55.5731C55.7884 18.5391 55.9981 18.5978 55.9981 18.8553C55.9981 19.0903 55.833 19.1775 55.6205 19.1828L55.9815 19.7345ZM56.3898 19.1437C56.3898 18.6286 55.9618 18.2197 55.4609 18.2197C54.9603 18.2197 54.5323 18.6286 54.5323 19.1437C54.5323 19.6588 54.9603 20.0676 55.4609 20.0676C55.9618 20.0676 56.3898 19.6588 56.3898 19.1437ZM54.3645 19.1437C54.3645 18.5363 54.8485 18.0518 55.4609 18.0518C56.0738 18.0518 56.5576 18.5363 56.5576 19.1437C56.5576 19.751 56.0738 20.2355 55.4609 20.2355C54.8485 20.2355 54.3645 19.751 54.3645 19.1437Z" fill="#5B6065"/>
</svg>
