<svg width="30" height="32" viewBox="0 0 30 32" fill="none" xmlns="http://www.w3.org/2000/svg">
<g clip-path="url(#clip0_1012_3164)">
<g clip-path="url(#clip1_1012_3164)">
<path d="M23.6911 12.2113C23.6911 14.4813 22.8598 16.5275 21.517 18.1262C21.1972 18.5098 20.8455 18.8296 20.4938 19.1493C20.27 19.3411 20.0462 19.501 19.8224 19.6928C19.3748 20.0125 18.8633 20.3003 18.3517 20.5241C17.9041 20.7479 17.4245 20.9078 16.9129 21.0357C16.4333 21.1635 15.9538 21.2595 15.4422 21.2914C15.1544 21.3234 14.8667 21.3234 14.5789 21.3234C14.2912 21.3234 14.0034 21.3234 13.7157 21.2914C13.2041 21.2595 12.7245 21.1635 12.245 21.0357C11.7334 20.9078 11.2538 20.7479 10.8062 20.5241C10.2946 20.3003 9.81505 20.0125 9.33546 19.6928C9.11166 19.533 8.85588 19.3411 8.66404 19.1493C8.28037 18.8296 7.96065 18.4779 7.64092 18.1262C6.29808 16.5275 5.4668 14.4813 5.4668 12.2113C5.4668 11.8276 5.49877 11.4439 5.53074 11.0922H7.00147C6.93753 11.4439 6.90556 11.8276 6.90556 12.2113C6.90556 14.0657 7.57698 15.7602 8.66404 17.103C8.88785 17.3588 9.11166 17.6146 9.33546 17.8384C9.46335 17.9343 9.55927 18.0622 9.68716 18.1581C10.0389 18.4459 10.3906 18.7017 10.8062 18.9255C11.2538 19.1813 11.7334 19.4051 12.245 19.5649C12.7245 19.7248 13.2041 19.8207 13.7157 19.8846C14.0034 19.9166 14.2912 19.9486 14.5789 19.9486C14.8667 19.9486 15.1544 19.9166 15.4422 19.8846C15.9538 19.8207 16.4333 19.7248 16.9129 19.5649C17.4245 19.4051 17.9041 19.1813 18.3517 18.9255C18.7354 18.7017 19.119 18.4459 19.4707 18.1581C19.5986 18.0622 19.6945 17.9663 19.8224 17.8384C20.0782 17.6146 20.302 17.3588 20.4938 17.103C21.5809 15.7922 22.2523 14.0657 22.2523 12.2113C22.2523 11.8276 22.2204 11.4439 22.1564 11.0922C22.1244 10.9004 22.0925 10.6766 22.0285 10.4847C21.9006 9.97319 21.7408 9.4936 21.517 9.01402C21.4211 8.82218 21.3251 8.59837 21.1972 8.40654C20.9734 8.02287 20.7177 7.67117 20.4619 7.31948C20.2381 7.0637 20.0143 6.80792 19.7905 6.58411C19.6626 6.48819 19.5666 6.3603 19.4388 6.26438C19.0871 5.97663 18.7354 5.72085 18.3197 5.49705C17.8721 5.24127 17.3925 5.01746 16.881 4.8576C16.4014 4.69773 15.9218 4.60182 15.4102 4.53787C15.1225 4.5059 14.8347 4.47393 14.547 4.47393C14.2592 4.47393 13.9715 4.5059 13.6837 4.53787C13.1722 4.60182 12.6926 4.69773 12.213 4.8576C11.7014 5.01746 11.2218 5.24127 10.7742 5.49705C10.3906 5.72085 10.0069 5.97663 9.65519 6.26438C9.5273 6.3603 9.43138 6.45622 9.30349 6.58411C9.04771 6.80792 8.8239 7.0637 8.63207 7.31948C8.34432 7.67117 8.08854 8.02287 7.8967 8.40654H6.26611C6.61781 7.6392 7.06542 6.93581 7.60895 6.29636C7.92868 5.91269 8.28037 5.59296 8.63207 5.27324C8.85588 5.0814 9.07968 4.92154 9.30349 4.72971C9.75111 4.40998 10.2627 4.12223 10.7742 3.89842C11.2218 3.67462 11.7014 3.51475 12.213 3.38686C12.6926 3.25897 13.1722 3.16306 13.6837 3.13108C14.0034 3.06714 14.2912 3.06714 14.5789 3.06714C14.8667 3.06714 15.1544 3.06714 15.4422 3.09911C15.9538 3.13108 16.4333 3.227 16.9129 3.35489C17.4245 3.48278 17.9041 3.64264 18.3517 3.86645C18.8633 4.12223 19.3428 4.37801 19.8224 4.72971C20.0462 4.88957 20.302 5.0814 20.4938 5.27324C20.8775 5.59296 21.1972 5.94466 21.517 6.29636C22.0605 6.93581 22.5081 7.6392 22.8598 8.40654C22.9557 8.59837 23.0197 8.79021 23.1156 9.01402C23.2755 9.4936 23.4353 9.97319 23.5312 10.4847C23.5632 10.6766 23.5952 10.8684 23.6271 11.0922C23.6911 11.4439 23.6911 11.8276 23.6911 12.2113Z" fill="#216778"/>
<path d="M19.6626 9.01403H16.7211L14.579 11.1562L13.8756 10.4528L12.4049 8.98206H10.8062H9.3355H6.01037C5.85051 9.46164 5.69064 9.94123 5.59473 10.4528H9.3355V15.1527C9.49537 15.4085 9.65523 15.6643 9.81509 15.8881C10.1028 16.2398 10.4226 16.5915 10.7743 16.8793V10.4848H11.8294L13.5559 12.2113L12.277 13.4902V17.7425C12.7246 17.9343 13.2361 18.0622 13.7477 18.1581V14.0976L14.611 13.2344L15.4742 14.0976V18.1581C15.9858 18.0942 16.4654 17.9343 16.9449 17.7425V13.4902L15.666 12.2113L17.3926 10.4848H18.3837V16.9112C18.7354 16.6235 19.0871 16.3037 19.3429 15.9201C19.5347 15.6963 19.6946 15.4405 19.8225 15.1847V9.23783C19.7585 9.14192 19.7265 9.07797 19.6626 9.01403Z" fill="#216778"/>
<path d="M3.74078 24.2329V25.0322H2.27004V28.9329H1.47073V25.0642H0V24.2649H3.74078V24.2329Z" fill="#216778"/>
<path d="M5.65911 27.9737C5.787 28.1016 5.94687 28.1655 6.10673 28.1975C6.26659 28.2295 6.42645 28.2295 6.58632 28.1655C6.74618 28.1016 6.87407 28.0376 7.00196 27.9097L7.03393 27.8778H7.86521L7.83324 27.9737C7.67338 28.2614 7.48154 28.5172 7.22576 28.6771C6.96999 28.8369 6.65026 28.9329 6.33054 28.9329C6.10673 28.9329 5.88292 28.9009 5.69109 28.805C5.49925 28.709 5.30742 28.6131 5.14756 28.4533C4.98769 28.2934 4.8598 28.1335 4.79586 27.9417C4.69994 27.7499 4.66797 27.5261 4.66797 27.3023V27.2703C4.66797 26.7268 4.8598 26.3111 5.2115 25.9914C5.37136 25.8635 5.53122 25.7356 5.75503 25.6717C5.94687 25.6077 6.1387 25.5757 6.36251 25.5757H6.39448C6.45843 25.5757 6.52237 25.5757 6.58632 25.6077C7.00196 25.6717 7.32168 25.8315 7.60943 26.1193C7.92916 26.439 8.05705 26.8227 8.05705 27.3023C8.05705 27.3982 8.05705 27.4621 8.02508 27.558V27.622H7.96113H5.46728C5.46728 27.7499 5.5632 27.8778 5.65911 27.9737ZM7.22576 26.9825C7.19379 26.9186 7.16182 26.8227 7.12985 26.7587C7.0659 26.6628 7.00196 26.5669 6.90604 26.5029C6.74618 26.3751 6.55434 26.3111 6.29856 26.3111C6.07476 26.3111 5.88292 26.3751 5.72306 26.5029C5.5632 26.6308 5.43531 26.7907 5.40333 26.9825H7.22576Z" fill="#216778"/>
<path d="M11.3817 25.9594C11.7014 26.2152 11.8933 26.5349 11.9572 26.9506V27.0145H11.1579V26.9826C11.094 26.7907 10.9981 26.6628 10.8382 26.5669C10.6783 26.471 10.5185 26.407 10.3266 26.407C10.0709 26.407 9.87902 26.503 9.71915 26.6628C9.55929 26.8227 9.46337 27.0465 9.46337 27.2703C9.46337 27.4941 9.55929 27.7179 9.71915 27.8778C9.87902 28.0376 10.1028 28.1336 10.3266 28.1336C10.5185 28.1336 10.6783 28.0696 10.8382 27.9737C10.9981 27.8778 11.094 27.7179 11.1579 27.5581V27.5261H11.9572V27.59C11.8933 27.9737 11.7014 28.2934 11.3817 28.5812C11.062 28.837 10.7103 28.9648 10.3266 28.9648C10.1028 28.9648 9.87902 28.9329 9.68718 28.837C9.49535 28.741 9.30351 28.6451 9.14365 28.4853C8.98379 28.3254 8.8559 28.1655 8.79195 27.9417C8.69603 27.7499 8.66406 27.5261 8.66406 27.3023C8.66406 27.0785 8.69603 26.8547 8.79195 26.6628C8.88787 26.471 8.98379 26.2792 9.14365 26.1193C9.30351 25.9594 9.46337 25.8315 9.68718 25.7676C9.87902 25.6717 10.1028 25.6397 10.3266 25.6397C10.7103 25.5758 11.062 25.7037 11.3817 25.9594Z" fill="#216778"/>
<path d="M14.1636 25.8955C14.5792 25.8955 14.9309 26.0553 15.2506 26.3431C15.5384 26.6308 15.6983 26.9506 15.6983 27.3662V28.9329H14.9629V27.4302C14.9629 27.2063 14.867 27.0145 14.7391 26.8547C14.5792 26.6948 14.3874 26.6308 14.1636 26.6308C13.9398 26.6308 13.7479 26.6948 13.5881 26.8547C13.4282 27.0145 13.3643 27.2063 13.3643 27.4302V28.9329H12.6289V24.2329H13.3643V26.1193C13.4602 26.0553 13.5881 25.9914 13.684 25.9594C13.8439 25.9275 14.0037 25.8955 14.1636 25.8955Z" fill="#216778"/>
<path d="M17.9363 24.3288L19.1513 27.1424L20.3662 24.3288L20.3982 24.2329L21.7411 28.8689H21.0057L20.3023 26.3751C20.1424 26.6948 19.9826 27.1424 19.7268 27.654L19.5989 27.9737C19.535 28.1016 19.503 28.1975 19.471 28.2934C19.3751 28.5492 19.2792 28.741 19.1833 28.9648H19.1193C19.0234 28.773 18.9275 28.5492 18.8316 28.2934C18.7996 28.1975 18.7357 28.1016 18.7037 27.9737L18.5758 27.654C18.352 27.1424 18.1601 26.6948 18.0003 26.3751L17.2969 28.8689H16.5615L17.9044 24.2329L17.9363 24.3288Z" fill="#216778"/>
<path d="M24.8108 25.6397C24.9387 25.6717 25.0666 25.7357 25.1945 25.7996V25.5438H25.9938V28.869H25.1945V28.6451C25.0666 28.7091 24.9387 28.773 24.8108 28.805C24.651 28.869 24.4591 28.869 24.2993 28.869C24.0755 28.869 23.8517 28.837 23.6598 28.7411C23.468 28.6452 23.2762 28.5492 23.1163 28.3894C22.9564 28.2295 22.8286 28.0696 22.7646 27.8458C22.6687 27.654 22.6367 27.4302 22.6367 27.2064C22.6367 26.9826 22.6687 26.7588 22.7646 26.5669C22.8605 26.3751 22.9564 26.1833 23.1163 26.0234C23.2762 25.8635 23.436 25.7357 23.6598 25.6717C23.8517 25.5758 24.0755 25.5438 24.2993 25.5438C24.4911 25.5758 24.651 25.6078 24.8108 25.6397ZM24.2993 26.3751C24.0435 26.3751 23.8517 26.471 23.6918 26.6309C23.5319 26.7907 23.436 27.0146 23.436 27.2384C23.436 27.4622 23.5319 27.686 23.6918 27.8458C23.8517 28.0057 24.0755 28.1016 24.2993 28.1016C24.5231 28.1016 24.7469 28.0057 24.9068 27.8458C25.0666 27.686 25.1625 27.4622 25.1625 27.2384C25.1625 27.0146 25.0666 26.7907 24.9068 26.6309C24.7469 26.471 24.5551 26.3751 24.2993 26.3751Z" fill="#216778"/>
<path d="M28.36 28.9329L27.8165 27.9737L27.3049 28.9009L27.2729 28.9329H26.4736L26.5376 28.837L27.4328 27.2384L26.5376 25.6397L26.4736 25.5438H27.2729L27.3049 25.5758L27.8165 26.503L28.328 25.5758L28.36 25.5438H29.1593L29.0954 25.6717L28.2001 27.2703L29.0954 28.869L29.1593 28.9649H28.36V28.9329Z" fill="#216778"/>
</g>
</g>
<defs>
<clipPath id="clip0_1012_3164">
<rect width="29.1589" height="32" fill="white"/>
</clipPath>
<clipPath id="clip1_1012_3164">
<rect width="29.1589" height="25.8657" fill="white" transform="translate(0 3.06714)"/>
</clipPath>
</defs>
</svg>
