<svg width="97" height="32" viewBox="0 0 97 32" fill="none" xmlns="http://www.w3.org/2000/svg">
<path d="M29.035 15.9404C28.8267 15.99 28.6085 16.0198 28.3804 16.0198C28.3705 16.0198 28.3507 16.0198 28.3408 16.0198C28.3408 16.0594 28.3408 16.0892 28.3408 16.1289C28.3408 23.7356 22.1522 29.9341 14.5355 29.9341C14.2876 29.9341 14.0495 29.9242 13.8115 29.9143C13.8016 30.1424 13.7421 30.3804 13.6528 30.5986C13.9504 30.6184 14.2479 30.6284 14.5454 30.6284C22.539 30.6284 29.0449 24.1224 29.0449 16.1289C29.035 16.0694 29.035 16.0099 29.035 15.9404Z" fill="#667085"/>
<path d="M14.5457 1.6394C13.6035 1.6394 12.6812 1.72866 11.7886 1.89726C11.858 2.11545 11.8878 2.34355 11.9175 2.58157C12.7704 2.41298 13.6432 2.33363 14.5357 2.33363C20.3574 2.33363 25.3558 5.95355 27.379 11.071C27.5873 10.9818 27.8154 10.9223 28.0534 10.8925C25.9509 5.4775 20.6846 1.6394 14.5457 1.6394Z" fill="#667085"/>
<path d="M0.0458984 16.139C0.0458984 22.0598 3.61623 27.1574 8.71386 29.4087C8.72378 29.1509 8.7932 28.9228 8.9023 28.7343C4.09227 26.5723 0.740129 21.7424 0.740129 16.139C0.740129 11.7257 2.82282 7.77849 6.06587 5.2495C5.91711 5.07099 5.79809 4.86272 5.70884 4.64453C2.26744 7.30244 0.0458984 11.4678 0.0458984 16.139Z" fill="#667085"/>
<path d="M32.8335 18.8165C32.8335 17.2 34.0434 16.2677 35.9476 16.2677C37.0187 16.2677 38.1989 16.5454 38.9824 17.0611V16.2181C38.9824 14.6412 38.1196 13.8082 36.4336 13.8082C35.541 13.8082 34.7079 14.0759 33.9244 14.671L33.4286 13.7784C34.4104 13.0445 35.3625 12.7371 36.5724 12.7371C39.0121 12.7371 40.3014 13.9173 40.3014 16.1487V21.1769H39.032V19.7389C38.4568 20.81 37.3956 21.3554 35.9377 21.3554C34.0434 21.3455 32.8335 20.4133 32.8335 18.8165ZM39.032 17.9735C38.3477 17.5173 37.227 17.2 36.2551 17.2C34.9162 17.2 34.1823 17.8149 34.1823 18.7669C34.1823 19.6992 34.9162 20.3141 36.2551 20.3141C37.8518 20.3042 38.8039 19.362 39.032 17.9735Z" fill="#7367F0"/>
<path d="M32.8335 18.8165C32.8335 17.2 34.0434 16.2677 35.9476 16.2677C37.0187 16.2677 38.1989 16.5454 38.9824 17.0611V16.2181C38.9824 14.6412 38.1196 13.8082 36.4336 13.8082C35.541 13.8082 34.7079 14.0759 33.9244 14.671L33.4286 13.7784C34.4104 13.0445 35.3625 12.7371 36.5724 12.7371C39.0121 12.7371 40.3014 13.9173 40.3014 16.1487V21.1769H39.032V19.7389C38.4568 20.81 37.3956 21.3554 35.9377 21.3554C34.0434 21.3455 32.8335 20.4133 32.8335 18.8165ZM39.032 17.9735C38.3477 17.5173 37.227 17.2 36.2551 17.2C34.9162 17.2 34.1823 17.8149 34.1823 18.7669C34.1823 19.6992 34.9162 20.3141 36.2551 20.3141C37.8518 20.3042 38.8039 19.362 39.032 17.9735Z" fill="#4F379F"/>
<path d="M44.1393 19.6597V24.3705H42.8203V12.9058H44.0898V14.5025C44.6848 13.3918 45.6865 12.7273 47.2138 12.7273C49.6238 12.7273 51.1114 14.3835 51.1114 17.0315C51.1114 19.6795 49.6139 21.3358 47.2138 21.3358C45.7559 21.3457 44.7443 20.7308 44.1393 19.6597ZM49.7626 17.0414C49.7626 14.9687 48.6518 13.8976 46.9361 13.8976C45.2104 13.8976 44.1096 14.9687 44.1096 17.0414C44.1096 19.1142 45.2204 20.1853 46.9361 20.1853C48.6618 20.1853 49.7626 19.1142 49.7626 17.0414Z" fill="#7367F0"/>
<path d="M44.1393 19.6597V24.3705H42.8203V12.9058H44.0898V14.5025C44.6848 13.3918 45.6865 12.7273 47.2138 12.7273C49.6238 12.7273 51.1114 14.3835 51.1114 17.0315C51.1114 19.6795 49.6139 21.3358 47.2138 21.3358C45.7559 21.3457 44.7443 20.7308 44.1393 19.6597ZM49.7626 17.0414C49.7626 14.9687 48.6518 13.8976 46.9361 13.8976C45.2104 13.8976 44.1096 14.9687 44.1096 17.0414C44.1096 19.1142 45.2204 20.1853 46.9361 20.1853C48.6618 20.1853 49.7626 19.1142 49.7626 17.0414Z" fill="#4F379F"/>
<path d="M53.9977 19.0943V13.9867H52.2026V12.9157H53.9977V10.5652H55.3168V12.9157H57.4788V13.9867H55.3168V19.0646C55.3168 19.8381 55.7035 20.2051 56.4275 20.2051C56.7746 20.2051 57.1317 20.1555 57.4788 20.0662V21.0282C57.1317 21.1869 56.616 21.2762 56.0705 21.2762C54.7415 21.2762 53.9977 20.572 53.9977 19.0943Z" fill="#7367F0"/>
<path d="M53.9977 19.0943V13.9867H52.2026V12.9157H53.9977V10.5652H55.3168V12.9157H57.4788V13.9867H55.3168V19.0646C55.3168 19.8381 55.7035 20.2051 56.4275 20.2051C56.7746 20.2051 57.1317 20.1555 57.4788 20.0662V21.0282C57.1317 21.1869 56.616 21.2762 56.0705 21.2762C54.7415 21.2762 53.9977 20.572 53.9977 19.0943Z" fill="#4F379F"/>
<path d="M59.145 10.0595C59.145 9.60331 59.4921 9.26611 59.988 9.26611C60.4839 9.26611 60.8112 9.60331 60.8112 10.0595C60.8112 10.5157 60.474 10.8529 59.988 10.8529C59.5021 10.8529 59.145 10.5256 59.145 10.0595ZM59.3235 21.1672V12.9059H60.6426V21.1672H59.3235Z" fill="#7367F0"/>
<path d="M59.145 10.0595C59.145 9.60331 59.4921 9.26611 59.988 9.26611C60.4839 9.26611 60.8112 9.60331 60.8112 10.0595C60.8112 10.5157 60.474 10.8529 59.988 10.8529C59.5021 10.8529 59.145 10.5256 59.145 10.0595ZM59.3235 21.1672V12.9059H60.6426V21.1672H59.3235Z" fill="#4F379F"/>
<path d="M63.9943 19.0943V13.9867H62.1992V12.9157H63.9943V10.5652H65.3133V12.9157H67.4754V13.9867H65.3133V19.0646C65.3133 19.8381 65.7001 20.2051 66.4241 20.2051C66.7712 20.2051 67.1283 20.1555 67.4754 20.0662V21.0282C67.1283 21.1869 66.6125 21.2762 66.0671 21.2762C64.7282 21.2762 63.9943 20.572 63.9943 19.0943Z" fill="#7367F0"/>
<path d="M63.9943 19.0943V13.9867H62.1992V12.9157H63.9943V10.5652H65.3133V12.9157H67.4754V13.9867H65.3133V19.0646C65.3133 19.8381 65.7001 20.2051 66.4241 20.2051C66.7712 20.2051 67.1283 20.1555 67.4754 20.0662V21.0282C67.1283 21.1869 66.6125 21.2762 66.0671 21.2762C64.7282 21.2762 63.9943 20.572 63.9943 19.0943Z" fill="#4F379F"/>
<path d="M69.3203 17.9836V12.9058H70.6393V17.8249C70.6393 19.4811 71.3237 20.1753 72.6725 20.1753C74.2692 20.1753 75.1717 18.9952 75.1717 17.1207V12.9058H76.4907V21.1671H75.2213V19.5704C74.7155 20.6613 73.7436 21.3456 72.3253 21.3456C70.4807 21.3456 69.3203 20.2844 69.3203 17.9836Z" fill="#7367F0"/>
<path d="M69.3203 17.9836V12.9058H70.6393V17.8249C70.6393 19.4811 71.3237 20.1753 72.6725 20.1753C74.2692 20.1753 75.1717 18.9952 75.1717 17.1207V12.9058H76.4907V21.1671H75.2213V19.5704C74.7155 20.6613 73.7436 21.3456 72.3253 21.3456C70.4807 21.3456 69.3203 20.2844 69.3203 17.9836Z" fill="#4F379F"/>
<path d="M78.5435 17.0413C78.5435 14.3934 80.041 12.7371 82.4411 12.7371C83.9188 12.7371 84.9403 13.352 85.5155 14.4231V9.43457H86.8345V21.1671H85.5651V19.5703C84.9899 20.6811 83.9684 21.3456 82.4411 21.3456C80.0311 21.3456 78.5435 19.6893 78.5435 17.0413ZM85.5651 17.0413C85.5651 14.9686 84.4444 13.8975 82.7188 13.8975C81.0129 13.8975 79.8922 14.9686 79.8922 17.0413C79.8922 19.1141 81.0129 20.1852 82.7188 20.1852C84.4444 20.1852 85.5651 19.1141 85.5651 17.0413Z" fill="#7367F0"/>
<path d="M78.5435 17.0413C78.5435 14.3934 80.041 12.7371 82.4411 12.7371C83.9188 12.7371 84.9403 13.352 85.5155 14.4231V9.43457H86.8345V21.1671H85.5651V19.5703C84.9899 20.6811 83.9684 21.3456 82.4411 21.3456C80.0311 21.3456 78.5435 19.6893 78.5435 17.0413ZM85.5651 17.0413C85.5651 14.9686 84.4444 13.8975 82.7188 13.8975C81.0129 13.8975 79.8922 14.9686 79.8922 17.0413C79.8922 19.1141 81.0129 20.1852 82.7188 20.1852C84.4444 20.1852 85.5651 19.1141 85.5651 17.0413Z" fill="#4F379F"/>
<path d="M88.8872 17.0413C88.8872 14.3536 90.5038 12.7371 92.9435 12.7371C95.3832 12.7371 96.9998 14.3735 96.9998 16.8826C96.9998 17.0016 96.98 17.2 96.9601 17.319H90.236C90.2856 19.2331 91.3964 20.3042 93.2708 20.3042C94.2526 20.3042 95.413 19.967 96.1866 19.3422L96.6428 20.1852C95.7601 20.9587 94.4113 21.3455 93.1617 21.3455C90.593 21.3455 88.8872 19.8281 88.8872 17.0413ZM90.236 16.4363H95.651C95.5617 14.7999 94.5799 13.7685 92.9435 13.7685C91.3468 13.7685 90.3649 14.7702 90.236 16.4363Z" fill="#7367F0"/>
<path d="M88.8872 17.0413C88.8872 14.3536 90.5038 12.7371 92.9435 12.7371C95.3832 12.7371 96.9998 14.3735 96.9998 16.8826C96.9998 17.0016 96.98 17.2 96.9601 17.319H90.236C90.2856 19.2331 91.3964 20.3042 93.2708 20.3042C94.2526 20.3042 95.413 19.967 96.1866 19.3422L96.6428 20.1852C95.7601 20.9587 94.4113 21.3455 93.1617 21.3455C90.593 21.3455 88.8872 19.8281 88.8872 17.0413ZM90.236 16.4363H95.651C95.5617 14.7999 94.5799 13.7685 92.9435 13.7685C91.3468 13.7685 90.3649 14.7702 90.236 16.4363Z" fill="#4F379F"/>
<path d="M34.3706 28.2681V26.4432H33.7358V26.0664H34.3706V25.2234H34.8367V26.0664H35.6103V26.4432H34.8367V28.2482C34.8367 28.5259 34.9755 28.6549 35.2334 28.6549C35.3623 28.6549 35.4813 28.635 35.6103 28.6053V28.9524C35.4813 29.0119 35.3028 29.0417 35.1144 29.0417C34.6383 29.0417 34.3706 28.7937 34.3706 28.2681Z" fill="#7367F0"/>
<path d="M34.3706 28.2681V26.4432H33.7358V26.0664H34.3706V25.2234H34.8367V26.0664H35.6103V26.4432H34.8367V28.2482C34.8367 28.5259 34.9755 28.6549 35.2334 28.6549C35.3623 28.6549 35.4813 28.635 35.6103 28.6053V28.9524C35.4813 29.0119 35.3028 29.0417 35.1144 29.0417C34.6383 29.0417 34.3706 28.7937 34.3706 28.2681Z" fill="#4F379F"/>
<path d="M36.0962 27.5343C36.0962 26.5723 36.6714 25.9971 37.5442 25.9971C38.4169 25.9971 38.9921 26.5822 38.9921 27.4748C38.9921 27.5145 38.9822 27.5839 38.9822 27.6335H36.5821C36.602 28.3178 36.9987 28.6947 37.6632 28.6947C38.0103 28.6947 38.4268 28.5756 38.7045 28.3475L38.8632 28.6451C38.5458 28.9228 38.0698 29.0616 37.6235 29.0616C36.7012 29.0715 36.0962 28.5261 36.0962 27.5343ZM36.5821 27.326H38.5062C38.4764 26.7409 38.1293 26.3739 37.5442 26.3739C36.9789 26.3739 36.6218 26.731 36.5821 27.326Z" fill="#7367F0"/>
<path d="M36.0962 27.5343C36.0962 26.5723 36.6714 25.9971 37.5442 25.9971C38.4169 25.9971 38.9921 26.5822 38.9921 27.4748C38.9921 27.5145 38.9822 27.5839 38.9822 27.6335H36.5821C36.602 28.3178 36.9987 28.6947 37.6632 28.6947C38.0103 28.6947 38.4268 28.5756 38.7045 28.3475L38.8632 28.6451C38.5458 28.9228 38.0698 29.0616 37.6235 29.0616C36.7012 29.0715 36.0962 28.5261 36.0962 27.5343ZM36.5821 27.326H38.5062C38.4764 26.7409 38.1293 26.3739 37.5442 26.3739C36.9789 26.3739 36.6218 26.731 36.5821 27.326Z" fill="#4F379F"/>
<path d="M39.5571 27.5343C39.5571 26.5921 40.1125 25.9971 41.0646 25.9971C41.4811 25.9971 41.8283 26.126 42.1059 26.364L41.9175 26.7111C41.6597 26.5029 41.382 26.4037 41.0646 26.4037C40.41 26.4037 40.0431 26.8202 40.0431 27.5244C40.0431 28.2285 40.41 28.6451 41.0646 28.6451C41.382 28.6451 41.6497 28.5558 41.9175 28.3376L42.1059 28.6847C41.8283 28.9327 41.4911 29.0517 41.0646 29.0517C40.1125 29.0715 39.5571 28.4765 39.5571 27.5343Z" fill="#7367F0"/>
<path d="M39.5571 27.5343C39.5571 26.5921 40.1125 25.9971 41.0646 25.9971C41.4811 25.9971 41.8283 26.126 42.1059 26.364L41.9175 26.7111C41.6597 26.5029 41.382 26.4037 41.0646 26.4037C40.41 26.4037 40.0431 26.8202 40.0431 27.5244C40.0431 28.2285 40.41 28.6451 41.0646 28.6451C41.382 28.6451 41.6497 28.5558 41.9175 28.3376L42.1059 28.6847C41.8283 28.9327 41.4911 29.0517 41.0646 29.0517C40.1125 29.0715 39.5571 28.4765 39.5571 27.5343Z" fill="#4F379F"/>
<path d="M44.8732 29.0019V27.2465C44.8732 26.6613 44.6352 26.4035 44.1492 26.4035C43.574 26.4035 43.2566 26.82 43.2566 27.4944V28.9919H42.7905V24.8167H43.2566V26.5919C43.4451 26.2249 43.7823 25.9869 44.2682 25.9869C44.9327 25.9869 45.3393 26.3638 45.3393 27.1869V28.9919H44.8732V29.0019Z" fill="#7367F0"/>
<path d="M44.8732 29.0019V27.2465C44.8732 26.6613 44.6352 26.4035 44.1492 26.4035C43.574 26.4035 43.2566 26.82 43.2566 27.4944V28.9919H42.7905V24.8167H43.2566V26.5919C43.4451 26.2249 43.7823 25.9869 44.2682 25.9869C44.9327 25.9869 45.3393 26.3638 45.3393 27.1869V28.9919H44.8732V29.0019Z" fill="#4F379F"/>
<path d="M48.3346 29.0019V27.2465C48.3346 26.6614 48.0966 26.4035 47.6107 26.4035C47.0354 26.4035 46.7181 26.82 46.7181 27.4944V28.992H46.252V26.0465H46.6982V26.6118C46.8768 26.225 47.2239 25.9771 47.7297 25.9771C48.3942 25.9771 48.8008 26.3539 48.8008 27.1771V28.9821H48.3346V29.0019Z" fill="#7367F0"/>
<path d="M48.3346 29.0019V27.2465C48.3346 26.6614 48.0966 26.4035 47.6107 26.4035C47.0354 26.4035 46.7181 26.82 46.7181 27.4944V28.992H46.252V26.0465H46.6982V26.6118C46.8768 26.225 47.2239 25.9771 47.7297 25.9771C48.3942 25.9771 48.8008 26.3539 48.8008 27.1771V28.9821H48.3346V29.0019Z" fill="#4F379F"/>
<path d="M49.5347 27.5343C49.5347 26.5921 50.09 25.9971 51.0421 25.9971C51.9942 25.9971 52.5496 26.5921 52.5496 27.5343C52.5496 28.4765 51.9942 29.0715 51.0421 29.0715C50.09 29.0715 49.5347 28.4765 49.5347 27.5343ZM52.0636 27.5343C52.0636 26.8301 51.6967 26.4136 51.0421 26.4136C50.3876 26.4136 50.0206 26.8301 50.0206 27.5343C50.0206 28.2384 50.3876 28.655 51.0421 28.655C51.6967 28.655 52.0636 28.2384 52.0636 27.5343Z" fill="#7367F0"/>
<path d="M49.5347 27.5343C49.5347 26.5921 50.09 25.9971 51.0421 25.9971C51.9942 25.9971 52.5496 26.5921 52.5496 27.5343C52.5496 28.4765 51.9942 29.0715 51.0421 29.0715C50.09 29.0715 49.5347 28.4765 49.5347 27.5343ZM52.0636 27.5343C52.0636 26.8301 51.6967 26.4136 51.0421 26.4136C50.3876 26.4136 50.0206 26.8301 50.0206 27.5343C50.0206 28.2384 50.3876 28.655 51.0421 28.655C51.6967 28.655 52.0636 28.2384 52.0636 27.5343Z" fill="#4F379F"/>
<path d="M53.2832 29.002V24.8267H53.7493V29.002H53.2832Z" fill="#7367F0"/>
<path d="M53.2832 29.002V24.8267H53.7493V29.002H53.2832Z" fill="#4F379F"/>
<path d="M54.4834 27.5343C54.4834 26.5921 55.0388 25.9971 55.9909 25.9971C56.943 25.9971 57.4983 26.5921 57.4983 27.5343C57.4983 28.4765 56.943 29.0715 55.9909 29.0715C55.0388 29.0715 54.4834 28.4765 54.4834 27.5343ZM57.0223 27.5343C57.0223 26.8301 56.6553 26.4136 56.0008 26.4136C55.3462 26.4136 54.9793 26.8301 54.9793 27.5343C54.9793 28.2384 55.3462 28.655 56.0008 28.655C56.6553 28.655 57.0223 28.2384 57.0223 27.5343Z" fill="#7367F0"/>
<path d="M54.4834 27.5343C54.4834 26.5921 55.0388 25.9971 55.9909 25.9971C56.943 25.9971 57.4983 26.5921 57.4983 27.5343C57.4983 28.4765 56.943 29.0715 55.9909 29.0715C55.0388 29.0715 54.4834 28.4765 54.4834 27.5343ZM57.0223 27.5343C57.0223 26.8301 56.6553 26.4136 56.0008 26.4136C55.3462 26.4136 54.9793 26.8301 54.9793 27.5343C54.9793 28.2384 55.3462 28.655 56.0008 28.655C56.6553 28.655 57.0223 28.2384 57.0223 27.5343Z" fill="#4F379F"/>
<path d="M58.0635 27.4449C58.0635 26.5424 58.6585 26.0068 59.4519 26.0068C59.9974 26.0068 60.3544 26.2449 60.5627 26.6416V26.0763H61.009V28.6152C61.009 29.6367 60.4437 30.2218 59.4718 30.2218C58.9561 30.2218 58.5792 30.0631 58.2122 29.7358L58.3908 29.4185C58.7478 29.716 59.0651 29.835 59.4619 29.835C60.1362 29.835 60.5429 29.4185 60.5429 28.6945V28.2978C60.3346 28.6747 59.9776 28.9028 59.4519 28.9028C58.6585 28.8829 58.0635 28.3573 58.0635 27.4449ZM60.5627 27.4449C60.5627 26.7407 60.1164 26.4035 59.5511 26.4035C58.9858 26.4035 58.5395 26.7507 58.5395 27.4449C58.5395 28.149 58.9858 28.4862 59.5511 28.4862C60.1263 28.4862 60.5627 28.1391 60.5627 27.4449Z" fill="#7367F0"/>
<path d="M58.0635 27.4449C58.0635 26.5424 58.6585 26.0068 59.4519 26.0068C59.9974 26.0068 60.3544 26.2449 60.5627 26.6416V26.0763H61.009V28.6152C61.009 29.6367 60.4437 30.2218 59.4718 30.2218C58.9561 30.2218 58.5792 30.0631 58.2122 29.7358L58.3908 29.4185C58.7478 29.716 59.0651 29.835 59.4619 29.835C60.1362 29.835 60.5429 29.4185 60.5429 28.6945V28.2978C60.3346 28.6747 59.9776 28.9028 59.4519 28.9028C58.6585 28.8829 58.0635 28.3573 58.0635 27.4449ZM60.5627 27.4449C60.5627 26.7407 60.1164 26.4035 59.5511 26.4035C58.9858 26.4035 58.5395 26.7507 58.5395 27.4449C58.5395 28.149 58.9858 28.4862 59.5511 28.4862C60.1263 28.4862 60.5627 28.1391 60.5627 27.4449Z" fill="#4F379F"/>
<path d="M61.8521 25.0548C61.8521 24.8961 61.981 24.7771 62.1496 24.7771C62.3182 24.7771 62.4471 24.8961 62.4471 25.0548C62.4471 25.2135 62.3281 25.3325 62.1496 25.3325C61.9711 25.3325 61.8521 25.2135 61.8521 25.0548ZM61.9215 29.002V26.0565H62.3876V29.002H61.9215Z" fill="#7367F0"/>
<path d="M61.8521 25.0548C61.8521 24.8961 61.981 24.7771 62.1496 24.7771C62.3182 24.7771 62.4471 24.8961 62.4471 25.0548C62.4471 25.2135 62.3281 25.3325 62.1496 25.3325C61.9711 25.3325 61.8521 25.2135 61.8521 25.0548ZM61.9215 29.002V26.0565H62.3876V29.002H61.9215Z" fill="#4F379F"/>
<path d="M63.1216 27.5343C63.1216 26.5723 63.6968 25.9971 64.5695 25.9971C65.4423 25.9971 66.0175 26.5822 66.0175 27.4748C66.0175 27.5145 66.0076 27.5839 66.0076 27.6335H63.6075C63.6274 28.3178 64.0241 28.6947 64.6886 28.6947C65.0357 28.6947 65.4522 28.5756 65.7299 28.3475L65.8886 28.6451C65.5712 28.9228 65.0952 29.0616 64.6489 29.0616C63.7266 29.0715 63.1216 28.5261 63.1216 27.5343ZM63.5976 27.326H65.5216C65.4919 26.7409 65.1448 26.3739 64.5596 26.3739C63.9943 26.3739 63.6472 26.731 63.5976 27.326Z" fill="#7367F0"/>
<path d="M63.1216 27.5343C63.1216 26.5723 63.6968 25.9971 64.5695 25.9971C65.4423 25.9971 66.0175 26.5822 66.0175 27.4748C66.0175 27.5145 66.0076 27.5839 66.0076 27.6335H63.6075C63.6274 28.3178 64.0241 28.6947 64.6886 28.6947C65.0357 28.6947 65.4522 28.5756 65.7299 28.3475L65.8886 28.6451C65.5712 28.9228 65.0952 29.0616 64.6489 29.0616C63.7266 29.0715 63.1216 28.5261 63.1216 27.5343ZM63.5976 27.326H65.5216C65.4919 26.7409 65.1448 26.3739 64.5596 26.3739C63.9943 26.3739 63.6472 26.731 63.5976 27.326Z" fill="#4F379F"/>
<path d="M66.5728 28.6649L66.7513 28.3376C67.1182 28.5856 67.4356 28.7046 67.7529 28.7046C68.2488 28.7046 68.4769 28.4864 68.4769 28.1889C68.4769 27.9508 68.3579 27.8219 67.991 27.7624L67.4455 27.6533C66.9298 27.564 66.662 27.3062 66.662 26.9194C66.662 26.4235 67.0389 25.9971 67.7827 25.9971C68.2092 25.9971 68.586 26.1359 68.8637 26.3541L68.6852 26.6814C68.4373 26.493 68.1199 26.364 67.7926 26.364C67.3959 26.364 67.1381 26.5723 67.1381 26.8698C67.1381 27.0682 67.267 27.1971 67.5843 27.2467L68.1298 27.3558C68.6554 27.445 68.953 27.6731 68.953 28.1492C68.953 28.6847 68.5265 29.0616 67.743 29.0616C67.3067 29.0715 66.9298 28.9228 66.5728 28.6649Z" fill="#7367F0"/>
<path d="M66.5728 28.6649L66.7513 28.3376C67.1182 28.5856 67.4356 28.7046 67.7529 28.7046C68.2488 28.7046 68.4769 28.4864 68.4769 28.1889C68.4769 27.9508 68.3579 27.8219 67.991 27.7624L67.4455 27.6533C66.9298 27.564 66.662 27.3062 66.662 26.9194C66.662 26.4235 67.0389 25.9971 67.7827 25.9971C68.2092 25.9971 68.586 26.1359 68.8637 26.3541L68.6852 26.6814C68.4373 26.493 68.1199 26.364 67.7926 26.364C67.3959 26.364 67.1381 26.5723 67.1381 26.8698C67.1381 27.0682 67.267 27.1971 67.5843 27.2467L68.1298 27.3558C68.6554 27.445 68.953 27.6731 68.953 28.1492C68.953 28.6847 68.5265 29.0616 67.743 29.0616C67.3067 29.0715 66.9298 28.9228 66.5728 28.6649Z" fill="#4F379F"/>
<path d="M11.7686 28.4762L17.7786 20.324L19.0381 21.3852L12.1157 29.0019L11.7686 28.4762Z" fill="#00E1F0"/>
<path d="M7.66272 19.1141C8.01975 19.2034 17.3125 18.7869 17.3125 18.7869L16.7869 20.0166H7.17676L7.66272 19.1141Z" fill="#00E1F0"/>
<path d="M17.1436 17.1903L9.55664 4.80322H9.95334L19.0378 17.1903H17.1436Z" fill="#00E1F0"/>
<path d="M19.3656 16.4463L18.0267 9.2561H17.7788L18.2449 17.7654L19.3656 16.4463Z" fill="#00E1F0"/>
<path d="M20.7142 17.19C20.9819 17.1008 27.4978 13.8379 27.4978 13.8379L27.6763 14.2743L19.0381 20.3141L20.7142 17.19Z" fill="#00E1F0"/>
<path d="M8.63481 5.69564C10.0973 5.69564 11.2828 4.5101 11.2828 3.04765C11.2828 1.58521 10.0973 0.399658 8.63481 0.399658C7.17236 0.399658 5.98682 1.58521 5.98682 3.04765C5.98682 4.5101 7.17236 5.69564 8.63481 5.69564Z" fill="#7367F0"/>
<path d="M8.63481 5.69564C10.0973 5.69564 11.2828 4.5101 11.2828 3.04765C11.2828 1.58521 10.0973 0.399658 8.63481 0.399658C7.17236 0.399658 5.98682 1.58521 5.98682 3.04765C5.98682 4.5101 7.17236 5.69564 8.63481 5.69564Z" fill="#4F379F"/>
<path d="M19.3652 22.397C21.1782 22.397 22.648 20.9273 22.648 19.1143C22.648 17.3013 21.1782 15.8315 19.3652 15.8315C17.5522 15.8315 16.0825 17.3013 16.0825 19.1143C16.0825 20.9273 17.5522 22.397 19.3652 22.397Z" fill="#7367F0"/>
<path d="M19.3652 22.397C21.1782 22.397 22.648 20.9273 22.648 19.1143C22.648 17.3013 21.1782 15.8315 19.3652 15.8315C17.5522 15.8315 16.0825 17.3013 16.0825 19.1143C16.0825 20.9273 17.5522 22.397 19.3652 22.397Z" fill="#4F379F"/>
<path d="M28.3805 15.3059C29.4047 15.3059 30.235 14.4755 30.235 13.4513C30.235 12.427 29.4047 11.5967 28.3805 11.5967C27.3562 11.5967 26.5259 12.427 26.5259 13.4513C26.5259 14.4755 27.3562 15.3059 28.3805 15.3059Z" fill="#7367F0"/>
<path d="M28.3805 15.3059C29.4047 15.3059 30.235 14.4755 30.235 13.4513C30.235 12.427 29.4047 11.5967 28.3805 11.5967C27.3562 11.5967 26.5259 12.427 26.5259 13.4513C26.5259 14.4755 27.3562 15.3059 28.3805 15.3059Z" fill="#4F379F"/>
<path d="M17.7786 9.83132C18.4742 9.83132 19.0381 9.26741 19.0381 8.57179C19.0381 7.87617 18.4742 7.31226 17.7786 7.31226C17.083 7.31226 16.519 7.87617 16.519 8.57179C16.519 9.26741 17.083 9.83132 17.7786 9.83132Z" fill="#7367F0"/>
<path d="M17.7786 9.83132C18.4742 9.83132 19.0381 9.26741 19.0381 8.57179C19.0381 7.87617 18.4742 7.31226 17.7786 7.31226C17.083 7.31226 16.519 7.87617 16.519 8.57179C16.519 9.26741 17.083 9.83132 17.7786 9.83132Z" fill="#4F379F"/>
<path d="M5.98635 21.6927C7.13111 21.6927 8.05912 20.7647 8.05912 19.6199C8.05912 18.4751 7.13111 17.5471 5.98635 17.5471C4.84159 17.5471 3.91357 18.4751 3.91357 19.6199C3.91357 20.7647 4.84159 21.6927 5.98635 21.6927Z" fill="#7367F0"/>
<path d="M5.98635 21.6927C7.13111 21.6927 8.05912 20.7647 8.05912 19.6199C8.05912 18.4751 7.13111 17.5471 5.98635 17.5471C4.84159 17.5471 3.91357 18.4751 3.91357 19.6199C3.91357 20.7647 4.84159 21.6927 5.98635 21.6927Z" fill="#4F379F"/>
<path d="M11.2824 31.6002C12.345 31.6002 13.2064 30.7388 13.2064 29.6762C13.2064 28.6136 12.345 27.7522 11.2824 27.7522C10.2198 27.7522 9.3584 28.6136 9.3584 29.6762C9.3584 30.7388 10.2198 31.6002 11.2824 31.6002Z" fill="#7367F0"/>
<path d="M11.2824 31.6002C12.345 31.6002 13.2064 30.7388 13.2064 29.6762C13.2064 28.6136 12.345 27.7522 11.2824 27.7522C10.2198 27.7522 9.3584 28.6136 9.3584 29.6762C9.3584 30.7388 10.2198 31.6002 11.2824 31.6002Z" fill="#4F379F"/>
</svg>
