<svg width="70" height="27" viewBox="0 0 70 27" fill="none" xmlns="http://www.w3.org/2000/svg">
<path d="M19.4195 9.2417L15.354 7.88486V2.00522L19.4245 3.2113L19.4195 9.2417Z" fill="#F68D11"/>
<path d="M20.4798 3.2113L24.5504 2.00522L24.5362 7.88079L20.4798 9.2417V3.2113Z" fill="#F68D11"/>
<path d="M23.7212 1.368L19.9275 0.195534L16.1832 1.368L19.9329 2.37311L23.7212 1.368Z" fill="#F68D11"/>
<path d="M29.6711 9.2417L25.6056 7.88486V2.00522L29.6761 3.2113L29.6711 9.2417Z" fill="#F68D11"/>
<path d="M30.7314 3.2113L34.8019 2.00522L34.7878 7.88079L30.7314 9.2417V3.2113Z" fill="#F68D11"/>
<path d="M33.9729 1.368L30.1792 0.195534L26.4349 1.368L30.1846 2.37311L33.9729 1.368Z" fill="#F68D11"/>
<path d="M4.17111 11.8049L0.100586 10.5988V16.4784L4.16616 17.8353L4.17111 11.8049Z" fill="#F68D11"/>
<path d="M5.22644 11.8049L9.29696 10.5988L9.28284 16.4745L5.22644 17.8353V11.8049Z" fill="#F68D11"/>
<path d="M8.46766 9.96314L4.67391 8.79068L0.929653 9.96314L4.6794 10.9683L8.46766 9.96314Z" fill="#F68D11"/>
<path d="M14.4177 17.8353L10.3522 16.4784V10.5988L14.4227 11.8049L14.4177 17.8353Z" fill="#F68D11"/>
<path d="M15.478 11.8049L19.5485 10.5988L19.5344 16.4745L15.478 17.8353V11.8049Z" fill="#F68D11"/>
<path d="M18.7195 9.96314L14.9258 8.79068L11.1815 9.96314L14.9312 10.9683L18.7195 9.96314Z" fill="#F68D11"/>
<path d="M9.29202 26.4283L5.22644 25.0715V19.1918L9.29696 20.3979L9.29202 26.4283Z" fill="#F68D11"/>
<path d="M10.228 20.3979L14.2985 19.1918L14.2844 25.0675L10.228 26.4283V20.3979Z" fill="#F68D11"/>
<path d="M13.5935 18.5551L9.79977 17.3827L6.05551 18.5551L9.80526 19.5603L13.5935 18.5551Z" fill="#F68D11"/>
<path d="M27.1721 21.2313L26.873 21.2324C26.7632 21.2324 26.6233 21.3065 26.5889 21.4267L25.6815 24.6236L24.784 21.4337C24.7571 21.3337 24.6628 21.2324 24.5347 21.2324H24.1805C24.053 21.2324 23.96 21.335 23.9342 21.4357L23.0993 24.5925L22.2366 21.4259C22.2026 21.3102 22.0592 21.2324 21.9467 21.2324L21.5163 21.2316C21.4244 21.2316 21.3389 21.2711 21.293 21.3347C21.262 21.3778 21.2534 21.4267 21.2677 21.4692L22.6004 26.1874C22.6298 26.2866 22.7158 26.3866 22.8415 26.3866H23.2695C23.3851 26.3866 23.4864 26.3023 23.5157 26.1827L24.336 23.0399L25.2286 26.1863C25.2555 26.2827 25.3419 26.3866 25.4682 26.3866H25.8893C26.0064 26.3866 26.105 26.3052 26.1339 26.1859L27.4168 21.4712C27.4318 21.4258 27.4231 21.3753 27.3925 21.3328C27.3474 21.2702 27.263 21.2313 27.1721 21.2313Z" fill="#100F0D"/>
<path d="M30.873 23.2341H28.6119C28.6639 22.5996 29.076 21.9417 29.774 21.9163C30.5168 21.9406 30.8566 22.5834 30.873 23.2341ZM29.7723 21.1972C28.245 21.1972 27.5494 22.5475 27.5494 23.802C27.5494 25.3677 28.4141 26.3792 29.7524 26.3792C30.7102 26.3792 31.4403 25.8953 31.7557 25.0498C31.7726 25.0015 31.7673 24.949 31.7409 24.902C31.7088 24.8448 31.6479 24.8017 31.5759 24.7859L31.1519 24.7048C31.0381 24.687 30.9077 24.7544 30.8646 24.8522C30.6586 25.322 30.2832 25.5885 29.8121 25.6024C29.3588 25.5884 28.9425 25.3191 28.7518 24.9167C28.5968 24.5881 28.5739 24.2641 28.5714 23.9347L31.641 23.9336C31.7054 23.9336 31.772 23.9053 31.819 23.8577C31.8584 23.8181 31.8798 23.769 31.8793 23.7199C31.8718 22.5002 31.3144 21.1972 29.7723 21.1972Z" fill="#100F0D"/>
<path d="M35.6557 23.8102C35.6557 24.099 35.6034 25.5414 34.5787 25.5783C34.2353 25.5652 33.8882 25.3633 33.6943 25.0648C33.5516 24.8391 33.4682 24.527 33.4468 24.1409V23.2923C33.4635 22.6422 33.9211 21.9288 34.5754 21.9012C35.6036 21.9418 35.6557 23.4984 35.6557 23.8102ZM34.7394 21.1541H34.6581C34.1511 21.1541 33.7527 21.3647 33.4468 21.7963L33.4463 19.8074C33.4463 19.6957 33.331 19.5939 33.2036 19.5939H32.7622C32.6468 19.5939 32.5178 19.6852 32.5175 19.8074V26.0163C32.5179 26.129 32.6333 26.2315 32.7605 26.2315L32.8902 26.2308C33.0126 26.2308 33.0997 26.1322 33.1291 26.0405L33.2672 25.6023C33.588 26.0578 34.0712 26.3254 34.5883 26.3254H34.6675C36.0296 26.3254 36.6393 25.0006 36.6393 23.6876C36.6393 23.0341 36.4781 22.4092 36.1973 21.9732C35.8727 21.468 35.3139 21.1541 34.7394 21.1541Z" fill="#100F0D"/>
<path d="M41.4727 23.6699C41.1857 23.4637 40.8406 23.3948 40.4949 23.3258L39.832 23.2029C39.3564 23.1247 39.0811 22.9971 39.0811 22.5774C39.0811 22.1337 39.5409 21.9641 39.9308 21.9536C40.4069 21.9656 40.7649 22.178 40.9388 22.5516C40.9801 22.6396 41.0716 22.6989 41.1667 22.6989C41.183 22.6989 41.1996 22.6971 41.2152 22.6936L41.6289 22.6022C41.6965 22.5873 41.7595 22.5411 41.7933 22.4809C41.8202 22.4331 41.8261 22.3809 41.81 22.3344C41.5569 21.597 40.9142 21.2073 39.9419 21.2073C39.0634 21.2092 38.1247 21.5999 38.1247 22.6909C38.1247 23.4365 38.5932 23.9101 39.5183 24.0985L40.2603 24.2399C40.6677 24.3179 41.0842 24.4566 41.0842 24.894C41.0842 25.5415 40.3307 25.6075 40.1029 25.6122C39.5919 25.6012 39.0132 25.3732 38.8727 24.8905C38.8445 24.7844 38.711 24.7093 38.5938 24.7337L38.1612 24.823C38.096 24.8367 38.0365 24.879 38.0018 24.9362C37.9727 24.9838 37.9644 25.0372 37.9778 25.0859C38.2011 25.8869 38.9743 26.3699 40.0463 26.378L40.0701 26.3782C41.0274 26.3782 42.0503 25.9683 42.0503 24.8183C42.0503 24.3502 41.8397 23.9316 41.4727 23.6699Z" fill="#100F0D"/>
<path d="M45.8488 23.2388H43.5871C43.6388 22.6037 44.0509 21.9455 44.7489 21.9213C45.4914 21.9449 45.8316 22.5877 45.8488 23.2388ZM44.7477 21.2016C43.22 21.2016 42.5243 22.552 42.5243 23.8064C42.5243 25.372 43.3892 26.3834 44.7276 26.3834C45.6856 26.3834 46.4157 25.8995 46.7314 25.0541C46.7481 25.0057 46.7428 24.9531 46.7163 24.906C46.6842 24.8488 46.6231 24.8057 46.5512 24.7901L46.1267 24.709C46.0273 24.6929 45.8888 24.7443 45.8399 24.8566C45.6338 25.3261 45.2583 25.5926 44.7876 25.6071C44.3338 25.5926 43.9177 25.3234 43.7278 24.9212C43.5725 24.5933 43.5494 24.269 43.5472 23.9388L46.6165 23.938C46.6804 23.938 46.7466 23.9099 46.7936 23.8625C46.8331 23.8228 46.8545 23.7737 46.8541 23.7243C46.847 22.5048 46.2901 21.2016 44.7477 21.2016Z" fill="#100F0D"/>
<path d="M49.7526 21.2596C49.6927 21.253 49.6351 21.2498 49.5792 21.2498C49.0641 21.2498 48.6457 21.5299 48.3553 22.0649L48.3564 21.5964C48.3559 21.4829 48.2427 21.3832 48.1141 21.3832H47.7307C47.605 21.3832 47.494 21.4833 47.4931 21.5982L47.4925 26.1501C47.4925 26.2643 47.6035 26.3646 47.7301 26.3646L48.1774 26.3644C48.2938 26.3644 48.4248 26.2731 48.4259 26.1501L48.4262 23.8552C48.4262 23.4768 48.4615 23.1917 48.6422 22.8544C48.9005 22.374 49.2611 22.1383 49.7447 22.1346C49.8659 22.1337 49.9724 22.0278 49.9724 21.908V21.4822C49.9724 21.3708 49.8757 21.273 49.7526 21.2596Z" fill="#100F0D"/>
<path d="M54.449 21.17L54.0958 21.1701C53.9851 21.1701 53.8432 21.2496 53.8089 21.3661L52.6638 24.9649L51.4945 21.3697C51.46 21.2504 51.3179 21.1701 51.2066 21.1701L50.7021 21.1697C50.6096 21.1697 50.52 21.2109 50.4742 21.2747C50.4434 21.3174 50.435 21.3658 50.4502 21.411L52.0505 26.1583C52.0813 26.2522 52.1629 26.362 52.2919 26.362H52.9023C53.0144 26.362 53.1062 26.2857 53.1482 26.1579L54.7005 21.4125C54.716 21.3675 54.7077 21.3189 54.6771 21.2761C54.631 21.2117 54.5416 21.17 54.449 21.17Z" fill="#100F0D"/>
<path d="M55.6095 19.3447C55.2841 19.3447 55.0195 19.61 55.0195 19.9364C55.0195 20.2628 55.2841 20.528 55.6095 20.528C55.935 20.528 56.1998 20.2628 56.1998 19.9364C56.1998 19.61 55.935 19.3447 55.6095 19.3447Z" fill="#100F0D"/>
<path d="M55.8524 21.1411L55.368 21.1406C55.2362 21.1406 55.1162 21.2472 55.1162 21.364L55.1138 26.1973C55.1138 26.2557 55.144 26.3138 55.1961 26.3569C55.2439 26.3961 55.305 26.4187 55.3663 26.4187L55.8542 26.4195C55.9879 26.4183 56.1057 26.3146 56.1057 26.1976V21.364C56.1057 21.2453 55.9872 21.1411 55.8524 21.1411Z" fill="#100F0D"/>
<path d="M60.3793 24.4177L59.9748 24.4193C59.8618 24.4193 59.7672 24.4871 59.7251 24.6049C59.5774 25.2424 59.2427 25.5727 58.7352 25.5873C57.7468 25.5579 57.6701 24.1803 57.6701 23.7587C57.6701 22.9181 57.9612 22.011 58.774 21.987C59.2645 22.0021 59.6214 22.3538 59.7284 22.927C59.7486 23.044 59.8385 23.1325 59.9612 23.1479L60.394 23.1521C60.5234 23.1381 60.6248 23.0402 60.6239 22.9188C60.4708 21.883 59.753 21.2135 58.7937 21.2135L58.7605 21.2144L58.723 21.2135C57.3279 21.2135 56.7033 22.5156 56.7033 23.8059C56.7033 24.989 57.2299 26.3704 58.7152 26.3704H58.7863C59.7216 26.3704 60.4276 25.7147 60.6298 24.6517C60.6343 24.601 60.6168 24.5504 60.581 24.5092C60.5345 24.4559 60.4605 24.4217 60.3793 24.4177Z" fill="#100F0D"/>
<path d="M64.3741 23.2388H62.1121C62.1638 22.6035 62.5759 21.9455 63.2744 21.9213C64.0171 21.9449 64.3572 22.5877 64.3741 23.2388ZM63.2729 21.2016C61.7454 21.2016 61.0498 22.552 61.0498 23.8064C61.0498 25.372 61.9147 26.3834 63.2532 26.3834C64.2106 26.3834 64.9405 25.8997 65.2565 25.0543C65.2729 25.0056 65.2675 24.9528 65.2411 24.906C65.2085 24.8484 65.1493 24.8063 65.0761 24.7901L64.6522 24.709C64.5524 24.6929 64.4143 24.7443 64.3655 24.8566C64.1588 25.3261 63.7831 25.5926 63.3126 25.6073C62.8589 25.5926 62.443 25.3234 62.253 24.9212C62.0976 24.5928 62.0745 24.2685 62.0721 23.9388L65.1417 23.9383C65.2063 23.9383 65.2729 23.9099 65.3201 23.8621C65.3593 23.8221 65.3804 23.773 65.3796 23.7243C65.3725 22.5048 64.8155 21.2016 63.2729 21.2016Z" fill="#100F0D"/>
<path d="M69.2253 23.6699C68.9378 23.4635 68.5923 23.3947 68.2472 23.3258L67.5843 23.2029C67.1091 23.1247 66.834 22.9971 66.834 22.5774C66.834 22.0051 67.5442 21.9573 67.6827 21.9536C68.1593 21.9656 68.5173 22.178 68.6909 22.5518C68.7325 22.6398 68.8243 22.6989 68.9196 22.6989C68.936 22.6989 68.9524 22.6971 68.9684 22.6936L69.3818 22.6022C69.4493 22.5873 69.5122 22.5409 69.546 22.4808C69.5728 22.4329 69.5787 22.3809 69.5626 22.3344C69.3097 21.597 68.6669 21.2073 67.6942 21.2073C66.816 21.2092 65.8775 21.5999 65.8775 22.6909C65.8775 23.4367 66.3459 23.9103 67.2709 24.0985L68.0132 24.2399C68.4206 24.3179 68.8371 24.4566 68.8371 24.894C68.8371 25.5415 68.0836 25.6075 67.8558 25.6122C67.382 25.6021 66.7755 25.4064 66.6258 24.8911C66.5983 24.7844 66.4649 24.7094 66.3456 24.7337L65.9137 24.823C65.8483 24.8368 65.7886 24.8795 65.7539 24.9368C65.7251 24.9845 65.7168 25.0375 65.7304 25.0859C65.9531 25.8869 66.7262 26.3699 67.7982 26.378L67.822 26.3782C68.7795 26.3782 69.8026 25.9683 69.8026 24.8183C69.8026 24.3499 69.5921 23.9312 69.2253 23.6699Z" fill="#100F0D"/>
<path fill-rule="evenodd" clip-rule="evenodd" d="M49.5336 11.8353V10.7378C49.5342 10.5714 49.6605 10.4597 49.8122 10.4598L54.7292 10.4597C54.8862 10.4597 55.0128 10.5741 55.0128 10.7366V11.6778C55.0113 11.8353 54.8782 12.0413 54.6424 12.3685L52.0956 16.0049C53.0406 15.9825 54.041 16.124 54.8997 16.6068C55.0938 16.7156 55.1453 16.8771 55.1611 17.0347V18.2058C55.1611 18.3673 54.9845 18.5539 54.799 18.4567C53.2855 17.6637 51.277 17.5772 49.6031 18.4659C49.4323 18.5571 49.2532 18.3734 49.2532 18.2119V17.0991C49.2532 16.9216 49.2568 16.6166 49.436 16.3449L52.3872 12.1118L49.8181 12.1112C49.6608 12.1112 49.5351 11.9993 49.5336 11.8353Z" fill="#100F0D"/>
<path fill-rule="evenodd" clip-rule="evenodd" d="M31.5977 18.6876H30.1014C29.9592 18.6783 29.8454 18.571 29.8341 18.4343L29.8351 10.7564C29.8351 10.6028 29.9645 10.4801 30.1237 10.4801L31.5168 10.4793C31.6628 10.4875 31.7795 10.5975 31.7894 10.7371V11.7403H31.8172C32.1799 10.7704 32.8642 10.3188 33.7856 10.3188C34.7211 10.3188 35.3077 10.7704 35.7267 11.7403C36.09 10.7704 36.9136 10.3188 37.794 10.3188C38.4224 10.3188 39.1058 10.5769 39.5248 11.1582C39.9995 11.8048 39.9017 12.7413 39.9017 13.5656L39.9008 18.411C39.9008 18.5642 39.7716 18.6876 39.6125 18.6876H38.1185C37.968 18.6783 37.8497 18.5583 37.8497 18.4117V14.341C37.8497 14.0181 37.8773 13.2099 37.8076 12.9032C37.6956 12.3858 37.3603 12.2412 36.9281 12.2412C36.5646 12.2412 36.1874 12.4835 36.0338 12.8704C35.8803 13.2588 35.8945 13.905 35.8945 14.341V18.411C35.8945 18.5642 35.7653 18.6876 35.6059 18.6876H34.1116C33.9619 18.6783 33.8432 18.5583 33.8432 18.4117L33.8413 14.341C33.8413 13.4847 33.9813 12.225 32.9203 12.225C31.845 12.225 31.887 13.4526 31.887 14.341L31.8861 18.411C31.8867 18.5642 31.7573 18.6876 31.5977 18.6876Z" fill="#100F0D"/>
<path fill-rule="evenodd" clip-rule="evenodd" d="M59.2595 11.8854C58.1558 11.8854 58.0863 13.3879 58.0863 14.3253C58.0863 15.2622 58.0724 17.2654 59.2459 17.2654C60.4051 17.2654 60.4608 15.6497 60.4608 14.6643C60.4608 14.0182 60.4332 13.2429 60.2376 12.6289C60.0695 12.0955 59.7347 11.8854 59.2595 11.8854ZM59.2459 10.3188C61.466 10.3188 62.6671 12.2251 62.6671 14.6476C62.6671 16.9908 61.34 18.849 59.2459 18.849C57.0673 18.849 55.8801 16.9422 55.8801 14.5673C55.8801 12.1762 57.0807 10.3188 59.2459 10.3188Z" fill="#100F0D"/>
<path fill-rule="evenodd" clip-rule="evenodd" d="M65.5469 18.6876H64.0563C63.9062 18.6783 63.7878 18.5583 63.7878 18.4117L63.7857 10.7303C63.7981 10.5904 63.9223 10.4801 64.0725 10.4801L65.4605 10.4793C65.5914 10.4866 65.6987 10.5755 65.7262 10.6944V11.8693H65.7545C66.1729 10.819 66.7598 10.3188 67.7926 10.3188C68.4631 10.3188 69.1198 10.5604 69.5384 11.223C69.9292 11.8367 69.9292 12.8704 69.9292 13.6137V18.4455C69.9125 18.5816 69.7911 18.6876 69.6434 18.6876H68.143C68.0046 18.6786 67.8933 18.5763 67.8766 18.4455V14.2764C67.8766 13.4364 67.9746 12.2082 66.9408 12.2082C66.5779 12.2082 66.2433 12.4511 66.0755 12.8222C65.8658 13.2906 65.838 13.7591 65.838 14.2764V18.411C65.8355 18.5642 65.7061 18.6876 65.5469 18.6876Z" fill="#100F0D"/>
<path fill-rule="evenodd" clip-rule="evenodd" d="M47.1222 18.6681C47.023 18.7566 46.881 18.7625 46.7691 18.7029C46.2724 18.29 46.1831 18.0985 45.9116 17.7058C45.0904 18.5422 44.5089 18.7931 43.4456 18.7931C42.1857 18.7931 41.2064 18.0158 41.2064 16.4614C41.2064 15.2474 41.8638 14.4216 42.8014 14.0165C43.6131 13.6602 44.7468 13.5953 45.6143 13.4979V13.3038C45.6143 12.9478 45.6422 12.5266 45.432 12.2192C45.2507 11.9439 44.9008 11.8308 44.5924 11.8308C44.0218 11.8308 43.5148 12.1234 43.39 12.7293C43.3647 12.8639 43.2658 12.9976 43.1302 13.0041L41.6807 12.847C41.5579 12.8195 41.4221 12.7216 41.4575 12.5347C41.7907 10.7754 43.3791 10.2438 44.8028 10.2438C45.53 10.2438 46.4821 10.438 47.0559 10.9884C47.7833 11.6687 47.7132 12.5753 47.7132 13.5631V15.8937C47.7132 16.5947 48.0046 16.9024 48.2785 17.2802C48.3734 17.4165 48.3948 17.578 48.273 17.6779C47.9675 17.9339 47.4246 18.4051 47.1263 18.6714L47.1222 18.6681ZM45.6143 15.0203C45.6143 15.6033 45.6282 16.0895 45.3342 16.6072C45.0963 17.0286 44.7182 17.2874 44.2983 17.2874C43.7251 17.2874 43.3894 16.8504 43.3894 16.2024C43.3894 14.9286 44.5324 14.6967 45.6143 14.6967V15.0203Z" fill="#100F0D"/>
<path fill-rule="evenodd" clip-rule="evenodd" d="M27.512 18.6681C27.4131 18.7566 27.27 18.7625 27.1581 18.7029C26.6614 18.29 26.5724 18.0985 26.3006 17.7058C25.4799 18.5422 24.8981 18.7931 23.8342 18.7931C22.5747 18.7931 21.5951 18.0158 21.5951 16.4614C21.5951 15.2474 22.2532 14.4216 23.1907 14.0165C24.0026 13.6602 25.1361 13.5953 26.0036 13.4979V13.3038C26.0036 12.9478 26.0318 12.5266 25.8217 12.2192C25.6398 11.9439 25.2896 11.8308 24.9822 11.8308C24.4116 11.8308 23.904 12.1234 23.7796 12.7293C23.7537 12.8639 23.6552 12.9976 23.5198 13.0041L22.0697 12.847C21.9473 12.8195 21.8113 12.7216 21.8464 12.5347C22.1796 10.7754 23.7681 10.2438 25.1916 10.2438C25.9198 10.2438 26.8711 10.438 27.445 10.9884C28.1728 11.6687 28.1025 12.5753 28.1025 13.5631V15.8937C28.1025 16.5947 28.3941 16.9024 28.6672 17.2802C28.7625 17.4165 28.7841 17.578 28.6626 17.6779C28.3568 17.9339 27.8136 18.4051 27.5154 18.6714L27.512 18.6681ZM26.0036 15.0203C26.0036 15.6033 26.0173 16.0895 25.724 16.6072C25.4862 17.0286 25.1078 17.2874 24.6885 17.2874C24.1141 17.2874 23.7786 16.8504 23.7786 16.2024C23.7786 14.9286 24.9213 14.6967 26.0036 14.6967V15.0203Z" fill="#100F0D"/>
</svg>
