<svg width="96" height="22" viewBox="0 0 96 22" fill="none" xmlns="http://www.w3.org/2000/svg">
<path d="M95.4418 10.2957V8.537H93.3671V5.80297L93.2973 5.82561L91.3485 6.45323L91.3101 6.46551V8.5371H88.2344V7.38305C88.2344 6.84568 88.3485 6.43446 88.5735 6.16021C88.7969 5.88926 89.1164 5.75151 89.524 5.75151C89.817 5.75151 90.1203 5.82416 90.4256 5.96742L90.5022 6.00341V4.15131L90.4661 4.13738C90.1814 4.02962 89.794 3.97535 89.3138 3.97535C88.7087 3.97535 88.1588 4.11397 87.6793 4.3887C87.1995 4.66382 86.8221 5.05656 86.5577 5.55591C86.2942 6.05468 86.1605 6.63074 86.1605 7.26822V8.537H84.7159V10.2957H86.1605V17.7045H88.2344V10.2957H91.3101V15.0039C91.3101 16.9429 92.179 17.9256 93.8927 17.9256C94.1742 17.9256 94.4706 17.8908 94.7732 17.8228C95.0813 17.753 95.2911 17.6832 95.4146 17.6088L95.4419 17.5917V15.8168L95.3575 15.8755C95.245 15.9545 95.1048 16.019 94.9405 16.067C94.7754 16.1158 94.6376 16.1403 94.5308 16.1403C94.1294 16.1403 93.8324 16.0265 93.6481 15.8017C93.4618 15.575 93.3672 15.1785 93.3672 14.6238V10.2957H95.4418ZM80.0845 16.1406C79.3318 16.1406 78.7383 15.8779 78.3201 15.3603C77.8993 14.8402 77.6861 14.0986 77.6861 13.1564C77.6861 12.1843 77.8993 11.4235 78.3203 10.8942C78.7388 10.3683 79.3265 10.1014 80.0676 10.1014C80.7867 10.1014 81.3592 10.3563 81.7692 10.8594C82.1813 11.3652 82.3904 12.1199 82.3904 13.1033C82.3904 14.0988 82.1938 14.8635 81.806 15.375C81.4208 15.8827 80.8417 16.1406 80.0845 16.1406ZM80.1767 8.31616C78.7406 8.31616 77.6 8.75911 76.7867 9.63273C75.9739 10.5064 75.5618 11.7155 75.5618 13.2267C75.5618 14.6621 75.9641 15.8166 76.7575 16.6577C77.551 17.4992 78.6308 17.9254 79.9667 17.9254C81.3588 17.9254 82.4768 17.4762 83.2897 16.5905C84.1025 15.7058 84.5143 14.5081 84.5143 13.0322C84.5143 11.5744 84.1279 10.4113 83.3654 9.57575C82.6026 8.73986 81.5295 8.31616 80.1767 8.31616ZM72.2181 8.31616C71.2412 8.31616 70.4332 8.57918 69.8159 9.09778C69.1948 9.61947 68.8798 10.3037 68.8798 11.1316C68.8798 11.562 68.9478 11.9443 69.0816 12.2686C69.2162 12.5939 69.4246 12.8803 69.7014 13.1207C69.9761 13.3592 70.4001 13.6089 70.9619 13.8631C71.4343 14.0677 71.7865 14.2407 72.0103 14.3771C72.229 14.5108 72.3843 14.6452 72.4719 14.7761C72.5571 14.9041 72.6003 15.0794 72.6003 15.2957C72.6003 15.9116 72.1621 16.2113 71.2605 16.2113C70.9261 16.2113 70.5446 16.1378 70.1268 15.9929C69.7119 15.8502 69.3203 15.6412 68.9657 15.3732L68.8796 15.3082V17.41L68.9112 17.4254C69.2047 17.568 69.5746 17.6883 70.0107 17.7829C70.4459 17.8776 70.8414 17.9258 71.1849 17.9258C72.2449 17.9258 73.0986 17.6615 73.7215 17.1398C74.3483 16.6145 74.666 15.9141 74.666 15.0575C74.666 14.4396 74.495 13.9097 74.1579 13.4823C73.8231 13.0584 73.242 12.6692 72.4316 12.3253C71.7859 12.0525 71.3723 11.826 71.2016 11.6522C71.0371 11.4842 70.9536 11.2468 70.9536 10.946C70.9536 10.6794 71.0567 10.4658 71.2683 10.2928C71.4816 10.119 71.7785 10.0306 72.1509 10.0306C72.4965 10.0306 72.85 10.0881 73.2016 10.2007C73.5529 10.3133 73.8615 10.4641 74.1191 10.6485L74.2038 10.7095V8.71577L74.1713 8.70107C73.9337 8.59379 73.6203 8.50199 73.2396 8.4275C72.8607 8.3535 72.5171 8.31616 72.2181 8.31616ZM63.4733 16.1406C62.7207 16.1406 62.1271 15.8779 61.7089 15.3603C61.288 14.8402 61.0752 14.0988 61.0752 13.1564C61.0752 12.1843 61.2883 11.4235 61.7094 10.8942C62.1275 10.3683 62.7152 10.1014 63.4567 10.1014C64.1755 10.1014 64.7479 10.3563 65.1581 10.8594C65.5702 11.3652 65.7793 12.1199 65.7793 13.1033C65.7793 14.0988 65.5826 14.8635 65.1947 15.375C64.8096 15.8827 64.2307 16.1406 63.4733 16.1406ZM63.5658 8.31616C62.1293 8.31616 60.9885 8.75911 60.1757 9.63273C59.3629 10.5064 58.9506 11.7155 58.9506 13.2267C58.9506 14.6627 59.3531 15.8166 60.1466 16.6577C60.94 17.4992 62.0197 17.9254 63.3557 17.9254C64.7476 17.9254 65.8658 17.4762 66.6787 16.5905C67.4914 15.7058 67.9034 14.5081 67.9034 13.0322C67.9034 11.5744 67.5168 10.4113 66.7542 9.57575C65.9911 8.73986 64.9183 8.31616 63.5658 8.31616ZM55.8025 10.1246V8.537H53.7539V17.7043H55.8025V13.0149C55.8025 12.2175 55.9743 11.5624 56.3132 11.0676C56.6478 10.5787 57.0937 10.331 57.6381 10.331C57.8226 10.331 58.0298 10.363 58.2541 10.4263C58.4761 10.4893 58.637 10.5577 58.7318 10.6297L58.8179 10.6954V8.52133L58.7847 8.50634C58.5939 8.42102 58.324 8.37797 57.9825 8.37797C57.4677 8.37797 57.007 8.55209 56.6124 8.89492C56.2661 9.19626 56.0157 9.60941 55.8243 10.1246H55.8025ZM50.0852 8.31616C49.1454 8.31616 48.3071 8.5283 47.594 8.94648C46.8795 9.36564 46.327 9.96404 45.951 10.725C45.5767 11.484 45.3866 12.3707 45.3866 13.3596C45.3866 14.2257 45.5709 15.0206 45.9351 15.7212C46.2995 16.4229 46.8152 16.9718 47.4681 17.3526C48.12 17.7329 48.8735 17.9257 49.7077 17.9257C50.6813 17.9257 51.5125 17.7208 52.179 17.3167L52.2059 17.3005V15.3248L52.1198 15.391C51.8179 15.6225 51.4805 15.8072 51.1175 15.9404C50.7555 16.0734 50.4254 16.1406 50.1359 16.1406C49.332 16.1406 48.6867 15.8758 48.2183 15.3539C47.7489 14.8312 47.5109 14.0973 47.5109 13.1737C47.5109 12.2444 47.7591 11.4916 48.2483 10.9361C48.736 10.3823 49.3825 10.1014 50.1697 10.1014C50.843 10.1014 51.4992 10.3414 52.12 10.8154L52.2059 10.8811V8.79945L52.1781 8.783C51.9445 8.64535 51.6259 8.53168 51.2304 8.44549C50.8365 8.35949 50.4513 8.31616 50.0852 8.31616ZM43.9757 8.5371H41.9271V17.7043H43.9757V8.5371ZM42.9724 4.6318C42.6352 4.6318 42.3411 4.75262 42.0995 4.99204C41.8569 5.23214 41.7339 5.53443 41.7339 5.89119C41.7339 6.24234 41.8554 6.53913 42.0957 6.77284C42.3345 7.00588 42.6295 7.12399 42.9725 7.12399C43.3153 7.12399 43.6114 7.00588 43.853 6.77323C44.0962 6.53913 44.2195 6.24244 44.2195 5.89119C44.2195 5.54691 44.0995 5.24771 43.8631 5.00171C43.6268 4.7562 43.327 4.6318 42.9724 4.6318ZM37.861 7.86073V17.7043H39.9517V4.91242H37.0581L33.3801 14.4139L29.8108 4.91242H26.7994V17.7042H28.7641V7.85976H28.8316L32.6006 17.7043H34.0833L37.7935 7.86073H37.861Z" fill="#706D6E"/>
<path d="M10.0791 10.7814H0.441895V0.636968H10.0791V10.7814Z" fill="#F1511B"/>
<path d="M20.7201 10.7813H11.0831V0.636871H20.7201V10.7813Z" fill="#80CC28"/>
<path d="M10.0788 21.987H0.441895V11.8426H10.0788V21.987Z" fill="#00ADEF"/>
<path d="M20.7201 21.987H11.0831V11.8426H20.7201V21.987Z" fill="#FBBC09"/>
</svg>
