<svg width="91" height="27" viewBox="0 0 91 27" fill="none" xmlns="http://www.w3.org/2000/svg">
<path d="M88.2157 15.8982C88.1645 16.1548 88.0748 16.3728 87.9528 16.5651C87.8312 16.7572 87.6708 16.9114 87.466 17.033C87.2669 17.1486 87.0173 17.2124 86.7222 17.2124C86.4338 17.2124 86.1836 17.1549 85.9851 17.033C85.7868 16.917 85.6179 16.7569 85.4913 16.5651C85.3694 16.3729 85.2797 16.1548 85.2221 15.8982C85.1656 15.6436 85.1376 15.3834 85.1387 15.1226C85.1387 14.8534 85.1646 14.584 85.2158 14.3343C85.267 14.0777 85.3567 13.8534 85.4787 13.6611C85.6003 13.462 85.7607 13.3084 85.9656 13.1803C86.1646 13.0584 86.4144 12.9944 86.7093 12.9944C86.9977 12.9944 87.2414 13.0584 87.4401 13.1803C87.6392 13.3035 87.808 13.47 87.9338 13.6674C88.0621 13.866 88.1518 14.0967 88.2094 14.3469C88.2669 14.6033 88.2928 14.8597 88.2928 15.1226C88.2928 15.3855 88.2669 15.6418 88.2157 15.8982ZM89.9211 13.8277C89.7992 13.3982 89.6199 13.0264 89.3762 12.6994C89.1259 12.379 88.8184 12.116 88.4466 11.9238C88.0746 11.7315 87.6261 11.6289 87.1068 11.6289C86.6965 11.6289 86.3245 11.7123 85.9849 11.8726C85.645 12.0329 85.3629 12.2956 85.1449 12.6482H85.1194V11.8084H83.4013V20.7H85.2091V17.5777H85.2346C85.4477 17.8914 85.7396 18.1435 86.081 18.3087C86.4273 18.4753 86.7991 18.5587 87.2092 18.5587C87.6901 18.5587 88.1131 18.4626 88.4786 18.2766C88.8313 18.096 89.1399 17.8399 89.3825 17.5265C89.6262 17.2124 89.8055 16.8533 89.9211 16.4431C90.0431 16.0328 90.1006 15.61 90.1006 15.1674C90.1006 14.6996 90.0431 14.2509 89.9211 13.8212V13.8277ZM81.0039 15.8982C80.9527 16.1548 80.8629 16.3728 80.741 16.5651C80.619 16.7574 80.4589 16.9114 80.2537 17.033C80.0551 17.1486 79.805 17.2124 79.5103 17.2124C79.2216 17.2124 78.9782 17.1549 78.7729 17.033C78.5747 16.9169 78.4057 16.7568 78.2791 16.5651C78.1575 16.3729 78.0678 16.1548 78.0103 15.8982C77.9536 15.6436 77.9256 15.3834 77.9269 15.1226C77.9269 14.8534 77.9524 14.584 78.0036 14.3343C78.0551 14.0777 78.1445 13.8534 78.2665 13.6611C78.3884 13.462 78.5485 13.3084 78.7537 13.1803C78.9523 13.0584 79.2024 12.9944 79.4971 12.9944C79.7859 12.9944 80.0292 13.0584 80.2282 13.1803C80.4273 13.3035 80.5959 13.47 80.7216 13.6674C80.8499 13.866 80.9396 14.0967 80.9975 14.3469C81.0551 14.6033 81.0806 14.8597 81.0806 15.1226C81.0806 15.3855 81.0551 15.6418 81.0039 15.8982ZM82.1639 12.6994C81.9204 12.379 81.6063 12.116 81.2345 11.9238C80.8627 11.7315 80.414 11.6289 79.8946 11.6289C79.4843 11.6289 79.1126 11.7123 78.7727 11.8726C78.4331 12.0329 78.151 12.2956 77.933 12.6482H77.9071V11.8084H76.1891V20.7H77.9969V17.5777H78.0228C78.2359 17.8914 78.5277 18.1435 78.8691 18.3087C79.215 18.4753 79.5869 18.5587 79.997 18.5587C80.4842 18.5587 80.9009 18.4626 81.2667 18.2766C81.6193 18.0959 81.9277 17.8398 82.1703 17.5265C82.4142 17.2124 82.5936 16.8533 82.7156 16.4431C82.8339 16.0282 82.8943 15.5989 82.8951 15.1674C82.8951 14.6996 82.8372 14.2509 82.7156 13.8212C82.5936 13.3918 82.4142 13.0199 82.1639 12.6931V12.6994ZM70.2656 14.879L71.4516 11.539H71.4772L72.6248 14.879H70.2656ZM70.4579 9.29534L67.0154 18.3919H69.0284L69.7402 16.3663H73.1441L73.83 18.3919H75.907L72.5031 9.29534H70.4516H70.4579ZM66.868 15.5072C66.746 15.3021 66.5923 15.1226 66.3936 14.9816C66.2013 14.8407 65.9768 14.7314 65.7267 14.6419C65.4734 14.5586 65.2168 14.486 64.9574 14.424C64.701 14.3661 64.451 14.3084 64.2073 14.2572C63.9636 14.206 63.7393 14.1481 63.5534 14.0841C63.3613 14.02 63.2073 13.9368 63.0919 13.834C62.97 13.7314 62.9124 13.6033 62.9124 13.4367C62.9124 13.3021 62.9445 13.193 63.0148 13.1096C63.0854 13.0264 63.1688 12.9687 63.2649 12.9238C63.3611 12.8789 63.47 12.8532 63.592 12.8406C63.7027 12.8283 63.8139 12.8219 63.9252 12.8214C64.2458 12.8214 64.5279 12.8854 64.7653 13.0072C65.0025 13.129 65.1371 13.3662 65.1563 13.7123H66.8743C66.8421 13.3019 66.7334 12.9687 66.5602 12.6993C66.3871 12.4299 66.1693 12.2185 65.9064 12.0582C65.6435 11.8979 65.3422 11.7827 65.0088 11.7121C64.6755 11.6416 64.3293 11.6096 63.9703 11.6096C63.6115 11.6096 63.2652 11.6418 62.9255 11.7056C62.5857 11.7697 62.2781 11.8788 62.0089 12.0391C61.7333 12.1994 61.5151 12.411 61.355 12.6801C61.1882 12.9493 61.105 13.3021 61.105 13.7249C61.105 14.0135 61.1625 14.257 61.2845 14.4557C61.3999 14.6547 61.56 14.8212 61.7523 14.9558C61.9512 15.084 62.1692 15.1931 62.4192 15.2764C62.6693 15.3596 62.9256 15.4303 63.1885 15.4879C63.8361 15.6225 64.3361 15.7571 64.7014 15.8917C65.0604 16.0263 65.24 16.2315 65.24 16.5007C65.24 16.661 65.2015 16.7956 65.1246 16.9045C65.0493 17.0109 64.9506 17.0987 64.836 17.1609C64.7206 17.2249 64.5923 17.27 64.4514 17.3018C64.3189 17.332 64.1834 17.347 64.0476 17.3467C63.8681 17.3467 63.6949 17.3277 63.5346 17.2826C63.368 17.2378 63.2205 17.1734 63.0924 17.0838C62.9642 16.9941 62.8616 16.8786 62.7784 16.7377C62.695 16.5968 62.6564 16.4299 62.6564 16.2376H60.9384C60.9575 16.6798 61.054 17.0453 61.2398 17.3402C61.4193 17.6353 61.6564 17.8659 61.9385 18.0454C62.2206 18.2249 62.5475 18.353 62.913 18.4299C63.2784 18.507 63.6501 18.5455 64.0347 18.5455C64.4067 18.5455 64.7783 18.507 65.1374 18.4362C65.4964 18.3658 65.817 18.2376 66.0991 18.0581C66.3811 17.8786 66.6055 17.6414 66.7786 17.3528C66.9516 17.0581 67.0413 16.6992 67.0413 16.2631C67.0413 15.9556 66.9838 15.6992 66.8618 15.4938L66.868 15.5072ZM59.3866 9.83395H57.5788V11.8084H56.4824V13.0199H57.5788V16.9049C57.5788 17.2383 57.6363 17.5012 57.7454 17.7062C57.8545 17.9115 58.0083 18.0651 58.2006 18.1807C58.3929 18.2897 58.6111 18.3666 58.861 18.4051C59.1241 18.4443 59.3899 18.4635 59.656 18.4626C59.8354 18.4626 60.0149 18.4563 60.2072 18.45C60.377 18.4442 60.5462 18.4271 60.7136 18.3986V16.9946C60.6251 17.0146 60.5352 17.0274 60.4446 17.033C60.3465 17.0406 60.2481 17.0449 60.1497 17.0458C59.8419 17.0458 59.6431 16.9946 59.5407 16.8918C59.4381 16.7894 59.3867 16.5841 59.3867 16.283V13.0199H60.7136V11.8084H59.3867L59.3866 9.83395ZM54.2002 15.847C54.2002 15.9494 54.1875 16.0842 54.1681 16.2573C54.1465 16.4344 54.0875 16.6049 53.995 16.7574C53.8989 16.9242 53.7578 17.0652 53.5591 17.1871C53.367 17.3087 53.0848 17.3666 52.7323 17.3666C52.5912 17.3666 52.4501 17.3536 52.3091 17.3281C52.1745 17.3022 52.0528 17.2573 51.9502 17.1934C51.8476 17.1292 51.7707 17.046 51.7065 16.9306C51.6489 16.8216 51.6167 16.687 51.6167 16.5202C51.6167 16.3471 51.6489 16.2125 51.7065 16.0972C51.7642 15.9879 51.8474 15.8982 51.9438 15.8215C52.0399 15.7509 52.1553 15.6934 52.29 15.6485C52.4246 15.6037 52.5528 15.5715 52.6938 15.5458C52.8385 15.5209 52.9838 15.4995 53.1296 15.4817C53.2771 15.4625 53.4119 15.4432 53.5465 15.4177C53.6811 15.3922 53.8029 15.3599 53.9183 15.3216C54.0337 15.2832 54.1298 15.2319 54.2069 15.1613V15.8345L54.2002 15.847ZM56.008 16.9304V13.5006C56.008 13.1033 55.9182 12.7827 55.7389 12.5391C55.5595 12.2954 55.3284 12.1096 55.0529 11.975C54.7708 11.8404 54.463 11.7507 54.1233 11.6995C53.7897 11.6539 53.4536 11.6303 53.117 11.6289C52.7513 11.6289 52.386 11.6674 52.0271 11.738C51.6683 11.8086 51.3412 11.9302 51.0526 12.1035C50.7685 12.2725 50.5255 12.5024 50.341 12.7767C50.1552 13.0588 50.0461 13.4112 50.0206 13.8344H51.8284C51.8604 13.4756 51.9822 13.2256 52.1872 13.0716C52.3925 12.9176 52.6681 12.8409 53.0272 12.8409C53.1875 12.8409 53.3411 12.8536 53.4824 12.873C53.6137 12.8902 53.7402 12.9338 53.8542 13.0012C53.9633 13.0653 54.0466 13.155 54.1108 13.2704C54.1748 13.3859 54.2069 13.5395 54.2069 13.7383C54.2132 13.9241 54.162 14.0654 54.04 14.1678C53.9183 14.2639 53.758 14.341 53.553 14.3922C53.348 14.4434 53.1171 14.4819 52.8543 14.5076C52.5914 14.5333 52.3222 14.5653 52.0529 14.6102C51.7837 14.6551 51.5143 14.7126 51.2451 14.7832C50.9759 14.8537 50.7385 14.9626 50.5334 15.1103C50.3218 15.2575 50.1552 15.4499 50.0206 15.6871C49.886 15.9308 49.8218 16.2385 49.8218 16.6103C49.8218 16.9501 49.8793 17.245 49.9949 17.4885C50.1031 17.726 50.2656 17.9346 50.4693 18.0977C50.681 18.2623 50.9227 18.3842 51.1809 18.4567C51.4501 18.5336 51.745 18.5719 52.0591 18.5719C52.4694 18.5719 52.8669 18.5144 53.2579 18.3924C53.6446 18.2744 53.9953 18.0606 54.2772 17.7708C54.2836 17.8797 54.3029 17.9884 54.3221 18.0977C54.3413 18.2001 54.3733 18.3092 54.4055 18.4118H56.239C56.1556 18.2772 56.0916 18.0718 56.0595 17.8026C56.0256 17.5197 56.0084 17.235 56.0081 16.9501L56.008 16.9304ZM48.5589 12.3788C48.3794 12.1482 48.1357 11.9622 47.8282 11.8339C47.5204 11.6993 47.1231 11.6351 46.6357 11.6351C46.2959 11.6351 45.9498 11.7248 45.5908 11.8979C45.2319 12.0711 44.9433 12.3532 44.7126 12.7313H44.6741V9.30167H42.8663V18.3984H44.6741V14.9431C44.6741 14.2699 44.7832 13.7892 45.0075 13.4942C45.2256 13.1993 45.5845 13.0584 46.0781 13.0584C46.5076 13.0584 46.8153 13.193 46.982 13.462C47.1488 13.7313 47.2385 14.1353 47.2385 14.68V18.3984H49.0463V14.3469C49.0463 13.9366 49.0078 13.565 48.9372 13.2315C48.8667 12.8981 48.7384 12.6097 48.5589 12.3788ZM39.0005 15.5715H38.9748L37.4235 9.30185H35.5515L33.9744 15.4946H33.9487L32.5062 9.30185H30.5062L32.9165 18.3986H34.9423L36.4552 12.2057H36.4809L38.0195 18.3986H40.0068L41.0965 14.3598L42.4556 9.30185H40.4938L39.0005 15.5715Z" fill="#272525"/>
<path d="M13.5504 23.8736C11.3386 23.8736 9.27439 23.2069 7.55 22.0723L3.35724 23.4119L4.71635 19.3604C3.40862 17.5653 2.63951 15.3537 2.63951 12.9689C2.63951 6.95567 7.53082 2.06436 13.544 2.06436C19.5573 2.06436 24.4486 6.95567 24.4486 12.9689C24.4486 18.9819 19.5573 23.8734 13.544 23.8734L13.5504 23.8736ZM13.5504 0C6.38936 0 0.581485 5.80842 0.581485 12.9691C0.581485 15.4179 1.26104 17.7129 2.44049 19.6682L0.100586 26.6239L7.28078 24.3225C9.19994 25.3837 11.3574 25.9396 13.5504 25.938C20.7112 25.938 26.5193 20.1299 26.5193 12.9691C26.5191 5.80842 20.7112 0 13.5504 0Z" fill="#FEFEFE"/>
<path d="M13.55 2.06407C7.53678 2.06407 2.64547 6.95538 2.64547 12.9686C2.64547 15.3534 3.41476 17.565 4.72249 19.3601L3.36338 23.4116L7.55596 22.072C9.28036 23.2131 11.3382 23.8733 13.5563 23.8733C19.5696 23.8733 24.4609 18.9818 24.4609 12.9688C24.4609 6.95556 19.5696 2.06425 13.5563 2.06425L13.55 2.06407Z" fill="#00E676"/>
<path d="M10.5052 7.60322C10.2937 7.09681 10.1334 7.07763 9.81297 7.0646C9.6913 7.05677 9.56942 7.05254 9.4475 7.05194C9.03065 7.05194 8.5948 7.1737 8.33192 7.44292C8.0115 7.76985 7.21651 8.53263 7.21651 10.0969C7.21651 11.6612 8.35761 13.1741 8.51139 13.3858C8.67169 13.5971 10.736 16.8537 13.9413 18.181C16.4479 19.2195 17.1916 19.1233 17.7621 19.0015C18.5954 18.822 19.6405 18.2063 19.9033 17.4629C20.1662 16.7191 20.1662 16.0844 20.0892 15.9498C20.0123 15.8152 19.8006 15.7385 19.4802 15.578C19.1597 15.4177 17.6018 14.6484 17.3069 14.5459C17.0183 14.4369 16.7428 14.4755 16.5249 14.7832C16.2172 15.2127 15.9159 15.6488 15.6722 15.9115C15.4799 16.1166 15.1656 16.1423 14.9029 16.0332C14.5503 15.886 13.5632 15.5395 12.345 14.4561C11.4026 13.6164 10.7616 12.5716 10.5758 12.2575C10.3898 11.9371 10.5566 11.7509 10.7038 11.578C10.8641 11.3791 11.0179 11.2382 11.1782 11.0522C11.3385 10.8664 11.4283 10.7701 11.5309 10.5521C11.64 10.3406 11.5629 10.1226 11.486 9.9623C11.4091 9.802 10.7681 8.23772 10.5052 7.60322Z" fill="#FEFEFE"/>
</svg>
