<svg width="44" height="44" viewBox="0 0 44 44" fill="none" xmlns="http://www.w3.org/2000/svg">
<path d="M1 8C1 4.13401 4.13401 1 8 1H36C39.866 1 43 4.13401 43 8V36C43 39.866 39.866 43 36 43H8C4.13401 43 1 39.866 1 36V8Z" fill="#07A6F0"/>
<path d="M21.5843 14.5V21.5833H14.501V14.5H21.5843ZM21.5843 29.5H14.501V22.4167H21.5843V29.5ZM22.4176 14.5H29.501V21.5833H22.4176V14.5ZM29.501 22.4167V29.5H22.4176V22.4167H29.501Z" fill="white"/>
<path d="M1 8C1 4.13401 4.13401 1 8 1H36C39.866 1 43 4.13401 43 8V36C43 39.866 39.866 43 36 43H8C4.13401 43 1 39.866 1 36V8Z" stroke="#07A6F0" stroke-width="2"/>
</svg>
