<svg width="65" height="82" viewBox="0 0 65 82" fill="none" xmlns="http://www.w3.org/2000/svg">
<path d="M31.3465 28.7616H0.929688V0.384065H31.3465V28.7616Z" fill="#F1511B"/>
<path d="M64.9297 28.7615H34.5134V0.384033H64.9297V28.7615Z" fill="#80CC28"/>
<path d="M31.3457 60.104H0.929688V31.7267H31.3457V60.104Z" fill="#07A6F0"/>
<path d="M64.9297 60.104H34.5134V31.7267H64.9297V60.104Z" fill="#FBBC09"/>
<path d="M7.14469 79.104V70.464H7.95469L11.3507 77.73L14.7287 70.464H15.5507V79.098H14.7107V72.432L11.6327 79.104H11.0627L7.99069 72.432V79.104H7.14469ZM17.3545 71.394V70.404H18.2365V71.394H17.3545ZM17.3545 79.104V72.624H18.2365V79.104H17.3545ZM22.7233 79.284C22.0713 79.284 21.5193 79.138 21.0673 78.846C20.6153 78.554 20.2713 78.152 20.0353 77.64C19.8033 77.124 19.6833 76.532 19.6753 75.864C19.6833 75.184 19.8073 74.588 20.0473 74.076C20.2873 73.56 20.6333 73.16 21.0853 72.876C21.5373 72.588 22.0853 72.444 22.7293 72.444C23.3853 72.444 23.9553 72.604 24.4393 72.924C24.9273 73.244 25.2613 73.682 25.4413 74.238L24.5773 74.514C24.4253 74.126 24.1833 73.826 23.8513 73.614C23.5233 73.398 23.1473 73.29 22.7233 73.29C22.2473 73.29 21.8533 73.4 21.5413 73.62C21.2293 73.836 20.9973 74.138 20.8453 74.526C20.6933 74.914 20.6153 75.36 20.6113 75.864C20.6193 76.64 20.7993 77.264 21.1513 77.736C21.5033 78.204 22.0273 78.438 22.7233 78.438C23.1633 78.438 23.5373 78.338 23.8453 78.138C24.1573 77.934 24.3933 77.638 24.5533 77.25L25.4413 77.514C25.2013 78.09 24.8493 78.53 24.3853 78.834C23.9213 79.134 23.3673 79.284 22.7233 79.284ZM26.6798 79.104V72.624H27.4718V74.184L27.3158 73.98C27.3878 73.788 27.4818 73.612 27.5978 73.452C27.7138 73.288 27.8398 73.154 27.9758 73.05C28.1438 72.902 28.3398 72.79 28.5638 72.714C28.7878 72.634 29.0138 72.588 29.2418 72.576C29.4698 72.56 29.6778 72.576 29.8658 72.624V73.452C29.6298 73.392 29.3718 73.378 29.0918 73.41C28.8118 73.442 28.5538 73.554 28.3178 73.746C28.1018 73.914 27.9398 74.116 27.8318 74.352C27.7238 74.584 27.6518 74.832 27.6158 75.096C27.5798 75.356 27.5618 75.614 27.5618 75.87V79.104H26.6798ZM33.5929 79.284C32.9489 79.284 32.3989 79.138 31.9429 78.846C31.4869 78.554 31.1369 78.15 30.8929 77.634C30.6489 77.118 30.5269 76.526 30.5269 75.858C30.5269 75.178 30.6509 74.582 30.8989 74.07C31.1469 73.558 31.4989 73.16 31.9549 72.876C32.4149 72.588 32.9609 72.444 33.5929 72.444C34.2409 72.444 34.7929 72.59 35.2489 72.882C35.7089 73.17 36.0589 73.572 36.2989 74.088C36.5429 74.6 36.6649 75.19 36.6649 75.858C36.6649 76.538 36.5429 77.136 36.2989 77.652C36.0549 78.164 35.7029 78.564 35.2429 78.852C34.7829 79.14 34.2329 79.284 33.5929 79.284ZM33.5929 78.438C34.3129 78.438 34.8489 78.2 35.2009 77.724C35.5529 77.244 35.7289 76.622 35.7289 75.858C35.7289 75.074 35.5509 74.45 35.1949 73.986C34.8429 73.522 34.3089 73.29 33.5929 73.29C33.1089 73.29 32.7089 73.4 32.3929 73.62C32.0809 73.836 31.8469 74.138 31.6909 74.526C31.5389 74.91 31.4629 75.354 31.4629 75.858C31.4629 76.638 31.6429 77.264 32.0029 77.736C32.3629 78.204 32.8929 78.438 33.5929 78.438ZM40.3478 79.278C39.5878 79.278 38.9618 79.114 38.4698 78.786C37.9818 78.458 37.6818 78.002 37.5698 77.418L38.4698 77.268C38.5658 77.636 38.7838 77.93 39.1238 78.15C39.4678 78.366 39.8918 78.474 40.3958 78.474C40.8878 78.474 41.2758 78.372 41.5598 78.168C41.8438 77.96 41.9858 77.678 41.9858 77.322C41.9858 77.122 41.9398 76.96 41.8478 76.836C41.7598 76.708 41.5778 76.59 41.3018 76.482C41.0258 76.374 40.6138 76.246 40.0658 76.098C39.4778 75.938 39.0178 75.778 38.6858 75.618C38.3538 75.458 38.1178 75.274 37.9778 75.066C37.8378 74.854 37.7678 74.596 37.7678 74.292C37.7678 73.924 37.8718 73.602 38.0798 73.326C38.2878 73.046 38.5758 72.83 38.9438 72.678C39.3118 72.522 39.7398 72.444 40.2278 72.444C40.7158 72.444 41.1518 72.524 41.5358 72.684C41.9238 72.84 42.2358 73.06 42.4718 73.344C42.7078 73.628 42.8478 73.958 42.8918 74.334L41.9918 74.496C41.9318 74.116 41.7418 73.816 41.4218 73.596C41.1058 73.372 40.7038 73.256 40.2158 73.248C39.7558 73.236 39.3818 73.324 39.0938 73.512C38.8058 73.696 38.6618 73.942 38.6618 74.25C38.6618 74.422 38.7138 74.57 38.8178 74.694C38.9218 74.814 39.1098 74.928 39.3818 75.036C39.6578 75.144 40.0498 75.262 40.5578 75.39C41.1538 75.542 41.6218 75.702 41.9618 75.87C42.3018 76.038 42.5438 76.236 42.6878 76.464C42.8318 76.692 42.9038 76.974 42.9038 77.31C42.9038 77.922 42.6758 78.404 42.2198 78.756C41.7678 79.104 41.1438 79.278 40.3478 79.278ZM46.9405 79.284C46.2965 79.284 45.7465 79.138 45.2905 78.846C44.8345 78.554 44.4845 78.15 44.2405 77.634C43.9965 77.118 43.8745 76.526 43.8745 75.858C43.8745 75.178 43.9985 74.582 44.2465 74.07C44.4945 73.558 44.8465 73.16 45.3025 72.876C45.7625 72.588 46.3085 72.444 46.9405 72.444C47.5885 72.444 48.1405 72.59 48.5965 72.882C49.0565 73.17 49.4065 73.572 49.6465 74.088C49.8905 74.6 50.0125 75.19 50.0125 75.858C50.0125 76.538 49.8905 77.136 49.6465 77.652C49.4025 78.164 49.0505 78.564 48.5905 78.852C48.1305 79.14 47.5805 79.284 46.9405 79.284ZM46.9405 78.438C47.6605 78.438 48.1965 78.2 48.5485 77.724C48.9005 77.244 49.0765 76.622 49.0765 75.858C49.0765 75.074 48.8985 74.45 48.5425 73.986C48.1905 73.522 47.6565 73.29 46.9405 73.29C46.4565 73.29 46.0565 73.4 45.7405 73.62C45.4285 73.836 45.1945 74.138 45.0385 74.526C44.8865 74.91 44.8105 75.354 44.8105 75.858C44.8105 76.638 44.9905 77.264 45.3505 77.736C45.7105 78.204 46.2405 78.438 46.9405 78.438ZM51.9781 79.104V72.144C51.9781 71.976 51.9861 71.81 52.0021 71.646C52.0221 71.482 52.0601 71.326 52.1161 71.178C52.1721 71.026 52.2601 70.886 52.3801 70.758C52.5121 70.614 52.6561 70.51 52.8121 70.446C52.9681 70.378 53.1301 70.334 53.2981 70.314C53.4701 70.294 53.6381 70.284 53.8021 70.284H54.6301V71.028H53.8621C53.5261 71.028 53.2741 71.11 53.1061 71.274C52.9421 71.438 52.8601 71.696 52.8601 72.048V79.104H51.9781ZM50.8561 73.38V72.624H54.6301V73.38H50.8561ZM59.118 79.104C58.754 79.18 58.394 79.21 58.038 79.194C57.686 79.178 57.37 79.102 57.09 78.966C56.814 78.83 56.604 78.618 56.46 78.33C56.344 78.09 56.28 77.848 56.268 77.604C56.26 77.356 56.256 77.074 56.256 76.758V70.824H57.132V76.722C57.132 76.994 57.134 77.222 57.138 77.406C57.146 77.586 57.188 77.746 57.264 77.886C57.408 78.154 57.636 78.314 57.948 78.366C58.264 78.418 58.654 78.406 59.118 78.33V79.104ZM54.87 73.38V72.624H59.118V73.38H54.87Z" fill="#38424E"/>
</svg>
