<svg width="10" height="6" viewBox="0 0 10 6" fill="none" xmlns="http://www.w3.org/2000/svg">
<path d="M9.1038 0.391914C8.95317 0.241914 8.74567 0.149414 8.5163 0.149414C8.28692 0.149414 8.07942 0.241914 7.9288 0.391914L4.93692 3.34191L1.98692 0.391914C1.8363 0.241914 1.6288 0.149414 1.39942 0.149414C1.17005 0.149414 0.962549 0.241914 0.811924 0.391914C0.659424 0.543164 0.565674 0.752539 0.565674 0.983789C0.565674 1.21504 0.660049 1.42441 0.811924 1.57566L4.34505 5.10879C4.4963 5.26129 4.70567 5.35504 4.93692 5.35504C5.16817 5.35504 5.37755 5.26066 5.5288 5.10879L9.1038 1.57566C9.2563 1.42441 9.35005 1.21504 9.35005 0.983789C9.35005 0.752539 9.25567 0.543164 9.1038 0.391914Z" fill="#667085"/>
</svg>
