<svg width="41" height="40" viewBox="0 0 41 40" fill="none" xmlns="http://www.w3.org/2000/svg">
<g clip-path="url(#clip0_2126_6428)">
<path d="M35.5 0H5.5C2.73858 0 0.5 2.23858 0.5 5V35C0.5 37.7614 2.73858 40 5.5 40H35.5C38.2614 40 40.5 37.7614 40.5 35V5C40.5 2.23858 38.2614 0 35.5 0Z" fill="#6D98CA"/>
<path d="M31.0243 26.71C29.6643 26.675 28.6093 26.81 27.7243 27.185C27.4693 27.285 27.0643 27.285 27.0293 27.61C27.1693 27.745 27.1843 27.965 27.3043 28.155C27.5093 28.495 27.8643 28.95 28.1893 29.19C28.5443 29.465 28.9043 29.735 29.2793 29.97C29.9393 30.38 30.6893 30.615 31.3343 31.025C31.7093 31.26 32.0843 31.57 32.4593 31.825C32.6443 31.96 32.7643 32.18 33.0043 32.265V32.215C32.8843 32.06 32.8493 31.84 32.7343 31.67L32.2243 31.18C31.7293 30.515 31.1193 29.94 30.4543 29.465C29.9093 29.09 28.7193 28.58 28.4993 27.955L28.4643 27.92C28.8393 27.885 29.2843 27.75 29.6393 27.645C30.2193 27.495 30.7443 27.525 31.3393 27.375C31.6143 27.305 31.8843 27.22 32.1593 27.135V26.98C31.8493 26.675 31.6343 26.265 31.3093 25.975C30.4443 25.225 29.4893 24.495 28.5043 23.885C27.9743 23.545 27.2993 23.325 26.7343 23.035C26.5293 22.935 26.1893 22.88 26.0693 22.71C25.7643 22.335 25.5943 21.845 25.3693 21.4C24.8793 20.465 24.3993 19.43 23.9743 18.44C23.6693 17.775 23.4793 17.115 23.1093 16.5C21.3593 13.61 19.4543 11.86 16.5293 10.14C15.8993 9.77999 15.1543 9.62999 14.3543 9.43999L13.0793 9.37499C12.8093 9.25499 12.5343 8.92999 12.2993 8.77999C11.3293 8.16999 8.82931 6.83999 8.11931 8.59499C7.65931 9.69999 8.7993 10.79 9.1893 11.35C9.4793 11.74 9.85431 12.185 10.0543 12.625C10.1743 12.915 10.2093 13.22 10.3293 13.525C10.5993 14.275 10.8543 15.105 11.2143 15.805C11.3993 16.16 11.6043 16.535 11.8443 16.855C11.9793 17.045 12.2193 17.125 12.2693 17.435C12.0343 17.775 12.0143 18.285 11.8793 18.71C11.2693 20.63 11.5043 23.01 12.3743 24.425C12.6443 24.85 13.2943 25.785 14.1593 25.425C14.9243 25.12 14.7543 24.15 14.9743 23.3C15.0243 23.095 14.9893 22.96 15.0943 22.825V22.86C15.3293 23.335 15.5693 23.795 15.7893 24.27C16.3193 25.1 17.2343 25.97 17.9993 26.545C18.4043 26.855 18.7293 27.38 19.2393 27.565V27.515H19.2043C19.0993 27.365 18.9493 27.295 18.8143 27.175C18.5093 26.87 18.1693 26.495 17.9293 26.155C17.2143 25.2 16.5843 24.15 16.0243 23.06C15.7493 22.53 15.5143 21.955 15.2943 21.43C15.1893 21.225 15.1893 20.92 15.0193 20.815C14.7643 21.19 14.3893 21.51 14.2043 21.97C13.8793 22.7 13.8493 23.605 13.7293 24.54L13.6643 24.575C13.1243 24.44 12.9343 23.88 12.7293 23.405C12.2193 22.195 12.1343 20.26 12.5743 18.865C12.6943 18.51 13.2043 17.385 12.9993 17.045C12.8993 16.72 12.5543 16.535 12.3693 16.28C12.1493 15.96 11.9093 15.55 11.7543 15.19C11.3443 14.24 11.1393 13.185 10.7043 12.23C10.4993 11.785 10.1443 11.33 9.8543 10.92C9.5293 10.46 9.17431 10.14 8.91931 9.59499C8.83431 9.40999 8.7143 9.09999 8.8543 8.89999C8.8893 8.76499 8.95431 8.70999 9.09431 8.67999C9.31431 8.49499 9.94431 8.72999 10.1643 8.83499C10.7943 9.08999 11.3193 9.32999 11.8493 9.68499C12.0893 9.85499 12.3443 10.18 12.6493 10.265H13.0093C13.5543 10.385 14.1643 10.3 14.6743 10.45C15.5743 10.74 16.3893 11.165 17.1243 11.62C19.3493 13.03 21.1893 15.04 22.4293 17.435C22.6343 17.825 22.7193 18.185 22.9043 18.59C23.2643 19.425 23.7043 20.275 24.0593 21.09C24.4143 21.89 24.7593 22.705 25.2693 23.37C25.5243 23.725 26.5443 23.915 27.0043 24.1C27.3443 24.25 27.8693 24.39 28.1793 24.575C28.7593 24.93 29.3343 25.34 29.8793 25.73C30.1493 25.935 30.9993 26.36 31.0493 26.7M13.6793 11.935C13.4443 11.935 13.2093 11.96 12.9843 12.02V12.055H13.0193C13.1543 12.325 13.3943 12.515 13.5643 12.75C13.6993 13.025 13.8193 13.295 13.9543 13.565L13.9893 13.53C14.2293 13.36 14.3493 13.09 14.3493 12.68C14.2443 12.56 14.2293 12.44 14.1443 12.325C14.0443 12.155 13.8243 12.07 13.6843 11.935" fill="white"/>
</g>
<defs>
<clipPath id="clip0_2126_6428">
<rect width="40" height="40" fill="white" transform="translate(0.5)"/>
</clipPath>
</defs>
</svg>
