<svg width="59" height="59" viewBox="0 0 59 59" fill="none" xmlns="http://www.w3.org/2000/svg">
<path d="M15.572 41.48C7.94 41.48 3.38 35.816 3.38 25.16C3.38 14.504 7.94 8.84 15.572 8.84C23.204 8.84 27.812 14.504 27.812 25.16C27.812 35.816 23.204 41.48 15.572 41.48ZM15.572 37.112C20.18 37.112 22.58 33.128 22.58 25.16C22.58 17.192 20.18 13.208 15.572 13.208C10.964 13.208 8.612 17.192 8.612 25.16C8.612 33.128 10.964 37.112 15.572 37.112ZM44.3229 41.48C38.7069 41.48 35.2029 38.984 33.0909 34.376L37.8909 31.88C38.8029 35 40.5789 37.112 44.4189 37.112C48.4029 37.112 50.8509 34.808 50.8029 30.968C50.7549 26.984 48.5949 24.872 44.6589 24.872C41.8269 24.872 39.5709 25.736 38.2269 27.608L34.0029 26.792L35.9229 9.32H54.3549V13.736H40.0029L38.8509 22.664L38.7549 23.192H38.8509C40.2909 21.608 42.6429 20.648 45.8589 20.648C51.9549 20.648 55.8429 24.728 55.8429 30.68C55.8429 37.64 50.8989 41.48 44.3229 41.48Z" fill="#45C4A0"/>
<rect x="0.5" y="49" width="58" height="10" fill="#B5E7D9"/>
</svg>
