<svg width="61" height="59" viewBox="0 0 61 59" fill="none" xmlns="http://www.w3.org/2000/svg">
<path d="M15.572 41.48C7.94 41.48 3.38 35.816 3.38 25.16C3.38 14.504 7.94 8.84 15.572 8.84C23.204 8.84 27.812 14.504 27.812 25.16C27.812 35.816 23.204 41.48 15.572 41.48ZM15.572 37.112C20.18 37.112 22.58 33.128 22.58 25.16C22.58 17.192 20.18 13.208 15.572 13.208C10.964 13.208 8.612 17.192 8.612 25.16C8.612 33.128 10.964 37.112 15.572 37.112ZM46.4326 8.84C51.4726 8.84 54.8806 10.76 56.8006 15.608L52.2886 17.768C51.4246 14.984 49.5526 13.304 46.0966 13.304C41.1046 13.304 38.2726 18.488 38.2726 25.496V26.36L38.4646 26.456C39.5206 22.712 43.5046 21.032 46.8646 21.032C53.1526 21.032 57.3766 24.92 57.3766 31.112C57.3766 37.448 53.0086 41.48 46.1926 41.48C38.1766 41.48 33.5206 35.048 33.5206 25.256C33.5206 14.456 39.1366 8.84 46.4326 8.84ZM46.0966 25.304C42.4486 25.304 39.9046 27.656 39.9046 31.112C39.9046 34.424 42.5926 37.064 46.0966 37.064C50.0326 37.064 52.2886 34.856 52.2886 31.112C52.2886 27.512 50.0326 25.304 46.0966 25.304Z" fill="#E668B3"/>
<rect x="0.5" y="49" width="60" height="10" fill="#F5C3E1"/>
</svg>
