<svg width="58" height="59" viewBox="0 0 58 59" fill="none" xmlns="http://www.w3.org/2000/svg">
<path d="M15.572 41.48C7.94 41.48 3.38 35.816 3.38 25.16C3.38 14.504 7.94 8.84 15.572 8.84C23.204 8.84 27.812 14.504 27.812 25.16C27.812 35.816 23.204 41.48 15.572 41.48ZM15.572 37.112C20.18 37.112 22.58 33.128 22.58 25.16C22.58 17.192 20.18 13.208 15.572 13.208C10.964 13.208 8.612 17.192 8.612 25.16C8.612 33.128 10.964 37.112 15.572 37.112ZM31.3865 9.32H55.5305V13.592C47.5625 21.8 44.4905 30.584 44.4905 41H39.3065C39.3065 30.968 42.8105 21.656 50.2505 13.784H31.3865V9.32Z" fill="#5EB9F0"/>
<rect x="0.5" y="49" width="57" height="10" fill="#BFE3F9"/>
</svg>
