<svg width="59" height="59" viewBox="0 0 59 59" fill="none" xmlns="http://www.w3.org/2000/svg">
<path d="M15.572 41.48C7.94 41.48 3.38 35.816 3.38 25.16C3.38 14.504 7.94 8.84 15.572 8.84C23.204 8.84 27.812 14.504 27.812 25.16C27.812 35.816 23.204 41.48 15.572 41.48ZM15.572 37.112C20.18 37.112 22.58 33.128 22.58 25.16C22.58 17.192 20.18 13.208 15.572 13.208C10.964 13.208 8.612 17.192 8.612 25.16C8.612 33.128 10.964 37.112 15.572 37.112ZM43.9546 41.48C37.9546 41.48 33.3466 38.696 31.7146 33.896L36.7066 31.544C37.6186 35.048 39.7786 37.064 44.1466 37.064C47.8426 37.064 50.0026 34.904 50.0026 31.736C50.0026 28.616 48.2266 27.128 44.2906 27.128C43.5226 27.128 42.7546 27.176 41.8426 27.272V22.952C42.4186 23 42.9466 23.048 43.4746 23.048C47.6026 23.048 49.2826 21.416 49.2826 17.912C49.2826 14.888 47.3626 13.256 44.0026 13.256C40.4506 13.256 38.6746 14.984 37.6666 18.008L32.9626 16.04C34.3066 11.672 38.6266 8.792 44.2426 8.792C51.0106 8.792 54.4666 12.488 54.4666 17.192C54.4666 22.04 51.2986 24.536 48.5146 24.968V25.064C52.1146 25.16 55.1866 27.896 55.1866 31.88C55.1866 37.64 50.5786 41.48 43.9546 41.48Z" fill="#FE626B"/>
<rect x="0.5" y="49" width="58" height="10" fill="#FFADB2"/>
</svg>
