<svg width="60" height="59" viewBox="0 0 60 59" fill="none" xmlns="http://www.w3.org/2000/svg">
<path d="M15.572 41.48C7.94 41.48 3.38 35.816 3.38 25.16C3.38 14.504 7.94 8.84 15.572 8.84C23.204 8.84 27.812 14.504 27.812 25.16C27.812 35.816 23.204 41.48 15.572 41.48ZM15.572 37.112C20.18 37.112 22.58 33.128 22.58 25.16C22.58 17.192 20.18 13.208 15.572 13.208C10.964 13.208 8.612 17.192 8.612 25.16C8.612 33.128 10.964 37.112 15.572 37.112ZM34.0006 41V37.208C46.1446 28.664 50.1766 24.296 50.1766 19.016C50.1766 15.656 47.9206 13.304 44.1766 13.304C40.1926 13.304 37.7926 16.136 37.4566 20.744L32.9926 18.68C33.6166 12.68 37.7926 8.84 44.4646 8.84C51.4726 8.84 55.4566 13.256 55.4566 18.824C55.4566 24.872 51.3286 29.96 40.8166 36.68V36.776C42.0166 36.68 44.7526 36.584 46.0486 36.584H56.0326V41H34.0006Z" fill="#1668FF"/>
<rect x="0.5" y="49" width="59" height="10" fill="#92B8FF"/>
</svg>
