<svg width="61" height="59" viewBox="0 0 61 59" fill="none" xmlns="http://www.w3.org/2000/svg">
<path d="M15.572 41.48C7.94 41.48 3.38 35.816 3.38 25.16C3.38 14.504 7.94 8.84 15.572 8.84C23.204 8.84 27.812 14.504 27.812 25.16C27.812 35.816 23.204 41.48 15.572 41.48ZM15.572 37.112C20.18 37.112 22.58 33.128 22.58 25.16C22.58 17.192 20.18 13.208 15.572 13.208C10.964 13.208 8.612 17.192 8.612 25.16C8.612 33.128 10.964 37.112 15.572 37.112ZM48.2086 41V33.08H32.7526V29.576C32.8966 29.288 33.1846 28.808 33.5686 28.232L46.7686 9.32H53.0566V29.096H58.4326V33.08H53.0566V41H48.2086ZM37.5526 29.096H48.2086V17.912C48.2086 16.328 48.3526 14.744 48.4006 13.112H48.3046C47.5846 14.6 46.3366 16.664 45.3766 18.008L37.8886 28.664C37.7926 28.808 37.6966 28.952 37.5526 29.096Z" fill="#853AFF"/>
<rect x="0.5" y="49" width="60" height="10" fill="#CCADFF"/>
</svg>
