<svg width="51" height="59" viewBox="0 0 51 59" fill="none" xmlns="http://www.w3.org/2000/svg">
<path d="M15.572 41.48C7.94 41.48 3.38 35.816 3.38 25.16C3.38 14.504 7.94 8.84 15.572 8.84C23.204 8.84 27.812 14.504 27.812 25.16C27.812 35.816 23.204 41.48 15.572 41.48ZM15.572 37.112C20.18 37.112 22.58 33.128 22.58 25.16C22.58 17.192 20.18 13.208 15.572 13.208C10.964 13.208 8.612 17.192 8.612 25.16C8.612 33.128 10.964 37.112 15.572 37.112ZM40.3846 41V19.256C40.3846 18.008 40.4326 16.568 40.4806 15.08C38.2726 17.144 35.3446 18.728 32.4646 19.4L31.5046 14.936C34.0966 14.6 39.4246 11.72 41.1526 9.32H45.4726V41H40.3846Z" fill="#FEA525"/>
<rect x="0.5" y="49" width="50" height="10" fill="#FFD396"/>
</svg>
