<svg width="61" height="59" viewBox="0 0 61 59" fill="none" xmlns="http://www.w3.org/2000/svg">
<path d="M15.572 41.48C7.94 41.48 3.38 35.816 3.38 25.16C3.38 14.504 7.94 8.84 15.572 8.84C23.204 8.84 27.812 14.504 27.812 25.16C27.812 35.816 23.204 41.48 15.572 41.48ZM15.572 37.112C20.18 37.112 22.58 33.128 22.58 25.16C22.58 17.192 20.18 13.208 15.572 13.208C10.964 13.208 8.612 17.192 8.612 25.16C8.612 33.128 10.964 37.112 15.572 37.112ZM45.5206 8.888C51.9046 8.888 56.0806 12.104 56.0806 17.336C56.0806 20.6 54.4006 23.192 51.4726 24.44V24.488C55.1686 25.832 57.4246 28.472 57.4246 32.408C57.4246 37.928 52.7686 41.48 45.5206 41.48C38.2726 41.48 33.5686 37.928 33.5686 32.408C33.5686 28.568 35.8246 25.832 39.5686 24.488V24.44C36.6406 23.24 34.9126 20.648 34.9126 17.336C34.9126 12.104 39.0886 8.888 45.5206 8.888ZM45.5206 13.208C42.1126 13.208 40.0006 14.936 40.0006 17.864C40.0006 20.744 42.1606 22.472 45.5206 22.472C48.8326 22.472 51.0406 20.744 51.0406 17.864C51.0406 14.936 48.8806 13.208 45.5206 13.208ZM45.5206 37.16C49.6966 37.16 52.2406 35.192 52.2406 31.928C52.2406 28.616 49.6006 26.648 45.5206 26.648C41.4406 26.648 38.7526 28.616 38.7526 31.928C38.7526 35.192 41.3926 37.16 45.5206 37.16Z" fill="#605DBA"/>
<rect x="0.5" y="49" width="60" height="10" fill="#BFBEE3"/>
</svg>
