<svg width="22" height="23" viewBox="0 0 22 23" fill="none" xmlns="http://www.w3.org/2000/svg">
<g clip-path="url(#clip0_664_1108)">
<path d="M3.4375 11.5C3.61984 11.5 3.7947 11.4276 3.92364 11.2986C4.05257 11.1697 4.125 10.9948 4.125 10.8125C4.125 10.6302 4.05257 10.4553 3.92364 10.3264C3.7947 10.1974 3.61984 10.125 3.4375 10.125C3.25516 10.125 3.0803 10.1974 2.95136 10.3264C2.82243 10.4553 2.75 10.6302 2.75 10.8125C2.75 10.9948 2.82243 11.1697 2.95136 11.2986C3.0803 11.4276 3.25516 11.5 3.4375 11.5Z" fill="#667085"/>
<path d="M6.875 1.875C6.14565 1.875 5.44618 2.16473 4.93046 2.68046C4.41473 3.19618 4.125 3.89565 4.125 4.625V7.375H2.75C2.02065 7.375 1.32118 7.66473 0.805456 8.18046C0.289731 8.69618 0 9.39565 0 10.125L0 14.25C0 14.9793 0.289731 15.6788 0.805456 16.1945C1.32118 16.7103 2.02065 17 2.75 17H4.125V18.375C4.125 19.1043 4.41473 19.8038 4.93046 20.3195C5.44618 20.8353 6.14565 21.125 6.875 21.125H15.125C15.8543 21.125 16.5538 20.8353 17.0695 20.3195C17.5853 19.8038 17.875 19.1043 17.875 18.375V17H19.25C19.9793 17 20.6788 16.7103 21.1945 16.1945C21.7103 15.6788 22 14.9793 22 14.25V10.125C22 9.39565 21.7103 8.69618 21.1945 8.18046C20.6788 7.66473 19.9793 7.375 19.25 7.375H17.875V4.625C17.875 3.89565 17.5853 3.19618 17.0695 2.68046C16.5538 2.16473 15.8543 1.875 15.125 1.875H6.875ZM5.5 4.625C5.5 4.26033 5.64487 3.91059 5.90273 3.65273C6.16059 3.39487 6.51033 3.25 6.875 3.25H15.125C15.4897 3.25 15.8394 3.39487 16.0973 3.65273C16.3551 3.91059 16.5 4.26033 16.5 4.625V7.375H5.5V4.625ZM6.875 11.5C6.14565 11.5 5.44618 11.7897 4.93046 12.3055C4.41473 12.8212 4.125 13.5207 4.125 14.25V15.625H2.75C2.38533 15.625 2.03559 15.4801 1.77773 15.2223C1.51987 14.9644 1.375 14.6147 1.375 14.25V10.125C1.375 9.76033 1.51987 9.41059 1.77773 9.15273C2.03559 8.89487 2.38533 8.75 2.75 8.75H19.25C19.6147 8.75 19.9644 8.89487 20.2223 9.15273C20.4801 9.41059 20.625 9.76033 20.625 10.125V14.25C20.625 14.6147 20.4801 14.9644 20.2223 15.2223C19.9644 15.4801 19.6147 15.625 19.25 15.625H17.875V14.25C17.875 13.5207 17.5853 12.8212 17.0695 12.3055C16.5538 11.7897 15.8543 11.5 15.125 11.5H6.875ZM16.5 14.25V18.375C16.5 18.7397 16.3551 19.0894 16.0973 19.3473C15.8394 19.6051 15.4897 19.75 15.125 19.75H6.875C6.51033 19.75 6.16059 19.6051 5.90273 19.3473C5.64487 19.0894 5.5 18.7397 5.5 18.375V14.25C5.5 13.8853 5.64487 13.5356 5.90273 13.2777C6.16059 13.0199 6.51033 12.875 6.875 12.875H15.125C15.4897 12.875 15.8394 13.0199 16.0973 13.2777C16.3551 13.5356 16.5 13.8853 16.5 14.25Z" fill="#667085"/>
</g>
<defs>
<clipPath id="clip0_664_1108">
<rect width="22" height="22" fill="white" transform="translate(0 0.5)"/>
</clipPath>
</defs>
</svg>
