<svg width="41" height="40" viewBox="0 0 41 40" fill="none" xmlns="http://www.w3.org/2000/svg">
<g clip-path="url(#clip0_2126_6386)">
<path d="M35.5 0H5.5C2.73858 0 0.5 2.23858 0.5 5V35C0.5 37.7614 2.73858 40 5.5 40H35.5C38.2614 40 40.5 37.7614 40.5 35V5C40.5 2.23858 38.2614 0 35.5 0Z" fill="#EEEAE8"/>
<g clip-path="url(#clip1_2126_6386)">
<path d="M30.2288 10.4375C27.8271 6.97815 23.0457 5.96459 19.6084 8.14595L13.5491 12.0239C11.8966 13.0595 10.7508 14.7561 10.4203 16.6731C10.1338 18.2815 10.3762 19.9341 11.1474 21.3663C10.6186 22.1595 10.266 23.0409 10.1118 23.9663C9.75926 25.9273 10.222 27.9544 11.3677 29.5629C13.7915 33.0222 18.5508 34.0358 21.9881 31.8544L28.0474 27.9985C29.6999 26.9629 30.8457 25.2663 31.1762 23.3493C31.4627 21.7409 31.2203 20.0883 30.4491 18.6561C30.9779 17.8629 31.3304 16.9815 31.4847 16.0561C31.8593 14.0731 31.3966 12.0459 30.2288 10.4375Z" fill="#FF3E00"/>
<path d="M19.0126 29.8932C17.0515 30.3999 15.0024 29.6288 13.8566 27.9762C13.1515 27.0067 12.8871 25.7949 13.0854 24.605C13.1295 24.4067 13.1736 24.2305 13.2176 24.0321L13.3278 23.6796L13.6363 23.8999C14.3634 24.4288 15.1566 24.8254 16.016 25.0898L16.2363 25.1559L16.2143 25.3762C16.1922 25.6847 16.2804 26.0152 16.4566 26.2796C16.8092 26.7864 17.4261 27.0288 18.021 26.8745C18.1532 26.8305 18.2854 26.7864 18.3956 26.7203L24.4329 22.8644C24.7414 22.666 24.9397 22.3796 25.0058 22.0271C25.0719 21.6745 24.9837 21.2999 24.7854 21.0135C24.4329 20.5067 23.816 20.2864 23.221 20.4406C23.0888 20.4847 22.9566 20.5288 22.8465 20.5949L20.5329 22.0711C20.1583 22.3135 19.7397 22.4898 19.299 22.5999C17.338 23.1067 15.2888 22.3355 14.1431 20.683C13.46 19.7135 13.1736 18.5016 13.3939 17.3118C13.5922 16.166 14.2973 15.1305 15.2888 14.5135L21.3482 10.6576C21.7227 10.4152 22.1414 10.2389 22.5821 10.1067C24.5431 9.59995 26.5922 10.3711 27.738 12.0237C28.4431 12.9932 28.7075 14.205 28.5092 15.3949C28.4651 15.5932 28.421 15.7694 28.3549 15.9677L28.2448 16.3203L27.9363 16.0999C27.2092 15.5711 26.416 15.1745 25.5566 14.9101L25.3363 14.844L25.3583 14.6237C25.3804 14.3152 25.2922 13.9847 25.116 13.7203C24.7634 13.2135 24.1465 12.9932 23.5515 13.1474C23.4193 13.1915 23.2871 13.2355 23.177 13.3016L17.1397 17.1576C16.8312 17.3559 16.6329 17.6423 16.5668 17.9949C16.5007 18.3474 16.5888 18.722 16.7871 19.0084C17.1397 19.5152 17.7566 19.7355 18.3515 19.5813C18.4837 19.5372 18.616 19.4932 18.7261 19.4271L21.0397 17.9508C21.4143 17.7084 21.8329 17.5321 22.2736 17.3999C24.2346 16.8932 26.2837 17.6644 27.4295 19.3169C28.1346 20.2864 28.399 21.4983 28.2007 22.6881C28.0024 23.8338 27.2973 24.8694 26.3058 25.4864L20.2465 29.3423C19.8719 29.5847 19.4532 29.761 19.0126 29.8932Z" fill="white"/>
</g>
</g>
<defs>
<clipPath id="clip0_2126_6386">
<rect width="40" height="40" fill="white" transform="translate(0.5)"/>
</clipPath>
<clipPath id="clip1_2126_6386">
<rect width="21.6153" height="26" fill="white" transform="translate(10 7)"/>
</clipPath>
</defs>
</svg>
