<svg width="41" height="40" viewBox="0 0 41 40" fill="none" xmlns="http://www.w3.org/2000/svg">
<g clip-path="url(#clip0_2126_6456)">
<path d="M35.5 0H5.5C2.73858 0 0.5 2.23858 0.5 5V35C0.5 37.7614 2.73858 40 5.5 40H35.5C38.2614 40 40.5 37.7614 40.5 35V5C40.5 2.23858 38.2614 0 35.5 0Z" fill="#22282F"/>
<path d="M20.4846 22.4801C21.8708 22.4801 22.9946 21.3563 22.9946 19.9701C22.9946 18.5838 21.8708 17.4601 20.4846 17.4601C19.0984 17.4601 17.9746 18.5838 17.9746 19.9701C17.9746 21.3563 19.0984 22.4801 20.4846 22.4801Z" fill="#56FDFD"/>
<path d="M20.4851 25.7301C17.4701 25.8051 14.4651 25.3951 11.5851 24.5101C10.2551 24.0851 9.01508 23.4201 7.92008 22.5551C6.94508 21.7201 6.45508 20.8451 6.45508 19.9751C6.45508 18.3001 8.27008 16.6951 11.3401 15.6151C14.3051 14.6701 17.4051 14.2101 20.5201 14.2551C23.8701 14.2551 27.0801 14.7101 29.5601 15.5801C31.0251 16.0701 32.2451 16.7301 33.1201 17.4651C34.0601 18.2701 34.5501 19.1051 34.5501 19.9751C34.5501 21.6851 32.5251 23.4651 29.2451 24.5451C26.4001 25.3801 23.4501 25.7801 20.4851 25.7301ZM20.4851 15.4701C17.2401 15.4701 14.0651 15.9251 11.6901 16.7601C9.66508 17.4601 7.60508 18.7501 7.60508 19.9701C7.60508 20.4601 7.99008 21.0501 8.65008 21.6451C9.45508 22.3101 10.5701 22.9351 11.9301 23.3901C14.6851 24.2301 17.5651 24.6201 20.4451 24.5401C23.6201 24.5401 26.5851 24.1551 28.8201 23.3901C31.9251 22.3801 33.3201 20.9101 33.3201 19.9701C33.3201 19.5151 32.9701 18.9251 32.3101 18.4001C31.3551 17.6601 30.2801 17.0951 29.1351 16.7251C26.3351 15.8551 23.4151 15.4301 20.4801 15.4701H20.4851Z" fill="#56FDFD"/>
<path d="M14.7943 32.5C14.2693 32.5 13.8193 32.395 13.4693 32.185C12.0393 31.35 11.5493 28.975 12.1443 25.8C12.8093 22.76 13.9643 19.85 15.5643 17.18C17.0693 14.5 18.9893 12.075 21.2543 9.99004C22.4043 8.98004 23.5943 8.24504 24.6393 7.86004C25.7893 7.44004 26.8043 7.44004 27.5343 7.86004C29.0343 8.73004 29.5243 11.35 28.8243 14.735C28.1443 17.61 27.0243 20.365 25.5093 22.9C24.0643 25.545 22.2143 27.945 20.0293 30.02C18.8443 31.065 17.6193 31.835 16.5043 32.22C15.8043 32.395 15.2843 32.5 14.7943 32.5ZM16.5393 17.74C15.0143 20.295 13.9093 23.075 13.2593 25.975C12.8743 28.07 12.9443 30.475 14.0293 31.105C14.8343 31.56 16.7843 31.14 19.1593 29.045C20.9043 27.51 22.7193 25.17 24.3943 22.24C25.8593 19.815 26.9393 17.18 27.6043 14.425C27.9043 13.18 27.9793 11.89 27.8143 10.62C27.6743 9.71504 27.3593 9.08504 26.9093 8.84004C26.4893 8.59504 25.8293 8.63004 25.0243 8.91004C23.9143 9.37504 22.8843 10.025 21.9893 10.83C19.8393 12.845 18.0043 15.175 16.5443 17.74H16.5393Z" fill="#56FDFD"/>
<path d="M26.1696 32.5C24.8096 32.5 23.0646 31.665 21.2846 30.125C18.9846 28.035 17.0396 25.585 15.5246 22.865C13.8496 19.97 12.6296 16.935 12.1396 14.35C11.8246 12.85 11.7896 11.455 11.9996 10.335C12.2096 9.11502 12.6996 8.24002 13.4296 7.82502C14.9296 6.95502 17.4446 7.86002 20.0246 10.13C22.1496 12.175 23.9746 14.51 25.4346 17.075C27.0196 19.64 28.1746 22.445 28.8546 25.38C29.1696 26.915 29.2046 28.38 28.9946 29.535C28.7496 30.79 28.2246 31.665 27.4946 32.115C27.1046 32.38 26.6396 32.515 26.1696 32.5ZM16.5746 22.275C18.1796 25.065 20.2046 27.615 22.0896 29.22C23.7296 30.615 25.8246 31.765 26.9046 31.14C27.7096 30.685 28.2996 28.765 27.6746 25.695C27.0146 22.885 25.9046 20.2 24.3946 17.74C23.0246 15.265 21.2846 13.02 19.2296 11.075C18.2896 10.2 17.2046 9.50503 16.0196 9.01503C15.1846 8.70003 14.4496 8.66502 14.0296 8.91002C13.6096 9.15502 13.3296 9.74502 13.1596 10.585C13.0046 11.77 13.0496 12.975 13.2996 14.145C13.7896 16.59 14.9396 19.485 16.5796 22.275H16.5746Z" fill="#56FDFD"/>
</g>
<defs>
<clipPath id="clip0_2126_6456">
<rect width="40" height="40" fill="white" transform="translate(0.5)"/>
</clipPath>
</defs>
</svg>
