<svg width="10" height="11" viewBox="0 0 10 11" fill="none" xmlns="http://www.w3.org/2000/svg">
<path d="M9.93497 5.18251C9.8953 5.0802 9.83582 4.98673 9.75994 4.90746L5.59259 0.740112C5.51488 0.6624 5.42262 0.600756 5.32108 0.558699C5.21955 0.516642 5.11072 0.494995 5.00082 0.494995C4.77887 0.494995 4.566 0.583166 4.40906 0.740112C4.33135 0.817823 4.2697 0.910081 4.22765 1.01162C4.18559 1.11315 4.16394 1.22198 4.16394 1.33188C4.16394 1.55383 4.25211 1.76669 4.40906 1.92364L7.15951 4.66576H0.833471C0.61242 4.66576 0.400424 4.75357 0.244118 4.90988C0.087812 5.06618 0 5.27818 0 5.49923C0 5.72028 0.087812 5.93228 0.244118 6.08858C0.400424 6.24489 0.61242 6.3327 0.833471 6.3327H7.15951L4.40906 9.07482C4.33094 9.1523 4.26893 9.24448 4.22662 9.34605C4.18431 9.44761 4.16252 9.55655 4.16252 9.66658C4.16252 9.77661 4.18431 9.88555 4.22662 9.98711C4.26893 10.0887 4.33094 10.1809 4.40906 10.2583C4.48654 10.3365 4.57872 10.3985 4.68029 10.4408C4.78186 10.4831 4.8908 10.5049 5.00082 10.5049C5.11085 10.5049 5.21979 10.4831 5.32136 10.4408C5.42292 10.3985 5.51511 10.3365 5.59259 10.2583L9.75994 6.09099C9.83582 6.01173 9.8953 5.91826 9.93497 5.81595C10.0183 5.61303 10.0183 5.38543 9.93497 5.18251Z" fill="#4F379F"/>
</svg>
