<svg width="37" height="17" viewBox="0 0 37 17" fill="none" xmlns="http://www.w3.org/2000/svg">
<g clip-path="url(#clip0_1876_2977)">
<path fill-rule="evenodd" clip-rule="evenodd" d="M33.313 11.6919H29.7722L29.2957 13.42H26.5582L29.5109 3.42001H33.5079L36.5 13.42H33.8188L33.313 11.6919ZM32.7858 9.74388L31.5466 5.40925L30.3412 9.74388H32.7858ZM19.3291 13.42V3.42001H24.2612C24.9382 3.42001 25.4553 3.47727 25.809 3.58836C26.6202 3.84718 27.1643 4.37627 27.4437 5.17562C27.5879 5.59477 27.66 6.22693 27.66 7.07095C27.66 8.08561 27.5811 8.81397 27.4234 9.25831C27.1057 10.1355 26.4546 10.6406 25.4711 10.7723C25.3551 10.7917 24.8627 10.8089 23.9953 10.8238L23.556 10.8387H21.9765V13.42H19.3291ZM21.9765 8.5185H23.6269C24.1508 8.49903 24.4685 8.45781 24.5845 8.39482C24.74 8.30664 24.8447 8.13142 24.8965 7.86917C24.9303 7.69395 24.9472 7.43399 24.9472 7.09042C24.9472 6.66669 24.9146 6.3529 24.847 6.14791C24.7523 5.86161 24.5237 5.68639 24.1632 5.6234C23.9923 5.60969 23.8208 5.60472 23.6495 5.60852H21.9765V8.5185ZM8.49962 6.61058H6.03474C6.03474 6.1983 5.98629 5.92345 5.89279 5.78373C5.74634 5.5753 5.34078 5.47224 4.68062 5.47224C4.03736 5.47224 3.6104 5.53179 3.40199 5.65089C3.19471 5.77114 3.09106 6.03224 3.09106 6.43536C3.09106 6.79954 3.18344 7.03889 3.36707 7.15341C3.5 7.23357 3.67349 7.28282 3.89204 7.2977L4.38997 7.33206C5.05527 7.3739 5.71999 7.42467 6.38397 7.48437C7.22662 7.57027 7.83496 7.79816 8.21461 8.16692C8.51202 8.45322 8.69114 8.83114 8.74747 9.29496C8.78014 9.57324 8.79591 9.88703 8.79591 10.2363C8.79591 11.0414 8.72155 11.6312 8.5706 12.0057C8.29572 12.6905 7.67837 13.1234 6.71968 13.3055C6.31863 13.3822 5.70578 13.42 4.87777 13.42C3.49887 13.42 2.5368 13.3376 1.9938 13.1681C1.32914 12.9642 0.889786 12.5474 0.676868 11.9198C0.557454 11.5728 0.5 10.9922 0.5 10.1768H2.96489V10.3852C2.96489 10.8192 3.08768 11.0987 3.33327 11.2212C3.50225 11.3082 3.70728 11.3529 3.94837 11.3586H4.85411C5.316 11.3586 5.61003 11.3346 5.73845 11.2865C5.96376 11.1949 6.11247 11.0506 6.18457 10.849C6.22062 10.723 6.24089 10.5627 6.24089 10.3669C6.24089 9.92711 6.08318 9.65913 5.76662 9.56294C5.64833 9.52514 5.09857 9.47132 4.11848 9.4049C3.33214 9.34764 2.78577 9.29267 2.47935 9.23999C1.67274 9.08653 1.13425 8.77045 0.867255 8.29175C0.63068 7.8852 0.512392 7.27022 0.512392 6.44681C0.512392 5.81923 0.577732 5.31649 0.703905 4.93857C0.831205 4.56065 1.03624 4.2732 1.32125 4.07737C1.7347 3.77503 2.26756 3.59867 2.91419 3.54599C3.50995 3.49553 4.10759 3.47146 4.70541 3.47384C5.73845 3.47384 6.47522 3.53339 6.9157 3.65364C7.98817 3.94681 8.52216 4.76678 8.52216 6.11355C8.52216 6.22464 8.5154 6.38841 8.49962 6.61058ZM15.6746 4.82748C14.4277 4.82858 13.2761 5.50562 12.6532 6.60371H18.1249L17.4681 8.03522H12.1981C12.1693 8.33119 12.1761 8.62962 12.2184 8.92391H17.0614L16.4035 10.3566H12.7569C13.4003 11.3586 14.4975 11.9632 15.6746 11.9644C16.6789 11.9649 17.6343 11.5239 18.295 10.7551V12.5107C17.5008 13.049 16.5398 13.3639 15.5056 13.3639C13.4519 13.3639 11.6889 12.1236 10.9363 10.3554H9.19358L9.85036 8.92391H10.5702C10.5415 8.6285 10.5392 8.33105 10.5635 8.03522H9.13162L9.78952 6.60371H10.9026C11.6348 4.79083 13.4193 3.50934 15.5056 3.50934C16.787 3.50602 18.0208 4.00239 18.9529 4.89619L18.3817 6.13989C17.7407 5.33939 16.7674 4.82748 15.6746 4.82748Z" fill="black"/>
</g>
<defs>
<clipPath id="clip0_1876_2977">
<rect width="36" height="16" fill="white" transform="translate(0.5 0.420013)"/>
</clipPath>
</defs>
</svg>
