<svg width="12" height="12" viewBox="0 0 12 12" fill="none" xmlns="http://www.w3.org/2000/svg">
<g clip-path="url(#clip0_1876_551)">
<path fill-rule="evenodd" clip-rule="evenodd" d="M2.25 5.625V9H9.75V5.625C10.2885 5.625 10.7985 5.499 11.25 5.274V11.25C11.25 11.4489 11.171 11.6397 11.0303 11.7803C10.8897 11.921 10.6989 12 10.5 12H1.5C1.30109 12 1.11032 11.921 0.96967 11.7803C0.829018 11.6397 0.75 11.4489 0.75 11.25V5.274C1.2015 5.499 1.7115 5.625 2.25 5.625ZM5.91583e-08 2.25L1.27725 0.33375C1.34576 0.231063 1.43856 0.146874 1.54741 0.0886538C1.65627 0.0304334 1.77781 -1.84645e-05 1.90125 8.39955e-09H10.0988C10.2222 -1.84645e-05 10.3437 0.0304334 10.4526 0.0886538C10.5614 0.146874 10.6542 0.231063 10.7227 0.33375L12 2.25C12.0001 2.7334 11.8445 3.20397 11.5563 3.59205C11.2681 3.98012 10.8626 4.26506 10.3998 4.40465C9.93697 4.54425 9.44151 4.53109 8.98678 4.36712C8.53204 4.20314 8.14221 3.89708 7.875 3.49425C7.47225 4.10025 6.78225 4.5 6 4.5C5.21775 4.5 4.52775 4.10025 4.125 3.49425C3.85779 3.89708 3.46796 4.20314 3.01322 4.36712C2.55849 4.53109 2.06303 4.54425 1.60023 4.40465C1.13743 4.26506 0.731898 3.98012 0.44368 3.59205C0.155462 3.20397 -0.000110755 2.7334 5.91583e-08 2.25Z" fill="#1A1A1A" fill-opacity="0.5"/>
</g>
<defs>
<clipPath id="clip0_1876_551">
<rect width="12" height="12" fill="white"/>
</clipPath>
</defs>
</svg>
