<svg width="611" height="394" viewBox="0 0 611 394" fill="none" xmlns="http://www.w3.org/2000/svg">
<path d="M384.093 107.175C436.461 126.341 556.306 171.18 527.502 278.023C494.218 401.491 351.003 309.182 258.256 346.688C192.609 373.243 57.1915 397.762 74.0158 263.385C90.3936 132.646 100.818 37.8337 179.76 19.3241C258.692 0.802746 304.943 78.2093 384.093 107.175Z" fill="#D4E9ED"/>
<path d="M398.657 20.1062H249.019C242.127 20.1062 236.538 25.7193 236.538 32.6521V63.145L217.483 79.5687L236.538 77.7846V91.5688C236.538 98.5016 242.127 104.115 249.019 104.115H398.665C405.557 104.115 411.146 98.5016 411.146 91.5688V32.6521C411.138 25.7274 405.549 20.1062 398.657 20.1062Z" fill="#174955" stroke="#174955" stroke-width="0.814667" stroke-miterlimit="10" stroke-linecap="round" stroke-linejoin="round"/>
<path d="M400.417 16.5947H250.779C243.887 16.5947 238.298 22.2078 238.298 29.1406V59.6336L219.243 76.0572L238.298 74.2731V88.0573C238.298 94.982 243.887 100.603 250.779 100.603H400.425C407.317 100.603 412.906 94.9901 412.906 88.0573V29.1406C412.897 22.2078 407.309 16.5947 400.417 16.5947Z" fill="white" stroke="#174955" stroke-width="0.814667" stroke-miterlimit="10" stroke-linecap="round" stroke-linejoin="round"/>
<path d="M104.864 312.564H84.6357L82.8516 288.449H106.648L104.864 312.564Z" fill="#174955" stroke="#174955" stroke-width="0.814667" stroke-miterlimit="10" stroke-linecap="round" stroke-linejoin="round"/>
<path d="M96.2853 287.855C96.2853 287.855 98.2894 268.906 103.707 246.347" stroke="#174955" stroke-width="0.814667" stroke-miterlimit="10" stroke-linecap="round" stroke-linejoin="round"/>
<path d="M98.8922 271.366C98.8922 271.366 107.78 261.069 112.465 256.018" stroke="#174955" stroke-width="0.814667" stroke-miterlimit="10" stroke-linecap="round" stroke-linejoin="round"/>
<path d="M93.5807 288.254C93.5807 288.254 91.1285 255.749 86.9982 240.351" stroke="#174955" stroke-width="0.814667" stroke-miterlimit="10" stroke-linecap="round" stroke-linejoin="round"/>
<path d="M92.9373 281.483C92.9373 281.483 88.2774 264.758 82.5503 256.498" stroke="#174955" stroke-width="0.814667" stroke-miterlimit="10" stroke-linecap="round" stroke-linejoin="round"/>
<path d="M90.5339 275.512L79.3811 267.578" stroke="#174955" stroke-width="0.814667" stroke-miterlimit="10" stroke-linecap="round" stroke-linejoin="round"/>
<path d="M100.285 260.848L96.8557 242.013" stroke="#174955" stroke-width="0.814667" stroke-miterlimit="10" stroke-linecap="round" stroke-linejoin="round"/>
<path d="M82.7457 269.378C82.7457 269.378 82.2895 265.533 78.4443 263.716C74.599 261.907 70.2976 261.223 70.9738 263.716C71.6499 266.209 73.2385 268.017 75.7233 269.378C78.2162 270.738 82.7457 269.378 82.7457 269.378Z" fill="#72B6C5" stroke="#174955" stroke-width="0.814667" stroke-miterlimit="10" stroke-linecap="round" stroke-linejoin="round"/>
<path d="M84.5297 258.665C84.5297 258.665 85.157 254.844 81.9635 252.034C78.77 249.231 74.8271 247.382 74.7863 249.965C74.7456 252.547 75.7721 254.722 77.7843 256.718C79.8047 258.714 84.5297 258.665 84.5297 258.665Z" fill="#72B6C5" stroke="#174955" stroke-width="0.814667" stroke-miterlimit="10" stroke-linecap="round" stroke-linejoin="round"/>
<path d="M88.7334 245.264C88.7334 245.264 90.9819 242.111 89.3526 238.184C87.7233 234.257 84.9941 230.86 83.821 233.166C82.6479 235.463 82.6071 237.875 83.5359 240.555C84.4727 243.227 88.7334 245.264 88.7334 245.264Z" fill="#72B6C5" stroke="#174955" stroke-width="0.814667" stroke-miterlimit="10" stroke-linecap="round" stroke-linejoin="round"/>
<path d="M97.7437 246.803C97.7437 246.803 99.9922 243.651 98.3628 239.724C96.7335 235.797 94.0044 232.4 92.8313 234.706C91.6581 237.003 91.6174 239.414 92.5461 242.095C93.483 244.767 97.7437 246.803 97.7437 246.803Z" fill="#72B6C5" stroke="#174955" stroke-width="0.814667" stroke-miterlimit="10" stroke-linecap="round" stroke-linejoin="round"/>
<path d="M102.355 252.604C102.355 252.604 105.768 250.779 106.045 246.534C106.322 242.29 105.385 238.037 103.316 239.585C101.247 241.125 100.139 243.267 99.7885 246.078C99.4301 248.881 102.355 252.604 102.355 252.604Z" fill="#72B6C5" stroke="#174955" stroke-width="0.814667" stroke-miterlimit="10" stroke-linecap="round" stroke-linejoin="round"/>
<path d="M108.717 259.578C108.717 259.578 112.497 260.425 115.479 257.394C118.461 254.364 120.53 250.535 117.956 250.347C115.381 250.16 113.149 251.056 111.039 252.954C108.937 254.852 108.717 259.578 108.717 259.578Z" fill="#72B6C5" stroke="#174955" stroke-width="0.814667" stroke-miterlimit="10" stroke-linecap="round" stroke-linejoin="round"/>
<path d="M97.2548 280.612C97.2548 280.612 101.035 281.459 104.016 278.429C106.998 275.398 109.067 271.569 106.493 271.382C103.919 271.194 101.687 272.091 99.5766 273.989C97.4747 275.895 97.2548 280.612 97.2548 280.612Z" fill="#72B6C5" stroke="#174955" stroke-width="0.814667" stroke-miterlimit="10" stroke-linecap="round" stroke-linejoin="round"/>
<path d="M98.8923 267.512C98.8923 267.512 100.147 263.846 97.4585 260.555C94.7701 257.264 91.1855 254.795 90.7212 257.329C90.2568 259.871 90.9086 262.184 92.5705 264.482C94.2242 266.779 98.8923 267.512 98.8923 267.512Z" fill="#72B6C5" stroke="#174955" stroke-width="0.814667" stroke-miterlimit="10" stroke-linecap="round" stroke-linejoin="round"/>
<path d="M266.754 40.0493H258.925V91.1778H266.754V40.0493Z" fill="#72B6C5" stroke="#174955" stroke-width="0.814667" stroke-miterlimit="10" stroke-linecap="round" stroke-linejoin="round"/>
<path d="M279.048 62.8682H271.219V91.1697H279.048V62.8682Z" fill="#72B6C5" stroke="#174955" stroke-width="0.814667" stroke-miterlimit="10" stroke-linecap="round" stroke-linejoin="round"/>
<path d="M291.349 51.4629H283.52V91.1779H291.349V51.4629Z" fill="#72B6C5" stroke="#174955" stroke-width="0.814667" stroke-miterlimit="10" stroke-linecap="round" stroke-linejoin="round"/>
<path d="M303.643 74.2817H295.814V91.1698H303.643V74.2817Z" fill="#72B6C5" stroke="#174955" stroke-width="0.814667" stroke-miterlimit="10" stroke-linecap="round" stroke-linejoin="round"/>
<path d="M261.573 30.2083L275.219 43.0555L287.667 36.2286L298.844 55.8947" stroke="#174955" stroke-width="2.444" stroke-linecap="round" stroke-linejoin="round"/>
<path d="M294.885 56.8316L301.614 60.7746L301.671 52.9783L294.885 56.8316Z" fill="#174955"/>
<path d="M356.303 52.6526H348.474V91.1782H356.303V52.6526Z" fill="#72B6C5" stroke="#174955" stroke-width="0.814667" stroke-miterlimit="10" stroke-linecap="round" stroke-linejoin="round"/>
<path d="M368.596 49.2632H360.767V91.1778H368.596V49.2632Z" fill="#72B6C5" stroke="#174955" stroke-width="0.814667" stroke-miterlimit="10" stroke-linecap="round" stroke-linejoin="round"/>
<path d="M380.889 41.1248H373.06V91.1779H380.889V41.1248Z" fill="#72B6C5" stroke="#174955" stroke-width="0.814667" stroke-miterlimit="10" stroke-linecap="round" stroke-linejoin="round"/>
<path d="M393.191 38.4119H385.362V91.1778H393.191V38.4119Z" fill="#72B6C5" stroke="#174955" stroke-width="0.814667" stroke-miterlimit="10" stroke-linecap="round" stroke-linejoin="round"/>
<path d="M352.718 44.5952L365.573 42.9821L376.409 36.1063L386.128 29.9312" stroke="#174955" stroke-width="2.444" stroke-linecap="round" stroke-linejoin="round"/>
<path d="M387.26 33.8337L390.869 26.9253L383.073 27.2512L387.26 33.8337Z" fill="#174955"/>
<path d="M343.618 70.3551L318.779 57.3774V64.465H309.247V76.2451H318.779V83.3327L343.618 70.3551Z" fill="#174955"/>
<path opacity="0.5" d="M348.799 200.482L357.5 202.469L359.512 193.638L351.154 191.732C351.162 191.48 351.195 191.235 351.195 190.983C351.195 188.213 350.632 185.573 349.614 183.178L356.392 177.769L350.746 170.689L344.262 175.862C342.021 173.923 339.341 172.481 336.392 171.683V163.243H327.333V171.357C324.286 171.952 321.5 173.247 319.113 175.048L312.555 169.818L306.909 176.897L313.313 182.005C312.001 184.612 311.235 187.545 311.178 190.649L302.836 192.555L304.848 201.386L313.076 199.512C314.331 202.176 316.139 204.522 318.372 206.388L314.543 214.331L322.706 218.258L326.469 210.437C327.977 210.803 329.541 211.015 331.162 211.015C332.465 211.015 333.728 210.885 334.958 210.649L338.86 218.755L347.023 214.828L343.227 206.95C345.533 205.198 347.439 203.015 348.799 200.482ZM322.298 190.983C322.298 186.078 326.274 182.095 331.186 182.095C336.091 182.095 340.074 186.07 340.074 190.983C340.074 195.887 336.099 199.871 331.186 199.871C326.274 199.871 322.298 195.895 322.298 190.983Z" stroke="#72B6C5" stroke-width="0.814667" stroke-miterlimit="10" stroke-linecap="round" stroke-linejoin="round"/>
<path opacity="0.5" d="M365.492 157.084L372.629 158.714L374.282 151.471L367.423 149.907C367.431 149.704 367.455 149.5 367.455 149.296C367.455 147.023 366.991 144.856 366.16 142.893L371.724 138.453L367.089 132.644L361.769 136.889C359.928 135.292 357.736 134.111 355.317 133.459V126.534H347.887V133.19C345.386 133.679 343.097 134.738 341.142 136.221L335.765 131.928L331.129 137.736L336.384 141.923C335.309 144.066 334.681 146.469 334.633 149.011L327.789 150.575L329.443 157.818L336.197 156.278C337.223 158.461 338.706 160.392 340.547 161.915L337.411 168.433L344.107 171.659L347.195 165.239C348.433 165.541 349.72 165.712 351.048 165.712C352.115 165.712 353.158 165.606 354.168 165.41L357.37 172.058L364.066 168.832L360.954 162.372C362.804 160.954 364.368 159.162 365.492 157.084ZM343.74 149.288C343.74 145.264 347.007 141.997 351.032 141.997C355.056 141.997 358.323 145.264 358.323 149.288C358.323 153.313 355.056 156.579 351.032 156.579C347.007 156.579 343.74 153.321 343.74 149.288Z" stroke="#72B6C5" stroke-width="0.814667" stroke-miterlimit="10" stroke-linecap="round" stroke-linejoin="round"/>
<g opacity="0.4">
<path d="M106.493 174.152H44.3829V222.779H106.493V174.152Z" stroke="#D9C6E8" stroke-width="0.814667" stroke-miterlimit="10" stroke-linecap="round" stroke-linejoin="round"/>
<path d="M46.7861 183.764H104.497" stroke="#D9C6E8" stroke-width="0.814667" stroke-miterlimit="10" stroke-linecap="round" stroke-linejoin="round"/>
<path d="M55.7557 189.378H48.3911V196.742H55.7557V189.378Z" stroke="#D9C6E8" stroke-width="0.814667" stroke-miterlimit="10" stroke-linecap="round" stroke-linejoin="round"/>
<path d="M67.5438 189.378H60.1792V196.742H67.5438V189.378Z" stroke="#D9C6E8" stroke-width="0.814667" stroke-miterlimit="10" stroke-linecap="round" stroke-linejoin="round"/>
<path d="M79.3241 189.378H71.9595V196.742H79.3241V189.378Z" stroke="#D9C6E8" stroke-width="0.814667" stroke-miterlimit="10" stroke-linecap="round" stroke-linejoin="round"/>
<path d="M91.1041 189.378H83.7395V196.742H91.1041V189.378Z" stroke="#D9C6E8" stroke-width="0.814667" stroke-miterlimit="10" stroke-linecap="round" stroke-linejoin="round"/>
<path d="M102.892 189.378H95.5277V196.742H102.892V189.378Z" stroke="#D9C6E8" stroke-width="0.814667" stroke-miterlimit="10" stroke-linecap="round" stroke-linejoin="round"/>
<path d="M55.7557 200.595H48.3911V207.96H55.7557V200.595Z" stroke="#D9C6E8" stroke-width="0.814667" stroke-miterlimit="10" stroke-linecap="round" stroke-linejoin="round"/>
<path d="M67.5438 200.595H60.1792V207.96H67.5438V200.595Z" stroke="#D9C6E8" stroke-width="0.814667" stroke-miterlimit="10" stroke-linecap="round" stroke-linejoin="round"/>
<path d="M79.3241 200.595H71.9595V207.96H79.3241V200.595Z" stroke="#D9C6E8" stroke-width="0.814667" stroke-miterlimit="10" stroke-linecap="round" stroke-linejoin="round"/>
<path d="M91.1041 200.595H83.7395V207.96H91.1041V200.595Z" stroke="#D9C6E8" stroke-width="0.814667" stroke-miterlimit="10" stroke-linecap="round" stroke-linejoin="round"/>
<path d="M102.892 200.595H95.5277V207.96H102.892V200.595Z" stroke="#D9C6E8" stroke-width="0.814667" stroke-miterlimit="10" stroke-linecap="round" stroke-linejoin="round"/>
<path d="M55.7557 211.813H48.3911V219.178H55.7557V211.813Z" stroke="#D9C6E8" stroke-width="0.814667" stroke-miterlimit="10" stroke-linecap="round" stroke-linejoin="round"/>
<path d="M67.5438 211.813H60.1792V219.178H67.5438V211.813Z" stroke="#D9C6E8" stroke-width="0.814667" stroke-miterlimit="10" stroke-linecap="round" stroke-linejoin="round"/>
<path d="M79.3241 211.813H71.9595V219.178H79.3241V211.813Z" stroke="#D9C6E8" stroke-width="0.814667" stroke-miterlimit="10" stroke-linecap="round" stroke-linejoin="round"/>
<path d="M91.1041 211.813H83.7395V219.178H91.1041V211.813Z" stroke="#D9C6E8" stroke-width="0.814667" stroke-miterlimit="10" stroke-linecap="round" stroke-linejoin="round"/>
<path d="M102.892 211.813H95.5277V219.178H102.892V211.813Z" stroke="#D9C6E8" stroke-width="0.814667" stroke-miterlimit="10" stroke-linecap="round" stroke-linejoin="round"/>
</g>
<g opacity="0.3">
<path d="M56.5705 84.7497C61.0919 74.3627 71.4382 67.104 83.479 67.104C99.6827 67.104 112.815 80.2364 112.815 96.4401C112.815 112.644 99.6827 125.776 83.479 125.776C67.2753 125.776 54.1428 112.644 54.1428 96.4401C54.1428 92.7904 54.8108 89.3037 56.0247 86.0776" stroke="#FAC8B5" stroke-width="0.814667" stroke-miterlimit="10"/>
<path d="M56.2447 84.628C60.8231 74.1107 71.3078 66.7461 83.4871 66.7461C99.8619 66.7461 113.174 80.0659 113.174 96.4325C113.174 112.807 99.8538 126.127 83.4871 126.127C67.1123 126.127 53.8007 112.807 53.8007 96.4325C53.8007 92.7421 54.4768 89.2146 55.707 85.9478" stroke="#FAC8B5" stroke-width="0.407333" stroke-miterlimit="10"/>
<path d="M63.9432 87.5362C67.3241 80.1227 74.8027 74.9822 83.4789 74.9822C95.3323 74.9822 104.945 84.5871 104.945 96.4405C104.945 108.302 95.3323 117.907 83.4789 117.907C71.6255 117.907 62.0125 108.302 62.0125 96.4405C62.0125 93.7684 62.5012 91.2103 63.3974 88.856" stroke="#FAC8B5" stroke-width="0.814667" stroke-miterlimit="10"/>
<path d="M63.6173 87.4055C67.0633 79.8698 74.6723 74.6152 83.487 74.6152C95.5197 74.6152 105.312 84.4075 105.312 96.4401C105.312 108.481 95.5197 118.265 83.487 118.265C71.4544 118.265 61.6621 108.481 61.6621 96.4401C61.6621 93.7273 62.1591 91.1285 63.0715 88.7334" stroke="#FAC8B5" stroke-width="0.407333" stroke-miterlimit="10"/>
<path d="M73.3445 91.1124C73.3445 91.1042 73.3526 91.0961 73.3607 91.0879C75.2834 87.4627 79.0879 84.9861 83.4789 84.9861C89.8007 84.9861 94.925 90.1103 94.925 96.4322C94.925 102.762 89.8007 107.878 83.4789 107.878C77.1571 107.878 72.0328 102.754 72.0328 96.4322C72.0328 95.0065 72.2935 93.6378 72.766 92.3833C72.7742 92.367 72.7823 92.3425 72.7905 92.3262" stroke="#FAC8B5" stroke-width="0.814667" stroke-miterlimit="10"/>
<path d="M72.8884 91.227C72.9291 91.1374 72.978 91.0478 73.0188 90.9581H73.0269C74.9984 87.2025 78.9495 84.6282 83.4791 84.6282C89.9883 84.6282 95.2836 89.9235 95.2836 96.4327C95.2836 102.942 89.9883 108.245 83.4791 108.245C76.9699 108.245 71.6746 102.95 71.6746 96.4327C71.6746 94.9663 71.9434 93.5651 72.4322 92.2616" stroke="#FAC8B5" stroke-width="0.407333" stroke-miterlimit="10"/>
<path d="M73.5399 91.1534C73.5073 91.1371 73.4747 91.1371 73.4421 91.1208L73.3607 91.0883L73.0266 90.9579H73.0185L63.935 87.5282L63.6009 87.3978L56.5541 84.742L56.2282 84.6198L44.8799 80.3347L45.442 76.1473C45.4583 75.9925 45.3769 75.8377 45.2302 75.7725L36.2607 71.7481C36.1304 71.691 35.9756 71.7155 35.8697 71.8132C35.7638 71.911 35.7231 72.0576 35.7719 72.1961L37.5968 77.5892L36.2607 77.0841C35.886 76.9456 35.4705 77.133 35.332 77.4996C35.1935 77.8662 35.3809 78.2817 35.7475 78.4202L37.1406 78.9497L32.9532 82.1677C32.8391 82.2573 32.7903 82.4039 32.8228 82.5424C32.8554 82.6727 32.9695 82.7868 33.1161 82.8031L43.1773 84.351C43.1935 84.3591 43.218 84.3591 43.2261 84.3591C43.3728 84.3591 43.5031 84.2695 43.5601 84.131L44.5052 81.7359L55.6824 85.9559L56.0164 86.0781L63.0551 88.7339L63.381 88.8642L72.4238 92.2777L72.7497 92.3999L73.0185 92.4976" stroke="#FAC8B5" stroke-width="0.814667" stroke-miterlimit="10"/>
<path d="M73.3446 91.1126C73.3771 91.1126 73.4097 91.1208 73.4423 91.1208C73.4749 91.137 73.5075 91.137 73.5401 91.1533L80.0085 93.5973L80.7173 91.4629C80.8151 91.1696 81.0839 90.9741 81.3935 90.9741C81.4016 90.9741 81.4016 90.9741 81.4098 90.9741C81.7193 90.9823 81.9963 91.1859 82.0859 91.4792L83.3813 95.6829C83.479 96.0169 83.3324 96.3754 83.0228 96.5301L79.7886 98.1432C79.6908 98.1921 79.5768 98.2165 79.4709 98.2165C79.2998 98.2165 79.1368 98.1595 78.9983 98.0454C78.7865 97.858 78.6969 97.5485 78.7865 97.2796L79.5605 94.9497L73.0513 92.4894C72.9535 92.4487 72.8721 92.3998 72.8069 92.3346" stroke="#FAC8B5" stroke-width="0.814667" stroke-miterlimit="10"/>
</g>
<path d="M420.954 198.428L416.115 205.198C416.115 205.198 408.865 243.887 407.895 253.321C406.926 262.755 406.926 312.563 406.926 312.563H450.934C450.934 312.563 441.745 260.335 442.714 255.74C443.684 251.146 447.065 202.543 447.065 202.543L445.614 199.154L420.954 198.428Z" fill="white" stroke="#174955" stroke-width="0.814667" stroke-miterlimit="10" stroke-linecap="round" stroke-linejoin="round"/>
<path d="M442.714 255.732C443.04 254.176 443.651 247.569 444.303 239.504C438.551 243.577 430.6 248.156 424.335 247.749C417.199 247.284 412.547 242.136 410.136 238.51C409.06 244.873 408.189 250.445 407.895 253.313C406.926 262.747 406.926 312.555 406.926 312.555H450.934C450.934 312.563 441.745 260.327 442.714 255.732Z" fill="white" stroke="#174955" stroke-width="0.814667" stroke-miterlimit="10" stroke-linecap="round" stroke-linejoin="round"/>
<path d="M420.955 198.428C420.955 198.428 410.315 248.726 409.834 260.335C409.354 271.944 409.59 312.563 409.59 312.563H383.716L384.441 286.445L372.352 301.199L355.187 283.789C355.187 283.789 372.596 248.482 374.535 243.651C376.466 238.812 381.06 221.891 382.03 219.471C382.999 217.052 380.824 215.846 384.93 214.396C389.036 212.938 420.955 198.428 420.955 198.428Z" fill="#72B6C5" stroke="#174955" stroke-width="0.814667" stroke-miterlimit="10" stroke-linecap="round" stroke-linejoin="round"/>
<path d="M418.535 198.665C418.535 198.665 416.115 197.459 413.696 202.779C411.276 208.098 406.445 221.883 404.026 225.997C401.606 230.111 404.506 230.111 405.956 229.141C407.407 228.172 410.307 222.852 411.276 223.577C412.246 224.302 414.665 229.141 414.665 229.141L420.71 200.848C420.71 200.848 419.985 199.153 418.535 198.665Z" fill="#72B6C5" stroke="#174955" stroke-width="0.814667" stroke-miterlimit="10" stroke-linecap="round" stroke-linejoin="round"/>
<path d="M388.547 237.361C389.125 234.315 389.516 232.278 389.516 232.278" stroke="#174955" stroke-width="0.814667" stroke-miterlimit="10" stroke-linecap="round" stroke-linejoin="round"/>
<path d="M382.983 283.3C382.983 283.3 382.013 269.272 383.227 264.196C383.969 261.084 386.16 249.793 387.749 241.524" stroke="#174955" stroke-width="0.814667" stroke-miterlimit="10" stroke-linecap="round" stroke-linejoin="round"/>
<path d="M369.924 282.396C369.924 282.396 368.58 279.113 366.641 279.113C364.702 279.113 354.836 280.906 352.897 282.396C350.958 283.887 346.323 294.95 346.323 297.036C346.323 299.13 351.7 308.091 354.388 309.435C357.077 310.779 365.745 309.289 365.745 309.289C365.745 309.289 370.225 305.549 370.673 305.101C371.121 304.653 375.602 294.339 374.559 289.565C373.508 284.791 369.924 282.396 369.924 282.396Z" fill="white" stroke="#174955" stroke-width="0.814667" stroke-miterlimit="10" stroke-linecap="round" stroke-linejoin="round"/>
<path d="M423.35 210.649L418.991 200.188L417.248 196.702C417.248 196.702 417.248 196.702 412.889 196.702C408.531 196.702 406.209 197.573 404.751 194.958C403.301 192.343 401.264 176.074 401.264 176.074C401.264 176.074 399.521 175.496 397.777 174.331C396.034 173.166 396.327 170.266 398.942 169.679C401.557 169.101 404.172 164.742 405.044 160.962C405.916 157.182 404.751 153.41 408.824 147.602C412.889 141.793 418.698 138.306 418.698 138.306C418.698 138.306 428.572 133.076 438.16 138.013C447.749 142.95 456.466 153.703 457.044 168.229C457.623 182.754 446.299 192.05 446.299 192.05L443.92 212.441" fill="white"/>
<path d="M423.35 210.649L418.991 200.188L417.248 196.702C417.248 196.702 417.248 196.702 412.889 196.702C408.531 196.702 406.209 197.573 404.751 194.958C403.301 192.343 401.264 176.074 401.264 176.074C401.264 176.074 399.521 175.496 397.777 174.331C396.034 173.166 396.327 170.266 398.942 169.679C401.557 169.101 404.172 164.742 405.044 160.962C405.916 157.182 404.751 153.41 408.824 147.602C412.889 141.793 418.698 138.306 418.698 138.306C418.698 138.306 428.572 133.076 438.16 138.013C447.749 142.95 456.466 153.703 457.044 168.229C457.623 182.754 446.299 192.05 446.299 192.05L443.92 212.441" stroke="#174955" stroke-width="0.814667" stroke-miterlimit="10" stroke-linecap="round" stroke-linejoin="round"/>
<path d="M417.248 196.701L429.9 194.266L419.757 202.412L417.248 196.701Z" fill="#174955" stroke="#174955" stroke-width="0.814667" stroke-miterlimit="10" stroke-linecap="round" stroke-linejoin="round"/>
<path d="M407.032 178.754C407.032 178.754 411.806 179.154 415.187 174.974" stroke="#174955" stroke-width="0.814667" stroke-miterlimit="10" stroke-linecap="round" stroke-linejoin="round"/>
<path d="M410.168 164.001C409.802 165.378 408.906 166.339 408.164 166.144C407.423 165.948 407.113 164.669 407.48 163.292C407.847 161.916 408.743 160.954 409.484 161.15C410.225 161.345 410.535 162.624 410.168 164.001Z" fill="#174955"/>
<path d="M408.026 157.484C408.026 157.484 411.008 155.097 413.59 158.673" stroke="#174955" stroke-width="0.814667" stroke-miterlimit="10" stroke-linecap="round" stroke-linejoin="round"/>
<path d="M463.154 130.542C463.154 130.542 455.016 120.375 448.629 116.889C442.234 113.402 443.399 118.054 443.399 118.054C443.399 118.054 423.35 109.337 421.028 111.658C418.706 113.98 425.093 115.145 425.093 115.145C425.093 115.145 406.788 116.017 401.272 118.925C395.749 121.834 402.144 123.862 402.144 123.862C402.144 123.862 393.427 130.257 395.464 131.707C397.5 133.157 403.016 131.414 403.016 131.414C403.016 131.414 395.171 141.003 398.364 143.325C401.558 145.646 407.081 142.16 407.081 142.16C407.081 142.16 401.558 152.327 403.887 152.033C406.209 151.74 412.604 149.997 412.604 149.997C412.604 149.997 411.733 153.483 414.055 153.777C416.376 154.07 419.578 151.74 419.578 151.74C419.578 151.74 416.67 162.2 419.871 163.072C423.065 163.944 429.167 160.164 429.167 160.164C429.167 160.164 423.936 175.268 424.808 180.498C425.68 185.728 430.617 181.663 430.617 181.663C430.617 181.663 432.36 192.701 435.554 193.573C438.747 194.445 439.619 191.83 439.619 191.83C439.619 191.83 439.325 199.097 442.234 200.253C445.142 201.418 449.501 197.06 449.501 197.06C449.501 197.06 451.244 203.74 453.859 202.868C456.474 201.997 458.218 197.932 458.218 197.932C458.218 197.932 457.924 202.868 460.833 200.84C463.741 198.803 466.356 191.545 466.356 191.545C466.356 191.545 466.649 197.068 471.88 193.581C477.11 190.095 477.11 181.378 477.11 181.378C477.11 181.378 480.303 184.286 482.047 179.927C483.79 175.569 481.468 167.145 481.468 167.145C481.468 167.145 486.405 168.31 485.533 165.402C484.662 162.494 482.625 154.657 482.625 154.657C482.625 154.657 488.148 157.272 487.277 152.041C486.405 146.811 473.623 137.516 473.623 137.516C473.623 137.516 478.853 131.414 475.66 130.542C472.466 129.671 466.943 131.992 466.943 131.992C466.943 131.992 467.521 123.276 464.906 124.726C462.283 126.184 463.154 130.542 463.154 130.542Z" fill="#174955" stroke="#174955" stroke-width="0.814667" stroke-miterlimit="10" stroke-linecap="round" stroke-linejoin="round"/>
<path d="M445.378 201.809C445.378 201.809 439.334 253.076 439.089 260.327C438.845 267.577 444.409 312.555 444.409 312.555H477.778L477.053 288.131L507.277 290.307C507.277 290.307 497.924 254.795 494.535 247.064C491.146 239.325 487.521 215.145 487.04 213.932C486.56 212.726 451.904 203.015 450.209 201.557C448.515 200.115 445.134 197.215 445.378 201.809Z" fill="#72B6C5" stroke="#174955" stroke-width="0.814667" stroke-miterlimit="10" stroke-linecap="round" stroke-linejoin="round"/>
<path d="M499.268 282.657L477.24 283.643L475.668 308.425C475.668 308.425 488.254 310.388 494.356 311.374C500.45 312.359 505.761 310.584 507.928 307.243C510.095 303.903 509.696 298.787 509.11 296.229C508.523 293.671 505.175 284.229 505.175 284.229" fill="#72B6C5"/>
<path d="M499.268 282.657L477.24 283.643L475.668 308.425C475.668 308.425 488.254 310.388 494.356 311.374C500.45 312.359 505.761 310.584 507.928 307.243C510.095 303.903 509.696 298.787 509.11 296.229C508.523 293.671 505.175 284.229 505.175 284.229" stroke="#174955" stroke-width="0.814667" stroke-miterlimit="10" stroke-linecap="round" stroke-linejoin="round"/>
<path d="M450.209 201.573C450.209 201.573 454.079 215.838 454.323 223.097C454.568 230.347 453.354 232.531 451.667 230.111C449.973 227.691 447.553 224.311 447.553 224.311L442.478 228.905L445.623 199.162C445.614 199.154 449.973 198.909 450.209 201.573Z" fill="#72B6C5" stroke="#174955" stroke-width="0.814667" stroke-miterlimit="10" stroke-linecap="round" stroke-linejoin="round"/>
<path d="M470.527 248.726C470.527 248.726 470.046 269.28 471.252 271.211C472.458 273.142 480.922 290.315 480.922 290.315" stroke="#174955" stroke-width="0.814667" stroke-miterlimit="10" stroke-linecap="round" stroke-linejoin="round"/>
<path d="M477.517 233.948C477.126 235.17 476.751 236.4 476.401 237.638" stroke="#174955" stroke-width="0.814667" stroke-miterlimit="10" stroke-linecap="round" stroke-linejoin="round"/>
<path d="M484.865 215.39C484.865 215.39 481.631 222.152 478.714 230.413" stroke="#174955" stroke-width="0.814667" stroke-miterlimit="10" stroke-linecap="round" stroke-linejoin="round"/>
<path d="M467.602 285.215L468.979 282.266C468.979 282.266 475.073 279.512 477.631 279.121C480.189 278.73 489.827 288.172 491.008 291.317C492.189 294.461 488.841 303.903 487.668 306.266C486.486 308.628 479.211 310.005 475.668 310.005C472.124 310.005 465.044 305.679 464.067 303.911C463.081 302.127 467.602 285.215 467.602 285.215Z" fill="white" stroke="#174955" stroke-width="0.814667" stroke-miterlimit="10" stroke-linecap="round" stroke-linejoin="round"/>
<path d="M472.702 304.099C472.702 304.099 477.175 300.588 475.969 293.574C474.763 286.559 471.106 284.287 471.106 284.287L432.808 277.5C432.808 277.5 415.399 270.25 414.185 270.486C412.979 270.731 403.301 280.401 403.301 281.851C403.301 283.301 404.506 295.154 404.506 295.154C404.506 295.154 405.191 295.782 406.225 295.342C406.225 295.342 406.225 297.851 407.407 297.997C408.588 298.144 409.028 297.411 409.028 297.411C409.028 297.411 409.761 299.325 411.236 299.032C412.71 298.739 414.331 296.824 414.331 296.824C414.331 296.824 414.625 298.885 415.659 297.859C416.694 296.824 420.523 291.667 420.523 291.667C420.523 291.667 428.042 293.875 431.285 293.289C434.527 292.702 438.951 290.779 438.951 290.779L469.916 304.637C469.916 304.629 472.091 304.751 472.702 304.099Z" fill="white" stroke="#174955" stroke-width="0.814667" stroke-miterlimit="10" stroke-linecap="round" stroke-linejoin="round"/>
<path d="M414.331 296.816C414.331 296.816 415.219 292.392 415.806 290.918C416.393 289.443 417.574 288.856 418.168 288.262C418.755 287.675 425.541 283.398 425.541 283.398" stroke="#174955" stroke-width="0.814667" stroke-miterlimit="10" stroke-linecap="round" stroke-linejoin="round"/>
<path d="M420.083 278.388C420.083 278.388 411.676 286.054 411.236 287.822C410.796 289.59 409.028 297.402 409.028 297.402" stroke="#174955" stroke-width="0.814667" stroke-miterlimit="10" stroke-linecap="round" stroke-linejoin="round"/>
<path d="M406.225 295.341C406.225 295.341 407.553 284.433 407.847 283.692C408.14 282.958 415.073 274.991 415.073 274.991" stroke="#174955" stroke-width="0.814667" stroke-miterlimit="10" stroke-linecap="round" stroke-linejoin="round"/>
<path d="M376.05 280.303C376.05 280.303 364.099 284.189 361.859 285.231C359.618 286.274 356.327 289.867 355.284 292.702C354.241 295.537 354.087 302.111 358.119 305.704C362.152 309.289 367.081 308.091 370.673 306.299C374.258 304.506 381.883 290.91 381.883 290.91L376.05 280.303Z" fill="white" stroke="#174955" stroke-width="0.814667" stroke-miterlimit="10" stroke-linecap="round" stroke-linejoin="round"/>
<path d="M383.822 276.873L388.156 282.25C388.156 282.25 392.792 284.938 393.386 285.834C393.981 286.73 395.773 293.753 396.075 294.649C396.376 295.545 394.584 298.087 393.085 297.036C391.594 295.993 390.397 291.211 390.095 290.315C389.794 289.419 387.708 288.376 386.657 288.221C385.614 288.074 382.177 277.166 382.177 277.166L383.822 276.873Z" fill="white" stroke="#174955" stroke-width="0.814667" stroke-miterlimit="10" stroke-linecap="round" stroke-linejoin="round"/>
<path d="M382.03 274.176C382.03 274.176 378.144 274.478 377.842 275.52C377.541 276.563 379.936 285.231 381.728 288.221C383.521 291.211 384.417 292.107 385.614 292.107C386.812 292.107 387.26 290.763 387.105 289.867C386.959 288.971 384.115 278.958 383.822 276.865C383.521 274.779 383.073 274.03 382.03 274.176Z" fill="white" stroke="#174955" stroke-width="0.814667" stroke-miterlimit="10" stroke-linecap="round" stroke-linejoin="round"/>
<path d="M378.144 277.321C378.144 277.321 373.956 279.113 373.663 280.311C373.362 281.508 377.851 289.272 378.592 290.616C379.341 291.961 382.176 294.054 382.779 293.9C383.374 293.753 384.124 292.702 383.822 291.806C383.521 290.91 383.073 290.16 383.073 290.16C383.073 290.16 380.979 285.525 380.083 283.887C379.187 282.25 378.144 277.321 378.144 277.321Z" fill="white" stroke="#174955" stroke-width="0.814667" stroke-miterlimit="10" stroke-linecap="round" stroke-linejoin="round"/>
<path d="M373.957 281.655C373.957 281.655 370.82 284.645 370.82 286.136C370.82 287.627 375.154 293.158 376.498 293.753C377.842 294.348 379.781 295.399 380.979 295.097C382.177 294.796 382.771 293.9 382.771 293.9L378.885 291.806L373.957 281.655Z" fill="white" stroke="#174955" stroke-width="0.814667" stroke-miterlimit="10" stroke-linecap="round" stroke-linejoin="round"/>
<path d="M371.268 287.773C371.268 287.773 369.924 290.763 370.372 291.806C370.82 292.848 375.007 296.889 376.498 297.63C377.989 298.38 379.635 299.423 379.936 298.225C380.237 297.028 377.549 294.787 377.549 294.787L376.506 293.744L371.268 287.773Z" fill="white" stroke="#174955" stroke-width="0.814667" stroke-miterlimit="10" stroke-linecap="round" stroke-linejoin="round"/>
<path d="M185.728 312.563L187.105 300.156L190.135 312.563H229.997L224.327 244.808H142.257L133.027 261.345L135.772 312.563H185.728Z" fill="#174955" stroke="#174955" stroke-width="0.814667" stroke-miterlimit="10" stroke-linecap="round" stroke-linejoin="round"/>
<path d="M311.879 136.05C311.879 136.05 314.673 133.793 314.779 135.08C314.885 136.367 312.311 140.131 312.311 140.131L311.879 136.05Z" fill="white" stroke="#174955" stroke-width="0.814667" stroke-miterlimit="10" stroke-linecap="round" stroke-linejoin="round"/>
<path d="M272.302 161.5L275.455 154.567C275.455 154.567 276.506 148.889 278.184 146.787C279.862 144.685 284.278 142.583 285.541 141.956C286.803 141.329 289.956 138.591 291.846 136.278C293.736 133.964 295.422 130.6 296.473 132.286C297.524 133.964 297.524 134.811 296.685 136.278C295.846 137.752 292.905 142.795 292.905 142.795L305.435 138.836C305.435 138.836 311.023 135.936 310.592 136.791C310.16 137.655 304.685 149.15 303.61 150.754C302.535 152.367 298.241 156.237 294.477 158.38C290.714 160.53 285.557 162.681 285.239 162.787C284.913 162.893 282.445 167.732 282.445 167.732L272.302 161.5Z" fill="white" stroke="#174955" stroke-width="0.814667" stroke-miterlimit="10" stroke-linecap="round" stroke-linejoin="round"/>
<path d="M308.873 145.932C308.873 145.932 311.985 141.101 312.311 140.131C312.636 139.162 312.099 135.618 311.879 134.005C311.667 132.392 310.054 132.718 309.728 133.467C309.402 134.217 309.728 137.011 309.728 137.337C309.728 137.663 308.547 144.107 308.547 144.107L308.009 146.575L308.873 145.932Z" fill="white" stroke="#174955" stroke-width="0.814667" stroke-miterlimit="10" stroke-linecap="round" stroke-linejoin="round"/>
<path d="M304.465 150.77C304.465 150.77 308.441 146.257 309.191 144.864C309.94 143.471 310.478 138.2 310.584 136.807C310.689 135.414 309.402 135.626 308.539 136.481C307.675 137.345 307.789 142.925 307.675 143.251C307.561 143.577 305.093 148.082 305.093 148.082L304.465 150.77Z" fill="white" stroke="#174955" stroke-width="0.814667" stroke-miterlimit="10" stroke-linecap="round" stroke-linejoin="round"/>
<path d="M281.044 159.145C281.044 159.145 285.557 154.526 287.17 153.777C288.783 153.027 298.991 150.233 298.991 150.233L301.785 147.65C301.785 147.65 304.025 142.974 304.042 141.85C304.074 139.829 307.227 135.642 307.691 137.337C307.928 138.192 306.836 143.569 306.078 146.469C305.329 149.369 304.685 151.3 303.284 152.489C301.891 153.671 296.196 157.972 294.478 158.396" fill="white"/>
<path d="M281.044 159.145C281.044 159.145 285.557 154.526 287.17 153.777C288.783 153.027 298.991 150.233 298.991 150.233L301.785 147.65C301.785 147.65 304.025 142.974 304.042 141.85C304.074 139.829 307.227 135.642 307.691 137.337C307.928 138.192 306.836 143.569 306.078 146.469C305.329 149.369 304.685 151.3 303.284 152.489C301.891 153.671 296.196 157.972 294.478 158.396" stroke="#174955" stroke-width="0.814667" stroke-miterlimit="10" stroke-linecap="round" stroke-linejoin="round"/>
<path d="M292.897 142.795C292.897 142.795 286.803 144.188 285.361 145.003" stroke="#174955" stroke-width="0.814667" stroke-miterlimit="10" stroke-linecap="round" stroke-linejoin="round"/>
<path d="M304.034 141.85L299.317 143.781" stroke="#174955" stroke-width="0.814667" stroke-miterlimit="10" stroke-linecap="round" stroke-linejoin="round"/>
<path d="M272.034 158.755L287.007 167.17L282.698 173.321L269.304 163.488L272.034 158.755Z" fill="white" stroke="#174955" stroke-width="0.814667" stroke-miterlimit="10" stroke-linecap="round" stroke-linejoin="round"/>
<path d="M267.903 161.85L287.26 174.445C287.26 174.445 267.667 204.767 263.936 210.364C260.205 215.96 254.942 222.812 249.011 224.123C246.909 224.588 224.058 202.201 224.058 202.201L227.553 138.991L231.023 135.642L248.074 186.339L267.903 161.85Z" fill="#72B6C5" stroke="#174955" stroke-width="0.814667" stroke-miterlimit="10" stroke-linecap="round" stroke-linejoin="round"/>
<path d="M228.139 171.333L232.221 209.288L225.801 204.033L228.139 171.333Z" fill="#174955" stroke="#174955" stroke-width="0.814667" stroke-miterlimit="10" stroke-linecap="round" stroke-linejoin="round"/>
<path d="M248.082 186.347C248.082 186.347 240.62 196.612 240.62 198.478C240.62 200.343 243.65 203.846 243.65 203.846" stroke="#174955" stroke-width="0.814667" stroke-miterlimit="10" stroke-linecap="round" stroke-linejoin="round"/>
<path d="M167.821 116.049L179.495 197.312L180.375 247.74H209.883L208.783 166.257L208.563 123.096L204.603 115.609L167.821 116.049Z" fill="white" stroke="#174955" stroke-width="0.814667" stroke-miterlimit="10" stroke-linecap="round" stroke-linejoin="round"/>
<path d="M182.135 129.703L191.61 143.357L185.883 226.274L195.17 239.74L203.984 224.889L194.534 144.351L199.536 128.823L191.61 118.469L182.135 129.703Z" fill="#174955" stroke="#174955" stroke-width="0.814667" stroke-miterlimit="10" stroke-linecap="round" stroke-linejoin="round"/>
<path d="M191.61 124.196L179.715 139.61L167.821 116.05L171.349 112.742L191.61 124.196Z" fill="white" stroke="#174955" stroke-width="0.814667" stroke-miterlimit="10" stroke-linecap="round" stroke-linejoin="round"/>
<path d="M189.842 123.536L202.836 136.53L204.604 115.609L203.056 114.721L189.842 123.536Z" fill="white" stroke="#174955" stroke-width="0.814667" stroke-miterlimit="10" stroke-linecap="round" stroke-linejoin="round"/>
<path d="M171.349 103.936V112.742C171.349 112.742 189.63 126.176 191.61 126.176C193.589 126.176 203.064 114.722 203.064 114.722L202.844 108.995C202.844 108.995 193.817 110.094 187.87 108.335C181.915 106.575 171.349 103.936 171.349 103.936Z" fill="white" stroke="#174955" stroke-width="0.814667" stroke-miterlimit="10" stroke-linecap="round" stroke-linejoin="round"/>
<path d="M166.526 53.711C166.526 53.711 162.868 49.0023 158.803 48.1224C154.738 47.2426 148.001 52.0735 146.339 56.6112C144.677 61.1489 144.359 63.4137 148.106 66.5746C151.854 69.7274 154.07 70.7376 157.426 69.3445C160.791 67.9514 162.811 63.5278 162.811 63.5278L166.526 53.711Z" fill="#174955" stroke="#174955" stroke-width="0.814667" stroke-miterlimit="10" stroke-linecap="round" stroke-linejoin="round"/>
<path d="M164.025 48.8722C164.025 48.8722 157.28 52.9211 157.622 63.0311C157.956 73.1493 160.995 83.7644 161.166 84.2695C161.337 84.7746 164.196 90.6727 164.196 90.6727C164.196 90.6727 165.035 101.63 169.931 104.669C174.819 107.699 186.958 113.101 192.351 113.606C197.744 114.111 202.298 113.94 204.49 108.547C206.681 103.153 207.52 89.4996 207.52 84.6116C207.52 79.7236 206.168 75.6747 206.168 73.3203C206.168 70.966 206.673 69.2715 205.663 62.5342C204.653 55.7887 199.765 47.8702 193.353 44.1553C186.958 40.4404 170.942 42.1268 164.025 48.8722Z" fill="white" stroke="#174955" stroke-width="0.814667" stroke-miterlimit="10" stroke-linecap="round" stroke-linejoin="round"/>
<path d="M204.49 108.547C206.037 104.742 206.909 96.8479 207.292 90.795L202.64 89.8336C202.64 89.8336 202.64 89.8336 200.449 90.6727C198.257 91.5119 195.895 89.9966 195.895 89.9966C195.895 89.9966 192.017 89.9966 187.3 92.522C182.583 95.0475 179.887 97.239 179.887 97.239L171.96 93.6952C171.96 93.6952 167.911 77.8499 167.243 74.6483C166.567 71.4466 172.636 69.2552 173.646 67.0637C174.656 64.8723 171.121 63.691 169.434 60.1553C167.748 56.6115 172.302 51.2184 172.302 51.2184C173.988 50.3793 175.675 49.7032 179.381 49.7032C183.088 49.7032 187.308 51.8946 191.52 52.9048C195.732 53.915 198.933 49.5321 198.933 49.5321L199.414 49.3366C197.646 47.2429 195.602 45.4343 193.369 44.139C186.966 40.4323 170.95 42.1186 164.033 48.8559C164.033 48.8559 157.288 52.9048 157.63 63.0148C157.964 73.133 161.003 83.7481 161.174 84.2532C161.345 84.7583 164.204 90.6565 164.204 90.6565C164.204 90.6565 165.043 101.614 169.94 104.652C174.828 107.683 186.966 113.084 192.359 113.589C197.744 114.111 202.298 113.94 204.49 108.547Z" fill="#174955" stroke="#174955" stroke-width="0.814667" stroke-miterlimit="10" stroke-linecap="round" stroke-linejoin="round"/>
<path d="M198.925 78.0291L202.632 89.8336C202.632 89.8336 201.793 91.5199 198.42 91.3489C195.048 91.1778 194.371 88.8234 194.371 88.8234" fill="white"/>
<path d="M198.925 78.0291L202.632 89.8336C202.632 89.8336 201.793 91.5199 198.42 91.3489C195.048 91.1778 194.371 88.8234 194.371 88.8234" stroke="#174955" stroke-width="0.814667" stroke-miterlimit="10" stroke-linecap="round" stroke-linejoin="round"/>
<path d="M198.037 71.0474C198.037 71.0474 198.208 69.361 200.734 68.5219C203.259 67.6828 204.612 68.8559 204.612 68.8559" stroke="#174955" stroke-width="1.62933" stroke-miterlimit="10" stroke-linecap="round" stroke-linejoin="round"/>
<path d="M190.787 70.5422C190.787 70.5422 187.756 68.1797 184.041 69.0269C180.335 69.8661 177.972 71.7235 177.972 71.7235" stroke="#174955" stroke-width="1.62933" stroke-miterlimit="10" stroke-linecap="round" stroke-linejoin="round"/>
<path d="M186.909 80.6523C187.656 80.6523 188.261 79.5946 188.261 78.2898C188.261 76.985 187.656 75.9272 186.909 75.9272C186.162 75.9272 185.557 76.985 185.557 78.2898C185.557 79.5946 186.162 80.6523 186.909 80.6523Z" fill="#174955"/>
<path d="M204.441 76.9455C204.441 78.249 203.838 79.3081 203.088 79.3081C202.347 79.3081 201.736 78.249 201.736 76.9455C201.736 75.6421 202.339 74.583 203.088 74.583C203.838 74.583 204.441 75.6421 204.441 76.9455Z" fill="#174955"/>
<path d="M162.51 82.249C162.51 82.249 159.479 77.1899 155.764 78.5423C152.058 79.8946 154.249 86.803 156.269 89.8335C158.29 92.8641 165.206 93.7113 165.206 93.7113L162.51 82.249Z" fill="white" stroke="#174955" stroke-width="0.814667" stroke-miterlimit="10" stroke-linecap="round" stroke-linejoin="round"/>
<path d="M197.915 97.7601C197.915 97.7601 193.027 97.9312 188.644 94.2163C188.644 94.2163 189.149 100.962 192.188 101.296C195.219 101.63 197.915 97.7601 197.915 97.7601Z" fill="white" stroke="#174955" stroke-width="0.814667" stroke-miterlimit="10" stroke-linecap="round" stroke-linejoin="round"/>
<path d="M123.333 133.003L101.874 188.685C101.874 188.685 98.6237 199.357 102.339 204.001C106.053 208.644 116.726 204.001 120.905 199.357C125.084 194.714 138.078 164.547 138.078 164.547L123.333 133.003Z" fill="#72B6C5" stroke="#174955" stroke-width="0.814667" stroke-miterlimit="10" stroke-linecap="round" stroke-linejoin="round"/>
<path d="M168.701 114.281C168.701 114.281 182.355 181.891 183.455 186.958C184.555 192.025 182.795 247.52 181.255 261.174C179.716 274.828 172.009 286.502 161.654 287.382C151.3 288.262 142.713 284.074 134.567 278.795C126.42 273.508 122.673 270.869 122.673 270.869C122.673 270.869 137.866 210.966 137.426 208.767C136.986 206.567 133.899 180.359 133.899 180.359C133.899 180.359 122.005 135.87 123.324 133.011C124.652 130.143 168.701 114.281 168.701 114.281Z" fill="#72B6C5" stroke="#174955" stroke-width="0.814667" stroke-miterlimit="10" stroke-linecap="round" stroke-linejoin="round"/>
<path d="M168.701 166.917C172.546 172.595 180.18 183.716 183.65 188.758C183.601 187.936 183.536 187.316 183.463 186.958C182.363 181.891 168.709 114.281 168.709 114.281C168.709 114.281 165.011 115.618 159.724 117.573L160.343 140.489L169.589 143.789L160.123 147.316C160.115 147.316 163.634 159.43 168.701 166.917Z" fill="#72B6C5" stroke="#174955" stroke-width="0.814667" stroke-miterlimit="10" stroke-linecap="round" stroke-linejoin="round"/>
<path d="M204.604 115.61C204.604 115.61 205.703 147.325 203.944 163.398C202.184 179.472 201.524 185.639 201.304 187.406C201.084 189.166 208.131 274.177 208.791 278.364C209.451 282.551 213.638 285.631 221.565 286.511C229.492 287.39 237.638 278.584 237.638 276.824C237.638 275.065 225.524 210.535 225.304 209.875C225.084 209.215 231.031 135.659 231.031 135.659C231.031 135.659 206.143 116.49 204.604 115.61Z" fill="#72B6C5" stroke="#174955" stroke-width="0.814667" stroke-miterlimit="10" stroke-linecap="round" stroke-linejoin="round"/>
<path d="M203.935 163.398C202.453 176.954 201.744 183.464 201.434 186.225C203.846 183.024 207.927 177.231 211.65 170.225C217.377 159.431 218.257 153.264 218.257 153.264L211.65 146.217H217.377L210.159 119.691C207.21 117.467 205.027 115.846 204.603 115.602C204.603 115.61 205.703 147.317 203.935 163.398Z" fill="#72B6C5" stroke="#174955" stroke-width="0.814667" stroke-miterlimit="10" stroke-linecap="round" stroke-linejoin="round"/>
<path d="M117.776 117.1C117.776 117.1 116.84 110.021 115.593 107.626C114.347 105.231 115.284 104.815 116.636 104.815C117.988 104.815 120.074 107.626 120.489 109.19C120.905 110.754 120.905 110.754 120.905 110.754L117.776 117.1Z" fill="white" stroke="#174955" stroke-width="0.814667" stroke-miterlimit="10" stroke-linecap="round" stroke-linejoin="round"/>
<path d="M122.567 130.323C122.567 130.323 116.734 122.2 116.636 121.06C116.53 119.911 120.595 106.274 120.693 105.964C120.799 105.655 126.004 99.6097 126.42 99.3001C126.835 98.9905 128.188 98.6728 128.4 99.0883C128.611 99.5038 128.611 100.441 128.188 100.962C127.772 101.483 124.229 105.858 124.229 105.858L123.503 109.712C123.503 109.712 125.271 107.211 125.271 106.901C125.271 106.591 127.878 103.781 129.328 102.42C130.787 101.068 132.872 99.1942 133.385 100.025C133.907 100.856 133.907 101.378 133.597 101.793C133.288 102.208 128.701 106.893 128.497 107.211C128.286 107.52 125.059 115.748 125.059 115.748C125.059 115.748 128.807 110.437 129.328 109.5C129.85 108.563 134.013 105.54 134.428 105.019C134.844 104.498 136.823 104.082 136.408 105.85C135.992 107.618 132.351 110.119 132.351 110.119L130.371 115.113C130.371 115.113 135.438 111.602 136.22 111.211C137.002 110.82 138.754 111.602 138.167 112.384C137.581 113.166 132.123 117.451 132.123 117.451L129.98 121.353C129.98 121.353 138.363 130.518 138.559 135.585C138.754 140.653 138.559 148.644 138.559 148.644L125.108 140.653L126.086 137.337L122.567 130.323Z" fill="white" stroke="#174955" stroke-width="0.814667" stroke-miterlimit="10" stroke-linecap="round" stroke-linejoin="round"/>
<path d="M130.371 115.121L126.73 119.805C126.73 119.805 126.314 121.158 126.42 121.785" stroke="#174955" stroke-width="0.814667" stroke-miterlimit="10" stroke-linecap="round" stroke-linejoin="round"/>
<path d="M125.271 114.811L123.813 118.143C123.813 118.143 122.982 119.707 123.292 120.432" stroke="#174955" stroke-width="0.814667" stroke-miterlimit="10" stroke-linecap="round" stroke-linejoin="round"/>
<path d="M123.504 109.711C123.504 109.711 119.447 117.622 119.341 118.249C119.235 118.876 120.278 120.335 120.278 120.335" stroke="#174955" stroke-width="0.814667" stroke-miterlimit="10" stroke-linecap="round" stroke-linejoin="round"/>
<path d="M124.978 138.591L141.581 148.261L138.216 156.253L122.029 146.16L124.978 138.591Z" fill="white" stroke="#174955" stroke-width="0.814667" stroke-miterlimit="10" stroke-linecap="round" stroke-linejoin="round"/>
<path d="M121.402 144.481L143.471 158.982C143.471 158.982 130.648 192.188 130.233 193.239C129.809 194.29 123.503 207.74 119.096 210.681C114.681 213.622 106.07 212.359 102.493 208.156C98.9168 203.952 98.5013 198.485 99.764 195.333C101.019 192.188 121.402 144.481 121.402 144.481Z" fill="#72B6C5" stroke="#174955" stroke-width="0.814667" stroke-miterlimit="10" stroke-linecap="round" stroke-linejoin="round"/>
<path d="M273.842 277.068H252.449V281.427H273.842V277.068Z" fill="white" stroke="#174955" stroke-width="0.814667" stroke-miterlimit="10" stroke-linecap="round" stroke-linejoin="round"/>
<path d="M271.17 312.563H255.129L252.449 283.414H273.85L271.17 312.563Z" fill="#BAD0D5" stroke="#174955" stroke-width="0.814667" stroke-miterlimit="10" stroke-linecap="round" stroke-linejoin="round"/>
<path d="M275.96 279.944H250.339V285.125H275.96V279.944Z" fill="white" stroke="#174955" stroke-width="0.814667" stroke-miterlimit="10" stroke-linecap="round" stroke-linejoin="round"/>
<path d="M542.527 277.068H521.134V281.427H542.527V277.068Z" fill="white" stroke="#174955" stroke-width="0.814667" stroke-miterlimit="10" stroke-linecap="round" stroke-linejoin="round"/>
<path d="M539.855 312.563H523.806L521.134 283.414H542.527L539.855 312.563Z" fill="#BAD0D5" stroke="#174955" stroke-width="0.814667" stroke-miterlimit="10" stroke-linecap="round" stroke-linejoin="round"/>
<path d="M544.637 279.944H519.016V285.125H544.637V279.944Z" fill="white" stroke="#174955" stroke-width="0.814667" stroke-miterlimit="10" stroke-linecap="round" stroke-linejoin="round"/>
<path d="M420.229 309.712H369.134V312.384H420.229V309.712Z" fill="#D5E3E8" stroke="#174955" stroke-width="0.814667" stroke-miterlimit="10" stroke-linecap="round" stroke-linejoin="round"/>
<path d="M363.895 244.327H261.28L267.642 312.384H370.258L363.895 244.327Z" fill="#D5E3E8" stroke="#174955" stroke-width="0.814667" stroke-miterlimit="10" stroke-linecap="round" stroke-linejoin="round"/>
<path d="M37.4256 312.563H582.413" stroke="#174955" stroke-width="0.814667" stroke-miterlimit="10" stroke-linecap="round" stroke-linejoin="round"/>
<path d="M498.321 82.3633C510.334 82.3633 520.072 72.6251 520.072 60.6123C520.072 48.5996 510.334 38.8613 498.321 38.8613C486.308 38.8613 476.57 48.5996 476.57 60.6123C476.57 72.6251 486.308 82.3633 498.321 82.3633Z" fill="#E0B0FF"/>
<path d="M492.326 76.3677C504.339 76.3677 514.077 66.6295 514.077 54.6167C514.077 42.604 504.339 32.8657 492.326 32.8657C480.313 32.8657 470.575 42.604 470.575 54.6167C470.575 66.6295 480.313 76.3677 492.326 76.3677Z" fill="#FFF79A" stroke="#0E2B32" stroke-width="1.99185" stroke-miterlimit="10"/>
<path d="M503.759 207.152L511.965 222.161L526.974 230.367L511.965 238.584L503.759 253.592L495.542 238.584L480.534 230.367L495.542 222.161L503.759 207.152Z" fill="#FFF79A"/>
<path d="M110.863 223.087L112.909 226.83L116.653 228.877L112.909 230.926L110.863 234.67L108.813 230.926L105.07 228.877L108.813 226.83L110.863 223.087Z" fill="#F9CBCB"/>
<path d="M438.706 85.6497L440.114 88.2246L442.689 89.6325L440.114 91.0421L438.706 93.6171L437.296 91.0421L434.721 89.6325L437.296 88.2246L438.706 85.6497Z" fill="#F9CBCB"/>
<path d="M88.9525 117.519L90.9992 121.263L94.7425 123.309L90.9992 125.359L88.9525 129.102L86.9032 125.359L83.1599 123.309L86.9032 121.263L88.9525 117.519Z" fill="#F9CBCB"/>
<path d="M256.268 211.136L258.314 214.88L262.058 216.926L258.314 218.976L256.268 222.719L254.218 218.976L250.475 216.926L254.218 214.88L256.268 211.136Z" fill="#F9CBCB"/>
</svg>
