<svg width="607" height="471" viewBox="0 0 607 471" fill="none" xmlns="http://www.w3.org/2000/svg">
<path d="M337.346 76.7383C395.412 68.4524 528.783 50.3939 555.234 163.739C585.803 294.72 407.162 280.41 339.863 361.303C292.233 418.567 178.93 508.649 127.681 375.746C77.8268 246.435 40.3266 153.382 104.28 96.9605C168.218 40.5336 249.585 89.2649 337.346 76.7383Z" fill="#D4E9ED"/>
<path d="M260.056 366.701H229.489V439.48H260.056V366.701Z" stroke="#174955" stroke-width="0.788" stroke-miterlimit="10" stroke-linecap="round" stroke-linejoin="round"/>
<path d="M217.118 383.517H186.551V439.48H217.118V383.517Z" stroke="#174955" stroke-width="0.788" stroke-miterlimit="10" stroke-linecap="round" stroke-linejoin="round"/>
<path d="M174.179 406.81H143.613V439.48H174.179V406.81Z" stroke="#174955" stroke-width="0.788" stroke-miterlimit="10" stroke-linecap="round" stroke-linejoin="round"/>
<path d="M131.241 427.865H100.675V439.48H131.241V427.865Z" stroke="#174955" stroke-width="0.788" stroke-miterlimit="10" stroke-linecap="round" stroke-linejoin="round"/>
<path d="M88.3032 434.083H57.7367V439.48H88.3032V434.083Z" stroke="#174955" stroke-width="0.788" stroke-miterlimit="10" stroke-linecap="round" stroke-linejoin="round"/>
<path d="M558.818 302.266H487.047C485.148 302.266 483.604 300.721 483.604 298.822V236.562C483.604 234.663 485.148 233.119 487.047 233.119H558.818C560.717 233.119 562.262 234.663 562.262 236.562V298.822C562.262 300.721 560.725 302.266 558.818 302.266Z" fill="#174955" stroke="#174955" stroke-width="0.788" stroke-miterlimit="10" stroke-linecap="round" stroke-linejoin="round"/>
<path d="M556.32 298.523H484.549C482.65 298.523 481.106 296.978 481.106 295.079V232.819C481.106 230.92 482.65 229.376 484.549 229.376H556.32C558.219 229.376 559.764 230.92 559.764 232.819V295.079C559.772 296.978 558.227 298.523 556.32 298.523Z" fill="white" stroke="#174955" stroke-width="0.788" stroke-miterlimit="10" stroke-linecap="round" stroke-linejoin="round"/>
<path d="M559.772 238.115V232.819C559.772 230.92 558.227 229.376 556.328 229.376H484.557C482.658 229.376 481.114 230.92 481.114 232.819V238.115H559.772Z" fill="#F8C5A3" stroke="#174955" stroke-width="0.788" stroke-miterlimit="10" stroke-linecap="round" stroke-linejoin="round"/>
<path d="M539.016 236.066C540.178 236.066 541.12 235.124 541.12 233.962C541.12 232.8 540.178 231.858 539.016 231.858C537.854 231.858 536.912 232.8 536.912 233.962C536.912 235.124 537.854 236.066 539.016 236.066Z" fill="white" stroke="#174955" stroke-width="0.788" stroke-miterlimit="10" stroke-linecap="round" stroke-linejoin="round"/>
<path d="M547.794 233.962C547.794 232.796 546.848 231.858 545.69 231.858C544.524 231.858 543.586 232.804 543.586 233.962C543.586 235.128 544.532 236.066 545.69 236.066C546.856 236.074 547.794 235.128 547.794 233.962Z" fill="white" stroke="#174955" stroke-width="0.788" stroke-miterlimit="10" stroke-linecap="round" stroke-linejoin="round"/>
<path d="M552.357 236.066C553.519 236.066 554.461 235.124 554.461 233.962C554.461 232.8 553.519 231.858 552.357 231.858C551.195 231.858 550.253 232.8 550.253 233.962C550.253 235.124 551.195 236.066 552.357 236.066Z" fill="white" stroke="#174955" stroke-width="0.788" stroke-miterlimit="10" stroke-linecap="round" stroke-linejoin="round"/>
<path d="M550.024 242.858H491.799C490.806 242.858 489.994 243.662 489.994 244.663V260.179V266.758L494.194 260.179H550.024C551.017 260.179 551.828 259.375 551.828 258.374V244.663C551.828 243.662 551.017 242.858 550.024 242.858Z" stroke="#174955" stroke-width="0.788" stroke-miterlimit="10"/>
<path d="M491.799 270.486H550.024C551.017 270.486 551.829 271.29 551.829 272.29V287.806V294.386L547.629 287.806H491.807C490.814 287.806 490.002 287.002 490.002 286.002V272.29C489.994 271.29 490.806 270.486 491.799 270.486Z" stroke="#174955" stroke-width="0.788" stroke-miterlimit="10"/>
<path d="M500.632 256.672C503.539 256.672 505.896 254.315 505.896 251.408C505.896 248.501 503.539 246.144 500.632 246.144C497.725 246.144 495.368 248.501 495.368 251.408C495.368 254.315 497.725 256.672 500.632 256.672Z" fill="#F8C5A3" stroke="#174955" stroke-width="0.788" stroke-miterlimit="10" stroke-linecap="round" stroke-linejoin="round"/>
<path d="M500.632 252.062C501.842 252.062 502.823 251.082 502.823 249.872C502.823 248.662 501.842 247.681 500.632 247.681C499.422 247.681 498.442 248.662 498.442 249.872C498.442 251.082 499.422 252.062 500.632 252.062Z" fill="white" stroke="#174955" stroke-width="0.788" stroke-miterlimit="10" stroke-linecap="round" stroke-linejoin="round"/>
<path d="M500.632 256.672C501.783 256.672 502.839 256.302 503.705 255.671C503.682 253.993 502.319 252.63 500.632 252.63C498.946 252.63 497.575 253.985 497.559 255.671C498.418 256.294 499.482 256.672 500.632 256.672Z" fill="white" stroke="#174955" stroke-width="0.788" stroke-miterlimit="10" stroke-linecap="round" stroke-linejoin="round"/>
<path d="M509.623 247.027H527.503" stroke="#174955" stroke-width="0.788" stroke-miterlimit="10"/>
<path d="M509.994 252.117H546.88" stroke="#174955" stroke-width="0.788" stroke-miterlimit="10"/>
<path d="M509.994 255.348H546.88" stroke="#174955" stroke-width="0.788" stroke-miterlimit="10"/>
<path d="M500.632 284.859C503.539 284.859 505.896 282.502 505.896 279.595C505.896 276.688 503.539 274.331 500.632 274.331C497.725 274.331 495.368 276.688 495.368 279.595C495.368 282.502 497.725 284.859 500.632 284.859Z" fill="#174955" stroke="#174955" stroke-width="0.788" stroke-miterlimit="10" stroke-linecap="round" stroke-linejoin="round"/>
<path d="M500.632 280.257C501.842 280.257 502.823 279.276 502.823 278.066C502.823 276.857 501.842 275.876 500.632 275.876C499.422 275.876 498.442 276.857 498.442 278.066C498.442 279.276 499.422 280.257 500.632 280.257Z" fill="white" stroke="#174955" stroke-width="0.788" stroke-miterlimit="10" stroke-linecap="round" stroke-linejoin="round"/>
<path d="M500.632 284.859C501.783 284.859 502.839 284.489 503.705 283.858C503.682 282.18 502.319 280.817 500.632 280.817C498.946 280.817 497.575 282.172 497.559 283.858C498.418 284.489 499.482 284.859 500.632 284.859Z" fill="white" stroke="#174955" stroke-width="0.788" stroke-miterlimit="10" stroke-linecap="round" stroke-linejoin="round"/>
<path d="M509.623 275.214H527.503" stroke="#174955" stroke-width="0.788" stroke-miterlimit="10"/>
<path d="M509.994 280.304H546.88" stroke="#174955" stroke-width="0.788" stroke-miterlimit="10"/>
<path d="M509.994 283.535H546.88" stroke="#174955" stroke-width="0.788" stroke-miterlimit="10"/>
<path d="M541.411 143.634C554.65 143.838 565.705 148.858 574.405 158.905C575.595 160.276 575.445 162.183 574.121 163.318C572.86 164.405 570.977 164.263 569.819 162.916C566.659 159.244 562.987 156.202 558.692 153.948C545.217 146.88 529.103 148.614 517.495 158.432C515.896 159.788 514.47 161.356 513.027 162.884C511.775 164.208 509.939 164.421 508.615 163.286C507.315 162.159 507.212 160.252 508.402 158.873C515.691 150.426 524.871 145.422 535.927 143.901C536.794 143.783 537.668 143.689 538.543 143.649C539.496 143.594 540.45 143.634 541.411 143.634Z" fill="#174955"/>
<path d="M542.506 155.911C550.875 156.131 558.747 159.701 564.933 166.856C566.154 168.266 566.012 170.087 564.657 171.253C563.365 172.364 561.497 172.214 560.307 170.835C557.077 167.092 553.16 164.35 548.385 163.066C538.653 160.442 530.245 162.837 523.2 170.039C522.94 170.307 522.696 170.591 522.444 170.875C521.278 172.183 519.402 172.356 518.134 171.277C516.794 170.134 516.652 168.251 517.826 166.864C520.584 163.609 523.87 161.025 527.692 159.126C532.026 156.974 536.612 155.926 542.506 155.911Z" fill="#174955"/>
<path d="M556.273 176.848C556.273 178.124 555.501 179.251 554.319 179.708C553.129 180.173 551.805 179.866 550.907 178.849C549.591 177.36 548.07 176.154 546.234 175.374C541.206 173.247 535.667 174.571 531.932 178.786C531.049 179.787 529.938 180.15 528.661 179.763C527.432 179.393 526.723 178.503 526.534 177.234C526.4 176.344 526.668 175.548 527.243 174.854C533.642 167.14 545.414 166.044 553.113 172.474C553.988 173.207 554.807 174.027 555.532 174.901C555.958 175.422 556.139 176.131 556.431 176.761C556.383 176.801 556.328 176.824 556.273 176.848Z" fill="#174955"/>
<path d="M541.403 192.923C537.968 192.923 535.241 190.204 535.249 186.769C535.249 183.396 537.991 180.646 541.38 180.638C544.784 180.622 547.542 183.388 547.534 186.808C547.518 190.204 544.8 192.923 541.403 192.923Z" fill="#174955"/>
<path d="M493.118 396.663C513.748 376.033 513.748 342.584 493.118 321.954C472.488 301.324 439.04 301.324 418.409 321.954C397.779 342.584 397.779 376.033 418.409 396.663C439.04 417.293 472.488 417.293 493.118 396.663Z" stroke="#174955" stroke-width="1.576" stroke-miterlimit="10" stroke-linecap="round" stroke-linejoin="round"/>
<path d="M455.771 412.137C470.203 412.137 481.901 388.485 481.901 359.309C481.901 330.133 470.203 306.482 455.771 306.482C441.34 306.482 429.641 330.133 429.641 359.309C429.641 388.485 441.34 412.137 455.771 412.137Z" stroke="#174955" stroke-width="1.576" stroke-miterlimit="10" stroke-linecap="round" stroke-linejoin="round"/>
<path d="M419.421 321.95C428.893 330.933 441.69 336.441 455.771 336.441C470.105 336.441 483.107 330.736 492.626 321.461" stroke="#174955" stroke-width="1.576" stroke-miterlimit="10" stroke-linecap="round" stroke-linejoin="round"/>
<path d="M492.271 396.818C482.784 387.748 469.932 382.177 455.771 382.177C441.343 382.177 428.27 387.961 418.735 397.33" stroke="#174955" stroke-width="1.576" stroke-miterlimit="10" stroke-linecap="round" stroke-linejoin="round"/>
<path d="M402.944 359.309H508.599" stroke="#174955" stroke-width="1.576" stroke-miterlimit="10" stroke-linecap="round" stroke-linejoin="round"/>
<path d="M455.771 306.482V412.145" stroke="#174955" stroke-width="1.576" stroke-miterlimit="10" stroke-linecap="round" stroke-linejoin="round"/>
<path d="M457.694 257.365C456.402 257.365 455.212 257.799 454.258 258.524L440.61 248.288C440.854 247.657 440.988 246.972 440.988 246.255C440.988 243.11 438.435 240.557 435.291 240.557C432.147 240.557 429.594 243.11 429.594 246.255C429.594 249.399 432.147 251.952 435.291 251.952C436.583 251.952 437.773 251.518 438.727 250.793L452.375 261.03C452.131 261.66 451.997 262.346 451.997 263.063C451.997 263.78 452.139 264.465 452.375 265.096L438.727 275.332C437.773 274.607 436.583 274.173 435.291 274.173C432.147 274.173 429.594 276.727 429.594 279.871C429.594 283.015 432.147 285.568 435.291 285.568C438.435 285.568 440.988 283.015 440.988 279.871C440.988 279.154 440.847 278.468 440.61 277.838L454.258 267.602C455.212 268.326 456.402 268.76 457.694 268.76C460.838 268.76 463.391 266.207 463.391 263.063C463.391 259.919 460.838 257.365 457.694 257.365Z" fill="#174955"/>
<path d="M387.223 138.897C379.296 138.897 372.866 145.328 372.866 153.255C372.866 161.182 387.223 177.399 387.223 177.399C387.223 177.399 401.581 161.182 401.581 153.255C401.581 145.32 395.15 138.897 387.223 138.897ZM387.223 159.779C383.622 159.779 380.699 156.856 380.699 153.255C380.699 149.654 383.622 146.73 387.223 146.73C390.824 146.73 393.748 149.654 393.748 153.255C393.748 156.856 390.832 159.779 387.223 159.779Z" fill="#174955" stroke="#174955" stroke-width="0.788" stroke-miterlimit="10" stroke-linecap="round" stroke-linejoin="round"/>
<path d="M535.351 332.178C530.356 332.178 526.297 336.229 526.297 341.232C526.297 346.228 535.351 356.457 535.351 356.457C535.351 356.457 544.406 346.228 544.406 341.232C544.398 336.236 540.347 332.178 535.351 332.178ZM535.351 345.346C533.082 345.346 531.238 343.502 531.238 341.232C531.238 338.963 533.082 337.119 535.351 337.119C537.621 337.119 539.465 338.963 539.465 341.232C539.465 343.51 537.621 345.346 535.351 345.346Z" fill="#E0B0FF" stroke="#174955" stroke-width="0.788" stroke-miterlimit="10" stroke-linecap="round" stroke-linejoin="round"/>
<path d="M490.081 86.5821V212.82C490.081 216.586 487.173 219.644 483.58 219.644H427.868C424.283 219.644 421.367 216.586 421.367 212.82V86.5821C421.367 82.8076 424.275 79.7581 427.868 79.7581H483.58C487.173 79.7581 490.081 82.8155 490.081 86.5821Z" stroke="#174955" stroke-width="0.788" stroke-miterlimit="10"/>
<path d="M490.081 89.3717V86.5821C490.081 82.8076 487.173 79.7581 483.58 79.7581H427.868C424.283 79.7581 421.367 82.8076 421.367 86.5821V89.3717H490.081Z" fill="#D5E3E8" stroke="#174955" stroke-width="0.788" stroke-miterlimit="10" stroke-linecap="round" stroke-linejoin="round"/>
<path d="M491.925 84.7305V89.0251H493.194V101.239H491.925V104.013H493.194V116.227H491.925V119.001H493.194V131.215H491.925V214.672C491.925 219.061 488.536 222.623 484.352 222.623H427.096C422.912 222.623 419.523 219.061 419.523 214.672V111.01H418.617V98.7963H419.523V84.7305C419.523 80.3413 422.912 76.7795 427.096 76.7795H484.352C488.536 76.7795 491.925 80.3413 491.925 84.7305ZM472.13 79.7582L469.892 83.249C469.223 84.2971 468.096 84.9275 466.898 84.9275H444.558C443.352 84.9275 442.234 84.2971 441.564 83.249L439.326 79.7582H428.948C424.764 79.7582 421.375 83.3199 421.375 87.7091V211.693C421.375 216.082 424.764 219.644 428.948 219.644H482.508C486.693 219.644 490.081 216.082 490.081 211.693V87.7091C490.081 83.3199 486.693 79.7582 482.508 79.7582H472.13Z" fill="#174955" stroke="#174955" stroke-width="0.788" stroke-miterlimit="10"/>
<path d="M421.375 210.865V212.82C421.375 216.586 424.283 219.644 427.876 219.644H483.588C487.173 219.644 490.089 216.586 490.089 212.82V210.865H421.375Z" fill="#D5E3E8" stroke="#174955" stroke-width="0.788" stroke-miterlimit="10" stroke-linecap="round" stroke-linejoin="round"/>
<path d="M403.204 247.334C398.791 238.296 389.374 232.047 378.453 232.047C365.632 232.047 354.868 240.668 351.874 252.314C351.432 252.283 350.991 252.251 350.55 252.251C341.109 252.251 333.45 259.745 333.45 268.989C333.45 277.491 339.927 284.489 348.312 285.568V285.726H399.871C410.777 285.726 419.618 277.073 419.618 266.396C419.618 256.822 412.526 248.879 403.204 247.334Z" fill="#174955" stroke="#174955" stroke-width="0.788" stroke-miterlimit="10" stroke-linecap="round" stroke-linejoin="round"/>
<path d="M400.761 244.482C396.348 235.443 386.932 229.195 376.01 229.195C363.189 229.195 352.425 237.815 349.431 249.462C348.989 249.43 348.548 249.399 348.107 249.399C338.667 249.399 331.007 256.893 331.007 266.136C331.007 274.639 337.485 281.636 345.869 282.716V282.873H397.428C408.334 282.873 417.175 274.221 417.175 263.544C417.175 253.969 410.083 246.034 400.761 244.482Z" fill="white" stroke="#174955" stroke-width="0.788" stroke-miterlimit="10" stroke-linecap="round" stroke-linejoin="round"/>
<path d="M392.81 274.804L374.923 243.812L357.027 274.804H362.322V294.59H387.523V274.804H392.81Z" fill="#174955" stroke="#174955" stroke-width="0.788" stroke-miterlimit="10" stroke-linecap="round" stroke-linejoin="round"/>
<path d="M391.187 273.181L373.291 242.189L355.404 273.181H360.691V292.967H385.892V273.181H391.187Z" fill="#F9CBCB" stroke="#174955" stroke-width="0.788" stroke-miterlimit="10" stroke-linecap="round" stroke-linejoin="round"/>
<path d="M149.261 172.134C148.465 172.748 147.645 173.142 146.834 173.323C144.399 173.867 137.906 173.591 136.826 176.57C135.746 179.549 132.768 180.36 132.768 180.36C132.768 180.36 127.63 180.628 127.354 181.716C127.086 182.795 125.187 184.694 125.187 184.694H213.64C213.64 184.694 216.619 180.092 211.749 175.766C207.486 171.976 199.708 177.72 198.731 173.056" stroke="#174955" stroke-width="0.788" stroke-miterlimit="10" stroke-linecap="round" stroke-linejoin="round"/>
<path d="M197.935 166.16C196.95 162.607 194.87 157.8 190.654 156.011C183.618 153.032 177.668 157.091 176.045 161.149C174.422 165.207 173.342 167.91 167.117 164.395C160.892 160.881 155.486 161.149 153.595 165.751C152.98 167.248 152.302 168.517 151.585 169.565" stroke="#174955" stroke-width="0.788" stroke-miterlimit="10" stroke-linecap="round" stroke-linejoin="round"/>
<path d="M66.594 162.065H97.3102C97.3102 162.065 99.1069 159.283 96.1676 156.667C93.2205 154.051 87.4996 158.96 88.3113 153.397C88.3113 153.397 87.6572 146.526 83.402 144.729C80.7071 143.586 78.28 144.154 76.6095 145.344" stroke="#174955" stroke-width="0.788" stroke-miterlimit="10" stroke-linecap="round" stroke-linejoin="round"/>
<path d="M74.5684 147.833C73.5834 150.284 72.9294 151.923 69.1706 149.796C65.404 147.668 62.1338 147.833 60.9912 150.615C59.8486 153.397 58.375 154.87 56.9015 155.193C55.4279 155.524 51.5037 155.359 50.8496 157.156C50.1956 158.952 48.399 159.449 48.399 159.449C48.399 159.449 45.2942 159.614 45.1288 160.268C44.9633 160.922 43.8207 162.065 43.8207 162.065H61.7871" stroke="#174955" stroke-width="0.788" stroke-miterlimit="10" stroke-linecap="round" stroke-linejoin="round"/>
<path d="M78.343 376.574H92.85C92.85 376.574 94.6467 373.792 91.7074 371.176C88.7603 368.56 83.0394 373.469 83.8511 367.906C83.8511 367.906 83.197 361.035 78.9418 359.238C74.6866 357.441 71.0855 359.892 70.1084 362.351C69.1234 364.801 68.4693 366.44 64.7106 364.313C60.9439 362.185 57.6737 362.351 56.5311 365.132C55.3885 367.914 53.915 369.388 52.4414 369.711C50.9678 370.042 47.0436 369.876 46.3896 371.673C45.7355 373.469 43.9389 373.966 43.9389 373.966C43.9389 373.966 40.8342 374.131 40.6687 374.785C40.5032 375.439 39.3606 376.582 39.3606 376.582H73.5204" stroke="#174955" stroke-width="0.788" stroke-miterlimit="10" stroke-linecap="round" stroke-linejoin="round"/>
<path d="M176.851 270.32H201.381C201.381 270.32 204.423 265.616 199.443 261.195C194.463 256.767 184.786 265.064 186.165 255.663C186.165 255.663 185.062 244.048 177.867 241.007C170.673 237.965 164.59 242.11 162.927 246.263C161.264 250.415 160.161 253.181 153.802 249.58C147.443 245.987 141.911 246.263 139.973 250.967C138.034 255.671 135.544 258.161 133.054 258.713C130.564 259.265 123.929 258.989 122.818 262.03C121.715 265.072 118.665 265.9 118.665 265.9C118.665 265.9 113.409 266.175 113.133 267.286C112.857 268.39 110.919 270.328 110.919 270.328H168.687" stroke="#174955" stroke-width="0.788" stroke-miterlimit="10" stroke-linecap="round" stroke-linejoin="round"/>
<g opacity="0.38">
<path d="M306.39 102.043H284.649V123.784H306.39V102.043Z" stroke="#174955" stroke-width="0.788" stroke-miterlimit="10" stroke-linecap="round" stroke-linejoin="round"/>
<path d="M327.477 122.46H316.934V133.003H327.477V122.46Z" stroke="#174955" stroke-width="0.788" stroke-miterlimit="10" stroke-linecap="round" stroke-linejoin="round"/>
<path d="M306.39 144.863H299.802V151.45H306.39V144.863Z" stroke="#174955" stroke-width="0.788" stroke-miterlimit="10" stroke-linecap="round" stroke-linejoin="round"/>
<path d="M320.227 150.135H315.618V154.744H320.227V150.135Z" stroke="#174955" stroke-width="0.788" stroke-miterlimit="10" stroke-linecap="round" stroke-linejoin="round"/>
<path d="M319.463 325.496H314.191V330.768H319.463V325.496Z" stroke="#174955" stroke-width="0.788" stroke-miterlimit="10" stroke-linecap="round" stroke-linejoin="round"/>
<path d="M379.525 210.74H372.275V217.989H379.525V210.74Z" stroke="#174955" stroke-width="0.788" stroke-miterlimit="10" stroke-linecap="round" stroke-linejoin="round"/>
<path d="M319.566 229.848H312.978V236.436H319.566V229.848Z" stroke="#174955" stroke-width="0.788" stroke-miterlimit="10" stroke-linecap="round" stroke-linejoin="round"/>
<path d="M305.177 251.715H290.685V266.207H305.177V251.715Z" stroke="#174955" stroke-width="0.788" stroke-miterlimit="10" stroke-linecap="round" stroke-linejoin="round"/>
<path d="M340.645 308.247H334.719V314.172H340.645V308.247Z" stroke="#174955" stroke-width="0.788" stroke-miterlimit="10" stroke-linecap="round" stroke-linejoin="round"/>
<path d="M299.141 365.558H281.355V383.343H299.141V365.558Z" stroke="#174955" stroke-width="0.788" stroke-miterlimit="10" stroke-linecap="round" stroke-linejoin="round"/>
<path d="M330.101 397.18H320.881V406.4H330.101V397.18Z" stroke="#174955" stroke-width="0.788" stroke-miterlimit="10" stroke-linecap="round" stroke-linejoin="round"/>
<path d="M305.074 339.207H291.899V352.382H305.074V339.207Z" stroke="#174955" stroke-width="0.788" stroke-miterlimit="10" stroke-linecap="round" stroke-linejoin="round"/>
<path d="M322.205 362.926H315.618V369.514H322.205V362.926Z" stroke="#174955" stroke-width="0.788" stroke-miterlimit="10" stroke-linecap="round" stroke-linejoin="round"/>
<path d="M305.074 398.504H298.487V405.092H305.074V398.504Z" stroke="#174955" stroke-width="0.788" stroke-miterlimit="10" stroke-linecap="round" stroke-linejoin="round"/>
<path d="M341.968 388.623H333.403V397.188H341.968V388.623Z" stroke="#174955" stroke-width="0.788" stroke-miterlimit="10" stroke-linecap="round" stroke-linejoin="round"/>
<path d="M375.569 397.842H371.613V401.798H375.569V397.842Z" stroke="#174955" stroke-width="0.788" stroke-miterlimit="10" stroke-linecap="round" stroke-linejoin="round"/>
<path d="M352.504 418.921H345.916V425.509H352.504V418.921Z" stroke="#174955" stroke-width="0.788" stroke-miterlimit="10" stroke-linecap="round" stroke-linejoin="round"/>
<path d="M379.517 324.716H374.245V329.988H379.517V324.716Z" stroke="#174955" stroke-width="0.788" stroke-miterlimit="10" stroke-linecap="round" stroke-linejoin="round"/>
<path d="M348.556 94.1313H341.968V100.719H348.556V94.1313Z" stroke="#174955" stroke-width="0.788" stroke-miterlimit="10" stroke-linecap="round" stroke-linejoin="round"/>
<path d="M314.294 82.272H302.434V94.1314H314.294V82.272Z" stroke="#174955" stroke-width="0.788" stroke-miterlimit="10" stroke-linecap="round" stroke-linejoin="round"/>
<path d="M273.16 77.0474V111.254H280.434V125.084H271.017V147.644H288.44V165.106H280.434V172.387H272.065V237.886H292.813V245.167H281.679V275.001H272.435V287.372H281.166V333.951H271.702V350.688H279.709V360.152H272.435V378.347H278.267V400.064H286.761V418.086H270.796V429.93H279.039V439.969" stroke="#174955" stroke-width="0.788" stroke-miterlimit="10" stroke-linecap="round" stroke-linejoin="round"/>
</g>
<path d="M163.668 308.845C163.668 308.845 159.397 306.355 158.506 305.465C157.616 304.574 150.319 296.214 148.538 296.742C146.757 297.278 144.448 301.194 142.486 304.574C140.532 307.955 134.48 315.078 132.873 319.877C131.273 324.684 133.582 323.967 134.472 323.258C135.363 322.549 143.195 317.742 147.112 315.961C151.028 314.18 152.809 313.644 152.809 313.644L159.751 316.67L163.668 308.845Z" fill="white" stroke="#174955" stroke-width="0.788" stroke-miterlimit="10" stroke-linecap="round" stroke-linejoin="round"/>
<path d="M156.355 303.156C153.794 300.422 149.791 296.363 148.53 296.742C146.749 297.278 144.44 301.194 142.478 304.574C140.524 307.955 134.472 315.078 132.865 319.877C131.265 324.684 133.574 323.967 134.464 323.258C135.355 322.549 143.187 317.742 147.104 315.961C148.774 315.205 150.051 314.669 150.973 314.314L147.64 310.981C147.647 310.981 152.596 305.559 156.355 303.156Z" fill="white" stroke="#174955" stroke-width="0.788" stroke-miterlimit="10" stroke-linecap="round" stroke-linejoin="round"/>
<path d="M150.713 297.75C150.618 297.679 150.524 297.608 150.437 297.545C150.421 297.53 150.398 297.514 150.382 297.506C150.24 297.404 150.106 297.317 149.972 297.23C149.933 297.207 149.901 297.183 149.862 297.167C149.759 297.104 149.665 297.049 149.562 297.002C149.531 296.986 149.499 296.97 149.468 296.954C149.35 296.899 149.239 296.844 149.137 296.813C149.113 296.805 149.097 296.805 149.074 296.797C148.987 296.773 148.908 296.75 148.837 296.742C148.814 296.742 148.79 296.734 148.767 296.734C148.68 296.726 148.601 296.734 148.53 296.75C146.749 297.285 144.44 301.202 142.478 304.582C140.524 307.963 134.472 315.086 132.865 319.885C132.179 321.95 132.211 322.998 132.549 323.463C134.094 318.624 139.594 311.509 144.259 305.827C147.655 301.69 149.649 299.145 150.713 297.75Z" fill="white" stroke="#174955" stroke-width="0.788" stroke-miterlimit="10" stroke-linecap="round" stroke-linejoin="round"/>
<path d="M355.593 323.116C355.593 323.116 364.67 317.246 366.979 315.284C369.296 313.329 372.322 311.194 373.031 312.612C373.74 314.039 373.212 318.31 370.714 323.826C368.224 329.342 361.818 337.174 361.282 337.884C360.746 338.593 360.21 340.728 357.547 340.909C354.876 341.091 349.541 334.676 349.541 334.676L355.593 323.116Z" fill="white" stroke="#174955" stroke-width="0.788" stroke-miterlimit="10" stroke-linecap="round" stroke-linejoin="round"/>
<path d="M357.547 340.917C360.218 340.736 360.754 338.6 361.282 337.891C361.818 337.182 368.224 329.349 370.714 323.833C373.205 318.317 373.74 314.046 373.031 312.62C372.897 312.344 372.669 312.202 372.377 312.171C372.164 313.96 371.558 317.246 369.824 321.524C367.98 326.071 360.967 335.441 356.798 340.823C357.066 340.886 357.318 340.933 357.547 340.917Z" fill="white" stroke="#174955" stroke-width="0.788" stroke-miterlimit="10" stroke-linecap="round" stroke-linejoin="round"/>
<path d="M205.487 252.464C205.487 252.464 202.437 256.207 202.855 261.605C203.272 267.01 214.628 277.121 214.628 277.121C214.628 277.121 219.198 270.194 223.634 266.593C228.071 262.992 235.131 260.218 235.131 260.218L267.55 270.887C267.55 270.887 280.433 262.716 282.648 254.544C284.862 246.373 279.598 227.949 276.832 223.655C274.059 219.36 272.538 215.483 272.538 215.483L228.205 221.582C228.205 221.582 229.174 228.091 222.665 235.435C216.148 242.764 205.487 252.464 205.487 252.464Z" fill="#174955" stroke="#174955" stroke-width="0.788" stroke-miterlimit="10" stroke-linecap="round" stroke-linejoin="round"/>
<path d="M229.347 260.171C229.347 260.171 225.786 274.055 226.676 279.571C227.566 285.087 230.057 289.004 230.057 289.004L222.271 319.657L162.233 307.246L158.317 318.64C158.317 318.64 196.283 328.025 210.522 332.478C224.761 336.93 232.594 339.956 234.012 339.42C235.439 338.884 236.857 337.284 236.857 337.284L254.429 294.709L296.044 297.609C296.044 297.609 308.683 308.467 318.47 315.764C328.257 323.061 349.699 336.835 349.699 336.835C349.699 336.835 352.724 335.409 353.788 331.674C354.86 327.939 355.569 323.132 355.569 323.132C355.569 323.132 353.615 321.178 352.189 320.461C350.762 319.751 348.808 320.279 347.563 319.925C346.318 319.57 318.289 292.447 315.082 289.421C311.875 286.395 307.785 279.28 303.159 277.499C298.534 275.718 267.061 268.011 267.061 268.011L266.525 263.386L229.347 260.171Z" fill="#174955" stroke="#174955" stroke-width="0.788" stroke-miterlimit="10" stroke-linecap="round" stroke-linejoin="round"/>
<path d="M229.528 233.473C229.528 233.473 230.238 251.629 230.064 252.165C229.883 252.7 228.465 259.461 229.355 260.171C230.246 260.88 262.104 264.796 263.704 264.796C265.304 264.796 266.375 265.151 266.549 263.37C266.73 261.589 266.903 259.808 266.903 259.808L276.517 222.433L273.846 195.562L231.309 198.943L229.528 233.473Z" fill="white" stroke="#174955" stroke-width="0.788" stroke-miterlimit="10" stroke-linecap="round" stroke-linejoin="round"/>
<path d="M255.028 237.768C256.313 236.814 257.117 236.216 257.117 236.216" stroke="#174955" stroke-width="0.788" stroke-miterlimit="10" stroke-linecap="round" stroke-linejoin="round"/>
<path d="M230.348 255.86C230.348 255.86 235.1 251.755 237.684 250.25C239.449 249.217 247.826 243.087 252.987 239.273" stroke="#174955" stroke-width="0.788" stroke-miterlimit="10" stroke-linecap="round" stroke-linejoin="round"/>
<path d="M256.904 229.305C256.904 229.305 245.249 241.613 239.418 246.578" stroke="#174955" stroke-width="0.788" stroke-miterlimit="10" stroke-linecap="round" stroke-linejoin="round"/>
<path d="M254.272 255.766C250.15 256.892 244.95 258.303 241.151 259.312" stroke="#174955" stroke-width="0.788" stroke-miterlimit="10" stroke-linecap="round" stroke-linejoin="round"/>
<path d="M261.009 253.922C261.009 253.922 259.307 254.395 256.793 255.08" stroke="#174955" stroke-width="0.788" stroke-miterlimit="10" stroke-linecap="round" stroke-linejoin="round"/>
<path d="M337.784 145.517L346.097 131.806C346.097 131.806 349.699 125.573 349.974 126.542C350.25 127.511 350.392 127.653 349.833 128.756C349.281 129.867 347.343 136.1 347.343 136.1L353.442 129.867C353.442 129.867 355.246 128.898 354.962 130.143C354.687 131.388 350.668 136.652 350.668 136.652C350.668 136.652 357.87 133.744 358.146 134.572C358.422 135.399 351.361 139.977 351.361 139.977C351.361 139.977 358.564 140.253 358.43 141.088C358.288 141.916 352.197 142.475 352.197 142.475C352.197 142.475 351.369 144.28 348.044 146.628C344.718 148.984 342.087 149.811 342.087 149.811L337.784 145.517Z" fill="white" stroke="#174955" stroke-width="0.788" stroke-miterlimit="10" stroke-linecap="round" stroke-linejoin="round"/>
<path d="M341.527 142.049C341.527 142.049 345.27 141.356 348.178 139.418C351.085 137.479 353.717 135.816 353.717 136.786C353.717 137.755 350.392 140.529 349.974 140.804C349.557 141.08 348.863 143.161 347.484 144.957C346.097 146.762 342.362 148.283 342.362 148.283" fill="white"/>
<path d="M341.527 142.049C341.527 142.049 345.27 141.356 348.178 139.418C351.085 137.479 353.717 135.816 353.717 136.786C353.717 137.755 350.392 140.529 349.974 140.804C349.557 141.08 348.863 143.161 347.484 144.957C346.097 146.762 342.362 148.283 342.362 148.283" stroke="#174955" stroke-width="0.788" stroke-miterlimit="10" stroke-linecap="round" stroke-linejoin="round"/>
<path d="M334.041 148.007L338.477 144.13L343.741 150.915L339.722 154.382L334.041 148.007Z" fill="white" stroke="#174955" stroke-width="0.788" stroke-miterlimit="10" stroke-linecap="round" stroke-linejoin="round"/>
<path d="M269.488 204.388C269.488 204.388 269.346 207.02 272.813 216.437C276.281 225.853 280.709 242.346 281.678 247.051C282.648 251.763 282.648 254.529 282.648 254.529C282.648 254.529 286.942 243.725 286.8 232.638C286.659 221.559 280.292 206.043 280.292 206.043C280.292 206.043 304.121 189.976 308.273 186.509C312.426 183.041 340.55 155.477 340.55 155.477L334.041 147.999L301.899 170.583L274.61 184.444C274.61 184.444 269.07 187.628 268.235 189.156C267.408 190.677 266.155 195.665 266.431 197.194C266.714 198.715 269.488 204.388 269.488 204.388Z" fill="#72B6C5" stroke="#174955" stroke-width="0.788" stroke-miterlimit="10" stroke-linecap="round" stroke-linejoin="round"/>
<path d="M275.942 218.801C276.407 219.872 276.895 220.605 276.966 220.881" stroke="#174955" stroke-width="0.788" stroke-miterlimit="10" stroke-linecap="round" stroke-linejoin="round"/>
<path d="M270.316 192.34L275.304 203.978L270.733 203.009L275.997 207.446C275.997 207.446 275.028 211.323 275.028 214.648C275.028 215.759 275.233 216.768 275.501 217.627" stroke="#174955" stroke-width="0.788" stroke-miterlimit="10" stroke-linecap="round" stroke-linejoin="round"/>
<path d="M289.204 185.059L290.402 182.23" stroke="#174955" stroke-width="0.788" stroke-miterlimit="10" stroke-linecap="round" stroke-linejoin="round"/>
<path d="M280.016 187.493L280.291 206.051L288.045 187.793" stroke="#174955" stroke-width="0.788" stroke-miterlimit="10" stroke-linecap="round" stroke-linejoin="round"/>
<path d="M256.935 205.547L261.718 211.756C261.718 211.756 263.145 211.37 265.083 209.432C267.022 207.493 268.96 203.356 269.22 202.576C269.48 201.804 266.762 199.471 266.762 199.471L253.83 199.991L256.935 205.547Z" fill="#174955" stroke="#174955" stroke-width="0.788" stroke-miterlimit="10" stroke-linecap="round" stroke-linejoin="round"/>
<path d="M258.763 159.346C258.763 159.346 266.139 162.372 266.62 163.696C267.101 165.028 267.463 167.928 267.463 167.928C267.463 167.928 275.564 170.591 275.201 172.277C274.839 173.972 272.057 175.784 272.057 175.784C272.057 175.784 273.507 179.653 273.995 182.316C274.476 184.98 274.24 186.304 273.389 187.88C272.546 189.456 270.97 190.543 270.97 190.543C270.97 190.543 267.825 197.556 266.62 201.181C265.414 204.806 264.807 206.626 262.995 205.901C261.183 205.176 260.332 203.963 260.332 203.963C260.332 203.963 257.187 197.194 254.768 194.775C252.349 192.356 250.174 191.024 249.812 190.787C249.449 190.543 247.637 189.582 247.637 188.006C247.637 186.438 249.812 184.98 249.812 184.98C249.812 184.98 243.886 184.862 242.917 177.486C241.948 170.11 248.843 163.341 251.38 161.285C253.925 159.228 258.763 159.346 258.763 159.346Z" fill="white" stroke="#174955" stroke-width="0.788" stroke-miterlimit="10" stroke-linecap="round" stroke-linejoin="round"/>
<path d="M265.926 169.172C266.368 169.921 266.462 170.678 266.147 170.867C265.832 171.056 265.217 170.599 264.776 169.842C264.334 169.094 264.24 168.337 264.555 168.148C264.87 167.967 265.485 168.424 265.926 169.172Z" fill="#174955"/>
<path d="M262.144 167.935C262.144 167.935 262.506 165.879 264.925 165.635" stroke="#174955" stroke-width="0.788" stroke-miterlimit="10" stroke-linecap="round" stroke-linejoin="round"/>
<path d="M262.144 157.778C262.144 157.778 262.262 158.503 260.568 159.346C258.874 160.189 255.856 161.765 253.437 164.185C251.017 166.604 252.956 166.241 253.917 166.722C254.886 167.203 255.367 167.691 254.161 169.984C252.956 172.285 252.956 173.128 252.956 173.128C252.956 173.128 260.576 179.661 261.908 180.748C263.239 181.836 264.689 181.473 264.689 181.473C264.689 181.473 269.646 176.997 270.859 176.391C272.065 175.784 272.065 175.784 272.065 175.784C272.065 175.784 273.877 176.871 274.846 180.378C275.816 183.885 277.266 188.723 276.296 189.81C275.327 190.898 269.89 191.016 264.445 190.291C259 189.566 257.55 185.941 256.951 184.247C256.344 182.553 253.563 176.871 251.994 176.02C250.426 175.177 248.244 176.745 249.457 180.008C250.663 183.27 255.383 183.995 255.501 184.483C255.619 184.964 254.414 187.021 251.876 188.108C249.339 189.196 248.125 188.471 247.645 187.99C247.164 187.509 244.981 188.833 238.575 180.733C232.168 172.632 232.531 171.418 233.13 169.488C233.737 167.549 240.143 157.029 244.13 154.248C248.118 151.466 250.056 151.348 250.418 152.554C250.781 153.759 250.418 154.729 250.418 154.729C250.418 154.729 253.681 149.772 259.244 152.191C264.807 154.61 262.144 157.778 262.144 157.778Z" fill="#174955" stroke="#174955" stroke-width="0.788" stroke-miterlimit="10" stroke-linecap="round" stroke-linejoin="round"/>
<path d="M268.196 180.512C268.196 180.512 269.772 181.962 273.034 181.119" stroke="white" stroke-width="0.788" stroke-miterlimit="10" stroke-linecap="round" stroke-linejoin="round"/>
<path d="M246.077 191.189L242.058 193.727C242.058 193.727 225.849 193.727 224.738 194.838C223.627 195.949 192.737 223.379 192.461 224.758C192.185 226.145 182.351 259.532 182.351 259.532L192.879 263.685L207.284 231.818L225.014 222.812C225.014 222.812 224.738 227.248 221.137 233.339C217.535 239.431 205.479 252.456 205.479 252.456C205.479 252.456 217.811 242.062 225.289 238.603C232.767 235.136 237.48 237.082 243.437 229.596C249.394 222.118 252.72 216.019 252.578 210.062C252.444 204.112 246.077 191.189 246.077 191.189Z" fill="#72B6C5" stroke="#174955" stroke-width="0.788" stroke-miterlimit="10" stroke-linecap="round" stroke-linejoin="round"/>
<path d="M225.013 222.82C225.013 222.82 225.983 219.077 225.155 212.844" stroke="#174955" stroke-width="0.788" stroke-miterlimit="10" stroke-linecap="round" stroke-linejoin="round"/>
<path d="M242.507 228.044C241.664 229.494 241.081 230.439 241.081 230.439" stroke="#174955" stroke-width="0.788" stroke-miterlimit="10" stroke-linecap="round" stroke-linejoin="round"/>
<path d="M243.161 194.42L244.966 203.285L249.118 205.499L245.935 206.468C245.935 206.468 249.118 214.64 246.904 219.628C245.903 221.89 244.611 224.317 243.5 226.295" stroke="#174955" stroke-width="0.788" stroke-miterlimit="10" stroke-linecap="round" stroke-linejoin="round"/>
<path d="M182.351 259.532L180.681 264.623L190.018 268.461L191.185 263.291L182.351 259.532Z" fill="white" stroke="#174955" stroke-width="0.788" stroke-miterlimit="10" stroke-linecap="round" stroke-linejoin="round"/>
<path d="M176.898 273.157L174.274 278.184L175.945 279.059L177.489 276.104L189.356 282.306L187.812 285.261L189.49 286.135L192.114 281.116L176.898 273.157Z" fill="#174955" stroke="#174955" stroke-width="0.788" stroke-miterlimit="10" stroke-linecap="round" stroke-linejoin="round"/>
<path d="M182.682 334.826L138.176 311.564C135.859 310.351 134.961 307.49 136.174 305.173L153.408 272.196C154.621 269.879 157.482 268.981 159.799 270.194L204.305 293.456C206.622 294.669 207.52 297.53 206.306 299.846L189.073 332.824C187.867 335.141 184.999 336.031 182.682 334.826Z" fill="#BAD0D5" stroke="#174955" stroke-width="0.788" stroke-miterlimit="10" stroke-linecap="round" stroke-linejoin="round"/>
<path d="M190.018 268.46L191.854 274.796C191.854 274.796 191.524 278.295 191.524 279.295C191.524 280.296 193.691 282.629 192.524 283.133C191.358 283.637 190.192 283.803 189.687 282.802C189.191 281.801 188.687 280.131 188.687 280.131L187.19 284.796C187.19 284.796 184.518 283.795 183.691 283.125C182.856 282.455 183.021 279.792 183.021 279.792C183.021 279.792 177.852 277.459 177.355 276.459C176.859 275.458 177.355 272.125 177.355 272.125L180.689 264.623L190.018 268.46Z" fill="white" stroke="#174955" stroke-width="0.788" stroke-miterlimit="10" stroke-linecap="round" stroke-linejoin="round"/>
<path d="M248.275 189.251L246.077 191.189L253.838 210.976L261.6 202.568C261.592 202.568 253.318 190.409 248.275 189.251Z" fill="white" stroke="#174955" stroke-width="0.788" stroke-miterlimit="10" stroke-linecap="round" stroke-linejoin="round"/>
<path d="M266.375 202.702L270.126 208.777C270.126 208.777 269.74 201.662 268.314 196.752L266.375 202.702Z" fill="white" stroke="#174955" stroke-width="0.788" stroke-miterlimit="10" stroke-linecap="round" stroke-linejoin="round"/>
<path d="M261.718 211.748C261.718 211.748 260.481 214.088 253.965 213.119C247.456 212.15 239.694 203.703 233.461 202.725C227.228 201.756 216.976 208.407 208.938 206.878C200.901 205.357 193.281 201.197 193.281 201.197L180.255 208.817C180.255 208.817 192.997 214.498 194.25 214.632C195.503 214.766 212.122 216.846 217.244 214.774C222.366 212.694 229.292 207.706 234.564 209.51C239.828 211.315 246.061 219.069 252.436 218.241C258.819 217.414 261.718 211.748 261.718 211.748Z" fill="#174955" stroke="#174955" stroke-width="0.788" stroke-miterlimit="10" stroke-linecap="round" stroke-linejoin="round"/>
<path d="M75.5588 224.566C87.2642 224.566 96.7532 215.077 96.7532 203.371C96.7532 191.666 87.2642 182.177 75.5588 182.177C63.8534 182.177 54.3643 191.666 54.3643 203.371C54.3643 215.077 63.8534 224.566 75.5588 224.566Z" fill="#E0B0FF"/>
<path d="M69.7167 218.724C81.4221 218.724 90.9112 209.235 90.9112 197.529C90.9112 185.824 81.4221 176.335 69.7167 176.335C58.0113 176.335 48.5222 185.824 48.5222 197.529C48.5222 209.235 58.0113 218.724 69.7167 218.724Z" fill="#FFF79A" stroke="#0E2B32" stroke-width="1.94089" stroke-miterlimit="10"/>
<path d="M569.961 301.522L577.957 316.147L592.582 324.143L577.957 332.149L569.961 346.774L561.955 332.149L547.33 324.143L561.955 316.147L569.961 301.522Z" fill="#FFF79A"/>
<path d="M69.6937 335.488L71.6881 339.135L75.3356 341.13L71.6881 343.127L69.6937 346.774L67.6968 343.127L64.0493 341.13L67.6968 339.135L69.6937 335.488Z" fill="#F9CBCB"/>
<path d="M389.149 201.566L390.52 204.075L393.03 205.447L390.52 206.821L389.149 209.33L387.775 206.821L385.266 205.447L387.775 204.075L389.149 201.566Z" fill="#F9CBCB"/>
<path d="M48.3438 232.621L50.3382 236.268L53.9857 238.263L50.3382 240.259L48.3438 243.907L46.347 240.259L42.6995 238.263L46.347 236.268L48.3438 232.621Z" fill="#F9CBCB"/>
<path d="M211.378 323.842L213.373 327.49L217.02 329.484L213.373 331.481L211.378 335.129L209.382 331.481L205.734 329.484L209.382 327.49L211.378 323.842Z" fill="#F9CBCB"/>
<path d="M121.247 90.1401H110.854V111.558H121.247V90.1401Z" fill="#E8C9E5" stroke="#263238" stroke-width="0.970443" stroke-miterlimit="10" stroke-linecap="round" stroke-linejoin="round"/>
<path d="M135.474 85.55H125.08V111.558H135.474V85.55Z" stroke="black" stroke-width="0.970443" stroke-miterlimit="10" stroke-linecap="round" stroke-linejoin="round"/>
<path d="M149.701 73.8171H139.307V111.548H149.701V73.8171Z" fill="#E8C9E5" stroke="#263238" stroke-width="0.970443" stroke-miterlimit="10" stroke-linecap="round" stroke-linejoin="round"/>
<path d="M163.927 66.6748H153.534V111.548H163.927V66.6748Z" stroke="black" stroke-width="0.970443" stroke-miterlimit="10" stroke-linecap="round" stroke-linejoin="round"/>
<path d="M110.63 113.499H141.442" stroke="#263238" stroke-width="0.970443" stroke-miterlimit="10" stroke-linecap="round" stroke-linejoin="round"/>
<path d="M110.63 120.263H141.442" stroke="#263238" stroke-width="0.970443" stroke-miterlimit="10" stroke-linecap="round" stroke-linejoin="round"/>
<path d="M110.63 127.027H141.442" stroke="#263238" stroke-width="0.970443" stroke-miterlimit="10" stroke-linecap="round" stroke-linejoin="round"/>
</svg>
