<svg width="44" height="44" viewBox="0 0 44 44" fill="none" xmlns="http://www.w3.org/2000/svg">
<g clip-path="url(#clip0_1453_4395)">
<path d="M27.065 37.2176H23.6825V33.8351H16.9159V37.2176H13.5333C13.0937 37.2311 12.6767 37.4152 12.3705 37.7309C12.0643 38.0466 11.8931 38.4691 11.8931 38.9089C11.8931 39.3487 12.0643 39.7712 12.3705 40.0869C12.6767 40.4026 13.0937 40.5867 13.5333 40.6001H27.065C27.2915 40.6071 27.517 40.5685 27.7283 40.4866C27.9395 40.4047 28.1322 40.2812 28.2948 40.1235C28.4575 39.9658 28.5868 39.777 28.6751 39.5683C28.7634 39.3597 28.8089 39.1354 28.8089 38.9089C28.8089 38.6823 28.7634 38.4581 28.6751 38.2494C28.5868 38.0408 28.4575 37.852 28.2948 37.6942C28.1322 37.5365 27.9395 37.413 27.7283 37.3312C27.517 37.2493 27.2915 37.2107 27.065 37.2176Z" fill="#A07CC5"/>
<path d="M37.636 6.77014H28.5017C28.6709 7.57102 28.7559 8.38738 28.7555 9.20594V10.1574H37.2126V30.4478H3.38253V10.1495H11.8396V9.19801C11.8384 8.37941 11.9234 7.56297 12.0934 6.76221H2.95912C2.17424 6.76556 1.42257 7.07926 0.868166 7.63485C0.313766 8.19044 0.00166816 8.94279 0 9.72767L0 30.8712C0.0037526 31.6553 0.316888 32.4062 0.871316 32.9606C1.42574 33.5151 2.17663 33.8282 2.9607 33.8319H37.6376C38.4212 33.8274 39.1715 33.5139 39.7255 32.9596C40.2795 32.4053 40.5925 31.6549 40.5967 30.8712V9.72767C40.5917 8.94428 40.278 8.19444 39.7238 7.64078C39.1695 7.08712 38.4194 6.77429 37.636 6.77014Z" fill="#A07CC5"/>
<path d="M27.9103 21.9764H12.6866C12.4624 21.9764 12.2474 21.8874 12.0889 21.7289C11.9304 21.5704 11.8413 21.3554 11.8413 21.1312V19.1489C11.8398 18.5933 11.9485 18.0429 12.161 17.5295C12.3736 17.0161 12.6859 16.55 13.0798 16.1581L15.2239 14.0109V9.198C15.2275 7.14694 15.905 5.1539 17.1522 3.52557L19.6261 0.317479C19.7082 0.219481 19.8109 0.140676 19.9267 0.0866064C20.0426 0.0325369 20.169 0.0045166 20.2969 0.0045166C20.4247 0.0045166 20.5511 0.0325369 20.667 0.0866064C20.7829 0.140676 20.8855 0.219481 20.9677 0.317479L23.4415 3.53508C24.6878 5.16043 25.3664 7.14983 25.373 9.198V14.0109L27.517 16.1549C27.9112 16.547 28.2237 17.0133 28.4363 17.527C28.6489 18.0407 28.7574 18.5914 28.7556 19.1474V21.128C28.7562 21.2394 28.7348 21.3497 28.6926 21.4527C28.6503 21.5557 28.5882 21.6494 28.5096 21.7282C28.431 21.8071 28.3376 21.8696 28.2348 21.9122C28.1319 21.9548 28.0216 21.9767 27.9103 21.9764Z" fill="#D9CBE8"/>
<path d="M24.5277 25.3574C24.0789 25.3574 23.6486 25.1792 23.3312 24.8618C23.0139 24.5445 22.8357 24.1141 22.8357 23.6654V21.1281C22.8357 20.6793 23.0139 20.249 23.3312 19.9316C23.6486 19.6143 24.0789 19.436 24.5277 19.436C24.9765 19.436 25.4069 19.6143 25.7242 19.9316C26.0415 20.249 26.2198 20.6793 26.2198 21.1281V23.6654C26.2193 24.114 26.0409 24.5442 25.7237 24.8614C25.4065 25.1786 24.9763 25.357 24.5277 25.3574ZM16.069 25.3574C15.6202 25.3574 15.1899 25.1792 14.8725 24.8618C14.5552 24.5445 14.377 24.1141 14.377 23.6654V21.1281C14.377 20.6793 14.5552 20.249 14.8725 19.9316C15.1899 19.6143 15.6202 19.436 16.069 19.436C16.5178 19.436 16.9482 19.6143 17.2655 19.9316C17.5828 20.249 17.7611 20.6793 17.7611 21.1281V23.6654C17.7611 24.1141 17.5828 24.5445 17.2655 24.8618C16.9482 25.1792 16.5178 25.3574 16.069 25.3574Z" fill="#D9CBE8"/>
</g>
<defs>
<clipPath id="clip0_1453_4395">
<rect width="44" height="44" fill="white"/>
</clipPath>
</defs>
</svg>
