<svg width="50" height="53" viewBox="0 0 50 53" fill="none" xmlns="http://www.w3.org/2000/svg">
<g clip-path="url(#clip0_172_4827)">
<path d="M25.006 28.9697C22.7211 28.9697 20.5319 28.043 18.869 26.3799L25.006 42.5283L31.1429 26.3799C29.4801 28.043 27.2789 28.9697 25.006 28.9697Z" fill="#C1E5EE"/>
<path d="M25.006 44.0264C24.4317 44.0264 23.9173 43.6582 23.702 43.0869L17.5531 26.9385C17.254 26.1767 17.589 25.3008 18.3067 24.9834C18.8211 24.7549 19.4193 24.8691 19.826 25.2881C22.733 28.1953 27.2669 28.1953 30.1739 25.2881C30.7362 24.7168 31.6214 24.7422 32.1598 25.3262C32.5426 25.7578 32.6622 26.3799 32.4469 26.9385L26.298 43.0869C26.0946 43.6582 25.5802 44.0264 25.006 44.0264ZM21.7162 29.8965L25.006 38.542L28.2958 29.8965C26.1544 30.6455 23.8456 30.6455 21.7162 29.8965Z" fill="#15434E"/>
<path d="M16.1295 41.0049C15.4237 41.0049 14.8256 40.4463 14.7299 39.71C14.4667 37.6025 13.5575 36.6758 12.0621 35.127L11.7152 34.7715C9.203 32.1689 5.75769 28.6016 5.75769 20.1211C5.75769 14.6748 7.80334 9.72363 11.4999 6.15625C15.0529 2.75391 19.838 0.875 25.006 0.875C30.174 0.875 34.9591 2.75391 38.5001 6.15625C39.3016 6.93066 40.0314 7.76855 40.6893 8.68262C41.0602 9.20312 41.4071 9.73633 41.7181 10.2822C41.8737 10.5615 42.0292 10.8408 42.1727 11.1201C42.4598 11.6914 42.723 12.2754 42.9503 12.8721C43.1178 13.3164 43.2733 13.7861 43.4169 14.2432C43.9791 16.1348 44.2543 18.1152 44.2543 20.1084C44.2543 23.6504 43.6681 26.6084 42.4598 29.1475C42.3881 29.2998 42.3163 29.4521 42.2445 29.5918C42.0292 30.0107 41.7899 30.417 41.5387 30.8105C41.455 30.9375 41.3712 31.0645 41.2994 31.1914C40.9884 31.6484 40.6654 32.0928 40.2826 32.5498C39.6127 33.375 38.9069 34.0986 38.2968 34.7334C37.7345 35.3047 36.8492 35.292 36.3109 34.708C35.7726 34.1113 35.7845 33.1719 36.3348 32.6006C36.933 31.9785 37.5551 31.3438 38.1532 30.6074C38.4642 30.2266 38.7394 29.8457 39.0026 29.4648C39.0743 29.3633 39.1342 29.2617 39.2059 29.1602C39.4093 28.8428 39.6007 28.5 39.7682 28.1699C39.828 28.0557 39.8878 27.9287 39.9476 27.8145C40.9525 25.707 41.443 23.1934 41.443 20.1211C41.443 18.4453 41.2037 16.7695 40.7372 15.1572C40.6176 14.7637 40.486 14.3828 40.3424 14.002C40.151 13.5068 39.9357 13.0117 39.6964 12.5293C39.5768 12.2881 39.4452 12.0469 39.3136 11.8184C38.5719 10.5234 37.6627 9.35547 36.61 8.35254C33.5834 5.44531 29.4562 3.8457 25.006 3.8457C20.5558 3.8457 16.4166 5.45801 13.39 8.36523C10.2797 11.3486 8.56897 15.5254 8.56897 20.1084C8.56897 27.332 11.2845 30.1504 13.6891 32.626L14.024 32.9688C15.6271 34.6191 17.1464 36.168 17.5292 39.3037C17.6368 40.1162 17.0865 40.8779 16.3209 40.9795C16.2491 41.0049 16.1893 41.0049 16.1295 41.0049Z" fill="#15434E"/>
<path d="M22.733 51.377H27.2789C27.7335 51.377 28.1642 51.1865 28.4872 50.8438L30.0424 49.1934C30.2816 48.9395 30.4491 48.6094 30.5089 48.2539L31.9923 40.167H17.9957L19.4791 48.2539C19.5509 48.6094 19.7184 48.9395 19.9576 49.1934L21.5128 50.8438C21.8358 51.1865 22.2665 51.377 22.733 51.377Z" fill="#C1E5EE"/>
<path d="M27.267 52.875H22.7331C21.9076 52.875 21.1061 52.5322 20.5199 51.8975L18.9647 50.2471C18.5221 49.7773 18.223 49.1807 18.1034 48.5332L16.62 40.4463C16.4765 39.6338 16.9669 38.8594 17.7326 38.6943C17.8163 38.6816 17.912 38.6689 17.9957 38.6689H31.9923C32.7699 38.6689 33.404 39.3418 33.404 40.167C33.404 40.2686 33.392 40.3574 33.38 40.4463L31.8966 48.5332C31.777 49.1807 31.4779 49.7773 31.0353 50.2471L29.4801 51.8975C28.9059 52.5195 28.1044 52.875 27.267 52.875ZM19.7064 41.6523L20.8668 47.9619C20.8788 48.0254 20.9147 48.0889 20.9506 48.1396L22.5058 49.79C22.5656 49.8535 22.6493 49.8916 22.7331 49.8916H27.279C27.3627 49.8916 27.4464 49.8535 27.5062 49.79L29.0614 48.1396C29.1093 48.0889 29.1332 48.0254 29.1452 47.9619L30.2936 41.6523H19.7064Z" fill="#15434E"/>
<path d="M34.648 41.6269H15.3519C14.5743 41.6016 13.9642 40.916 13.9881 40.0908C14.012 39.3037 14.6102 38.6689 15.3519 38.6435H34.66C35.4376 38.6182 36.0836 39.2656 36.1075 40.0908C36.1314 40.916 35.5213 41.6016 34.7437 41.6269H34.648ZM32.8775 47.251H17.1224C16.3448 47.2256 15.7347 46.54 15.7586 45.7148C15.7825 44.9277 16.3807 44.293 17.1224 44.2676H32.8775C33.6551 44.293 34.2652 44.9785 34.2413 45.8037C34.2174 46.5908 33.6192 47.2256 32.8775 47.251Z" fill="#15434E"/>
</g>
<defs>
<clipPath id="clip0_172_4827">
<rect width="49" height="52" fill="white" transform="translate(0.5 0.875)"/>
</clipPath>
</defs>
</svg>
