<svg width="47" height="44" viewBox="0 0 47 44" fill="none" xmlns="http://www.w3.org/2000/svg">
<rect x="0.5" width="46" height="44" rx="8" fill="#EDE9FF"/>
<path d="M31.9544 30.9859C30.5214 32.2511 28.807 33.1558 26.9538 33.6249C25.1006 34.0939 23.1622 34.1137 21.2999 33.6827C19.4375 33.2516 17.705 32.3821 16.2463 31.1465C14.7877 29.911 13.6452 28.345 12.9137 26.5788C12.1823 24.8127 11.8831 22.8974 12.0411 20.9924C12.199 19.0873 12.8095 17.2475 13.8218 15.6259C14.8341 14.0043 16.2189 12.6478 17.8611 11.6693C19.5032 10.6908 21.3553 10.1185 23.2632 10V15.0266C22.1813 15.1434 21.1415 15.5108 20.2263 16.0995C19.3111 16.6882 18.5457 17.4821 17.9908 18.4182C17.4359 19.3542 17.1067 20.4067 17.0294 21.4922C16.9521 22.5776 17.1289 23.6662 17.5456 24.6714C17.9623 25.6767 18.6075 26.571 19.4301 27.2834C20.2526 27.9958 21.2299 28.5068 22.2843 28.7757C23.3388 29.0447 24.4414 29.0642 25.5047 28.8328C26.568 28.6013 27.5627 28.1253 28.41 27.4424L31.9544 30.9859Z" fill="#8B62FE"/>
<path d="M35.9997 22.7359C35.846 25.4007 34.7942 27.9349 33.0156 29.9252L29.4712 26.3808C30.3161 25.338 30.8381 24.0712 30.9731 22.7359H35.9997ZM35.9997 21.234H30.9731C30.8036 19.6458 30.0951 18.1635 28.9657 17.034C27.8362 15.9045 26.3539 15.1961 24.7656 15.0266V10C27.6857 10.1813 30.439 11.4231 32.5077 13.4919C34.5765 15.5607 35.8183 18.314 35.9997 21.234Z" fill="#8B62FE"/>
</svg>
