<svg width="47" height="44" viewBox="0 0 47 44" fill="none" xmlns="http://www.w3.org/2000/svg">
<rect x="0.5" width="46" height="44" rx="8" fill="#FEF3D8"/>
<g clip-path="url(#clip0_2172_7012)">
<g clip-path="url(#clip1_2172_7012)">
<path d="M23.5 16C22.3133 16 21.1533 16.3519 20.1666 17.0112C19.1799 17.6705 18.4109 18.6075 17.9567 19.7039C17.5026 20.8003 17.3838 22.0067 17.6153 23.1705C17.8468 24.3344 18.4182 25.4035 19.2574 26.2426C20.0965 27.0818 21.1656 27.6532 22.3295 27.8847C23.4933 28.1162 24.6997 27.9974 25.7961 27.5433C26.8925 27.0892 27.8295 26.3201 28.4888 25.3334C29.1481 24.3467 29.5 23.1867 29.5 22C29.4985 20.4092 28.8659 18.8839 27.741 17.759C26.6161 16.6341 25.0908 16.0015 23.5 16ZM26.7325 20.9303L23.4822 24.4375C23.3907 24.5359 23.2802 24.6149 23.1575 24.6697C23.0348 24.7245 22.9023 24.7541 22.768 24.7566C22.6336 24.7592 22.5001 24.7346 22.3754 24.6845C22.2507 24.6343 22.1374 24.5596 22.0422 24.4647L20.2919 22.7106C20.1952 22.6187 20.1178 22.5083 20.0644 22.386C20.011 22.2637 19.9826 22.1319 19.9809 21.9985C19.9792 21.865 20.0043 21.7326 20.0545 21.609C20.1048 21.4853 20.1793 21.373 20.2736 21.2786C20.3679 21.1842 20.4802 21.1097 20.6038 21.0593C20.7274 21.009 20.8598 20.9839 20.9933 20.9855C21.1267 20.9871 21.2585 21.0154 21.3808 21.0687C21.5032 21.122 21.6136 21.1993 21.7056 21.2959L22.7219 22.3113L25.2653 19.5719C25.4475 19.3838 25.6962 19.2746 25.9579 19.2677C26.2197 19.2607 26.4738 19.3566 26.6657 19.5348C26.8576 19.713 26.972 19.9592 26.9845 20.2208C26.997 20.4824 26.9066 20.7384 26.7325 20.9341V20.9303Z" fill="#F9B554"/>
<path d="M12.9995 22C12.9988 20.1087 13.5092 18.2524 14.4768 16.6273C15.4443 15.0023 16.8331 13.6689 18.4961 12.7682C20.1592 11.8675 22.0347 11.433 23.9244 11.5106C25.8141 11.5882 27.6477 12.1751 29.2313 13.2091L27.7182 14.7213C27.6138 14.8263 27.5428 14.9599 27.5142 15.1052C27.4856 15.2506 27.5007 15.4011 27.5576 15.5379C27.6144 15.6747 27.7105 15.7915 27.8337 15.8738C27.9569 15.956 28.1017 15.9999 28.2498 16H32.7498C32.9487 16 33.1395 15.921 33.2801 15.7803C33.4208 15.6397 33.4998 15.4489 33.4998 15.25V10.75C33.4997 10.6015 33.4556 10.4565 33.373 10.3331C33.2904 10.2097 33.1731 10.1137 33.0358 10.057C32.8986 10.0004 32.7476 9.9858 32.6021 10.015C32.4565 10.0443 32.3229 10.116 32.2182 10.2213L30.3048 12.1356C28.3084 10.7439 25.933 9.99846 23.4995 10C21.627 10.0001 19.7805 10.4384 18.1077 11.2798C16.4349 12.1212 14.9823 13.3424 13.8659 14.8457C12.7496 16.349 12.0005 18.0927 11.6786 19.9373C11.3567 21.7819 11.471 23.6762 12.0123 25.4688C12.0378 25.5663 12.0826 25.6577 12.1442 25.7376C12.2059 25.8174 12.2829 25.884 12.3709 25.9333C12.4588 25.9827 12.5558 26.0138 12.656 26.0248C12.7562 26.0358 12.8576 26.0265 12.9542 25.9974C13.0507 25.9684 13.1404 25.9201 13.2179 25.8556C13.2954 25.7911 13.3591 25.7116 13.4051 25.6219C13.4512 25.5322 13.4787 25.4341 13.486 25.3335C13.4933 25.233 13.4802 25.132 13.4476 25.0366C13.1513 24.0516 13.0004 23.0286 12.9995 22ZM34.9867 18.5369C34.9612 18.4393 34.9163 18.3479 34.8547 18.2681C34.7931 18.1883 34.716 18.1217 34.6281 18.0723C34.5401 18.023 34.4432 17.9919 34.3429 17.9808C34.2427 17.9698 34.1413 17.9791 34.0447 18.0082C33.9482 18.0373 33.8585 18.0855 33.781 18.15C33.7035 18.2146 33.6399 18.2941 33.5938 18.3838C33.5477 18.4735 33.5202 18.5715 33.5129 18.6721C33.5056 18.7727 33.5187 18.8737 33.5513 18.9691C34.0242 20.5373 34.1235 22.1945 33.8415 23.808C33.5594 25.4215 32.9038 26.9467 31.927 28.2615C30.9502 29.5764 29.6794 30.6445 28.216 31.3805C26.7527 32.1164 25.1375 32.4998 23.4995 32.5C21.4681 32.5035 19.4801 31.9123 17.7807 30.7994L19.2807 29.2788C19.3851 29.1737 19.4561 29.0401 19.4847 28.8948C19.5133 28.7494 19.4982 28.5989 19.4414 28.4621C19.3845 28.3253 19.2884 28.2085 19.1652 28.1262C19.042 28.044 18.8973 28.0001 18.7492 28H14.2492C14.15 28 14.0519 28.0196 13.9604 28.0578C13.8689 28.096 13.7859 28.1519 13.7162 28.2223C13.6464 28.2928 13.5913 28.3763 13.5541 28.4682C13.5168 28.56 13.4982 28.6584 13.4992 28.7575L13.5488 33.2575C13.5506 33.4054 13.5959 33.5494 13.6793 33.6715C13.7626 33.7937 13.8802 33.8884 14.0173 33.9439C14.1543 33.9994 14.3047 34.0132 14.4496 33.9835C14.5944 33.9537 14.7272 33.8819 14.8313 33.7769L16.7063 31.8775C18.7009 33.262 21.0715 34.0027 23.4995 34C25.3723 34.0009 27.2193 33.5633 28.8926 32.7222C30.5659 31.881 32.019 30.6598 33.1356 29.1562C34.2521 27.6527 35.0011 25.9085 35.3226 24.0635C35.644 22.2185 35.529 20.3238 34.9867 18.5313V18.5369Z" fill="#F9B554"/>
</g>
</g>
<defs>
<clipPath id="clip0_2172_7012">
<rect width="26" height="24" fill="white" transform="translate(10.5 10)"/>
</clipPath>
<clipPath id="clip1_2172_7012">
<rect width="24" height="24.0019" fill="white" transform="translate(11.5 10)"/>
</clipPath>
</defs>
</svg>
