<svg width="47" height="44" viewBox="0 0 47 44" fill="none" xmlns="http://www.w3.org/2000/svg">
<rect x="0.5" width="46" height="44" rx="8" fill="#CCFED4"/>
<g clip-path="url(#clip0_2172_7030)">
<path d="M30.4992 10H17.4999C16.0412 10 14.6423 10.5795 13.6109 11.6109C12.5795 12.6423 12 14.0412 12 15.4999C12 16.9585 12.5795 18.3575 13.6109 19.3889C14.6423 20.4203 16.0412 20.9998 17.4999 20.9998H30.5001C31.2224 20.9997 31.9375 20.8574 32.6048 20.5809C33.272 20.3045 33.8783 19.8993 34.389 19.3886C34.8997 18.8778 35.3047 18.2715 35.5811 17.6042C35.8574 16.9369 35.9996 16.2217 35.9995 15.4994C35.9995 14.7772 35.8572 14.062 35.5807 13.3947C35.3042 12.7275 34.8991 12.1212 34.3883 11.6105C33.8776 11.0999 33.2712 10.6948 32.6039 10.4185C31.9366 10.1421 31.2214 9.99994 30.4992 10ZM17.5008 17.9991C17.0063 17.9991 16.5229 17.8524 16.1117 17.5777C15.7006 17.3029 15.3801 16.9124 15.1909 16.4555C15.0017 15.9986 14.9523 15.4959 15.0488 15.0109C15.1454 14.5259 15.3836 14.0804 15.7333 13.7308C16.083 13.3812 16.5286 13.1431 17.0136 13.0468C17.4987 12.9504 18.0014 13 18.4582 13.1894C18.915 13.3788 19.3054 13.6994 19.58 14.1106C19.8547 14.5219 20.0011 15.0054 20.0009 15.4999C19.9997 16.1625 19.7359 16.7976 19.2672 17.266C18.7986 17.7345 18.1634 17.9981 17.5008 17.9991Z" fill="#5FD35D"/>
<path d="M30.4977 22.9992H17.4984C16.0523 23.0181 14.6718 23.6058 13.6559 24.6351C12.64 25.6644 12.0703 27.0524 12.0703 28.4987C12.0703 29.9449 12.64 31.3329 13.6559 32.3622C14.6718 33.3915 16.0523 33.9792 17.4984 33.9981H30.4986C31.2269 34.0076 31.9497 33.8724 32.6253 33.6003C33.3008 33.3282 33.9156 32.9246 34.434 32.413C34.9523 31.9014 35.3639 31.2919 35.6448 30.62C35.9257 29.948 36.0703 29.227 36.0703 28.4987C36.0703 27.7704 35.9257 27.0493 35.6448 26.3774C35.3639 25.7054 34.9523 25.096 34.434 24.5844C33.9156 24.0727 33.3008 23.6692 32.6253 23.3971C31.9497 23.125 31.2269 22.9897 30.4986 22.9992H30.4977ZM30.4977 30.9983C30.0032 30.9983 29.5198 30.8517 29.1087 30.577C28.6976 30.3022 28.3771 29.9118 28.1879 29.4549C27.9987 28.9981 27.9491 28.4954 28.0456 28.0104C28.1421 27.5255 28.3802 27.08 28.7298 26.7303C29.0795 26.3807 29.525 26.1426 30.0099 26.0461C30.4949 25.9496 30.9976 25.9992 31.4544 26.1884C31.9113 26.3776 32.3017 26.6981 32.5765 27.1092C32.8512 27.5203 32.9978 28.0037 32.9978 28.4982C32.9971 29.161 32.7334 29.7965 32.2647 30.2652C31.796 30.7339 31.1605 30.9976 30.4977 30.9983Z" fill="#5FD35D"/>
</g>
<defs>
<clipPath id="clip0_2172_7030">
<rect width="24" height="23.9981" fill="white" transform="translate(12 10)"/>
</clipPath>
</defs>
</svg>
