<svg width="47" height="44" viewBox="0 0 47 44" fill="none" xmlns="http://www.w3.org/2000/svg">
<rect x="0.5" width="46" height="44" rx="8" fill="#FDECD4"/>
<g clip-path="url(#clip0_2172_7040)">
<path d="M22.4821 18.0172C21.4933 18.0172 20.5266 18.3104 19.7044 18.8598C18.8822 19.4092 18.2414 20.19 17.863 21.1036C17.4846 22.0172 17.3856 23.0224 17.5785 23.9923C17.7714 24.9621 18.2476 25.853 18.9468 26.5522C19.646 27.2514 20.5369 27.7276 21.5067 27.9205C22.4766 28.1134 23.4818 28.0144 24.3954 27.636C25.309 27.2576 26.0898 26.6168 26.6392 25.7946C27.1886 24.9724 27.4818 24.0057 27.4818 23.0169C27.4803 21.6914 26.9531 20.4205 26.0158 19.4832C25.0785 18.5459 23.8077 18.0187 22.4821 18.0172ZM22.4821 26.0169C21.8888 26.0169 21.3087 25.841 20.8154 25.5113C20.3221 25.1817 19.9375 24.7131 19.7105 24.165C19.4834 23.6168 19.424 23.0136 19.5398 22.4316C19.6555 21.8497 19.9412 21.3151 20.3608 20.8956C20.7803 20.476 21.3149 20.1903 21.8968 20.0745C22.4788 19.9588 23.082 20.0182 23.6302 20.2453C24.1783 20.4723 24.6469 20.8568 24.9765 21.3502C25.3062 21.8435 25.4821 22.4236 25.4821 23.0169C25.4821 23.8125 25.166 24.5756 24.6034 25.1382C24.0408 25.7008 23.2778 26.0169 22.4821 26.0169Z" fill="#FF9416"/>
<path d="M25.5345 25.0325C25.6656 25.0323 25.7955 25.058 25.9167 25.1082C26.0378 25.1584 26.1478 25.2321 26.2404 25.325L29.2076 28.2922C29.3952 28.4798 29.5006 28.7342 29.5006 28.9995C29.5006 29.2648 29.3952 29.5192 29.2076 29.7068C29.02 29.8944 28.7656 29.9998 28.5003 29.9998C28.235 29.9998 27.9805 29.8944 27.7929 29.7068L24.8257 26.7397C24.6859 26.5997 24.5907 26.4213 24.5523 26.2272C24.5138 26.0331 24.5338 25.832 24.6097 25.6492C24.6855 25.4665 24.8139 25.3103 24.9785 25.2006C25.1431 25.0908 25.3366 25.0323 25.5345 25.0325Z" fill="#FF9416"/>
<path d="M32.5 11H14.5C13.7044 11 12.9413 11.3161 12.3787 11.8787C11.8161 12.4413 11.5 13.2044 11.5 14V30.0003C11.5 30.796 11.8161 31.559 12.3787 32.1216C12.9413 32.6842 13.7044 33.0003 14.5 33.0003H32.5C33.2956 33.0003 34.0587 32.6842 34.6213 32.1216C35.1839 31.559 35.5 30.796 35.5 30.0003V14C35.5 13.2044 35.1839 12.4413 34.6213 11.8787C34.0587 11.3161 33.2956 11 32.5 11ZM32.5 30.9997H14.5C14.2348 30.9994 13.9805 30.894 13.7929 30.7064C13.6054 30.5189 13.4999 30.2646 13.4997 29.9994V15.9997H33.4994V29.9994C33.4994 30.2645 33.3941 30.5188 33.2067 30.7064C33.0193 30.8939 32.7651 30.9994 32.5 30.9997Z" fill="#FF9416"/>
</g>
<defs>
<clipPath id="clip0_2172_7040">
<rect width="24" height="22.0003" fill="white" transform="translate(11.5 11)"/>
</clipPath>
</defs>
</svg>
