<svg width="47" height="44" viewBox="0 0 47 44" fill="none" xmlns="http://www.w3.org/2000/svg">
<rect x="0.5" width="46" height="44" rx="8" fill="#FBE9FF"/>
<g clip-path="url(#clip0_2172_7002)">
<path d="M23.4997 26.9997C26.2609 26.9997 28.4994 24.7613 28.4994 22.0001C28.4994 19.2388 26.2609 17.0004 23.4997 17.0004C20.7384 17.0004 18.5 19.2388 18.5 22.0001C18.5 24.7613 20.7384 26.9997 23.4997 26.9997Z" fill="#FF3AD4"/>
<path d="M23.5003 32.0003C21.5224 32.0003 19.589 31.4138 17.9444 30.3149C16.2999 29.2161 15.0181 27.6542 14.2612 25.8269C13.5043 23.9996 13.3063 21.9889 13.6922 20.049C14.078 18.1091 15.0305 16.3272 16.429 14.9287C17.8276 13.5301 19.6095 12.5777 21.5494 12.1918C23.4892 11.8059 25.5 12.004 27.3273 12.7609C29.1546 13.5178 30.7164 14.7995 31.8153 16.4441C32.9141 18.0886 33.5006 20.0221 33.5006 22C33.4977 24.6513 32.4431 27.1932 30.5683 29.068C28.6935 30.9427 26.1517 31.9973 23.5003 32.0003ZM23.5003 14.0003C21.9181 14.0003 20.3715 14.4694 19.0559 15.3485C17.7404 16.2275 16.715 17.4769 16.1096 18.9386C15.5041 20.4004 15.3457 22.0088 15.6543 23.5606C15.963 25.1124 16.7249 26.5378 17.8437 27.6566C18.9625 28.7754 20.3879 29.5373 21.9397 29.8459C23.4914 30.1546 25.0999 29.9962 26.5617 29.3907C28.0234 28.7852 29.2728 27.7599 30.1518 26.4443C31.0308 25.1288 31.5 23.5821 31.5 22C31.4975 19.8791 30.6539 17.8458 29.1542 16.3461C27.6545 14.8464 25.6212 14.0027 23.5003 14.0003Z" fill="#FF3AD4"/>
<path d="M23.5 15.0006C23.2347 15.0006 22.9803 14.8952 22.7927 14.7076C22.6051 14.52 22.4997 14.2656 22.4997 14.0003V11.0003C22.4997 10.8689 22.5256 10.7389 22.5758 10.6175C22.6261 10.4961 22.6998 10.3859 22.7927 10.293C22.8856 10.2001 22.9958 10.1264 23.1172 10.0761C23.2386 10.0259 23.3686 10 23.5 10C23.6314 10 23.7614 10.0259 23.8828 10.0761C24.0042 10.1264 24.1144 10.2001 24.2073 10.293C24.3002 10.3859 24.3739 10.4961 24.4242 10.6175C24.4744 10.7389 24.5003 10.8689 24.5003 11.0003V14.0003C24.5003 14.2656 24.3949 14.52 24.2073 14.7076C24.0197 14.8952 23.7653 15.0006 23.5 15.0006ZM23.5 34C23.2347 34 22.9803 33.8946 22.7927 33.707C22.6051 33.5194 22.4997 33.265 22.4997 32.9997V29.9997C22.4997 29.8683 22.5256 29.7382 22.5758 29.6169C22.6261 29.4955 22.6998 29.3852 22.7927 29.2924C22.8856 29.1995 22.9958 29.1258 23.1172 29.0755C23.2386 29.0252 23.3686 28.9994 23.5 28.9994C23.6314 28.9994 23.7614 29.0252 23.8828 29.0755C24.0042 29.1258 24.1144 29.1995 24.2073 29.2924C24.3002 29.3852 24.3739 29.4955 24.4242 29.6169C24.4744 29.7382 24.5003 29.8683 24.5003 29.9997V32.9997C24.5004 33.1311 24.4746 33.2612 24.4244 33.3826C24.3742 33.5041 24.3005 33.6144 24.2076 33.7073C24.1147 33.8002 24.0044 33.8739 23.8829 33.9241C23.7615 33.9743 23.6314 34.0001 23.5 34ZM15.5003 23.0003H12.5003C12.235 23.0003 11.9806 22.8949 11.793 22.7073C11.6054 22.5197 11.5 22.2653 11.5 22C11.5 21.7347 11.6054 21.4803 11.793 21.2927C11.9806 21.1051 12.235 20.9997 12.5003 20.9997H15.5003C15.7656 20.9997 16.02 21.1051 16.2076 21.2927C16.3952 21.4803 16.5006 21.7347 16.5006 22C16.5006 22.2653 16.3952 22.5197 16.2076 22.7073C16.02 22.8949 15.7656 23.0003 15.5003 23.0003ZM34.4997 23.0003H31.4997C31.2344 23.0003 30.98 22.8949 30.7924 22.7073C30.6048 22.5197 30.4994 22.2653 30.4994 22C30.4994 21.7347 30.6048 21.4803 30.7924 21.2927C30.98 21.1051 31.2344 20.9997 31.4997 20.9997H34.4997C34.765 20.9997 35.0194 21.1051 35.207 21.2927C35.3946 21.4803 35.5 21.7347 35.5 22C35.5 22.2653 35.3946 22.5197 35.207 22.7073C35.0194 22.8949 34.765 23.0003 34.4997 23.0003Z" fill="#FF3AD4"/>
</g>
<defs>
<clipPath id="clip0_2172_7002">
<rect width="24" height="24" fill="white" transform="translate(11.5 10)"/>
</clipPath>
</defs>
</svg>
