<svg width="47" height="46" viewBox="0 0 47 46" fill="none" xmlns="http://www.w3.org/2000/svg">
<g clip-path="url(#clip0_2107_5928)">
<g clip-path="url(#clip1_2107_5928)">
<path d="M13.1973 34.8594H40.5277L43.0344 20.6461H10.6816L13.1973 34.8594Z" fill="#CCADFF"/>
<path d="M45.6758 10.7453C45.4152 10.4398 45.0289 10.2602 44.6246 10.2602H38.2906C37.5359 10.2422 36.907 10.8352 36.8891 11.5898C36.8711 12.3445 37.4641 12.9734 38.2188 12.9914H42.9984L41.8844 19.2805H11.8316L10.7176 12.9914H30.7348C31.4895 13.0094 32.1184 12.4164 32.1363 11.6617C32.1543 10.907 31.5613 10.2781 30.8066 10.2602H10.1965L8.47149 1.11406C8.3547 0.467189 7.78868 1.08138e-06 7.13282 1.08138e-06H1.36485C0.610163 -0.0179677 -0.0187428 0.575001 -0.0367116 1.32969C-0.0546803 2.08438 0.538288 2.71328 1.29298 2.73125H5.9918L11.8406 35.093C11.9574 35.7488 12.5234 36.225 13.1883 36.225H19.1988C21.0137 36.225 22.4781 37.6984 22.4781 39.5043C22.4781 41.3191 21.0047 42.7836 19.1988 42.7836C17.393 42.7836 15.9195 41.3102 15.9195 39.5043C15.9016 38.7496 15.2727 38.1566 14.518 38.1746C13.7902 38.1926 13.2063 38.7766 13.1883 39.5043C13.1793 42.8285 15.8566 45.5328 19.1809 45.5508C22.5051 45.5598 25.2094 42.8824 25.2273 39.5582C25.2363 38.3723 24.8859 37.2223 24.2391 36.234H34.5531C36.368 36.234 37.8324 37.7074 37.8324 39.5133C37.8324 41.3191 36.359 42.7926 34.5531 42.7926C32.7473 42.7926 31.2738 41.3191 31.2738 39.5133C31.2559 38.7586 30.627 38.1656 29.8723 38.1836C29.1445 38.2016 28.5606 38.7855 28.5426 39.5133C28.5336 42.8375 31.2109 45.5418 34.5352 45.5598C37.8594 45.5688 40.5637 42.8914 40.5816 39.5672C40.5906 38.3813 40.2402 37.2313 39.5934 36.243H40.5277C41.1926 36.243 41.7586 35.7668 41.8754 35.1109L44.391 20.8977L45.9813 11.8594C46.0531 11.4641 45.9363 11.0508 45.6758 10.7453ZM39.3867 33.4938H14.3383L12.3168 22.0117H41.4172L39.3867 33.4938Z" fill="#853AFF"/>
</g>
</g>
<defs>
<clipPath id="clip0_2107_5928">
<rect width="46" height="46" fill="white" transform="translate(0.25)"/>
</clipPath>
<clipPath id="clip1_2107_5928">
<rect width="46" height="45.5238" fill="white"/>
</clipPath>
</defs>
</svg>
