<svg width="47" height="44" viewBox="0 0 47 44" fill="none" xmlns="http://www.w3.org/2000/svg">
<rect x="0.5" width="46" height="44" rx="8" fill="#E9F2FF"/>
<g clip-path="url(#clip0_2172_6993)">
<g clip-path="url(#clip1_2172_6993)">
<path d="M32.5008 10H14.5001C13.7051 10.0022 12.9433 10.319 12.3812 10.8812C11.819 11.4433 11.5022 12.2051 11.5 13.0001V29.0011C11.5022 29.796 11.819 30.5578 12.3812 31.12C12.9433 31.6821 13.7051 31.9989 14.5001 32.0012H21.4604L21.8129 30.0014H14.5001C14.235 30.0007 13.981 29.895 13.7936 29.7076C13.6061 29.5201 13.5005 29.2661 13.4998 29.0011V15.0008H33.5002V19.7607C34.1322 19.9136 34.7097 20.238 35.169 20.6982L35.4991 21.0282V13.0001C35.4976 12.2052 35.1813 11.4433 34.6194 10.881C34.0575 10.3188 33.2957 10.002 32.5008 10Z" fill="#3F7FE0"/>
<path d="M30.7509 16.4999H16.25C16.0516 16.5014 15.8616 16.5809 15.7213 16.7212C15.581 16.8616 15.5015 17.0515 15.5 17.25V21.7501C15.5015 21.9486 15.581 22.1385 15.7213 22.2789C15.8616 22.4192 16.0516 22.4987 16.25 22.5002H28.4193L29.9193 21.0001H17.0001V18H30.0009V20.9204L30.0412 20.8801C30.4542 20.4554 30.9514 20.1217 31.5009 19.9004V17.25C31.4995 17.0515 31.42 16.8616 31.2796 16.7212C31.1393 16.5809 30.9494 16.5014 30.7509 16.4999ZM26.9314 23.9909L25.421 25.4909H16.3007C16.1017 25.4909 15.911 25.4119 15.7703 25.2712C15.6296 25.1306 15.5506 24.9398 15.5506 24.7409C15.5506 24.542 15.6296 24.3512 15.7703 24.2105C15.911 24.0699 16.1017 23.9909 16.3007 23.9909H26.9314ZM23.921 26.991L22.6084 28.3035C22.5471 28.3588 22.4932 28.4219 22.4481 28.491H16.3007C16.1017 28.491 15.911 28.412 15.7703 28.2714C15.6296 28.1307 15.5506 27.9399 15.5506 27.741C15.5506 27.5421 15.6296 27.3513 15.7703 27.2107C15.911 27.07 16.1017 26.991 16.3007 26.991H23.921Z" fill="#3F7FE0"/>
<path d="M34.9872 23.3505L33.7496 22.1129C33.2593 21.6226 32.363 21.376 31.4517 22.2901L24.0264 29.7154C23.9177 29.8245 23.8447 29.9642 23.8174 30.1158L23.2867 33.1215C23.2659 33.2396 23.2739 33.3609 23.3101 33.4752C23.3464 33.5895 23.4098 33.6933 23.4949 33.7778C23.6364 33.9183 23.8279 33.9972 24.0274 33.9972C24.071 33.9966 24.1145 33.9931 24.1577 33.9868L27.1578 33.4553C27.3098 33.4296 27.4499 33.3568 27.5581 33.2471L34.9834 25.8218C35.3103 25.4939 35.4941 25.0499 35.4948 24.5869C35.4955 24.1239 35.313 23.6794 34.9872 23.3505Z" fill="#3F7FE0"/>
</g>
</g>
<defs>
<clipPath id="clip0_2172_6993">
<rect width="26" height="24" fill="white" transform="translate(10.5 10)"/>
</clipPath>
<clipPath id="clip1_2172_6993">
<rect width="24" height="24.0009" fill="white" transform="translate(11.5 10)"/>
</clipPath>
</defs>
</svg>
