<svg width="47" height="44" viewBox="0 0 47 44" fill="none" xmlns="http://www.w3.org/2000/svg">
<rect x="0.5" width="46" height="44" rx="8" fill="#FFE9E9"/>
<path d="M26.248 21.9686C26.1048 21.9682 25.9647 21.9269 25.8442 21.8494C25.7238 21.772 25.628 21.6617 25.5683 21.5315C25.5085 21.4014 25.4873 21.2569 25.5071 21.115C25.5268 20.9732 25.5868 20.84 25.6799 20.7312L26.7617 19.4685L25.6799 18.2076C25.6142 18.1331 25.564 18.0463 25.5322 17.9523C25.5003 17.8582 25.4875 17.7587 25.4944 17.6597C25.5013 17.5606 25.5278 17.4639 25.5724 17.3751C25.617 17.2864 25.6787 17.2074 25.7541 17.1427C25.8294 17.078 25.9169 17.0289 26.0114 16.9983C26.1058 16.9677 26.2055 16.9562 26.3044 16.9644C26.4034 16.9726 26.4998 17.0004 26.5879 17.0461C26.6761 17.0918 26.7542 17.1546 26.8179 17.2308L28.3178 18.981C28.4345 19.117 28.4987 19.2902 28.4987 19.4694C28.4987 19.6486 28.4345 19.8218 28.3178 19.9578L26.8179 21.708C26.7474 21.79 26.6599 21.8557 26.5615 21.9007C26.4631 21.9457 26.3562 21.9688 26.248 21.9686ZM19.7507 21.9686C19.6425 21.9688 19.5356 21.9457 19.4372 21.9007C19.3388 21.8557 19.2513 21.79 19.1807 21.708L17.6808 19.9578C17.5642 19.8218 17.5 19.6486 17.5 19.4694C17.5 19.2902 17.5642 19.117 17.6808 18.981L19.1807 17.2308C19.2449 17.156 19.3231 17.0946 19.411 17.0501C19.4988 17.0055 19.5946 16.9787 19.6929 16.9712C19.7911 16.9637 19.8899 16.9756 19.9835 17.0062C20.0771 17.0368 20.1638 17.0856 20.2386 17.1497C20.3134 17.2139 20.3748 17.2921 20.4194 17.38C20.4639 17.4679 20.4907 17.5637 20.4982 17.6619C20.5058 17.7601 20.4939 17.8589 20.4632 17.9525C20.4326 18.0462 20.3838 18.1328 20.3197 18.2076L19.2379 19.4685L20.3197 20.7302C20.4131 20.8391 20.4734 20.9725 20.4933 21.1145C20.5132 21.2566 20.4919 21.4014 20.432 21.5318C20.3721 21.6621 20.2761 21.7726 20.1553 21.85C20.0346 21.9274 19.8941 21.9686 19.7507 21.9686ZM22.0821 23.4497C21.986 23.4276 21.8953 23.3868 21.815 23.3296C21.7347 23.2724 21.6665 23.1999 21.6143 23.1163C21.562 23.0328 21.5268 22.9397 21.5105 22.8425C21.4943 22.7453 21.4974 22.6458 21.5196 22.5498L23.0195 16.0506C23.0642 15.8567 23.1842 15.6885 23.353 15.583C23.5217 15.4775 23.7255 15.4434 23.9194 15.4882C24.1133 15.5329 24.2815 15.6529 24.387 15.8216C24.4925 15.9904 24.5266 16.1942 24.4819 16.3881L22.982 22.8873C22.9599 22.9833 22.9191 23.0741 22.8619 23.1543C22.8047 23.2346 22.7322 23.3028 22.6486 23.355C22.565 23.4073 22.472 23.4425 22.3748 23.4588C22.2775 23.475 22.1781 23.4719 22.0821 23.4497Z" fill="#FE626B"/>
<path d="M33.248 12H12.7502C12.2867 12.0022 11.8428 12.1873 11.5151 12.5151C11.1873 12.8428 11.0022 13.2867 11 13.7502V27.2491C11.0022 27.7126 11.1873 28.1565 11.5151 28.4842C11.8428 28.812 12.2867 28.9971 12.7502 28.9993H20.4071C20.2899 29.5008 19.9787 30.3117 19.1462 31.146C19.0763 31.2159 19.0287 31.3049 19.0094 31.4019C18.9901 31.4988 19 31.5993 19.0378 31.6907C19.0757 31.782 19.1397 31.86 19.2219 31.9149C19.3042 31.9698 19.4008 31.9991 19.4996 31.9991H26.4994C26.5983 31.9993 26.6951 31.9701 26.7775 31.9153C26.8598 31.8605 26.924 31.7824 26.962 31.6911C26.9999 31.5997 27.0099 31.4991 26.9906 31.4021C26.9714 31.3051 26.9237 31.2159 26.8538 31.146C26.0232 30.3154 25.7035 29.5018 25.5789 28.9993H33.2489C33.7121 28.9966 34.1556 28.8113 34.4831 28.4836C34.8106 28.156 34.9957 27.7124 34.9981 27.2491V13.7502C34.9952 13.2869 34.8098 12.8435 34.4823 12.5159C34.1547 12.1883 33.7112 12.0029 33.248 12ZM32.9986 24.9993H12.9995V14.0005H32.9977V24.9993H32.9986Z" fill="#FE626B"/>
</svg>
