<svg width="41" height="40" viewBox="0 0 41 40" fill="none" xmlns="http://www.w3.org/2000/svg">
<g clip-path="url(#clip0_2126_6435)">
<path d="M35.5 0H5.5C2.73858 0 0.5 2.23858 0.5 5V35C0.5 37.7614 2.73858 40 5.5 40H35.5C38.2614 40 40.5 37.7614 40.5 35V5C40.5 2.23858 38.2614 0 35.5 0Z" fill="#092E20"/>
<path fill-rule="evenodd" clip-rule="evenodd" d="M23.2239 8V15.8884C21.1847 15.2981 16.3984 15.1159 13.5647 19.1081C10.7308 23.1006 12.3841 27.6405 13.5647 29.4113C14.5002 30.8146 19.1994 33.8546 28.2147 31.6651V8H23.2239ZM23.2247 19.9131V28.1235C21.8832 28.3381 18.9747 28.3489 18.0731 26.6746C16.9462 24.5818 17.4292 21.201 19.0391 20.2351C20.327 19.4624 22.3661 19.6985 23.2247 19.9131Z" fill="white"/>
</g>
<defs>
<clipPath id="clip0_2126_6435">
<rect width="40" height="40" fill="white" transform="translate(0.5)"/>
</clipPath>
</defs>
</svg>
