<svg width="26" height="26" viewBox="0 0 26 26" fill="none" xmlns="http://www.w3.org/2000/svg">
<g clip-path="url(#clip0_1012_1781)">
<path d="M7.32388 8.78617L6.96638 6.65336L7.10958 6.51117L6.66677 6.05617C6.35059 5.73633 6.12856 5.33563 6.02501 4.89798C5.92146 4.46032 5.9404 4.00261 6.07974 3.575C6.09091 3.5425 6.10005 3.52117 6.11224 3.48867L5.97005 3.46734L5.05599 1.54984C4.99049 1.40998 4.88649 1.29167 4.75617 1.2088C4.62585 1.12592 4.47461 1.08191 4.32017 1.08191C4.16573 1.08191 4.01448 1.12592 3.88416 1.2088C3.75384 1.29167 3.64984 1.40998 3.58435 1.54984L2.68247 3.47953L0.682705 3.79133C0.535808 3.81601 0.398525 3.88061 0.285859 3.97805C0.173194 4.07549 0.0894835 4.20202 0.0438772 4.34383C-0.00314592 4.4857 -0.00981277 4.63786 0.0246208 4.7833C0.0590545 4.92875 0.133233 5.06176 0.238877 5.1675L1.71255 6.67367L1.36521 8.80648C1.34746 8.9225 1.35483 9.04097 1.38683 9.15389C1.41883 9.26681 1.4747 9.37154 1.55068 9.461C1.62665 9.55046 1.72096 9.62255 1.82721 9.67241C1.93346 9.72227 2.04917 9.74873 2.16653 9.75C2.30832 9.75072 2.44802 9.7158 2.57278 9.64844L4.34911 8.65211L6.13661 9.62711C6.27109 9.70012 6.42308 9.73467 6.57591 9.72697C6.72874 9.71926 6.87649 9.6696 7.00294 9.58344C7.12724 9.49413 7.22379 9.37154 7.28146 9.22977C7.33914 9.088 7.35561 8.93282 7.32896 8.78211L7.32388 8.78617ZM25.9565 4.31133C25.9099 4.16921 25.8242 4.04308 25.7092 3.94735C25.5943 3.85163 25.4548 3.79017 25.3065 3.77L23.3027 3.46531L22.3886 1.54781C22.3233 1.40766 22.2193 1.28908 22.0888 1.206C21.9584 1.12292 21.807 1.07879 21.6523 1.07879C21.4977 1.07879 21.3462 1.12292 21.2158 1.206C21.0854 1.28908 20.9814 1.40766 20.916 1.54781L20.0161 3.4775L19.8973 3.49883C19.8973 3.51 19.9085 3.52015 19.9085 3.53133C20.0541 3.95382 20.0796 4.40846 19.9821 4.84458C19.8845 5.28069 19.6678 5.68115 19.356 6.00133L18.8715 6.5L19.0452 6.67367L18.6989 8.80648C18.6811 8.9225 18.6885 9.04097 18.7205 9.15389C18.7525 9.26681 18.8084 9.37154 18.8844 9.461C18.9603 9.55046 19.0546 9.62255 19.1609 9.67241C19.2671 9.72227 19.3828 9.74873 19.5002 9.75C19.642 9.75072 19.7817 9.7158 19.9065 9.64844L21.6828 8.65211L23.4703 9.62711C23.6048 9.70012 23.7568 9.73467 23.9096 9.72697C24.0624 9.71926 24.2102 9.6696 24.3366 9.58344C24.4602 9.49352 24.5561 9.37081 24.6136 9.22919C24.671 9.08757 24.6876 8.9327 24.6616 8.78211L24.3041 6.6493L25.7778 5.13398C25.8804 5.02596 25.9517 4.89205 25.9841 4.74661C26.0165 4.60116 26.0087 4.44964 25.9616 4.30828L25.9565 4.31133Z" fill="#D9CBE8"/>
<path d="M10.1746 10.8337C10.0571 10.8338 9.94099 10.8084 9.83424 10.7593C9.72749 10.7102 9.63266 10.6385 9.55629 10.5492C9.47992 10.4599 9.42383 10.3551 9.39189 10.242C9.35995 10.1289 9.35292 10.0103 9.37128 9.89422L9.83948 6.96922L7.82042 4.91258C7.71577 4.8061 7.64248 4.67284 7.6086 4.52744C7.57472 4.38204 7.58156 4.23012 7.62836 4.08835C7.67516 3.94658 7.76012 3.82045 7.87391 3.7238C7.98769 3.62715 8.12591 3.56372 8.27339 3.54047L11.0247 3.11188L12.2546 0.47125C12.3193 0.331466 12.4224 0.212949 12.5519 0.129513C12.6813 0.0460773 12.8319 0.00116093 12.9859 0C13.1398 4.08348e-05 13.2905 0.0437799 13.4205 0.126127C13.5505 0.208475 13.6544 0.326045 13.7202 0.465156L14.9684 3.09562L17.7228 3.50695C17.8705 3.52873 18.0094 3.59082 18.1242 3.68639C18.239 3.78196 18.3252 3.90733 18.3734 4.0487C18.4215 4.19008 18.4298 4.342 18.3973 4.48777C18.3647 4.63354 18.2927 4.76753 18.1889 4.875L16.18 6.94484L16.6675 9.8668C16.6929 10.0173 16.6753 10.172 16.6168 10.313C16.5583 10.454 16.4613 10.5756 16.3368 10.664C16.2124 10.7524 16.0656 10.804 15.9132 10.8128C15.7608 10.8216 15.609 10.7873 15.4752 10.7138L13.0184 9.36812L10.5687 10.7311C10.4482 10.7981 10.3125 10.833 10.1746 10.8327V10.8337Z" fill="#A07CC5"/>
<path d="M4.33381 18.4163C5.53024 18.4163 6.50014 17.4464 6.50014 16.25C6.50014 15.0536 5.53024 14.0837 4.33381 14.0837C3.13738 14.0837 2.16748 15.0536 2.16748 16.25C2.16748 17.4464 3.13738 18.4163 4.33381 18.4163Z" fill="#D9CBE8"/>
<path d="M7.22617 19.9337C6.66412 20.357 6.20815 20.9052 5.89424 21.535C5.58033 22.1647 5.41707 22.8588 5.41734 23.5625V23.8337H0.812501C0.597505 23.8321 0.391768 23.746 0.239739 23.5939C0.0877097 23.4419 0.00159529 23.2362 6.92968e-07 23.0212V22.4798C-0.000266252 22.0885 0.0765938 21.701 0.226187 21.3394C0.37578 20.9778 0.595173 20.6493 0.871822 20.3725C1.14847 20.0958 1.47695 19.8763 1.83849 19.7266C2.20002 19.5769 2.58752 19.4999 2.97883 19.5H5.6875C6.23047 19.5006 6.76279 19.6507 7.22617 19.9337Z" fill="#D9CBE8"/>
<path d="M21.6663 18.4163C22.8628 18.4163 23.8327 17.4464 23.8327 16.25C23.8327 15.0536 22.8628 14.0837 21.6663 14.0837C20.4699 14.0837 19.5 15.0536 19.5 16.25C19.5 17.4464 20.4699 18.4163 21.6663 18.4163Z" fill="#D9CBE8"/>
<path d="M26.0001 22.4788V23.0202C25.9982 23.2351 25.912 23.4407 25.76 23.5926C25.6081 23.7446 25.4025 23.8308 25.1876 23.8327H20.5837V23.5625C20.5842 22.8588 20.421 22.1647 20.1071 21.5349C19.7931 20.9051 19.3371 20.3569 18.7749 19.9337C19.2379 19.6505 19.7699 19.5005 20.3126 19.5H23.0212C23.4125 19.4999 23.7999 19.5768 24.1613 19.7265C24.5228 19.8761 24.8512 20.0955 25.1279 20.3722C25.4045 20.6488 25.6239 20.9773 25.7736 21.3387C25.9232 21.7002 26.0002 22.0876 26.0001 22.4788Z" fill="#D9CBE8"/>
<path d="M13 18.9587C14.7949 18.9587 16.25 17.5036 16.25 15.7087C16.25 13.9137 14.7949 12.4587 13 12.4587C11.2051 12.4587 9.75 13.9137 9.75 15.7087C9.75 17.5036 11.2051 18.9587 13 18.9587Z" fill="#A07CC5"/>
<path d="M15.979 20.5837H10.0203C9.23046 20.5842 8.4731 20.8982 7.91458 21.4567C7.35605 22.0153 7.04204 22.7726 7.0415 23.5625V25.1875C7.0415 25.403 7.12711 25.6097 7.27948 25.762C7.43185 25.9144 7.63852 26 7.854 26H18.1453C18.3608 26 18.5675 25.9144 18.7199 25.762C18.8722 25.6097 18.9578 25.403 18.9578 25.1875V23.5625C18.9573 22.7726 18.6433 22.0153 18.0848 21.4567C17.5262 20.8982 16.7689 20.5842 15.979 20.5837Z" fill="#A07CC5"/>
</g>
<defs>
<clipPath id="clip0_1012_1781">
<rect width="26" height="26" fill="white"/>
</clipPath>
</defs>
</svg>
