<svg width="66" height="86" viewBox="0 0 66 86" fill="none" xmlns="http://www.w3.org/2000/svg">
<g clip-path="url(#clip0_230_14043)">
<path d="M32.9649 55.8718C19.9351 55.8718 9.3722 45.3089 9.3722 32.2793C9.3722 19.2495 19.9351 8.68684 32.9649 8.68684C45.9945 8.68684 56.5571 19.2495 56.5571 32.2793C56.5571 45.3089 45.9945 55.8718 32.9649 55.8718ZM32.9649 0.24408C15.2724 0.24408 0.929688 14.587 0.929688 32.2793C0.929688 49.9719 15.2724 64.3143 32.9649 64.3143C50.6572 64.3143 64.9999 49.9719 64.9999 32.2793C64.9999 14.587 50.6575 0.24408 32.9649 0.24408Z" fill="#CF272D"/>
<path d="M34.2814 24.3007C34.2814 20.6222 37.2637 17.6399 40.9425 17.6399C44.6213 17.6399 47.6034 20.6222 47.6034 24.3007C47.6034 27.9798 44.6213 30.9619 40.9425 30.9619C37.2637 30.9619 34.2814 27.9798 34.2814 24.3007ZM34.2814 40.2572C34.2814 36.5787 37.2637 33.5961 40.9425 33.5961C44.6213 33.5961 47.6034 36.5787 47.6034 40.2572C47.6034 43.936 44.6213 46.9183 40.9425 46.9183C37.2637 46.9183 34.2814 43.936 34.2814 40.2572ZM18.3252 40.2572C18.3252 36.5787 21.3077 33.5961 24.9863 33.5961C28.6651 33.5961 31.6474 36.5787 31.6474 40.2572C31.6474 43.936 28.6651 46.9183 24.9863 46.9183C21.3077 46.9183 18.3252 43.936 18.3252 40.2572ZM18.3252 24.301C18.3252 20.6222 21.3077 17.6401 24.9863 17.6401C28.6651 17.6401 31.6474 20.6222 31.6474 24.301C31.6474 27.9801 28.6651 30.9621 24.9863 30.9621C21.3077 30.9621 18.3252 27.9801 18.3252 24.301Z" fill="#CF272D"/>
</g>
<path d="M20.5579 83.3143V75.5203H17.5399V74.6743H24.4579V75.5203H21.4399V83.3143H20.5579ZM26.0852 83.3143L24.1052 76.8283L24.9872 76.8343L26.5232 81.8683L28.0652 76.8343H28.8692L30.4112 81.8683L31.9592 76.8343H32.8352L30.8552 83.3143H30.0872L28.4672 78.1543L26.8532 83.3143H26.0852ZM34.0362 75.6043V74.6143H34.9182V75.6043H34.0362ZM34.0362 83.3143V76.8343H34.9182V83.3143H34.0362ZM36.837 83.3143V74.4943H37.719V83.3143H36.837ZM39.6377 83.3143V74.4943H40.5197V83.3143H39.6377ZM45.0245 83.4943C44.3805 83.4943 43.8305 83.3483 43.3745 83.0563C42.9185 82.7643 42.5685 82.3603 42.3245 81.8443C42.0805 81.3283 41.9585 80.7363 41.9585 80.0683C41.9585 79.3883 42.0825 78.7923 42.3305 78.2803C42.5785 77.7683 42.9305 77.3703 43.3865 77.0863C43.8465 76.7983 44.3925 76.6543 45.0245 76.6543C45.6725 76.6543 46.2245 76.8003 46.6805 77.0923C47.1405 77.3803 47.4905 77.7823 47.7305 78.2983C47.9745 78.8103 48.0965 79.4003 48.0965 80.0683C48.0965 80.7483 47.9745 81.3463 47.7305 81.8623C47.4865 82.3743 47.1345 82.7743 46.6745 83.0623C46.2145 83.3503 45.6645 83.4943 45.0245 83.4943ZM45.0245 82.6483C45.7445 82.6483 46.2805 82.4103 46.6325 81.9343C46.9845 81.4543 47.1605 80.8323 47.1605 80.0683C47.1605 79.2843 46.9825 78.6603 46.6265 78.1963C46.2745 77.7323 45.7405 77.5003 45.0245 77.5003C44.5405 77.5003 44.1405 77.6103 43.8245 77.8303C43.5125 78.0463 43.2785 78.3483 43.1225 78.7363C42.9705 79.1203 42.8945 79.5643 42.8945 80.0683C42.8945 80.8483 43.0745 81.4743 43.4345 81.9463C43.7945 82.4143 44.3245 82.6483 45.0245 82.6483Z" fill="#38424E"/>
<defs>
<clipPath id="clip0_230_14043">
<rect width="64.1406" height="64.1406" fill="white" transform="translate(0.929688 0.173706)"/>
</clipPath>
</defs>
</svg>
