<svg width="137" height="9" viewBox="0 0 137 9" fill="none" xmlns="http://www.w3.org/2000/svg">
<path d="M135.269 9C91.0071 2.97494 46.4726 2.36774 2.13983 7.18487C1.99375 7.20054 1.84696 7.1741 1.70798 7.10709C1.56899 7.04009 1.44057 6.93385 1.33014 6.79452C1.2197 6.65518 1.12945 6.48553 1.06461 6.29537C0.999761 6.10521 0.961611 5.89832 0.952362 5.68667C0.959806 5.26754 1.07459 4.86736 1.27442 4.56387C1.47425 4.26039 1.74486 4.07525 2.03369 4.04442C46.481 -1.43937 90.8155 -1.17047 135.243 3.78511C135.483 3.80705 135.718 3.89767 135.934 4.05173C136.15 4.20579 136.343 4.42026 136.502 4.68275C136.66 4.94524 136.781 5.25056 136.858 5.58111C136.934 5.91166 136.965 6.26088 136.948 6.60864C136.929 7.24095 136.746 7.83958 136.434 8.28351C136.123 8.72743 135.706 8.98352 135.269 9Z" fill="#4FB5CF"/>
</svg>
