<svg width="41" height="40" viewBox="0 0 41 40" fill="none" xmlns="http://www.w3.org/2000/svg">
<g clip-path="url(#clip0_2126_6397)">
<path d="M35.5 0H5.5C2.73858 0 0.5 2.23858 0.5 5V35C0.5 37.7614 2.73858 40 5.5 40H35.5C38.2614 40 40.5 37.7614 40.5 35V5C40.5 2.23858 38.2614 0 35.5 0Z" fill="#39796A" fill-opacity="0.1"/>
<path fill-rule="evenodd" clip-rule="evenodd" d="M28.065 9.26501H33L20.54 30.735L8 9.26501H13.045L20.54 22.19L28.065 9.26501Z" fill="#50A88F"/>
<path fill-rule="evenodd" clip-rule="evenodd" d="M23.4041 9.26501H28.0991L20.5391 22.215L13.0391 9.26501H17.6591L20.5391 14.25L23.4091 9.26501H23.4041Z" fill="#323163"/>
</g>
<defs>
<clipPath id="clip0_2126_6397">
<rect width="40" height="40" fill="white" transform="translate(0.5)"/>
</clipPath>
</defs>
</svg>
