<svg width="65" height="87" viewBox="0 0 65 87" fill="none" xmlns="http://www.w3.org/2000/svg">
<path d="M16.9242 55.7736L17.97 56.2964C22.234 58.8327 27.1089 60.1583 32.0701 60.1308C47.3433 60.096 59.8922 47.5173 59.8922 32.2442C59.8922 24.8631 56.9606 17.7746 51.7476 12.5494C46.5415 7.2701 39.4287 4.29495 32.0161 4.29495C16.8127 4.29495 4.30382 16.8056 4.30382 32.0072C4.30382 32.1275 4.30382 32.246 4.30557 32.3663C4.35136 37.5347 5.79692 42.5942 8.48857 47.0067L9.1857 48.0524L6.39707 58.3356L16.9242 55.7736Z" fill="#00E676"/>
<path d="M54.85 9.41216C48.9153 3.35726 40.7741 -0.0396184 32.2967 0.000348737H32.2426C14.784 0.000403337 0.417185 14.3673 0.417185 31.826C0.417185 31.9079 0.418933 31.9881 0.418933 32.07C0.484693 37.6208 1.92165 43.0692 4.60194 47.9305L0.0703125 64.4881L16.9591 60.1308C21.6247 62.6922 26.8699 64.0126 32.1921 63.9652C49.7153 63.8693 64.0804 49.4206 64.0699 31.8957C64.1117 23.4757 60.7915 15.3781 54.85 9.41216ZM32.2967 58.5622C27.5789 58.5868 22.9442 57.3211 18.8937 54.9021L17.848 54.3792L7.79139 56.9936L10.4057 47.059L9.70861 46.0132C7.11898 41.8318 5.74702 37.011 5.74695 32.0926C5.74695 17.5882 17.6824 5.65264 32.1869 5.65264C46.6914 5.65264 58.6268 17.5882 58.6268 32.0926C58.6268 41.2255 53.8949 49.7344 46.1354 54.5535C42.0315 57.1823 37.2575 58.574 32.3839 58.5622M47.704 39.2159L45.7868 38.3445C45.7868 38.3445 42.9981 37.1244 41.2553 36.253C41.081 36.253 40.9067 36.0787 40.7324 36.0787C40.3027 36.0893 39.8828 36.2092 39.5123 36.4272C39.1411 36.6451 39.338 36.6015 36.898 39.3902C36.7324 39.7161 36.3925 39.9201 36.0266 39.9131H35.8522C35.5902 39.8692 35.3474 39.7478 35.1551 39.5645L34.2836 39.2159C32.4138 38.4243 30.7016 37.3026 29.2291 35.9044C28.8806 35.5558 28.3577 35.2072 28.0091 34.8586C26.7189 33.6226 25.6046 32.2151 24.6976 30.6756L24.5233 30.3271C24.3719 30.114 24.2543 29.8789 24.1747 29.6299C24.1292 29.328 24.1908 29.0196 24.349 28.7585C24.5076 28.497 25.0462 27.887 25.569 27.3641C26.0919 26.8413 26.0919 26.4927 26.4405 26.1441C26.6197 25.8953 26.7435 25.611 26.8036 25.3104C26.8637 25.0097 26.8588 24.6997 26.7891 24.4011C25.9768 22.1459 25.046 19.9351 24.0004 17.7781C23.7202 17.3423 23.2836 17.0304 22.7804 16.9066H20.8632C20.5146 16.9066 20.1661 17.0809 19.8174 17.0809L19.6432 17.2552C19.2946 17.4295 18.946 17.7781 18.5974 17.9524C18.2488 18.1267 18.0746 18.6496 17.726 18.9981C16.5076 20.5379 15.8334 22.4378 15.8088 24.4011C15.8281 25.7822 16.1244 27.1454 16.6802 28.4099L16.8545 28.9327C18.4195 32.2787 20.6082 35.2955 23.3033 37.8216L24.0004 38.5187C24.5078 38.9389 24.9746 39.4057 25.3948 39.9131C29.0061 43.0555 33.2954 45.3213 37.9263 46.5361C38.4492 46.7104 39.1463 46.7104 39.6692 46.8847H41.4121C42.3231 46.8398 43.2141 46.6021 44.0265 46.1875C44.4534 45.9941 44.8613 45.7605 45.2465 45.4904L45.5951 45.1418C45.9437 44.7932 46.2923 44.6189 46.6408 44.2704C46.9815 43.9668 47.2752 43.6144 47.5123 43.2246C47.8469 42.4438 48.0822 41.6246 48.2095 40.7845V39.5645C48.0528 39.4238 47.8767 39.3063 47.6866 39.2159" fill="white"/>
<path d="M6.26431 83.488L3.76831 74.848H4.68631L6.70831 81.982L8.71831 74.854L9.64231 74.848L11.6643 81.982L13.6743 74.848H14.5983L12.1083 83.488H11.2203L9.18031 76.402L7.15231 83.488H6.26431ZM20.3169 83.488V80.182C20.3169 79.822 20.2829 79.492 20.2149 79.192C20.1469 78.888 20.0369 78.624 19.8849 78.4C19.7369 78.172 19.5429 77.996 19.3029 77.872C19.0669 77.748 18.7789 77.686 18.4389 77.686C18.1269 77.686 17.8509 77.74 17.6109 77.848C17.3749 77.956 17.1749 78.112 17.0109 78.316C16.8509 78.516 16.7289 78.76 16.6449 79.048C16.5609 79.336 16.5189 79.664 16.5189 80.032L15.8949 79.894C15.8949 79.23 16.0109 78.672 16.2429 78.22C16.4749 77.768 16.7949 77.426 17.2029 77.194C17.6109 76.962 18.0789 76.846 18.6069 76.846C18.9949 76.846 19.3329 76.906 19.6209 77.026C19.9129 77.146 20.1589 77.308 20.3589 77.512C20.5629 77.716 20.7269 77.95 20.8509 78.214C20.9749 78.474 21.0649 78.752 21.1209 79.048C21.1769 79.34 21.2049 79.632 21.2049 79.924V83.488H20.3169ZM15.6309 83.488V74.848H16.4289V79.726H16.5189V83.488H15.6309ZM24.6159 83.668C24.1279 83.668 23.7179 83.58 23.3859 83.404C23.0579 83.228 22.8119 82.994 22.6479 82.702C22.4839 82.41 22.4019 82.092 22.4019 81.748C22.4019 81.396 22.4719 81.096 22.6119 80.848C22.7559 80.596 22.9499 80.39 23.1939 80.23C23.4419 80.07 23.7279 79.948 24.0519 79.864C24.3799 79.784 24.7419 79.714 25.1379 79.654C25.5379 79.59 25.9279 79.536 26.3079 79.492C26.6919 79.444 27.0279 79.398 27.3159 79.354L27.0039 79.546C27.0159 78.906 26.8919 78.432 26.6319 78.124C26.3719 77.816 25.9199 77.662 25.2759 77.662C24.8319 77.662 24.4559 77.762 24.1479 77.962C23.8439 78.162 23.6299 78.478 23.5059 78.91L22.6479 78.658C22.7959 78.078 23.0939 77.628 23.5419 77.308C23.9899 76.988 24.5719 76.828 25.2879 76.828C25.8799 76.828 26.3819 76.94 26.7939 77.164C27.2099 77.384 27.5039 77.704 27.6759 78.124C27.7559 78.312 27.8079 78.522 27.8319 78.754C27.8559 78.986 27.8679 79.222 27.8679 79.462V83.488H27.0819V81.862L27.3099 81.958C27.0899 82.514 26.7479 82.938 26.2839 83.23C25.8199 83.522 25.2639 83.668 24.6159 83.668ZM24.7179 82.906C25.1299 82.906 25.4899 82.832 25.7979 82.684C26.1059 82.536 26.3539 82.334 26.5419 82.078C26.7299 81.818 26.8519 81.526 26.9079 81.202C26.9559 80.994 26.9819 80.766 26.9859 80.518C26.9899 80.266 26.9919 80.078 26.9919 79.954L27.3279 80.128C27.0279 80.168 26.7019 80.208 26.3499 80.248C26.0019 80.288 25.6579 80.334 25.3179 80.386C24.9819 80.438 24.6779 80.5 24.4059 80.572C24.2219 80.624 24.0439 80.698 23.8719 80.794C23.6999 80.886 23.5579 81.01 23.4459 81.166C23.3379 81.322 23.2839 81.516 23.2839 81.748C23.2839 81.936 23.3299 82.118 23.4219 82.294C23.5179 82.47 23.6699 82.616 23.8779 82.732C24.0899 82.848 24.3699 82.906 24.7179 82.906ZM32.9578 83.488C32.5938 83.564 32.2338 83.594 31.8778 83.578C31.5258 83.562 31.2098 83.486 30.9298 83.35C30.6538 83.214 30.4438 83.002 30.2998 82.714C30.1838 82.474 30.1198 82.232 30.1078 81.988C30.0998 81.74 30.0958 81.458 30.0958 81.142V75.208H30.9718V81.106C30.9718 81.378 30.9738 81.606 30.9778 81.79C30.9858 81.97 31.0278 82.13 31.1038 82.27C31.2478 82.538 31.4758 82.698 31.7878 82.75C32.1038 82.802 32.4938 82.79 32.9578 82.714V83.488ZM28.7098 77.764V77.008H32.9578V77.764H28.7098ZM36.6525 83.662C35.8925 83.662 35.2665 83.498 34.7745 83.17C34.2865 82.842 33.9865 82.386 33.8745 81.802L34.7745 81.652C34.8705 82.02 35.0885 82.314 35.4285 82.534C35.7725 82.75 36.1965 82.858 36.7005 82.858C37.1925 82.858 37.5805 82.756 37.8645 82.552C38.1485 82.344 38.2905 82.062 38.2905 81.706C38.2905 81.506 38.2445 81.344 38.1525 81.22C38.0645 81.092 37.8825 80.974 37.6065 80.866C37.3305 80.758 36.9185 80.63 36.3705 80.482C35.7825 80.322 35.3225 80.162 34.9905 80.002C34.6585 79.842 34.4225 79.658 34.2825 79.45C34.1425 79.238 34.0725 78.98 34.0725 78.676C34.0725 78.308 34.1765 77.986 34.3845 77.71C34.5925 77.43 34.8805 77.214 35.2485 77.062C35.6165 76.906 36.0445 76.828 36.5325 76.828C37.0205 76.828 37.4565 76.908 37.8405 77.068C38.2285 77.224 38.5405 77.444 38.7765 77.728C39.0125 78.012 39.1525 78.342 39.1965 78.718L38.2965 78.88C38.2365 78.5 38.0465 78.2 37.7265 77.98C37.4105 77.756 37.0085 77.64 36.5205 77.632C36.0605 77.62 35.6865 77.708 35.3985 77.896C35.1105 78.08 34.9665 78.326 34.9665 78.634C34.9665 78.806 35.0185 78.954 35.1225 79.078C35.2265 79.198 35.4145 79.312 35.6865 79.42C35.9625 79.528 36.3545 79.646 36.8625 79.774C37.4585 79.926 37.9265 80.086 38.2665 80.254C38.6065 80.422 38.8485 80.62 38.9925 80.848C39.1365 81.076 39.2085 81.358 39.2085 81.694C39.2085 82.306 38.9805 82.788 38.5245 83.14C38.0725 83.488 37.4485 83.662 36.6525 83.662ZM42.3932 83.668C41.9052 83.668 41.4952 83.58 41.1632 83.404C40.8352 83.228 40.5892 82.994 40.4252 82.702C40.2612 82.41 40.1792 82.092 40.1792 81.748C40.1792 81.396 40.2492 81.096 40.3892 80.848C40.5332 80.596 40.7272 80.39 40.9712 80.23C41.2192 80.07 41.5052 79.948 41.8292 79.864C42.1572 79.784 42.5192 79.714 42.9152 79.654C43.3152 79.59 43.7052 79.536 44.0852 79.492C44.4692 79.444 44.8052 79.398 45.0932 79.354L44.7812 79.546C44.7932 78.906 44.6692 78.432 44.4092 78.124C44.1492 77.816 43.6972 77.662 43.0532 77.662C42.6092 77.662 42.2332 77.762 41.9252 77.962C41.6212 78.162 41.4072 78.478 41.2832 78.91L40.4252 78.658C40.5732 78.078 40.8712 77.628 41.3192 77.308C41.7672 76.988 42.3492 76.828 43.0652 76.828C43.6572 76.828 44.1592 76.94 44.5712 77.164C44.9872 77.384 45.2812 77.704 45.4532 78.124C45.5332 78.312 45.5852 78.522 45.6092 78.754C45.6332 78.986 45.6452 79.222 45.6452 79.462V83.488H44.8592V81.862L45.0872 81.958C44.8672 82.514 44.5252 82.938 44.0612 83.23C43.5972 83.522 43.0412 83.668 42.3932 83.668ZM42.4952 82.906C42.9072 82.906 43.2672 82.832 43.5752 82.684C43.8832 82.536 44.1312 82.334 44.3192 82.078C44.5072 81.818 44.6292 81.526 44.6852 81.202C44.7332 80.994 44.7592 80.766 44.7632 80.518C44.7672 80.266 44.7692 80.078 44.7692 79.954L45.1052 80.128C44.8052 80.168 44.4792 80.208 44.1272 80.248C43.7792 80.288 43.4352 80.334 43.0952 80.386C42.7592 80.438 42.4552 80.5 42.1832 80.572C41.9992 80.624 41.8212 80.698 41.6492 80.794C41.4772 80.886 41.3352 81.01 41.2232 81.166C41.1152 81.322 41.0612 81.516 41.0612 81.748C41.0612 81.936 41.1072 82.118 41.1992 82.294C41.2952 82.47 41.4472 82.616 41.6552 82.732C41.8672 82.848 42.1472 82.906 42.4952 82.906ZM50.1172 83.668C49.5212 83.668 49.0172 83.518 48.6052 83.218C48.1932 82.914 47.8812 82.504 47.6692 81.988C47.4572 81.468 47.3512 80.886 47.3512 80.242C47.3512 79.586 47.4572 79.002 47.6692 78.49C47.8852 77.974 48.2012 77.568 48.6172 77.272C49.0332 76.976 49.5452 76.828 50.1532 76.828C50.7452 76.828 51.2532 76.978 51.6772 77.278C52.1012 77.578 52.4252 77.986 52.6492 78.502C52.8772 79.018 52.9912 79.598 52.9912 80.242C52.9912 80.89 52.8772 81.472 52.6492 81.988C52.4212 82.504 52.0932 82.914 51.6652 83.218C51.2372 83.518 50.7212 83.668 50.1172 83.668ZM47.2012 86.368V77.008H47.9932V81.886H48.0892V86.368H47.2012ZM50.0272 82.846C50.4792 82.846 50.8552 82.732 51.1552 82.504C51.4552 82.276 51.6792 81.966 51.8272 81.574C51.9792 81.178 52.0552 80.734 52.0552 80.242C52.0552 79.754 51.9812 79.314 51.8332 78.922C51.6852 78.53 51.4592 78.22 51.1552 77.992C50.8552 77.764 50.4732 77.65 50.0092 77.65C49.5572 77.65 49.1812 77.76 48.8812 77.98C48.5852 78.2 48.3632 78.506 48.2152 78.898C48.0672 79.286 47.9932 79.734 47.9932 80.242C47.9932 80.742 48.0672 81.19 48.2152 81.586C48.3632 81.978 48.5872 82.286 48.8872 82.51C49.1872 82.734 49.5672 82.846 50.0272 82.846ZM57.2188 83.668C56.6228 83.668 56.1188 83.518 55.7068 83.218C55.2948 82.914 54.9828 82.504 54.7708 81.988C54.5588 81.468 54.4528 80.886 54.4528 80.242C54.4528 79.586 54.5588 79.002 54.7708 78.49C54.9868 77.974 55.3028 77.568 55.7188 77.272C56.1348 76.976 56.6468 76.828 57.2548 76.828C57.8468 76.828 58.3548 76.978 58.7788 77.278C59.2028 77.578 59.5268 77.986 59.7508 78.502C59.9788 79.018 60.0928 79.598 60.0928 80.242C60.0928 80.89 59.9788 81.472 59.7508 81.988C59.5228 82.504 59.1948 82.914 58.7668 83.218C58.3388 83.518 57.8228 83.668 57.2188 83.668ZM54.3028 86.368V77.008H55.0948V81.886H55.1908V86.368H54.3028ZM57.1288 82.846C57.5808 82.846 57.9568 82.732 58.2568 82.504C58.5568 82.276 58.7808 81.966 58.9288 81.574C59.0808 81.178 59.1568 80.734 59.1568 80.242C59.1568 79.754 59.0828 79.314 58.9348 78.922C58.7868 78.53 58.5608 78.22 58.2568 77.992C57.9568 77.764 57.5748 77.65 57.1108 77.65C56.6588 77.65 56.2828 77.76 55.9828 77.98C55.6868 78.2 55.4648 78.506 55.3168 78.898C55.1688 79.286 55.0948 79.734 55.0948 80.242C55.0948 80.742 55.1688 81.19 55.3168 81.586C55.4648 81.978 55.6888 82.286 55.9888 82.51C56.2888 82.734 56.6688 82.846 57.1288 82.846Z" fill="#38424E"/>
</svg>
