<svg width="44" height="44" viewBox="0 0 44 44" fill="none" xmlns="http://www.w3.org/2000/svg">
<path d="M1 8C1 4.13401 4.13401 1 8 1H36C39.866 1 43 4.13401 43 8V36C43 39.866 39.866 43 36 43H8C4.13401 43 1 39.866 1 36V8Z" fill="#00E676"/>
<path d="M27.8752 16.0917C27.1112 15.3199 26.2011 14.7081 25.1982 14.2917C24.1952 13.8754 23.1194 13.6629 22.0335 13.6667C17.4835 13.6667 13.7752 17.375 13.7752 21.925C13.7752 23.3833 14.1585 24.8 14.8752 26.05L13.7085 30.3333L18.0835 29.1833C19.2918 29.8417 20.6502 30.1917 22.0335 30.1917C26.5835 30.1917 30.2918 26.4833 30.2918 21.9333C30.2918 19.725 29.4335 17.65 27.8752 16.0917ZM22.0335 28.7917C20.8002 28.7917 19.5918 28.4583 18.5335 27.8333L18.2835 27.6833L15.6835 28.3667L16.3752 25.8333L16.2085 25.575C15.5233 24.4808 15.1594 23.216 15.1585 21.925C15.1585 18.1417 18.2418 15.0583 22.0252 15.0583C23.8585 15.0583 25.5835 15.775 26.8752 17.075C27.5147 17.7116 28.0216 18.4689 28.3663 19.3029C28.7111 20.1368 28.8869 21.0309 28.8835 21.9333C28.9002 25.7167 25.8168 28.7917 22.0335 28.7917ZM25.8002 23.6583C25.5918 23.5583 24.5752 23.0583 24.3918 22.9833C24.2002 22.9167 24.0668 22.8833 23.9252 23.0833C23.7835 23.2917 23.3918 23.7583 23.2752 23.8917C23.1585 24.0333 23.0335 24.05 22.8252 23.9417C22.6168 23.8417 21.9502 23.6167 21.1668 22.9167C20.5502 22.3667 20.1418 21.6917 20.0168 21.4833C19.9002 21.275 20.0002 21.1667 20.1085 21.0583C20.2002 20.9667 20.3168 20.8167 20.4168 20.7C20.5168 20.5833 20.5585 20.4917 20.6252 20.3583C20.6918 20.2167 20.6585 20.1 20.6085 20C20.5585 19.9 20.1418 18.8833 19.9752 18.4667C19.8085 18.0667 19.6335 18.1167 19.5085 18.1083H19.1085C18.9668 18.1083 18.7502 18.1583 18.5585 18.3667C18.3752 18.575 17.8418 19.075 17.8418 20.0917C17.8418 21.1083 18.5835 22.0917 18.6835 22.225C18.7835 22.3667 20.1418 24.45 22.2085 25.3417C22.7002 25.5583 23.0835 25.6833 23.3835 25.775C23.8752 25.9333 24.3252 25.9083 24.6835 25.8583C25.0835 25.8 25.9085 25.3583 26.0752 24.875C26.2502 24.3917 26.2502 23.9833 26.1918 23.8917C26.1335 23.8 26.0085 23.7583 25.8002 23.6583Z" fill="white"/>
<path d="M1 8C1 4.13401 4.13401 1 8 1H36C39.866 1 43 4.13401 43 8V36C43 39.866 39.866 43 36 43H8C4.13401 43 1 39.866 1 36V8Z" stroke="#00E676" stroke-width="2"/>
</svg>
