<svg width="76" height="15" viewBox="0 0 76 15" fill="none" xmlns="http://www.w3.org/2000/svg">
<path d="M2.83356 14.272L4.54556 9.184L0.417563 6.416H5.47356L7.28156 0.959999L9.12156 6.416H14.1456L10.0176 9.184L11.7616 14.272L7.28156 11.024L2.83356 14.272ZM18.1929 14.272L19.9049 9.184L15.7769 6.416H20.8329L22.6409 0.959999L24.4809 6.416H29.5049L25.3769 9.184L27.1209 14.272L22.6409 11.024L18.1929 14.272ZM33.5523 14.272L35.2643 9.184L31.1363 6.416H36.1923L38.0003 0.959999L39.8403 6.416H44.8643L40.7363 9.184L42.4803 14.272L38.0003 11.024L33.5523 14.272ZM48.9117 14.272L50.6237 9.184L46.4957 6.416H51.5517L53.3597 0.959999L55.1997 6.416H60.2237L56.0957 9.184L57.8397 14.272L53.3597 11.024L48.9117 14.272ZM64.2711 14.272L65.9831 9.184L61.8551 6.416H66.9111L68.7191 0.959999L70.5591 6.416H75.5831L71.4551 9.184L73.1991 14.272L68.7191 11.024L64.2711 14.272Z" fill="#FF9F43"/>
</svg>
