<svg width="26" height="26" viewBox="0 0 26 26" fill="none" xmlns="http://www.w3.org/2000/svg">
<g clip-path="url(#clip0_1012_3614)">
<path d="M21.9375 0H4.0625C3.8475 0.00159459 3.64177 0.087709 3.48974 0.239738C3.33771 0.391767 3.25159 0.597504 3.25 0.8125V10.0212C3.24987 10.4124 3.32683 10.7998 3.47648 11.1613C3.62613 11.5227 3.84554 11.8512 4.12218 12.1278C4.39882 12.4045 4.72725 12.6239 5.08872 12.7735C5.45019 12.9232 5.83761 13.0001 6.22883 13H8.94766C9.39325 12.3345 9.99596 11.789 10.7025 11.4118C11.409 11.0346 12.1976 10.8373 12.9985 10.8373C13.7994 10.8373 14.588 11.0346 15.2945 11.4118C16.001 11.789 16.6037 12.3345 17.0493 13H19.7681C20.1596 13.0005 20.5473 12.9239 20.9092 12.7744C21.271 12.6249 21.5998 12.4056 21.8767 12.1289C22.1537 11.8522 22.3734 11.5236 22.5232 11.162C22.6731 10.8003 22.7501 10.4127 22.75 10.0212V0.8125C22.7484 0.597504 22.6623 0.391767 22.5103 0.239738C22.3582 0.087709 22.1525 0.00159459 21.9375 0ZM17.875 6.77117C17.875 6.93187 17.8273 7.08895 17.738 7.22254C17.6487 7.35614 17.5218 7.46025 17.3733 7.52172C17.2749 7.56288 17.1692 7.58394 17.0625 7.58367C16.8471 7.58411 16.6403 7.49899 16.4877 7.34703L15.6406 6.5L14.0969 7.91578C13.9695 8.03381 13.8077 8.10794 13.6352 8.12732C13.4627 8.14669 13.2885 8.11028 13.1381 8.02344L11.7812 7.24445L9.51133 9.51234C9.35772 9.65829 9.15317 9.73845 8.9413 9.73573C8.72943 9.73302 8.527 9.64765 8.37718 9.49782C8.22735 9.348 8.14198 9.14557 8.13927 8.9337C8.13655 8.72183 8.21671 8.51728 8.36266 8.36367L11.0703 5.655C11.1962 5.52869 11.3602 5.44733 11.537 5.42347C11.7137 5.39961 11.8934 5.43458 12.0484 5.52297L13.4276 6.31109L14.4859 5.3432L13.781 4.63227C13.6691 4.5185 13.5932 4.3743 13.5627 4.21765C13.5322 4.061 13.5485 3.89885 13.6096 3.75142C13.6707 3.604 13.7739 3.47783 13.9062 3.38865C14.0386 3.29948 14.1942 3.25126 14.3538 3.25H17.0625C17.278 3.25 17.4847 3.3356 17.637 3.48798C17.7894 3.64035 17.875 3.84701 17.875 4.0625V6.77117Z" fill="#B5E7D9"/>
<path d="M4.33381 18.4163C5.53024 18.4163 6.50014 17.4464 6.50014 16.25C6.50014 15.0536 5.53024 14.0837 4.33381 14.0837C3.13738 14.0837 2.16748 15.0536 2.16748 16.25C2.16748 17.4464 3.13738 18.4163 4.33381 18.4163Z" fill="#45C4A0"/>
<path d="M7.22617 19.9337C6.66412 20.357 6.20815 20.9052 5.89424 21.535C5.58033 22.1647 5.41707 22.8588 5.41734 23.5625V23.8337H0.812501C0.597505 23.8321 0.391768 23.746 0.239739 23.5939C0.0877097 23.4419 0.00159529 23.2362 6.92968e-07 23.0212V22.4798C-0.000266252 22.0885 0.0765938 21.701 0.226187 21.3394C0.37578 20.9778 0.595173 20.6493 0.871822 20.3725C1.14847 20.0958 1.47695 19.8763 1.83849 19.7266C2.20002 19.5769 2.58752 19.4999 2.97883 19.5H5.6875C6.23047 19.5006 6.76279 19.6507 7.22617 19.9337Z" fill="#45C4A0"/>
<path d="M21.6663 18.4163C22.8628 18.4163 23.8327 17.4464 23.8327 16.25C23.8327 15.0536 22.8628 14.0837 21.6663 14.0837C20.4699 14.0837 19.5 15.0536 19.5 16.25C19.5 17.4464 20.4699 18.4163 21.6663 18.4163Z" fill="#45C4A0"/>
<path d="M26.0001 22.4788V23.0202C25.9982 23.2351 25.912 23.4407 25.76 23.5926C25.6081 23.7446 25.4025 23.8308 25.1876 23.8327H20.5837V23.5625C20.5842 22.8588 20.421 22.1647 20.1071 21.5349C19.7931 20.9051 19.3371 20.3569 18.7749 19.9337C19.2379 19.6505 19.7699 19.5005 20.3126 19.5H23.0212C23.4125 19.4999 23.7999 19.5768 24.1613 19.7265C24.5228 19.8761 24.8512 20.0955 25.1279 20.3722C25.4045 20.6488 25.6239 20.9773 25.7736 21.3387C25.9232 21.7002 26.0002 22.0876 26.0001 22.4788Z" fill="#45C4A0"/>
<path d="M13 18.9587C14.7949 18.9587 16.25 17.5036 16.25 15.7087C16.25 13.9137 14.7949 12.4587 13 12.4587C11.2051 12.4587 9.75 13.9137 9.75 15.7087C9.75 17.5036 11.2051 18.9587 13 18.9587Z" fill="#45C4A0"/>
<path d="M15.979 20.5837H10.0203C9.23046 20.5842 8.4731 20.8982 7.91458 21.4567C7.35605 22.0153 7.04204 22.7726 7.0415 23.5625V25.1875C7.0415 25.403 7.12711 25.6097 7.27948 25.762C7.43185 25.9144 7.63852 26 7.854 26H18.1453C18.3608 26 18.5675 25.9144 18.7199 25.762C18.8722 25.6097 18.9578 25.403 18.9578 25.1875V23.5625C18.9573 22.7726 18.6433 22.0153 18.0848 21.4567C17.5262 20.8982 16.7689 20.5842 15.979 20.5837Z" fill="#45C4A0"/>
<path d="M24.1037 1.625H1.896C1.68051 1.625 1.47385 1.5394 1.32147 1.38702C1.1691 1.23465 1.0835 1.02799 1.0835 0.8125C1.0835 0.597012 1.1691 0.390349 1.32147 0.237976C1.47385 0.0856024 1.68051 0 1.896 0L24.1047 0C24.3202 0 24.5268 0.0856024 24.6792 0.237976C24.8316 0.390349 24.9172 0.597012 24.9172 0.8125C24.9172 1.02799 24.8316 1.23465 24.6792 1.38702C24.5268 1.5394 24.3202 1.625 24.1047 1.625H24.1037Z" fill="#B5E7D9"/>
</g>
<defs>
<clipPath id="clip0_1012_3614">
<rect width="26" height="26" fill="white"/>
</clipPath>
</defs>
</svg>
