<svg width="36" height="36" viewBox="0 0 36 36" fill="none" xmlns="http://www.w3.org/2000/svg">
<path d="M8.25049 25.4981C10.7358 25.4981 12.7505 23.4834 12.7505 20.9981C12.7505 18.5129 10.7358 16.4981 8.25049 16.4981C5.76521 16.4981 3.75049 18.5129 3.75049 20.9981C3.75049 23.4834 5.76521 25.4981 8.25049 25.4981Z" fill="#A07CC5"/>
<path d="M12.375 28.4991H4.12453C3.03049 28.5002 1.98163 28.9355 1.20829 29.7093C0.43495 30.4832 0.000372058 31.5324 0 32.6264L0 34.8764C0 35.1748 0.118526 35.4609 0.329505 35.6719C0.540483 35.8829 0.826631 36.0014 1.125 36.0014H15.3745C15.6729 36.0014 15.959 35.8829 16.17 35.6719C16.381 35.4609 16.4995 35.1748 16.4995 34.8764V32.6264C16.4992 31.5324 16.0646 30.4832 15.2912 29.7093C14.5179 28.9355 13.469 28.5002 12.375 28.4991Z" fill="#A07CC5"/>
<path d="M27.7495 25.4981C30.2348 25.4981 32.2495 23.4834 32.2495 20.9981C32.2495 18.5129 30.2348 16.4981 27.7495 16.4981C25.2642 16.4981 23.2495 18.5129 23.2495 20.9981C23.2495 23.4834 25.2642 25.4981 27.7495 25.4981Z" fill="#A07CC5"/>
<path d="M31.8755 28.4991H23.625C22.531 28.5002 21.4821 28.9355 20.7088 29.7093C19.9354 30.4832 19.5009 31.5324 19.5005 32.6264V34.8764C19.5005 35.1748 19.619 35.4609 19.83 35.6719C20.041 35.8829 20.3271 36.0014 20.6255 36.0014H34.875C35.1734 36.0014 35.4595 35.8829 35.6705 35.6719C35.8815 35.4609 36 35.1748 36 34.8764V32.6264C35.9996 31.5324 35.5651 30.4832 34.7917 29.7093C34.0184 28.9355 32.9695 28.5002 31.8755 28.4991Z" fill="#A07CC5"/>
<path d="M21.06 15.2564V16.3364C21.0578 16.78 20.8795 17.2045 20.5644 17.5167C20.2493 17.8289 19.8231 18.0033 19.3795 18.0014H16.619C15.809 18.0014 14.9315 17.4009 14.9315 16.0664V15.2564H21.06ZM24.75 6.70639C24.7524 7.70167 24.5313 8.68479 24.1029 9.58317C23.6745 10.4815 23.0499 11.2722 22.275 11.8969C21.6788 12.3605 21.2646 13.0191 21.105 13.7573H14.9062C14.7844 13.0437 14.392 12.4045 13.8108 11.9728C12.9909 11.3361 12.332 10.5158 11.8872 9.57783C11.4424 8.63987 11.2241 7.61055 11.25 6.5728C11.3245 3.00233 14.31 0.0477986 17.8945 0.00139231C18.7945 -0.0187507 19.6892 0.143838 20.5245 0.479327C21.3599 0.814817 22.1185 1.31624 22.7545 1.95327C23.3897 2.57057 23.8939 3.3097 24.2368 4.12642C24.5796 4.94313 24.7542 5.82063 24.75 6.70639Z" fill="#E3D8EE"/>
</svg>
