<svg width="50" height="53" viewBox="0 0 50 53" fill="none" xmlns="http://www.w3.org/2000/svg">
<path d="M18.387 41.0582H31.6227V47.1114H18.387V41.0582Z" fill="#C1E5EE"/>
<path d="M44.5426 5.16602H5.45742C2.72031 5.16602 0.5 7.52227 0.5 10.4168V37.2699C0.5 40.1746 2.72031 42.5207 5.45742 42.5309H16.9992V45.6488H14.243C13.4773 45.6488 12.8553 46.309 12.8553 47.1215C12.8553 47.934 13.4773 48.5941 14.243 48.5941H35.7666C36.5322 48.5941 37.1543 47.934 37.1543 47.1215C37.1543 46.309 36.5322 45.6488 35.7666 45.6488H33.0104V41.3934C33.0391 41.2715 33.0486 41.1496 33.0486 41.0277C33.0295 40.2152 32.3883 39.5754 31.6322 39.5957H5.45742C4.25156 39.5957 3.27539 38.5598 3.27539 37.2801V10.4168C3.27539 9.13711 4.25156 8.10117 5.45742 8.10117H44.5521C45.758 8.10117 46.7342 9.13711 46.7342 10.4168V37.2699C46.7342 38.5496 45.758 39.5855 44.5521 39.5855H40.0828C39.3172 39.6059 38.7143 40.2863 38.7334 41.0887C38.7525 41.9012 39.3937 42.541 40.1498 42.5207H44.5426C47.2797 42.5207 49.4904 40.1645 49.5 37.2699V10.4168C49.5 7.52227 47.2797 5.16602 44.5426 5.16602ZM30.235 42.5309V45.6488H19.765V42.5309H30.235Z" fill="#15434E"/>
<path d="M21.5643 32.7503C20.3488 30.7394 20.9039 28.048 22.7988 26.7582C24.6938 25.4683 27.2299 26.0574 28.4453 28.0683C29.3066 29.4902 29.3066 31.3183 28.4453 32.7503H38.073V27.6417L35.1637 27.1441C34.6947 25.4886 33.8621 23.9652 32.7424 22.7058L33.7951 19.791L29.2684 17.0183L27.4117 19.4355C25.823 19.0394 24.1674 19.0394 22.5787 19.4355L20.7221 17.0183L16.2049 19.791L17.2576 22.7058C16.1379 23.9652 15.3148 25.4886 14.8363 27.1441L11.9365 27.6417V32.7503H21.5643Z" fill="#C1E5EE"/>
<path d="M38.0635 34.223H28.4357C27.6701 34.223 27.048 33.5629 27.048 32.7504C27.048 32.466 27.1246 32.1918 27.2682 31.9582C28.0721 30.6277 27.7084 28.8504 26.4451 27.9973C25.1914 27.1441 23.5166 27.5301 22.7127 28.8707C22.148 29.8152 22.148 31.0137 22.7127 31.9582C23.1242 32.6387 22.9424 33.5527 22.3012 33.9895C22.081 34.1418 21.8131 34.223 21.5547 34.223H11.9269C11.1613 34.223 10.5392 33.5629 10.5488 32.7504V27.6418C10.5488 26.9207 11.0465 26.3113 11.7164 26.1895L13.8027 25.834C14.2525 24.5949 14.8842 23.4371 15.6689 22.4113L14.9129 20.3191C14.6736 19.6488 14.9224 18.8871 15.5158 18.5215L20.0426 15.7488C20.6359 15.3934 21.3824 15.5355 21.8131 16.0941L23.1433 17.8309C24.3779 17.6277 25.6412 17.6277 26.8758 17.8309L28.206 16.0941C28.6367 15.5355 29.3832 15.3832 29.9765 15.7488L34.5033 18.5215C35.0967 18.8871 35.3455 19.6488 35.1062 20.3191L34.3502 22.4113C35.1349 23.4473 35.757 24.5949 36.2068 25.834L38.2931 26.1895C38.9631 26.3012 39.4607 26.9207 39.4607 27.6418V32.7504C39.4512 33.5629 38.8291 34.223 38.0635 34.223ZM30.4072 31.2777H36.6853V28.891L34.9435 28.5965C34.4172 28.5051 33.9865 28.109 33.8334 27.5707C33.4219 26.1285 32.6945 24.8082 31.7279 23.7113C31.3642 23.3051 31.2494 22.7059 31.4408 22.1777L32.0724 20.4309L29.5937 18.9074L28.4836 20.3598C28.1486 20.7965 27.6127 20.9895 27.0959 20.8676C25.7082 20.5324 24.2726 20.5324 22.8945 20.8676C22.3777 20.9895 21.8418 20.7965 21.5068 20.3598L20.3967 18.9074L17.918 20.4309L18.5496 22.1777C18.741 22.7059 18.6262 23.2949 18.2625 23.7113C17.2959 24.8082 16.5685 26.1285 16.157 27.5707C16.0039 28.109 15.5732 28.5051 15.0469 28.5965L13.3051 28.891V31.2777H19.5832C19.5449 30.9934 19.5258 30.6988 19.5258 30.4043C19.564 27.1949 22.0428 24.6356 25.067 24.6762C28.0338 24.7168 30.4264 27.2559 30.4646 30.4043C30.4646 30.6988 30.4455 30.9934 30.4072 31.2777Z" fill="#15434E"/>
</svg>
