<svg width="45" height="44" viewBox="0 0 45 44" fill="none" xmlns="http://www.w3.org/2000/svg">
<g clip-path="url(#clip0_99_7679)">
<path d="M32.1733 12.375V9.79688C31.9932 9.74316 31.8131 9.68945 31.6105 9.63574C29.8095 9.1416 25.9374 8.46484 22.5944 8.46484C19.2513 8.46484 15.368 9.1416 13.567 9.63574C13.3756 9.68945 13.2631 9.73242 13.0942 9.78613L13.173 12.1279V12.375C13.173 14.2871 11.5409 15.8447 9.5373 15.8447H5.57517C3.57158 15.8447 1.93945 14.2871 1.93945 12.375V12.3428L1.95071 11.333C2.05201 10.5596 2.26588 9.80762 2.60356 9.09863C2.89622 8.4541 3.27893 7.8418 3.74043 7.29395C7.24107 3.01855 12.7003 1.27832 22.5944 1.27832C36.2705 1.27832 41.2569 7.02539 41.4708 7.2832C41.9323 7.8418 42.315 8.4541 42.6077 9.09863C42.9341 9.80762 43.1479 10.5703 43.2493 11.333L43.2605 12.3428C43.283 14.2549 41.6621 15.8232 39.6586 15.8447H35.809C33.8054 15.8555 32.1845 14.2979 32.1733 12.375C32.1733 12.3857 32.1733 12.3857 32.1733 12.375Z" fill="#45C4A0"/>
<path d="M39.6249 17.123H35.8091C33.0626 17.123 30.8339 14.9961 30.8339 12.375V10.7529C29.078 10.3232 25.6449 9.73242 22.5945 9.73242C19.5891 9.73242 16.246 10.291 14.4563 10.7207L14.5014 12.085V12.375C14.5014 14.9961 12.2726 17.123 9.52617 17.123H5.57528C2.8288 17.123 0.600098 14.9961 0.600098 12.375V12.332L0.611354 11.3115C0.611354 11.2578 0.611354 11.2148 0.62261 11.1719C0.746427 10.2803 0.99406 9.39942 1.37677 8.57227L1.38802 8.56152C1.72571 7.82031 2.16469 7.12207 2.69373 6.48828C6.47577 1.87988 12.2389 0 22.5945 0C28.5039 0 33.5804 1.03125 37.6889 3.05078C40.9081 4.64063 42.3489 6.30566 42.5177 6.48828C43.0468 7.13281 43.4857 7.83106 43.8347 8.58301C44.2174 9.41016 44.465 10.291 44.5776 11.1826C44.5888 11.2256 44.5888 11.2793 44.5888 11.3223L44.6001 12.332C44.6226 14.9531 42.4164 17.1016 39.6699 17.123H39.6249ZM22.6057 7.18652C26.2189 7.18652 30.1923 7.91699 31.9933 8.41113C32.1171 8.44336 32.2409 8.48633 32.3647 8.51856L32.5674 8.58301C33.1414 8.74414 33.5241 9.23828 33.5241 9.80762V12.3857C33.5241 13.5996 34.5484 14.5771 35.8204 14.5771H39.6362C40.9081 14.5771 41.9324 13.5889 41.9324 12.3857V12.3643L41.9212 11.4189C41.8311 10.7959 41.651 10.1836 41.3921 9.60352C41.1445 9.05567 40.8181 8.54004 40.4353 8.06738C40.4241 8.05664 39.2422 6.6709 36.4732 5.30664C33.8956 4.06055 29.4157 2.55664 22.5945 2.55664C13.1619 2.55664 8.0066 4.15723 4.78736 8.07812C4.78736 8.07812 4.78736 8.08887 4.7761 8.08887C4.39339 8.56152 4.06697 9.06641 3.81934 9.61426C3.56045 10.1943 3.38035 10.7959 3.2903 11.4189L3.27904 12.3535C3.26779 13.5674 4.29209 14.5557 5.55277 14.5664H9.53742C10.8094 14.5664 11.8337 13.5889 11.8337 12.375V12.1494L11.7549 9.81836C11.7324 9.23828 12.1376 8.71191 12.7229 8.55078C12.7792 8.54004 12.8242 8.51855 12.8692 8.50781C12.9593 8.47559 13.0718 8.44336 13.2069 8.40039C14.9966 7.91699 18.97 7.18652 22.6057 7.18652Z" fill="#45C4A0"/>
<path d="M38.1843 44H7.01624C5.09145 44 3.52686 42.5068 3.52686 40.6699C3.52686 40.5947 3.52686 40.5088 3.53811 40.4336L4.86633 23.3428C4.97889 21.7959 6.2058 20.5283 7.81542 20.3027L15.0531 19.1211L15.9311 16.6826C16.4151 15.3398 17.7433 14.4375 19.2291 14.4375H25.9715C27.4573 14.4375 28.7855 15.3398 29.2695 16.6826L30.1475 19.1211L37.3851 20.3027C38.9947 20.5283 40.2217 21.7959 40.3342 23.3428L41.6624 40.4336C41.7975 42.2705 40.3567 43.8604 38.4319 44H38.1843ZM19.2291 16.9834C18.8801 16.9834 18.5762 17.1982 18.4637 17.5098L17.3268 20.6572C17.1692 21.0977 16.764 21.4199 16.2912 21.5059L8.25441 22.8164L8.22064 22.8271C7.84919 22.8809 7.55653 23.1709 7.53402 23.5361L6.2058 40.6162C6.17203 41.0352 6.50972 41.4111 6.9487 41.4434H38.1731C38.6233 41.4434 38.9835 41.0996 38.9835 40.6699V40.6162L37.6665 23.5254C37.644 23.1602 37.3514 22.8701 36.9799 22.8164L36.9461 22.8057L28.9093 21.4951C28.4253 21.4199 28.0313 21.0869 27.8737 20.6465L26.7481 17.499C26.6356 17.1875 26.3317 16.9834 25.9827 16.9727H19.2291V16.9834Z" fill="#B5E7D9"/>
<path d="M22.6058 38.3604C18.1371 38.3604 14.5239 34.9014 14.5239 30.6475C14.5239 26.3936 18.1484 22.9346 22.6058 22.9346C23.3487 22.9346 23.9453 23.5039 23.9453 24.2129C23.9453 24.9219 23.3487 25.4912 22.6058 25.4912C19.6229 25.4912 17.2029 27.8008 17.2029 30.6475C17.2029 33.4941 19.6229 35.8037 22.6058 35.8037C25.5886 35.8037 28.0087 33.4941 28.0087 30.6475C28.0087 29.4766 27.5922 28.3379 26.8268 27.4248C26.3653 26.877 26.4554 26.0713 27.0294 25.6309C27.6035 25.1904 28.4477 25.2764 28.9092 25.8242C31.7007 29.1543 31.1379 34.0098 27.6485 36.6738C26.219 37.7695 24.4293 38.3604 22.6058 38.3604Z" fill="#B5E7D9"/>
</g>
<defs>
<clipPath id="clip0_99_7679">
<rect width="44" height="44" fill="white" transform="translate(0.600098)"/>
</clipPath>
</defs>
</svg>
