<svg width="44" height="44" viewBox="0 0 44 44" fill="none" xmlns="http://www.w3.org/2000/svg">
<g clip-path="url(#clip0_1453_4368)">
<path d="M21.47 0.455098C17.0817 4.68952 14.4181 11.8555 14.8087 18.4542C11.8659 21.5224 10.2204 25.6077 10.2152 29.8589C10.214 29.9803 10.2469 30.0995 10.31 30.2031C10.3732 30.3067 10.4641 30.3905 10.5725 30.445C10.6809 30.4995 10.8024 30.5226 10.9232 30.5115C11.0441 30.5004 11.1594 30.4556 11.256 30.3823L15.3028 27.355L15.3615 28.2759C15.3707 28.4419 15.4432 28.598 15.5639 28.7123C15.6846 28.8266 15.8445 28.8904 16.0108 28.8907H27.8346C28.0011 28.8913 28.1614 28.8279 28.2824 28.7136C28.4034 28.5993 28.4759 28.4429 28.4848 28.2767L28.5365 27.349L32.5833 30.3849C32.6829 30.4524 32.7993 30.4907 32.9194 30.4958C33.0396 30.5008 33.1588 30.4723 33.2637 30.4134C33.3198 30.3848 33.371 30.3476 33.4154 30.303C33.5461 30.1679 33.6204 29.9882 33.6232 29.8003C33.6075 25.5689 31.9629 21.506 29.0306 18.4551C29.4126 11.8409 26.7688 4.65848 22.3685 0.456823C22.2476 0.34165 22.0871 0.277404 21.9201 0.277404C21.7531 0.277405 21.5926 0.34165 21.4717 0.456822L21.47 0.455098ZM25.1736 12.6341C25.1734 13.277 24.9827 13.9055 24.6254 14.44C24.2681 14.9745 23.7603 15.3911 23.1663 15.637C22.5723 15.883 21.9186 15.9473 21.288 15.8219C20.6574 15.6964 20.0782 15.3868 19.6235 14.9322C19.1689 14.4776 18.8593 13.8984 18.7338 13.2679C18.6083 12.6373 18.6727 11.9837 18.9187 11.3897C19.1647 10.7958 19.5813 10.288 20.1158 9.93078C20.6504 9.57352 21.2789 9.38277 21.9218 9.38265C22.3493 9.38112 22.7728 9.46418 23.168 9.62704C23.5632 9.7899 23.9223 10.0293 24.2246 10.3316C24.5268 10.6338 24.7663 10.9929 24.9292 11.388C25.092 11.7832 25.1751 12.2067 25.1736 12.6341Z" fill="#E2626B"/>
<path d="M17.9013 35.1176C17.9004 37.0862 21.0005 42.8815 21.3506 43.5385C21.3993 43.6272 21.4678 43.7033 21.5508 43.761C21.6339 43.8187 21.7291 43.8563 21.8292 43.8709C21.9292 43.8855 22.0313 43.8767 22.1274 43.8453C22.2234 43.8138 22.3109 43.7604 22.3829 43.6894C22.4273 43.6445 22.4651 43.5934 22.495 43.5377C22.8485 42.8841 25.9434 37.0853 25.9426 35.115C25.8999 34.0772 25.4574 33.096 24.7078 32.3768C23.9582 31.6576 22.9595 31.2561 21.9207 31.2564C20.8818 31.2566 19.8833 31.6585 19.134 32.378C18.3847 33.0975 17.9427 34.0789 17.9004 35.1168L17.9013 35.1176Z" fill="#F3C0C4"/>
</g>
<defs>
<clipPath id="clip0_1453_4368">
<rect width="44" height="44" fill="white"/>
</clipPath>
</defs>
</svg>
