<svg width="49" height="44" viewBox="0 0 49 44" fill="none" xmlns="http://www.w3.org/2000/svg">
<g clip-path="url(#clip0_99_7665)">
<path d="M33.2989 27.4983H21.2991V25.4996C21.2997 25.2024 21.212 24.9117 21.0471 24.6644C20.8822 24.4171 20.6476 24.2244 20.373 24.1107C20.0983 23.997 19.7961 23.9674 19.5047 24.0258C19.2132 24.0841 18.9457 24.2277 18.736 24.4384L15.2373 27.9371C14.9562 28.2184 14.7983 28.5997 14.7983 28.9974C14.7983 29.395 14.9562 29.7764 15.2373 30.0577L18.736 33.562C18.9458 33.7728 19.2135 33.9164 19.5051 33.9747C19.7968 34.033 20.0991 34.0033 20.3738 33.8894C20.6485 33.7754 20.8832 33.5824 21.0479 33.3348C21.2127 33.0873 21.3001 32.7963 21.2991 32.4989V30.4946H33.2989C33.6968 30.4946 34.0783 30.3365 34.3596 30.0552C34.6409 29.7739 34.7989 29.3924 34.7989 28.9946C34.7989 28.5968 34.6409 28.2152 34.3596 27.9339C34.0783 27.6526 33.6968 27.4946 33.2989 27.4946V27.4983ZM34.3621 37.9382L30.8615 34.4358C30.6516 34.2256 30.384 34.0825 30.0927 34.0246C29.8014 33.9667 29.4995 33.9966 29.2252 34.1104C28.9509 34.2243 28.7166 34.417 28.5519 34.6642C28.3872 34.9114 28.2997 35.2019 28.3003 35.4989V37.4995H16.3004C15.9026 37.4995 15.5211 37.6575 15.2398 37.9388C14.9585 38.2201 14.8005 38.6016 14.8005 38.9994C14.8005 39.3973 14.9585 39.7788 15.2398 40.0601C15.5211 40.3414 15.9026 40.4994 16.3004 40.4994H28.3003V42.5C28.2997 42.797 28.3872 43.0875 28.5519 43.3347C28.7166 43.5819 28.9509 43.7746 29.2252 43.8884C29.4995 44.0023 29.8014 44.0322 30.0927 43.9743C30.384 43.9163 30.6516 43.7732 30.8615 43.5631L34.3621 40.0607C34.5015 39.9214 34.6122 39.7559 34.6876 39.5738C34.7631 39.3917 34.802 39.1966 34.802 38.9994C34.802 38.8023 34.7631 38.6071 34.6876 38.425C34.6122 38.2429 34.5015 38.0775 34.3621 37.9382Z" fill="#F3C0C4"/>
<path d="M38.1399 7.8599C36.8234 5.4756 34.891 3.48844 32.5444 2.10587C30.1978 0.723305 27.5231 -0.00395581 24.7995 1.61832e-05C17.7102 1.61832e-05 11.5603 4.9312 10.004 11.6586C4.8385 12.1986 0.799805 16.541 0.799805 21.7985C0.799805 26.949 4.73725 31.9983 11.6953 31.9983C11.1105 31.1072 10.7996 30.0642 10.8009 28.9984C10.8009 26.1859 12.3384 25.1847 15.914 21.6091C16.5587 20.9622 17.3547 20.4864 18.2298 20.2251C19.1049 19.9637 20.0314 19.9249 20.9253 20.1122C21.8192 20.2996 22.6521 20.7071 23.3486 21.2979C24.0452 21.8887 24.5831 22.644 24.9138 23.4953H33.3006C34.7588 23.4963 36.157 24.076 37.1881 25.1071C38.2192 26.1382 38.7989 27.5364 38.7999 28.9946C38.7974 30.0273 38.5008 31.038 37.9449 31.9083C44.0442 31.2183 48.7991 26.0809 48.7991 19.8597C48.7898 16.9042 47.7015 14.0538 45.7387 11.8442C43.7759 9.63451 41.0737 8.21768 38.1399 7.8599Z" fill="#E2626B"/>
</g>
<defs>
<clipPath id="clip0_99_7665">
<rect width="47.9993" height="44" fill="white" transform="translate(0.799805)"/>
</clipPath>
</defs>
</svg>
