<svg width="20" height="20" viewBox="0 0 20 20" fill="none" xmlns="http://www.w3.org/2000/svg">
<g id="icon">
<path id="Vector" d="M16.6987 14.0475C18.825 12.15 20 10 20 10C20 10 16.25 3.125 9.99995 3.125C8.79944 3.12913 7.61252 3.37928 6.51245 3.86L7.47495 4.82375C8.28425 4.52894 9.13864 4.3771 9.99995 4.375C12.65 4.375 14.8487 5.835 16.46 7.44625C17.2354 8.22586 17.9306 9.08141 18.535 10C18.4625 10.1088 18.3825 10.2288 18.2912 10.36C17.8725 10.96 17.2537 11.76 16.46 12.5538C16.2537 12.76 16.0387 12.9638 15.8137 13.1613L16.6987 14.0475Z" fill="#7E848E"/>
<path id="Vector_2" d="M14.1212 11.4702C14.4001 10.69 14.4518 9.84663 14.2702 9.03822C14.0885 8.22981 13.6811 7.48961 13.0952 6.90372C12.5093 6.31784 11.7691 5.91037 10.9607 5.72874C10.1523 5.5471 9.3089 5.59876 8.5287 5.8777L9.55745 6.90645C10.0378 6.83769 10.5276 6.88175 10.988 7.03515C11.4484 7.18855 11.8668 7.44707 12.2099 7.79021C12.5531 8.13336 12.8116 8.55171 12.965 9.01211C13.1184 9.47251 13.1625 9.96231 13.0937 10.4427L14.1212 11.4702ZM10.4425 13.0939L11.47 14.1214C10.6898 14.4004 9.84639 14.452 9.03798 14.2704C8.22957 14.0888 7.48936 13.6813 6.90348 13.0954C6.3176 12.5095 5.91013 11.7693 5.72849 10.9609C5.54685 10.1525 5.59851 9.30915 5.87745 8.52895L6.9062 9.5577C6.83745 10.0381 6.88151 10.5279 7.03491 10.9883C7.18831 11.4487 7.44682 11.867 7.78997 12.2102C8.13312 12.5533 8.55146 12.8118 9.01187 12.9652C9.47227 13.1186 9.96207 13.1627 10.4425 13.0939Z" fill="#7E848E"/>
<path id="Vector_3" d="M4.1875 6.83774C3.9625 7.03774 3.74625 7.24024 3.54 7.44649C2.76456 8.2261 2.0694 9.08165 1.465 10.0002L1.70875 10.3602C2.1275 10.9602 2.74625 11.7602 3.54 12.554C5.15125 14.1652 7.35125 15.6252 10 15.6252C10.895 15.6252 11.7375 15.459 12.525 15.1752L13.4875 16.1402C12.3874 16.6209 11.2005 16.8711 10 16.8752C3.75 16.8752 0 10.0002 0 10.0002C0 10.0002 1.17375 7.84899 3.30125 5.95274L4.18625 6.83899L4.1875 6.83774ZM17.0575 17.9427L2.0575 2.94274L2.9425 2.05774L17.9425 17.0577L17.0575 17.9427Z" fill="#7E848E"/>
</g>
</svg>
