<svg width="44" height="44" viewBox="0 0 44 44" fill="none" xmlns="http://www.w3.org/2000/svg">
<g clip-path="url(#clip0_99_7647)">
<path d="M21.1781 25.5234C21.0649 25.2909 20.8885 25.0949 20.669 24.9581C20.4494 24.8213 20.1958 24.7492 19.9371 24.75H3.32715C2.96248 24.75 2.61274 24.8949 2.35488 25.1527C2.09701 25.4106 1.95215 25.7603 1.95215 26.125C1.95215 35.9803 10.02 44 19.9406 44C22.6443 44.005 25.3144 43.4005 27.7523 42.2314C27.916 42.1534 28.0627 42.0439 28.1839 41.909C28.3051 41.7741 28.3984 41.6166 28.4584 41.4455C28.5185 41.2744 28.5441 41.0931 28.5339 40.9121C28.5236 40.731 28.4776 40.5538 28.3986 40.3906L21.1781 25.5234Z" fill="#72B6C5"/>
<path d="M26.125 3.26562C25.7603 3.26563 25.4106 3.41049 25.1527 3.66835C24.8949 3.92622 24.75 4.27595 24.75 4.64062V21.0358C24.7495 21.2436 24.7965 21.4488 24.8875 21.6356L32.0598 36.4083C32.2183 36.7354 32.4998 36.9864 32.8428 37.1065C33.1858 37.2267 33.5624 37.2061 33.8903 37.0494C40.1277 34.045 44 27.9073 44 21.0323C44 11.2338 35.9803 3.26562 26.125 3.26562Z" fill="#D4E9ED"/>
<path d="M19.25 17.875V1.375C19.25 1.01033 19.1051 0.660591 18.8473 0.402728C18.5894 0.144866 18.2397 0 17.875 0C13.1361 0.00591258 8.59293 1.89106 5.242 5.242C1.89106 8.59293 0.00591258 13.1361 0 17.875C0 18.2397 0.144866 18.5894 0.402728 18.8473C0.660591 19.1051 1.01033 19.25 1.375 19.25H17.875C18.2397 19.25 18.5894 19.1051 18.8473 18.8473C19.1051 18.5894 19.25 18.2397 19.25 17.875Z" fill="#72B6C5"/>
</g>
<defs>
<clipPath id="clip0_99_7647">
<rect width="44" height="44" fill="white"/>
</clipPath>
</defs>
</svg>
