<svg width="61" height="61" viewBox="0 0 61 61" fill="none" xmlns="http://www.w3.org/2000/svg">
<rect x="0.75" y="0.921875" width="60" height="60" rx="8" fill="#216778" fill-opacity="0.08"/>
<path d="M31.6128 35.5693L31.4503 35.4393C31.3899 35.3983 31.3243 35.3655 31.2553 35.3418L31.0603 35.2552C30.8846 35.2184 30.7025 35.2259 30.5304 35.277C30.3583 35.328 30.2017 35.4211 30.0744 35.5477C29.9787 35.653 29.9018 35.7739 29.8469 35.9052C29.7649 36.1026 29.7432 36.3198 29.7844 36.5295C29.8256 36.7392 29.9279 36.9321 30.0784 37.0838C30.229 37.2355 30.421 37.3393 30.6305 37.3821C30.8399 37.4249 31.0572 37.4048 31.2553 37.3243C31.3847 37.2615 31.505 37.1813 31.6128 37.086C31.7631 36.9337 31.8649 36.7402 31.9054 36.53C31.9459 36.3199 31.9232 36.1025 31.8403 35.9052C31.7862 35.7799 31.7091 35.666 31.6128 35.5693ZM35.1769 20.0885H26.5103C25.6483 20.0885 24.8217 20.4309 24.2122 21.0404C23.6027 21.6499 23.2603 22.4765 23.2603 23.3385V38.5052C23.2603 39.3671 23.6027 40.1938 24.2122 40.8033C24.8217 41.4128 25.6483 41.7552 26.5103 41.7552H35.1769C36.0389 41.7552 36.8655 41.4128 37.475 40.8033C38.0845 40.1938 38.4269 39.3671 38.4269 38.5052V23.3385C38.4269 22.4765 38.0845 21.6499 37.475 21.0404C36.8655 20.4309 36.0389 20.0885 35.1769 20.0885ZM36.2603 38.5052C36.2603 38.7925 36.1461 39.068 35.943 39.2712C35.7398 39.4744 35.4642 39.5885 35.1769 39.5885H26.5103C26.2229 39.5885 25.9474 39.4744 25.7442 39.2712C25.5411 39.068 25.4269 38.7925 25.4269 38.5052V23.3385C25.4269 23.0512 25.5411 22.7756 25.7442 22.5725C25.9474 22.3693 26.2229 22.2552 26.5103 22.2552H35.1769C35.4642 22.2552 35.7398 22.3693 35.943 22.5725C36.1461 22.7756 36.2603 23.0512 36.2603 23.3385V38.5052Z" fill="#216778"/>
</svg>
