<svg width="81" height="25" viewBox="0 0 81 25" fill="none" xmlns="http://www.w3.org/2000/svg">
<path d="M56.5677 5.02679H52.35C52.2541 5.02679 52.1582 5.12266 52.1582 5.21851V7.66286C52.1582 7.75871 52.2541 7.85458 52.35 7.85458H56.5677C56.6635 7.85458 56.7594 7.75871 56.7594 7.66286V5.21851C56.8073 5.12266 56.7115 5.02679 56.5677 5.02679ZM56.5197 8.66936H48.3719C48.276 8.66936 48.1323 8.76521 48.0843 8.86107L47.0299 12.8391L46.982 13.0309L45.7358 8.76522C45.6879 8.66936 45.592 8.57351 45.4482 8.57351H42.285C42.1891 8.57351 42.0453 8.66936 41.9974 8.76522L40.7992 12.7433L40.7513 12.935L40.7033 12.8391L40.224 10.8741L39.6968 8.909C39.6489 8.81314 39.553 8.71729 39.4093 8.71729H33.0348V5.26643C33.0348 5.17057 32.891 5.02679 32.7472 5.07472L28.7212 6.32086C28.5774 6.36879 28.5295 6.41672 28.5295 6.51257V8.66936H27.4751C27.3792 8.66936 27.2833 8.76521 27.2833 8.86107V11.9285C27.2833 12.0244 27.3792 12.1202 27.4751 12.1202H28.5295V15.8586C28.5295 18.4947 29.9673 19.7409 32.6034 19.7409C33.7058 19.7409 34.7602 19.5012 35.4791 19.1178V15.9545C35.4791 15.8107 35.3353 15.7628 35.2395 15.7628C34.8081 15.9545 34.4726 16.0024 34.0892 16.0024C33.3703 16.0024 32.9868 15.7149 32.9868 14.9001V12.1681H35.2874C35.3833 12.1681 35.4791 12.0723 35.4791 11.9764V9.38829L38.4986 19.4053C38.5465 19.5012 38.6424 19.5971 38.7862 19.5971H42.1412C42.237 19.5971 42.3808 19.5012 42.4288 19.4053L43.8666 14.948L44.5855 17.2486L45.2565 19.3574C45.3045 19.4533 45.4003 19.5491 45.5441 19.5491H48.8991C48.995 19.5491 49.1388 19.4533 49.1867 19.3574L52.2541 9.29244V19.3574C52.2541 19.4533 52.35 19.5491 52.4458 19.5491H56.5197C56.6156 19.5491 56.7115 19.4533 56.7115 19.3574V8.909C56.7115 8.76521 56.6156 8.66936 56.5197 8.66936ZM61.8877 5.02679H57.8138C57.718 5.02679 57.6221 5.12266 57.6221 5.21851V19.3574C57.6221 19.4533 57.718 19.5491 57.8138 19.5491H61.8877C61.9836 19.5491 62.0795 19.4533 62.0795 19.3574V5.21851C62.0795 5.12266 61.9836 5.02679 61.8877 5.02679ZM67.3037 5.02679H63.086C62.9901 5.02679 62.8942 5.12266 62.8942 5.21851V7.66286C62.8942 7.75871 62.9901 7.85458 63.086 7.85458H67.3037C67.3995 7.85458 67.4954 7.75871 67.4954 7.66286V5.21851C67.5433 5.12266 67.4475 5.02679 67.3037 5.02679ZM67.2557 8.66936H63.1818C63.086 8.66936 62.9901 8.76521 62.9901 8.86107V19.3574C62.9901 19.4533 63.086 19.5491 63.1818 19.5491H67.2557C67.3516 19.5491 67.4475 19.4533 67.4475 19.3574V8.909C67.4475 8.76521 67.3516 8.66936 67.2557 8.66936ZM74.0137 8.42972C70.419 8.42972 67.8788 11.0658 67.8788 14.1332V14.1811C67.8788 17.2486 70.419 19.8367 73.9657 19.8367C77.5604 19.8367 80.1006 17.2006 80.1006 14.1332V14.0853C80.1006 11.0179 77.5604 8.42972 74.0137 8.42972ZM75.7391 14.1332C75.7391 15.1876 75.0202 16.0024 74.0137 16.0024C73.0072 16.0024 72.2403 15.1397 72.2403 14.0853V14.0374C72.2403 12.9829 72.9592 12.1681 73.9657 12.1681C74.9722 12.1681 75.7391 13.0309 75.7391 14.1332ZM12.4255 0.329796C5.81136 0.329796 0.443359 5.69779 0.443359 12.3119C0.443359 18.9261 5.81136 24.2941 12.4255 24.2941C19.0396 24.2941 24.4076 18.9261 24.4076 12.3119C24.4076 5.69779 19.0396 0.329796 12.4255 0.329796ZM12.4255 21.1308C7.53678 21.1308 3.60665 17.2006 3.60665 12.3119C3.60665 7.42322 7.53678 3.49308 12.4255 3.49308C17.3142 3.49308 21.2443 7.42322 21.2443 12.3119C21.2443 17.2006 17.3142 21.1308 12.4255 21.1308Z" fill="#F12E45"/>
<path d="M15.3971 11.8326C16.7735 11.8326 17.8893 10.7168 17.8893 9.34035C17.8893 7.9639 16.7735 6.84807 15.3971 6.84807C14.0206 6.84807 12.9048 7.9639 12.9048 9.34035C12.9048 10.7168 14.0206 11.8326 15.3971 11.8326Z" fill="#F12E45"/>
<path d="M15.3971 17.7758C16.7735 17.7758 17.8893 16.66 17.8893 15.2835C17.8893 13.9071 16.7735 12.7912 15.3971 12.7912C14.0206 12.7912 12.9048 13.9071 12.9048 15.2835C12.9048 16.66 14.0206 17.7758 15.3971 17.7758Z" fill="#F12E45"/>
<path d="M9.45393 17.7758C10.8304 17.7758 11.9462 16.66 11.9462 15.2835C11.9462 13.9071 10.8304 12.7912 9.45393 12.7912C8.07748 12.7912 6.96165 13.9071 6.96165 15.2835C6.96165 16.66 8.07748 17.7758 9.45393 17.7758Z" fill="#F12E45"/>
<path d="M9.45393 11.8326C10.8304 11.8326 11.9462 10.7168 11.9462 9.34035C11.9462 7.9639 10.8304 6.84807 9.45393 6.84807C8.07748 6.84807 6.96165 7.9639 6.96165 9.34035C6.96165 10.7168 8.07748 11.8326 9.45393 11.8326Z" fill="#F12E45"/>
</svg>
