<svg width="76" height="73" viewBox="0 0 76 73" fill="none" xmlns="http://www.w3.org/2000/svg">
<g clip-path="url(#clip0_225_7512)">
<g clip-path="url(#clip1_225_7512)">
<path d="M60.9615 27.1943C60.9615 33.0354 58.8225 38.3007 55.3672 42.4141C54.5445 43.4014 53.6395 44.2241 52.7345 45.0468C52.1587 45.5404 51.5828 45.9517 51.0069 46.4453C49.8551 47.268 48.5388 48.0084 47.2225 48.5843C46.0707 49.1602 44.8367 49.5716 43.5204 49.9006C42.2864 50.2297 41.0523 50.4765 39.736 50.5588C38.9956 50.6411 38.2552 50.6411 37.5147 50.6411C36.7743 50.6411 36.0339 50.6411 35.2935 50.5588C33.9772 50.4765 32.7431 50.2297 31.5091 49.9006C30.1928 49.5716 28.9587 49.1602 27.807 48.5843C26.4907 48.0084 25.2566 47.268 24.0226 46.4453C23.4467 46.034 22.7886 45.5404 22.2949 45.0468C21.3077 44.2241 20.485 43.3191 19.6623 42.4141C16.207 38.3007 14.068 33.0354 14.068 27.1943C14.068 26.2071 14.1503 25.2199 14.2326 24.3149H18.0169C17.8524 25.2199 17.7701 26.2071 17.7701 27.1943C17.7701 31.966 19.4978 36.3262 22.2949 39.7815C22.8708 40.4397 23.4467 41.0978 24.0226 41.6737C24.3517 41.9205 24.5985 42.2496 24.9276 42.4964C25.8325 43.2368 26.7375 43.895 27.807 44.4709C28.9587 45.129 30.1928 45.7049 31.5091 46.1163C32.7431 46.5276 33.9772 46.7744 35.2935 46.9389C36.0339 47.0212 36.7743 47.1035 37.5147 47.1035C38.2552 47.1035 38.9956 47.0212 39.736 46.9389C41.0523 46.7744 42.2864 46.5276 43.5204 46.1163C44.8367 45.7049 46.0707 45.129 47.2225 44.4709C48.2097 43.895 49.197 43.2368 50.1019 42.4964C50.431 42.2496 50.6778 42.0028 51.0069 41.6737C51.665 41.0978 52.2409 40.4397 52.7345 39.7815C55.5317 36.4085 57.2594 31.966 57.2594 27.1943C57.2594 26.2071 57.1771 25.2199 57.0126 24.3149C56.9303 23.8213 56.848 23.2454 56.6835 22.7518C56.3544 21.4355 55.9431 20.2015 55.3672 18.9674C55.1204 18.4738 54.8736 17.8979 54.5445 17.4043C53.9686 16.4171 53.3104 15.5121 52.6523 14.6071C52.0764 13.949 51.5005 13.2908 50.9246 12.715C50.5956 12.4681 50.3487 12.1391 50.0197 11.8923C49.1147 11.1518 48.2097 10.4937 47.1402 9.9178C45.9885 9.25965 44.7544 8.68377 43.4381 8.27242C42.2041 7.86107 40.9701 7.61427 39.6537 7.44973C38.9133 7.36746 38.1729 7.28519 37.4325 7.28519C36.6921 7.28519 35.9516 7.36746 35.2112 7.44973C33.8949 7.61427 32.6609 7.86107 31.4268 8.27242C30.1105 8.68377 28.8765 9.25965 27.7247 9.9178C26.7375 10.4937 25.7502 11.1518 24.8453 11.8923C24.5162 12.1391 24.2694 12.3859 23.9403 12.715C23.2822 13.2908 22.7063 13.949 22.2127 14.6071C21.4723 15.5121 20.8141 16.4171 20.3205 17.4043H16.1248C17.0297 15.4298 18.1815 13.6199 19.5801 11.9745C20.4028 10.9873 21.3077 10.1646 22.2127 9.34192C22.7886 8.8483 23.3644 8.43696 23.9403 7.94334C25.0921 7.12065 26.4084 6.38023 27.7247 5.80434C28.8765 5.22846 30.1105 4.81711 31.4268 4.48804C32.6609 4.15896 33.8949 3.91215 35.2112 3.82988C36.0339 3.66534 36.7743 3.66534 37.5147 3.66534C38.2552 3.66534 38.9956 3.66534 39.736 3.74761C41.0523 3.82988 42.2864 4.07669 43.5204 4.40577C44.8367 4.73484 46.0707 5.14619 47.2225 5.72207C48.5388 6.38023 49.7729 7.03838 51.0069 7.94334C51.5828 8.35469 52.2409 8.8483 52.7345 9.34192C53.7218 10.1646 54.5445 11.0696 55.3672 11.9745C56.7657 13.6199 57.9175 15.4298 58.8225 17.4043C59.0693 17.8979 59.2338 18.3915 59.4806 18.9674C59.892 20.2015 60.3033 21.4355 60.5501 22.7518C60.6324 23.2454 60.7147 23.739 60.7969 24.3149C60.9615 25.2199 60.9615 26.2071 60.9615 27.1943Z" fill="#216778"/>
<path d="M50.595 18.9675H43.0262L37.5142 24.4795L35.7043 22.6696L31.9199 18.8852H27.8064H24.022H15.466C15.0547 20.1192 14.6434 21.3533 14.3965 22.6696H24.022V34.7631C24.4334 35.4213 24.8447 36.0795 25.2561 36.6553C25.9965 37.5603 26.8192 38.4653 27.7242 39.2057V22.7518H30.439L34.8816 27.1944L31.5908 30.4851V41.427C32.7426 41.9206 34.0589 42.2496 35.3752 42.4965V32.0483L37.5965 29.827L39.8177 32.0483V42.4965C41.134 42.3319 42.3681 41.9206 43.6021 41.427V30.4851L40.3113 27.1944L44.7539 22.7518H47.3042V39.288C48.2092 38.5475 49.1141 37.7248 49.7723 36.7376C50.2659 36.1617 50.6773 35.5036 51.0063 34.8454V19.5433C50.8418 19.2965 50.7595 19.132 50.595 18.9675Z" fill="#216778"/>
<path d="M9.6255 58.1276V60.1843H5.84111V70.2212H3.78438V60.2666H0V58.2099H9.6255V58.1276Z" fill="#216778"/>
<path d="M14.5614 67.7531C14.8904 68.0822 15.3018 68.2467 15.7131 68.329C16.1245 68.4112 16.5358 68.4112 16.9472 68.2467C17.3585 68.0822 17.6876 67.9176 18.0167 67.5885L18.0989 67.5063H20.2379L20.1557 67.7531C19.7443 68.4935 19.2507 69.1517 18.5926 69.563C17.9344 69.9743 17.1117 70.2212 16.289 70.2212C15.7131 70.2212 15.1372 70.1389 14.6436 69.8921C14.15 69.6453 13.6564 69.3985 13.2451 68.9871C12.8337 68.5758 12.5046 68.1644 12.3401 67.6708C12.0933 67.1772 12.011 66.6013 12.011 66.0254V65.9432C12.011 64.5446 12.5046 63.4751 13.4096 62.6524C13.8209 62.3233 14.2323 61.9942 14.8082 61.8297C15.3018 61.6652 15.7954 61.5829 16.3713 61.5829H16.4536C16.6181 61.5829 16.7826 61.5829 16.9472 61.6652C18.0167 61.8297 18.8394 62.241 19.5798 62.9815C20.4025 63.8042 20.7316 64.7914 20.7316 66.0254C20.7316 66.2722 20.7316 66.4368 20.6493 66.6836V66.8481H20.4847H14.0677C14.0677 67.1772 14.3146 67.5063 14.5614 67.7531ZM18.5926 65.2027C18.5103 65.0382 18.428 64.7914 18.3457 64.6268C18.1812 64.38 18.0167 64.1332 17.7699 63.9687C17.3585 63.6396 16.8649 63.4751 16.2067 63.4751C15.6309 63.4751 15.1372 63.6396 14.7259 63.9687C14.3146 64.2978 13.9855 64.7091 13.9032 65.2027H18.5926Z" fill="#216778"/>
<path d="M29.2876 62.5701C30.1103 63.2283 30.6039 64.051 30.7685 65.1205V65.285H28.7117V65.2027C28.5472 64.7091 28.3004 64.3801 27.889 64.1332C27.4777 63.8864 27.0664 63.7219 26.5727 63.7219C25.9146 63.7219 25.421 63.9687 25.0096 64.3801C24.5983 64.7914 24.3515 65.3673 24.3515 65.9432C24.3515 66.519 24.5983 67.0949 25.0096 67.5063C25.421 67.9176 25.9969 68.1644 26.5727 68.1644C27.0664 68.1644 27.4777 67.9999 27.889 67.7531C28.3004 67.5063 28.5472 67.0949 28.7117 66.6836V66.6013H30.7685V66.7659C30.6039 67.7531 30.1103 68.5758 29.2876 69.3162C28.4649 69.9744 27.56 70.3034 26.5727 70.3034C25.9969 70.3034 25.421 70.2212 24.9274 69.9744C24.4337 69.7275 23.9401 69.4807 23.5288 69.0694C23.1174 68.658 22.7884 68.2467 22.6238 67.6708C22.377 67.1772 22.2947 66.6013 22.2947 66.0254C22.2947 65.4496 22.377 64.8737 22.6238 64.3801C22.8706 63.8864 23.1174 63.3928 23.5288 62.9815C23.9401 62.5701 24.3515 62.2411 24.9274 62.0765C25.421 61.8297 25.9969 61.7474 26.5727 61.7474C27.56 61.5829 28.4649 61.912 29.2876 62.5701Z" fill="#216778"/>
<path d="M36.446 62.4056C37.5155 62.4056 38.4204 62.817 39.2431 63.5574C39.9835 64.2978 40.3949 65.1205 40.3949 66.19V70.2212H38.5027V66.3545C38.5027 65.7787 38.2559 65.285 37.9268 64.8737C37.5155 64.4624 37.0218 64.2978 36.446 64.2978C35.8701 64.2978 35.3765 64.4624 34.9651 64.8737C34.5538 65.285 34.3892 65.7787 34.3892 66.3545V70.2212H32.497V58.1276H34.3892V62.9815C34.636 62.817 34.9651 62.6524 35.2119 62.5702C35.6233 62.4879 36.0346 62.4056 36.446 62.4056Z" fill="#216778"/>
<path d="M46.1528 58.3744L49.279 65.6141L52.4053 58.3744L52.4875 58.1276L55.9428 70.0567H54.0507L52.2407 63.6397C51.8294 64.4624 51.418 65.6141 50.7599 66.9304L50.4308 67.7531C50.2663 68.0822 50.184 68.329 50.1017 68.5758C49.8549 69.234 49.6081 69.7276 49.3613 70.3035H49.1968C48.95 69.8099 48.7032 69.234 48.4563 68.5758C48.3741 68.329 48.2095 68.0822 48.1273 67.7531L47.7982 66.9304C47.2223 65.6141 46.7287 64.4624 46.3173 63.6397L44.5074 70.0567H42.6152L46.0705 58.1276L46.1528 58.3744Z" fill="#216778"/>
<path d="M63.8407 61.7476C64.1697 61.8299 64.4988 61.9944 64.8279 62.1589V61.5008H66.8846V70.0568H64.8279V69.4809C64.4988 69.6454 64.1697 69.81 63.8407 69.8922C63.4293 70.0568 62.9357 70.0568 62.5244 70.0568C61.9485 70.0568 61.3726 69.9745 60.879 69.7277C60.3854 69.4809 59.8918 69.2341 59.4804 68.8227C59.0691 68.4114 58.74 68.0001 58.5754 67.4242C58.3286 66.9306 58.2464 66.3547 58.2464 65.7788C58.2464 65.2029 58.3286 64.627 58.5754 64.1334C58.8222 63.6398 59.0691 63.1462 59.4804 62.7348C59.8918 62.3235 60.3031 61.9944 60.879 61.8299C61.3726 61.5831 61.9485 61.5008 62.5244 61.5008C63.018 61.5831 63.4293 61.6653 63.8407 61.7476ZM62.5244 63.6398C61.8662 63.6398 61.3726 63.8866 60.9612 64.2979C60.5499 64.7093 60.3031 65.2852 60.3031 65.8611C60.3031 66.4369 60.5499 67.0128 60.9612 67.4242C61.3726 67.8355 61.9485 68.0823 62.5244 68.0823C63.1002 68.0823 63.6761 67.8355 64.0875 67.4242C64.4988 67.0128 64.7456 66.4369 64.7456 65.8611C64.7456 65.2852 64.4988 64.7093 64.0875 64.2979C63.6761 63.8866 63.1825 63.6398 62.5244 63.6398Z" fill="#216778"/>
<path d="M72.9728 70.2213L71.5743 67.7533L70.258 70.1391L70.1757 70.2213H68.119L68.2835 69.9745L70.587 65.8611L68.2835 61.7476L68.119 61.5008H70.1757L70.258 61.5831L71.5743 63.9689L72.8906 61.5831L72.9728 61.5008H75.0296L74.865 61.8299L72.5615 65.9433L74.865 70.0568L75.0296 70.3036H72.9728V70.2213Z" fill="#216778"/>
</g>
</g>
<defs>
<clipPath id="clip0_225_7512">
<rect width="75.0295" height="72.1135" fill="white" transform="translate(0 0.886475)"/>
</clipPath>
<clipPath id="clip1_225_7512">
<rect width="75.0295" height="66.5558" fill="white" transform="translate(0 3.66534)"/>
</clipPath>
</defs>
</svg>
