<svg width="73" height="25" viewBox="0 0 73 25" fill="none" xmlns="http://www.w3.org/2000/svg">
<path d="M31.5325 12.9309C31.5325 16.323 28.8788 18.8227 25.6221 18.8227C22.3654 18.8227 19.7117 16.323 19.7117 12.9309C19.7117 9.51479 22.3654 7.03907 25.6221 7.03907C28.8788 7.03907 31.5325 9.51479 31.5325 12.9309ZM28.9452 12.9309C28.9452 10.8111 27.4072 9.36072 25.6221 9.36072C23.8371 9.36072 22.299 10.8111 22.299 12.9309C22.299 15.0294 23.8371 16.501 25.6221 16.501C27.4072 16.501 28.9452 15.0267 28.9452 12.9309Z" fill="#EA4335"/>
<path d="M44.283 12.9309C44.283 16.323 41.6293 18.8227 38.3726 18.8227C35.1159 18.8227 32.4622 16.323 32.4622 12.9309C32.4622 9.51745 35.1159 7.03907 38.3726 7.03907C41.6293 7.03907 44.283 9.51479 44.283 12.9309ZM41.6957 12.9309C41.6957 10.8111 40.1577 9.36072 38.3726 9.36072C36.5876 9.36072 35.0495 10.8111 35.0495 12.9309C35.0495 15.0294 36.5876 16.501 38.3726 16.501C40.1577 16.501 41.6957 15.0267 41.6957 12.9309Z" fill="#FBBC05"/>
<path d="M56.5022 7.39502V17.9726C56.5022 22.3237 53.9362 24.1008 50.9026 24.1008C48.0471 24.1008 46.3284 22.1909 45.6803 20.629L47.9328 19.6913C48.334 20.6502 49.3168 21.7818 50.9 21.7818C52.8418 21.7818 54.0451 20.5838 54.0451 18.3286V17.4812H53.9548C53.3757 18.1958 52.26 18.82 50.8522 18.82C47.9063 18.82 45.2074 16.254 45.2074 12.9521C45.2074 9.62636 47.9063 7.03907 50.8522 7.03907C52.2574 7.03907 53.3731 7.66331 53.9548 8.35662H54.0451V7.39768H56.5022V7.39502ZM54.2284 12.9521C54.2284 10.8775 52.8444 9.36072 51.0833 9.36072C49.2982 9.36072 47.8027 10.8775 47.8027 12.9521C47.8027 15.0055 49.2982 16.501 51.0833 16.501C52.8444 16.501 54.2284 15.0055 54.2284 12.9521Z" fill="#4285F4"/>
<path d="M60.5532 1.19509V18.4614H58.0296V1.19509H60.5532Z" fill="#34A853"/>
<path d="M70.387 14.87L72.3952 16.2088C71.7471 17.1677 70.1851 18.82 67.4863 18.82C64.1393 18.82 61.6396 16.2327 61.6396 12.9282C61.6396 9.42447 64.1605 7.03641 67.1967 7.03641C70.2542 7.03641 71.7497 9.46963 72.2385 10.7845L72.5068 11.4539L64.6307 14.7159C65.2337 15.898 66.1714 16.501 67.4863 16.501C68.8038 16.501 69.7176 15.8528 70.387 14.87ZM64.2057 12.7502L69.4706 10.564C69.181 9.82824 68.3097 9.31556 67.2844 9.31556C65.9695 9.31556 64.1393 10.4764 64.2057 12.7502Z" fill="#EA4335"/>
<path d="M10.1595 11.3981V8.89852H18.5828C18.6651 9.33416 18.7076 9.84949 18.7076 10.4073C18.7076 12.2827 18.195 14.6017 16.5427 16.254C14.9356 17.9275 12.8823 18.82 10.1622 18.82C5.1204 18.82 0.880859 14.7133 0.880859 9.67151C0.880859 4.62976 5.1204 0.523033 10.1622 0.523033C12.9513 0.523033 14.9383 1.61745 16.4312 3.04391L14.6673 4.80773C13.5968 3.80363 12.1465 3.02266 10.1595 3.02266C6.4778 3.02266 3.59831 5.98981 3.59831 9.67151C3.59831 13.3532 6.4778 16.3204 10.1595 16.3204C12.5476 16.3204 13.9076 15.3614 14.7789 14.4901C15.4855 13.7835 15.9504 12.7741 16.1336 11.3955L10.1595 11.3981Z" fill="#4285F4"/>
</svg>
