<svg width="92" height="25" viewBox="0 0 92 25" fill="none" xmlns="http://www.w3.org/2000/svg">
<path d="M0.505859 5.37399C0.505859 2.52248 2.81747 0.210869 5.66898 0.210869H19.5449C22.3964 0.210869 24.708 2.52248 24.708 5.37399V19.2499C24.708 22.1014 22.3964 24.413 19.5449 24.413H5.66898C2.81747 24.413 0.505859 22.1014 0.505859 19.2499V5.37399Z" fill="#0089FF"/>
<path d="M17.286 6.01938H8.25054V8.27824H17.286V6.01938Z" fill="white"/>
<path d="M16.6406 11.1825H8.25054V18.9272H17.286V16.6683H11.1548V13.4414H16.6406V11.1825Z" fill="white"/>
<path d="M30.5022 18.2109V7.31991H37.5359V9.02919H32.3249V11.7141H36.6284V13.4234H32.3249V16.5016H37.5359V18.2109H30.5022ZM39.1236 18.2109V7.31991H43.6237C43.7296 7.31991 43.8657 7.32495 44.0321 7.33504C44.1985 7.34008 44.3523 7.35521 44.4935 7.38042C45.1237 7.47622 45.6431 7.68547 46.0515 8.00816C46.4649 8.33086 46.77 8.73927 46.9666 9.23339C47.1683 9.72248 47.2691 10.267 47.2691 10.867C47.2691 11.7544 47.0448 12.5183 46.596 13.1587C46.1473 13.794 45.459 14.1873 44.5313 14.3385L43.7523 14.4066H40.9463V18.2109H39.1236ZM45.3784 18.2109L43.2304 13.7789L45.0834 13.3704L47.4431 18.2109H45.3784ZM40.9463 12.7049H43.5481C43.6489 12.7049 43.7624 12.6998 43.8884 12.6898C44.0145 12.6797 44.1304 12.6595 44.2363 12.6293C44.5388 12.5536 44.7758 12.42 44.9473 12.2284C45.1237 12.0368 45.2473 11.82 45.3178 11.578C45.3935 11.336 45.4313 11.099 45.4313 10.867C45.4313 10.6351 45.3935 10.3981 45.3178 10.1561C45.2473 9.90904 45.1237 9.6897 44.9473 9.4981C44.7758 9.3065 44.5388 9.17289 44.2363 9.09726C44.1304 9.067 44.0145 9.04936 43.8884 9.04431C43.7624 9.03423 43.6489 9.02919 43.5481 9.02919H40.9463V12.7049ZM48.8825 18.2109V7.31991H53.3825C53.4884 7.31991 53.6246 7.32495 53.791 7.33504C53.9573 7.34008 54.1111 7.35521 54.2523 7.38042C54.8826 7.47622 55.4019 7.68547 55.8103 8.00816C56.2238 8.33086 56.5288 8.73927 56.7255 9.23339C56.9271 9.72248 57.028 10.267 57.028 10.867C57.028 11.462 56.9271 12.0066 56.7255 12.5007C56.5238 12.9898 56.2162 13.3957 55.8028 13.7183C55.3943 14.041 54.8775 14.2503 54.2523 14.3461C54.1111 14.3663 53.9548 14.3814 53.7834 14.3915C53.617 14.4016 53.4834 14.4066 53.3825 14.4066H50.7052V18.2109H48.8825ZM50.7052 12.7049H53.3069C53.4078 12.7049 53.5212 12.6998 53.6473 12.6898C53.7733 12.6797 53.8893 12.6595 53.9952 12.6293C54.2977 12.5536 54.5347 12.42 54.7061 12.2284C54.8826 12.0368 55.0061 11.82 55.0767 11.578C55.1523 11.336 55.1901 11.099 55.1901 10.867C55.1901 10.6351 55.1523 10.3981 55.0767 10.1561C55.0061 9.90904 54.8826 9.6897 54.7061 9.4981C54.5347 9.3065 54.2977 9.17289 53.9952 9.09726C53.8893 9.067 53.7733 9.04936 53.6473 9.04431C53.5212 9.03423 53.4078 9.02919 53.3069 9.02919H50.7052V12.7049ZM58.3163 18.2109V7.31991H60.1617L65.2139 14.9965V7.31991H67.0593V18.2109H65.2139L60.1617 10.5343V18.2109H58.3163ZM72.6602 18.4378C71.8333 18.4378 71.1073 18.2588 70.482 17.9008C69.8568 17.5428 69.3677 17.0461 69.0148 16.4108C68.6669 15.7755 68.4929 15.0444 68.4929 14.2175C68.4929 13.3251 68.6644 12.5511 69.0072 11.8956C69.3501 11.2351 69.8266 10.7233 70.4367 10.3603C71.0467 9.99727 71.7526 9.81576 72.5543 9.81576C73.4014 9.81576 74.1199 10.0149 74.7098 10.4132C75.3048 10.8065 75.746 11.3637 76.0334 12.0847C76.3208 12.8057 76.4292 13.6553 76.3586 14.6335H74.551V13.9679C74.546 13.0805 74.3897 12.4326 74.0821 12.0242C73.7745 11.6158 73.2905 11.4116 72.63 11.4116C71.8837 11.4116 71.3291 11.6435 70.9661 12.1074C70.603 12.5662 70.4215 13.2393 70.4215 14.1268C70.4215 14.9537 70.603 15.594 70.9661 16.0478C71.3291 16.5016 71.8585 16.7285 72.5543 16.7285C73.0031 16.7285 73.3888 16.6302 73.7115 16.4335C74.0392 16.2318 74.2913 15.9419 74.4678 15.5638L76.2679 16.1083C75.9552 16.8445 75.4712 17.4167 74.8157 17.8251C74.1653 18.2336 73.4468 18.4378 72.6602 18.4378ZM69.8467 14.6335V13.257H75.4662V14.6335H69.8467ZM76.6162 18.2109L79.6037 14.0814L76.6767 10.0427H78.8247L80.6625 12.6519L82.4701 10.0427H84.6181L81.6911 14.0814L84.6937 18.2109H82.5457L80.6625 15.5108L78.7642 18.2109H76.6162ZM90.46 18.2109C89.9205 18.3117 89.3911 18.3546 88.8717 18.3394C88.3575 18.3294 87.8961 18.2361 87.4877 18.0596C87.0793 17.8781 86.7692 17.5932 86.5574 17.205C86.3709 16.852 86.2725 16.4915 86.2625 16.1234C86.2524 15.7554 86.2473 15.3394 86.2473 14.8755V7.7737H88.0625V14.7696C88.0625 15.0974 88.065 15.3848 88.0701 15.6318C88.0801 15.8789 88.1331 16.0806 88.2289 16.2369C88.4104 16.5394 88.7003 16.7083 89.0986 16.7436C89.497 16.7789 89.9508 16.7587 90.46 16.6831V18.2109ZM84.7649 11.4721V10.0427H90.46V11.4721H84.7649Z" fill="#1C1C1C"/>
</svg>
