<svg width="83" height="18" viewBox="0 0 83 18" fill="none" xmlns="http://www.w3.org/2000/svg">
<path d="M34.9947 4.45241C33.5061 4.45241 31.8131 5.14248 30.7787 6.52402L30.7794 6.52122V4.66937H27.229V17.5987H30.7787V10.2417C30.7787 8.91757 31.8054 7.51014 33.7063 7.51014C35.1753 7.51014 36.6954 8.53195 36.6954 10.2417V17.5987H40.2458V9.58385C40.2458 6.61011 38.1182 4.45241 34.9947 4.45241Z" fill="#E60012"/>
<path d="M65.4786 4.6706L62.269 13.4777L59.0594 4.6706H55.0037L60.3234 17.5958H64.2139L69.5336 4.6706H65.4786Z" fill="#E60012"/>
<path d="M16.629 8.56554C17.2337 7.75369 18.1967 7.27708 19.3599 7.27708C20.6393 7.27708 21.61 8.00774 22.1118 9.08624L15.9089 11.6597C15.7395 10.339 16.0775 9.306 16.629 8.56554ZM23.4499 13.6242C21.9557 14.73 21.1019 14.9938 19.7392 14.9938C18.5131 14.9938 17.5529 14.6131 16.8761 13.9454L25.9527 10.1801C25.7546 8.7769 25.222 7.52343 24.4025 6.57021C23.2099 5.18518 21.4448 4.45241 19.2955 4.45241C15.3917 4.45241 12.448 7.33237 12.448 11.1362C12.448 15.0386 15.3987 17.8192 19.6868 17.8192C22.0894 17.8192 24.5459 16.6805 25.6951 15.3501L23.4499 13.6242Z" fill="#E60012"/>
<path d="M12.1101 14.3408H4.04062V0.804657H0.441895V17.6008H12.1101V14.3408Z" fill="#E60012"/>
<path d="M75.9086 7.49474C73.9259 7.49474 72.4863 8.99736 72.4863 11.1348C72.4863 13.1756 74.0113 14.7748 75.9562 14.7748C77.9397 14.7748 79.3786 13.2309 79.3786 11.1348C79.3786 9.09394 77.8543 7.49474 75.9086 7.49474ZM75.9086 17.8171C72.0258 17.8171 68.9835 14.9245 68.9835 11.1348C68.9835 7.38766 72.0468 4.45241 75.9562 4.45241C79.8391 4.45241 82.8807 7.34497 82.8807 11.1348C82.8807 14.8812 79.8181 17.8171 75.9086 17.8171Z" fill="#E60012"/>
<path d="M48.5741 7.49474C46.5914 7.49474 45.1525 8.99736 45.1525 11.1348C45.1525 13.1756 46.6768 14.7748 48.6224 14.7748C50.6051 14.7748 52.0441 13.2309 52.0441 11.1348C52.0441 9.09394 50.5197 7.49474 48.5741 7.49474ZM48.5741 17.8171C44.6912 17.8171 41.6496 14.9245 41.6496 11.1348C41.6496 7.38766 44.7122 4.45241 48.6224 4.45241C52.5046 4.45241 55.5469 7.34497 55.5469 11.1348C55.5469 14.8812 52.4836 17.8171 48.5741 17.8171Z" fill="#E60012"/>
</svg>
