<svg width="91" height="24" viewBox="0 0 91 24" fill="none" xmlns="http://www.w3.org/2000/svg">
<path d="M42.8217 7.47468C42.3417 7.45968 41.9517 7.83466 41.9367 8.29963V12.6194C39.8818 10.9695 36.867 11.2995 35.217 13.3544C34.5421 14.2093 34.1671 15.2593 34.1671 16.3542C34.1221 18.9941 36.222 21.169 38.8618 21.214C41.5017 21.259 43.6766 19.1591 43.7216 16.5192V8.35963C43.7216 8.11964 43.6316 7.89466 43.4666 7.72966C43.2866 7.56467 43.0616 7.47468 42.8217 7.47468ZM41.6967 17.5092C41.3967 18.2291 40.8267 18.7991 40.1068 19.1141C39.3568 19.4291 38.5169 19.4291 37.7669 19.1141C37.0469 18.8141 36.492 18.2291 36.192 17.5242C35.877 16.7892 35.877 15.9492 36.192 15.1993C36.492 14.4793 37.0619 13.9093 37.7669 13.6094C38.5169 13.2944 39.3568 13.2944 40.1068 13.6094C40.8267 13.9243 41.3967 14.4943 41.6967 15.2143C42.0117 15.9342 42.0117 16.7742 41.6967 17.5092ZM52.7961 12.9794C50.9362 11.1195 47.9064 11.1195 46.0465 12.9794C45.1465 13.8794 44.6516 15.0943 44.6516 16.3542C44.6066 18.9941 46.7065 21.169 49.3463 21.214C51.9862 21.259 54.1611 19.1591 54.2061 16.5192V16.3542C54.2061 15.7243 54.0861 15.1093 53.8461 14.5243C53.6061 13.9394 53.2461 13.4144 52.7961 12.9794ZM52.1812 17.4942C52.0312 17.8542 51.8062 18.1691 51.5362 18.4391C51.2662 18.7091 50.9362 18.9341 50.5913 19.0841C49.8413 19.3991 49.0013 19.3991 48.2514 19.0841C47.5314 18.7841 46.9614 18.1991 46.6615 17.4942C46.3465 16.7592 46.3465 15.9192 46.6615 15.1693C46.9614 14.4493 47.5314 13.8944 48.2514 13.5794C49.0013 13.2644 49.8413 13.2644 50.5913 13.5794C50.9512 13.7294 51.2662 13.9543 51.5362 14.2243C51.8062 14.4943 52.0312 14.8243 52.1812 15.1693C52.4962 15.9342 52.4962 16.7742 52.1812 17.4942ZM72.5501 12.4544C72.5501 12.3344 72.5201 12.2144 72.4752 12.1094C72.4302 12.0044 72.3551 11.9145 72.2802 11.8245C72.2052 11.7495 72.1002 11.6745 71.9952 11.6295C71.8902 11.5845 71.7702 11.5545 71.6502 11.5545C71.4852 11.5545 71.3202 11.5995 71.1702 11.6895L66.0705 15.0043V8.37463C66.0705 8.13464 65.9805 7.90965 65.8155 7.74466C65.6505 7.57967 65.4255 7.47468 65.1855 7.47468C64.6905 7.47468 64.3006 7.86466 64.2856 8.35963V20.224C64.2856 20.464 64.3756 20.689 64.5405 20.854C64.7055 21.034 64.9305 21.124 65.1705 21.124C65.4105 21.124 65.6355 21.034 65.8005 20.854C65.9655 20.689 66.0705 20.464 66.0555 20.224V17.1492L67.0904 16.4742L71.0352 20.899C71.2002 21.049 71.4102 21.139 71.6352 21.124C71.7552 21.124 71.8752 21.109 71.9802 21.049C72.0852 21.004 72.1752 20.944 72.2652 20.854C72.3401 20.764 72.4152 20.674 72.4602 20.569C72.5051 20.464 72.5351 20.344 72.5351 20.224C72.5351 19.999 72.4451 19.7741 72.2952 19.6091L68.6353 15.4843L72.2052 13.1594C72.4451 13.0094 72.5651 12.7394 72.5501 12.4544ZM57.7459 14.2243C58.0159 13.9543 58.3459 13.7294 58.7058 13.5794C59.0808 13.4294 59.4708 13.3394 59.8758 13.3394C60.2358 13.3394 60.5807 13.3994 60.9107 13.5194C61.2407 13.6544 61.5557 13.8344 61.8257 14.0743C61.9907 14.2093 62.2007 14.2693 62.4107 14.2693C62.6506 14.2843 62.8906 14.1943 63.0556 14.0143C63.2206 13.8494 63.3106 13.6094 63.3106 13.3694C63.3106 13.1144 63.2056 12.8594 62.9956 12.6944C62.1407 11.9295 61.0307 11.5095 59.8758 11.5395C57.2359 11.5395 55.091 13.6844 55.091 16.3242C55.091 18.9641 57.2209 21.094 59.8458 21.109C61.0007 21.109 62.1107 20.704 62.9806 19.954C63.1606 19.7891 63.2656 19.5491 63.2656 19.2941C63.2806 18.8141 62.9056 18.4241 62.4407 18.4091H62.3807C62.1707 18.4091 61.9757 18.4691 61.8107 18.5891C61.5407 18.8291 61.2407 19.0091 60.9107 19.1441C60.5807 19.2641 60.2208 19.3241 59.8758 19.3241C59.4708 19.3241 59.0808 19.2491 58.7058 19.0841C58.3459 18.9341 58.0309 18.7091 57.7459 18.4391C56.576 17.2692 56.576 15.3793 57.7309 14.2093C57.7459 14.2393 57.7459 14.2393 57.7459 14.2243ZM90.2642 12.1694C90.0843 12.0044 89.8893 11.8845 89.6643 11.8095C89.4093 11.7195 89.1393 11.6595 88.8693 11.6295C88.5993 11.5995 88.3293 11.5845 88.0594 11.5845C87.5194 11.5845 86.9644 11.6745 86.4544 11.8695C85.9445 12.0494 85.4795 12.3194 85.0595 12.6494V12.4694C85.0445 11.9745 84.6245 11.5995 84.1296 11.6145C83.9052 11.622 83.6921 11.7144 83.5333 11.8732C83.3746 12.0319 83.2821 12.2451 83.2746 12.4694L83.2746 20.254C83.2896 20.749 83.7096 21.124 84.2046 21.109C84.4289 21.1015 84.6421 21.009 84.8008 20.8503C84.9595 20.6915 85.052 20.4784 85.0595 20.254V16.3692C85.0595 15.9642 85.1345 15.5743 85.2995 15.1993C85.4495 14.8393 85.6595 14.5243 85.9445 14.2543C86.2145 13.9844 86.5444 13.7594 86.8894 13.6094C87.2644 13.4594 87.6544 13.3694 88.0594 13.3694C88.4643 13.3694 88.8543 13.4444 89.2293 13.5794C89.3493 13.6394 89.4693 13.6694 89.6043 13.6694C89.7243 13.6694 89.8443 13.6544 89.9493 13.5944C90.0543 13.5494 90.1442 13.4894 90.2342 13.3994C90.3092 13.3244 90.3842 13.2194 90.4292 13.1144C90.4742 13.0094 90.5042 12.8894 90.5042 12.7694C90.5192 12.5444 90.4292 12.3344 90.2642 12.1694ZM81.9847 14.5243C81.2197 12.7544 79.4798 11.5995 77.5599 11.5845C74.92 11.5845 72.7901 13.7144 72.7751 16.3542C72.7751 18.9941 74.92 21.139 77.5599 21.139C78.6998 21.139 79.8098 20.734 80.6797 19.984L80.7097 19.9541C80.7847 19.8941 80.8597 19.8191 80.9047 19.7291C81.1897 19.3091 81.0847 18.7541 80.6797 18.4691C80.3347 18.2441 79.8848 18.2891 79.5848 18.5741C79.5548 18.6041 79.4648 18.6791 79.4648 18.6941L79.4498 18.7091C79.1948 18.9191 78.9098 19.0991 78.5948 19.2041C78.2649 19.3241 77.9199 19.3841 77.5599 19.3691C77.2299 19.3691 76.9149 19.3241 76.5999 19.2191C76.2999 19.1141 76.015 18.9791 75.76 18.7841C75.505 18.6041 75.28 18.3791 75.1 18.1241C74.905 17.8692 74.77 17.5692 74.68 17.2692H81.4297C81.6697 17.2692 81.8947 17.1792 82.0597 17.0142C82.2397 16.8492 82.3296 16.6242 82.3146 16.3842C82.3296 15.7393 82.2096 15.1093 81.9847 14.5243ZM74.68 15.4843C74.77 15.1693 74.905 14.8843 75.1 14.6293C75.28 14.3743 75.505 14.1493 75.76 13.9693C76.015 13.7894 76.2999 13.6394 76.5999 13.5344C76.8999 13.4294 77.2299 13.3844 77.5449 13.3844C77.8599 13.3844 78.1899 13.4294 78.4898 13.5344C79.0898 13.7294 79.6148 14.1193 79.9898 14.6293C80.1848 14.8843 80.3198 15.1843 80.4248 15.4843H74.68ZM87.2194 19.8341C86.8744 19.8341 86.6044 20.119 86.6044 20.464C86.6044 20.809 86.8894 21.079 87.2344 21.079C87.5794 21.079 87.8494 20.794 87.8494 20.464C87.8494 20.104 87.5644 19.8341 87.2194 19.8341ZM87.2194 20.944C86.9494 20.959 86.7244 20.749 86.7094 20.479C86.6944 20.209 86.9044 19.984 87.1744 19.969C87.4444 19.954 87.6694 20.164 87.6844 20.434V20.464C87.6994 20.719 87.4894 20.944 87.2344 20.944H87.2194Z" fill="#0091E2"/>
<path d="M87.3694 20.464C87.4444 20.449 87.4894 20.389 87.4894 20.314C87.4894 20.254 87.4744 20.209 87.4294 20.179C87.3694 20.149 87.2944 20.134 87.2194 20.134C87.1444 20.134 87.0544 20.134 86.9794 20.149V20.764H87.1144V20.524H87.1744C87.2494 20.524 87.2944 20.554 87.3094 20.614C87.3244 20.659 87.3394 20.719 87.3544 20.764H87.5044C87.4744 20.719 87.4594 20.659 87.4594 20.614C87.4744 20.554 87.4294 20.494 87.3694 20.464ZM87.1894 20.419H87.1144V20.239H87.1894C87.2794 20.239 87.3244 20.284 87.3244 20.329C87.3394 20.389 87.2644 20.434 87.1894 20.419ZM32.5322 9.48457C32.4422 9.40958 31.6322 8.79461 29.8923 8.79461C29.4423 8.79461 28.9774 8.83961 28.5274 8.9146C28.1974 6.61972 26.2925 5.50977 26.2175 5.44978L25.7525 5.17979L25.4525 5.61477C25.0775 6.19974 24.7926 6.8597 24.6276 7.53467C24.3126 8.8396 24.5076 10.0695 25.1675 11.1195C24.3726 11.5695 23.0826 11.6745 22.8127 11.6895L1.51374 11.6895C0.958771 11.6895 0.508794 12.1394 0.508794 12.6944C0.478795 14.5543 0.793779 16.4142 1.43875 18.1691C2.17371 20.089 3.26865 21.514 4.67858 22.3839C6.2685 23.3589 8.86337 23.9138 11.7882 23.9138C13.1082 23.9138 14.4281 23.7938 15.733 23.5539C17.5479 23.2239 19.2878 22.5939 20.8928 21.679C22.2127 20.914 23.3976 19.939 24.4026 18.7991C26.0975 16.8942 27.1024 14.7643 27.8374 12.8744H28.1374C29.9823 12.8744 31.1222 12.1394 31.7522 11.5095C32.1722 11.1195 32.4872 10.6395 32.7122 10.0995L32.8472 9.70956L32.5322 9.48457Z" fill="#0091E2"/>
<path d="M3.49364 11.0745H6.3435C6.47849 11.0745 6.59848 10.9695 6.59849 10.8195V8.26963C6.59849 8.13464 6.49349 8.01465 6.3435 8.01465H3.49364C3.35865 8.01465 3.23866 8.11964 3.23866 8.26963L3.23866 10.8195C3.25365 10.9695 3.35865 11.0745 3.49364 11.0745ZM7.42344 11.0745L10.2733 11.0745C10.4083 11.0745 10.5283 10.9695 10.5283 10.8195L10.5283 8.26963C10.5283 8.13464 10.4233 8.01465 10.2733 8.01465L7.42344 8.01465C7.28845 8.01465 7.16846 8.11964 7.16846 8.26963V10.8195C7.18346 10.9695 7.28845 11.0745 7.42344 11.0745ZM11.4282 11.0745H14.2781C14.4131 11.0745 14.5331 10.9695 14.5331 10.8195V8.26963C14.5331 8.13464 14.4281 8.01465 14.2781 8.01465L11.4282 8.01465C11.2932 8.01465 11.1733 8.11964 11.1733 8.26963L11.1733 10.8195C11.1733 10.9695 11.2782 11.0745 11.4282 11.0745ZM15.373 11.0745H18.2229C18.3579 11.0745 18.4779 10.9695 18.4779 10.8195V8.26963C18.4779 8.13464 18.3729 8.01465 18.2229 8.01465L15.373 8.01465C15.238 8.01465 15.1181 8.11964 15.1181 8.26963L15.1181 10.8195C15.1181 10.9695 15.238 11.0745 15.373 11.0745ZM7.42344 7.42968H10.2733C10.4083 7.42968 10.5283 7.30968 10.5283 7.17469V4.62482C10.5283 4.48982 10.4233 4.36983 10.2733 4.36983L7.42344 4.36983C7.28845 4.36983 7.16846 4.47482 7.16846 4.62482L7.16846 7.17469C7.18346 7.30968 7.28845 7.42968 7.42344 7.42968ZM11.4282 7.42968H14.2781C14.4131 7.42968 14.5331 7.30968 14.5331 7.17469V4.62482C14.5331 4.48982 14.4281 4.36983 14.2781 4.36983L11.4282 4.36983C11.2932 4.36983 11.1733 4.47482 11.1733 4.62482V7.17469C11.1733 7.30968 11.2782 7.42968 11.4282 7.42968ZM15.373 7.42968L18.2229 7.42968C18.3579 7.42968 18.4779 7.30968 18.4779 7.17469L18.4779 4.62482C18.4779 4.48982 18.3579 4.36983 18.2229 4.36983L15.373 4.36983C15.238 4.36983 15.1181 4.47482 15.1181 4.62482V7.17469C15.1181 7.30968 15.238 7.42968 15.373 7.42968ZM15.373 3.76986L18.2229 3.76986C18.3579 3.76986 18.4779 3.66487 18.4779 3.51487V0.965004C18.4779 0.83001 18.3579 0.710015 18.2229 0.710015L15.373 0.710014C15.238 0.710014 15.1181 0.815011 15.1181 0.965003V3.51487C15.1181 3.64987 15.238 3.76986 15.373 3.76986ZM19.3478 11.0745H22.1977C22.3327 11.0745 22.4527 10.9695 22.4527 10.8195L22.4527 8.26963C22.4527 8.13464 22.3477 8.01465 22.1977 8.01465H19.3478C19.2128 8.01465 19.0929 8.11964 19.0929 8.26963V10.8195C19.1079 10.9695 19.2128 11.0745 19.3478 11.0745Z" fill="#0091E2"/>
</svg>
