<svg width="44" height="44" viewBox="0 0 44 44" fill="none" xmlns="http://www.w3.org/2000/svg">
<g clip-path="url(#clip0_1453_4382)">
<path d="M18.2799 40.6707C18.1298 40.6701 17.9804 40.6517 17.8347 40.6157C17.6009 40.5578 17.3809 40.4544 17.1872 40.3112C16.9935 40.1681 16.83 39.9881 16.706 39.7816C16.5821 39.5751 16.5002 39.3461 16.465 39.1079C16.4298 38.8696 16.4419 38.6267 16.5008 38.3932L24.7515 5.39063C24.8764 4.92699 25.1784 4.53092 25.5923 4.28763C26.0063 4.04434 26.4993 3.97329 26.9651 4.08975C27.431 4.20621 27.8325 4.50088 28.0833 4.91036C28.334 5.31984 28.4141 5.8114 28.3061 6.27929L20.0555 39.2819C19.9566 39.6781 19.7282 40.03 19.4065 40.2817C19.0848 40.5333 18.6883 40.6702 18.2799 40.6707Z" fill="#B5E7D9"/>
<path d="M13.2366 35.1703C12.9958 35.1712 12.7572 35.1243 12.5347 35.0323C12.3122 34.9402 12.1102 34.8048 11.9405 34.634L0.939671 23.6331C0.596228 23.2893 0.40332 22.8231 0.40332 22.3371C0.40332 21.8511 0.596228 21.3849 0.939671 21.0411L11.9405 10.0402C12.2871 9.71023 12.7489 9.52877 13.2274 9.53456C13.7059 9.54035 14.1632 9.73292 14.5017 10.0712C14.8401 10.4094 15.033 10.8666 15.0391 11.3451C15.0452 11.8236 14.8641 12.2855 14.5343 12.6323L4.82951 22.3388L14.5343 32.0436C14.7911 32.2998 14.966 32.6264 15.0368 32.9821C15.1077 33.3378 15.0713 33.7065 14.9323 34.0415C14.7932 34.3764 14.5578 34.6625 14.2559 34.8635C13.954 35.0645 13.5992 35.1713 13.2366 35.1703ZM31.5685 35.1703C31.3279 35.1712 31.0896 35.1243 30.8674 35.0322C30.6452 34.9401 30.4435 34.8048 30.2742 34.634C29.9307 34.2901 29.7378 33.824 29.7378 33.338C29.7378 32.8519 29.9307 32.3858 30.2742 32.0419L39.979 22.3354L30.2742 12.6306C30.0968 12.462 29.955 12.2596 29.8571 12.0353C29.7592 11.8111 29.7072 11.5695 29.7041 11.3248C29.7009 11.0802 29.7468 10.8374 29.839 10.6107C29.9311 10.384 30.0677 10.1781 30.2407 10.005C30.4136 9.83194 30.6195 9.69522 30.8461 9.60292C31.0727 9.51061 31.3155 9.46458 31.5601 9.46754C31.8048 9.4705 32.0464 9.52239 32.2707 9.62015C32.495 9.71791 32.6975 9.85956 32.8662 10.0368L43.8671 21.0376C44.2106 21.3818 44.4036 21.8482 44.4036 22.3345C44.4036 22.8208 44.2106 23.2872 43.8671 23.6314L32.8662 34.6323C32.6964 34.8035 32.4942 34.9393 32.2714 35.0317C32.0486 35.124 31.8097 35.1712 31.5685 35.1703Z" fill="#45C4A0"/>
</g>
<defs>
<clipPath id="clip0_1453_4382">
<rect width="44" height="44" fill="white"/>
</clipPath>
</defs>
</svg>
