<svg width="66" height="11" viewBox="0 0 66 11" fill="none" xmlns="http://www.w3.org/2000/svg">
<path d="M65.1833 10.4607C43.703 4.06327 22.0907 3.41855 0.576273 8.53336C0.505377 8.54999 0.434145 8.52192 0.366696 8.45078C0.299248 8.37963 0.236924 8.26682 0.183331 8.11888C0.129738 7.97094 0.0859399 7.7908 0.0544713 7.58889C0.0230027 7.38698 0.00448843 7.1673 0 6.94258C0.0036124 6.49754 0.0593158 6.07263 0.156292 5.75039C0.253267 5.42815 0.384593 5.23157 0.524763 5.19883C22.0948 -0.623845 43.61 -0.338319 65.1704 4.92351C65.287 4.9468 65.401 5.04301 65.5059 5.2066C65.6107 5.37018 65.7043 5.5979 65.7812 5.87661C65.8581 6.15532 65.9169 6.47952 65.954 6.83049C65.9912 7.18146 66.0061 7.55227 65.9978 7.92152C65.9889 8.5929 65.8998 9.22853 65.7486 9.69989C65.5974 10.1712 65.3953 10.4432 65.1833 10.4607Z" fill="#4FB5CF"/>
</svg>
