<svg width="170" height="170" viewBox="0 0 170 170" fill="none" xmlns="http://www.w3.org/2000/svg">
<mask id="mask0_39_1005" style="mask-type:alpha" maskUnits="userSpaceOnUse" x="4" y="4" width="162" height="162">
<circle cx="80" cy="80" r="80" transform="matrix(-0.0591529 -0.998249 -0.998249 0.0591529 169.592 160.128)" fill="#D9D9D9"/>
</mask>
<g mask="url(#mask0_39_1005)">
<rect width="2.10472" height="170.483" transform="matrix(-0.622962 -0.782252 -0.782252 0.622962 204.494 89.8107)" fill="#4FB5CF"/>
<rect width="2.10472" height="170.483" transform="matrix(-0.622962 -0.782252 -0.782252 0.622962 203.747 77.2045)" fill="#4FB5CF"/>
<rect width="2.10472" height="170.483" transform="matrix(-0.622962 -0.782252 -0.782252 0.622962 187.989 78.1382)" fill="#4FB5CF"/>
<rect width="2.10472" height="170.483" transform="matrix(-0.622962 -0.782252 -0.782252 0.622962 187.304 66.5825)" fill="#4FB5CF"/>
<rect width="2.10472" height="170.483" transform="matrix(-0.622962 -0.782252 -0.782252 0.622962 179.515 59.6646)" fill="#4FB5CF"/>
<rect width="2.10472" height="170.483" transform="matrix(-0.622962 -0.782252 -0.782252 0.622962 171.726 52.7467)" fill="#4FB5CF"/>
<rect width="2.10472" height="170.483" transform="matrix(-0.622962 -0.782252 -0.782252 0.622962 167.025 44.5916)" fill="#4FB5CF"/>
<rect width="2.10472" height="170.483" transform="matrix(-0.622962 -0.782252 -0.782252 0.622962 160.287 37.6115)" fill="#4FB5CF"/>
<rect width="2.10472" height="170.483" transform="matrix(-0.622962 -0.782252 -0.782252 0.622962 152.497 30.6936)" fill="#4FB5CF"/>
<rect width="2.10472" height="170.483" transform="matrix(-0.622962 -0.782252 -0.782252 0.622962 144.77 24.8262)" fill="#4FB5CF"/>
<rect width="2.10472" height="170.483" transform="matrix(-0.622962 -0.782252 -0.782252 0.622962 137.043 18.9589)" fill="#4FB5CF"/>
<rect width="2.10472" height="170.483" transform="matrix(-0.622962 -0.782252 -0.782252 0.622962 129.316 13.0916)" fill="#4FB5CF"/>
<rect width="2.10472" height="170.483" transform="matrix(-0.622962 -0.782252 -0.782252 0.622962 128.785 4.13904)" fill="#4FB5CF"/>
<rect width="2.10472" height="170.483" transform="matrix(-0.622962 -0.782252 -0.782252 0.622962 127.314 -3.78784)" fill="#4FB5CF"/>
<rect width="2.10472" height="170.483" transform="matrix(-0.622962 -0.782252 -0.782252 0.622962 124.844 -11.6555)" fill="#4FB5CF"/>
<rect width="2.10472" height="170.483" transform="matrix(-0.622962 -0.782252 -0.782252 0.622962 122.374 -19.5232)" fill="#4FB5CF"/>
<rect width="2.10472" height="170.483" transform="matrix(-0.622962 -0.782252 -0.782252 0.622962 119.905 -27.3909)" fill="#4FB5CF"/>
<rect width="2.10472" height="170.483" transform="matrix(-0.622962 -0.782252 -0.782252 0.622962 117.435 -35.2585)" fill="#4FB5CF"/>
<rect width="2.10472" height="170.483" transform="matrix(-0.622962 -0.782252 -0.782252 0.622962 114.965 -43.1263)" fill="#4FB5CF"/>
</g>
</svg>
